G04 EAGLE Gerber RS-274X export*
G75*
%MOMM*%
%FSLAX34Y34*%
%LPD*%
%INSolderpaste Bottom*%
%IPPOS*%
%AMOC8*
5,1,8,0,0,1.08239X$1,22.5*%
G01*
%ADD10C,1.000000*%
%ADD11C,0.222250*%
%ADD12C,0.165000*%
%ADD13C,0.200000*%
%ADD14R,0.508000X0.508000*%
%ADD15R,0.394284X0.220853*%
%ADD16R,0.394281X0.220850*%
%ADD17C,0.254000*%
%ADD18C,0.150000*%
%ADD19C,0.317500*%
%ADD20C,0.190500*%
%ADD21R,0.220853X0.394284*%
%ADD22R,0.220850X0.394281*%
%ADD23C,0.225000*%
%ADD24C,0.550000*%
%ADD25R,1.050000X1.050000*%
%ADD26R,0.500000X0.500000*%
%ADD27C,0.184800*%
%ADD28C,0.369600*%
%ADD29C,0.363000*%
%ADD30C,0.285000*%
%ADD31C,0.350000*%

G36*
X893926Y317955D02*
X893926Y317955D01*
X893930Y317952D01*
X894976Y318171D01*
X894981Y318177D01*
X894986Y318174D01*
X895957Y318621D01*
X895961Y318628D01*
X895966Y318627D01*
X896813Y319278D01*
X896816Y319286D01*
X896821Y319286D01*
X897502Y320109D01*
X897503Y320117D01*
X897508Y320118D01*
X897989Y321072D01*
X897987Y321080D01*
X897993Y321083D01*
X898249Y322120D01*
X898248Y322123D01*
X898249Y322124D01*
X898246Y322127D01*
X898250Y322131D01*
X898269Y323199D01*
X898269Y323200D01*
X898273Y324169D01*
X898268Y324176D01*
X898272Y324180D01*
X898059Y325126D01*
X898053Y325131D01*
X898056Y325136D01*
X897638Y326011D01*
X897631Y326015D01*
X897632Y326021D01*
X897031Y326781D01*
X897023Y326783D01*
X897023Y326789D01*
X896267Y327396D01*
X896259Y327396D01*
X896258Y327402D01*
X895386Y327825D01*
X895378Y327824D01*
X895375Y327829D01*
X894431Y328048D01*
X894429Y328047D01*
X894422Y328047D01*
X894420Y328049D01*
X882420Y328049D01*
X882418Y328048D01*
X882416Y328049D01*
X881299Y327968D01*
X881293Y327963D01*
X881288Y327966D01*
X880216Y327639D01*
X880212Y327632D01*
X880206Y327634D01*
X879234Y327077D01*
X879231Y327069D01*
X879226Y327070D01*
X878402Y326310D01*
X878401Y326302D01*
X878395Y326302D01*
X877761Y325377D01*
X877762Y325369D01*
X877756Y325368D01*
X877344Y324326D01*
X877346Y324320D01*
X877342Y324317D01*
X877343Y324316D01*
X877341Y324315D01*
X877171Y323207D01*
X877175Y323201D01*
X877171Y323197D01*
X877239Y322089D01*
X877245Y322083D01*
X877241Y322078D01*
X877554Y321014D01*
X877561Y321009D01*
X877559Y321003D01*
X878101Y320035D01*
X878109Y320032D01*
X878108Y320026D01*
X878852Y319203D01*
X878860Y319201D01*
X878860Y319196D01*
X879769Y318558D01*
X879777Y318559D01*
X879778Y318553D01*
X880806Y318134D01*
X880814Y318136D01*
X880817Y318131D01*
X881912Y317951D01*
X881917Y317954D01*
X881920Y317951D01*
X893920Y317951D01*
X893926Y317955D01*
G37*
G36*
X893926Y404356D02*
X893926Y404356D01*
X893931Y404352D01*
X894986Y404584D01*
X894991Y404590D01*
X894997Y404587D01*
X895974Y405048D01*
X895978Y405055D01*
X895984Y405054D01*
X896834Y405720D01*
X896836Y405728D01*
X896842Y405728D01*
X897523Y406567D01*
X897523Y406575D01*
X897529Y406576D01*
X898006Y407546D01*
X898004Y407554D01*
X898010Y407556D01*
X898259Y408608D01*
X898256Y408616D01*
X898260Y408619D01*
X898269Y409700D01*
X898268Y409702D01*
X898269Y409703D01*
X898201Y410710D01*
X898195Y410716D01*
X898199Y410721D01*
X897908Y411686D01*
X897902Y411691D01*
X897904Y411697D01*
X897406Y412574D01*
X897398Y412577D01*
X897399Y412583D01*
X896718Y413327D01*
X896710Y413328D01*
X896710Y413334D01*
X895881Y413908D01*
X895873Y413908D01*
X895871Y413913D01*
X894935Y414288D01*
X894927Y414286D01*
X894924Y414291D01*
X893928Y414449D01*
X893925Y414447D01*
X893922Y414447D01*
X893920Y414449D01*
X881920Y414449D01*
X881917Y414447D01*
X881916Y414447D01*
X881915Y414449D01*
X880869Y414331D01*
X880863Y414325D01*
X880858Y414329D01*
X879864Y413981D01*
X879860Y413974D01*
X879855Y413976D01*
X878963Y413416D01*
X878961Y413409D01*
X878955Y413409D01*
X878211Y412665D01*
X878209Y412657D01*
X878204Y412657D01*
X877644Y411765D01*
X877644Y411757D01*
X877639Y411756D01*
X877291Y410762D01*
X877294Y410754D01*
X877289Y410751D01*
X877171Y409706D01*
X877174Y409700D01*
X877171Y409697D01*
X877229Y408577D01*
X877235Y408571D01*
X877231Y408566D01*
X877538Y407487D01*
X877544Y407482D01*
X877542Y407477D01*
X878081Y406493D01*
X878088Y406490D01*
X878087Y406484D01*
X878831Y405645D01*
X878839Y405644D01*
X878839Y405638D01*
X879752Y404985D01*
X879760Y404985D01*
X879761Y404980D01*
X880796Y404547D01*
X880803Y404548D01*
X880804Y404548D01*
X880806Y404544D01*
X881912Y404351D01*
X881917Y404354D01*
X881920Y404351D01*
X893920Y404351D01*
X893926Y404356D01*
G37*
G36*
X932722Y317953D02*
X932722Y317953D01*
X932724Y317951D01*
X933807Y318039D01*
X933813Y318045D01*
X933818Y318041D01*
X934854Y318368D01*
X934859Y318375D01*
X934864Y318373D01*
X935802Y318922D01*
X935805Y318930D01*
X935810Y318929D01*
X936602Y319673D01*
X936603Y319681D01*
X936609Y319681D01*
X937216Y320583D01*
X937215Y320591D01*
X937221Y320593D01*
X937611Y321607D01*
X937609Y321615D01*
X937614Y321618D01*
X937769Y322693D01*
X937766Y322699D01*
X937769Y322702D01*
X937735Y323802D01*
X937730Y323808D01*
X937734Y323813D01*
X937456Y324878D01*
X937450Y324883D01*
X937452Y324888D01*
X936944Y325865D01*
X936937Y325869D01*
X936938Y325874D01*
X936225Y326713D01*
X936217Y326715D01*
X936217Y326721D01*
X935336Y327381D01*
X935328Y327381D01*
X935326Y327386D01*
X934320Y327833D01*
X934312Y327831D01*
X934310Y327836D01*
X933229Y328048D01*
X933227Y328047D01*
X933222Y328047D01*
X933220Y328049D01*
X927220Y328049D01*
X927219Y328048D01*
X927218Y328049D01*
X926063Y327998D01*
X926057Y327993D01*
X926052Y327996D01*
X924938Y327689D01*
X924933Y327683D01*
X924928Y327685D01*
X923909Y327138D01*
X923906Y327131D01*
X923900Y327132D01*
X923029Y326372D01*
X923028Y326364D01*
X923022Y326364D01*
X922342Y325429D01*
X922342Y325421D01*
X922337Y325419D01*
X921882Y324357D01*
X921884Y324349D01*
X921879Y324346D01*
X921672Y323209D01*
X921676Y323200D01*
X921671Y323195D01*
X921777Y322058D01*
X921782Y322052D01*
X921779Y322047D01*
X922135Y320962D01*
X922142Y320957D01*
X922139Y320952D01*
X922728Y319973D01*
X922736Y319970D01*
X922735Y319964D01*
X923527Y319141D01*
X923535Y319140D01*
X923535Y319134D01*
X924490Y318507D01*
X924498Y318508D01*
X924500Y318502D01*
X925570Y318104D01*
X925578Y318106D01*
X925581Y318101D01*
X926714Y317951D01*
X926718Y317954D01*
X926720Y317951D01*
X932720Y317951D01*
X932722Y317953D01*
G37*
G36*
X932723Y404353D02*
X932723Y404353D01*
X932725Y404351D01*
X933817Y404452D01*
X933823Y404457D01*
X933828Y404454D01*
X934871Y404795D01*
X934876Y404802D01*
X934881Y404800D01*
X935822Y405364D01*
X935825Y405372D01*
X935831Y405371D01*
X936623Y406131D01*
X936624Y406139D01*
X936630Y406140D01*
X937233Y407057D01*
X937232Y407065D01*
X937238Y407067D01*
X937621Y408095D01*
X937619Y408103D01*
X937624Y408106D01*
X937769Y409194D01*
X937765Y409201D01*
X937769Y409205D01*
X937663Y410342D01*
X937658Y410348D01*
X937661Y410353D01*
X937305Y411438D01*
X937298Y411443D01*
X937301Y411448D01*
X936712Y412427D01*
X936704Y412430D01*
X936705Y412436D01*
X935913Y413259D01*
X935905Y413260D01*
X935905Y413266D01*
X934950Y413893D01*
X934942Y413892D01*
X934940Y413898D01*
X933870Y414296D01*
X933862Y414294D01*
X933859Y414299D01*
X932726Y414449D01*
X932723Y414447D01*
X932722Y414447D01*
X932720Y414449D01*
X926720Y414449D01*
X926717Y414447D01*
X926715Y414447D01*
X926714Y414449D01*
X925581Y414299D01*
X925575Y414293D01*
X925570Y414296D01*
X924500Y413898D01*
X924496Y413891D01*
X924490Y413893D01*
X923535Y413266D01*
X923532Y413258D01*
X923527Y413259D01*
X922735Y412436D01*
X922734Y412428D01*
X922728Y412427D01*
X922139Y411448D01*
X922140Y411440D01*
X922135Y411438D01*
X921779Y410353D01*
X921782Y410345D01*
X921777Y410342D01*
X921671Y409205D01*
X921675Y409198D01*
X921671Y409194D01*
X921816Y408106D01*
X921822Y408100D01*
X921819Y408095D01*
X922203Y407067D01*
X922209Y407062D01*
X922208Y407057D01*
X922810Y406140D01*
X922818Y406137D01*
X922817Y406131D01*
X923609Y405371D01*
X923617Y405370D01*
X923618Y405364D01*
X924559Y404800D01*
X924567Y404801D01*
X924569Y404795D01*
X925612Y404454D01*
X925620Y404456D01*
X925623Y404452D01*
X926716Y404351D01*
X926718Y404353D01*
X926720Y404351D01*
X932720Y404351D01*
X932723Y404353D01*
G37*
D10*
X648865Y785750D02*
X656865Y785750D01*
X618865Y785750D02*
X606865Y785750D01*
X648865Y674250D02*
X656865Y674250D01*
X618865Y674250D02*
X606865Y674250D01*
D11*
X849784Y78894D02*
X849784Y72226D01*
X843116Y72226D01*
X843116Y78894D01*
X849784Y78894D01*
X849784Y74338D02*
X843116Y74338D01*
X843116Y76450D02*
X849784Y76450D01*
X849784Y78562D02*
X843116Y78562D01*
X849784Y87466D02*
X849784Y94134D01*
X849784Y87466D02*
X843116Y87466D01*
X843116Y94134D01*
X849784Y94134D01*
X849784Y89578D02*
X843116Y89578D01*
X843116Y91690D02*
X849784Y91690D01*
X849784Y93802D02*
X843116Y93802D01*
X688494Y77624D02*
X681826Y77624D01*
X688494Y77624D02*
X688494Y70956D01*
X681826Y70956D01*
X681826Y77624D01*
X681826Y73068D02*
X688494Y73068D01*
X688494Y75180D02*
X681826Y75180D01*
X681826Y77292D02*
X688494Y77292D01*
X673254Y77624D02*
X666586Y77624D01*
X673254Y77624D02*
X673254Y70956D01*
X666586Y70956D01*
X666586Y77624D01*
X666586Y73068D02*
X673254Y73068D01*
X673254Y75180D02*
X666586Y75180D01*
X666586Y77292D02*
X673254Y77292D01*
X694526Y70956D02*
X701194Y70956D01*
X694526Y70956D02*
X694526Y77624D01*
X701194Y77624D01*
X701194Y70956D01*
X701194Y73068D02*
X694526Y73068D01*
X694526Y75180D02*
X701194Y75180D01*
X701194Y77292D02*
X694526Y77292D01*
X709766Y70956D02*
X716434Y70956D01*
X709766Y70956D02*
X709766Y77624D01*
X716434Y77624D01*
X716434Y70956D01*
X716434Y73068D02*
X709766Y73068D01*
X709766Y75180D02*
X716434Y75180D01*
X716434Y77292D02*
X709766Y77292D01*
X735166Y157380D02*
X741834Y157380D01*
X741834Y150712D01*
X735166Y150712D01*
X735166Y157380D01*
X735166Y152824D02*
X741834Y152824D01*
X741834Y154936D02*
X735166Y154936D01*
X735166Y157048D02*
X741834Y157048D01*
X726594Y157380D02*
X719926Y157380D01*
X726594Y157380D02*
X726594Y150712D01*
X719926Y150712D01*
X719926Y157380D01*
X719926Y152824D02*
X726594Y152824D01*
X726594Y154936D02*
X719926Y154936D01*
X719926Y157048D02*
X726594Y157048D01*
X843116Y160554D02*
X849784Y160554D01*
X849784Y153886D01*
X843116Y153886D01*
X843116Y160554D01*
X843116Y155998D02*
X849784Y155998D01*
X849784Y158110D02*
X843116Y158110D01*
X843116Y160222D02*
X849784Y160222D01*
X849784Y144554D02*
X843116Y144554D01*
X849784Y144554D02*
X849784Y137886D01*
X843116Y137886D01*
X843116Y144554D01*
X843116Y139998D02*
X849784Y139998D01*
X849784Y142110D02*
X843116Y142110D01*
X843116Y144222D02*
X849784Y144222D01*
X491644Y162460D02*
X484976Y162460D01*
X491644Y162460D02*
X491644Y155792D01*
X484976Y155792D01*
X484976Y162460D01*
X484976Y157904D02*
X491644Y157904D01*
X491644Y160016D02*
X484976Y160016D01*
X484976Y162128D02*
X491644Y162128D01*
X476404Y162460D02*
X469736Y162460D01*
X476404Y162460D02*
X476404Y155792D01*
X469736Y155792D01*
X469736Y162460D01*
X469736Y157904D02*
X476404Y157904D01*
X476404Y160016D02*
X469736Y160016D01*
X469736Y162128D02*
X476404Y162128D01*
X463704Y162460D02*
X457036Y162460D01*
X463704Y162460D02*
X463704Y155792D01*
X457036Y155792D01*
X457036Y162460D01*
X457036Y157904D02*
X463704Y157904D01*
X463704Y160016D02*
X457036Y160016D01*
X457036Y162128D02*
X463704Y162128D01*
X448464Y162460D02*
X441796Y162460D01*
X448464Y162460D02*
X448464Y155792D01*
X441796Y155792D01*
X441796Y162460D01*
X441796Y157904D02*
X448464Y157904D01*
X448464Y160016D02*
X441796Y160016D01*
X441796Y162128D02*
X448464Y162128D01*
X469736Y134456D02*
X476404Y134456D01*
X469736Y134456D02*
X469736Y141124D01*
X476404Y141124D01*
X476404Y134456D01*
X476404Y136568D02*
X469736Y136568D01*
X469736Y138680D02*
X476404Y138680D01*
X476404Y140792D02*
X469736Y140792D01*
X484976Y134456D02*
X491644Y134456D01*
X484976Y134456D02*
X484976Y141124D01*
X491644Y141124D01*
X491644Y134456D01*
X491644Y136568D02*
X484976Y136568D01*
X484976Y138680D02*
X491644Y138680D01*
X491644Y140792D02*
X484976Y140792D01*
X476404Y121756D02*
X469736Y121756D01*
X469736Y128424D01*
X476404Y128424D01*
X476404Y121756D01*
X476404Y123868D02*
X469736Y123868D01*
X469736Y125980D02*
X476404Y125980D01*
X476404Y128092D02*
X469736Y128092D01*
X484976Y121756D02*
X491644Y121756D01*
X484976Y121756D02*
X484976Y128424D01*
X491644Y128424D01*
X491644Y121756D01*
X491644Y123868D02*
X484976Y123868D01*
X484976Y125980D02*
X491644Y125980D01*
X491644Y128092D02*
X484976Y128092D01*
X476404Y103976D02*
X469736Y103976D01*
X469736Y110644D01*
X476404Y110644D01*
X476404Y103976D01*
X476404Y106088D02*
X469736Y106088D01*
X469736Y108200D02*
X476404Y108200D01*
X476404Y110312D02*
X469736Y110312D01*
X484976Y103976D02*
X491644Y103976D01*
X484976Y103976D02*
X484976Y110644D01*
X491644Y110644D01*
X491644Y103976D01*
X491644Y106088D02*
X484976Y106088D01*
X484976Y108200D02*
X491644Y108200D01*
X491644Y110312D02*
X484976Y110312D01*
X599276Y103024D02*
X599276Y96356D01*
X599276Y103024D02*
X605944Y103024D01*
X605944Y96356D01*
X599276Y96356D01*
X599276Y98468D02*
X605944Y98468D01*
X605944Y100580D02*
X599276Y100580D01*
X599276Y102692D02*
X605944Y102692D01*
X599276Y87784D02*
X599276Y81116D01*
X599276Y87784D02*
X605944Y87784D01*
X605944Y81116D01*
X599276Y81116D01*
X599276Y83228D02*
X605944Y83228D01*
X605944Y85340D02*
X599276Y85340D01*
X599276Y87452D02*
X605944Y87452D01*
X611976Y96356D02*
X611976Y103024D01*
X618644Y103024D01*
X618644Y96356D01*
X611976Y96356D01*
X611976Y98468D02*
X618644Y98468D01*
X618644Y100580D02*
X611976Y100580D01*
X611976Y102692D02*
X618644Y102692D01*
X611976Y87784D02*
X611976Y81116D01*
X611976Y87784D02*
X618644Y87784D01*
X618644Y81116D01*
X611976Y81116D01*
X611976Y83228D02*
X618644Y83228D01*
X618644Y85340D02*
X611976Y85340D01*
X611976Y87452D02*
X618644Y87452D01*
D12*
X296986Y161335D02*
X296986Y162185D01*
X305336Y162185D01*
X305336Y161335D01*
X296986Y161335D01*
X296986Y157185D02*
X296986Y156335D01*
X296986Y157185D02*
X305336Y157185D01*
X305336Y156335D01*
X296986Y156335D01*
X296986Y152185D02*
X296986Y151335D01*
X296986Y152185D02*
X305336Y152185D01*
X305336Y151335D01*
X296986Y151335D01*
X296986Y147185D02*
X296986Y146335D01*
X296986Y147185D02*
X305336Y147185D01*
X305336Y146335D01*
X296986Y146335D01*
X296986Y142185D02*
X296986Y141335D01*
X296986Y142185D02*
X305336Y142185D01*
X305336Y141335D01*
X296986Y141335D01*
X263074Y141335D02*
X263074Y142185D01*
X263074Y141335D02*
X254724Y141335D01*
X254724Y142185D01*
X263074Y142185D01*
X263074Y146335D02*
X263074Y147185D01*
X263074Y146335D02*
X254724Y146335D01*
X254724Y147185D01*
X263074Y147185D01*
X263074Y151335D02*
X263074Y152185D01*
X263074Y151335D02*
X254724Y151335D01*
X254724Y152185D01*
X263074Y152185D01*
X263074Y156335D02*
X263074Y157185D01*
X263074Y156335D02*
X254724Y156335D01*
X254724Y157185D01*
X263074Y157185D01*
X263074Y161335D02*
X263074Y162185D01*
X263074Y161335D02*
X254724Y161335D01*
X254724Y162185D01*
X263074Y162185D01*
D11*
X281014Y87466D02*
X287682Y87466D01*
X281014Y87466D02*
X281014Y94134D01*
X287682Y94134D01*
X287682Y87466D01*
X287682Y89578D02*
X281014Y89578D01*
X281014Y91690D02*
X287682Y91690D01*
X287682Y93802D02*
X281014Y93802D01*
X296254Y87466D02*
X302922Y87466D01*
X296254Y87466D02*
X296254Y94134D01*
X302922Y94134D01*
X302922Y87466D01*
X302922Y89578D02*
X296254Y89578D01*
X296254Y91690D02*
X302922Y91690D01*
X302922Y93802D02*
X296254Y93802D01*
X205894Y157634D02*
X199226Y157634D01*
X205894Y157634D02*
X205894Y150966D01*
X199226Y150966D01*
X199226Y157634D01*
X199226Y153078D02*
X205894Y153078D01*
X205894Y155190D02*
X199226Y155190D01*
X199226Y157302D02*
X205894Y157302D01*
X190654Y157634D02*
X183986Y157634D01*
X190654Y157634D02*
X190654Y150966D01*
X183986Y150966D01*
X183986Y157634D01*
X183986Y153078D02*
X190654Y153078D01*
X190654Y155190D02*
X183986Y155190D01*
X183986Y157302D02*
X190654Y157302D01*
X211926Y160174D02*
X211926Y153506D01*
X211926Y160174D02*
X218594Y160174D01*
X218594Y153506D01*
X211926Y153506D01*
X211926Y155618D02*
X218594Y155618D01*
X218594Y157730D02*
X211926Y157730D01*
X211926Y159842D02*
X218594Y159842D01*
X211926Y144934D02*
X211926Y138266D01*
X211926Y144934D02*
X218594Y144934D01*
X218594Y138266D01*
X211926Y138266D01*
X211926Y140378D02*
X218594Y140378D01*
X218594Y142490D02*
X211926Y142490D01*
X211926Y144602D02*
X218594Y144602D01*
X205894Y144934D02*
X199226Y144934D01*
X205894Y144934D02*
X205894Y138266D01*
X199226Y138266D01*
X199226Y144934D01*
X199226Y140378D02*
X205894Y140378D01*
X205894Y142490D02*
X199226Y142490D01*
X199226Y144602D02*
X205894Y144602D01*
X190654Y144934D02*
X183986Y144934D01*
X190654Y144934D02*
X190654Y138266D01*
X183986Y138266D01*
X183986Y144934D01*
X183986Y140378D02*
X190654Y140378D01*
X190654Y142490D02*
X183986Y142490D01*
X183986Y144602D02*
X190654Y144602D01*
X242406Y142394D02*
X249074Y142394D01*
X249074Y135726D01*
X242406Y135726D01*
X242406Y142394D01*
X242406Y137838D02*
X249074Y137838D01*
X249074Y139950D02*
X242406Y139950D01*
X242406Y142062D02*
X249074Y142062D01*
X233834Y142394D02*
X227166Y142394D01*
X233834Y142394D02*
X233834Y135726D01*
X227166Y135726D01*
X227166Y142394D01*
X227166Y137838D02*
X233834Y137838D01*
X233834Y139950D02*
X227166Y139950D01*
X227166Y142062D02*
X233834Y142062D01*
D13*
X275286Y104200D02*
X275286Y98200D01*
X273286Y98200D01*
X273286Y104200D01*
X275286Y104200D01*
X275286Y100100D02*
X273286Y100100D01*
X273286Y102000D02*
X275286Y102000D01*
X275286Y103900D02*
X273286Y103900D01*
X268786Y104200D02*
X268786Y98200D01*
X266786Y98200D01*
X266786Y104200D01*
X268786Y104200D01*
X268786Y100100D02*
X266786Y100100D01*
X266786Y102000D02*
X268786Y102000D01*
X268786Y103900D02*
X266786Y103900D01*
X262286Y104200D02*
X262286Y98200D01*
X260286Y98200D01*
X260286Y104200D01*
X262286Y104200D01*
X262286Y100100D02*
X260286Y100100D01*
X260286Y102000D02*
X262286Y102000D01*
X262286Y103900D02*
X260286Y103900D01*
X255786Y104200D02*
X255786Y98200D01*
X253786Y98200D01*
X253786Y104200D01*
X255786Y104200D01*
X255786Y100100D02*
X253786Y100100D01*
X253786Y102000D02*
X255786Y102000D01*
X255786Y103900D02*
X253786Y103900D01*
X255786Y128200D02*
X255786Y134200D01*
X255786Y128200D02*
X253786Y128200D01*
X253786Y134200D01*
X255786Y134200D01*
X255786Y130100D02*
X253786Y130100D01*
X253786Y132000D02*
X255786Y132000D01*
X255786Y133900D02*
X253786Y133900D01*
X262286Y134200D02*
X262286Y128200D01*
X260286Y128200D01*
X260286Y134200D01*
X262286Y134200D01*
X262286Y130100D02*
X260286Y130100D01*
X260286Y132000D02*
X262286Y132000D01*
X262286Y133900D02*
X260286Y133900D01*
X268786Y134200D02*
X268786Y128200D01*
X266786Y128200D01*
X266786Y134200D01*
X268786Y134200D01*
X268786Y130100D02*
X266786Y130100D01*
X266786Y132000D02*
X268786Y132000D01*
X268786Y133900D02*
X266786Y133900D01*
X275286Y134200D02*
X275286Y128200D01*
X273286Y128200D01*
X273286Y134200D01*
X275286Y134200D01*
X275286Y130100D02*
X273286Y130100D01*
X273286Y132000D02*
X275286Y132000D01*
X275286Y133900D02*
X273286Y133900D01*
D14*
X273426Y113660D03*
X273426Y122550D03*
X264536Y113660D03*
X264536Y122550D03*
X255646Y113660D03*
X255646Y122550D03*
D15*
X279613Y116204D03*
D16*
X249658Y116209D03*
D17*
X265806Y117470D02*
X265806Y114930D01*
X263266Y114930D01*
X263266Y117470D01*
X265806Y117470D01*
X265806Y117343D02*
X263266Y117343D01*
D13*
X765274Y97000D02*
X765274Y91000D01*
X758274Y91000D01*
X758274Y97000D01*
X765274Y97000D01*
X765274Y92900D02*
X758274Y92900D01*
X758274Y94800D02*
X765274Y94800D01*
X765274Y96700D02*
X758274Y96700D01*
X765274Y110000D02*
X765274Y116000D01*
X765274Y110000D02*
X758274Y110000D01*
X758274Y116000D01*
X765274Y116000D01*
X765274Y111900D02*
X758274Y111900D01*
X758274Y113800D02*
X765274Y113800D01*
X765274Y115700D02*
X758274Y115700D01*
X786274Y106500D02*
X786274Y100500D01*
X779274Y100500D01*
X779274Y106500D01*
X786274Y106500D01*
X786274Y102400D02*
X779274Y102400D01*
X779274Y104300D02*
X786274Y104300D01*
X786274Y106200D02*
X779274Y106200D01*
D11*
X802476Y154776D02*
X809144Y154776D01*
X802476Y154776D02*
X802476Y161444D01*
X809144Y161444D01*
X809144Y154776D01*
X809144Y156888D02*
X802476Y156888D01*
X802476Y159000D02*
X809144Y159000D01*
X809144Y161112D02*
X802476Y161112D01*
X817716Y154776D02*
X824384Y154776D01*
X817716Y154776D02*
X817716Y161444D01*
X824384Y161444D01*
X824384Y154776D01*
X824384Y156888D02*
X817716Y156888D01*
X817716Y159000D02*
X824384Y159000D01*
X824384Y161112D02*
X817716Y161112D01*
X768504Y77306D02*
X761836Y77306D01*
X761836Y83974D01*
X768504Y83974D01*
X768504Y77306D01*
X768504Y79418D02*
X761836Y79418D01*
X761836Y81530D02*
X768504Y81530D01*
X768504Y83642D02*
X761836Y83642D01*
X777076Y77306D02*
X783744Y77306D01*
X777076Y77306D02*
X777076Y83974D01*
X783744Y83974D01*
X783744Y77306D01*
X783744Y79418D02*
X777076Y79418D01*
X777076Y81530D02*
X783744Y81530D01*
X783744Y83642D02*
X777076Y83642D01*
D18*
X464710Y78470D02*
X464710Y73970D01*
X454210Y73970D01*
X454210Y78470D01*
X464710Y78470D01*
X464710Y75395D02*
X454210Y75395D01*
X454210Y76820D02*
X464710Y76820D01*
X464710Y78245D02*
X454210Y78245D01*
X464710Y92970D02*
X464710Y97470D01*
X464710Y92970D02*
X454210Y92970D01*
X454210Y97470D01*
X464710Y97470D01*
X464710Y94395D02*
X454210Y94395D01*
X454210Y95820D02*
X464710Y95820D01*
X464710Y97245D02*
X454210Y97245D01*
X438590Y78470D02*
X438590Y73970D01*
X428090Y73970D01*
X428090Y78470D01*
X438590Y78470D01*
X438590Y75395D02*
X428090Y75395D01*
X428090Y76820D02*
X438590Y76820D01*
X438590Y78245D02*
X428090Y78245D01*
X438590Y83470D02*
X438590Y87970D01*
X438590Y83470D02*
X428090Y83470D01*
X428090Y87970D01*
X438590Y87970D01*
X438590Y84895D02*
X428090Y84895D01*
X428090Y86320D02*
X438590Y86320D01*
X438590Y87745D02*
X428090Y87745D01*
X438590Y92970D02*
X438590Y97470D01*
X438590Y92970D02*
X428090Y92970D01*
X428090Y97470D01*
X438590Y97470D01*
X438590Y94395D02*
X428090Y94395D01*
X428090Y95820D02*
X438590Y95820D01*
X438590Y97245D02*
X428090Y97245D01*
D11*
X350674Y138330D02*
X344006Y138330D01*
X350674Y138330D02*
X350674Y131662D01*
X344006Y131662D01*
X344006Y138330D01*
X344006Y133774D02*
X350674Y133774D01*
X350674Y135886D02*
X344006Y135886D01*
X344006Y137998D02*
X350674Y137998D01*
X335434Y138330D02*
X328766Y138330D01*
X335434Y138330D02*
X335434Y131662D01*
X328766Y131662D01*
X328766Y138330D01*
X328766Y133774D02*
X335434Y133774D01*
X335434Y135886D02*
X328766Y135886D01*
X328766Y137998D02*
X335434Y137998D01*
X356706Y144362D02*
X356706Y151030D01*
X363374Y151030D01*
X363374Y144362D01*
X356706Y144362D01*
X356706Y146474D02*
X363374Y146474D01*
X363374Y148586D02*
X356706Y148586D01*
X356706Y150698D02*
X363374Y150698D01*
X356706Y135790D02*
X356706Y129122D01*
X356706Y135790D02*
X363374Y135790D01*
X363374Y129122D01*
X356706Y129122D01*
X356706Y131234D02*
X363374Y131234D01*
X363374Y133346D02*
X356706Y133346D01*
X356706Y135458D02*
X363374Y135458D01*
X315622Y111914D02*
X315622Y105246D01*
X308954Y105246D01*
X308954Y111914D01*
X315622Y111914D01*
X315622Y107358D02*
X308954Y107358D01*
X308954Y109470D02*
X315622Y109470D01*
X315622Y111582D02*
X308954Y111582D01*
X315622Y120486D02*
X315622Y127154D01*
X315622Y120486D02*
X308954Y120486D01*
X308954Y127154D01*
X315622Y127154D01*
X315622Y122598D02*
X308954Y122598D01*
X308954Y124710D02*
X315622Y124710D01*
X315622Y126822D02*
X308954Y126822D01*
X407824Y80164D02*
X407824Y73496D01*
X401156Y73496D01*
X401156Y80164D01*
X407824Y80164D01*
X407824Y75608D02*
X401156Y75608D01*
X401156Y77720D02*
X407824Y77720D01*
X407824Y79832D02*
X401156Y79832D01*
X407824Y88736D02*
X407824Y95404D01*
X407824Y88736D02*
X401156Y88736D01*
X401156Y95404D01*
X407824Y95404D01*
X407824Y90848D02*
X401156Y90848D01*
X401156Y92960D02*
X407824Y92960D01*
X407824Y95072D02*
X401156Y95072D01*
X420524Y80164D02*
X420524Y73496D01*
X413856Y73496D01*
X413856Y80164D01*
X420524Y80164D01*
X420524Y75608D02*
X413856Y75608D01*
X413856Y77720D02*
X420524Y77720D01*
X420524Y79832D02*
X413856Y79832D01*
X420524Y88736D02*
X420524Y95404D01*
X420524Y88736D02*
X413856Y88736D01*
X413856Y95404D01*
X420524Y95404D01*
X420524Y90848D02*
X413856Y90848D01*
X413856Y92960D02*
X420524Y92960D01*
X420524Y95072D02*
X413856Y95072D01*
D13*
X222070Y96770D02*
X222070Y89770D01*
X216070Y89770D01*
X216070Y96770D01*
X222070Y96770D01*
X222070Y91670D02*
X216070Y91670D01*
X216070Y93570D02*
X222070Y93570D01*
X222070Y95470D02*
X216070Y95470D01*
X222070Y112770D02*
X222070Y119770D01*
X222070Y112770D02*
X216070Y112770D01*
X216070Y119770D01*
X222070Y119770D01*
X222070Y114670D02*
X216070Y114670D01*
X216070Y116570D02*
X222070Y116570D01*
X222070Y118470D02*
X216070Y118470D01*
D19*
X175573Y124137D02*
X175573Y133663D01*
X175573Y124137D02*
X163507Y124137D01*
X163507Y133663D01*
X175573Y133663D01*
X175573Y127153D02*
X163507Y127153D01*
X163507Y130169D02*
X175573Y130169D01*
X175573Y133185D02*
X163507Y133185D01*
X175573Y149537D02*
X175573Y159063D01*
X175573Y149537D02*
X163507Y149537D01*
X163507Y159063D01*
X175573Y159063D01*
X175573Y152553D02*
X163507Y152553D01*
X163507Y155569D02*
X175573Y155569D01*
X175573Y158585D02*
X163507Y158585D01*
D11*
X806286Y77624D02*
X812954Y77624D01*
X812954Y70956D01*
X806286Y70956D01*
X806286Y77624D01*
X806286Y73068D02*
X812954Y73068D01*
X812954Y75180D02*
X806286Y75180D01*
X806286Y77292D02*
X812954Y77292D01*
X797714Y77624D02*
X791046Y77624D01*
X797714Y77624D02*
X797714Y70956D01*
X791046Y70956D01*
X791046Y77624D01*
X791046Y73068D02*
X797714Y73068D01*
X797714Y75180D02*
X791046Y75180D01*
X791046Y77292D02*
X797714Y77292D01*
D20*
X670238Y84132D02*
X664522Y84132D01*
X664522Y97468D01*
X670238Y97468D01*
X670238Y84132D01*
X670238Y85942D02*
X664522Y85942D01*
X664522Y87752D02*
X670238Y87752D01*
X670238Y89562D02*
X664522Y89562D01*
X664522Y91372D02*
X670238Y91372D01*
X670238Y93182D02*
X664522Y93182D01*
X664522Y94992D02*
X670238Y94992D01*
X670238Y96802D02*
X664522Y96802D01*
X664522Y134932D02*
X670238Y134932D01*
X664522Y134932D02*
X664522Y148268D01*
X670238Y148268D01*
X670238Y134932D01*
X670238Y136742D02*
X664522Y136742D01*
X664522Y138552D02*
X670238Y138552D01*
X670238Y140362D02*
X664522Y140362D01*
X664522Y142172D02*
X670238Y142172D01*
X670238Y143982D02*
X664522Y143982D01*
X664522Y145792D02*
X670238Y145792D01*
X670238Y147602D02*
X664522Y147602D01*
X632138Y84132D02*
X626422Y84132D01*
X626422Y97468D01*
X632138Y97468D01*
X632138Y84132D01*
X632138Y85942D02*
X626422Y85942D01*
X626422Y87752D02*
X632138Y87752D01*
X632138Y89562D02*
X626422Y89562D01*
X626422Y91372D02*
X632138Y91372D01*
X632138Y93182D02*
X626422Y93182D01*
X626422Y94992D02*
X632138Y94992D01*
X632138Y96802D02*
X626422Y96802D01*
X626422Y134932D02*
X632138Y134932D01*
X626422Y134932D02*
X626422Y148268D01*
X632138Y148268D01*
X632138Y134932D01*
X632138Y136742D02*
X626422Y136742D01*
X626422Y138552D02*
X632138Y138552D01*
X632138Y140362D02*
X626422Y140362D01*
X626422Y142172D02*
X632138Y142172D01*
X632138Y143982D02*
X626422Y143982D01*
X626422Y145792D02*
X632138Y145792D01*
X632138Y147602D02*
X626422Y147602D01*
X791522Y148268D02*
X797238Y148268D01*
X797238Y134932D01*
X791522Y134932D01*
X791522Y148268D01*
X791522Y136742D02*
X797238Y136742D01*
X797238Y138552D02*
X791522Y138552D01*
X791522Y140362D02*
X797238Y140362D01*
X797238Y142172D02*
X791522Y142172D01*
X791522Y143982D02*
X797238Y143982D01*
X797238Y145792D02*
X791522Y145792D01*
X791522Y147602D02*
X797238Y147602D01*
X797238Y97468D02*
X791522Y97468D01*
X797238Y97468D02*
X797238Y84132D01*
X791522Y84132D01*
X791522Y97468D01*
X791522Y85942D02*
X797238Y85942D01*
X797238Y87752D02*
X791522Y87752D01*
X791522Y89562D02*
X797238Y89562D01*
X797238Y91372D02*
X791522Y91372D01*
X791522Y93182D02*
X797238Y93182D01*
X797238Y94992D02*
X791522Y94992D01*
X791522Y96802D02*
X797238Y96802D01*
X829622Y148268D02*
X835338Y148268D01*
X835338Y134932D01*
X829622Y134932D01*
X829622Y148268D01*
X829622Y136742D02*
X835338Y136742D01*
X835338Y138552D02*
X829622Y138552D01*
X829622Y140362D02*
X835338Y140362D01*
X835338Y142172D02*
X829622Y142172D01*
X829622Y143982D02*
X835338Y143982D01*
X835338Y145792D02*
X829622Y145792D01*
X829622Y147602D02*
X835338Y147602D01*
X835338Y97468D02*
X829622Y97468D01*
X835338Y97468D02*
X835338Y84132D01*
X829622Y84132D01*
X829622Y97468D01*
X829622Y85942D02*
X835338Y85942D01*
X835338Y87752D02*
X829622Y87752D01*
X829622Y89562D02*
X835338Y89562D01*
X835338Y91372D02*
X829622Y91372D01*
X829622Y93182D02*
X835338Y93182D01*
X835338Y94992D02*
X829622Y94992D01*
X829622Y96802D02*
X835338Y96802D01*
D13*
X207860Y114250D02*
X201860Y114250D01*
X207860Y114250D02*
X207860Y112250D01*
X201860Y112250D01*
X201860Y114250D01*
X201860Y114150D02*
X207860Y114150D01*
X207860Y107750D02*
X201860Y107750D01*
X207860Y107750D02*
X207860Y105750D01*
X201860Y105750D01*
X201860Y107750D01*
X201860Y107650D02*
X207860Y107650D01*
X207860Y101250D02*
X201860Y101250D01*
X207860Y101250D02*
X207860Y99250D01*
X201860Y99250D01*
X201860Y101250D01*
X201860Y101150D02*
X207860Y101150D01*
X207860Y94750D02*
X201860Y94750D01*
X207860Y94750D02*
X207860Y92750D01*
X201860Y92750D01*
X201860Y94750D01*
X201860Y94650D02*
X207860Y94650D01*
X177860Y94750D02*
X171860Y94750D01*
X177860Y94750D02*
X177860Y92750D01*
X171860Y92750D01*
X171860Y94750D01*
X171860Y94650D02*
X177860Y94650D01*
X177860Y101250D02*
X171860Y101250D01*
X177860Y101250D02*
X177860Y99250D01*
X171860Y99250D01*
X171860Y101250D01*
X171860Y101150D02*
X177860Y101150D01*
X177860Y107750D02*
X171860Y107750D01*
X177860Y107750D02*
X177860Y105750D01*
X171860Y105750D01*
X171860Y107750D01*
X171860Y107650D02*
X177860Y107650D01*
X177860Y114250D02*
X171860Y114250D01*
X177860Y114250D02*
X177860Y112250D01*
X171860Y112250D01*
X171860Y114250D01*
X171860Y114150D02*
X177860Y114150D01*
D14*
X192400Y112390D03*
X183510Y112390D03*
X192400Y103500D03*
X183510Y103500D03*
X192400Y94610D03*
X183510Y94610D03*
D21*
X189856Y118577D03*
D22*
X189851Y88622D03*
D17*
X188590Y104770D02*
X191130Y104770D01*
X191130Y102230D01*
X188590Y102230D01*
X188590Y104770D01*
X188590Y104643D02*
X191130Y104643D01*
D11*
X190654Y124296D02*
X183986Y124296D01*
X183986Y130964D01*
X190654Y130964D01*
X190654Y124296D01*
X190654Y126408D02*
X183986Y126408D01*
X183986Y128520D02*
X190654Y128520D01*
X190654Y130632D02*
X183986Y130632D01*
X199226Y124296D02*
X205894Y124296D01*
X199226Y124296D02*
X199226Y130964D01*
X205894Y130964D01*
X205894Y124296D01*
X205894Y126408D02*
X199226Y126408D01*
X199226Y128520D02*
X205894Y128520D01*
X205894Y130632D02*
X199226Y130632D01*
D13*
X358920Y104570D02*
X358920Y98570D01*
X358920Y104570D02*
X365920Y104570D01*
X365920Y98570D01*
X358920Y98570D01*
X358920Y100470D02*
X365920Y100470D01*
X365920Y102370D02*
X358920Y102370D01*
X358920Y104270D02*
X365920Y104270D01*
X358920Y85570D02*
X358920Y79570D01*
X358920Y85570D02*
X365920Y85570D01*
X365920Y79570D01*
X358920Y79570D01*
X358920Y81470D02*
X365920Y81470D01*
X365920Y83370D02*
X358920Y83370D01*
X358920Y85270D02*
X365920Y85270D01*
X337920Y89070D02*
X337920Y95070D01*
X344920Y95070D01*
X344920Y89070D01*
X337920Y89070D01*
X337920Y90970D02*
X344920Y90970D01*
X344920Y92870D02*
X337920Y92870D01*
X337920Y94770D02*
X344920Y94770D01*
D11*
X363818Y119534D02*
X370486Y119534D01*
X370486Y112866D01*
X363818Y112866D01*
X363818Y119534D01*
X363818Y114978D02*
X370486Y114978D01*
X370486Y117090D02*
X363818Y117090D01*
X363818Y119202D02*
X370486Y119202D01*
X355246Y119534D02*
X348578Y119534D01*
X355246Y119534D02*
X355246Y112866D01*
X348578Y112866D01*
X348578Y119534D01*
X348578Y114978D02*
X355246Y114978D01*
X355246Y117090D02*
X348578Y117090D01*
X348578Y119202D02*
X355246Y119202D01*
X328322Y83974D02*
X328322Y77306D01*
X321654Y77306D01*
X321654Y83974D01*
X328322Y83974D01*
X328322Y79418D02*
X321654Y79418D01*
X321654Y81530D02*
X328322Y81530D01*
X328322Y83642D02*
X321654Y83642D01*
X328322Y92546D02*
X328322Y99214D01*
X328322Y92546D02*
X321654Y92546D01*
X321654Y99214D01*
X328322Y99214D01*
X328322Y94658D02*
X321654Y94658D01*
X321654Y96770D02*
X328322Y96770D01*
X328322Y98882D02*
X321654Y98882D01*
X315622Y83974D02*
X315622Y77306D01*
X308954Y77306D01*
X308954Y83974D01*
X315622Y83974D01*
X315622Y79418D02*
X308954Y79418D01*
X308954Y81530D02*
X315622Y81530D01*
X315622Y83642D02*
X308954Y83642D01*
X315622Y92546D02*
X315622Y99214D01*
X315622Y92546D02*
X308954Y92546D01*
X308954Y99214D01*
X315622Y99214D01*
X315622Y94658D02*
X308954Y94658D01*
X308954Y96770D02*
X315622Y96770D01*
X315622Y98882D02*
X308954Y98882D01*
X371946Y133186D02*
X378614Y133186D01*
X371946Y133186D02*
X371946Y139854D01*
X378614Y139854D01*
X378614Y133186D01*
X378614Y135298D02*
X371946Y135298D01*
X371946Y137410D02*
X378614Y137410D01*
X378614Y139522D02*
X371946Y139522D01*
X387186Y133186D02*
X393854Y133186D01*
X387186Y133186D02*
X387186Y139854D01*
X393854Y139854D01*
X393854Y133186D01*
X393854Y135298D02*
X387186Y135298D01*
X387186Y137410D02*
X393854Y137410D01*
X393854Y139522D02*
X387186Y139522D01*
X337974Y151030D02*
X331306Y151030D01*
X337974Y151030D02*
X337974Y144362D01*
X331306Y144362D01*
X331306Y151030D01*
X331306Y146474D02*
X337974Y146474D01*
X337974Y148586D02*
X331306Y148586D01*
X331306Y150698D02*
X337974Y150698D01*
X322734Y151030D02*
X316066Y151030D01*
X322734Y151030D02*
X322734Y144362D01*
X316066Y144362D01*
X316066Y151030D01*
X316066Y146474D02*
X322734Y146474D01*
X322734Y148586D02*
X316066Y148586D01*
X316066Y150698D02*
X322734Y150698D01*
D23*
X58495Y145075D02*
X58495Y132325D01*
X58495Y145075D02*
X65245Y145075D01*
X65245Y132325D01*
X58495Y132325D01*
X58495Y134462D02*
X65245Y134462D01*
X65245Y136599D02*
X58495Y136599D01*
X58495Y138736D02*
X65245Y138736D01*
X65245Y140873D02*
X58495Y140873D01*
X58495Y143010D02*
X65245Y143010D01*
X93495Y145075D02*
X93495Y132325D01*
X93495Y145075D02*
X100245Y145075D01*
X100245Y132325D01*
X93495Y132325D01*
X93495Y134462D02*
X100245Y134462D01*
X100245Y136599D02*
X93495Y136599D01*
X93495Y138736D02*
X100245Y138736D01*
X100245Y140873D02*
X93495Y140873D01*
X93495Y143010D02*
X100245Y143010D01*
X93495Y100075D02*
X93495Y87325D01*
X93495Y100075D02*
X100245Y100075D01*
X100245Y87325D01*
X93495Y87325D01*
X93495Y89462D02*
X100245Y89462D01*
X100245Y91599D02*
X93495Y91599D01*
X93495Y93736D02*
X100245Y93736D01*
X100245Y95873D02*
X93495Y95873D01*
X93495Y98010D02*
X100245Y98010D01*
D11*
X484976Y97944D02*
X491644Y97944D01*
X491644Y91276D01*
X484976Y91276D01*
X484976Y97944D01*
X484976Y93388D02*
X491644Y93388D01*
X491644Y95500D02*
X484976Y95500D01*
X484976Y97612D02*
X491644Y97612D01*
X476404Y97944D02*
X469736Y97944D01*
X476404Y97944D02*
X476404Y91276D01*
X469736Y91276D01*
X469736Y97944D01*
X469736Y93388D02*
X476404Y93388D01*
X476404Y95500D02*
X469736Y95500D01*
X469736Y97612D02*
X476404Y97612D01*
X484976Y80164D02*
X491644Y80164D01*
X491644Y73496D01*
X484976Y73496D01*
X484976Y80164D01*
X484976Y75608D02*
X491644Y75608D01*
X491644Y77720D02*
X484976Y77720D01*
X484976Y79832D02*
X491644Y79832D01*
X476404Y80164D02*
X469736Y80164D01*
X476404Y80164D02*
X476404Y73496D01*
X469736Y73496D01*
X469736Y80164D01*
X469736Y75608D02*
X476404Y75608D01*
X476404Y77720D02*
X469736Y77720D01*
X469736Y79832D02*
X476404Y79832D01*
X611976Y126836D02*
X611976Y133504D01*
X618644Y133504D01*
X618644Y126836D01*
X611976Y126836D01*
X611976Y128948D02*
X618644Y128948D01*
X618644Y131060D02*
X611976Y131060D01*
X611976Y133172D02*
X618644Y133172D01*
X611976Y118264D02*
X611976Y111596D01*
X611976Y118264D02*
X618644Y118264D01*
X618644Y111596D01*
X611976Y111596D01*
X611976Y113708D02*
X618644Y113708D01*
X618644Y115820D02*
X611976Y115820D01*
X611976Y117932D02*
X618644Y117932D01*
X618644Y139536D02*
X618644Y146204D01*
X618644Y139536D02*
X611976Y139536D01*
X611976Y146204D01*
X618644Y146204D01*
X618644Y141648D02*
X611976Y141648D01*
X611976Y143760D02*
X618644Y143760D01*
X618644Y145872D02*
X611976Y145872D01*
X618644Y154776D02*
X618644Y161444D01*
X618644Y154776D02*
X611976Y154776D01*
X611976Y161444D01*
X618644Y161444D01*
X618644Y156888D02*
X611976Y156888D01*
X611976Y159000D02*
X618644Y159000D01*
X618644Y161112D02*
X611976Y161112D01*
D13*
X587220Y136670D02*
X581220Y136670D01*
X581220Y143670D01*
X587220Y143670D01*
X587220Y136670D01*
X587220Y138570D02*
X581220Y138570D01*
X581220Y140470D02*
X587220Y140470D01*
X587220Y142370D02*
X581220Y142370D01*
X600220Y136670D02*
X606220Y136670D01*
X600220Y136670D02*
X600220Y143670D01*
X606220Y143670D01*
X606220Y136670D01*
X606220Y138570D02*
X600220Y138570D01*
X600220Y140470D02*
X606220Y140470D01*
X606220Y142370D02*
X600220Y142370D01*
X596720Y115670D02*
X590720Y115670D01*
X590720Y122670D01*
X596720Y122670D01*
X596720Y115670D01*
X596720Y117570D02*
X590720Y117570D01*
X590720Y119470D02*
X596720Y119470D01*
X596720Y121370D02*
X590720Y121370D01*
D11*
X589434Y149696D02*
X582766Y149696D01*
X582766Y156364D01*
X589434Y156364D01*
X589434Y149696D01*
X589434Y151808D02*
X582766Y151808D01*
X582766Y153920D02*
X589434Y153920D01*
X589434Y156032D02*
X582766Y156032D01*
X598006Y149696D02*
X604674Y149696D01*
X598006Y149696D02*
X598006Y156364D01*
X604674Y156364D01*
X604674Y149696D01*
X604674Y151808D02*
X598006Y151808D01*
X598006Y153920D02*
X604674Y153920D01*
X604674Y156032D02*
X598006Y156032D01*
D20*
X747072Y84132D02*
X752788Y84132D01*
X747072Y84132D02*
X747072Y97468D01*
X752788Y97468D01*
X752788Y84132D01*
X752788Y85942D02*
X747072Y85942D01*
X747072Y87752D02*
X752788Y87752D01*
X752788Y89562D02*
X747072Y89562D01*
X747072Y91372D02*
X752788Y91372D01*
X752788Y93182D02*
X747072Y93182D01*
X747072Y94992D02*
X752788Y94992D01*
X752788Y96802D02*
X747072Y96802D01*
X747072Y134932D02*
X752788Y134932D01*
X747072Y134932D02*
X747072Y148268D01*
X752788Y148268D01*
X752788Y134932D01*
X752788Y136742D02*
X747072Y136742D01*
X747072Y138552D02*
X752788Y138552D01*
X752788Y140362D02*
X747072Y140362D01*
X747072Y142172D02*
X752788Y142172D01*
X752788Y143982D02*
X747072Y143982D01*
X747072Y145792D02*
X752788Y145792D01*
X752788Y147602D02*
X747072Y147602D01*
X714688Y84132D02*
X708972Y84132D01*
X708972Y97468D01*
X714688Y97468D01*
X714688Y84132D01*
X714688Y85942D02*
X708972Y85942D01*
X708972Y87752D02*
X714688Y87752D01*
X714688Y89562D02*
X708972Y89562D01*
X708972Y91372D02*
X714688Y91372D01*
X714688Y93182D02*
X708972Y93182D01*
X708972Y94992D02*
X714688Y94992D01*
X714688Y96802D02*
X708972Y96802D01*
X708972Y134932D02*
X714688Y134932D01*
X708972Y134932D02*
X708972Y148268D01*
X714688Y148268D01*
X714688Y134932D01*
X714688Y136742D02*
X708972Y136742D01*
X708972Y138552D02*
X714688Y138552D01*
X714688Y140362D02*
X708972Y140362D01*
X708972Y142172D02*
X714688Y142172D01*
X714688Y143982D02*
X708972Y143982D01*
X708972Y145792D02*
X714688Y145792D01*
X714688Y147602D02*
X708972Y147602D01*
D11*
X698654Y113184D02*
X691986Y113184D01*
X698654Y113184D02*
X698654Y106516D01*
X691986Y106516D01*
X691986Y113184D01*
X691986Y108628D02*
X698654Y108628D01*
X698654Y110740D02*
X691986Y110740D01*
X691986Y112852D02*
X698654Y112852D01*
X683414Y113184D02*
X676746Y113184D01*
X683414Y113184D02*
X683414Y106516D01*
X676746Y106516D01*
X676746Y113184D01*
X676746Y108628D02*
X683414Y108628D01*
X683414Y110740D02*
X676746Y110740D01*
X676746Y112852D02*
X683414Y112852D01*
X691986Y133504D02*
X698654Y133504D01*
X698654Y126836D01*
X691986Y126836D01*
X691986Y133504D01*
X691986Y128948D02*
X698654Y128948D01*
X698654Y131060D02*
X691986Y131060D01*
X691986Y133172D02*
X698654Y133172D01*
X683414Y133504D02*
X676746Y133504D01*
X683414Y133504D02*
X683414Y126836D01*
X676746Y126836D01*
X676746Y133504D01*
X676746Y128948D02*
X683414Y128948D01*
X683414Y131060D02*
X676746Y131060D01*
X676746Y133172D02*
X683414Y133172D01*
X849784Y111914D02*
X849784Y105246D01*
X843116Y105246D01*
X843116Y111914D01*
X849784Y111914D01*
X849784Y107358D02*
X843116Y107358D01*
X843116Y109470D02*
X849784Y109470D01*
X849784Y111582D02*
X843116Y111582D01*
X849784Y120486D02*
X849784Y127154D01*
X849784Y120486D02*
X843116Y120486D01*
X843116Y127154D01*
X849784Y127154D01*
X849784Y122598D02*
X843116Y122598D01*
X843116Y124710D02*
X849784Y124710D01*
X849784Y126822D02*
X843116Y126822D01*
X862484Y111914D02*
X862484Y105246D01*
X855816Y105246D01*
X855816Y111914D01*
X862484Y111914D01*
X862484Y107358D02*
X855816Y107358D01*
X855816Y109470D02*
X862484Y109470D01*
X862484Y111582D02*
X855816Y111582D01*
X862484Y120486D02*
X862484Y127154D01*
X862484Y120486D02*
X855816Y120486D01*
X855816Y127154D01*
X862484Y127154D01*
X862484Y122598D02*
X855816Y122598D01*
X855816Y124710D02*
X862484Y124710D01*
X862484Y126822D02*
X855816Y126822D01*
X773786Y345086D02*
X773786Y351754D01*
X780454Y351754D01*
X780454Y345086D01*
X773786Y345086D01*
X773786Y347198D02*
X780454Y347198D01*
X780454Y349310D02*
X773786Y349310D01*
X773786Y351422D02*
X780454Y351422D01*
X773786Y336514D02*
X773786Y329846D01*
X773786Y336514D02*
X780454Y336514D01*
X780454Y329846D01*
X773786Y329846D01*
X773786Y331958D02*
X780454Y331958D01*
X780454Y334070D02*
X773786Y334070D01*
X773786Y336182D02*
X780454Y336182D01*
X165456Y388266D02*
X165456Y394934D01*
X172124Y394934D01*
X172124Y388266D01*
X165456Y388266D01*
X165456Y390378D02*
X172124Y390378D01*
X172124Y392490D02*
X165456Y392490D01*
X165456Y394602D02*
X172124Y394602D01*
X165456Y379694D02*
X165456Y373026D01*
X165456Y379694D02*
X172124Y379694D01*
X172124Y373026D01*
X165456Y373026D01*
X165456Y375138D02*
X172124Y375138D01*
X172124Y377250D02*
X165456Y377250D01*
X165456Y379362D02*
X172124Y379362D01*
D24*
X134180Y381450D02*
X134180Y373950D01*
X134180Y381450D02*
X139680Y381450D01*
X139680Y373950D01*
X134180Y373950D01*
X134180Y379175D02*
X139680Y379175D01*
X152180Y358450D02*
X152180Y350950D01*
X152180Y358450D02*
X157680Y358450D01*
X157680Y350950D01*
X152180Y350950D01*
X152180Y356175D02*
X157680Y356175D01*
X134180Y358450D02*
X134180Y350950D01*
X134180Y358450D02*
X139680Y358450D01*
X139680Y350950D01*
X134180Y350950D01*
X134180Y356175D02*
X139680Y356175D01*
X152180Y373950D02*
X152180Y381450D01*
X157680Y381450D01*
X157680Y373950D01*
X152180Y373950D01*
X152180Y379175D02*
X157680Y379175D01*
D11*
X172124Y344134D02*
X172124Y337466D01*
X165456Y337466D01*
X165456Y344134D01*
X172124Y344134D01*
X172124Y339578D02*
X165456Y339578D01*
X165456Y341690D02*
X172124Y341690D01*
X172124Y343802D02*
X165456Y343802D01*
X172124Y352706D02*
X172124Y359374D01*
X172124Y352706D02*
X165456Y352706D01*
X165456Y359374D01*
X172124Y359374D01*
X172124Y354818D02*
X165456Y354818D01*
X165456Y356930D02*
X172124Y356930D01*
X172124Y359042D02*
X165456Y359042D01*
X796646Y378424D02*
X803314Y378424D01*
X803314Y371756D01*
X796646Y371756D01*
X796646Y378424D01*
X796646Y373868D02*
X803314Y373868D01*
X803314Y375980D02*
X796646Y375980D01*
X796646Y378092D02*
X803314Y378092D01*
X788074Y378424D02*
X781406Y378424D01*
X788074Y378424D02*
X788074Y371756D01*
X781406Y371756D01*
X781406Y378424D01*
X781406Y373868D02*
X788074Y373868D01*
X788074Y375980D02*
X781406Y375980D01*
X781406Y378092D02*
X788074Y378092D01*
X796646Y391124D02*
X803314Y391124D01*
X803314Y384456D01*
X796646Y384456D01*
X796646Y391124D01*
X796646Y386568D02*
X803314Y386568D01*
X803314Y388680D02*
X796646Y388680D01*
X796646Y390792D02*
X803314Y390792D01*
X788074Y391124D02*
X781406Y391124D01*
X788074Y391124D02*
X788074Y384456D01*
X781406Y384456D01*
X781406Y391124D01*
X781406Y386568D02*
X788074Y386568D01*
X788074Y388680D02*
X781406Y388680D01*
X781406Y390792D02*
X788074Y390792D01*
X156884Y403506D02*
X150216Y403506D01*
X150216Y410174D01*
X156884Y410174D01*
X156884Y403506D01*
X156884Y405618D02*
X150216Y405618D01*
X150216Y407730D02*
X156884Y407730D01*
X156884Y409842D02*
X150216Y409842D01*
X165456Y403506D02*
X172124Y403506D01*
X165456Y403506D02*
X165456Y410174D01*
X172124Y410174D01*
X172124Y403506D01*
X172124Y405618D02*
X165456Y405618D01*
X165456Y407730D02*
X172124Y407730D01*
X172124Y409842D02*
X165456Y409842D01*
X301346Y337530D02*
X308014Y337530D01*
X308014Y330862D01*
X301346Y330862D01*
X301346Y337530D01*
X301346Y332974D02*
X308014Y332974D01*
X308014Y335086D02*
X301346Y335086D01*
X301346Y337198D02*
X308014Y337198D01*
X292774Y337530D02*
X286106Y337530D01*
X292774Y337530D02*
X292774Y330862D01*
X286106Y330862D01*
X286106Y337530D01*
X286106Y332974D02*
X292774Y332974D01*
X292774Y335086D02*
X286106Y335086D01*
X286106Y337198D02*
X292774Y337198D01*
X172124Y328894D02*
X165456Y328894D01*
X172124Y328894D02*
X172124Y322226D01*
X165456Y322226D01*
X165456Y328894D01*
X165456Y324338D02*
X172124Y324338D01*
X172124Y326450D02*
X165456Y326450D01*
X165456Y328562D02*
X172124Y328562D01*
X156884Y328894D02*
X150216Y328894D01*
X156884Y328894D02*
X156884Y322226D01*
X150216Y322226D01*
X150216Y328894D01*
X150216Y324338D02*
X156884Y324338D01*
X156884Y326450D02*
X150216Y326450D01*
X150216Y328562D02*
X156884Y328562D01*
D23*
X251275Y328325D02*
X251275Y334075D01*
X251275Y328325D02*
X250525Y328325D01*
X250525Y334075D01*
X251275Y334075D01*
X251275Y330462D02*
X250525Y330462D01*
X250525Y332599D02*
X251275Y332599D01*
X246275Y334075D02*
X246275Y328325D01*
X245525Y328325D01*
X245525Y334075D01*
X246275Y334075D01*
X246275Y330462D02*
X245525Y330462D01*
X245525Y332599D02*
X246275Y332599D01*
X241275Y334075D02*
X241275Y328325D01*
X240525Y328325D01*
X240525Y334075D01*
X241275Y334075D01*
X241275Y330462D02*
X240525Y330462D01*
X240525Y332599D02*
X241275Y332599D01*
X236275Y334075D02*
X236275Y328325D01*
X235525Y328325D01*
X235525Y334075D01*
X236275Y334075D01*
X236275Y330462D02*
X235525Y330462D01*
X235525Y332599D02*
X236275Y332599D01*
X231275Y334075D02*
X231275Y328325D01*
X230525Y328325D01*
X230525Y334075D01*
X231275Y334075D01*
X231275Y330462D02*
X230525Y330462D01*
X230525Y332599D02*
X231275Y332599D01*
X226275Y334075D02*
X226275Y328325D01*
X225525Y328325D01*
X225525Y334075D01*
X226275Y334075D01*
X226275Y330462D02*
X225525Y330462D01*
X225525Y332599D02*
X226275Y332599D01*
X221275Y334075D02*
X221275Y328325D01*
X220525Y328325D01*
X220525Y334075D01*
X221275Y334075D01*
X221275Y330462D02*
X220525Y330462D01*
X220525Y332599D02*
X221275Y332599D01*
X216275Y334075D02*
X216275Y328325D01*
X215525Y328325D01*
X215525Y334075D01*
X216275Y334075D01*
X216275Y330462D02*
X215525Y330462D01*
X215525Y332599D02*
X216275Y332599D01*
X211275Y334075D02*
X211275Y328325D01*
X210525Y328325D01*
X210525Y334075D01*
X211275Y334075D01*
X211275Y330462D02*
X210525Y330462D01*
X210525Y332599D02*
X211275Y332599D01*
X206275Y334075D02*
X206275Y328325D01*
X205525Y328325D01*
X205525Y334075D01*
X206275Y334075D01*
X206275Y330462D02*
X205525Y330462D01*
X205525Y332599D02*
X206275Y332599D01*
X201275Y334075D02*
X201275Y328325D01*
X200525Y328325D01*
X200525Y334075D01*
X201275Y334075D01*
X201275Y330462D02*
X200525Y330462D01*
X200525Y332599D02*
X201275Y332599D01*
X196275Y334075D02*
X196275Y328325D01*
X195525Y328325D01*
X195525Y334075D01*
X196275Y334075D01*
X196275Y330462D02*
X195525Y330462D01*
X195525Y332599D02*
X196275Y332599D01*
X191275Y338325D02*
X185525Y338325D01*
X185525Y339075D01*
X191275Y339075D01*
X191275Y338325D01*
X191275Y343325D02*
X185525Y343325D01*
X185525Y344075D01*
X191275Y344075D01*
X191275Y343325D01*
X191275Y348325D02*
X185525Y348325D01*
X185525Y349075D01*
X191275Y349075D01*
X191275Y348325D01*
X191275Y353325D02*
X185525Y353325D01*
X185525Y354075D01*
X191275Y354075D01*
X191275Y353325D01*
X191275Y358325D02*
X185525Y358325D01*
X185525Y359075D01*
X191275Y359075D01*
X191275Y358325D01*
X191275Y363325D02*
X185525Y363325D01*
X185525Y364075D01*
X191275Y364075D01*
X191275Y363325D01*
X191275Y368325D02*
X185525Y368325D01*
X185525Y369075D01*
X191275Y369075D01*
X191275Y368325D01*
X191275Y373325D02*
X185525Y373325D01*
X185525Y374075D01*
X191275Y374075D01*
X191275Y373325D01*
X191275Y378325D02*
X185525Y378325D01*
X185525Y379075D01*
X191275Y379075D01*
X191275Y378325D01*
X191275Y383325D02*
X185525Y383325D01*
X185525Y384075D01*
X191275Y384075D01*
X191275Y383325D01*
X191275Y388325D02*
X185525Y388325D01*
X185525Y389075D01*
X191275Y389075D01*
X191275Y388325D01*
X191275Y393325D02*
X185525Y393325D01*
X185525Y394075D01*
X191275Y394075D01*
X191275Y393325D01*
X195525Y398325D02*
X195525Y404075D01*
X196275Y404075D01*
X196275Y398325D01*
X195525Y398325D01*
X195525Y400462D02*
X196275Y400462D01*
X196275Y402599D02*
X195525Y402599D01*
X200525Y404075D02*
X200525Y398325D01*
X200525Y404075D02*
X201275Y404075D01*
X201275Y398325D01*
X200525Y398325D01*
X200525Y400462D02*
X201275Y400462D01*
X201275Y402599D02*
X200525Y402599D01*
X205525Y404075D02*
X205525Y398325D01*
X205525Y404075D02*
X206275Y404075D01*
X206275Y398325D01*
X205525Y398325D01*
X205525Y400462D02*
X206275Y400462D01*
X206275Y402599D02*
X205525Y402599D01*
X210525Y404075D02*
X210525Y398325D01*
X210525Y404075D02*
X211275Y404075D01*
X211275Y398325D01*
X210525Y398325D01*
X210525Y400462D02*
X211275Y400462D01*
X211275Y402599D02*
X210525Y402599D01*
X215525Y404075D02*
X215525Y398325D01*
X215525Y404075D02*
X216275Y404075D01*
X216275Y398325D01*
X215525Y398325D01*
X215525Y400462D02*
X216275Y400462D01*
X216275Y402599D02*
X215525Y402599D01*
X220525Y404075D02*
X220525Y398325D01*
X220525Y404075D02*
X221275Y404075D01*
X221275Y398325D01*
X220525Y398325D01*
X220525Y400462D02*
X221275Y400462D01*
X221275Y402599D02*
X220525Y402599D01*
X225525Y404075D02*
X225525Y398325D01*
X225525Y404075D02*
X226275Y404075D01*
X226275Y398325D01*
X225525Y398325D01*
X225525Y400462D02*
X226275Y400462D01*
X226275Y402599D02*
X225525Y402599D01*
X230525Y404075D02*
X230525Y398325D01*
X230525Y404075D02*
X231275Y404075D01*
X231275Y398325D01*
X230525Y398325D01*
X230525Y400462D02*
X231275Y400462D01*
X231275Y402599D02*
X230525Y402599D01*
X235525Y404075D02*
X235525Y398325D01*
X235525Y404075D02*
X236275Y404075D01*
X236275Y398325D01*
X235525Y398325D01*
X235525Y400462D02*
X236275Y400462D01*
X236275Y402599D02*
X235525Y402599D01*
X240525Y404075D02*
X240525Y398325D01*
X240525Y404075D02*
X241275Y404075D01*
X241275Y398325D01*
X240525Y398325D01*
X240525Y400462D02*
X241275Y400462D01*
X241275Y402599D02*
X240525Y402599D01*
X245525Y404075D02*
X245525Y398325D01*
X245525Y404075D02*
X246275Y404075D01*
X246275Y398325D01*
X245525Y398325D01*
X245525Y400462D02*
X246275Y400462D01*
X246275Y402599D02*
X245525Y402599D01*
X250525Y404075D02*
X250525Y398325D01*
X250525Y404075D02*
X251275Y404075D01*
X251275Y398325D01*
X250525Y398325D01*
X250525Y400462D02*
X251275Y400462D01*
X251275Y402599D02*
X250525Y402599D01*
X255525Y394075D02*
X261275Y394075D01*
X261275Y393325D01*
X255525Y393325D01*
X255525Y394075D01*
X255525Y389075D02*
X261275Y389075D01*
X261275Y388325D01*
X255525Y388325D01*
X255525Y389075D01*
X255525Y384075D02*
X261275Y384075D01*
X261275Y383325D01*
X255525Y383325D01*
X255525Y384075D01*
X255525Y379075D02*
X261275Y379075D01*
X261275Y378325D01*
X255525Y378325D01*
X255525Y379075D01*
X255525Y374075D02*
X261275Y374075D01*
X261275Y373325D01*
X255525Y373325D01*
X255525Y374075D01*
X255525Y369075D02*
X261275Y369075D01*
X261275Y368325D01*
X255525Y368325D01*
X255525Y369075D01*
X255525Y364075D02*
X261275Y364075D01*
X261275Y363325D01*
X255525Y363325D01*
X255525Y364075D01*
X255525Y359075D02*
X261275Y359075D01*
X261275Y358325D01*
X255525Y358325D01*
X255525Y359075D01*
X255525Y354075D02*
X261275Y354075D01*
X261275Y353325D01*
X255525Y353325D01*
X255525Y354075D01*
X255525Y349075D02*
X261275Y349075D01*
X261275Y348325D01*
X255525Y348325D01*
X255525Y349075D01*
X255525Y344075D02*
X261275Y344075D01*
X261275Y343325D01*
X255525Y343325D01*
X255525Y344075D01*
X255525Y339075D02*
X261275Y339075D01*
X261275Y338325D01*
X255525Y338325D01*
X255525Y339075D01*
D25*
X203150Y345950D03*
X216650Y345950D03*
X203150Y359450D03*
X216650Y359450D03*
X230150Y345950D03*
X243650Y345950D03*
X230150Y359450D03*
X243650Y359450D03*
X203150Y372950D03*
X216650Y372950D03*
X203150Y386450D03*
X216650Y386450D03*
X230150Y372950D03*
X243650Y372950D03*
X230150Y386450D03*
X243650Y386450D03*
D23*
X562785Y355825D02*
X562785Y352275D01*
X562035Y352275D01*
X562035Y355825D01*
X562785Y355825D01*
X562785Y354412D02*
X562035Y354412D01*
X557785Y355825D02*
X557785Y352275D01*
X557035Y352275D01*
X557035Y355825D01*
X557785Y355825D01*
X557785Y354412D02*
X557035Y354412D01*
X552785Y355825D02*
X552785Y352275D01*
X552035Y352275D01*
X552035Y355825D01*
X552785Y355825D01*
X552785Y354412D02*
X552035Y354412D01*
X547035Y358325D02*
X543485Y358325D01*
X543485Y359075D01*
X547035Y359075D01*
X547035Y358325D01*
X547035Y363325D02*
X543485Y363325D01*
X543485Y364075D01*
X547035Y364075D01*
X547035Y363325D01*
X547035Y368325D02*
X543485Y368325D01*
X543485Y369075D01*
X547035Y369075D01*
X547035Y368325D01*
X547035Y373325D02*
X543485Y373325D01*
X543485Y374075D01*
X547035Y374075D01*
X547035Y373325D01*
X552035Y376575D02*
X552035Y380125D01*
X552785Y380125D01*
X552785Y376575D01*
X552035Y376575D01*
X552035Y378712D02*
X552785Y378712D01*
X557035Y380125D02*
X557035Y376575D01*
X557035Y380125D02*
X557785Y380125D01*
X557785Y376575D01*
X557035Y376575D01*
X557035Y378712D02*
X557785Y378712D01*
X562035Y380125D02*
X562035Y376575D01*
X562035Y380125D02*
X562785Y380125D01*
X562785Y376575D01*
X562035Y376575D01*
X562035Y378712D02*
X562785Y378712D01*
X567785Y374075D02*
X571335Y374075D01*
X571335Y373325D01*
X567785Y373325D01*
X567785Y374075D01*
X567785Y369075D02*
X571335Y369075D01*
X571335Y368325D01*
X567785Y368325D01*
X567785Y369075D01*
X567785Y364075D02*
X571335Y364075D01*
X571335Y363325D01*
X567785Y363325D01*
X567785Y364075D01*
X567785Y359075D02*
X571335Y359075D01*
X571335Y358325D01*
X567785Y358325D01*
X567785Y359075D01*
D26*
X560910Y369700D03*
X560910Y362700D03*
X553910Y362700D03*
X553910Y369700D03*
D27*
X878044Y359176D02*
X878044Y358224D01*
X878044Y359176D02*
X886196Y359176D01*
X886196Y358224D01*
X878044Y358224D01*
X878044Y363224D02*
X878044Y364176D01*
X886196Y364176D01*
X886196Y363224D01*
X878044Y363224D01*
D28*
X878968Y334902D02*
X878968Y332998D01*
X878968Y334902D02*
X885272Y334902D01*
X885272Y332998D01*
X878968Y332998D01*
X878968Y340748D02*
X878968Y342652D01*
X885272Y342652D01*
X885272Y340748D01*
X878968Y340748D01*
D27*
X878044Y348224D02*
X878044Y349176D01*
X886196Y349176D01*
X886196Y348224D01*
X878044Y348224D01*
X878044Y353224D02*
X878044Y354176D01*
X886196Y354176D01*
X886196Y353224D01*
X878044Y353224D01*
X886196Y373224D02*
X886196Y374176D01*
X886196Y373224D02*
X878044Y373224D01*
X878044Y374176D01*
X886196Y374176D01*
X886196Y369176D02*
X886196Y368224D01*
X878044Y368224D01*
X878044Y369176D01*
X886196Y369176D01*
D28*
X885272Y397498D02*
X885272Y399402D01*
X885272Y397498D02*
X878968Y397498D01*
X878968Y399402D01*
X885272Y399402D01*
X885272Y391652D02*
X885272Y389748D01*
X878968Y389748D01*
X878968Y391652D01*
X885272Y391652D01*
D27*
X886196Y384176D02*
X886196Y383224D01*
X878044Y383224D01*
X878044Y384176D01*
X886196Y384176D01*
X886196Y379176D02*
X886196Y378224D01*
X878044Y378224D01*
X878044Y379176D01*
X886196Y379176D01*
D11*
X515024Y384456D02*
X508356Y384456D01*
X508356Y391124D01*
X515024Y391124D01*
X515024Y384456D01*
X515024Y386568D02*
X508356Y386568D01*
X508356Y388680D02*
X515024Y388680D01*
X515024Y390792D02*
X508356Y390792D01*
X523596Y384456D02*
X530264Y384456D01*
X523596Y384456D02*
X523596Y391124D01*
X530264Y391124D01*
X530264Y384456D01*
X530264Y386568D02*
X523596Y386568D01*
X523596Y388680D02*
X530264Y388680D01*
X530264Y390792D02*
X523596Y390792D01*
X515024Y371756D02*
X508356Y371756D01*
X508356Y378424D01*
X515024Y378424D01*
X515024Y371756D01*
X515024Y373868D02*
X508356Y373868D01*
X508356Y375980D02*
X515024Y375980D01*
X515024Y378092D02*
X508356Y378092D01*
X523596Y371756D02*
X530264Y371756D01*
X523596Y371756D02*
X523596Y378424D01*
X530264Y378424D01*
X530264Y371756D01*
X530264Y373868D02*
X523596Y373868D01*
X523596Y375980D02*
X530264Y375980D01*
X530264Y378092D02*
X523596Y378092D01*
X515024Y359056D02*
X508356Y359056D01*
X508356Y365724D01*
X515024Y365724D01*
X515024Y359056D01*
X515024Y361168D02*
X508356Y361168D01*
X508356Y363280D02*
X515024Y363280D01*
X515024Y365392D02*
X508356Y365392D01*
X523596Y359056D02*
X530264Y359056D01*
X523596Y359056D02*
X523596Y365724D01*
X530264Y365724D01*
X530264Y359056D01*
X530264Y361168D02*
X523596Y361168D01*
X523596Y363280D02*
X530264Y363280D01*
X530264Y365392D02*
X523596Y365392D01*
X524866Y347944D02*
X524866Y341276D01*
X524866Y347944D02*
X531534Y347944D01*
X531534Y341276D01*
X524866Y341276D01*
X524866Y343388D02*
X531534Y343388D01*
X531534Y345500D02*
X524866Y345500D01*
X524866Y347612D02*
X531534Y347612D01*
X524866Y332704D02*
X524866Y326036D01*
X524866Y332704D02*
X531534Y332704D01*
X531534Y326036D01*
X524866Y326036D01*
X524866Y328148D02*
X531534Y328148D01*
X531534Y330260D02*
X524866Y330260D01*
X524866Y332372D02*
X531534Y332372D01*
X507086Y341276D02*
X507086Y347944D01*
X513754Y347944D01*
X513754Y341276D01*
X507086Y341276D01*
X507086Y343388D02*
X513754Y343388D01*
X513754Y345500D02*
X507086Y345500D01*
X507086Y347612D02*
X513754Y347612D01*
X507086Y332704D02*
X507086Y326036D01*
X507086Y332704D02*
X513754Y332704D01*
X513754Y326036D01*
X507086Y326036D01*
X507086Y328148D02*
X513754Y328148D01*
X513754Y330260D02*
X507086Y330260D01*
X507086Y332372D02*
X513754Y332372D01*
X584556Y355246D02*
X584556Y361914D01*
X591224Y361914D01*
X591224Y355246D01*
X584556Y355246D01*
X584556Y357358D02*
X591224Y357358D01*
X591224Y359470D02*
X584556Y359470D01*
X584556Y361582D02*
X591224Y361582D01*
X584556Y346674D02*
X584556Y340006D01*
X584556Y346674D02*
X591224Y346674D01*
X591224Y340006D01*
X584556Y340006D01*
X584556Y342118D02*
X591224Y342118D01*
X591224Y344230D02*
X584556Y344230D01*
X584556Y346342D02*
X591224Y346342D01*
X591224Y367946D02*
X591224Y374614D01*
X591224Y367946D02*
X584556Y367946D01*
X584556Y374614D01*
X591224Y374614D01*
X591224Y370058D02*
X584556Y370058D01*
X584556Y372170D02*
X591224Y372170D01*
X591224Y374282D02*
X584556Y374282D01*
X591224Y383186D02*
X591224Y389854D01*
X591224Y383186D02*
X584556Y383186D01*
X584556Y389854D01*
X591224Y389854D01*
X591224Y385298D02*
X584556Y385298D01*
X584556Y387410D02*
X591224Y387410D01*
X591224Y389522D02*
X584556Y389522D01*
X349924Y345086D02*
X343256Y345086D01*
X343256Y351754D01*
X349924Y351754D01*
X349924Y345086D01*
X349924Y347198D02*
X343256Y347198D01*
X343256Y349310D02*
X349924Y349310D01*
X349924Y351422D02*
X343256Y351422D01*
X358496Y345086D02*
X365164Y345086D01*
X358496Y345086D02*
X358496Y351754D01*
X365164Y351754D01*
X365164Y345086D01*
X365164Y347198D02*
X358496Y347198D01*
X358496Y349310D02*
X365164Y349310D01*
X365164Y351422D02*
X358496Y351422D01*
X449936Y379376D02*
X449936Y386044D01*
X456604Y386044D01*
X456604Y379376D01*
X449936Y379376D01*
X449936Y381488D02*
X456604Y381488D01*
X456604Y383600D02*
X449936Y383600D01*
X449936Y385712D02*
X456604Y385712D01*
X449936Y370804D02*
X449936Y364136D01*
X449936Y370804D02*
X456604Y370804D01*
X456604Y364136D01*
X449936Y364136D01*
X449936Y366248D02*
X456604Y366248D01*
X456604Y368360D02*
X449936Y368360D01*
X449936Y370472D02*
X456604Y370472D01*
X390564Y370804D02*
X390564Y364136D01*
X383896Y364136D01*
X383896Y370804D01*
X390564Y370804D01*
X390564Y366248D02*
X383896Y366248D01*
X383896Y368360D02*
X390564Y368360D01*
X390564Y370472D02*
X383896Y370472D01*
X390564Y379376D02*
X390564Y386044D01*
X390564Y379376D02*
X383896Y379376D01*
X383896Y386044D01*
X390564Y386044D01*
X390564Y381488D02*
X383896Y381488D01*
X383896Y383600D02*
X390564Y383600D01*
X390564Y385712D02*
X383896Y385712D01*
X375324Y370804D02*
X375324Y364136D01*
X368656Y364136D01*
X368656Y370804D01*
X375324Y370804D01*
X375324Y366248D02*
X368656Y366248D01*
X368656Y368360D02*
X375324Y368360D01*
X375324Y370472D02*
X368656Y370472D01*
X375324Y379376D02*
X375324Y386044D01*
X375324Y379376D02*
X368656Y379376D01*
X368656Y386044D01*
X375324Y386044D01*
X375324Y381488D02*
X368656Y381488D01*
X368656Y383600D02*
X375324Y383600D01*
X375324Y385712D02*
X368656Y385712D01*
D29*
X435416Y385525D02*
X435416Y383655D01*
X435416Y385525D02*
X443786Y385525D01*
X443786Y383655D01*
X435416Y383655D01*
X435416Y376025D02*
X435416Y374155D01*
X435416Y376025D02*
X443786Y376025D01*
X443786Y374155D01*
X435416Y374155D01*
X435416Y366525D02*
X435416Y364655D01*
X435416Y366525D02*
X443786Y366525D01*
X443786Y364655D01*
X435416Y364655D01*
X409414Y364655D02*
X409414Y366525D01*
X417784Y366525D01*
X417784Y364655D01*
X409414Y364655D01*
X409414Y383655D02*
X409414Y385525D01*
X417784Y385525D01*
X417784Y383655D01*
X409414Y383655D01*
X417784Y376025D02*
X417784Y374155D01*
X409414Y374155D01*
X409414Y376025D01*
X417784Y376025D01*
D17*
X474225Y378900D02*
X474225Y386520D01*
X485655Y386520D01*
X485655Y378900D01*
X474225Y378900D01*
X474225Y381313D02*
X485655Y381313D01*
X485655Y383726D02*
X474225Y383726D01*
X474225Y386139D02*
X485655Y386139D01*
X474225Y368740D02*
X474225Y361120D01*
X474225Y368740D02*
X485655Y368740D01*
X485655Y361120D01*
X474225Y361120D01*
X474225Y363533D02*
X485655Y363533D01*
X485655Y365946D02*
X474225Y365946D01*
X474225Y368359D02*
X485655Y368359D01*
D11*
X796646Y365724D02*
X803314Y365724D01*
X803314Y359056D01*
X796646Y359056D01*
X796646Y365724D01*
X796646Y361168D02*
X803314Y361168D01*
X803314Y363280D02*
X796646Y363280D01*
X796646Y365392D02*
X803314Y365392D01*
X788074Y365724D02*
X781406Y365724D01*
X788074Y365724D02*
X788074Y359056D01*
X781406Y359056D01*
X781406Y365724D01*
X781406Y361168D02*
X788074Y361168D01*
X788074Y363280D02*
X781406Y363280D01*
X781406Y365392D02*
X788074Y365392D01*
X796646Y403824D02*
X803314Y403824D01*
X803314Y397156D01*
X796646Y397156D01*
X796646Y403824D01*
X796646Y399268D02*
X803314Y399268D01*
X803314Y401380D02*
X796646Y401380D01*
X796646Y403492D02*
X803314Y403492D01*
X788074Y403824D02*
X781406Y403824D01*
X788074Y403824D02*
X788074Y397156D01*
X781406Y397156D01*
X781406Y403824D01*
X781406Y399268D02*
X788074Y399268D01*
X788074Y401380D02*
X781406Y401380D01*
X781406Y403492D02*
X788074Y403492D01*
X493116Y347944D02*
X493116Y341276D01*
X493116Y347944D02*
X499784Y347944D01*
X499784Y341276D01*
X493116Y341276D01*
X493116Y343388D02*
X499784Y343388D01*
X499784Y345500D02*
X493116Y345500D01*
X493116Y347612D02*
X499784Y347612D01*
X493116Y332704D02*
X493116Y326036D01*
X493116Y332704D02*
X499784Y332704D01*
X499784Y326036D01*
X493116Y326036D01*
X493116Y328148D02*
X499784Y328148D01*
X499784Y330260D02*
X493116Y330260D01*
X493116Y332372D02*
X499784Y332372D01*
D13*
X447810Y347960D02*
X440810Y347960D01*
X440810Y353960D01*
X447810Y353960D01*
X447810Y347960D01*
X447810Y349860D02*
X440810Y349860D01*
X440810Y351760D02*
X447810Y351760D01*
X447810Y353660D02*
X440810Y353660D01*
X463810Y347960D02*
X470810Y347960D01*
X463810Y347960D02*
X463810Y353960D01*
X470810Y353960D01*
X470810Y347960D01*
X470810Y349860D02*
X463810Y349860D01*
X463810Y351760D02*
X470810Y351760D01*
X470810Y353660D02*
X463810Y353660D01*
D17*
X450730Y322385D02*
X443110Y322385D01*
X443110Y333815D01*
X450730Y333815D01*
X450730Y322385D01*
X450730Y324798D02*
X443110Y324798D01*
X443110Y327211D02*
X450730Y327211D01*
X450730Y329624D02*
X443110Y329624D01*
X443110Y332037D02*
X450730Y332037D01*
X460890Y322385D02*
X468510Y322385D01*
X460890Y322385D02*
X460890Y333815D01*
X468510Y333815D01*
X468510Y322385D01*
X468510Y324798D02*
X460890Y324798D01*
X460890Y327211D02*
X468510Y327211D01*
X468510Y329624D02*
X460890Y329624D01*
X460890Y332037D02*
X468510Y332037D01*
D11*
X396596Y359056D02*
X396596Y365724D01*
X403264Y365724D01*
X403264Y359056D01*
X396596Y359056D01*
X396596Y361168D02*
X403264Y361168D01*
X403264Y363280D02*
X396596Y363280D01*
X396596Y365392D02*
X403264Y365392D01*
X396596Y350484D02*
X396596Y343816D01*
X396596Y350484D02*
X403264Y350484D01*
X403264Y343816D01*
X396596Y343816D01*
X396596Y345928D02*
X403264Y345928D01*
X403264Y348040D02*
X396596Y348040D01*
X396596Y350152D02*
X403264Y350152D01*
D30*
X410715Y329335D02*
X410715Y322685D01*
X410715Y329335D02*
X434865Y329335D01*
X434865Y322685D01*
X410715Y322685D01*
X410715Y325392D02*
X434865Y325392D01*
X434865Y328099D02*
X410715Y328099D01*
X434865Y347185D02*
X434865Y353835D01*
X434865Y347185D02*
X410715Y347185D01*
X410715Y353835D01*
X434865Y353835D01*
X434865Y349892D02*
X410715Y349892D01*
X410715Y352599D02*
X434865Y352599D01*
D31*
X846590Y332080D02*
X846590Y321580D01*
X836090Y321580D01*
X836090Y332080D01*
X846590Y332080D01*
X846590Y324905D02*
X836090Y324905D01*
X836090Y328230D02*
X846590Y328230D01*
X846590Y331555D02*
X836090Y331555D01*
X809590Y332080D02*
X809590Y321580D01*
X799090Y321580D01*
X799090Y332080D01*
X809590Y332080D01*
X809590Y324905D02*
X799090Y324905D01*
X799090Y328230D02*
X809590Y328230D01*
X809590Y331555D02*
X799090Y331555D01*
X846590Y338090D02*
X846590Y348590D01*
X846590Y338090D02*
X836090Y338090D01*
X836090Y348590D01*
X846590Y348590D01*
X846590Y341415D02*
X836090Y341415D01*
X836090Y344740D02*
X846590Y344740D01*
X846590Y348065D02*
X836090Y348065D01*
X809590Y348590D02*
X809590Y338090D01*
X799090Y338090D01*
X799090Y348590D01*
X809590Y348590D01*
X809590Y341415D02*
X799090Y341415D01*
X799090Y344740D02*
X809590Y344740D01*
X809590Y348065D02*
X799090Y348065D01*
D18*
X837670Y355330D02*
X837670Y361830D01*
X837670Y355330D02*
X833170Y355330D01*
X833170Y361830D01*
X837670Y361830D01*
X837670Y356755D02*
X833170Y356755D01*
X833170Y358180D02*
X837670Y358180D01*
X837670Y359605D02*
X833170Y359605D01*
X833170Y361030D02*
X837670Y361030D01*
X822670Y361830D02*
X822670Y355330D01*
X818170Y355330D01*
X818170Y361830D01*
X822670Y361830D01*
X822670Y356755D02*
X818170Y356755D01*
X818170Y358180D02*
X822670Y358180D01*
X822670Y359605D02*
X818170Y359605D01*
X818170Y361030D02*
X822670Y361030D01*
X818170Y403590D02*
X818170Y410090D01*
X822670Y410090D01*
X822670Y403590D01*
X818170Y403590D01*
X818170Y405015D02*
X822670Y405015D01*
X822670Y406440D02*
X818170Y406440D01*
X818170Y407865D02*
X822670Y407865D01*
X822670Y409290D02*
X818170Y409290D01*
X833170Y410090D02*
X833170Y403590D01*
X833170Y410090D02*
X837670Y410090D01*
X837670Y403590D01*
X833170Y403590D01*
X833170Y405015D02*
X837670Y405015D01*
X837670Y406440D02*
X833170Y406440D01*
X833170Y407865D02*
X837670Y407865D01*
X837670Y409290D02*
X833170Y409290D01*
D13*
X478210Y353260D02*
X478210Y346260D01*
X478210Y353260D02*
X484210Y353260D01*
X484210Y346260D01*
X478210Y346260D01*
X478210Y348160D02*
X484210Y348160D01*
X484210Y350060D02*
X478210Y350060D01*
X478210Y351960D02*
X484210Y351960D01*
X478210Y330260D02*
X478210Y323260D01*
X478210Y330260D02*
X484210Y330260D01*
X484210Y323260D01*
X478210Y323260D01*
X478210Y325160D02*
X484210Y325160D01*
X484210Y327060D02*
X478210Y327060D01*
X478210Y328960D02*
X484210Y328960D01*
D11*
X379514Y328894D02*
X379514Y322226D01*
X372846Y322226D01*
X372846Y328894D01*
X379514Y328894D01*
X379514Y324338D02*
X372846Y324338D01*
X372846Y326450D02*
X379514Y326450D01*
X379514Y328562D02*
X372846Y328562D01*
X363514Y328894D02*
X363514Y322226D01*
X356846Y322226D01*
X356846Y328894D01*
X363514Y328894D01*
X363514Y324338D02*
X356846Y324338D01*
X356846Y326450D02*
X363514Y326450D01*
X363514Y328562D02*
X356846Y328562D01*
D29*
X819104Y371005D02*
X819104Y372875D01*
X819104Y371005D02*
X810734Y371005D01*
X810734Y372875D01*
X819104Y372875D01*
X819104Y380505D02*
X819104Y382375D01*
X819104Y380505D02*
X810734Y380505D01*
X810734Y382375D01*
X819104Y382375D01*
X819104Y390005D02*
X819104Y391875D01*
X819104Y390005D02*
X810734Y390005D01*
X810734Y391875D01*
X819104Y391875D01*
X845106Y391875D02*
X845106Y390005D01*
X836736Y390005D01*
X836736Y391875D01*
X845106Y391875D01*
X845106Y372875D02*
X845106Y371005D01*
X836736Y371005D01*
X836736Y372875D01*
X845106Y372875D01*
X836736Y380505D02*
X836736Y382375D01*
X845106Y382375D01*
X845106Y380505D01*
X836736Y380505D01*
D27*
X329206Y354776D02*
X329206Y349624D01*
X328254Y349624D01*
X328254Y354776D01*
X329206Y354776D01*
X329206Y351380D02*
X328254Y351380D01*
X328254Y353136D02*
X329206Y353136D01*
X334206Y354776D02*
X334206Y349624D01*
X333254Y349624D01*
X333254Y354776D01*
X334206Y354776D01*
X334206Y351380D02*
X333254Y351380D01*
X333254Y353136D02*
X334206Y353136D01*
X324206Y354776D02*
X324206Y349624D01*
X323254Y349624D01*
X323254Y354776D01*
X324206Y354776D01*
X324206Y351380D02*
X323254Y351380D01*
X323254Y353136D02*
X324206Y353136D01*
X319206Y354776D02*
X319206Y349624D01*
X318254Y349624D01*
X318254Y354776D01*
X319206Y354776D01*
X319206Y351380D02*
X318254Y351380D01*
X318254Y353136D02*
X319206Y353136D01*
X314206Y354776D02*
X314206Y349624D01*
X313254Y349624D01*
X313254Y354776D01*
X314206Y354776D01*
X314206Y351380D02*
X313254Y351380D01*
X313254Y353136D02*
X314206Y353136D01*
X318254Y377624D02*
X318254Y382776D01*
X319206Y382776D01*
X319206Y377624D01*
X318254Y377624D01*
X318254Y379380D02*
X319206Y379380D01*
X319206Y381136D02*
X318254Y381136D01*
X314206Y382776D02*
X314206Y377624D01*
X313254Y377624D01*
X313254Y382776D01*
X314206Y382776D01*
X314206Y379380D02*
X313254Y379380D01*
X313254Y381136D02*
X314206Y381136D01*
X323254Y382776D02*
X323254Y377624D01*
X323254Y382776D02*
X324206Y382776D01*
X324206Y377624D01*
X323254Y377624D01*
X323254Y379380D02*
X324206Y379380D01*
X324206Y381136D02*
X323254Y381136D01*
X328254Y382776D02*
X328254Y377624D01*
X328254Y382776D02*
X329206Y382776D01*
X329206Y377624D01*
X328254Y377624D01*
X328254Y379380D02*
X329206Y379380D01*
X329206Y381136D02*
X328254Y381136D01*
X334206Y382776D02*
X334206Y377624D01*
X333254Y377624D01*
X333254Y382776D01*
X334206Y382776D01*
X334206Y379380D02*
X333254Y379380D01*
X333254Y381136D02*
X334206Y381136D01*
X312306Y360724D02*
X307154Y360724D01*
X307154Y361676D01*
X312306Y361676D01*
X312306Y360724D01*
X312306Y365724D02*
X307154Y365724D01*
X307154Y366676D01*
X312306Y366676D01*
X312306Y365724D01*
X312306Y370724D02*
X307154Y370724D01*
X307154Y371676D01*
X312306Y371676D01*
X312306Y370724D01*
X335154Y371676D02*
X340306Y371676D01*
X340306Y370724D01*
X335154Y370724D01*
X335154Y371676D01*
X335154Y366676D02*
X340306Y366676D01*
X340306Y365724D01*
X335154Y365724D01*
X335154Y366676D01*
X335154Y361676D02*
X340306Y361676D01*
X340306Y360724D01*
X335154Y360724D01*
X335154Y361676D01*
D11*
X355956Y374296D02*
X355956Y380964D01*
X362624Y380964D01*
X362624Y374296D01*
X355956Y374296D01*
X355956Y376408D02*
X362624Y376408D01*
X362624Y378520D02*
X355956Y378520D01*
X355956Y380632D02*
X362624Y380632D01*
X355956Y365724D02*
X355956Y359056D01*
X355956Y365724D02*
X362624Y365724D01*
X362624Y359056D01*
X355956Y359056D01*
X355956Y361168D02*
X362624Y361168D01*
X362624Y363280D02*
X355956Y363280D01*
X355956Y365392D02*
X362624Y365392D01*
D13*
X695966Y392060D02*
X702966Y392060D01*
X702966Y386060D01*
X695966Y386060D01*
X695966Y392060D01*
X695966Y387960D02*
X702966Y387960D01*
X702966Y389860D02*
X695966Y389860D01*
X695966Y391760D02*
X702966Y391760D01*
X679966Y392060D02*
X672966Y392060D01*
X679966Y392060D02*
X679966Y386060D01*
X672966Y386060D01*
X672966Y392060D01*
X672966Y387960D02*
X679966Y387960D01*
X679966Y389860D02*
X672966Y389860D01*
X672966Y391760D02*
X679966Y391760D01*
D11*
X538456Y332704D02*
X538456Y326036D01*
X538456Y332704D02*
X545124Y332704D01*
X545124Y326036D01*
X538456Y326036D01*
X538456Y328148D02*
X545124Y328148D01*
X545124Y330260D02*
X538456Y330260D01*
X538456Y332372D02*
X545124Y332372D01*
X554456Y332704D02*
X554456Y326036D01*
X554456Y332704D02*
X561124Y332704D01*
X561124Y326036D01*
X554456Y326036D01*
X554456Y328148D02*
X561124Y328148D01*
X561124Y330260D02*
X554456Y330260D01*
X554456Y332372D02*
X561124Y332372D01*
X300394Y343182D02*
X293726Y343182D01*
X293726Y349850D01*
X300394Y349850D01*
X300394Y343182D01*
X300394Y345294D02*
X293726Y345294D01*
X293726Y347406D02*
X300394Y347406D01*
X300394Y349518D02*
X293726Y349518D01*
X293726Y359182D02*
X300394Y359182D01*
X293726Y359182D02*
X293726Y365850D01*
X300394Y365850D01*
X300394Y359182D01*
X300394Y361294D02*
X293726Y361294D01*
X293726Y363406D02*
X300394Y363406D01*
X300394Y365518D02*
X293726Y365518D01*
X570586Y344514D02*
X577254Y344514D01*
X577254Y337846D01*
X570586Y337846D01*
X570586Y344514D01*
X570586Y339958D02*
X577254Y339958D01*
X577254Y342070D02*
X570586Y342070D01*
X570586Y344182D02*
X577254Y344182D01*
X577254Y328514D02*
X570586Y328514D01*
X577254Y328514D02*
X577254Y321846D01*
X570586Y321846D01*
X570586Y328514D01*
X570586Y323958D02*
X577254Y323958D01*
X577254Y326070D02*
X570586Y326070D01*
X570586Y328182D02*
X577254Y328182D01*
X336970Y331180D02*
X330302Y331180D01*
X336970Y331180D02*
X336970Y324512D01*
X330302Y324512D01*
X330302Y331180D01*
X330302Y326624D02*
X336970Y326624D01*
X336970Y328736D02*
X330302Y328736D01*
X330302Y330848D02*
X336970Y330848D01*
X321730Y331180D02*
X315062Y331180D01*
X321730Y331180D02*
X321730Y324512D01*
X315062Y324512D01*
X315062Y331180D01*
X315062Y326624D02*
X321730Y326624D01*
X321730Y328736D02*
X315062Y328736D01*
X315062Y330848D02*
X321730Y330848D01*
X277534Y406046D02*
X270866Y406046D01*
X270866Y412714D01*
X277534Y412714D01*
X277534Y406046D01*
X277534Y408158D02*
X270866Y408158D01*
X270866Y410270D02*
X277534Y410270D01*
X277534Y412382D02*
X270866Y412382D01*
X286106Y406046D02*
X292774Y406046D01*
X286106Y406046D02*
X286106Y412714D01*
X292774Y412714D01*
X292774Y406046D01*
X292774Y408158D02*
X286106Y408158D01*
X286106Y410270D02*
X292774Y410270D01*
X292774Y412382D02*
X286106Y412382D01*
X380404Y342864D02*
X380404Y336196D01*
X373736Y336196D01*
X373736Y342864D01*
X380404Y342864D01*
X380404Y338308D02*
X373736Y338308D01*
X373736Y340420D02*
X380404Y340420D01*
X380404Y342532D02*
X373736Y342532D01*
X380404Y351436D02*
X380404Y358104D01*
X380404Y351436D02*
X373736Y351436D01*
X373736Y358104D01*
X380404Y358104D01*
X380404Y353548D02*
X373736Y353548D01*
X373736Y355660D02*
X380404Y355660D01*
X380404Y357772D02*
X373736Y357772D01*
X692252Y346674D02*
X698920Y346674D01*
X698920Y340006D01*
X692252Y340006D01*
X692252Y346674D01*
X692252Y342118D02*
X698920Y342118D01*
X698920Y344230D02*
X692252Y344230D01*
X692252Y346342D02*
X698920Y346342D01*
X683680Y346674D02*
X677012Y346674D01*
X683680Y346674D02*
X683680Y340006D01*
X677012Y340006D01*
X677012Y346674D01*
X677012Y342118D02*
X683680Y342118D01*
X683680Y344230D02*
X677012Y344230D01*
X677012Y346342D02*
X683680Y346342D01*
M02*
