G04 EAGLE Gerber RS-274X export*
G75*
%MOMM*%
%FSLAX34Y34*%
%LPD*%
%INSoldermask Bottom*%
%IPPOS*%
%AMOC8*
5,1,8,0,0,1.08239X$1,22.5*%
G01*
%ADD10C,1.524000*%
%ADD11C,0.914400*%
%ADD12C,0.635000*%
%ADD13C,0.660400*%
%ADD14C,0.558800*%
%ADD15C,0.508000*%
%ADD16C,0.711200*%
%ADD17C,0.406400*%
%ADD18C,1.050800*%
%ADD19C,0.750800*%
%ADD20C,0.272541*%
%ADD21C,0.700800*%
%ADD22C,0.216575*%
%ADD23C,0.252447*%
%ADD24C,0.307338*%
%ADD25C,0.246731*%
%ADD26C,0.201747*%
%ADD27C,0.369822*%
%ADD28C,0.243838*%
%ADD29C,0.275731*%
%ADD30C,2.050800*%
%ADD31C,0.280559*%
%ADD32C,0.425194*%
%ADD33P,2.246825X8X112.500000*%
%ADD34C,0.182878*%
%ADD35C,1.050800*%
%ADD36C,0.598416*%
%ADD37C,0.277131*%
%ADD38C,0.339047*%
%ADD39C,0.345181*%
%ADD40C,0.234866*%
%ADD41C,0.421450*%
%ADD42C,0.414550*%
%ADD43C,0.309372*%
%ADD44C,0.340272*%
%ADD45C,0.406222*%
%ADD46C,0.445606*%

G36*
X190878Y86519D02*
X190878Y86519D01*
X190880Y86518D01*
X190923Y86538D01*
X190967Y86556D01*
X190967Y86558D01*
X190969Y86559D01*
X191002Y86644D01*
X191002Y91624D01*
X195610Y91624D01*
X195612Y91625D01*
X195614Y91624D01*
X195657Y91644D01*
X195701Y91662D01*
X195701Y91664D01*
X195703Y91665D01*
X195736Y91750D01*
X195736Y115250D01*
X195735Y115252D01*
X195736Y115254D01*
X195716Y115297D01*
X195698Y115341D01*
X195696Y115341D01*
X195695Y115343D01*
X195610Y115376D01*
X191002Y115376D01*
X191002Y120518D01*
X191001Y120520D01*
X191002Y120522D01*
X190982Y120565D01*
X190964Y120609D01*
X190962Y120609D01*
X190961Y120611D01*
X190876Y120644D01*
X188844Y120644D01*
X188842Y120643D01*
X188840Y120644D01*
X188797Y120624D01*
X188753Y120606D01*
X188753Y120604D01*
X188751Y120603D01*
X188718Y120518D01*
X188718Y115376D01*
X178110Y115376D01*
X178108Y115375D01*
X178106Y115376D01*
X178063Y115356D01*
X178019Y115338D01*
X178019Y115336D01*
X178017Y115335D01*
X177984Y115250D01*
X177984Y91750D01*
X177985Y91748D01*
X177984Y91746D01*
X178004Y91703D01*
X178022Y91659D01*
X178024Y91659D01*
X178025Y91657D01*
X178110Y91624D01*
X188718Y91624D01*
X188718Y86644D01*
X188719Y86642D01*
X188718Y86640D01*
X188738Y86597D01*
X188756Y86553D01*
X188758Y86553D01*
X188759Y86551D01*
X188844Y86518D01*
X190876Y86518D01*
X190878Y86519D01*
G37*
G36*
X276288Y110325D02*
X276288Y110325D01*
X276290Y110324D01*
X276333Y110344D01*
X276377Y110362D01*
X276377Y110364D01*
X276379Y110365D01*
X276412Y110450D01*
X276412Y115058D01*
X281554Y115058D01*
X281556Y115059D01*
X281558Y115058D01*
X281601Y115078D01*
X281645Y115096D01*
X281645Y115098D01*
X281647Y115099D01*
X281680Y115184D01*
X281680Y117216D01*
X281679Y117218D01*
X281680Y117220D01*
X281660Y117263D01*
X281642Y117307D01*
X281640Y117307D01*
X281639Y117309D01*
X281554Y117342D01*
X276412Y117342D01*
X276412Y127950D01*
X276411Y127952D01*
X276412Y127954D01*
X276392Y127997D01*
X276374Y128041D01*
X276372Y128041D01*
X276371Y128043D01*
X276286Y128076D01*
X252786Y128076D01*
X252784Y128075D01*
X252782Y128076D01*
X252739Y128056D01*
X252695Y128038D01*
X252695Y128036D01*
X252693Y128035D01*
X252660Y127950D01*
X252660Y117342D01*
X247680Y117342D01*
X247678Y117341D01*
X247676Y117342D01*
X247633Y117322D01*
X247589Y117304D01*
X247589Y117302D01*
X247587Y117301D01*
X247554Y117216D01*
X247554Y115184D01*
X247555Y115182D01*
X247554Y115180D01*
X247574Y115137D01*
X247592Y115093D01*
X247594Y115093D01*
X247595Y115091D01*
X247680Y115058D01*
X252660Y115058D01*
X252660Y110450D01*
X252661Y110448D01*
X252660Y110446D01*
X252680Y110403D01*
X252698Y110359D01*
X252700Y110359D01*
X252701Y110357D01*
X252786Y110324D01*
X276286Y110324D01*
X276288Y110325D01*
G37*
G36*
X118084Y153354D02*
X118084Y153354D01*
X118087Y153351D01*
X119209Y153506D01*
X119214Y153511D01*
X119218Y153508D01*
X120289Y153879D01*
X120293Y153885D01*
X120298Y153883D01*
X121275Y154456D01*
X121278Y154462D01*
X121283Y154461D01*
X122130Y155214D01*
X122132Y155221D01*
X122137Y155221D01*
X122821Y156124D01*
X122821Y156131D01*
X122826Y156132D01*
X123321Y157151D01*
X123319Y157158D01*
X123324Y157160D01*
X123611Y158257D01*
X123609Y158261D01*
X123611Y158262D01*
X123609Y158264D01*
X123612Y158266D01*
X123679Y159397D01*
X123677Y159401D01*
X123679Y159403D01*
X123612Y160534D01*
X123607Y160539D01*
X123611Y160543D01*
X123324Y161640D01*
X123318Y161644D01*
X123321Y161649D01*
X122826Y162668D01*
X122820Y162671D01*
X122821Y162676D01*
X122137Y163579D01*
X122130Y163581D01*
X122130Y163586D01*
X121283Y164339D01*
X121276Y164339D01*
X121275Y164344D01*
X120298Y164917D01*
X120291Y164916D01*
X120289Y164921D01*
X119218Y165292D01*
X119212Y165289D01*
X119209Y165294D01*
X118087Y165449D01*
X118082Y165446D01*
X118080Y165449D01*
X106080Y165449D01*
X106075Y165446D01*
X106072Y165449D01*
X104805Y165244D01*
X104799Y165238D01*
X104795Y165241D01*
X103605Y164759D01*
X103601Y164752D01*
X103595Y164754D01*
X102542Y164020D01*
X102540Y164012D01*
X102534Y164013D01*
X101671Y163063D01*
X101670Y163054D01*
X101665Y163054D01*
X101035Y161935D01*
X101036Y161927D01*
X101030Y161925D01*
X100665Y160695D01*
X100668Y160687D01*
X100663Y160684D01*
X100581Y159403D01*
X100584Y159399D01*
X100581Y159397D01*
X100663Y158116D01*
X100669Y158110D01*
X100665Y158105D01*
X101030Y156875D01*
X101037Y156870D01*
X101035Y156865D01*
X101665Y155746D01*
X101672Y155743D01*
X101671Y155737D01*
X102534Y154787D01*
X102542Y154786D01*
X102542Y154780D01*
X103595Y154046D01*
X103603Y154046D01*
X103605Y154041D01*
X104795Y153559D01*
X104802Y153561D01*
X104805Y153556D01*
X106072Y153351D01*
X106077Y153354D01*
X106080Y153351D01*
X118080Y153351D01*
X118084Y153354D01*
G37*
G36*
X118084Y66954D02*
X118084Y66954D01*
X118087Y66951D01*
X119209Y67106D01*
X119214Y67111D01*
X119218Y67108D01*
X120289Y67479D01*
X120293Y67485D01*
X120298Y67483D01*
X121275Y68056D01*
X121278Y68062D01*
X121283Y68061D01*
X122130Y68814D01*
X122132Y68821D01*
X122137Y68821D01*
X122821Y69724D01*
X122821Y69731D01*
X122826Y69732D01*
X123321Y70751D01*
X123319Y70758D01*
X123324Y70760D01*
X123611Y71857D01*
X123609Y71861D01*
X123611Y71862D01*
X123609Y71864D01*
X123612Y71866D01*
X123679Y72997D01*
X123677Y73001D01*
X123679Y73003D01*
X123612Y74134D01*
X123607Y74139D01*
X123611Y74143D01*
X123324Y75240D01*
X123318Y75244D01*
X123321Y75249D01*
X122826Y76268D01*
X122820Y76271D01*
X122821Y76276D01*
X122137Y77179D01*
X122130Y77181D01*
X122130Y77186D01*
X121283Y77939D01*
X121276Y77939D01*
X121275Y77944D01*
X120298Y78517D01*
X120291Y78516D01*
X120289Y78521D01*
X119218Y78892D01*
X119212Y78889D01*
X119209Y78894D01*
X118087Y79049D01*
X118082Y79046D01*
X118080Y79049D01*
X106080Y79049D01*
X106075Y79046D01*
X106072Y79049D01*
X104805Y78844D01*
X104799Y78838D01*
X104795Y78841D01*
X103605Y78359D01*
X103601Y78352D01*
X103595Y78354D01*
X102542Y77620D01*
X102540Y77612D01*
X102534Y77613D01*
X101671Y76663D01*
X101670Y76654D01*
X101665Y76654D01*
X101035Y75535D01*
X101036Y75527D01*
X101030Y75525D01*
X100665Y74295D01*
X100668Y74287D01*
X100663Y74284D01*
X100581Y73003D01*
X100584Y72999D01*
X100581Y72997D01*
X100663Y71716D01*
X100669Y71710D01*
X100665Y71705D01*
X101030Y70475D01*
X101037Y70470D01*
X101035Y70465D01*
X101665Y69346D01*
X101672Y69343D01*
X101671Y69337D01*
X102534Y68387D01*
X102542Y68386D01*
X102542Y68380D01*
X103595Y67646D01*
X103603Y67646D01*
X103605Y67641D01*
X104795Y67159D01*
X104802Y67161D01*
X104805Y67156D01*
X106072Y66951D01*
X106077Y66954D01*
X106080Y66951D01*
X118080Y66951D01*
X118084Y66954D01*
G37*
G36*
X893925Y403354D02*
X893925Y403354D01*
X893928Y403351D01*
X895195Y403556D01*
X895201Y403562D01*
X895206Y403559D01*
X896395Y404041D01*
X896399Y404048D01*
X896405Y404046D01*
X897458Y404780D01*
X897460Y404788D01*
X897466Y404787D01*
X898329Y405737D01*
X898330Y405746D01*
X898335Y405746D01*
X898965Y406865D01*
X898964Y406873D01*
X898970Y406875D01*
X899335Y408105D01*
X899332Y408112D01*
X899336Y408115D01*
X899335Y408115D01*
X899337Y408116D01*
X899419Y409397D01*
X899417Y409401D01*
X899419Y409403D01*
X899337Y410684D01*
X899331Y410690D01*
X899335Y410695D01*
X898970Y411925D01*
X898963Y411930D01*
X898965Y411935D01*
X898335Y413054D01*
X898328Y413057D01*
X898329Y413063D01*
X897466Y414013D01*
X897458Y414014D01*
X897458Y414020D01*
X896405Y414754D01*
X896397Y414754D01*
X896395Y414759D01*
X895206Y415241D01*
X895198Y415239D01*
X895195Y415244D01*
X893928Y415449D01*
X893923Y415446D01*
X893920Y415449D01*
X881920Y415449D01*
X881916Y415446D01*
X881913Y415449D01*
X880791Y415294D01*
X880786Y415289D01*
X880782Y415292D01*
X879711Y414921D01*
X879707Y414915D01*
X879702Y414917D01*
X878725Y414344D01*
X878722Y414338D01*
X878717Y414339D01*
X877870Y413586D01*
X877868Y413579D01*
X877863Y413579D01*
X877179Y412676D01*
X877179Y412669D01*
X877174Y412668D01*
X876679Y411649D01*
X876681Y411642D01*
X876679Y411641D01*
X876676Y411640D01*
X876389Y410543D01*
X876392Y410537D01*
X876388Y410534D01*
X876321Y409403D01*
X876323Y409399D01*
X876321Y409397D01*
X876388Y408266D01*
X876393Y408261D01*
X876389Y408257D01*
X876676Y407160D01*
X876682Y407156D01*
X876679Y407151D01*
X877174Y406132D01*
X877180Y406129D01*
X877179Y406124D01*
X877863Y405221D01*
X877870Y405219D01*
X877870Y405214D01*
X878717Y404461D01*
X878724Y404461D01*
X878725Y404456D01*
X879702Y403883D01*
X879709Y403884D01*
X879711Y403879D01*
X880782Y403508D01*
X880788Y403511D01*
X880791Y403506D01*
X881913Y403351D01*
X881918Y403354D01*
X881920Y403351D01*
X893920Y403351D01*
X893925Y403354D01*
G37*
G36*
X893925Y316954D02*
X893925Y316954D01*
X893928Y316951D01*
X895195Y317156D01*
X895201Y317162D01*
X895206Y317159D01*
X896395Y317641D01*
X896399Y317648D01*
X896405Y317646D01*
X897458Y318380D01*
X897460Y318388D01*
X897466Y318387D01*
X898329Y319337D01*
X898330Y319346D01*
X898335Y319346D01*
X898965Y320465D01*
X898964Y320473D01*
X898970Y320475D01*
X899335Y321705D01*
X899332Y321712D01*
X899336Y321715D01*
X899335Y321715D01*
X899337Y321716D01*
X899419Y322997D01*
X899417Y323001D01*
X899419Y323003D01*
X899337Y324284D01*
X899331Y324290D01*
X899335Y324295D01*
X898970Y325525D01*
X898963Y325530D01*
X898965Y325535D01*
X898335Y326654D01*
X898328Y326657D01*
X898329Y326663D01*
X897466Y327613D01*
X897458Y327614D01*
X897458Y327620D01*
X896405Y328354D01*
X896397Y328354D01*
X896395Y328359D01*
X895206Y328841D01*
X895198Y328839D01*
X895195Y328844D01*
X893928Y329049D01*
X893923Y329046D01*
X893920Y329049D01*
X881920Y329049D01*
X881916Y329046D01*
X881913Y329049D01*
X880791Y328894D01*
X880786Y328889D01*
X880782Y328892D01*
X879711Y328521D01*
X879707Y328515D01*
X879702Y328517D01*
X878725Y327944D01*
X878722Y327938D01*
X878717Y327939D01*
X877870Y327186D01*
X877868Y327179D01*
X877863Y327179D01*
X877179Y326276D01*
X877179Y326269D01*
X877174Y326268D01*
X876679Y325249D01*
X876681Y325242D01*
X876679Y325241D01*
X876676Y325240D01*
X876389Y324143D01*
X876392Y324137D01*
X876388Y324134D01*
X876321Y323003D01*
X876323Y322999D01*
X876321Y322997D01*
X876388Y321866D01*
X876393Y321861D01*
X876389Y321857D01*
X876676Y320760D01*
X876682Y320756D01*
X876679Y320751D01*
X877174Y319732D01*
X877180Y319729D01*
X877179Y319724D01*
X877863Y318821D01*
X877870Y318819D01*
X877870Y318814D01*
X878717Y318061D01*
X878724Y318061D01*
X878725Y318056D01*
X879702Y317483D01*
X879709Y317484D01*
X879711Y317479D01*
X880782Y317108D01*
X880788Y317111D01*
X880791Y317106D01*
X881913Y316951D01*
X881918Y316954D01*
X881920Y316951D01*
X893920Y316951D01*
X893925Y316954D01*
G37*
G36*
X932723Y403353D02*
X932723Y403353D01*
X932725Y403351D01*
X933890Y403471D01*
X933896Y403476D01*
X933900Y403473D01*
X935019Y403817D01*
X935023Y403823D01*
X935028Y403821D01*
X936059Y404378D01*
X936062Y404384D01*
X936067Y404383D01*
X936969Y405130D01*
X936971Y405137D01*
X936976Y405137D01*
X937715Y406045D01*
X937715Y406052D01*
X937720Y406053D01*
X938268Y407089D01*
X938267Y407096D01*
X938272Y407097D01*
X938607Y408220D01*
X938605Y408227D01*
X938609Y408229D01*
X938719Y409395D01*
X938715Y409402D01*
X938719Y409405D01*
X938575Y410736D01*
X938569Y410741D01*
X938572Y410746D01*
X938136Y412011D01*
X938129Y412016D01*
X938131Y412021D01*
X937424Y413157D01*
X937416Y413160D01*
X937417Y413166D01*
X936475Y414116D01*
X936467Y414117D01*
X936466Y414122D01*
X935336Y414839D01*
X935328Y414838D01*
X935326Y414844D01*
X934065Y415291D01*
X934058Y415289D01*
X934055Y415294D01*
X932726Y415449D01*
X932722Y415447D01*
X932720Y415449D01*
X926720Y415449D01*
X926717Y415447D01*
X926715Y415449D01*
X925373Y415303D01*
X925367Y415298D01*
X925363Y415301D01*
X924087Y414861D01*
X924083Y414854D01*
X924077Y414856D01*
X922932Y414143D01*
X922929Y414135D01*
X922923Y414136D01*
X921965Y413186D01*
X921964Y413178D01*
X921958Y413177D01*
X921236Y412038D01*
X921236Y412033D01*
X921235Y412032D01*
X921236Y412030D01*
X921231Y412028D01*
X920780Y410757D01*
X920781Y410753D01*
X920779Y410752D01*
X920782Y410748D01*
X920778Y410746D01*
X920621Y409406D01*
X920625Y409399D01*
X920621Y409395D01*
X920742Y408220D01*
X920747Y408215D01*
X920744Y408211D01*
X921091Y407082D01*
X921097Y407078D01*
X921095Y407073D01*
X921656Y406034D01*
X921663Y406031D01*
X921661Y406026D01*
X922414Y405116D01*
X922421Y405114D01*
X922421Y405109D01*
X923337Y404363D01*
X923345Y404363D01*
X923345Y404358D01*
X924389Y403806D01*
X924397Y403807D01*
X924398Y403802D01*
X925530Y403464D01*
X925537Y403466D01*
X925539Y403462D01*
X926715Y403351D01*
X926718Y403353D01*
X926720Y403351D01*
X932720Y403351D01*
X932723Y403353D01*
G37*
G36*
X932723Y316953D02*
X932723Y316953D01*
X932725Y316951D01*
X933890Y317071D01*
X933896Y317076D01*
X933900Y317073D01*
X935019Y317417D01*
X935023Y317423D01*
X935028Y317421D01*
X936059Y317978D01*
X936062Y317984D01*
X936067Y317983D01*
X936969Y318730D01*
X936971Y318737D01*
X936976Y318737D01*
X937715Y319645D01*
X937715Y319652D01*
X937720Y319653D01*
X938268Y320689D01*
X938267Y320696D01*
X938272Y320697D01*
X938607Y321820D01*
X938605Y321827D01*
X938609Y321829D01*
X938719Y322995D01*
X938715Y323002D01*
X938719Y323005D01*
X938575Y324336D01*
X938569Y324341D01*
X938572Y324346D01*
X938136Y325611D01*
X938129Y325616D01*
X938131Y325621D01*
X937424Y326757D01*
X937416Y326760D01*
X937417Y326766D01*
X936475Y327716D01*
X936467Y327717D01*
X936466Y327722D01*
X935336Y328439D01*
X935328Y328438D01*
X935326Y328444D01*
X934065Y328891D01*
X934058Y328889D01*
X934055Y328894D01*
X932726Y329049D01*
X932722Y329047D01*
X932720Y329049D01*
X926720Y329049D01*
X926717Y329047D01*
X926715Y329049D01*
X925373Y328903D01*
X925367Y328898D01*
X925363Y328901D01*
X924087Y328461D01*
X924083Y328454D01*
X924077Y328456D01*
X922932Y327743D01*
X922929Y327735D01*
X922923Y327736D01*
X921965Y326786D01*
X921964Y326778D01*
X921958Y326777D01*
X921236Y325638D01*
X921236Y325633D01*
X921235Y325632D01*
X921236Y325630D01*
X921231Y325628D01*
X920780Y324357D01*
X920781Y324353D01*
X920779Y324352D01*
X920782Y324348D01*
X920778Y324346D01*
X920621Y323006D01*
X920625Y322999D01*
X920621Y322995D01*
X920742Y321820D01*
X920747Y321815D01*
X920744Y321811D01*
X921091Y320682D01*
X921097Y320678D01*
X921095Y320673D01*
X921656Y319634D01*
X921663Y319631D01*
X921661Y319626D01*
X922414Y318716D01*
X922421Y318714D01*
X922421Y318709D01*
X923337Y317963D01*
X923345Y317963D01*
X923345Y317958D01*
X924389Y317406D01*
X924397Y317407D01*
X924398Y317402D01*
X925530Y317064D01*
X925537Y317066D01*
X925539Y317062D01*
X926715Y316951D01*
X926718Y316953D01*
X926720Y316951D01*
X932720Y316951D01*
X932723Y316953D01*
G37*
G36*
X73283Y153353D02*
X73283Y153353D01*
X73285Y153351D01*
X74461Y153462D01*
X74466Y153467D01*
X74470Y153464D01*
X75602Y153802D01*
X75606Y153808D01*
X75611Y153806D01*
X76655Y154358D01*
X76658Y154365D01*
X76663Y154363D01*
X77579Y155109D01*
X77580Y155116D01*
X77586Y155116D01*
X78339Y156026D01*
X78339Y156033D01*
X78344Y156034D01*
X78905Y157073D01*
X78904Y157078D01*
X78908Y157080D01*
X78907Y157081D01*
X78909Y157082D01*
X79256Y158211D01*
X79256Y158212D01*
X79257Y158213D01*
X79254Y158217D01*
X79258Y158220D01*
X79379Y159395D01*
X79375Y159402D01*
X79379Y159406D01*
X79222Y160746D01*
X79217Y160752D01*
X79220Y160757D01*
X78769Y162028D01*
X78762Y162033D01*
X78764Y162038D01*
X78042Y163177D01*
X78034Y163180D01*
X78035Y163186D01*
X77077Y164136D01*
X77069Y164137D01*
X77068Y164143D01*
X75923Y164856D01*
X75915Y164855D01*
X75913Y164861D01*
X74637Y165301D01*
X74630Y165299D01*
X74627Y165303D01*
X73285Y165449D01*
X73282Y165447D01*
X73280Y165449D01*
X67280Y165449D01*
X67277Y165447D01*
X67274Y165449D01*
X65945Y165294D01*
X65939Y165288D01*
X65935Y165291D01*
X64674Y164844D01*
X64669Y164837D01*
X64664Y164839D01*
X63534Y164122D01*
X63531Y164115D01*
X63525Y164116D01*
X62583Y163166D01*
X62582Y163157D01*
X62576Y163157D01*
X61869Y162021D01*
X61870Y162013D01*
X61864Y162011D01*
X61428Y160746D01*
X61430Y160738D01*
X61425Y160736D01*
X61281Y159405D01*
X61285Y159399D01*
X61281Y159395D01*
X61391Y158229D01*
X61396Y158224D01*
X61393Y158220D01*
X61728Y157097D01*
X61734Y157093D01*
X61732Y157089D01*
X62280Y156053D01*
X62286Y156050D01*
X62285Y156045D01*
X63024Y155137D01*
X63031Y155135D01*
X63031Y155130D01*
X63933Y154383D01*
X63941Y154383D01*
X63941Y154378D01*
X64972Y153821D01*
X64979Y153822D01*
X64981Y153817D01*
X66100Y153473D01*
X66107Y153475D01*
X66110Y153471D01*
X67275Y153351D01*
X67278Y153353D01*
X67280Y153351D01*
X73280Y153351D01*
X73283Y153353D01*
G37*
G36*
X73283Y66953D02*
X73283Y66953D01*
X73285Y66951D01*
X74461Y67062D01*
X74466Y67067D01*
X74470Y67064D01*
X75602Y67402D01*
X75606Y67408D01*
X75611Y67406D01*
X76655Y67958D01*
X76658Y67965D01*
X76663Y67963D01*
X77579Y68709D01*
X77580Y68716D01*
X77586Y68716D01*
X78339Y69626D01*
X78339Y69633D01*
X78344Y69634D01*
X78905Y70673D01*
X78904Y70678D01*
X78908Y70680D01*
X78907Y70681D01*
X78909Y70682D01*
X79256Y71811D01*
X79256Y71812D01*
X79257Y71813D01*
X79254Y71817D01*
X79258Y71820D01*
X79379Y72995D01*
X79375Y73002D01*
X79379Y73006D01*
X79222Y74346D01*
X79217Y74352D01*
X79220Y74357D01*
X78769Y75628D01*
X78762Y75633D01*
X78764Y75638D01*
X78042Y76777D01*
X78034Y76780D01*
X78035Y76786D01*
X77077Y77736D01*
X77069Y77737D01*
X77068Y77743D01*
X75923Y78456D01*
X75915Y78455D01*
X75913Y78461D01*
X74637Y78901D01*
X74630Y78899D01*
X74627Y78903D01*
X73285Y79049D01*
X73282Y79047D01*
X73280Y79049D01*
X67280Y79049D01*
X67277Y79047D01*
X67274Y79049D01*
X65945Y78894D01*
X65939Y78888D01*
X65935Y78891D01*
X64674Y78444D01*
X64669Y78437D01*
X64664Y78439D01*
X63534Y77722D01*
X63531Y77715D01*
X63525Y77716D01*
X62583Y76766D01*
X62582Y76757D01*
X62576Y76757D01*
X61869Y75621D01*
X61870Y75613D01*
X61864Y75611D01*
X61428Y74346D01*
X61430Y74338D01*
X61425Y74336D01*
X61281Y73005D01*
X61285Y72999D01*
X61281Y72995D01*
X61391Y71829D01*
X61396Y71824D01*
X61393Y71820D01*
X61728Y70697D01*
X61734Y70693D01*
X61732Y70689D01*
X62280Y69653D01*
X62286Y69650D01*
X62285Y69645D01*
X63024Y68737D01*
X63031Y68735D01*
X63031Y68730D01*
X63933Y67983D01*
X63941Y67983D01*
X63941Y67978D01*
X64972Y67421D01*
X64979Y67422D01*
X64981Y67417D01*
X66100Y67073D01*
X66107Y67075D01*
X66110Y67071D01*
X67275Y66951D01*
X67278Y66953D01*
X67280Y66951D01*
X73280Y66951D01*
X73283Y66953D01*
G37*
D10*
X380360Y95880D02*
X380360Y78100D01*
D11*
X299080Y74290D02*
X168270Y74290D01*
X149220Y93340D01*
D12*
X126360Y98420D02*
X112390Y98420D01*
X118740Y84450D02*
X128900Y95880D01*
X118740Y93340D02*
X118740Y84450D01*
X118740Y93340D02*
X117470Y93340D01*
X112390Y98420D01*
X126360Y98420D02*
X128900Y95880D01*
D13*
X118740Y94610D02*
X145410Y94610D01*
X149220Y94610D01*
D14*
X149220Y90800D02*
X145410Y94610D01*
X370200Y73020D02*
X380360Y73020D01*
X376550Y79370D02*
X370200Y73020D01*
D15*
X154554Y149220D02*
X154554Y160396D01*
X154554Y149220D02*
X154554Y141600D01*
X146934Y141600D01*
X154554Y149220D01*
D16*
X250312Y89784D02*
X267076Y89784D01*
X250312Y89784D02*
X245232Y94864D01*
X232024Y94864D01*
X232024Y89784D01*
X250312Y89784D01*
D17*
X264536Y91308D02*
X271140Y91308D01*
X268092Y88260D01*
X267076Y88260D01*
D18*
X648865Y785750D02*
X656865Y785750D01*
X618865Y785750D02*
X606865Y785750D01*
X648865Y674250D02*
X656865Y674250D01*
X618865Y674250D02*
X606865Y674250D01*
D19*
X663056Y818392D03*
X645056Y818392D03*
D20*
X849787Y78897D02*
X849787Y72223D01*
X843113Y72223D01*
X843113Y78897D01*
X849787Y78897D01*
X849787Y74812D02*
X843113Y74812D01*
X843113Y77401D02*
X849787Y77401D01*
X849787Y87463D02*
X849787Y94137D01*
X849787Y87463D02*
X843113Y87463D01*
X843113Y94137D01*
X849787Y94137D01*
X849787Y90052D02*
X843113Y90052D01*
X843113Y92641D02*
X849787Y92641D01*
X688497Y77627D02*
X681823Y77627D01*
X688497Y77627D02*
X688497Y70953D01*
X681823Y70953D01*
X681823Y77627D01*
X681823Y73542D02*
X688497Y73542D01*
X688497Y76131D02*
X681823Y76131D01*
X673257Y77627D02*
X666583Y77627D01*
X673257Y77627D02*
X673257Y70953D01*
X666583Y70953D01*
X666583Y77627D01*
X666583Y73542D02*
X673257Y73542D01*
X673257Y76131D02*
X666583Y76131D01*
X694523Y70953D02*
X701197Y70953D01*
X694523Y70953D02*
X694523Y77627D01*
X701197Y77627D01*
X701197Y70953D01*
X701197Y73542D02*
X694523Y73542D01*
X694523Y76131D02*
X701197Y76131D01*
X709763Y70953D02*
X716437Y70953D01*
X709763Y70953D02*
X709763Y77627D01*
X716437Y77627D01*
X716437Y70953D01*
X716437Y73542D02*
X709763Y73542D01*
X709763Y76131D02*
X716437Y76131D01*
X735163Y157383D02*
X741837Y157383D01*
X741837Y150709D01*
X735163Y150709D01*
X735163Y157383D01*
X735163Y153298D02*
X741837Y153298D01*
X741837Y155887D02*
X735163Y155887D01*
X726597Y157383D02*
X719923Y157383D01*
X726597Y157383D02*
X726597Y150709D01*
X719923Y150709D01*
X719923Y157383D01*
X719923Y153298D02*
X726597Y153298D01*
X726597Y155887D02*
X719923Y155887D01*
X843113Y160557D02*
X849787Y160557D01*
X849787Y153883D01*
X843113Y153883D01*
X843113Y160557D01*
X843113Y156472D02*
X849787Y156472D01*
X849787Y159061D02*
X843113Y159061D01*
X843113Y144557D02*
X849787Y144557D01*
X849787Y137883D01*
X843113Y137883D01*
X843113Y144557D01*
X843113Y140472D02*
X849787Y140472D01*
X849787Y143061D02*
X843113Y143061D01*
D21*
X106830Y145100D03*
X106830Y87300D03*
D20*
X484973Y162463D02*
X491647Y162463D01*
X491647Y155789D01*
X484973Y155789D01*
X484973Y162463D01*
X484973Y158378D02*
X491647Y158378D01*
X491647Y160967D02*
X484973Y160967D01*
X476407Y162463D02*
X469733Y162463D01*
X476407Y162463D02*
X476407Y155789D01*
X469733Y155789D01*
X469733Y162463D01*
X469733Y158378D02*
X476407Y158378D01*
X476407Y160967D02*
X469733Y160967D01*
X463707Y162463D02*
X457033Y162463D01*
X463707Y162463D02*
X463707Y155789D01*
X457033Y155789D01*
X457033Y162463D01*
X457033Y158378D02*
X463707Y158378D01*
X463707Y160967D02*
X457033Y160967D01*
X448467Y162463D02*
X441793Y162463D01*
X448467Y162463D02*
X448467Y155789D01*
X441793Y155789D01*
X441793Y162463D01*
X441793Y158378D02*
X448467Y158378D01*
X448467Y160967D02*
X441793Y160967D01*
X469733Y134453D02*
X476407Y134453D01*
X469733Y134453D02*
X469733Y141127D01*
X476407Y141127D01*
X476407Y134453D01*
X476407Y137042D02*
X469733Y137042D01*
X469733Y139631D02*
X476407Y139631D01*
X484973Y134453D02*
X491647Y134453D01*
X484973Y134453D02*
X484973Y141127D01*
X491647Y141127D01*
X491647Y134453D01*
X491647Y137042D02*
X484973Y137042D01*
X484973Y139631D02*
X491647Y139631D01*
X476407Y121753D02*
X469733Y121753D01*
X469733Y128427D01*
X476407Y128427D01*
X476407Y121753D01*
X476407Y124342D02*
X469733Y124342D01*
X469733Y126931D02*
X476407Y126931D01*
X484973Y121753D02*
X491647Y121753D01*
X484973Y121753D02*
X484973Y128427D01*
X491647Y128427D01*
X491647Y121753D01*
X491647Y124342D02*
X484973Y124342D01*
X484973Y126931D02*
X491647Y126931D01*
X476407Y103973D02*
X469733Y103973D01*
X469733Y110647D01*
X476407Y110647D01*
X476407Y103973D01*
X476407Y106562D02*
X469733Y106562D01*
X469733Y109151D02*
X476407Y109151D01*
X484973Y103973D02*
X491647Y103973D01*
X484973Y103973D02*
X484973Y110647D01*
X491647Y110647D01*
X491647Y103973D01*
X491647Y106562D02*
X484973Y106562D01*
X484973Y109151D02*
X491647Y109151D01*
X599273Y103027D02*
X599273Y96353D01*
X599273Y103027D02*
X605947Y103027D01*
X605947Y96353D01*
X599273Y96353D01*
X599273Y98942D02*
X605947Y98942D01*
X605947Y101531D02*
X599273Y101531D01*
X599273Y87787D02*
X599273Y81113D01*
X599273Y87787D02*
X605947Y87787D01*
X605947Y81113D01*
X599273Y81113D01*
X599273Y83702D02*
X605947Y83702D01*
X605947Y86291D02*
X599273Y86291D01*
X611973Y96353D02*
X611973Y103027D01*
X618647Y103027D01*
X618647Y96353D01*
X611973Y96353D01*
X611973Y98942D02*
X618647Y98942D01*
X618647Y101531D02*
X611973Y101531D01*
X611973Y87787D02*
X611973Y81113D01*
X611973Y87787D02*
X618647Y87787D01*
X618647Y81113D01*
X611973Y81113D01*
X611973Y83702D02*
X618647Y83702D01*
X618647Y86291D02*
X611973Y86291D01*
D22*
X296990Y161339D02*
X296990Y162181D01*
X305332Y162181D01*
X305332Y161339D01*
X296990Y161339D01*
X296990Y157181D02*
X296990Y156339D01*
X296990Y157181D02*
X305332Y157181D01*
X305332Y156339D01*
X296990Y156339D01*
X296990Y152181D02*
X296990Y151339D01*
X296990Y152181D02*
X305332Y152181D01*
X305332Y151339D01*
X296990Y151339D01*
X296990Y147181D02*
X296990Y146339D01*
X296990Y147181D02*
X305332Y147181D01*
X305332Y146339D01*
X296990Y146339D01*
X296990Y142181D02*
X296990Y141339D01*
X296990Y142181D02*
X305332Y142181D01*
X305332Y141339D01*
X296990Y141339D01*
X263070Y141339D02*
X263070Y142181D01*
X263070Y141339D02*
X254728Y141339D01*
X254728Y142181D01*
X263070Y142181D01*
X263070Y146339D02*
X263070Y147181D01*
X263070Y146339D02*
X254728Y146339D01*
X254728Y147181D01*
X263070Y147181D01*
X263070Y151339D02*
X263070Y152181D01*
X263070Y151339D02*
X254728Y151339D01*
X254728Y152181D01*
X263070Y152181D01*
X263070Y156339D02*
X263070Y157181D01*
X263070Y156339D02*
X254728Y156339D01*
X254728Y157181D01*
X263070Y157181D01*
X263070Y161339D02*
X263070Y162181D01*
X263070Y161339D02*
X254728Y161339D01*
X254728Y162181D01*
X263070Y162181D01*
D20*
X281011Y87463D02*
X287685Y87463D01*
X281011Y87463D02*
X281011Y94137D01*
X287685Y94137D01*
X287685Y87463D01*
X287685Y90052D02*
X281011Y90052D01*
X281011Y92641D02*
X287685Y92641D01*
X296251Y87463D02*
X302925Y87463D01*
X296251Y87463D02*
X296251Y94137D01*
X302925Y94137D01*
X302925Y87463D01*
X302925Y90052D02*
X296251Y90052D01*
X296251Y92641D02*
X302925Y92641D01*
X205897Y157637D02*
X199223Y157637D01*
X205897Y157637D02*
X205897Y150963D01*
X199223Y150963D01*
X199223Y157637D01*
X199223Y153552D02*
X205897Y153552D01*
X205897Y156141D02*
X199223Y156141D01*
X190657Y157637D02*
X183983Y157637D01*
X190657Y157637D02*
X190657Y150963D01*
X183983Y150963D01*
X183983Y157637D01*
X183983Y153552D02*
X190657Y153552D01*
X190657Y156141D02*
X183983Y156141D01*
X211923Y153503D02*
X211923Y160177D01*
X218597Y160177D01*
X218597Y153503D01*
X211923Y153503D01*
X211923Y156092D02*
X218597Y156092D01*
X218597Y158681D02*
X211923Y158681D01*
X211923Y144937D02*
X211923Y138263D01*
X211923Y144937D02*
X218597Y144937D01*
X218597Y138263D01*
X211923Y138263D01*
X211923Y140852D02*
X218597Y140852D01*
X218597Y143441D02*
X211923Y143441D01*
X205897Y144937D02*
X199223Y144937D01*
X205897Y144937D02*
X205897Y138263D01*
X199223Y138263D01*
X199223Y144937D01*
X199223Y140852D02*
X205897Y140852D01*
X205897Y143441D02*
X199223Y143441D01*
X190657Y144937D02*
X183983Y144937D01*
X190657Y144937D02*
X190657Y138263D01*
X183983Y138263D01*
X183983Y144937D01*
X183983Y140852D02*
X190657Y140852D01*
X190657Y143441D02*
X183983Y143441D01*
X242403Y142397D02*
X249077Y142397D01*
X249077Y135723D01*
X242403Y135723D01*
X242403Y142397D01*
X242403Y138312D02*
X249077Y138312D01*
X249077Y140901D02*
X242403Y140901D01*
X233837Y142397D02*
X227163Y142397D01*
X233837Y142397D02*
X233837Y135723D01*
X227163Y135723D01*
X227163Y142397D01*
X227163Y138312D02*
X233837Y138312D01*
X233837Y140901D02*
X227163Y140901D01*
D23*
X275278Y104192D02*
X275278Y98208D01*
X273294Y98208D01*
X273294Y104192D01*
X275278Y104192D01*
X275278Y100606D02*
X273294Y100606D01*
X273294Y103004D02*
X275278Y103004D01*
X268778Y104192D02*
X268778Y98208D01*
X266794Y98208D01*
X266794Y104192D01*
X268778Y104192D01*
X268778Y100606D02*
X266794Y100606D01*
X266794Y103004D02*
X268778Y103004D01*
X262278Y104192D02*
X262278Y98208D01*
X260294Y98208D01*
X260294Y104192D01*
X262278Y104192D01*
X262278Y100606D02*
X260294Y100606D01*
X260294Y103004D02*
X262278Y103004D01*
X255778Y104192D02*
X255778Y98208D01*
X253794Y98208D01*
X253794Y104192D01*
X255778Y104192D01*
X255778Y100606D02*
X253794Y100606D01*
X253794Y103004D02*
X255778Y103004D01*
X255778Y128208D02*
X255778Y134192D01*
X255778Y128208D02*
X253794Y128208D01*
X253794Y134192D01*
X255778Y134192D01*
X255778Y130606D02*
X253794Y130606D01*
X253794Y133004D02*
X255778Y133004D01*
X262278Y134192D02*
X262278Y128208D01*
X260294Y128208D01*
X260294Y134192D01*
X262278Y134192D01*
X262278Y130606D02*
X260294Y130606D01*
X260294Y133004D02*
X262278Y133004D01*
X268778Y134192D02*
X268778Y128208D01*
X266794Y128208D01*
X266794Y134192D01*
X268778Y134192D01*
X268778Y130606D02*
X266794Y130606D01*
X266794Y133004D02*
X268778Y133004D01*
X275278Y134192D02*
X275278Y128208D01*
X273294Y128208D01*
X273294Y134192D01*
X275278Y134192D01*
X275278Y130606D02*
X273294Y130606D01*
X273294Y133004D02*
X275278Y133004D01*
D24*
X265794Y117458D02*
X265794Y114942D01*
X263278Y114942D01*
X263278Y117458D01*
X265794Y117458D01*
D25*
X765295Y97021D02*
X765295Y90979D01*
X758253Y90979D01*
X758253Y97021D01*
X765295Y97021D01*
X765295Y93323D02*
X758253Y93323D01*
X758253Y95667D02*
X765295Y95667D01*
X765295Y109979D02*
X765295Y116021D01*
X765295Y109979D02*
X758253Y109979D01*
X758253Y116021D01*
X765295Y116021D01*
X765295Y112323D02*
X758253Y112323D01*
X758253Y114667D02*
X765295Y114667D01*
X786295Y106521D02*
X786295Y100479D01*
X779253Y100479D01*
X779253Y106521D01*
X786295Y106521D01*
X786295Y102823D02*
X779253Y102823D01*
X779253Y105167D02*
X786295Y105167D01*
D20*
X802473Y154773D02*
X809147Y154773D01*
X802473Y154773D02*
X802473Y161447D01*
X809147Y161447D01*
X809147Y154773D01*
X809147Y157362D02*
X802473Y157362D01*
X802473Y159951D02*
X809147Y159951D01*
X817713Y154773D02*
X824387Y154773D01*
X817713Y154773D02*
X817713Y161447D01*
X824387Y161447D01*
X824387Y154773D01*
X824387Y157362D02*
X817713Y157362D01*
X817713Y159951D02*
X824387Y159951D01*
X768507Y77303D02*
X761833Y77303D01*
X761833Y83977D01*
X768507Y83977D01*
X768507Y77303D01*
X768507Y79892D02*
X761833Y79892D01*
X761833Y82481D02*
X768507Y82481D01*
X777073Y77303D02*
X783747Y77303D01*
X777073Y77303D02*
X777073Y83977D01*
X783747Y83977D01*
X783747Y77303D01*
X783747Y79892D02*
X777073Y79892D01*
X777073Y82481D02*
X783747Y82481D01*
D26*
X464706Y78466D02*
X464706Y73974D01*
X454214Y73974D01*
X454214Y78466D01*
X464706Y78466D01*
X464706Y75890D02*
X454214Y75890D01*
X454214Y77806D02*
X464706Y77806D01*
X464706Y92974D02*
X464706Y97466D01*
X464706Y92974D02*
X454214Y92974D01*
X454214Y97466D01*
X464706Y97466D01*
X464706Y94890D02*
X454214Y94890D01*
X454214Y96806D02*
X464706Y96806D01*
X438586Y78466D02*
X438586Y73974D01*
X428094Y73974D01*
X428094Y78466D01*
X438586Y78466D01*
X438586Y75890D02*
X428094Y75890D01*
X428094Y77806D02*
X438586Y77806D01*
X438586Y83474D02*
X438586Y87966D01*
X438586Y83474D02*
X428094Y83474D01*
X428094Y87966D01*
X438586Y87966D01*
X438586Y85390D02*
X428094Y85390D01*
X428094Y87306D02*
X438586Y87306D01*
X438586Y92974D02*
X438586Y97466D01*
X438586Y92974D02*
X428094Y92974D01*
X428094Y97466D01*
X438586Y97466D01*
X438586Y94890D02*
X428094Y94890D01*
X428094Y96806D02*
X438586Y96806D01*
D20*
X350677Y138333D02*
X344003Y138333D01*
X350677Y138333D02*
X350677Y131659D01*
X344003Y131659D01*
X344003Y138333D01*
X344003Y134248D02*
X350677Y134248D01*
X350677Y136837D02*
X344003Y136837D01*
X335437Y138333D02*
X328763Y138333D01*
X335437Y138333D02*
X335437Y131659D01*
X328763Y131659D01*
X328763Y138333D01*
X328763Y134248D02*
X335437Y134248D01*
X335437Y136837D02*
X328763Y136837D01*
X356703Y144359D02*
X356703Y151033D01*
X363377Y151033D01*
X363377Y144359D01*
X356703Y144359D01*
X356703Y146948D02*
X363377Y146948D01*
X363377Y149537D02*
X356703Y149537D01*
X356703Y135793D02*
X356703Y129119D01*
X356703Y135793D02*
X363377Y135793D01*
X363377Y129119D01*
X356703Y129119D01*
X356703Y131708D02*
X363377Y131708D01*
X363377Y134297D02*
X356703Y134297D01*
X315625Y111917D02*
X315625Y105243D01*
X308951Y105243D01*
X308951Y111917D01*
X315625Y111917D01*
X315625Y107832D02*
X308951Y107832D01*
X308951Y110421D02*
X315625Y110421D01*
X315625Y120483D02*
X315625Y127157D01*
X315625Y120483D02*
X308951Y120483D01*
X308951Y127157D01*
X315625Y127157D01*
X315625Y123072D02*
X308951Y123072D01*
X308951Y125661D02*
X315625Y125661D01*
X407827Y80167D02*
X407827Y73493D01*
X401153Y73493D01*
X401153Y80167D01*
X407827Y80167D01*
X407827Y76082D02*
X401153Y76082D01*
X401153Y78671D02*
X407827Y78671D01*
X407827Y88733D02*
X407827Y95407D01*
X407827Y88733D02*
X401153Y88733D01*
X401153Y95407D01*
X407827Y95407D01*
X407827Y91322D02*
X401153Y91322D01*
X401153Y93911D02*
X407827Y93911D01*
X420527Y80167D02*
X420527Y73493D01*
X413853Y73493D01*
X413853Y80167D01*
X420527Y80167D01*
X420527Y76082D02*
X413853Y76082D01*
X413853Y78671D02*
X420527Y78671D01*
X420527Y88733D02*
X420527Y95407D01*
X420527Y88733D02*
X413853Y88733D01*
X413853Y95407D01*
X420527Y95407D01*
X420527Y91322D02*
X413853Y91322D01*
X413853Y93911D02*
X420527Y93911D01*
D25*
X222091Y96791D02*
X222091Y89749D01*
X216049Y89749D01*
X216049Y96791D01*
X222091Y96791D01*
X222091Y92093D02*
X216049Y92093D01*
X216049Y94437D02*
X222091Y94437D01*
X222091Y96781D02*
X216049Y96781D01*
X222091Y112749D02*
X222091Y119791D01*
X222091Y112749D02*
X216049Y112749D01*
X216049Y119791D01*
X222091Y119791D01*
X222091Y115093D02*
X216049Y115093D01*
X216049Y117437D02*
X222091Y117437D01*
X222091Y119781D02*
X216049Y119781D01*
D27*
X175565Y124145D02*
X175565Y133655D01*
X175565Y124145D02*
X163515Y124145D01*
X163515Y133655D01*
X175565Y133655D01*
X175565Y127658D02*
X163515Y127658D01*
X163515Y131171D02*
X175565Y131171D01*
X175565Y149545D02*
X175565Y159055D01*
X175565Y149545D02*
X163515Y149545D01*
X163515Y159055D01*
X175565Y159055D01*
X175565Y153058D02*
X163515Y153058D01*
X163515Y156571D02*
X175565Y156571D01*
D20*
X806283Y77627D02*
X812957Y77627D01*
X812957Y70953D01*
X806283Y70953D01*
X806283Y77627D01*
X806283Y73542D02*
X812957Y73542D01*
X812957Y76131D02*
X806283Y76131D01*
X797717Y77627D02*
X791043Y77627D01*
X797717Y77627D02*
X797717Y70953D01*
X791043Y70953D01*
X791043Y77627D01*
X791043Y73542D02*
X797717Y73542D01*
X797717Y76131D02*
X791043Y76131D01*
D28*
X670225Y84145D02*
X664535Y84145D01*
X664535Y97455D01*
X670225Y97455D01*
X670225Y84145D01*
X670225Y86461D02*
X664535Y86461D01*
X664535Y88777D02*
X670225Y88777D01*
X670225Y91093D02*
X664535Y91093D01*
X664535Y93409D02*
X670225Y93409D01*
X670225Y95725D02*
X664535Y95725D01*
X664535Y134945D02*
X670225Y134945D01*
X664535Y134945D02*
X664535Y148255D01*
X670225Y148255D01*
X670225Y134945D01*
X670225Y137261D02*
X664535Y137261D01*
X664535Y139577D02*
X670225Y139577D01*
X670225Y141893D02*
X664535Y141893D01*
X664535Y144209D02*
X670225Y144209D01*
X670225Y146525D02*
X664535Y146525D01*
X632125Y84145D02*
X626435Y84145D01*
X626435Y97455D01*
X632125Y97455D01*
X632125Y84145D01*
X632125Y86461D02*
X626435Y86461D01*
X626435Y88777D02*
X632125Y88777D01*
X632125Y91093D02*
X626435Y91093D01*
X626435Y93409D02*
X632125Y93409D01*
X632125Y95725D02*
X626435Y95725D01*
X626435Y134945D02*
X632125Y134945D01*
X626435Y134945D02*
X626435Y148255D01*
X632125Y148255D01*
X632125Y134945D01*
X632125Y137261D02*
X626435Y137261D01*
X626435Y139577D02*
X632125Y139577D01*
X632125Y141893D02*
X626435Y141893D01*
X626435Y144209D02*
X632125Y144209D01*
X632125Y146525D02*
X626435Y146525D01*
X791535Y148255D02*
X797225Y148255D01*
X797225Y134945D01*
X791535Y134945D01*
X791535Y148255D01*
X791535Y137261D02*
X797225Y137261D01*
X797225Y139577D02*
X791535Y139577D01*
X791535Y141893D02*
X797225Y141893D01*
X797225Y144209D02*
X791535Y144209D01*
X791535Y146525D02*
X797225Y146525D01*
X797225Y97455D02*
X791535Y97455D01*
X797225Y97455D02*
X797225Y84145D01*
X791535Y84145D01*
X791535Y97455D01*
X791535Y86461D02*
X797225Y86461D01*
X797225Y88777D02*
X791535Y88777D01*
X791535Y91093D02*
X797225Y91093D01*
X797225Y93409D02*
X791535Y93409D01*
X791535Y95725D02*
X797225Y95725D01*
X829635Y148255D02*
X835325Y148255D01*
X835325Y134945D01*
X829635Y134945D01*
X829635Y148255D01*
X829635Y137261D02*
X835325Y137261D01*
X835325Y139577D02*
X829635Y139577D01*
X829635Y141893D02*
X835325Y141893D01*
X835325Y144209D02*
X829635Y144209D01*
X829635Y146525D02*
X835325Y146525D01*
X835325Y97455D02*
X829635Y97455D01*
X835325Y97455D02*
X835325Y84145D01*
X829635Y84145D01*
X829635Y97455D01*
X829635Y86461D02*
X835325Y86461D01*
X835325Y88777D02*
X829635Y88777D01*
X829635Y91093D02*
X835325Y91093D01*
X835325Y93409D02*
X829635Y93409D01*
X829635Y95725D02*
X835325Y95725D01*
D23*
X207852Y114242D02*
X201868Y114242D01*
X207852Y114242D02*
X207852Y112258D01*
X201868Y112258D01*
X201868Y114242D01*
X201868Y107742D02*
X207852Y107742D01*
X207852Y105758D01*
X201868Y105758D01*
X201868Y107742D01*
X201868Y101242D02*
X207852Y101242D01*
X207852Y99258D01*
X201868Y99258D01*
X201868Y101242D01*
X201868Y94742D02*
X207852Y94742D01*
X207852Y92758D01*
X201868Y92758D01*
X201868Y94742D01*
X177852Y94742D02*
X171868Y94742D01*
X177852Y94742D02*
X177852Y92758D01*
X171868Y92758D01*
X171868Y94742D01*
X171868Y101242D02*
X177852Y101242D01*
X177852Y99258D01*
X171868Y99258D01*
X171868Y101242D01*
X171868Y107742D02*
X177852Y107742D01*
X177852Y105758D01*
X171868Y105758D01*
X171868Y107742D01*
X171868Y114242D02*
X177852Y114242D01*
X177852Y112258D01*
X171868Y112258D01*
X171868Y114242D01*
D24*
X188602Y104758D02*
X191118Y104758D01*
X191118Y102242D01*
X188602Y102242D01*
X188602Y104758D01*
D20*
X190657Y124293D02*
X183983Y124293D01*
X183983Y130967D01*
X190657Y130967D01*
X190657Y124293D01*
X190657Y126882D02*
X183983Y126882D01*
X183983Y129471D02*
X190657Y129471D01*
X199223Y124293D02*
X205897Y124293D01*
X199223Y124293D02*
X199223Y130967D01*
X205897Y130967D01*
X205897Y124293D01*
X205897Y126882D02*
X199223Y126882D01*
X199223Y129471D02*
X205897Y129471D01*
D25*
X358899Y104591D02*
X358899Y98549D01*
X358899Y104591D02*
X365941Y104591D01*
X365941Y98549D01*
X358899Y98549D01*
X358899Y100893D02*
X365941Y100893D01*
X365941Y103237D02*
X358899Y103237D01*
X358899Y85591D02*
X358899Y79549D01*
X358899Y85591D02*
X365941Y85591D01*
X365941Y79549D01*
X358899Y79549D01*
X358899Y81893D02*
X365941Y81893D01*
X365941Y84237D02*
X358899Y84237D01*
X337899Y89049D02*
X337899Y95091D01*
X344941Y95091D01*
X344941Y89049D01*
X337899Y89049D01*
X337899Y91393D02*
X344941Y91393D01*
X344941Y93737D02*
X337899Y93737D01*
D20*
X363815Y119537D02*
X370489Y119537D01*
X370489Y112863D01*
X363815Y112863D01*
X363815Y119537D01*
X363815Y115452D02*
X370489Y115452D01*
X370489Y118041D02*
X363815Y118041D01*
X355249Y119537D02*
X348575Y119537D01*
X355249Y119537D02*
X355249Y112863D01*
X348575Y112863D01*
X348575Y119537D01*
X348575Y115452D02*
X355249Y115452D01*
X355249Y118041D02*
X348575Y118041D01*
X328325Y83977D02*
X328325Y77303D01*
X321651Y77303D01*
X321651Y83977D01*
X328325Y83977D01*
X328325Y79892D02*
X321651Y79892D01*
X321651Y82481D02*
X328325Y82481D01*
X328325Y92543D02*
X328325Y99217D01*
X328325Y92543D02*
X321651Y92543D01*
X321651Y99217D01*
X328325Y99217D01*
X328325Y95132D02*
X321651Y95132D01*
X321651Y97721D02*
X328325Y97721D01*
X315625Y83977D02*
X315625Y77303D01*
X308951Y77303D01*
X308951Y83977D01*
X315625Y83977D01*
X315625Y79892D02*
X308951Y79892D01*
X308951Y82481D02*
X315625Y82481D01*
X315625Y92543D02*
X315625Y99217D01*
X315625Y92543D02*
X308951Y92543D01*
X308951Y99217D01*
X315625Y99217D01*
X315625Y95132D02*
X308951Y95132D01*
X308951Y97721D02*
X315625Y97721D01*
X371943Y133183D02*
X378617Y133183D01*
X371943Y133183D02*
X371943Y139857D01*
X378617Y139857D01*
X378617Y133183D01*
X378617Y135772D02*
X371943Y135772D01*
X371943Y138361D02*
X378617Y138361D01*
X387183Y133183D02*
X393857Y133183D01*
X387183Y133183D02*
X387183Y139857D01*
X393857Y139857D01*
X393857Y133183D01*
X393857Y135772D02*
X387183Y135772D01*
X387183Y138361D02*
X393857Y138361D01*
X337977Y151033D02*
X331303Y151033D01*
X337977Y151033D02*
X337977Y144359D01*
X331303Y144359D01*
X331303Y151033D01*
X331303Y146948D02*
X337977Y146948D01*
X337977Y149537D02*
X331303Y149537D01*
X322737Y151033D02*
X316063Y151033D01*
X322737Y151033D02*
X322737Y144359D01*
X316063Y144359D01*
X316063Y151033D01*
X316063Y146948D02*
X322737Y146948D01*
X322737Y149537D02*
X316063Y149537D01*
D29*
X58494Y145076D02*
X58494Y132324D01*
X58494Y145076D02*
X65246Y145076D01*
X65246Y132324D01*
X58494Y132324D01*
X58494Y134943D02*
X65246Y134943D01*
X65246Y137562D02*
X58494Y137562D01*
X58494Y140181D02*
X65246Y140181D01*
X65246Y142800D02*
X58494Y142800D01*
X93494Y145076D02*
X93494Y132324D01*
X93494Y145076D02*
X100246Y145076D01*
X100246Y132324D01*
X93494Y132324D01*
X93494Y134943D02*
X100246Y134943D01*
X100246Y137562D02*
X93494Y137562D01*
X93494Y140181D02*
X100246Y140181D01*
X100246Y142800D02*
X93494Y142800D01*
X93494Y100076D02*
X93494Y87324D01*
X93494Y100076D02*
X100246Y100076D01*
X100246Y87324D01*
X93494Y87324D01*
X93494Y89943D02*
X100246Y89943D01*
X100246Y92562D02*
X93494Y92562D01*
X93494Y95181D02*
X100246Y95181D01*
X100246Y97800D02*
X93494Y97800D01*
D20*
X484973Y97947D02*
X491647Y97947D01*
X491647Y91273D01*
X484973Y91273D01*
X484973Y97947D01*
X484973Y93862D02*
X491647Y93862D01*
X491647Y96451D02*
X484973Y96451D01*
X476407Y97947D02*
X469733Y97947D01*
X476407Y97947D02*
X476407Y91273D01*
X469733Y91273D01*
X469733Y97947D01*
X469733Y93862D02*
X476407Y93862D01*
X476407Y96451D02*
X469733Y96451D01*
X484973Y80167D02*
X491647Y80167D01*
X491647Y73493D01*
X484973Y73493D01*
X484973Y80167D01*
X484973Y76082D02*
X491647Y76082D01*
X491647Y78671D02*
X484973Y78671D01*
X476407Y80167D02*
X469733Y80167D01*
X476407Y80167D02*
X476407Y73493D01*
X469733Y73493D01*
X469733Y80167D01*
X469733Y76082D02*
X476407Y76082D01*
X476407Y78671D02*
X469733Y78671D01*
X611973Y126833D02*
X611973Y133507D01*
X618647Y133507D01*
X618647Y126833D01*
X611973Y126833D01*
X611973Y129422D02*
X618647Y129422D01*
X618647Y132011D02*
X611973Y132011D01*
X611973Y118267D02*
X611973Y111593D01*
X611973Y118267D02*
X618647Y118267D01*
X618647Y111593D01*
X611973Y111593D01*
X611973Y114182D02*
X618647Y114182D01*
X618647Y116771D02*
X611973Y116771D01*
X618647Y139533D02*
X618647Y146207D01*
X618647Y139533D02*
X611973Y139533D01*
X611973Y146207D01*
X618647Y146207D01*
X618647Y142122D02*
X611973Y142122D01*
X611973Y144711D02*
X618647Y144711D01*
X618647Y154773D02*
X618647Y161447D01*
X618647Y154773D02*
X611973Y154773D01*
X611973Y161447D01*
X618647Y161447D01*
X618647Y157362D02*
X611973Y157362D01*
X611973Y159951D02*
X618647Y159951D01*
D25*
X587241Y136649D02*
X581199Y136649D01*
X581199Y143691D01*
X587241Y143691D01*
X587241Y136649D01*
X587241Y138993D02*
X581199Y138993D01*
X581199Y141337D02*
X587241Y141337D01*
X587241Y143681D02*
X581199Y143681D01*
X600199Y136649D02*
X606241Y136649D01*
X600199Y136649D02*
X600199Y143691D01*
X606241Y143691D01*
X606241Y136649D01*
X606241Y138993D02*
X600199Y138993D01*
X600199Y141337D02*
X606241Y141337D01*
X606241Y143681D02*
X600199Y143681D01*
X596741Y115649D02*
X590699Y115649D01*
X590699Y122691D01*
X596741Y122691D01*
X596741Y115649D01*
X596741Y117993D02*
X590699Y117993D01*
X590699Y120337D02*
X596741Y120337D01*
X596741Y122681D02*
X590699Y122681D01*
D20*
X589437Y149693D02*
X582763Y149693D01*
X582763Y156367D01*
X589437Y156367D01*
X589437Y149693D01*
X589437Y152282D02*
X582763Y152282D01*
X582763Y154871D02*
X589437Y154871D01*
X598003Y149693D02*
X604677Y149693D01*
X598003Y149693D02*
X598003Y156367D01*
X604677Y156367D01*
X604677Y149693D01*
X604677Y152282D02*
X598003Y152282D01*
X598003Y154871D02*
X604677Y154871D01*
D28*
X747085Y84145D02*
X752775Y84145D01*
X747085Y84145D02*
X747085Y97455D01*
X752775Y97455D01*
X752775Y84145D01*
X752775Y86461D02*
X747085Y86461D01*
X747085Y88777D02*
X752775Y88777D01*
X752775Y91093D02*
X747085Y91093D01*
X747085Y93409D02*
X752775Y93409D01*
X752775Y95725D02*
X747085Y95725D01*
X747085Y134945D02*
X752775Y134945D01*
X747085Y134945D02*
X747085Y148255D01*
X752775Y148255D01*
X752775Y134945D01*
X752775Y137261D02*
X747085Y137261D01*
X747085Y139577D02*
X752775Y139577D01*
X752775Y141893D02*
X747085Y141893D01*
X747085Y144209D02*
X752775Y144209D01*
X752775Y146525D02*
X747085Y146525D01*
X714675Y84145D02*
X708985Y84145D01*
X708985Y97455D01*
X714675Y97455D01*
X714675Y84145D01*
X714675Y86461D02*
X708985Y86461D01*
X708985Y88777D02*
X714675Y88777D01*
X714675Y91093D02*
X708985Y91093D01*
X708985Y93409D02*
X714675Y93409D01*
X714675Y95725D02*
X708985Y95725D01*
X708985Y134945D02*
X714675Y134945D01*
X708985Y134945D02*
X708985Y148255D01*
X714675Y148255D01*
X714675Y134945D01*
X714675Y137261D02*
X708985Y137261D01*
X708985Y139577D02*
X714675Y139577D01*
X714675Y141893D02*
X708985Y141893D01*
X708985Y144209D02*
X714675Y144209D01*
X714675Y146525D02*
X708985Y146525D01*
D20*
X698657Y113187D02*
X691983Y113187D01*
X698657Y113187D02*
X698657Y106513D01*
X691983Y106513D01*
X691983Y113187D01*
X691983Y109102D02*
X698657Y109102D01*
X698657Y111691D02*
X691983Y111691D01*
X683417Y113187D02*
X676743Y113187D01*
X683417Y113187D02*
X683417Y106513D01*
X676743Y106513D01*
X676743Y113187D01*
X676743Y109102D02*
X683417Y109102D01*
X683417Y111691D02*
X676743Y111691D01*
X691983Y133507D02*
X698657Y133507D01*
X698657Y126833D01*
X691983Y126833D01*
X691983Y133507D01*
X691983Y129422D02*
X698657Y129422D01*
X698657Y132011D02*
X691983Y132011D01*
X683417Y133507D02*
X676743Y133507D01*
X683417Y133507D02*
X683417Y126833D01*
X676743Y126833D01*
X676743Y133507D01*
X676743Y129422D02*
X683417Y129422D01*
X683417Y132011D02*
X676743Y132011D01*
D30*
X912490Y116200D03*
D31*
X530161Y155899D02*
X500459Y155899D01*
X500459Y157101D01*
X530161Y157101D01*
X530161Y155899D01*
X530161Y149699D02*
X500459Y149699D01*
X500459Y150901D01*
X530161Y150901D01*
X530161Y149699D01*
X530161Y143499D02*
X500459Y143499D01*
X500459Y144701D01*
X530161Y144701D01*
X530161Y143499D01*
X530161Y137299D02*
X500459Y137299D01*
X500459Y138501D01*
X530161Y138501D01*
X530161Y137299D01*
X530161Y131099D02*
X500459Y131099D01*
X500459Y132301D01*
X530161Y132301D01*
X530161Y131099D01*
X530161Y124899D02*
X500459Y124899D01*
X500459Y126101D01*
X530161Y126101D01*
X530161Y124899D01*
X530161Y118699D02*
X500459Y118699D01*
X500459Y119901D01*
X530161Y119901D01*
X530161Y118699D01*
X530161Y112499D02*
X500459Y112499D01*
X500459Y113701D01*
X530161Y113701D01*
X530161Y112499D01*
X530161Y106299D02*
X500459Y106299D01*
X500459Y107501D01*
X530161Y107501D01*
X530161Y106299D01*
X530161Y100099D02*
X500459Y100099D01*
X500459Y101301D01*
X530161Y101301D01*
X530161Y100099D01*
X530161Y93899D02*
X500459Y93899D01*
X500459Y95101D01*
X530161Y95101D01*
X530161Y93899D01*
X530161Y87699D02*
X500459Y87699D01*
X500459Y88901D01*
X530161Y88901D01*
X530161Y87699D01*
X530161Y81499D02*
X500459Y81499D01*
X500459Y82701D01*
X530161Y82701D01*
X530161Y81499D01*
X530161Y75299D02*
X500459Y75299D01*
X500459Y76501D01*
X530161Y76501D01*
X530161Y75299D01*
D20*
X849787Y105243D02*
X849787Y111917D01*
X849787Y105243D02*
X843113Y105243D01*
X843113Y111917D01*
X849787Y111917D01*
X849787Y107832D02*
X843113Y107832D01*
X843113Y110421D02*
X849787Y110421D01*
X849787Y120483D02*
X849787Y127157D01*
X849787Y120483D02*
X843113Y120483D01*
X843113Y127157D01*
X849787Y127157D01*
X849787Y123072D02*
X843113Y123072D01*
X843113Y125661D02*
X849787Y125661D01*
X862487Y111917D02*
X862487Y105243D01*
X855813Y105243D01*
X855813Y111917D01*
X862487Y111917D01*
X862487Y107832D02*
X855813Y107832D01*
X855813Y110421D02*
X862487Y110421D01*
X862487Y120483D02*
X862487Y127157D01*
X862487Y120483D02*
X855813Y120483D01*
X855813Y127157D01*
X862487Y127157D01*
X862487Y123072D02*
X855813Y123072D01*
X855813Y125661D02*
X862487Y125661D01*
D32*
X943638Y133312D02*
X943638Y144808D01*
X943638Y133312D02*
X932142Y133312D01*
X932142Y144808D01*
X943638Y144808D01*
X943638Y137351D02*
X932142Y137351D01*
X932142Y141390D02*
X943638Y141390D01*
X892838Y144808D02*
X892838Y133312D01*
X881342Y133312D01*
X881342Y144808D01*
X892838Y144808D01*
X892838Y137351D02*
X881342Y137351D01*
X881342Y141390D02*
X892838Y141390D01*
X943638Y99088D02*
X943638Y87592D01*
X932142Y87592D01*
X932142Y99088D01*
X943638Y99088D01*
X943638Y91631D02*
X932142Y91631D01*
X932142Y95670D02*
X943638Y95670D01*
X892838Y99088D02*
X892838Y87592D01*
X881342Y87592D01*
X881342Y99088D01*
X892838Y99088D01*
X892838Y91631D02*
X881342Y91631D01*
X881342Y95670D02*
X892838Y95670D01*
D33*
X239140Y116200D03*
X289940Y116200D03*
X334140Y116200D03*
X384940Y116200D03*
X887090Y116200D03*
X937890Y116200D03*
D34*
X753080Y154325D02*
X750336Y154325D01*
X750336Y161895D01*
X753080Y161895D01*
X753080Y154325D01*
X753080Y156063D02*
X750336Y156063D01*
X750336Y157801D02*
X753080Y157801D01*
X753080Y159539D02*
X750336Y159539D01*
X750336Y161277D02*
X753080Y161277D01*
X756940Y154325D02*
X759684Y154325D01*
X756940Y154325D02*
X756940Y161895D01*
X759684Y161895D01*
X759684Y154325D01*
X759684Y156063D02*
X756940Y156063D01*
X756940Y157801D02*
X759684Y157801D01*
X759684Y159539D02*
X756940Y159539D01*
X756940Y161277D02*
X759684Y161277D01*
D35*
X884550Y156840D03*
D20*
X773783Y345083D02*
X773783Y351757D01*
X780457Y351757D01*
X780457Y345083D01*
X773783Y345083D01*
X773783Y347672D02*
X780457Y347672D01*
X780457Y350261D02*
X773783Y350261D01*
X773783Y336517D02*
X773783Y329843D01*
X773783Y336517D02*
X780457Y336517D01*
X780457Y329843D01*
X773783Y329843D01*
X773783Y332432D02*
X780457Y332432D01*
X780457Y335021D02*
X773783Y335021D01*
X165453Y388263D02*
X165453Y394937D01*
X172127Y394937D01*
X172127Y388263D01*
X165453Y388263D01*
X165453Y390852D02*
X172127Y390852D01*
X172127Y393441D02*
X165453Y393441D01*
X165453Y379697D02*
X165453Y373023D01*
X165453Y379697D02*
X172127Y379697D01*
X172127Y373023D01*
X165453Y373023D01*
X165453Y375612D02*
X172127Y375612D01*
X172127Y378201D02*
X165453Y378201D01*
D36*
X134168Y381462D02*
X134168Y373938D01*
X134168Y381462D02*
X139692Y381462D01*
X139692Y373938D01*
X134168Y373938D01*
X134168Y379623D02*
X139692Y379623D01*
X152168Y358462D02*
X152168Y350938D01*
X152168Y358462D02*
X157692Y358462D01*
X157692Y350938D01*
X152168Y350938D01*
X152168Y356623D02*
X157692Y356623D01*
X134168Y358462D02*
X134168Y350938D01*
X134168Y358462D02*
X139692Y358462D01*
X139692Y350938D01*
X134168Y350938D01*
X134168Y356623D02*
X139692Y356623D01*
X152168Y373938D02*
X152168Y381462D01*
X157692Y381462D01*
X157692Y373938D01*
X152168Y373938D01*
X152168Y379623D02*
X157692Y379623D01*
D20*
X172127Y344137D02*
X172127Y337463D01*
X165453Y337463D01*
X165453Y344137D01*
X172127Y344137D01*
X172127Y340052D02*
X165453Y340052D01*
X165453Y342641D02*
X172127Y342641D01*
X172127Y352703D02*
X172127Y359377D01*
X172127Y352703D02*
X165453Y352703D01*
X165453Y359377D01*
X172127Y359377D01*
X172127Y355292D02*
X165453Y355292D01*
X165453Y357881D02*
X172127Y357881D01*
X796643Y378427D02*
X803317Y378427D01*
X803317Y371753D01*
X796643Y371753D01*
X796643Y378427D01*
X796643Y374342D02*
X803317Y374342D01*
X803317Y376931D02*
X796643Y376931D01*
X788077Y378427D02*
X781403Y378427D01*
X788077Y378427D02*
X788077Y371753D01*
X781403Y371753D01*
X781403Y378427D01*
X781403Y374342D02*
X788077Y374342D01*
X788077Y376931D02*
X781403Y376931D01*
X796643Y391127D02*
X803317Y391127D01*
X803317Y384453D01*
X796643Y384453D01*
X796643Y391127D01*
X796643Y387042D02*
X803317Y387042D01*
X803317Y389631D02*
X796643Y389631D01*
X788077Y391127D02*
X781403Y391127D01*
X788077Y391127D02*
X788077Y384453D01*
X781403Y384453D01*
X781403Y391127D01*
X781403Y387042D02*
X788077Y387042D01*
X788077Y389631D02*
X781403Y389631D01*
X156887Y403503D02*
X150213Y403503D01*
X150213Y410177D01*
X156887Y410177D01*
X156887Y403503D01*
X156887Y406092D02*
X150213Y406092D01*
X150213Y408681D02*
X156887Y408681D01*
X165453Y403503D02*
X172127Y403503D01*
X165453Y403503D02*
X165453Y410177D01*
X172127Y410177D01*
X172127Y403503D01*
X172127Y406092D02*
X165453Y406092D01*
X165453Y408681D02*
X172127Y408681D01*
X301343Y337533D02*
X308017Y337533D01*
X308017Y330859D01*
X301343Y330859D01*
X301343Y337533D01*
X301343Y333448D02*
X308017Y333448D01*
X308017Y336037D02*
X301343Y336037D01*
X292777Y337533D02*
X286103Y337533D01*
X292777Y337533D02*
X292777Y330859D01*
X286103Y330859D01*
X286103Y337533D01*
X286103Y333448D02*
X292777Y333448D01*
X292777Y336037D02*
X286103Y336037D01*
X172127Y328897D02*
X165453Y328897D01*
X172127Y328897D02*
X172127Y322223D01*
X165453Y322223D01*
X165453Y328897D01*
X165453Y324812D02*
X172127Y324812D01*
X172127Y327401D02*
X165453Y327401D01*
X156887Y328897D02*
X150213Y328897D01*
X156887Y328897D02*
X156887Y322223D01*
X150213Y322223D01*
X150213Y328897D01*
X150213Y324812D02*
X156887Y324812D01*
X156887Y327401D02*
X150213Y327401D01*
D37*
X251269Y328331D02*
X251269Y334069D01*
X251269Y328331D02*
X250531Y328331D01*
X250531Y334069D01*
X251269Y334069D01*
X251269Y330963D02*
X250531Y330963D01*
X250531Y333595D02*
X251269Y333595D01*
X246269Y334069D02*
X246269Y328331D01*
X245531Y328331D01*
X245531Y334069D01*
X246269Y334069D01*
X246269Y330963D02*
X245531Y330963D01*
X245531Y333595D02*
X246269Y333595D01*
X241269Y334069D02*
X241269Y328331D01*
X240531Y328331D01*
X240531Y334069D01*
X241269Y334069D01*
X241269Y330963D02*
X240531Y330963D01*
X240531Y333595D02*
X241269Y333595D01*
X236269Y334069D02*
X236269Y328331D01*
X235531Y328331D01*
X235531Y334069D01*
X236269Y334069D01*
X236269Y330963D02*
X235531Y330963D01*
X235531Y333595D02*
X236269Y333595D01*
X231269Y334069D02*
X231269Y328331D01*
X230531Y328331D01*
X230531Y334069D01*
X231269Y334069D01*
X231269Y330963D02*
X230531Y330963D01*
X230531Y333595D02*
X231269Y333595D01*
X226269Y334069D02*
X226269Y328331D01*
X225531Y328331D01*
X225531Y334069D01*
X226269Y334069D01*
X226269Y330963D02*
X225531Y330963D01*
X225531Y333595D02*
X226269Y333595D01*
X221269Y334069D02*
X221269Y328331D01*
X220531Y328331D01*
X220531Y334069D01*
X221269Y334069D01*
X221269Y330963D02*
X220531Y330963D01*
X220531Y333595D02*
X221269Y333595D01*
X216269Y334069D02*
X216269Y328331D01*
X215531Y328331D01*
X215531Y334069D01*
X216269Y334069D01*
X216269Y330963D02*
X215531Y330963D01*
X215531Y333595D02*
X216269Y333595D01*
X211269Y334069D02*
X211269Y328331D01*
X210531Y328331D01*
X210531Y334069D01*
X211269Y334069D01*
X211269Y330963D02*
X210531Y330963D01*
X210531Y333595D02*
X211269Y333595D01*
X206269Y334069D02*
X206269Y328331D01*
X205531Y328331D01*
X205531Y334069D01*
X206269Y334069D01*
X206269Y330963D02*
X205531Y330963D01*
X205531Y333595D02*
X206269Y333595D01*
X201269Y334069D02*
X201269Y328331D01*
X200531Y328331D01*
X200531Y334069D01*
X201269Y334069D01*
X201269Y330963D02*
X200531Y330963D01*
X200531Y333595D02*
X201269Y333595D01*
X196269Y334069D02*
X196269Y328331D01*
X195531Y328331D01*
X195531Y334069D01*
X196269Y334069D01*
X196269Y330963D02*
X195531Y330963D01*
X195531Y333595D02*
X196269Y333595D01*
D38*
X196841Y339641D02*
X249959Y339641D01*
X196841Y339641D02*
X196841Y392759D01*
X249959Y392759D01*
X249959Y339641D01*
X249959Y342861D02*
X196841Y342861D01*
X196841Y346081D02*
X249959Y346081D01*
X249959Y349301D02*
X196841Y349301D01*
X196841Y352521D02*
X249959Y352521D01*
X249959Y355741D02*
X196841Y355741D01*
X196841Y358961D02*
X249959Y358961D01*
X249959Y362181D02*
X196841Y362181D01*
X196841Y365401D02*
X249959Y365401D01*
X249959Y368621D02*
X196841Y368621D01*
X196841Y371841D02*
X249959Y371841D01*
X249959Y375061D02*
X196841Y375061D01*
X196841Y378281D02*
X249959Y378281D01*
X249959Y381501D02*
X196841Y381501D01*
X196841Y384721D02*
X249959Y384721D01*
X249959Y387941D02*
X196841Y387941D01*
X196841Y391161D02*
X249959Y391161D01*
D37*
X191269Y338331D02*
X185531Y338331D01*
X185531Y339069D01*
X191269Y339069D01*
X191269Y338331D01*
X191269Y343331D02*
X185531Y343331D01*
X185531Y344069D01*
X191269Y344069D01*
X191269Y343331D01*
X191269Y348331D02*
X185531Y348331D01*
X185531Y349069D01*
X191269Y349069D01*
X191269Y348331D01*
X191269Y353331D02*
X185531Y353331D01*
X185531Y354069D01*
X191269Y354069D01*
X191269Y353331D01*
X191269Y358331D02*
X185531Y358331D01*
X185531Y359069D01*
X191269Y359069D01*
X191269Y358331D01*
X191269Y363331D02*
X185531Y363331D01*
X185531Y364069D01*
X191269Y364069D01*
X191269Y363331D01*
X191269Y368331D02*
X185531Y368331D01*
X185531Y369069D01*
X191269Y369069D01*
X191269Y368331D01*
X191269Y373331D02*
X185531Y373331D01*
X185531Y374069D01*
X191269Y374069D01*
X191269Y373331D01*
X191269Y378331D02*
X185531Y378331D01*
X185531Y379069D01*
X191269Y379069D01*
X191269Y378331D01*
X191269Y383331D02*
X185531Y383331D01*
X185531Y384069D01*
X191269Y384069D01*
X191269Y383331D01*
X191269Y388331D02*
X185531Y388331D01*
X185531Y389069D01*
X191269Y389069D01*
X191269Y388331D01*
X191269Y393331D02*
X185531Y393331D01*
X185531Y394069D01*
X191269Y394069D01*
X191269Y393331D01*
X195531Y398331D02*
X195531Y404069D01*
X196269Y404069D01*
X196269Y398331D01*
X195531Y398331D01*
X195531Y400963D02*
X196269Y400963D01*
X196269Y403595D02*
X195531Y403595D01*
X200531Y404069D02*
X200531Y398331D01*
X200531Y404069D02*
X201269Y404069D01*
X201269Y398331D01*
X200531Y398331D01*
X200531Y400963D02*
X201269Y400963D01*
X201269Y403595D02*
X200531Y403595D01*
X205531Y404069D02*
X205531Y398331D01*
X205531Y404069D02*
X206269Y404069D01*
X206269Y398331D01*
X205531Y398331D01*
X205531Y400963D02*
X206269Y400963D01*
X206269Y403595D02*
X205531Y403595D01*
X210531Y404069D02*
X210531Y398331D01*
X210531Y404069D02*
X211269Y404069D01*
X211269Y398331D01*
X210531Y398331D01*
X210531Y400963D02*
X211269Y400963D01*
X211269Y403595D02*
X210531Y403595D01*
X215531Y404069D02*
X215531Y398331D01*
X215531Y404069D02*
X216269Y404069D01*
X216269Y398331D01*
X215531Y398331D01*
X215531Y400963D02*
X216269Y400963D01*
X216269Y403595D02*
X215531Y403595D01*
X220531Y404069D02*
X220531Y398331D01*
X220531Y404069D02*
X221269Y404069D01*
X221269Y398331D01*
X220531Y398331D01*
X220531Y400963D02*
X221269Y400963D01*
X221269Y403595D02*
X220531Y403595D01*
X225531Y404069D02*
X225531Y398331D01*
X225531Y404069D02*
X226269Y404069D01*
X226269Y398331D01*
X225531Y398331D01*
X225531Y400963D02*
X226269Y400963D01*
X226269Y403595D02*
X225531Y403595D01*
X230531Y404069D02*
X230531Y398331D01*
X230531Y404069D02*
X231269Y404069D01*
X231269Y398331D01*
X230531Y398331D01*
X230531Y400963D02*
X231269Y400963D01*
X231269Y403595D02*
X230531Y403595D01*
X235531Y404069D02*
X235531Y398331D01*
X235531Y404069D02*
X236269Y404069D01*
X236269Y398331D01*
X235531Y398331D01*
X235531Y400963D02*
X236269Y400963D01*
X236269Y403595D02*
X235531Y403595D01*
X240531Y404069D02*
X240531Y398331D01*
X240531Y404069D02*
X241269Y404069D01*
X241269Y398331D01*
X240531Y398331D01*
X240531Y400963D02*
X241269Y400963D01*
X241269Y403595D02*
X240531Y403595D01*
X245531Y404069D02*
X245531Y398331D01*
X245531Y404069D02*
X246269Y404069D01*
X246269Y398331D01*
X245531Y398331D01*
X245531Y400963D02*
X246269Y400963D01*
X246269Y403595D02*
X245531Y403595D01*
X250531Y404069D02*
X250531Y398331D01*
X250531Y404069D02*
X251269Y404069D01*
X251269Y398331D01*
X250531Y398331D01*
X250531Y400963D02*
X251269Y400963D01*
X251269Y403595D02*
X250531Y403595D01*
X255531Y394069D02*
X261269Y394069D01*
X261269Y393331D01*
X255531Y393331D01*
X255531Y394069D01*
X255531Y389069D02*
X261269Y389069D01*
X261269Y388331D01*
X255531Y388331D01*
X255531Y389069D01*
X255531Y384069D02*
X261269Y384069D01*
X261269Y383331D01*
X255531Y383331D01*
X255531Y384069D01*
X255531Y379069D02*
X261269Y379069D01*
X261269Y378331D01*
X255531Y378331D01*
X255531Y379069D01*
X255531Y374069D02*
X261269Y374069D01*
X261269Y373331D01*
X255531Y373331D01*
X255531Y374069D01*
X255531Y369069D02*
X261269Y369069D01*
X261269Y368331D01*
X255531Y368331D01*
X255531Y369069D01*
X255531Y364069D02*
X261269Y364069D01*
X261269Y363331D01*
X255531Y363331D01*
X255531Y364069D01*
X255531Y359069D02*
X261269Y359069D01*
X261269Y358331D01*
X255531Y358331D01*
X255531Y359069D01*
X255531Y354069D02*
X261269Y354069D01*
X261269Y353331D01*
X255531Y353331D01*
X255531Y354069D01*
X255531Y349069D02*
X261269Y349069D01*
X261269Y348331D01*
X255531Y348331D01*
X255531Y349069D01*
X255531Y344069D02*
X261269Y344069D01*
X261269Y343331D01*
X255531Y343331D01*
X255531Y344069D01*
X255531Y339069D02*
X261269Y339069D01*
X261269Y338331D01*
X255531Y338331D01*
X255531Y339069D01*
X562779Y352281D02*
X562779Y355819D01*
X562779Y352281D02*
X562041Y352281D01*
X562041Y355819D01*
X562779Y355819D01*
X562779Y354913D02*
X562041Y354913D01*
X557779Y355819D02*
X557779Y352281D01*
X557041Y352281D01*
X557041Y355819D01*
X557779Y355819D01*
X557779Y354913D02*
X557041Y354913D01*
X552779Y355819D02*
X552779Y352281D01*
X552041Y352281D01*
X552041Y355819D01*
X552779Y355819D01*
X552779Y354913D02*
X552041Y354913D01*
X547029Y358331D02*
X543491Y358331D01*
X543491Y359069D01*
X547029Y359069D01*
X547029Y358331D01*
X547029Y363331D02*
X543491Y363331D01*
X543491Y364069D01*
X547029Y364069D01*
X547029Y363331D01*
X547029Y368331D02*
X543491Y368331D01*
X543491Y369069D01*
X547029Y369069D01*
X547029Y368331D01*
X547029Y373331D02*
X543491Y373331D01*
X543491Y374069D01*
X547029Y374069D01*
X547029Y373331D01*
X552041Y376581D02*
X552041Y380119D01*
X552779Y380119D01*
X552779Y376581D01*
X552041Y376581D01*
X552041Y379213D02*
X552779Y379213D01*
X557041Y380119D02*
X557041Y376581D01*
X557041Y380119D02*
X557779Y380119D01*
X557779Y376581D01*
X557041Y376581D01*
X557041Y379213D02*
X557779Y379213D01*
X562041Y380119D02*
X562041Y376581D01*
X562041Y380119D02*
X562779Y380119D01*
X562779Y376581D01*
X562041Y376581D01*
X562041Y379213D02*
X562779Y379213D01*
X567791Y374069D02*
X571329Y374069D01*
X571329Y373331D01*
X567791Y373331D01*
X567791Y374069D01*
X567791Y369069D02*
X571329Y369069D01*
X571329Y368331D01*
X567791Y368331D01*
X567791Y369069D01*
X567791Y364069D02*
X571329Y364069D01*
X571329Y363331D01*
X567791Y363331D01*
X567791Y364069D01*
X567791Y359069D02*
X571329Y359069D01*
X571329Y358331D01*
X567791Y358331D01*
X567791Y359069D01*
D39*
X563188Y360422D02*
X563188Y371978D01*
X563188Y360422D02*
X551632Y360422D01*
X551632Y371978D01*
X563188Y371978D01*
X563188Y363701D02*
X551632Y363701D01*
X551632Y366980D02*
X563188Y366980D01*
X563188Y370259D02*
X551632Y370259D01*
D40*
X878040Y359180D02*
X878040Y358220D01*
X878040Y359180D02*
X886200Y359180D01*
X886200Y358220D01*
X878040Y358220D01*
X878040Y363220D02*
X878040Y364180D01*
X886200Y364180D01*
X886200Y363220D01*
X878040Y363220D01*
D41*
X878973Y334897D02*
X878973Y333003D01*
X878973Y334897D02*
X885267Y334897D01*
X885267Y333003D01*
X878973Y333003D01*
X878973Y340753D02*
X878973Y342647D01*
X885267Y342647D01*
X885267Y340753D01*
X878973Y340753D01*
D40*
X878040Y348220D02*
X878040Y349180D01*
X886200Y349180D01*
X886200Y348220D01*
X878040Y348220D01*
X878040Y353220D02*
X878040Y354180D01*
X886200Y354180D01*
X886200Y353220D01*
X878040Y353220D01*
X886200Y373220D02*
X886200Y374180D01*
X886200Y373220D02*
X878040Y373220D01*
X878040Y374180D01*
X886200Y374180D01*
X886200Y369180D02*
X886200Y368220D01*
X878040Y368220D01*
X878040Y369180D01*
X886200Y369180D01*
D41*
X885267Y397503D02*
X885267Y399397D01*
X885267Y397503D02*
X878973Y397503D01*
X878973Y399397D01*
X885267Y399397D01*
X885267Y391647D02*
X885267Y389753D01*
X878973Y389753D01*
X878973Y391647D01*
X885267Y391647D01*
D40*
X886200Y384180D02*
X886200Y383220D01*
X878040Y383220D01*
X878040Y384180D01*
X886200Y384180D01*
X886200Y379180D02*
X886200Y378220D01*
X878040Y378220D01*
X878040Y379180D01*
X886200Y379180D01*
D21*
X893170Y395100D03*
X893170Y337300D03*
D20*
X515027Y384453D02*
X508353Y384453D01*
X508353Y391127D01*
X515027Y391127D01*
X515027Y384453D01*
X515027Y387042D02*
X508353Y387042D01*
X508353Y389631D02*
X515027Y389631D01*
X523593Y384453D02*
X530267Y384453D01*
X523593Y384453D02*
X523593Y391127D01*
X530267Y391127D01*
X530267Y384453D01*
X530267Y387042D02*
X523593Y387042D01*
X523593Y389631D02*
X530267Y389631D01*
X515027Y371753D02*
X508353Y371753D01*
X508353Y378427D01*
X515027Y378427D01*
X515027Y371753D01*
X515027Y374342D02*
X508353Y374342D01*
X508353Y376931D02*
X515027Y376931D01*
X523593Y371753D02*
X530267Y371753D01*
X523593Y371753D02*
X523593Y378427D01*
X530267Y378427D01*
X530267Y371753D01*
X530267Y374342D02*
X523593Y374342D01*
X523593Y376931D02*
X530267Y376931D01*
X515027Y359053D02*
X508353Y359053D01*
X508353Y365727D01*
X515027Y365727D01*
X515027Y359053D01*
X515027Y361642D02*
X508353Y361642D01*
X508353Y364231D02*
X515027Y364231D01*
X523593Y359053D02*
X530267Y359053D01*
X523593Y359053D02*
X523593Y365727D01*
X530267Y365727D01*
X530267Y359053D01*
X530267Y361642D02*
X523593Y361642D01*
X523593Y364231D02*
X530267Y364231D01*
X524863Y347947D02*
X524863Y341273D01*
X524863Y347947D02*
X531537Y347947D01*
X531537Y341273D01*
X524863Y341273D01*
X524863Y343862D02*
X531537Y343862D01*
X531537Y346451D02*
X524863Y346451D01*
X524863Y332707D02*
X524863Y326033D01*
X524863Y332707D02*
X531537Y332707D01*
X531537Y326033D01*
X524863Y326033D01*
X524863Y328622D02*
X531537Y328622D01*
X531537Y331211D02*
X524863Y331211D01*
X507083Y341273D02*
X507083Y347947D01*
X513757Y347947D01*
X513757Y341273D01*
X507083Y341273D01*
X507083Y343862D02*
X513757Y343862D01*
X513757Y346451D02*
X507083Y346451D01*
X507083Y332707D02*
X507083Y326033D01*
X507083Y332707D02*
X513757Y332707D01*
X513757Y326033D01*
X507083Y326033D01*
X507083Y328622D02*
X513757Y328622D01*
X513757Y331211D02*
X507083Y331211D01*
X584553Y355243D02*
X584553Y361917D01*
X591227Y361917D01*
X591227Y355243D01*
X584553Y355243D01*
X584553Y357832D02*
X591227Y357832D01*
X591227Y360421D02*
X584553Y360421D01*
X584553Y346677D02*
X584553Y340003D01*
X584553Y346677D02*
X591227Y346677D01*
X591227Y340003D01*
X584553Y340003D01*
X584553Y342592D02*
X591227Y342592D01*
X591227Y345181D02*
X584553Y345181D01*
X591227Y367943D02*
X591227Y374617D01*
X591227Y367943D02*
X584553Y367943D01*
X584553Y374617D01*
X591227Y374617D01*
X591227Y370532D02*
X584553Y370532D01*
X584553Y373121D02*
X591227Y373121D01*
X591227Y383183D02*
X591227Y389857D01*
X591227Y383183D02*
X584553Y383183D01*
X584553Y389857D01*
X591227Y389857D01*
X591227Y385772D02*
X584553Y385772D01*
X584553Y388361D02*
X591227Y388361D01*
X349927Y345083D02*
X343253Y345083D01*
X343253Y351757D01*
X349927Y351757D01*
X349927Y345083D01*
X349927Y347672D02*
X343253Y347672D01*
X343253Y350261D02*
X349927Y350261D01*
X358493Y345083D02*
X365167Y345083D01*
X358493Y345083D02*
X358493Y351757D01*
X365167Y351757D01*
X365167Y345083D01*
X365167Y347672D02*
X358493Y347672D01*
X358493Y350261D02*
X365167Y350261D01*
X449933Y379373D02*
X449933Y386047D01*
X456607Y386047D01*
X456607Y379373D01*
X449933Y379373D01*
X449933Y381962D02*
X456607Y381962D01*
X456607Y384551D02*
X449933Y384551D01*
X449933Y370807D02*
X449933Y364133D01*
X449933Y370807D02*
X456607Y370807D01*
X456607Y364133D01*
X449933Y364133D01*
X449933Y366722D02*
X456607Y366722D01*
X456607Y369311D02*
X449933Y369311D01*
X390567Y370807D02*
X390567Y364133D01*
X383893Y364133D01*
X383893Y370807D01*
X390567Y370807D01*
X390567Y366722D02*
X383893Y366722D01*
X383893Y369311D02*
X390567Y369311D01*
X390567Y379373D02*
X390567Y386047D01*
X390567Y379373D02*
X383893Y379373D01*
X383893Y386047D01*
X390567Y386047D01*
X390567Y381962D02*
X383893Y381962D01*
X383893Y384551D02*
X390567Y384551D01*
X375327Y370807D02*
X375327Y364133D01*
X368653Y364133D01*
X368653Y370807D01*
X375327Y370807D01*
X375327Y366722D02*
X368653Y366722D01*
X368653Y369311D02*
X375327Y369311D01*
X375327Y379373D02*
X375327Y386047D01*
X375327Y379373D02*
X368653Y379373D01*
X368653Y386047D01*
X375327Y386047D01*
X375327Y381962D02*
X368653Y381962D01*
X368653Y384551D02*
X375327Y384551D01*
D42*
X435420Y383659D02*
X435420Y385521D01*
X443782Y385521D01*
X443782Y383659D01*
X435420Y383659D01*
X435420Y376021D02*
X435420Y374159D01*
X435420Y376021D02*
X443782Y376021D01*
X443782Y374159D01*
X435420Y374159D01*
X435420Y366521D02*
X435420Y364659D01*
X435420Y366521D02*
X443782Y366521D01*
X443782Y364659D01*
X435420Y364659D01*
X409418Y364659D02*
X409418Y366521D01*
X417780Y366521D01*
X417780Y364659D01*
X409418Y364659D01*
X409418Y383659D02*
X409418Y385521D01*
X417780Y385521D01*
X417780Y383659D01*
X409418Y383659D01*
X417780Y376021D02*
X417780Y374159D01*
X409418Y374159D01*
X409418Y376021D01*
X417780Y376021D01*
D43*
X474248Y378923D02*
X474248Y386497D01*
X485632Y386497D01*
X485632Y378923D01*
X474248Y378923D01*
X474248Y381862D02*
X485632Y381862D01*
X485632Y384801D02*
X474248Y384801D01*
X474248Y368717D02*
X474248Y361143D01*
X474248Y368717D02*
X485632Y368717D01*
X485632Y361143D01*
X474248Y361143D01*
X474248Y364082D02*
X485632Y364082D01*
X485632Y367021D02*
X474248Y367021D01*
D20*
X796643Y365727D02*
X803317Y365727D01*
X803317Y359053D01*
X796643Y359053D01*
X796643Y365727D01*
X796643Y361642D02*
X803317Y361642D01*
X803317Y364231D02*
X796643Y364231D01*
X788077Y365727D02*
X781403Y365727D01*
X788077Y365727D02*
X788077Y359053D01*
X781403Y359053D01*
X781403Y365727D01*
X781403Y361642D02*
X788077Y361642D01*
X788077Y364231D02*
X781403Y364231D01*
X796643Y403827D02*
X803317Y403827D01*
X803317Y397153D01*
X796643Y397153D01*
X796643Y403827D01*
X796643Y399742D02*
X803317Y399742D01*
X803317Y402331D02*
X796643Y402331D01*
X788077Y403827D02*
X781403Y403827D01*
X788077Y403827D02*
X788077Y397153D01*
X781403Y397153D01*
X781403Y403827D01*
X781403Y399742D02*
X788077Y399742D01*
X788077Y402331D02*
X781403Y402331D01*
X493113Y347947D02*
X493113Y341273D01*
X493113Y347947D02*
X499787Y347947D01*
X499787Y341273D01*
X493113Y341273D01*
X493113Y343862D02*
X499787Y343862D01*
X499787Y346451D02*
X493113Y346451D01*
X493113Y332707D02*
X493113Y326033D01*
X493113Y332707D02*
X499787Y332707D01*
X499787Y326033D01*
X493113Y326033D01*
X493113Y328622D02*
X499787Y328622D01*
X499787Y331211D02*
X493113Y331211D01*
D25*
X447831Y347939D02*
X440789Y347939D01*
X440789Y353981D01*
X447831Y353981D01*
X447831Y347939D01*
X447831Y350283D02*
X440789Y350283D01*
X440789Y352627D02*
X447831Y352627D01*
X463789Y347939D02*
X470831Y347939D01*
X463789Y347939D02*
X463789Y353981D01*
X470831Y353981D01*
X470831Y347939D01*
X470831Y350283D02*
X463789Y350283D01*
X463789Y352627D02*
X470831Y352627D01*
D43*
X450707Y322408D02*
X443133Y322408D01*
X443133Y333792D01*
X450707Y333792D01*
X450707Y322408D01*
X450707Y325347D02*
X443133Y325347D01*
X443133Y328286D02*
X450707Y328286D01*
X450707Y331225D02*
X443133Y331225D01*
X460913Y322408D02*
X468487Y322408D01*
X460913Y322408D02*
X460913Y333792D01*
X468487Y333792D01*
X468487Y322408D01*
X468487Y325347D02*
X460913Y325347D01*
X460913Y328286D02*
X468487Y328286D01*
X468487Y331225D02*
X460913Y331225D01*
D20*
X396593Y359053D02*
X396593Y365727D01*
X403267Y365727D01*
X403267Y359053D01*
X396593Y359053D01*
X396593Y361642D02*
X403267Y361642D01*
X403267Y364231D02*
X396593Y364231D01*
X396593Y350487D02*
X396593Y343813D01*
X396593Y350487D02*
X403267Y350487D01*
X403267Y343813D01*
X396593Y343813D01*
X396593Y346402D02*
X403267Y346402D01*
X403267Y348991D02*
X396593Y348991D01*
D44*
X410737Y329313D02*
X410737Y322707D01*
X410737Y329313D02*
X434843Y329313D01*
X434843Y322707D01*
X410737Y322707D01*
X410737Y325940D02*
X434843Y325940D01*
X434843Y329173D02*
X410737Y329173D01*
X434843Y347207D02*
X434843Y353813D01*
X434843Y347207D02*
X410737Y347207D01*
X410737Y353813D01*
X434843Y353813D01*
X434843Y350440D02*
X410737Y350440D01*
X410737Y353673D02*
X434843Y353673D01*
D45*
X846563Y332053D02*
X846563Y321607D01*
X836117Y321607D01*
X836117Y332053D01*
X846563Y332053D01*
X846563Y325466D02*
X836117Y325466D01*
X836117Y329325D02*
X846563Y329325D01*
X809563Y332053D02*
X809563Y321607D01*
X799117Y321607D01*
X799117Y332053D01*
X809563Y332053D01*
X809563Y325466D02*
X799117Y325466D01*
X799117Y329325D02*
X809563Y329325D01*
X846563Y338117D02*
X846563Y348563D01*
X846563Y338117D02*
X836117Y338117D01*
X836117Y348563D01*
X846563Y348563D01*
X846563Y341976D02*
X836117Y341976D01*
X836117Y345835D02*
X846563Y345835D01*
X809563Y348563D02*
X809563Y338117D01*
X799117Y338117D01*
X799117Y348563D01*
X809563Y348563D01*
X809563Y341976D02*
X799117Y341976D01*
X799117Y345835D02*
X809563Y345835D01*
D26*
X837666Y355334D02*
X837666Y361826D01*
X837666Y355334D02*
X833174Y355334D01*
X833174Y361826D01*
X837666Y361826D01*
X837666Y357250D02*
X833174Y357250D01*
X833174Y359166D02*
X837666Y359166D01*
X837666Y361082D02*
X833174Y361082D01*
X822666Y361826D02*
X822666Y355334D01*
X818174Y355334D01*
X818174Y361826D01*
X822666Y361826D01*
X822666Y357250D02*
X818174Y357250D01*
X818174Y359166D02*
X822666Y359166D01*
X822666Y361082D02*
X818174Y361082D01*
X818174Y403594D02*
X818174Y410086D01*
X822666Y410086D01*
X822666Y403594D01*
X818174Y403594D01*
X818174Y405510D02*
X822666Y405510D01*
X822666Y407426D02*
X818174Y407426D01*
X818174Y409342D02*
X822666Y409342D01*
X833174Y410086D02*
X833174Y403594D01*
X833174Y410086D02*
X837666Y410086D01*
X837666Y403594D01*
X833174Y403594D01*
X833174Y405510D02*
X837666Y405510D01*
X837666Y407426D02*
X833174Y407426D01*
X833174Y409342D02*
X837666Y409342D01*
D25*
X478189Y353281D02*
X478189Y346239D01*
X478189Y353281D02*
X484231Y353281D01*
X484231Y346239D01*
X478189Y346239D01*
X478189Y348583D02*
X484231Y348583D01*
X484231Y350927D02*
X478189Y350927D01*
X478189Y353271D02*
X484231Y353271D01*
X478189Y330281D02*
X478189Y323239D01*
X478189Y330281D02*
X484231Y330281D01*
X484231Y323239D01*
X478189Y323239D01*
X478189Y325583D02*
X484231Y325583D01*
X484231Y327927D02*
X478189Y327927D01*
X478189Y330271D02*
X484231Y330271D01*
D20*
X379517Y328897D02*
X379517Y322223D01*
X372843Y322223D01*
X372843Y328897D01*
X379517Y328897D01*
X379517Y324812D02*
X372843Y324812D01*
X372843Y327401D02*
X379517Y327401D01*
X363517Y328897D02*
X363517Y322223D01*
X356843Y322223D01*
X356843Y328897D01*
X363517Y328897D01*
X363517Y324812D02*
X356843Y324812D01*
X356843Y327401D02*
X363517Y327401D01*
D42*
X819100Y371009D02*
X819100Y372871D01*
X819100Y371009D02*
X810738Y371009D01*
X810738Y372871D01*
X819100Y372871D01*
X819100Y380509D02*
X819100Y382371D01*
X819100Y380509D02*
X810738Y380509D01*
X810738Y382371D01*
X819100Y382371D01*
X819100Y390009D02*
X819100Y391871D01*
X819100Y390009D02*
X810738Y390009D01*
X810738Y391871D01*
X819100Y391871D01*
X845102Y391871D02*
X845102Y390009D01*
X836740Y390009D01*
X836740Y391871D01*
X845102Y391871D01*
X845102Y372871D02*
X845102Y371009D01*
X836740Y371009D01*
X836740Y372871D01*
X845102Y372871D01*
X836740Y380509D02*
X836740Y382371D01*
X845102Y382371D01*
X845102Y380509D01*
X836740Y380509D01*
D40*
X329210Y354780D02*
X329210Y349620D01*
X328250Y349620D01*
X328250Y354780D01*
X329210Y354780D01*
X329210Y351852D02*
X328250Y351852D01*
X328250Y354084D02*
X329210Y354084D01*
X334210Y354780D02*
X334210Y349620D01*
X333250Y349620D01*
X333250Y354780D01*
X334210Y354780D01*
X334210Y351852D02*
X333250Y351852D01*
X333250Y354084D02*
X334210Y354084D01*
X324210Y354780D02*
X324210Y349620D01*
X323250Y349620D01*
X323250Y354780D01*
X324210Y354780D01*
X324210Y351852D02*
X323250Y351852D01*
X323250Y354084D02*
X324210Y354084D01*
X319210Y354780D02*
X319210Y349620D01*
X318250Y349620D01*
X318250Y354780D01*
X319210Y354780D01*
X319210Y351852D02*
X318250Y351852D01*
X318250Y354084D02*
X319210Y354084D01*
X314210Y354780D02*
X314210Y349620D01*
X313250Y349620D01*
X313250Y354780D01*
X314210Y354780D01*
X314210Y351852D02*
X313250Y351852D01*
X313250Y354084D02*
X314210Y354084D01*
X318250Y377620D02*
X318250Y382780D01*
X319210Y382780D01*
X319210Y377620D01*
X318250Y377620D01*
X318250Y379852D02*
X319210Y379852D01*
X319210Y382084D02*
X318250Y382084D01*
X314210Y382780D02*
X314210Y377620D01*
X313250Y377620D01*
X313250Y382780D01*
X314210Y382780D01*
X314210Y379852D02*
X313250Y379852D01*
X313250Y382084D02*
X314210Y382084D01*
X323250Y382780D02*
X323250Y377620D01*
X323250Y382780D02*
X324210Y382780D01*
X324210Y377620D01*
X323250Y377620D01*
X323250Y379852D02*
X324210Y379852D01*
X324210Y382084D02*
X323250Y382084D01*
X328250Y382780D02*
X328250Y377620D01*
X328250Y382780D02*
X329210Y382780D01*
X329210Y377620D01*
X328250Y377620D01*
X328250Y379852D02*
X329210Y379852D01*
X329210Y382084D02*
X328250Y382084D01*
X334210Y382780D02*
X334210Y377620D01*
X333250Y377620D01*
X333250Y382780D01*
X334210Y382780D01*
X334210Y379852D02*
X333250Y379852D01*
X333250Y382084D02*
X334210Y382084D01*
X312310Y360720D02*
X307150Y360720D01*
X307150Y361680D01*
X312310Y361680D01*
X312310Y360720D01*
X312310Y365720D02*
X307150Y365720D01*
X307150Y366680D01*
X312310Y366680D01*
X312310Y365720D01*
X312310Y370720D02*
X307150Y370720D01*
X307150Y371680D01*
X312310Y371680D01*
X312310Y370720D01*
X335150Y371680D02*
X340310Y371680D01*
X340310Y370720D01*
X335150Y370720D01*
X335150Y371680D01*
X335150Y366680D02*
X340310Y366680D01*
X340310Y365720D01*
X335150Y365720D01*
X335150Y366680D01*
X335150Y361680D02*
X340310Y361680D01*
X340310Y360720D01*
X335150Y360720D01*
X335150Y361680D01*
D20*
X355953Y374293D02*
X355953Y380967D01*
X362627Y380967D01*
X362627Y374293D01*
X355953Y374293D01*
X355953Y376882D02*
X362627Y376882D01*
X362627Y379471D02*
X355953Y379471D01*
X355953Y365727D02*
X355953Y359053D01*
X355953Y365727D02*
X362627Y365727D01*
X362627Y359053D01*
X355953Y359053D01*
X355953Y361642D02*
X362627Y361642D01*
X362627Y364231D02*
X355953Y364231D01*
D25*
X695945Y392081D02*
X702987Y392081D01*
X702987Y386039D01*
X695945Y386039D01*
X695945Y392081D01*
X695945Y388383D02*
X702987Y388383D01*
X702987Y390727D02*
X695945Y390727D01*
X679987Y392081D02*
X672945Y392081D01*
X679987Y392081D02*
X679987Y386039D01*
X672945Y386039D01*
X672945Y392081D01*
X672945Y388383D02*
X679987Y388383D01*
X679987Y390727D02*
X672945Y390727D01*
D46*
X749506Y392544D02*
X761554Y392544D01*
X761554Y380496D01*
X749506Y380496D01*
X749506Y392544D01*
X749506Y384729D02*
X761554Y384729D01*
X761554Y388962D02*
X749506Y388962D01*
X721168Y392544D02*
X709120Y392544D01*
X721168Y392544D02*
X721168Y380496D01*
X709120Y380496D01*
X709120Y392544D01*
X709120Y384729D02*
X721168Y384729D01*
X721168Y388962D02*
X709120Y388962D01*
X749506Y351904D02*
X761554Y351904D01*
X761554Y339856D01*
X749506Y339856D01*
X749506Y351904D01*
X749506Y344089D02*
X761554Y344089D01*
X761554Y348322D02*
X749506Y348322D01*
X721168Y351904D02*
X709120Y351904D01*
X721168Y351904D02*
X721168Y339856D01*
X709120Y339856D01*
X709120Y351904D01*
X709120Y344089D02*
X721168Y344089D01*
X721168Y348322D02*
X709120Y348322D01*
X666812Y392544D02*
X654764Y392544D01*
X666812Y392544D02*
X666812Y380496D01*
X654764Y380496D01*
X654764Y392544D01*
X654764Y384729D02*
X666812Y384729D01*
X666812Y388962D02*
X654764Y388962D01*
X654764Y351904D02*
X666812Y351904D01*
X666812Y339856D01*
X654764Y339856D01*
X654764Y351904D01*
X654764Y344089D02*
X666812Y344089D01*
X666812Y348322D02*
X654764Y348322D01*
X626172Y392544D02*
X614124Y392544D01*
X626172Y392544D02*
X626172Y380496D01*
X614124Y380496D01*
X614124Y392544D01*
X614124Y384729D02*
X626172Y384729D01*
X626172Y388962D02*
X614124Y388962D01*
X614124Y351904D02*
X626172Y351904D01*
X626172Y339856D01*
X614124Y339856D01*
X614124Y351904D01*
X614124Y344089D02*
X626172Y344089D01*
X626172Y348322D02*
X614124Y348322D01*
X73214Y351904D02*
X61166Y351904D01*
X73214Y351904D02*
X73214Y339856D01*
X61166Y339856D01*
X61166Y351904D01*
X61166Y344089D02*
X73214Y344089D01*
X73214Y348322D02*
X61166Y348322D01*
X101806Y392544D02*
X113854Y392544D01*
X113854Y380496D01*
X101806Y380496D01*
X101806Y392544D01*
X101806Y384729D02*
X113854Y384729D01*
X113854Y388962D02*
X101806Y388962D01*
X101806Y351904D02*
X113854Y351904D01*
X113854Y339856D01*
X101806Y339856D01*
X101806Y351904D01*
X101806Y344089D02*
X113854Y344089D01*
X113854Y348322D02*
X101806Y348322D01*
X73214Y392544D02*
X61166Y392544D01*
X73214Y392544D02*
X73214Y380496D01*
X61166Y380496D01*
X61166Y392544D01*
X61166Y384729D02*
X73214Y384729D01*
X73214Y388962D02*
X61166Y388962D01*
D20*
X538453Y332707D02*
X538453Y326033D01*
X538453Y332707D02*
X545127Y332707D01*
X545127Y326033D01*
X538453Y326033D01*
X538453Y328622D02*
X545127Y328622D01*
X545127Y331211D02*
X538453Y331211D01*
X554453Y332707D02*
X554453Y326033D01*
X554453Y332707D02*
X561127Y332707D01*
X561127Y326033D01*
X554453Y326033D01*
X554453Y328622D02*
X561127Y328622D01*
X561127Y331211D02*
X554453Y331211D01*
X300397Y343179D02*
X293723Y343179D01*
X293723Y349853D01*
X300397Y349853D01*
X300397Y343179D01*
X300397Y345768D02*
X293723Y345768D01*
X293723Y348357D02*
X300397Y348357D01*
X300397Y359179D02*
X293723Y359179D01*
X293723Y365853D01*
X300397Y365853D01*
X300397Y359179D01*
X300397Y361768D02*
X293723Y361768D01*
X293723Y364357D02*
X300397Y364357D01*
X570583Y344517D02*
X577257Y344517D01*
X577257Y337843D01*
X570583Y337843D01*
X570583Y344517D01*
X570583Y340432D02*
X577257Y340432D01*
X577257Y343021D02*
X570583Y343021D01*
X570583Y328517D02*
X577257Y328517D01*
X577257Y321843D01*
X570583Y321843D01*
X570583Y328517D01*
X570583Y324432D02*
X577257Y324432D01*
X577257Y327021D02*
X570583Y327021D01*
X336973Y331183D02*
X330299Y331183D01*
X336973Y331183D02*
X336973Y324509D01*
X330299Y324509D01*
X330299Y331183D01*
X330299Y327098D02*
X336973Y327098D01*
X336973Y329687D02*
X330299Y329687D01*
X321733Y331183D02*
X315059Y331183D01*
X321733Y331183D02*
X321733Y324509D01*
X315059Y324509D01*
X315059Y331183D01*
X315059Y327098D02*
X321733Y327098D01*
X321733Y329687D02*
X315059Y329687D01*
D33*
X760860Y366200D03*
X710060Y366200D03*
X665860Y366200D03*
X615060Y366200D03*
X112910Y366200D03*
X62110Y366200D03*
D20*
X270863Y406043D02*
X277537Y406043D01*
X270863Y406043D02*
X270863Y412717D01*
X277537Y412717D01*
X277537Y406043D01*
X277537Y408632D02*
X270863Y408632D01*
X270863Y411221D02*
X277537Y411221D01*
X286103Y406043D02*
X292777Y406043D01*
X286103Y406043D02*
X286103Y412717D01*
X292777Y412717D01*
X292777Y406043D01*
X292777Y408632D02*
X286103Y408632D01*
X286103Y411221D02*
X292777Y411221D01*
X380407Y342867D02*
X380407Y336193D01*
X373733Y336193D01*
X373733Y342867D01*
X380407Y342867D01*
X380407Y338782D02*
X373733Y338782D01*
X373733Y341371D02*
X380407Y341371D01*
X380407Y351433D02*
X380407Y358107D01*
X380407Y351433D02*
X373733Y351433D01*
X373733Y358107D01*
X380407Y358107D01*
X380407Y354022D02*
X373733Y354022D01*
X373733Y356611D02*
X380407Y356611D01*
X692249Y346677D02*
X698923Y346677D01*
X698923Y340003D01*
X692249Y340003D01*
X692249Y346677D01*
X692249Y342592D02*
X698923Y342592D01*
X698923Y345181D02*
X692249Y345181D01*
X683683Y346677D02*
X677009Y346677D01*
X683683Y346677D02*
X683683Y340003D01*
X677009Y340003D01*
X677009Y346677D01*
X677009Y342592D02*
X683683Y342592D01*
X683683Y345181D02*
X677009Y345181D01*
D35*
X115450Y406840D03*
M02*
