M48
;GenerationSoftware,Autodesk,EAGLE,9.6.0*%
;CreationDate,2021-04-13T03:07:25Z*%
FMAT,2
ICI,OFF
METRIC,TZ,000.000
T3C0.300
T2C0.650
T1C1.350
%
G90
M71
T1
X89789Y7620
X19914Y7620
X24994Y7620
X29414Y7620
X34494Y7620
X84709Y7620
T2
X6683Y10510
X6683Y4730
T3
X71247Y10033
X71247Y5207
X71247Y7620
X76073Y7620
X73660Y5207
X73660Y7620
X78105Y6096
X82931Y5334
X83058Y7620
X83058Y9906
X63119Y7468
X39751Y9906
X9004Y8090
X14224Y3153
X49601Y8057
X40767Y5080
X81915Y9906
X81915Y5334
X42111Y6277
X68326Y3937
X61849Y9398
X13589Y3153
X13906Y3712
X43815Y3757
X49601Y7422
X2032Y7620
X4572Y7620
X4572Y9144
X3302Y8382
X3302Y6858
X2032Y6096
X3302Y5334
X3302Y9906
X4572Y6096
X4572Y4572
X5842Y6858
X5842Y8382
X4572Y10668
X50617Y5517
X49855Y5009
X63754Y4191
X65532Y4775
X67183Y12065
X73660Y10033
X26264Y9017
X68072Y10947
X69215Y4750
X78105Y4445
X45720Y9144
X64135Y8001
X60960Y8128
X45717Y7312
X77089Y12065
X70053Y4013
X69190Y7620
X79502Y12065
X36830Y11709
X38227Y9271
X37719Y11709
X38227Y8509
X61011Y6579
X28194Y9017
X44069Y4572
X61493Y4267
X61290Y3505
X41021Y9652
X60198Y10414
X61417Y8763
X41783Y9394
X60960Y10414
X63754Y10033
X65989Y11938
X42240Y7497
X42164Y10541
X66446Y8560
X73279Y12065
X69215Y9474
X14732Y7239
X15113Y6731
X10973Y6909
X10541Y6477
X10033Y9652
X9525Y9398
X78105Y7874
X10109Y6909
X60376Y4369
X77978Y3175
X41402Y10541
X67208Y8534
X68910Y10185
X41402Y3937
X74422Y3150
X58547Y3683
X51562Y3531
X51562Y4166
X68859Y6934
X63754Y5309
X72522Y12065
X9017Y9652
X74041Y12065
X67234Y7290
X9347Y6579
X11684Y6528
X16764Y4572
X60985Y4902
X74803Y12065
X70104Y11557
X40640Y7239
X40640Y8001
X39878Y8001
X39878Y7239
X76073Y5207
X76073Y10033
X75565Y12065
M30