G04 EAGLE Gerber RS-274X export*
G75*
%MOMM*%
%FSLAX34Y34*%
%LPD*%
%IN*%
%IPPOS*%
%AMOC8*
5,1,8,0,0,1.08239X$1,22.5*%
G01*
%ADD10C,0.254000*%


D10*
X12700Y31750D02*
X12724Y31197D01*
X12796Y30647D01*
X12916Y30107D01*
X13083Y29578D01*
X13295Y29066D01*
X13551Y28575D01*
X13848Y28108D01*
X14186Y27668D01*
X14560Y27260D01*
X14968Y26886D01*
X15408Y26548D01*
X15875Y26251D01*
X16366Y25995D01*
X16878Y25783D01*
X17407Y25616D01*
X17947Y25496D01*
X18497Y25424D01*
X19050Y25400D01*
X83820Y25400D01*
X87630Y29210D01*
X87630Y35560D01*
X87669Y36446D01*
X87784Y37324D01*
X87976Y38190D01*
X88243Y39035D01*
X88582Y39854D01*
X88991Y40640D01*
X89467Y41388D01*
X90007Y42091D01*
X90606Y42744D01*
X91259Y43343D01*
X91962Y43883D01*
X92710Y44359D01*
X93496Y44768D01*
X94315Y45107D01*
X95160Y45374D01*
X96026Y45566D01*
X96905Y45681D01*
X97790Y45720D01*
X98676Y45681D01*
X99554Y45566D01*
X100420Y45374D01*
X101265Y45107D01*
X102084Y44768D01*
X102870Y44359D01*
X103618Y43883D01*
X104321Y43343D01*
X104974Y42744D01*
X105573Y42091D01*
X106113Y41388D01*
X106589Y40640D01*
X106998Y39854D01*
X107337Y39035D01*
X107604Y38190D01*
X107796Y37324D01*
X107911Y36446D01*
X107950Y35560D01*
X107950Y29210D01*
X111760Y25400D01*
X810260Y25400D01*
X810703Y25419D01*
X811142Y25477D01*
X811575Y25573D01*
X811997Y25706D01*
X812407Y25876D01*
X812800Y26081D01*
X813174Y26319D01*
X813525Y26589D01*
X813852Y26888D01*
X814152Y27215D01*
X814421Y27566D01*
X814659Y27940D01*
X814864Y28333D01*
X815034Y28743D01*
X815167Y29165D01*
X815263Y29598D01*
X815321Y30037D01*
X815340Y30480D01*
X815340Y35560D01*
X815379Y36446D01*
X815494Y37324D01*
X815686Y38190D01*
X815953Y39035D01*
X816292Y39854D01*
X816701Y40640D01*
X817177Y41388D01*
X817717Y42091D01*
X818316Y42744D01*
X818969Y43343D01*
X819672Y43883D01*
X820420Y44359D01*
X821206Y44768D01*
X822025Y45107D01*
X822870Y45374D01*
X823736Y45566D01*
X824615Y45681D01*
X825500Y45720D01*
X826386Y45681D01*
X827264Y45566D01*
X828130Y45374D01*
X828975Y45107D01*
X829794Y44768D01*
X830580Y44359D01*
X831328Y43883D01*
X832031Y43343D01*
X832684Y42744D01*
X833283Y42091D01*
X833823Y41388D01*
X834299Y40640D01*
X834708Y39854D01*
X835047Y39035D01*
X835314Y38190D01*
X835506Y37324D01*
X835621Y36446D01*
X835660Y35560D01*
X835660Y30480D01*
X835660Y30449D01*
X835682Y30006D01*
X835743Y29567D01*
X835841Y29135D01*
X835977Y28713D01*
X836149Y28305D01*
X836356Y27913D01*
X836597Y27541D01*
X836869Y27191D01*
X837170Y26866D01*
X837499Y26569D01*
X837852Y26301D01*
X838227Y26065D01*
X838621Y25863D01*
X839032Y25696D01*
X839455Y25565D01*
X839889Y25472D01*
X840328Y25417D01*
X840771Y25400D01*
X841214Y25422D01*
X841653Y25483D01*
X842085Y25581D01*
X906780Y43180D01*
X907184Y43312D01*
X907604Y43490D01*
X908008Y43704D01*
X908391Y43953D01*
X908751Y44234D01*
X909086Y44545D01*
X909392Y44884D01*
X909667Y45249D01*
X909909Y45636D01*
X910117Y46043D01*
X910288Y46467D01*
X910422Y46903D01*
X910518Y47350D01*
X910574Y47803D01*
X910590Y48260D01*
X910590Y104140D01*
X910576Y104565D01*
X910523Y105018D01*
X910430Y105466D01*
X910299Y105903D01*
X910130Y106328D01*
X909925Y106736D01*
X909685Y107124D01*
X909412Y107491D01*
X909108Y107832D01*
X908776Y108145D01*
X908417Y108428D01*
X908035Y108679D01*
X907633Y108896D01*
X907214Y109077D01*
X906780Y109220D01*
X842085Y126819D01*
X842055Y126827D01*
X841622Y126923D01*
X841183Y126981D01*
X840740Y127000D01*
X840297Y126981D01*
X839858Y126923D01*
X839425Y126827D01*
X839003Y126694D01*
X838593Y126524D01*
X838200Y126319D01*
X837826Y126081D01*
X837475Y125812D01*
X837148Y125512D01*
X836849Y125185D01*
X836579Y124834D01*
X836341Y124460D01*
X836136Y124067D01*
X835966Y123657D01*
X835833Y123235D01*
X835737Y122802D01*
X835679Y122363D01*
X835660Y121920D01*
X835660Y116840D01*
X835621Y115955D01*
X835506Y115076D01*
X835314Y114210D01*
X835047Y113365D01*
X834708Y112546D01*
X834299Y111760D01*
X833823Y111012D01*
X833283Y110309D01*
X832684Y109656D01*
X832031Y109057D01*
X831328Y108517D01*
X830580Y108041D01*
X829794Y107632D01*
X828975Y107293D01*
X828130Y107026D01*
X827264Y106834D01*
X826386Y106719D01*
X825500Y106680D01*
X824615Y106719D01*
X823736Y106834D01*
X822870Y107026D01*
X822025Y107293D01*
X821206Y107632D01*
X820420Y108041D01*
X819672Y108517D01*
X818969Y109057D01*
X818316Y109656D01*
X817717Y110309D01*
X817177Y111012D01*
X816701Y111760D01*
X816292Y112546D01*
X815953Y113365D01*
X815686Y114210D01*
X815494Y115076D01*
X815379Y115955D01*
X815340Y116840D01*
X815340Y121920D01*
X815321Y122363D01*
X815263Y122802D01*
X815167Y123235D01*
X815034Y123657D01*
X814864Y124067D01*
X814659Y124460D01*
X814421Y124834D01*
X814152Y125185D01*
X813852Y125512D01*
X813525Y125812D01*
X813174Y126081D01*
X812800Y126319D01*
X812407Y126524D01*
X811997Y126694D01*
X811575Y126827D01*
X811142Y126923D01*
X810703Y126981D01*
X810260Y127000D01*
X111760Y127000D01*
X107950Y123190D01*
X107950Y116840D01*
X107911Y115955D01*
X107796Y115076D01*
X107604Y114210D01*
X107337Y113365D01*
X106998Y112546D01*
X106589Y111760D01*
X106113Y111012D01*
X105573Y110309D01*
X104974Y109656D01*
X104321Y109057D01*
X103618Y108517D01*
X102870Y108041D01*
X102084Y107632D01*
X101265Y107293D01*
X100420Y107026D01*
X99554Y106834D01*
X98676Y106719D01*
X97790Y106680D01*
X96905Y106719D01*
X96026Y106834D01*
X95160Y107026D01*
X94315Y107293D01*
X93496Y107632D01*
X92710Y108041D01*
X91962Y108517D01*
X91259Y109057D01*
X90606Y109656D01*
X90007Y110309D01*
X89467Y111012D01*
X88991Y111760D01*
X88582Y112546D01*
X88243Y113365D01*
X87976Y114210D01*
X87784Y115076D01*
X87669Y115955D01*
X87630Y116840D01*
X87630Y123190D01*
X83820Y127000D01*
X19050Y127000D01*
X18497Y126976D01*
X17947Y126904D01*
X17407Y126784D01*
X16878Y126617D01*
X16366Y126405D01*
X15875Y126149D01*
X15408Y125852D01*
X14968Y125514D01*
X14560Y125140D01*
X14186Y124732D01*
X13848Y124292D01*
X13551Y123825D01*
X13295Y123334D01*
X13083Y122822D01*
X12916Y122294D01*
X12796Y121753D01*
X12724Y121203D01*
X12700Y120650D01*
X12700Y31750D01*
X66630Y30000D02*
X77630Y30000D01*
X77891Y30011D01*
X78151Y30046D01*
X78406Y30102D01*
X78656Y30181D01*
X78898Y30281D01*
X79130Y30402D01*
X79351Y30543D01*
X79558Y30702D01*
X79751Y30879D01*
X79928Y31072D01*
X80087Y31279D01*
X80228Y31500D01*
X80349Y31732D01*
X80449Y31974D01*
X80528Y32224D01*
X80584Y32479D01*
X80619Y32739D01*
X80630Y33000D01*
X80619Y33261D01*
X80584Y33521D01*
X80528Y33776D01*
X80449Y34026D01*
X80349Y34268D01*
X80228Y34500D01*
X80087Y34721D01*
X79928Y34928D01*
X79751Y35121D01*
X79558Y35298D01*
X79351Y35457D01*
X79130Y35598D01*
X78898Y35719D01*
X78656Y35819D01*
X78406Y35898D01*
X78151Y35954D01*
X77891Y35989D01*
X77630Y36000D01*
X66630Y36000D01*
X66369Y35989D01*
X66109Y35954D01*
X65854Y35898D01*
X65604Y35819D01*
X65362Y35719D01*
X65130Y35598D01*
X64909Y35457D01*
X64702Y35298D01*
X64509Y35121D01*
X64332Y34928D01*
X64173Y34721D01*
X64032Y34500D01*
X63911Y34268D01*
X63811Y34026D01*
X63732Y33776D01*
X63676Y33521D01*
X63641Y33261D01*
X63630Y33000D01*
X63641Y32739D01*
X63676Y32479D01*
X63732Y32224D01*
X63811Y31974D01*
X63911Y31732D01*
X64032Y31500D01*
X64173Y31279D01*
X64332Y31072D01*
X64509Y30879D01*
X64702Y30702D01*
X64909Y30543D01*
X65130Y30402D01*
X65362Y30281D01*
X65604Y30181D01*
X65854Y30102D01*
X66109Y30046D01*
X66369Y30011D01*
X66630Y30000D01*
X27280Y30000D02*
X33480Y30000D01*
X33741Y30011D01*
X34001Y30046D01*
X34256Y30102D01*
X34506Y30181D01*
X34748Y30281D01*
X34980Y30402D01*
X35201Y30543D01*
X35408Y30702D01*
X35601Y30879D01*
X35778Y31072D01*
X35937Y31279D01*
X36078Y31500D01*
X36199Y31732D01*
X36299Y31974D01*
X36378Y32224D01*
X36434Y32479D01*
X36469Y32739D01*
X36480Y33000D01*
X36469Y33261D01*
X36434Y33521D01*
X36378Y33776D01*
X36299Y34026D01*
X36199Y34268D01*
X36078Y34500D01*
X35937Y34721D01*
X35778Y34928D01*
X35601Y35121D01*
X35408Y35298D01*
X35201Y35457D01*
X34980Y35598D01*
X34748Y35719D01*
X34506Y35819D01*
X34256Y35898D01*
X34001Y35954D01*
X33741Y35989D01*
X33480Y36000D01*
X27280Y36000D01*
X27019Y35989D01*
X26759Y35954D01*
X26504Y35898D01*
X26254Y35819D01*
X26012Y35719D01*
X25780Y35598D01*
X25559Y35457D01*
X25352Y35298D01*
X25159Y35121D01*
X24982Y34928D01*
X24823Y34721D01*
X24682Y34500D01*
X24561Y34268D01*
X24461Y34026D01*
X24382Y33776D01*
X24326Y33521D01*
X24291Y33261D01*
X24280Y33000D01*
X24291Y32739D01*
X24326Y32479D01*
X24382Y32224D01*
X24461Y31974D01*
X24561Y31732D01*
X24682Y31500D01*
X24823Y31279D01*
X24982Y31072D01*
X25159Y30879D01*
X25352Y30702D01*
X25559Y30543D01*
X25780Y30402D01*
X26012Y30281D01*
X26254Y30181D01*
X26504Y30102D01*
X26759Y30046D01*
X27019Y30011D01*
X27280Y30000D01*
X27280Y116400D02*
X33480Y116400D01*
X33741Y116411D01*
X34001Y116446D01*
X34256Y116502D01*
X34506Y116581D01*
X34748Y116681D01*
X34980Y116802D01*
X35201Y116943D01*
X35408Y117102D01*
X35601Y117279D01*
X35778Y117472D01*
X35937Y117679D01*
X36078Y117900D01*
X36199Y118132D01*
X36299Y118374D01*
X36378Y118624D01*
X36434Y118879D01*
X36469Y119139D01*
X36480Y119400D01*
X36469Y119661D01*
X36434Y119921D01*
X36378Y120176D01*
X36299Y120426D01*
X36199Y120668D01*
X36078Y120900D01*
X35937Y121121D01*
X35778Y121328D01*
X35601Y121521D01*
X35408Y121698D01*
X35201Y121857D01*
X34980Y121998D01*
X34748Y122119D01*
X34506Y122219D01*
X34256Y122298D01*
X34001Y122354D01*
X33741Y122389D01*
X33480Y122400D01*
X27280Y122400D01*
X27019Y122389D01*
X26759Y122354D01*
X26504Y122298D01*
X26254Y122219D01*
X26012Y122119D01*
X25780Y121998D01*
X25559Y121857D01*
X25352Y121698D01*
X25159Y121521D01*
X24982Y121328D01*
X24823Y121121D01*
X24682Y120900D01*
X24561Y120668D01*
X24461Y120426D01*
X24382Y120176D01*
X24326Y119921D01*
X24291Y119661D01*
X24280Y119400D01*
X24291Y119139D01*
X24326Y118879D01*
X24382Y118624D01*
X24461Y118374D01*
X24561Y118132D01*
X24682Y117900D01*
X24823Y117679D01*
X24982Y117472D01*
X25159Y117279D01*
X25352Y117102D01*
X25559Y116943D01*
X25780Y116802D01*
X26012Y116681D01*
X26254Y116581D01*
X26504Y116502D01*
X26759Y116446D01*
X27019Y116411D01*
X27280Y116400D01*
X66630Y116400D02*
X77630Y116400D01*
X77891Y116411D01*
X78151Y116446D01*
X78406Y116502D01*
X78656Y116581D01*
X78898Y116681D01*
X79130Y116802D01*
X79351Y116943D01*
X79558Y117102D01*
X79751Y117279D01*
X79928Y117472D01*
X80087Y117679D01*
X80228Y117900D01*
X80349Y118132D01*
X80449Y118374D01*
X80528Y118624D01*
X80584Y118879D01*
X80619Y119139D01*
X80630Y119400D01*
X80619Y119661D01*
X80584Y119921D01*
X80528Y120176D01*
X80449Y120426D01*
X80349Y120668D01*
X80228Y120900D01*
X80087Y121121D01*
X79928Y121328D01*
X79751Y121521D01*
X79558Y121698D01*
X79351Y121857D01*
X79130Y121998D01*
X78898Y122119D01*
X78656Y122219D01*
X78406Y122298D01*
X78151Y122354D01*
X77891Y122389D01*
X77630Y122400D01*
X66630Y122400D01*
X66369Y122389D01*
X66109Y122354D01*
X65854Y122298D01*
X65604Y122219D01*
X65362Y122119D01*
X65130Y121998D01*
X64909Y121857D01*
X64702Y121698D01*
X64509Y121521D01*
X64332Y121328D01*
X64173Y121121D01*
X64032Y120900D01*
X63911Y120668D01*
X63811Y120426D01*
X63732Y120176D01*
X63676Y119921D01*
X63641Y119661D01*
X63630Y119400D01*
X63641Y119139D01*
X63676Y118879D01*
X63732Y118624D01*
X63811Y118374D01*
X63911Y118132D01*
X64032Y117900D01*
X64173Y117679D01*
X64332Y117472D01*
X64509Y117279D01*
X64702Y117102D01*
X64909Y116943D01*
X65130Y116802D01*
X65362Y116681D01*
X65604Y116581D01*
X65854Y116502D01*
X66109Y116446D01*
X66369Y116411D01*
X66630Y116400D01*
X66630Y30000D02*
X77630Y30000D01*
X77891Y30011D01*
X78151Y30046D01*
X78406Y30102D01*
X78656Y30181D01*
X78898Y30281D01*
X79130Y30402D01*
X79351Y30543D01*
X79558Y30702D01*
X79751Y30879D01*
X79928Y31072D01*
X80087Y31279D01*
X80228Y31500D01*
X80349Y31732D01*
X80449Y31974D01*
X80528Y32224D01*
X80584Y32479D01*
X80619Y32739D01*
X80630Y33000D01*
X80619Y33261D01*
X80584Y33521D01*
X80528Y33776D01*
X80449Y34026D01*
X80349Y34268D01*
X80228Y34500D01*
X80087Y34721D01*
X79928Y34928D01*
X79751Y35121D01*
X79558Y35298D01*
X79351Y35457D01*
X79130Y35598D01*
X78898Y35719D01*
X78656Y35819D01*
X78406Y35898D01*
X78151Y35954D01*
X77891Y35989D01*
X77630Y36000D01*
X66630Y36000D01*
X66369Y35989D01*
X66109Y35954D01*
X65854Y35898D01*
X65604Y35819D01*
X65362Y35719D01*
X65130Y35598D01*
X64909Y35457D01*
X64702Y35298D01*
X64509Y35121D01*
X64332Y34928D01*
X64173Y34721D01*
X64032Y34500D01*
X63911Y34268D01*
X63811Y34026D01*
X63732Y33776D01*
X63676Y33521D01*
X63641Y33261D01*
X63630Y33000D01*
X63641Y32739D01*
X63676Y32479D01*
X63732Y32224D01*
X63811Y31974D01*
X63911Y31732D01*
X64032Y31500D01*
X64173Y31279D01*
X64332Y31072D01*
X64509Y30879D01*
X64702Y30702D01*
X64909Y30543D01*
X65130Y30402D01*
X65362Y30281D01*
X65604Y30181D01*
X65854Y30102D01*
X66109Y30046D01*
X66369Y30011D01*
X66630Y30000D01*
X27280Y30000D02*
X33480Y30000D01*
X33741Y30011D01*
X34001Y30046D01*
X34256Y30102D01*
X34506Y30181D01*
X34748Y30281D01*
X34980Y30402D01*
X35201Y30543D01*
X35408Y30702D01*
X35601Y30879D01*
X35778Y31072D01*
X35937Y31279D01*
X36078Y31500D01*
X36199Y31732D01*
X36299Y31974D01*
X36378Y32224D01*
X36434Y32479D01*
X36469Y32739D01*
X36480Y33000D01*
X36469Y33261D01*
X36434Y33521D01*
X36378Y33776D01*
X36299Y34026D01*
X36199Y34268D01*
X36078Y34500D01*
X35937Y34721D01*
X35778Y34928D01*
X35601Y35121D01*
X35408Y35298D01*
X35201Y35457D01*
X34980Y35598D01*
X34748Y35719D01*
X34506Y35819D01*
X34256Y35898D01*
X34001Y35954D01*
X33741Y35989D01*
X33480Y36000D01*
X27280Y36000D01*
X27019Y35989D01*
X26759Y35954D01*
X26504Y35898D01*
X26254Y35819D01*
X26012Y35719D01*
X25780Y35598D01*
X25559Y35457D01*
X25352Y35298D01*
X25159Y35121D01*
X24982Y34928D01*
X24823Y34721D01*
X24682Y34500D01*
X24561Y34268D01*
X24461Y34026D01*
X24382Y33776D01*
X24326Y33521D01*
X24291Y33261D01*
X24280Y33000D01*
X24291Y32739D01*
X24326Y32479D01*
X24382Y32224D01*
X24461Y31974D01*
X24561Y31732D01*
X24682Y31500D01*
X24823Y31279D01*
X24982Y31072D01*
X25159Y30879D01*
X25352Y30702D01*
X25559Y30543D01*
X25780Y30402D01*
X26012Y30281D01*
X26254Y30181D01*
X26504Y30102D01*
X26759Y30046D01*
X27019Y30011D01*
X27280Y30000D01*
X66630Y116400D02*
X77630Y116400D01*
X77891Y116411D01*
X78151Y116446D01*
X78406Y116502D01*
X78656Y116581D01*
X78898Y116681D01*
X79130Y116802D01*
X79351Y116943D01*
X79558Y117102D01*
X79751Y117279D01*
X79928Y117472D01*
X80087Y117679D01*
X80228Y117900D01*
X80349Y118132D01*
X80449Y118374D01*
X80528Y118624D01*
X80584Y118879D01*
X80619Y119139D01*
X80630Y119400D01*
X80619Y119661D01*
X80584Y119921D01*
X80528Y120176D01*
X80449Y120426D01*
X80349Y120668D01*
X80228Y120900D01*
X80087Y121121D01*
X79928Y121328D01*
X79751Y121521D01*
X79558Y121698D01*
X79351Y121857D01*
X79130Y121998D01*
X78898Y122119D01*
X78656Y122219D01*
X78406Y122298D01*
X78151Y122354D01*
X77891Y122389D01*
X77630Y122400D01*
X66630Y122400D01*
X66369Y122389D01*
X66109Y122354D01*
X65854Y122298D01*
X65604Y122219D01*
X65362Y122119D01*
X65130Y121998D01*
X64909Y121857D01*
X64702Y121698D01*
X64509Y121521D01*
X64332Y121328D01*
X64173Y121121D01*
X64032Y120900D01*
X63911Y120668D01*
X63811Y120426D01*
X63732Y120176D01*
X63676Y119921D01*
X63641Y119661D01*
X63630Y119400D01*
X63641Y119139D01*
X63676Y118879D01*
X63732Y118624D01*
X63811Y118374D01*
X63911Y118132D01*
X64032Y117900D01*
X64173Y117679D01*
X64332Y117472D01*
X64509Y117279D01*
X64702Y117102D01*
X64909Y116943D01*
X65130Y116802D01*
X65362Y116681D01*
X65604Y116581D01*
X65854Y116502D01*
X66109Y116446D01*
X66369Y116411D01*
X66630Y116400D01*
X27280Y116400D02*
X33480Y116400D01*
X33741Y116411D01*
X34001Y116446D01*
X34256Y116502D01*
X34506Y116581D01*
X34748Y116681D01*
X34980Y116802D01*
X35201Y116943D01*
X35408Y117102D01*
X35601Y117279D01*
X35778Y117472D01*
X35937Y117679D01*
X36078Y117900D01*
X36199Y118132D01*
X36299Y118374D01*
X36378Y118624D01*
X36434Y118879D01*
X36469Y119139D01*
X36480Y119400D01*
X36469Y119661D01*
X36434Y119921D01*
X36378Y120176D01*
X36299Y120426D01*
X36199Y120668D01*
X36078Y120900D01*
X35937Y121121D01*
X35778Y121328D01*
X35601Y121521D01*
X35408Y121698D01*
X35201Y121857D01*
X34980Y121998D01*
X34748Y122119D01*
X34506Y122219D01*
X34256Y122298D01*
X34001Y122354D01*
X33741Y122389D01*
X33480Y122400D01*
X27280Y122400D01*
X27019Y122389D01*
X26759Y122354D01*
X26504Y122298D01*
X26254Y122219D01*
X26012Y122119D01*
X25780Y121998D01*
X25559Y121857D01*
X25352Y121698D01*
X25159Y121521D01*
X24982Y121328D01*
X24823Y121121D01*
X24682Y120900D01*
X24561Y120668D01*
X24461Y120426D01*
X24382Y120176D01*
X24326Y119921D01*
X24291Y119661D01*
X24280Y119400D01*
X24291Y119139D01*
X24326Y118879D01*
X24382Y118624D01*
X24461Y118374D01*
X24561Y118132D01*
X24682Y117900D01*
X24823Y117679D01*
X24982Y117472D01*
X25159Y117279D01*
X25352Y117102D01*
X25559Y116943D01*
X25780Y116802D01*
X26012Y116681D01*
X26254Y116581D01*
X26504Y116502D01*
X26759Y116446D01*
X27019Y116411D01*
X27280Y116400D01*
X66617Y101850D02*
X66195Y101906D01*
X65783Y102016D01*
X65389Y102179D01*
X65021Y102392D01*
X64683Y102651D01*
X64381Y102953D01*
X64122Y103291D01*
X63909Y103659D01*
X63746Y104053D01*
X63636Y104465D01*
X63580Y104887D01*
X63580Y105313D01*
X63636Y105735D01*
X63746Y106147D01*
X63909Y106541D01*
X64122Y106909D01*
X64381Y107247D01*
X64683Y107549D01*
X65021Y107808D01*
X65389Y108021D01*
X65783Y108184D01*
X66195Y108294D01*
X66617Y108350D01*
X67043Y108350D01*
X67465Y108294D01*
X67877Y108184D01*
X68271Y108021D01*
X68639Y107808D01*
X68977Y107549D01*
X69279Y107247D01*
X69538Y106909D01*
X69751Y106541D01*
X69914Y106147D01*
X70024Y105735D01*
X70080Y105313D01*
X70080Y104887D01*
X70024Y104465D01*
X69914Y104053D01*
X69751Y103659D01*
X69538Y103291D01*
X69279Y102953D01*
X68977Y102651D01*
X68639Y102392D01*
X68271Y102179D01*
X67877Y102016D01*
X67465Y101906D01*
X67043Y101850D01*
X66617Y101850D01*
X66617Y44050D02*
X66195Y44106D01*
X65783Y44216D01*
X65389Y44379D01*
X65021Y44592D01*
X64683Y44851D01*
X64381Y45153D01*
X64122Y45491D01*
X63909Y45859D01*
X63746Y46253D01*
X63636Y46665D01*
X63580Y47087D01*
X63580Y47513D01*
X63636Y47935D01*
X63746Y48347D01*
X63909Y48741D01*
X64122Y49109D01*
X64381Y49447D01*
X64683Y49749D01*
X65021Y50008D01*
X65389Y50221D01*
X65783Y50384D01*
X66195Y50494D01*
X66617Y50550D01*
X67043Y50550D01*
X67465Y50494D01*
X67877Y50384D01*
X68271Y50221D01*
X68639Y50008D01*
X68977Y49749D01*
X69279Y49447D01*
X69538Y49109D01*
X69751Y48741D01*
X69914Y48347D01*
X70024Y47935D01*
X70080Y47513D01*
X70080Y47087D01*
X70024Y46665D01*
X69914Y46253D01*
X69751Y45859D01*
X69538Y45491D01*
X69279Y45153D01*
X68977Y44851D01*
X68639Y44592D01*
X68271Y44379D01*
X67877Y44216D01*
X67465Y44106D01*
X67043Y44050D01*
X66617Y44050D01*
M02*
