G04 EAGLE Gerber RS-274X export*
G75*
%MOMM*%
%FSLAX34Y34*%
%LPD*%
%INGTL*%
%IPPOS*%
%AMOC8*
5,1,8,0,0,1.08239X$1,22.5*%
G01*
%ADD10C,0.198000*%
%ADD11R,1.450000X1.450000*%
%ADD12C,2.250000*%
%ADD13R,1.000000X0.280000*%
%ADD14R,1.000000X0.560000*%
%ADD15C,1.000000*%
%ADD16R,1.100000X1.000000*%
%ADD17C,0.363000*%
%ADD18C,1.879600*%
%ADD19C,1.000000*%
%ADD20R,1.000000X1.100000*%
%ADD21R,0.800000X1.000000*%
%ADD22R,1.270000X1.000000*%
%ADD23R,3.200000X0.350000*%
%ADD24C,0.756400*%
%ADD25C,0.254000*%
%ADD26C,0.806400*%
%ADD27C,0.152400*%
%ADD28C,0.381000*%

G36*
X267138Y-73521D02*
X267138Y-73521D01*
X267210Y-73519D01*
X267259Y-73501D01*
X267310Y-73493D01*
X267373Y-73459D01*
X267441Y-73434D01*
X267481Y-73402D01*
X267528Y-73377D01*
X267577Y-73325D01*
X267633Y-73281D01*
X267661Y-73237D01*
X267697Y-73199D01*
X267727Y-73134D01*
X267766Y-73074D01*
X267779Y-73023D01*
X267801Y-72976D01*
X267808Y-72905D01*
X267826Y-72835D01*
X267822Y-72783D01*
X267828Y-72732D01*
X267812Y-72661D01*
X267807Y-72590D01*
X267786Y-72542D01*
X267775Y-72491D01*
X267739Y-72430D01*
X267710Y-72364D01*
X267666Y-72308D01*
X267649Y-72280D01*
X267631Y-72265D01*
X267606Y-72233D01*
X265060Y-69687D01*
X263397Y-65673D01*
X263397Y-61327D01*
X265060Y-57313D01*
X268133Y-54240D01*
X272147Y-52577D01*
X276493Y-52577D01*
X280507Y-54240D01*
X283580Y-57313D01*
X285243Y-61327D01*
X285243Y-65673D01*
X283580Y-69687D01*
X281034Y-72233D01*
X280992Y-72291D01*
X280943Y-72343D01*
X280921Y-72390D01*
X280891Y-72432D01*
X280870Y-72501D01*
X280839Y-72566D01*
X280834Y-72618D01*
X280818Y-72668D01*
X280820Y-72739D01*
X280812Y-72810D01*
X280823Y-72861D01*
X280825Y-72913D01*
X280849Y-72981D01*
X280865Y-73051D01*
X280891Y-73096D01*
X280909Y-73144D01*
X280954Y-73200D01*
X280991Y-73262D01*
X281030Y-73296D01*
X281063Y-73336D01*
X281123Y-73375D01*
X281178Y-73422D01*
X281226Y-73441D01*
X281270Y-73469D01*
X281339Y-73487D01*
X281406Y-73514D01*
X281477Y-73522D01*
X281508Y-73530D01*
X281532Y-73528D01*
X281573Y-73532D01*
X298704Y-73532D01*
X298724Y-73529D01*
X298743Y-73531D01*
X298845Y-73509D01*
X298947Y-73493D01*
X298964Y-73483D01*
X298984Y-73479D01*
X299073Y-73426D01*
X299164Y-73377D01*
X299178Y-73363D01*
X299195Y-73353D01*
X299262Y-73274D01*
X299334Y-73199D01*
X299342Y-73181D01*
X299355Y-73166D01*
X299394Y-73070D01*
X299437Y-72976D01*
X299439Y-72956D01*
X299447Y-72938D01*
X299465Y-72771D01*
X299465Y-112D01*
X301102Y1525D01*
X410718Y1525D01*
X410738Y1528D01*
X410757Y1526D01*
X410859Y1548D01*
X410961Y1564D01*
X410978Y1574D01*
X410998Y1578D01*
X411087Y1631D01*
X411178Y1680D01*
X411192Y1694D01*
X411209Y1704D01*
X411276Y1783D01*
X411348Y1858D01*
X411356Y1876D01*
X411369Y1891D01*
X411408Y1987D01*
X411451Y2081D01*
X411453Y2101D01*
X411461Y2119D01*
X411479Y2286D01*
X411479Y72771D01*
X411476Y72791D01*
X411478Y72810D01*
X411456Y72912D01*
X411440Y73014D01*
X411430Y73031D01*
X411426Y73051D01*
X411373Y73140D01*
X411324Y73231D01*
X411310Y73245D01*
X411300Y73262D01*
X411221Y73329D01*
X411146Y73401D01*
X411128Y73409D01*
X411113Y73422D01*
X411017Y73461D01*
X410923Y73504D01*
X410903Y73506D01*
X410885Y73514D01*
X410718Y73532D01*
X281573Y73532D01*
X281502Y73521D01*
X281430Y73519D01*
X281381Y73501D01*
X281330Y73493D01*
X281267Y73459D01*
X281199Y73434D01*
X281159Y73402D01*
X281112Y73377D01*
X281063Y73325D01*
X281007Y73281D01*
X280979Y73237D01*
X280943Y73199D01*
X280913Y73134D01*
X280874Y73074D01*
X280861Y73023D01*
X280839Y72976D01*
X280832Y72905D01*
X280814Y72835D01*
X280818Y72783D01*
X280812Y72732D01*
X280828Y72661D01*
X280833Y72590D01*
X280854Y72542D01*
X280865Y72491D01*
X280901Y72430D01*
X280930Y72364D01*
X280974Y72308D01*
X280991Y72280D01*
X281009Y72265D01*
X281034Y72233D01*
X283580Y69687D01*
X285243Y65673D01*
X285243Y61327D01*
X283580Y57313D01*
X280507Y54240D01*
X276493Y52577D01*
X272147Y52577D01*
X271021Y53044D01*
X270907Y53071D01*
X270794Y53099D01*
X270787Y53099D01*
X270781Y53100D01*
X270665Y53089D01*
X270549Y53080D01*
X270543Y53078D01*
X270536Y53077D01*
X270429Y53029D01*
X270322Y52984D01*
X270316Y52979D01*
X270312Y52977D01*
X270298Y52964D01*
X270191Y52879D01*
X256138Y38825D01*
X256085Y38751D01*
X256025Y38682D01*
X256013Y38652D01*
X255994Y38626D01*
X255967Y38539D01*
X255933Y38454D01*
X255929Y38413D01*
X255922Y38391D01*
X255923Y38358D01*
X255915Y38287D01*
X255915Y37766D01*
X255918Y37746D01*
X255916Y37727D01*
X255938Y37625D01*
X255954Y37523D01*
X255964Y37506D01*
X255968Y37486D01*
X256021Y37397D01*
X256070Y37306D01*
X256084Y37292D01*
X256094Y37275D01*
X256173Y37208D01*
X256248Y37136D01*
X256266Y37128D01*
X256281Y37115D01*
X256377Y37076D01*
X256471Y37033D01*
X256491Y37031D01*
X256509Y37023D01*
X256676Y37005D01*
X259252Y37005D01*
X260145Y36112D01*
X260145Y24848D01*
X259252Y23955D01*
X256676Y23955D01*
X256656Y23952D01*
X256637Y23954D01*
X256535Y23932D01*
X256433Y23916D01*
X256416Y23906D01*
X256396Y23902D01*
X256307Y23849D01*
X256216Y23800D01*
X256202Y23786D01*
X256185Y23776D01*
X256118Y23697D01*
X256046Y23622D01*
X256038Y23604D01*
X256025Y23589D01*
X255986Y23493D01*
X255943Y23399D01*
X255941Y23379D01*
X255933Y23361D01*
X255915Y23194D01*
X255915Y22526D01*
X255918Y22506D01*
X255916Y22487D01*
X255938Y22385D01*
X255954Y22283D01*
X255964Y22266D01*
X255968Y22246D01*
X256021Y22157D01*
X256070Y22066D01*
X256084Y22052D01*
X256094Y22035D01*
X256173Y21968D01*
X256248Y21896D01*
X256266Y21888D01*
X256281Y21875D01*
X256377Y21836D01*
X256471Y21793D01*
X256491Y21791D01*
X256509Y21783D01*
X256676Y21765D01*
X259252Y21765D01*
X260145Y20872D01*
X260145Y9608D01*
X259252Y8715D01*
X246988Y8715D01*
X246095Y9608D01*
X246095Y19304D01*
X246092Y19324D01*
X246094Y19343D01*
X246072Y19445D01*
X246056Y19547D01*
X246046Y19564D01*
X246042Y19584D01*
X245989Y19673D01*
X245940Y19764D01*
X245926Y19778D01*
X245916Y19795D01*
X245837Y19862D01*
X245762Y19934D01*
X245744Y19942D01*
X245729Y19955D01*
X245633Y19994D01*
X245539Y20037D01*
X245519Y20039D01*
X245501Y20047D01*
X245334Y20065D01*
X240233Y20065D01*
X240143Y20051D01*
X240052Y20043D01*
X240022Y20031D01*
X239990Y20026D01*
X239910Y19983D01*
X239826Y19947D01*
X239794Y19921D01*
X239773Y19910D01*
X239751Y19887D01*
X239695Y19842D01*
X231068Y11215D01*
X231015Y11141D01*
X230955Y11072D01*
X230943Y11042D01*
X230924Y11016D01*
X230897Y10929D01*
X230863Y10844D01*
X230859Y10803D01*
X230852Y10781D01*
X230853Y10748D01*
X230845Y10677D01*
X230845Y8497D01*
X230859Y8407D01*
X230867Y8316D01*
X230879Y8286D01*
X230884Y8254D01*
X230927Y8174D01*
X230963Y8090D01*
X230989Y8057D01*
X231000Y8037D01*
X231023Y8015D01*
X231068Y7959D01*
X232154Y6873D01*
X232212Y6831D01*
X232264Y6781D01*
X232311Y6759D01*
X232353Y6729D01*
X232422Y6708D01*
X232487Y6678D01*
X232539Y6672D01*
X232589Y6657D01*
X232660Y6659D01*
X232731Y6651D01*
X232782Y6662D01*
X232834Y6663D01*
X232902Y6688D01*
X232972Y6703D01*
X233017Y6730D01*
X233065Y6748D01*
X233121Y6792D01*
X233183Y6829D01*
X233217Y6869D01*
X233257Y6901D01*
X233296Y6962D01*
X233343Y7016D01*
X233362Y7064D01*
X233390Y7108D01*
X233408Y7178D01*
X233435Y7244D01*
X233437Y7262D01*
X236562Y10387D01*
X240958Y10387D01*
X244067Y7278D01*
X244067Y2758D01*
X244078Y2688D01*
X244080Y2616D01*
X244098Y2567D01*
X244106Y2516D01*
X244140Y2452D01*
X244165Y2385D01*
X244197Y2344D01*
X244222Y2298D01*
X244273Y2249D01*
X244318Y2193D01*
X244362Y2165D01*
X244400Y2129D01*
X244465Y2099D01*
X244525Y2060D01*
X244576Y2047D01*
X244623Y2025D01*
X244694Y2017D01*
X244764Y2000D01*
X244816Y2004D01*
X244867Y1998D01*
X244938Y2013D01*
X245009Y2019D01*
X245057Y2039D01*
X245108Y2050D01*
X245169Y2087D01*
X245235Y2115D01*
X245291Y2160D01*
X245319Y2177D01*
X245334Y2194D01*
X245366Y2220D01*
X245451Y2305D01*
X245475Y2310D01*
X245577Y2326D01*
X245594Y2336D01*
X245614Y2340D01*
X245703Y2393D01*
X245794Y2442D01*
X245808Y2456D01*
X245825Y2466D01*
X245892Y2545D01*
X245964Y2620D01*
X245972Y2638D01*
X245985Y2653D01*
X246024Y2749D01*
X246067Y2843D01*
X246069Y2863D01*
X246077Y2881D01*
X246095Y3048D01*
X246095Y5632D01*
X246988Y6525D01*
X259252Y6525D01*
X260145Y5632D01*
X260145Y-5632D01*
X259252Y-6525D01*
X246988Y-6525D01*
X246095Y-5632D01*
X246095Y-5356D01*
X246084Y-5286D01*
X246082Y-5214D01*
X246064Y-5165D01*
X246056Y-5114D01*
X246022Y-5050D01*
X245997Y-4983D01*
X245965Y-4942D01*
X245940Y-4896D01*
X245889Y-4847D01*
X245844Y-4791D01*
X245800Y-4763D01*
X245762Y-4727D01*
X245697Y-4697D01*
X245637Y-4658D01*
X245586Y-4645D01*
X245539Y-4623D01*
X245468Y-4615D01*
X245398Y-4598D01*
X245346Y-4602D01*
X245295Y-4596D01*
X245224Y-4611D01*
X245153Y-4617D01*
X245105Y-4637D01*
X245054Y-4648D01*
X244993Y-4685D01*
X244927Y-4713D01*
X244871Y-4758D01*
X244843Y-4775D01*
X244828Y-4792D01*
X244796Y-4818D01*
X244290Y-5324D01*
X244237Y-5398D01*
X244177Y-5468D01*
X244165Y-5498D01*
X244146Y-5524D01*
X244119Y-5611D01*
X244085Y-5696D01*
X244081Y-5737D01*
X244074Y-5759D01*
X244075Y-5791D01*
X244067Y-5862D01*
X244067Y-9818D01*
X240958Y-12927D01*
X239543Y-12927D01*
X239452Y-12941D01*
X239362Y-12949D01*
X239332Y-12961D01*
X239300Y-12966D01*
X239219Y-13009D01*
X239135Y-13045D01*
X239103Y-13071D01*
X239082Y-13082D01*
X239060Y-13105D01*
X239004Y-13150D01*
X237717Y-14437D01*
X227186Y-14437D01*
X227166Y-14440D01*
X227147Y-14438D01*
X227045Y-14460D01*
X226943Y-14476D01*
X226926Y-14486D01*
X226906Y-14490D01*
X226817Y-14543D01*
X226726Y-14592D01*
X226712Y-14606D01*
X226695Y-14616D01*
X226628Y-14695D01*
X226556Y-14770D01*
X226548Y-14788D01*
X226535Y-14803D01*
X226496Y-14899D01*
X226453Y-14993D01*
X226451Y-15013D01*
X226443Y-15031D01*
X226437Y-15090D01*
X224952Y-16575D01*
X221956Y-16575D01*
X221936Y-16578D01*
X221917Y-16576D01*
X221815Y-16598D01*
X221713Y-16614D01*
X221696Y-16624D01*
X221676Y-16628D01*
X221587Y-16681D01*
X221496Y-16730D01*
X221482Y-16744D01*
X221465Y-16754D01*
X221398Y-16833D01*
X221326Y-16908D01*
X221318Y-16926D01*
X221305Y-16941D01*
X221266Y-17037D01*
X221223Y-17131D01*
X221221Y-17151D01*
X221213Y-17169D01*
X221195Y-17336D01*
X221195Y-19187D01*
X221191Y-19199D01*
X221193Y-19272D01*
X221185Y-19343D01*
X221196Y-19394D01*
X221197Y-19445D01*
X221222Y-19513D01*
X221237Y-19584D01*
X221263Y-19628D01*
X221281Y-19677D01*
X221326Y-19733D01*
X221363Y-19795D01*
X221402Y-19828D01*
X221434Y-19869D01*
X221495Y-19908D01*
X221550Y-19955D01*
X221598Y-19974D01*
X221641Y-20002D01*
X221711Y-20020D01*
X221778Y-20047D01*
X221849Y-20055D01*
X221880Y-20062D01*
X221903Y-20061D01*
X221945Y-20065D01*
X245334Y-20065D01*
X245354Y-20062D01*
X245373Y-20064D01*
X245475Y-20042D01*
X245577Y-20026D01*
X245594Y-20016D01*
X245614Y-20012D01*
X245703Y-19959D01*
X245794Y-19910D01*
X245808Y-19896D01*
X245825Y-19886D01*
X245892Y-19807D01*
X245964Y-19732D01*
X245972Y-19714D01*
X245985Y-19699D01*
X246024Y-19603D01*
X246067Y-19509D01*
X246069Y-19489D01*
X246077Y-19471D01*
X246095Y-19304D01*
X246095Y-9608D01*
X246988Y-8715D01*
X259252Y-8715D01*
X260145Y-9608D01*
X260145Y-20872D01*
X259252Y-21765D01*
X256676Y-21765D01*
X256656Y-21768D01*
X256637Y-21766D01*
X256535Y-21788D01*
X256433Y-21804D01*
X256416Y-21814D01*
X256396Y-21818D01*
X256307Y-21871D01*
X256216Y-21920D01*
X256202Y-21934D01*
X256185Y-21944D01*
X256118Y-22023D01*
X256046Y-22098D01*
X256038Y-22116D01*
X256025Y-22131D01*
X255986Y-22227D01*
X255943Y-22321D01*
X255941Y-22341D01*
X255933Y-22359D01*
X255915Y-22526D01*
X255915Y-23194D01*
X255918Y-23214D01*
X255916Y-23233D01*
X255938Y-23335D01*
X255954Y-23437D01*
X255964Y-23454D01*
X255968Y-23474D01*
X256021Y-23563D01*
X256070Y-23654D01*
X256084Y-23668D01*
X256094Y-23685D01*
X256173Y-23752D01*
X256248Y-23824D01*
X256266Y-23832D01*
X256281Y-23845D01*
X256377Y-23884D01*
X256471Y-23927D01*
X256491Y-23929D01*
X256509Y-23937D01*
X256676Y-23955D01*
X259252Y-23955D01*
X260145Y-24848D01*
X260145Y-36112D01*
X259252Y-37005D01*
X246988Y-37005D01*
X246095Y-36112D01*
X246095Y-26416D01*
X246092Y-26396D01*
X246094Y-26377D01*
X246072Y-26275D01*
X246056Y-26173D01*
X246046Y-26156D01*
X246042Y-26136D01*
X245989Y-26047D01*
X245940Y-25956D01*
X245926Y-25942D01*
X245916Y-25925D01*
X245837Y-25858D01*
X245762Y-25786D01*
X245744Y-25778D01*
X245729Y-25765D01*
X245633Y-25726D01*
X245539Y-25683D01*
X245519Y-25681D01*
X245501Y-25673D01*
X245334Y-25655D01*
X243277Y-25655D01*
X243207Y-25666D01*
X243135Y-25668D01*
X243086Y-25686D01*
X243035Y-25694D01*
X242971Y-25728D01*
X242904Y-25753D01*
X242863Y-25785D01*
X242817Y-25810D01*
X242768Y-25862D01*
X242712Y-25906D01*
X242684Y-25950D01*
X242648Y-25988D01*
X242618Y-26053D01*
X242579Y-26113D01*
X242566Y-26164D01*
X242544Y-26211D01*
X242536Y-26282D01*
X242519Y-26352D01*
X242523Y-26404D01*
X242517Y-26455D01*
X242532Y-26526D01*
X242538Y-26597D01*
X242558Y-26645D01*
X242569Y-26696D01*
X242606Y-26757D01*
X242634Y-26823D01*
X242679Y-26879D01*
X242696Y-26907D01*
X242713Y-26922D01*
X242739Y-26954D01*
X244067Y-28282D01*
X244067Y-32678D01*
X240958Y-35787D01*
X236562Y-35787D01*
X233453Y-32678D01*
X233453Y-28282D01*
X234781Y-26954D01*
X234823Y-26896D01*
X234872Y-26844D01*
X234894Y-26797D01*
X234924Y-26755D01*
X234946Y-26686D01*
X234976Y-26621D01*
X234981Y-26569D01*
X234997Y-26519D01*
X234995Y-26448D01*
X235003Y-26377D01*
X234992Y-26326D01*
X234990Y-26274D01*
X234966Y-26206D01*
X234951Y-26136D01*
X234924Y-26091D01*
X234906Y-26043D01*
X234861Y-25987D01*
X234824Y-25925D01*
X234785Y-25891D01*
X234752Y-25851D01*
X234692Y-25812D01*
X234637Y-25765D01*
X234589Y-25746D01*
X234545Y-25718D01*
X234476Y-25700D01*
X234409Y-25673D01*
X234338Y-25665D01*
X234307Y-25657D01*
X234284Y-25659D01*
X234243Y-25655D01*
X217282Y-25655D01*
X210605Y-18978D01*
X210605Y-17336D01*
X210602Y-17316D01*
X210604Y-17297D01*
X210582Y-17195D01*
X210566Y-17093D01*
X210556Y-17076D01*
X210552Y-17056D01*
X210499Y-16967D01*
X210450Y-16876D01*
X210436Y-16862D01*
X210426Y-16845D01*
X210347Y-16778D01*
X210272Y-16706D01*
X210254Y-16698D01*
X210239Y-16685D01*
X210143Y-16646D01*
X210049Y-16603D01*
X210029Y-16601D01*
X210011Y-16593D01*
X209844Y-16575D01*
X206848Y-16575D01*
X205358Y-15085D01*
X205352Y-15057D01*
X205336Y-14955D01*
X205326Y-14938D01*
X205322Y-14918D01*
X205269Y-14829D01*
X205220Y-14738D01*
X205206Y-14724D01*
X205196Y-14707D01*
X205117Y-14640D01*
X205042Y-14568D01*
X205024Y-14560D01*
X205009Y-14547D01*
X204913Y-14508D01*
X204819Y-14465D01*
X204799Y-14463D01*
X204781Y-14455D01*
X204614Y-14437D01*
X199383Y-14437D01*
X199292Y-14451D01*
X199202Y-14459D01*
X199172Y-14471D01*
X199140Y-14476D01*
X199059Y-14519D01*
X198975Y-14555D01*
X198943Y-14581D01*
X198922Y-14592D01*
X198900Y-14615D01*
X198844Y-14660D01*
X195977Y-17527D01*
X186466Y-17527D01*
X186446Y-17530D01*
X186427Y-17528D01*
X186325Y-17550D01*
X186223Y-17566D01*
X186206Y-17576D01*
X186186Y-17580D01*
X186097Y-17633D01*
X186006Y-17682D01*
X185992Y-17696D01*
X185975Y-17706D01*
X185908Y-17785D01*
X185836Y-17860D01*
X185828Y-17878D01*
X185815Y-17893D01*
X185776Y-17989D01*
X185733Y-18083D01*
X185731Y-18103D01*
X185723Y-18121D01*
X185705Y-18288D01*
X185705Y-20872D01*
X184812Y-21765D01*
X172548Y-21765D01*
X171655Y-20872D01*
X171655Y-9608D01*
X172548Y-8715D01*
X184812Y-8715D01*
X185705Y-9608D01*
X185705Y-12192D01*
X185708Y-12212D01*
X185706Y-12231D01*
X185728Y-12333D01*
X185744Y-12435D01*
X185754Y-12452D01*
X185758Y-12472D01*
X185811Y-12561D01*
X185860Y-12652D01*
X185874Y-12666D01*
X185884Y-12683D01*
X185963Y-12750D01*
X186038Y-12822D01*
X186056Y-12830D01*
X186071Y-12843D01*
X186167Y-12882D01*
X186261Y-12925D01*
X186281Y-12927D01*
X186299Y-12935D01*
X186466Y-12953D01*
X193767Y-12953D01*
X193858Y-12939D01*
X193948Y-12931D01*
X193978Y-12919D01*
X194010Y-12914D01*
X194091Y-12871D01*
X194175Y-12835D01*
X194207Y-12809D01*
X194228Y-12798D01*
X194250Y-12775D01*
X194306Y-12730D01*
X195610Y-11426D01*
X195663Y-11352D01*
X195723Y-11282D01*
X195735Y-11252D01*
X195754Y-11226D01*
X195781Y-11139D01*
X195815Y-11054D01*
X195819Y-11013D01*
X195826Y-10991D01*
X195825Y-10959D01*
X195833Y-10887D01*
X195833Y-6343D01*
X195819Y-6252D01*
X195811Y-6162D01*
X195799Y-6132D01*
X195794Y-6100D01*
X195751Y-6019D01*
X195715Y-5935D01*
X195689Y-5903D01*
X195678Y-5882D01*
X195655Y-5860D01*
X195610Y-5804D01*
X195336Y-5530D01*
X195262Y-5477D01*
X195192Y-5417D01*
X195162Y-5405D01*
X195136Y-5386D01*
X195049Y-5359D01*
X194964Y-5325D01*
X194923Y-5321D01*
X194901Y-5314D01*
X194869Y-5315D01*
X194797Y-5307D01*
X190842Y-5307D01*
X187733Y-2198D01*
X187733Y2198D01*
X190842Y5307D01*
X195238Y5307D01*
X198347Y2198D01*
X198347Y-1757D01*
X198361Y-1848D01*
X198369Y-1938D01*
X198381Y-1968D01*
X198386Y-2000D01*
X198429Y-2081D01*
X198465Y-2165D01*
X198491Y-2197D01*
X198502Y-2218D01*
X198525Y-2240D01*
X198570Y-2296D01*
X198764Y-2490D01*
X198838Y-2543D01*
X198908Y-2603D01*
X198938Y-2615D01*
X198964Y-2634D01*
X199051Y-2661D01*
X199136Y-2695D01*
X199177Y-2699D01*
X199199Y-2706D01*
X199231Y-2705D01*
X199303Y-2713D01*
X199745Y-2713D01*
X199835Y-2699D01*
X199926Y-2691D01*
X199956Y-2679D01*
X199988Y-2674D01*
X200068Y-2631D01*
X200152Y-2595D01*
X200184Y-2569D01*
X200205Y-2558D01*
X200227Y-2535D01*
X200283Y-2490D01*
X200798Y-1975D01*
X206702Y-1975D01*
X208175Y-3448D01*
X208175Y-6601D01*
X208157Y-6625D01*
X208136Y-6694D01*
X208106Y-6759D01*
X208100Y-6811D01*
X208085Y-6860D01*
X208087Y-6932D01*
X208079Y-7003D01*
X208090Y-7054D01*
X208091Y-7106D01*
X208116Y-7174D01*
X208131Y-7244D01*
X208158Y-7289D01*
X208175Y-7337D01*
X208220Y-7393D01*
X208257Y-7455D01*
X208297Y-7489D01*
X208329Y-7529D01*
X208389Y-7568D01*
X208444Y-7615D01*
X208492Y-7634D01*
X208536Y-7662D01*
X208605Y-7680D01*
X208672Y-7707D01*
X208743Y-7715D01*
X208775Y-7723D01*
X208798Y-7721D01*
X208839Y-7725D01*
X209952Y-7725D01*
X210362Y-8135D01*
X210378Y-8147D01*
X210390Y-8163D01*
X210477Y-8219D01*
X210561Y-8279D01*
X210580Y-8285D01*
X210597Y-8296D01*
X210698Y-8321D01*
X210797Y-8351D01*
X210816Y-8351D01*
X210836Y-8356D01*
X210939Y-8348D01*
X211042Y-8345D01*
X211061Y-8338D01*
X211081Y-8336D01*
X211176Y-8296D01*
X211273Y-8260D01*
X211289Y-8248D01*
X211307Y-8240D01*
X211438Y-8135D01*
X211848Y-7725D01*
X214952Y-7725D01*
X215362Y-8135D01*
X215378Y-8147D01*
X215390Y-8163D01*
X215477Y-8219D01*
X215561Y-8279D01*
X215580Y-8285D01*
X215597Y-8296D01*
X215698Y-8321D01*
X215797Y-8351D01*
X215816Y-8351D01*
X215836Y-8356D01*
X215939Y-8348D01*
X216042Y-8345D01*
X216061Y-8338D01*
X216081Y-8336D01*
X216176Y-8296D01*
X216273Y-8260D01*
X216289Y-8248D01*
X216307Y-8240D01*
X216438Y-8135D01*
X216848Y-7725D01*
X219952Y-7725D01*
X220362Y-8135D01*
X220378Y-8147D01*
X220390Y-8163D01*
X220477Y-8219D01*
X220561Y-8279D01*
X220580Y-8285D01*
X220597Y-8296D01*
X220698Y-8321D01*
X220797Y-8351D01*
X220816Y-8351D01*
X220836Y-8356D01*
X220939Y-8348D01*
X221042Y-8345D01*
X221061Y-8338D01*
X221081Y-8336D01*
X221176Y-8296D01*
X221273Y-8260D01*
X221289Y-8248D01*
X221307Y-8240D01*
X221438Y-8135D01*
X221848Y-7725D01*
X222961Y-7725D01*
X223032Y-7714D01*
X223104Y-7712D01*
X223153Y-7694D01*
X223204Y-7686D01*
X223267Y-7652D01*
X223335Y-7627D01*
X223375Y-7595D01*
X223421Y-7570D01*
X223471Y-7518D01*
X223527Y-7474D01*
X223555Y-7430D01*
X223591Y-7392D01*
X223621Y-7327D01*
X223660Y-7267D01*
X223672Y-7216D01*
X223694Y-7169D01*
X223702Y-7098D01*
X223720Y-7028D01*
X223716Y-6976D01*
X223721Y-6925D01*
X223706Y-6854D01*
X223700Y-6783D01*
X223680Y-6735D01*
X223669Y-6684D01*
X223632Y-6623D01*
X223625Y-6606D01*
X223625Y-3448D01*
X224035Y-3038D01*
X224047Y-3022D01*
X224063Y-3010D01*
X224119Y-2923D01*
X224179Y-2839D01*
X224185Y-2820D01*
X224196Y-2803D01*
X224221Y-2702D01*
X224251Y-2603D01*
X224251Y-2584D01*
X224256Y-2564D01*
X224248Y-2461D01*
X224245Y-2358D01*
X224238Y-2339D01*
X224236Y-2319D01*
X224196Y-2224D01*
X224160Y-2127D01*
X224148Y-2111D01*
X224140Y-2093D01*
X224035Y-1962D01*
X223625Y-1552D01*
X223625Y1552D01*
X224035Y1962D01*
X224047Y1978D01*
X224063Y1990D01*
X224119Y2077D01*
X224179Y2161D01*
X224185Y2180D01*
X224196Y2197D01*
X224221Y2298D01*
X224251Y2397D01*
X224251Y2416D01*
X224256Y2436D01*
X224248Y2539D01*
X224245Y2642D01*
X224238Y2661D01*
X224236Y2681D01*
X224196Y2776D01*
X224160Y2873D01*
X224148Y2889D01*
X224140Y2907D01*
X224035Y3038D01*
X223625Y3448D01*
X223625Y6601D01*
X223643Y6625D01*
X223664Y6694D01*
X223694Y6759D01*
X223700Y6811D01*
X223715Y6860D01*
X223713Y6932D01*
X223721Y7003D01*
X223710Y7054D01*
X223709Y7106D01*
X223684Y7174D01*
X223669Y7244D01*
X223642Y7289D01*
X223625Y7337D01*
X223580Y7393D01*
X223543Y7455D01*
X223503Y7489D01*
X223471Y7529D01*
X223411Y7568D01*
X223356Y7615D01*
X223308Y7634D01*
X223264Y7662D01*
X223195Y7680D01*
X223128Y7707D01*
X223057Y7715D01*
X223025Y7723D01*
X223002Y7721D01*
X222961Y7725D01*
X221848Y7725D01*
X221438Y8135D01*
X221422Y8147D01*
X221410Y8163D01*
X221323Y8219D01*
X221239Y8279D01*
X221220Y8285D01*
X221203Y8296D01*
X221102Y8321D01*
X221003Y8351D01*
X220984Y8351D01*
X220964Y8356D01*
X220861Y8348D01*
X220758Y8345D01*
X220739Y8338D01*
X220719Y8336D01*
X220624Y8296D01*
X220527Y8260D01*
X220511Y8248D01*
X220493Y8240D01*
X220362Y8135D01*
X219952Y7725D01*
X216848Y7725D01*
X216438Y8135D01*
X216422Y8147D01*
X216410Y8163D01*
X216323Y8219D01*
X216239Y8279D01*
X216220Y8285D01*
X216203Y8296D01*
X216102Y8321D01*
X216003Y8351D01*
X215984Y8351D01*
X215964Y8356D01*
X215861Y8348D01*
X215758Y8345D01*
X215739Y8338D01*
X215719Y8336D01*
X215624Y8296D01*
X215527Y8260D01*
X215511Y8248D01*
X215493Y8240D01*
X215362Y8135D01*
X214952Y7725D01*
X211848Y7725D01*
X211438Y8135D01*
X211422Y8147D01*
X211410Y8163D01*
X211323Y8219D01*
X211239Y8279D01*
X211220Y8285D01*
X211203Y8296D01*
X211102Y8321D01*
X211003Y8351D01*
X210984Y8351D01*
X210964Y8356D01*
X210861Y8348D01*
X210758Y8345D01*
X210739Y8338D01*
X210719Y8336D01*
X210624Y8296D01*
X210527Y8260D01*
X210511Y8248D01*
X210493Y8240D01*
X210362Y8135D01*
X209952Y7725D01*
X206848Y7725D01*
X205263Y9310D01*
X205189Y9363D01*
X205120Y9423D01*
X205090Y9435D01*
X205064Y9454D01*
X204977Y9481D01*
X204892Y9515D01*
X204851Y9519D01*
X204829Y9526D01*
X204796Y9525D01*
X204725Y9533D01*
X191762Y9533D01*
X191672Y9519D01*
X191581Y9511D01*
X191552Y9499D01*
X191520Y9494D01*
X191439Y9451D01*
X191355Y9415D01*
X191323Y9389D01*
X191302Y9378D01*
X191280Y9355D01*
X191224Y9310D01*
X185928Y4014D01*
X185875Y3940D01*
X185815Y3870D01*
X185803Y3840D01*
X185784Y3814D01*
X185757Y3727D01*
X185723Y3642D01*
X185719Y3601D01*
X185712Y3579D01*
X185713Y3547D01*
X185705Y3476D01*
X185705Y-5632D01*
X184812Y-6525D01*
X172548Y-6525D01*
X171655Y-5632D01*
X171655Y5632D01*
X172548Y6525D01*
X181656Y6525D01*
X181746Y6539D01*
X181837Y6547D01*
X181866Y6559D01*
X181898Y6564D01*
X181979Y6607D01*
X182063Y6643D01*
X182095Y6669D01*
X182116Y6680D01*
X182138Y6703D01*
X182194Y6748D01*
X182862Y7416D01*
X182904Y7474D01*
X182953Y7526D01*
X182975Y7573D01*
X183005Y7615D01*
X183026Y7684D01*
X183057Y7749D01*
X183062Y7801D01*
X183078Y7851D01*
X183076Y7922D01*
X183084Y7993D01*
X183073Y8044D01*
X183071Y8096D01*
X183047Y8164D01*
X183032Y8234D01*
X183005Y8278D01*
X182987Y8327D01*
X182942Y8383D01*
X182905Y8445D01*
X182866Y8479D01*
X182833Y8519D01*
X182773Y8558D01*
X182718Y8605D01*
X182670Y8624D01*
X182626Y8652D01*
X182557Y8670D01*
X182490Y8697D01*
X182419Y8705D01*
X182388Y8713D01*
X182364Y8711D01*
X182324Y8715D01*
X172548Y8715D01*
X171655Y9608D01*
X171655Y20872D01*
X172548Y21765D01*
X184812Y21765D01*
X185705Y20872D01*
X185705Y18288D01*
X185708Y18268D01*
X185706Y18249D01*
X185728Y18147D01*
X185744Y18045D01*
X185754Y18028D01*
X185758Y18008D01*
X185811Y17919D01*
X185860Y17828D01*
X185874Y17814D01*
X185884Y17797D01*
X185963Y17730D01*
X186038Y17658D01*
X186056Y17650D01*
X186071Y17637D01*
X186167Y17598D01*
X186261Y17555D01*
X186281Y17553D01*
X186299Y17545D01*
X186466Y17527D01*
X186697Y17527D01*
X186788Y17541D01*
X186878Y17549D01*
X186908Y17561D01*
X186940Y17566D01*
X187021Y17609D01*
X187105Y17645D01*
X187137Y17671D01*
X187158Y17682D01*
X187180Y17705D01*
X187236Y17750D01*
X193360Y23874D01*
X193402Y23932D01*
X193451Y23984D01*
X193473Y24031D01*
X193503Y24073D01*
X193524Y24142D01*
X193555Y24207D01*
X193560Y24259D01*
X193576Y24309D01*
X193574Y24380D01*
X193582Y24451D01*
X193571Y24502D01*
X193569Y24554D01*
X193545Y24622D01*
X193530Y24692D01*
X193503Y24737D01*
X193485Y24785D01*
X193440Y24841D01*
X193403Y24903D01*
X193364Y24937D01*
X193331Y24977D01*
X193271Y25016D01*
X193216Y25063D01*
X193168Y25082D01*
X193124Y25110D01*
X193055Y25128D01*
X192988Y25155D01*
X192917Y25163D01*
X192886Y25171D01*
X192862Y25169D01*
X192822Y25173D01*
X190842Y25173D01*
X188045Y27970D01*
X187971Y28023D01*
X187901Y28083D01*
X187871Y28095D01*
X187845Y28114D01*
X187758Y28141D01*
X187673Y28175D01*
X187632Y28179D01*
X187610Y28186D01*
X187578Y28185D01*
X187507Y28193D01*
X186466Y28193D01*
X186446Y28190D01*
X186427Y28192D01*
X186325Y28170D01*
X186223Y28154D01*
X186206Y28144D01*
X186186Y28140D01*
X186097Y28087D01*
X186006Y28038D01*
X185992Y28024D01*
X185975Y28014D01*
X185908Y27935D01*
X185836Y27860D01*
X185828Y27842D01*
X185815Y27827D01*
X185776Y27731D01*
X185733Y27637D01*
X185731Y27617D01*
X185723Y27599D01*
X185705Y27432D01*
X185705Y24848D01*
X184812Y23955D01*
X172548Y23955D01*
X171655Y24848D01*
X171655Y34665D01*
X171644Y34736D01*
X171642Y34808D01*
X171624Y34857D01*
X171616Y34908D01*
X171582Y34971D01*
X171557Y35039D01*
X171525Y35079D01*
X171500Y35125D01*
X171448Y35175D01*
X171404Y35231D01*
X171360Y35259D01*
X171322Y35295D01*
X171257Y35325D01*
X171197Y35364D01*
X171146Y35376D01*
X171099Y35398D01*
X171028Y35406D01*
X170958Y35424D01*
X170906Y35420D01*
X170855Y35425D01*
X170784Y35410D01*
X170713Y35405D01*
X170665Y35384D01*
X170614Y35373D01*
X170553Y35336D01*
X170487Y35308D01*
X170431Y35263D01*
X170403Y35247D01*
X170388Y35229D01*
X170356Y35203D01*
X168928Y33775D01*
X168875Y33701D01*
X168815Y33632D01*
X168803Y33602D01*
X168784Y33576D01*
X168757Y33488D01*
X168723Y33404D01*
X168719Y33363D01*
X168712Y33341D01*
X168713Y33308D01*
X168705Y33237D01*
X168705Y24848D01*
X167812Y23955D01*
X165236Y23955D01*
X165216Y23952D01*
X165197Y23954D01*
X165095Y23932D01*
X164993Y23916D01*
X164976Y23906D01*
X164956Y23902D01*
X164867Y23849D01*
X164776Y23800D01*
X164762Y23786D01*
X164745Y23776D01*
X164678Y23697D01*
X164606Y23622D01*
X164598Y23604D01*
X164585Y23589D01*
X164546Y23493D01*
X164503Y23399D01*
X164501Y23379D01*
X164493Y23361D01*
X164475Y23194D01*
X164475Y22526D01*
X164478Y22506D01*
X164476Y22487D01*
X164498Y22385D01*
X164514Y22283D01*
X164524Y22266D01*
X164528Y22246D01*
X164581Y22157D01*
X164630Y22066D01*
X164644Y22052D01*
X164654Y22035D01*
X164733Y21968D01*
X164808Y21896D01*
X164826Y21888D01*
X164841Y21875D01*
X164937Y21836D01*
X165031Y21793D01*
X165051Y21791D01*
X165069Y21783D01*
X165236Y21765D01*
X167812Y21765D01*
X168705Y20872D01*
X168705Y9608D01*
X167812Y8715D01*
X165236Y8715D01*
X165216Y8712D01*
X165197Y8714D01*
X165095Y8692D01*
X164993Y8676D01*
X164976Y8666D01*
X164956Y8662D01*
X164867Y8609D01*
X164776Y8560D01*
X164762Y8546D01*
X164745Y8536D01*
X164678Y8457D01*
X164606Y8382D01*
X164598Y8364D01*
X164585Y8349D01*
X164546Y8253D01*
X164503Y8159D01*
X164501Y8139D01*
X164493Y8121D01*
X164475Y7954D01*
X164475Y7286D01*
X164478Y7266D01*
X164476Y7247D01*
X164498Y7145D01*
X164514Y7043D01*
X164524Y7026D01*
X164528Y7006D01*
X164581Y6917D01*
X164630Y6826D01*
X164644Y6812D01*
X164654Y6795D01*
X164733Y6728D01*
X164808Y6656D01*
X164826Y6648D01*
X164841Y6635D01*
X164937Y6596D01*
X165031Y6553D01*
X165051Y6551D01*
X165069Y6543D01*
X165236Y6525D01*
X167812Y6525D01*
X168705Y5632D01*
X168705Y-5632D01*
X167812Y-6525D01*
X155548Y-6525D01*
X154655Y-5632D01*
X154655Y5632D01*
X155548Y6525D01*
X158124Y6525D01*
X158144Y6528D01*
X158163Y6526D01*
X158265Y6548D01*
X158367Y6564D01*
X158384Y6574D01*
X158404Y6578D01*
X158493Y6631D01*
X158584Y6680D01*
X158598Y6694D01*
X158615Y6704D01*
X158682Y6783D01*
X158754Y6858D01*
X158762Y6876D01*
X158775Y6891D01*
X158814Y6987D01*
X158857Y7081D01*
X158859Y7101D01*
X158867Y7119D01*
X158885Y7286D01*
X158885Y7954D01*
X158884Y7961D01*
X158884Y7963D01*
X158882Y7974D01*
X158884Y7993D01*
X158862Y8095D01*
X158846Y8197D01*
X158836Y8214D01*
X158832Y8234D01*
X158779Y8323D01*
X158730Y8414D01*
X158716Y8428D01*
X158706Y8445D01*
X158627Y8512D01*
X158552Y8584D01*
X158534Y8592D01*
X158519Y8605D01*
X158423Y8644D01*
X158329Y8687D01*
X158309Y8689D01*
X158291Y8697D01*
X158124Y8715D01*
X155548Y8715D01*
X154655Y9608D01*
X154655Y20872D01*
X155548Y21765D01*
X158124Y21765D01*
X158144Y21768D01*
X158163Y21766D01*
X158265Y21788D01*
X158367Y21804D01*
X158384Y21814D01*
X158404Y21818D01*
X158493Y21871D01*
X158584Y21920D01*
X158598Y21934D01*
X158615Y21944D01*
X158682Y22023D01*
X158754Y22098D01*
X158762Y22116D01*
X158775Y22131D01*
X158814Y22227D01*
X158857Y22321D01*
X158859Y22341D01*
X158867Y22359D01*
X158885Y22526D01*
X158885Y23194D01*
X158882Y23214D01*
X158884Y23233D01*
X158862Y23335D01*
X158846Y23437D01*
X158836Y23454D01*
X158832Y23474D01*
X158779Y23563D01*
X158730Y23654D01*
X158716Y23668D01*
X158706Y23685D01*
X158627Y23752D01*
X158552Y23824D01*
X158534Y23832D01*
X158519Y23845D01*
X158423Y23884D01*
X158329Y23927D01*
X158309Y23929D01*
X158291Y23937D01*
X158124Y23955D01*
X155548Y23955D01*
X154655Y24848D01*
X154655Y36112D01*
X155548Y37005D01*
X163937Y37005D01*
X164027Y37019D01*
X164118Y37027D01*
X164148Y37039D01*
X164180Y37044D01*
X164260Y37087D01*
X164344Y37123D01*
X164376Y37149D01*
X164397Y37160D01*
X164419Y37183D01*
X164475Y37228D01*
X169702Y42455D01*
X169755Y42529D01*
X169815Y42598D01*
X169827Y42628D01*
X169846Y42654D01*
X169873Y42741D01*
X169907Y42826D01*
X169911Y42867D01*
X169918Y42889D01*
X169917Y42922D01*
X169925Y42993D01*
X169925Y52326D01*
X169906Y52441D01*
X169889Y52557D01*
X169887Y52563D01*
X169886Y52569D01*
X169831Y52672D01*
X169778Y52776D01*
X169773Y52781D01*
X169770Y52786D01*
X169686Y52866D01*
X169602Y52949D01*
X169596Y52952D01*
X169592Y52956D01*
X169575Y52964D01*
X169455Y53030D01*
X166533Y54240D01*
X163460Y57313D01*
X161797Y61327D01*
X161797Y65673D01*
X163460Y69687D01*
X166006Y72233D01*
X166048Y72291D01*
X166097Y72343D01*
X166119Y72390D01*
X166149Y72432D01*
X166170Y72501D01*
X166201Y72566D01*
X166206Y72618D01*
X166222Y72668D01*
X166220Y72739D01*
X166228Y72810D01*
X166217Y72861D01*
X166215Y72913D01*
X166191Y72981D01*
X166175Y73051D01*
X166149Y73096D01*
X166131Y73144D01*
X166086Y73200D01*
X166049Y73262D01*
X166010Y73296D01*
X165977Y73336D01*
X165917Y73375D01*
X165862Y73422D01*
X165814Y73441D01*
X165770Y73469D01*
X165701Y73487D01*
X165634Y73514D01*
X165563Y73522D01*
X165532Y73530D01*
X165508Y73528D01*
X165467Y73532D01*
X154573Y73532D01*
X154502Y73521D01*
X154430Y73519D01*
X154381Y73501D01*
X154330Y73493D01*
X154267Y73459D01*
X154199Y73434D01*
X154159Y73402D01*
X154112Y73377D01*
X154063Y73325D01*
X154007Y73281D01*
X153979Y73237D01*
X153943Y73199D01*
X153913Y73134D01*
X153874Y73074D01*
X153861Y73023D01*
X153839Y72976D01*
X153832Y72905D01*
X153814Y72835D01*
X153818Y72783D01*
X153812Y72732D01*
X153828Y72661D01*
X153833Y72590D01*
X153854Y72542D01*
X153865Y72491D01*
X153901Y72430D01*
X153930Y72364D01*
X153974Y72308D01*
X153991Y72280D01*
X154009Y72265D01*
X154034Y72233D01*
X156580Y69687D01*
X158243Y65673D01*
X158243Y61327D01*
X156580Y57313D01*
X153507Y54240D01*
X150077Y52819D01*
X149977Y52758D01*
X149877Y52698D01*
X149873Y52693D01*
X149868Y52690D01*
X149793Y52600D01*
X149717Y52511D01*
X149715Y52505D01*
X149711Y52500D01*
X149669Y52392D01*
X149625Y52283D01*
X149624Y52275D01*
X149623Y52270D01*
X149622Y52252D01*
X149607Y52116D01*
X149607Y6673D01*
X148044Y5110D01*
X139670Y-3264D01*
X138107Y-4827D01*
X134927Y-4827D01*
X134856Y-4838D01*
X134784Y-4840D01*
X134735Y-4858D01*
X134684Y-4866D01*
X134621Y-4900D01*
X134553Y-4925D01*
X134513Y-4957D01*
X134467Y-4982D01*
X134417Y-5034D01*
X134361Y-5078D01*
X134333Y-5122D01*
X134297Y-5160D01*
X134267Y-5225D01*
X134228Y-5285D01*
X134215Y-5336D01*
X134194Y-5383D01*
X134186Y-5454D01*
X134168Y-5524D01*
X134172Y-5576D01*
X134166Y-5627D01*
X134182Y-5698D01*
X134187Y-5769D01*
X134208Y-5817D01*
X134219Y-5868D01*
X134255Y-5929D01*
X134284Y-5995D01*
X134328Y-6051D01*
X134345Y-6079D01*
X134363Y-6094D01*
X134388Y-6126D01*
X135695Y-7433D01*
X135695Y-18569D01*
X133738Y-20526D01*
X129102Y-20526D01*
X127145Y-18569D01*
X127145Y-7433D01*
X128452Y-6126D01*
X128493Y-6068D01*
X128543Y-6016D01*
X128565Y-5969D01*
X128595Y-5927D01*
X128616Y-5858D01*
X128646Y-5793D01*
X128652Y-5741D01*
X128668Y-5691D01*
X128666Y-5620D01*
X128674Y-5549D01*
X128663Y-5498D01*
X128661Y-5446D01*
X128637Y-5378D01*
X128621Y-5308D01*
X128595Y-5263D01*
X128577Y-5215D01*
X128532Y-5159D01*
X128495Y-5097D01*
X128456Y-5063D01*
X128423Y-5023D01*
X128363Y-4984D01*
X128308Y-4937D01*
X128260Y-4918D01*
X128216Y-4890D01*
X128147Y-4872D01*
X128080Y-4845D01*
X128009Y-4837D01*
X127978Y-4829D01*
X127954Y-4831D01*
X127913Y-4827D01*
X115927Y-4827D01*
X115856Y-4838D01*
X115784Y-4840D01*
X115735Y-4858D01*
X115684Y-4866D01*
X115621Y-4900D01*
X115553Y-4925D01*
X115513Y-4957D01*
X115467Y-4982D01*
X115417Y-5034D01*
X115361Y-5078D01*
X115333Y-5122D01*
X115297Y-5160D01*
X115267Y-5225D01*
X115228Y-5285D01*
X115215Y-5336D01*
X115194Y-5383D01*
X115186Y-5454D01*
X115168Y-5524D01*
X115172Y-5576D01*
X115166Y-5627D01*
X115182Y-5698D01*
X115187Y-5769D01*
X115208Y-5817D01*
X115219Y-5868D01*
X115255Y-5929D01*
X115284Y-5995D01*
X115328Y-6051D01*
X115345Y-6079D01*
X115363Y-6094D01*
X115388Y-6126D01*
X116695Y-7433D01*
X116695Y-18569D01*
X114738Y-20526D01*
X110102Y-20526D01*
X108145Y-18569D01*
X108145Y-18037D01*
X108134Y-17967D01*
X108132Y-17895D01*
X108114Y-17846D01*
X108106Y-17795D01*
X108072Y-17731D01*
X108047Y-17664D01*
X108015Y-17623D01*
X107990Y-17577D01*
X107938Y-17528D01*
X107894Y-17472D01*
X107850Y-17444D01*
X107812Y-17408D01*
X107747Y-17378D01*
X107687Y-17339D01*
X107636Y-17326D01*
X107589Y-17304D01*
X107518Y-17296D01*
X107448Y-17279D01*
X107396Y-17283D01*
X107345Y-17277D01*
X107274Y-17292D01*
X107203Y-17298D01*
X107155Y-17318D01*
X107104Y-17329D01*
X107043Y-17366D01*
X106977Y-17394D01*
X106921Y-17439D01*
X106893Y-17456D01*
X106878Y-17473D01*
X106846Y-17499D01*
X106338Y-18007D01*
X101942Y-18007D01*
X100614Y-16679D01*
X100556Y-16637D01*
X100504Y-16588D01*
X100457Y-16566D01*
X100415Y-16536D01*
X100346Y-16514D01*
X100281Y-16484D01*
X100229Y-16479D01*
X100179Y-16463D01*
X100108Y-16465D01*
X100037Y-16457D01*
X99986Y-16468D01*
X99934Y-16470D01*
X99866Y-16494D01*
X99796Y-16509D01*
X99751Y-16536D01*
X99703Y-16554D01*
X99647Y-16599D01*
X99585Y-16636D01*
X99551Y-16675D01*
X99511Y-16708D01*
X99472Y-16768D01*
X99425Y-16823D01*
X99406Y-16871D01*
X99378Y-16915D01*
X99360Y-16984D01*
X99333Y-17051D01*
X99325Y-17122D01*
X99317Y-17153D01*
X99319Y-17176D01*
X99315Y-17217D01*
X99315Y-26558D01*
X95584Y-30289D01*
X94878Y-29583D01*
X94799Y-29522D01*
X94727Y-29454D01*
X94674Y-29425D01*
X94626Y-29388D01*
X94535Y-29348D01*
X94449Y-29300D01*
X94390Y-29285D01*
X94334Y-29261D01*
X94236Y-29246D01*
X94141Y-29221D01*
X94041Y-29215D01*
X94020Y-29211D01*
X94008Y-29213D01*
X93980Y-29211D01*
X68737Y-29211D01*
X68708Y-29214D01*
X68678Y-29212D01*
X68551Y-29234D01*
X68422Y-29251D01*
X68394Y-29261D01*
X68365Y-29267D01*
X68247Y-29320D01*
X68126Y-29368D01*
X68102Y-29385D01*
X68075Y-29397D01*
X67974Y-29478D01*
X67869Y-29554D01*
X67850Y-29577D01*
X67827Y-29596D01*
X67749Y-29699D01*
X67666Y-29799D01*
X67653Y-29826D01*
X67635Y-29850D01*
X67565Y-29994D01*
X67407Y-30374D01*
X67405Y-30383D01*
X67400Y-30391D01*
X67363Y-30535D01*
X67323Y-30681D01*
X67323Y-30690D01*
X67321Y-30699D01*
X67311Y-30860D01*
X67311Y-35406D01*
X67326Y-35525D01*
X67333Y-35643D01*
X67346Y-35681D01*
X67351Y-35722D01*
X67394Y-35832D01*
X67431Y-35945D01*
X67453Y-35980D01*
X67468Y-36017D01*
X67538Y-36113D01*
X67601Y-36214D01*
X67631Y-36242D01*
X67654Y-36275D01*
X67746Y-36351D01*
X67833Y-36432D01*
X67868Y-36452D01*
X67899Y-36477D01*
X68007Y-36528D01*
X68111Y-36586D01*
X68151Y-36596D01*
X68187Y-36613D01*
X68304Y-36635D01*
X68419Y-36665D01*
X68480Y-36669D01*
X68500Y-36673D01*
X68520Y-36671D01*
X68580Y-36675D01*
X73848Y-36675D01*
X73986Y-36733D01*
X73995Y-36735D01*
X74003Y-36740D01*
X74148Y-36777D01*
X74293Y-36817D01*
X74302Y-36817D01*
X74311Y-36819D01*
X74472Y-36829D01*
X75674Y-36829D01*
X78879Y-40034D01*
X78957Y-40094D01*
X79029Y-40162D01*
X79082Y-40191D01*
X79130Y-40228D01*
X79221Y-40268D01*
X79307Y-40316D01*
X79366Y-40331D01*
X79422Y-40355D01*
X79520Y-40370D01*
X79615Y-40395D01*
X79715Y-40401D01*
X79736Y-40405D01*
X79748Y-40403D01*
X79776Y-40405D01*
X79918Y-40405D01*
X83590Y-44078D01*
X83668Y-44138D01*
X83740Y-44206D01*
X83793Y-44235D01*
X83841Y-44272D01*
X83932Y-44312D01*
X84019Y-44360D01*
X84077Y-44375D01*
X84133Y-44399D01*
X84231Y-44414D01*
X84327Y-44439D01*
X84427Y-44445D01*
X84447Y-44449D01*
X84459Y-44447D01*
X84487Y-44449D01*
X93980Y-44449D01*
X94078Y-44437D01*
X94177Y-44434D01*
X94235Y-44417D01*
X94296Y-44409D01*
X94388Y-44373D01*
X94483Y-44345D01*
X94535Y-44315D01*
X94591Y-44292D01*
X94671Y-44234D01*
X94757Y-44184D01*
X94832Y-44118D01*
X94849Y-44106D01*
X94856Y-44096D01*
X94878Y-44078D01*
X96030Y-42925D01*
X96727Y-42925D01*
X96817Y-42911D01*
X96908Y-42903D01*
X96938Y-42891D01*
X96970Y-42886D01*
X97050Y-42843D01*
X97134Y-42807D01*
X97166Y-42781D01*
X97187Y-42770D01*
X97209Y-42747D01*
X97265Y-42702D01*
X106172Y-33795D01*
X106225Y-33721D01*
X106285Y-33652D01*
X106297Y-33622D01*
X106316Y-33595D01*
X106343Y-33509D01*
X106377Y-33424D01*
X106381Y-33383D01*
X106388Y-33360D01*
X106387Y-33328D01*
X106395Y-33257D01*
X106395Y-24848D01*
X107288Y-23955D01*
X119552Y-23955D01*
X120445Y-24848D01*
X120445Y-34544D01*
X120448Y-34564D01*
X120446Y-34583D01*
X120468Y-34685D01*
X120484Y-34787D01*
X120494Y-34804D01*
X120498Y-34824D01*
X120551Y-34913D01*
X120600Y-35004D01*
X120614Y-35018D01*
X120624Y-35035D01*
X120703Y-35102D01*
X120778Y-35174D01*
X120796Y-35182D01*
X120811Y-35195D01*
X120907Y-35234D01*
X121001Y-35277D01*
X121021Y-35279D01*
X121039Y-35287D01*
X121206Y-35305D01*
X123078Y-35305D01*
X136145Y-48372D01*
X136145Y-72771D01*
X136148Y-72791D01*
X136146Y-72810D01*
X136168Y-72912D01*
X136184Y-73014D01*
X136194Y-73031D01*
X136198Y-73051D01*
X136251Y-73140D01*
X136300Y-73231D01*
X136314Y-73245D01*
X136324Y-73262D01*
X136403Y-73329D01*
X136478Y-73401D01*
X136496Y-73409D01*
X136511Y-73422D01*
X136607Y-73461D01*
X136701Y-73504D01*
X136721Y-73506D01*
X136739Y-73514D01*
X136906Y-73532D01*
X267067Y-73532D01*
X267138Y-73521D01*
G37*
G36*
X410328Y-73517D02*
X410328Y-73517D01*
X410447Y-73510D01*
X410485Y-73497D01*
X410526Y-73492D01*
X410636Y-73449D01*
X410749Y-73412D01*
X410784Y-73390D01*
X410821Y-73375D01*
X410917Y-73306D01*
X411018Y-73242D01*
X411046Y-73212D01*
X411079Y-73189D01*
X411155Y-73097D01*
X411236Y-73010D01*
X411256Y-72975D01*
X411281Y-72944D01*
X411332Y-72836D01*
X411390Y-72732D01*
X411400Y-72692D01*
X411417Y-72656D01*
X411439Y-72539D01*
X411469Y-72424D01*
X411473Y-72364D01*
X411477Y-72344D01*
X411475Y-72323D01*
X411479Y-72263D01*
X411479Y-1270D01*
X411464Y-1152D01*
X411457Y-1033D01*
X411444Y-995D01*
X411439Y-954D01*
X411396Y-844D01*
X411359Y-731D01*
X411337Y-696D01*
X411322Y-659D01*
X411253Y-563D01*
X411189Y-462D01*
X411159Y-434D01*
X411136Y-401D01*
X411044Y-326D01*
X410957Y-244D01*
X410922Y-224D01*
X410891Y-199D01*
X410783Y-148D01*
X410679Y-90D01*
X410639Y-80D01*
X410603Y-63D01*
X410486Y-41D01*
X410371Y-11D01*
X410311Y-7D01*
X410291Y-3D01*
X410270Y-5D01*
X410210Y-1D01*
X302260Y-1D01*
X302142Y-16D01*
X302023Y-23D01*
X301985Y-36D01*
X301944Y-41D01*
X301834Y-84D01*
X301721Y-121D01*
X301686Y-143D01*
X301649Y-158D01*
X301553Y-228D01*
X301452Y-291D01*
X301424Y-321D01*
X301391Y-344D01*
X301316Y-436D01*
X301234Y-523D01*
X301214Y-558D01*
X301189Y-589D01*
X301138Y-697D01*
X301080Y-801D01*
X301070Y-841D01*
X301053Y-877D01*
X301031Y-994D01*
X301001Y-1109D01*
X300997Y-1170D01*
X300993Y-1190D01*
X300995Y-1210D01*
X300991Y-1270D01*
X300991Y-72263D01*
X301006Y-72381D01*
X301013Y-72500D01*
X301026Y-72538D01*
X301031Y-72579D01*
X301074Y-72689D01*
X301111Y-72802D01*
X301133Y-72837D01*
X301148Y-72874D01*
X301218Y-72970D01*
X301281Y-73071D01*
X301311Y-73099D01*
X301334Y-73132D01*
X301426Y-73208D01*
X301513Y-73289D01*
X301548Y-73309D01*
X301579Y-73334D01*
X301687Y-73385D01*
X301791Y-73443D01*
X301831Y-73453D01*
X301867Y-73470D01*
X301984Y-73492D01*
X302099Y-73522D01*
X302160Y-73526D01*
X302180Y-73530D01*
X302200Y-73528D01*
X302260Y-73532D01*
X410210Y-73532D01*
X410328Y-73517D01*
G37*
G36*
X133468Y-73517D02*
X133468Y-73517D01*
X133587Y-73510D01*
X133625Y-73497D01*
X133666Y-73492D01*
X133776Y-73449D01*
X133889Y-73412D01*
X133924Y-73390D01*
X133961Y-73375D01*
X134057Y-73306D01*
X134158Y-73242D01*
X134186Y-73212D01*
X134219Y-73189D01*
X134294Y-73097D01*
X134376Y-73010D01*
X134396Y-72975D01*
X134421Y-72944D01*
X134472Y-72836D01*
X134530Y-72732D01*
X134540Y-72692D01*
X134557Y-72656D01*
X134579Y-72539D01*
X134609Y-72424D01*
X134613Y-72364D01*
X134617Y-72344D01*
X134615Y-72323D01*
X134619Y-72263D01*
X134619Y-49530D01*
X134607Y-49432D01*
X134604Y-49333D01*
X134587Y-49275D01*
X134579Y-49214D01*
X134543Y-49122D01*
X134515Y-49027D01*
X134485Y-48975D01*
X134462Y-48919D01*
X134404Y-48839D01*
X134354Y-48753D01*
X134288Y-48678D01*
X134276Y-48661D01*
X134266Y-48654D01*
X134248Y-48633D01*
X122818Y-37203D01*
X122739Y-37142D01*
X122667Y-37074D01*
X122614Y-37045D01*
X122566Y-37008D01*
X122475Y-36968D01*
X122389Y-36920D01*
X122330Y-36905D01*
X122274Y-36881D01*
X122176Y-36866D01*
X122081Y-36841D01*
X121981Y-36835D01*
X121960Y-36831D01*
X121948Y-36833D01*
X121920Y-36831D01*
X120251Y-36831D01*
X120153Y-36843D01*
X120054Y-36846D01*
X119996Y-36863D01*
X119936Y-36871D01*
X119844Y-36907D01*
X119749Y-36935D01*
X119696Y-36965D01*
X119640Y-36988D01*
X119617Y-37005D01*
X111393Y-37005D01*
X111295Y-37017D01*
X111196Y-37020D01*
X111138Y-37037D01*
X111078Y-37045D01*
X110986Y-37081D01*
X110891Y-37109D01*
X110838Y-37139D01*
X110782Y-37162D01*
X110702Y-37220D01*
X110617Y-37270D01*
X110541Y-37336D01*
X110525Y-37348D01*
X110517Y-37358D01*
X110496Y-37376D01*
X96817Y-51055D01*
X82662Y-51055D01*
X79190Y-47582D01*
X79096Y-47509D01*
X79007Y-47431D01*
X78971Y-47412D01*
X78939Y-47387D01*
X78829Y-47340D01*
X78723Y-47286D01*
X78684Y-47277D01*
X78647Y-47261D01*
X78529Y-47242D01*
X78413Y-47216D01*
X78373Y-47218D01*
X78333Y-47211D01*
X78214Y-47222D01*
X78095Y-47226D01*
X78056Y-47237D01*
X78016Y-47241D01*
X77904Y-47281D01*
X77790Y-47314D01*
X77755Y-47335D01*
X77717Y-47349D01*
X77618Y-47416D01*
X77516Y-47476D01*
X77471Y-47516D01*
X77454Y-47527D01*
X77440Y-47543D01*
X77395Y-47582D01*
X76246Y-48731D01*
X73848Y-49725D01*
X60252Y-49725D01*
X57854Y-48731D01*
X56019Y-46896D01*
X55025Y-44498D01*
X55025Y-41902D01*
X56019Y-39504D01*
X57854Y-37669D01*
X59990Y-36784D01*
X60111Y-36715D01*
X60233Y-36650D01*
X60248Y-36636D01*
X60266Y-36626D01*
X60366Y-36529D01*
X60469Y-36436D01*
X60480Y-36419D01*
X60494Y-36405D01*
X60567Y-36286D01*
X60643Y-36170D01*
X60650Y-36151D01*
X60661Y-36134D01*
X60702Y-36001D01*
X60747Y-35870D01*
X60748Y-35849D01*
X60754Y-35830D01*
X60761Y-35691D01*
X60772Y-35553D01*
X60768Y-35533D01*
X60769Y-35512D01*
X60741Y-35376D01*
X60718Y-35239D01*
X60709Y-35221D01*
X60705Y-35201D01*
X60644Y-35076D01*
X60587Y-34949D01*
X60574Y-34933D01*
X60565Y-34915D01*
X60475Y-34809D01*
X60388Y-34701D01*
X60372Y-34689D01*
X60359Y-34673D01*
X60245Y-34593D01*
X60134Y-34510D01*
X60109Y-34497D01*
X60099Y-34490D01*
X60080Y-34483D01*
X59990Y-34439D01*
X58470Y-33809D01*
X56841Y-32180D01*
X55959Y-30052D01*
X55959Y-27748D01*
X56841Y-25620D01*
X58470Y-23991D01*
X60598Y-23109D01*
X62902Y-23109D01*
X65030Y-23991D01*
X66659Y-25620D01*
X67190Y-26902D01*
X67205Y-26927D01*
X67214Y-26955D01*
X67283Y-27065D01*
X67348Y-27178D01*
X67368Y-27199D01*
X67384Y-27224D01*
X67479Y-27313D01*
X67569Y-27406D01*
X67594Y-27422D01*
X67616Y-27442D01*
X67729Y-27505D01*
X67840Y-27573D01*
X67868Y-27581D01*
X67894Y-27596D01*
X68020Y-27628D01*
X68144Y-27666D01*
X68174Y-27668D01*
X68202Y-27675D01*
X68363Y-27685D01*
X95504Y-27685D01*
X95602Y-27673D01*
X95701Y-27670D01*
X95759Y-27653D01*
X95820Y-27645D01*
X95911Y-27609D01*
X96007Y-27581D01*
X96059Y-27551D01*
X96115Y-27528D01*
X96195Y-27470D01*
X96281Y-27420D01*
X96356Y-27354D01*
X96373Y-27342D01*
X96380Y-27332D01*
X96401Y-27314D01*
X97417Y-26298D01*
X97478Y-26219D01*
X97546Y-26147D01*
X97575Y-26094D01*
X97612Y-26046D01*
X97652Y-25955D01*
X97700Y-25869D01*
X97715Y-25810D01*
X97739Y-25754D01*
X97754Y-25656D01*
X97779Y-25561D01*
X97785Y-25461D01*
X97789Y-25440D01*
X97787Y-25428D01*
X97789Y-25400D01*
X97789Y-15240D01*
X97777Y-15142D01*
X97774Y-15043D01*
X97757Y-14985D01*
X97749Y-14924D01*
X97713Y-14832D01*
X97685Y-14737D01*
X97655Y-14685D01*
X97632Y-14629D01*
X97574Y-14549D01*
X97524Y-14463D01*
X97458Y-14388D01*
X97446Y-14371D01*
X97436Y-14364D01*
X97418Y-14343D01*
X94878Y-11803D01*
X94799Y-11742D01*
X94727Y-11674D01*
X94674Y-11645D01*
X94626Y-11608D01*
X94535Y-11568D01*
X94449Y-11520D01*
X94390Y-11505D01*
X94334Y-11481D01*
X94236Y-11466D01*
X94141Y-11441D01*
X94041Y-11435D01*
X94020Y-11431D01*
X94008Y-11433D01*
X93980Y-11431D01*
X86360Y-11431D01*
X86262Y-11443D01*
X86163Y-11446D01*
X86105Y-11463D01*
X86044Y-11471D01*
X85952Y-11507D01*
X85857Y-11535D01*
X85805Y-11565D01*
X85749Y-11588D01*
X85669Y-11646D01*
X85583Y-11696D01*
X85508Y-11762D01*
X85491Y-11774D01*
X85484Y-11784D01*
X85463Y-11803D01*
X82744Y-14521D01*
X82684Y-14599D01*
X82616Y-14671D01*
X82587Y-14724D01*
X82550Y-14772D01*
X82510Y-14863D01*
X82462Y-14949D01*
X82447Y-15008D01*
X82423Y-15064D01*
X82408Y-15162D01*
X82383Y-15257D01*
X82377Y-15357D01*
X82373Y-15378D01*
X82375Y-15390D01*
X82373Y-15418D01*
X82373Y-15794D01*
X79696Y-18470D01*
X79636Y-18549D01*
X79568Y-18621D01*
X79539Y-18674D01*
X79502Y-18722D01*
X79462Y-18813D01*
X79414Y-18899D01*
X79399Y-18958D01*
X79375Y-19013D01*
X79360Y-19111D01*
X79335Y-19207D01*
X79329Y-19307D01*
X79325Y-19328D01*
X79327Y-19340D01*
X79325Y-19368D01*
X79325Y-19532D01*
X78432Y-20425D01*
X67168Y-20425D01*
X66275Y-19532D01*
X66275Y-11056D01*
X66260Y-10938D01*
X66253Y-10819D01*
X66240Y-10781D01*
X66235Y-10740D01*
X66192Y-10630D01*
X66155Y-10517D01*
X66133Y-10482D01*
X66118Y-10445D01*
X66049Y-10349D01*
X65985Y-10248D01*
X65955Y-10220D01*
X65932Y-10187D01*
X65840Y-10111D01*
X65753Y-10030D01*
X65718Y-10010D01*
X65687Y-9985D01*
X65579Y-9934D01*
X65475Y-9876D01*
X65435Y-9866D01*
X65399Y-9849D01*
X65282Y-9827D01*
X65167Y-9797D01*
X65107Y-9793D01*
X65087Y-9789D01*
X65066Y-9791D01*
X65006Y-9787D01*
X64973Y-9787D01*
X61213Y-6027D01*
X61213Y947D01*
X65060Y4793D01*
X65124Y4802D01*
X65243Y4809D01*
X65281Y4822D01*
X65322Y4827D01*
X65432Y4870D01*
X65545Y4907D01*
X65580Y4929D01*
X65617Y4944D01*
X65713Y5013D01*
X65814Y5077D01*
X65842Y5107D01*
X65875Y5130D01*
X65951Y5222D01*
X66032Y5309D01*
X66052Y5344D01*
X66077Y5375D01*
X66128Y5483D01*
X66186Y5587D01*
X66196Y5627D01*
X66213Y5663D01*
X66235Y5780D01*
X66265Y5895D01*
X66269Y5955D01*
X66273Y5975D01*
X66271Y5996D01*
X66275Y6056D01*
X66275Y19532D01*
X67168Y20425D01*
X78432Y20425D01*
X79325Y19532D01*
X79325Y18466D01*
X79337Y18368D01*
X79340Y18269D01*
X79357Y18211D01*
X79365Y18150D01*
X79401Y18058D01*
X79429Y17963D01*
X79459Y17911D01*
X79482Y17855D01*
X79540Y17775D01*
X79590Y17689D01*
X79656Y17614D01*
X79668Y17597D01*
X79678Y17590D01*
X79696Y17569D01*
X85463Y11803D01*
X85541Y11742D01*
X85613Y11674D01*
X85666Y11645D01*
X85714Y11608D01*
X85805Y11568D01*
X85891Y11520D01*
X85950Y11505D01*
X86006Y11481D01*
X86104Y11466D01*
X86199Y11441D01*
X86299Y11435D01*
X86320Y11431D01*
X86332Y11433D01*
X86360Y11431D01*
X93980Y11431D01*
X94078Y11443D01*
X94177Y11446D01*
X94235Y11463D01*
X94296Y11471D01*
X94388Y11507D01*
X94483Y11535D01*
X94535Y11565D01*
X94591Y11588D01*
X94671Y11646D01*
X94757Y11696D01*
X94832Y11762D01*
X94849Y11774D01*
X94856Y11784D01*
X94878Y11803D01*
X97418Y14343D01*
X97478Y14421D01*
X97546Y14493D01*
X97566Y14529D01*
X97590Y14558D01*
X97598Y14575D01*
X97612Y14594D01*
X97652Y14685D01*
X97700Y14771D01*
X97711Y14814D01*
X97725Y14846D01*
X97729Y14862D01*
X97739Y14886D01*
X97754Y14984D01*
X97779Y15079D01*
X97783Y15149D01*
X97785Y15158D01*
X97785Y15167D01*
X97785Y15179D01*
X97789Y15200D01*
X97787Y15212D01*
X97789Y15240D01*
X97789Y25400D01*
X97777Y25498D01*
X97774Y25597D01*
X97768Y25619D01*
X97767Y25629D01*
X97756Y25663D01*
X97749Y25716D01*
X97713Y25808D01*
X97685Y25903D01*
X97670Y25929D01*
X97669Y25932D01*
X97659Y25948D01*
X97655Y25955D01*
X97632Y26011D01*
X97574Y26091D01*
X97524Y26177D01*
X97458Y26252D01*
X97446Y26269D01*
X97436Y26276D01*
X97417Y26298D01*
X96401Y27314D01*
X96323Y27374D01*
X96251Y27442D01*
X96198Y27471D01*
X96150Y27508D01*
X96059Y27548D01*
X95973Y27596D01*
X95914Y27611D01*
X95858Y27635D01*
X95760Y27650D01*
X95665Y27675D01*
X95565Y27681D01*
X95544Y27685D01*
X95532Y27683D01*
X95504Y27685D01*
X68363Y27685D01*
X68333Y27682D01*
X68304Y27684D01*
X68176Y27662D01*
X68047Y27645D01*
X68020Y27635D01*
X67991Y27630D01*
X67872Y27576D01*
X67752Y27528D01*
X67728Y27511D01*
X67701Y27499D01*
X67599Y27418D01*
X67494Y27342D01*
X67475Y27319D01*
X67452Y27300D01*
X67374Y27197D01*
X67291Y27097D01*
X67279Y27070D01*
X67261Y27046D01*
X67190Y26902D01*
X66659Y25620D01*
X65030Y23991D01*
X62902Y23109D01*
X60598Y23109D01*
X58470Y23991D01*
X56841Y25620D01*
X56205Y27156D01*
X56190Y27181D01*
X56181Y27209D01*
X56112Y27319D01*
X56047Y27432D01*
X56027Y27453D01*
X56011Y27478D01*
X55916Y27567D01*
X55826Y27660D01*
X55801Y27676D01*
X55779Y27696D01*
X55666Y27759D01*
X55555Y27827D01*
X55526Y27835D01*
X55501Y27850D01*
X55375Y27882D01*
X55251Y27920D01*
X55221Y27922D01*
X55193Y27929D01*
X55032Y27939D01*
X51834Y27939D01*
X51805Y27936D01*
X51775Y27938D01*
X51647Y27916D01*
X51519Y27899D01*
X51491Y27889D01*
X51462Y27884D01*
X51343Y27830D01*
X51223Y27782D01*
X51199Y27765D01*
X51172Y27753D01*
X51071Y27672D01*
X50965Y27596D01*
X50947Y27573D01*
X50924Y27554D01*
X50845Y27451D01*
X50763Y27351D01*
X50750Y27324D01*
X50732Y27300D01*
X50661Y27156D01*
X49981Y25514D01*
X48146Y23679D01*
X45748Y22685D01*
X43152Y22685D01*
X40754Y23679D01*
X38919Y25514D01*
X38239Y27156D01*
X38224Y27181D01*
X38215Y27209D01*
X38145Y27319D01*
X38081Y27432D01*
X38061Y27453D01*
X38045Y27478D01*
X37950Y27567D01*
X37860Y27660D01*
X37835Y27676D01*
X37813Y27696D01*
X37699Y27759D01*
X37589Y27827D01*
X37560Y27835D01*
X37535Y27850D01*
X37409Y27882D01*
X37285Y27920D01*
X37255Y27922D01*
X37227Y27929D01*
X37066Y27939D01*
X11557Y27939D01*
X11439Y27924D01*
X11320Y27917D01*
X11282Y27904D01*
X11241Y27899D01*
X11131Y27856D01*
X11018Y27819D01*
X10983Y27797D01*
X10946Y27782D01*
X10850Y27713D01*
X10749Y27649D01*
X10721Y27619D01*
X10688Y27596D01*
X10612Y27504D01*
X10531Y27417D01*
X10511Y27382D01*
X10486Y27351D01*
X10435Y27243D01*
X10377Y27139D01*
X10367Y27099D01*
X10350Y27063D01*
X10328Y26946D01*
X10298Y26831D01*
X10294Y26771D01*
X10290Y26751D01*
X10292Y26730D01*
X10288Y26670D01*
X10288Y-72263D01*
X10303Y-72381D01*
X10310Y-72500D01*
X10323Y-72538D01*
X10328Y-72579D01*
X10371Y-72689D01*
X10408Y-72802D01*
X10430Y-72837D01*
X10445Y-72874D01*
X10514Y-72970D01*
X10578Y-73071D01*
X10608Y-73099D01*
X10631Y-73132D01*
X10723Y-73208D01*
X10810Y-73289D01*
X10845Y-73309D01*
X10876Y-73334D01*
X10984Y-73385D01*
X11088Y-73443D01*
X11128Y-73453D01*
X11164Y-73470D01*
X11281Y-73492D01*
X11396Y-73522D01*
X11456Y-73526D01*
X11476Y-73530D01*
X11497Y-73528D01*
X11557Y-73532D01*
X133350Y-73532D01*
X133468Y-73517D01*
G37*
G36*
X816601Y-45577D02*
X816601Y-45577D01*
X816720Y-45570D01*
X816758Y-45557D01*
X816799Y-45552D01*
X816909Y-45509D01*
X817022Y-45472D01*
X817057Y-45450D01*
X817094Y-45435D01*
X817190Y-45366D01*
X817291Y-45302D01*
X817319Y-45272D01*
X817352Y-45249D01*
X817428Y-45157D01*
X817509Y-45070D01*
X817529Y-45035D01*
X817554Y-45004D01*
X817605Y-44896D01*
X817663Y-44792D01*
X817673Y-44752D01*
X817690Y-44716D01*
X817712Y-44599D01*
X817742Y-44484D01*
X817746Y-44424D01*
X817750Y-44404D01*
X817748Y-44383D01*
X817752Y-44323D01*
X817752Y-9916D01*
X817735Y-9778D01*
X817722Y-9640D01*
X817715Y-9621D01*
X817712Y-9600D01*
X817661Y-9471D01*
X817614Y-9340D01*
X817603Y-9323D01*
X817595Y-9305D01*
X817514Y-9192D01*
X817436Y-9077D01*
X817420Y-9064D01*
X817409Y-9047D01*
X817301Y-8959D01*
X817197Y-8867D01*
X817179Y-8857D01*
X817164Y-8845D01*
X817038Y-8785D01*
X816914Y-8722D01*
X816894Y-8718D01*
X816876Y-8709D01*
X816739Y-8683D01*
X816604Y-8652D01*
X816583Y-8653D01*
X816564Y-8649D01*
X816425Y-8658D01*
X816286Y-8662D01*
X816266Y-8668D01*
X816246Y-8669D01*
X816114Y-8712D01*
X815980Y-8750D01*
X815963Y-8761D01*
X815944Y-8767D01*
X815826Y-8841D01*
X815706Y-8912D01*
X815685Y-8931D01*
X815675Y-8937D01*
X815661Y-8952D01*
X815586Y-9018D01*
X814483Y-10121D01*
X810095Y-11939D01*
X805345Y-11939D01*
X800957Y-10121D01*
X797599Y-6763D01*
X796193Y-3368D01*
X796124Y-3247D01*
X796059Y-3124D01*
X796045Y-3109D01*
X796035Y-3092D01*
X795938Y-2992D01*
X795845Y-2889D01*
X795828Y-2878D01*
X795814Y-2863D01*
X795696Y-2791D01*
X795579Y-2714D01*
X795560Y-2708D01*
X795543Y-2697D01*
X795410Y-2656D01*
X795278Y-2611D01*
X795258Y-2609D01*
X795239Y-2603D01*
X795100Y-2597D01*
X794961Y-2586D01*
X794941Y-2589D01*
X794921Y-2588D01*
X794785Y-2616D01*
X794648Y-2640D01*
X794629Y-2648D01*
X794610Y-2653D01*
X794485Y-2714D01*
X794358Y-2771D01*
X794342Y-2783D01*
X794324Y-2792D01*
X794218Y-2883D01*
X794110Y-2969D01*
X794097Y-2985D01*
X794082Y-2999D01*
X794002Y-3112D01*
X793918Y-3223D01*
X793906Y-3249D01*
X793899Y-3259D01*
X793892Y-3278D01*
X793847Y-3368D01*
X792441Y-6763D01*
X789083Y-10121D01*
X785688Y-11527D01*
X785567Y-11596D01*
X785444Y-11661D01*
X785429Y-11675D01*
X785412Y-11685D01*
X785312Y-11782D01*
X785209Y-11875D01*
X785198Y-11892D01*
X785183Y-11906D01*
X785110Y-12025D01*
X785034Y-12141D01*
X785028Y-12160D01*
X785017Y-12177D01*
X784976Y-12310D01*
X784931Y-12442D01*
X784929Y-12462D01*
X784923Y-12481D01*
X784917Y-12620D01*
X784906Y-12759D01*
X784909Y-12779D01*
X784908Y-12799D01*
X784936Y-12935D01*
X784960Y-13072D01*
X784968Y-13091D01*
X784973Y-13110D01*
X785034Y-13236D01*
X785091Y-13362D01*
X785103Y-13378D01*
X785112Y-13396D01*
X785203Y-13502D01*
X785289Y-13610D01*
X785305Y-13623D01*
X785319Y-13638D01*
X785432Y-13718D01*
X785543Y-13802D01*
X785569Y-13814D01*
X785579Y-13821D01*
X785598Y-13828D01*
X785688Y-13873D01*
X789083Y-15279D01*
X792441Y-18637D01*
X794259Y-23025D01*
X794259Y-27775D01*
X792441Y-32163D01*
X789083Y-35521D01*
X784695Y-37339D01*
X779945Y-37339D01*
X775557Y-35521D01*
X772199Y-32163D01*
X771564Y-30629D01*
X771549Y-30604D01*
X771540Y-30576D01*
X771471Y-30466D01*
X771406Y-30353D01*
X771386Y-30332D01*
X771370Y-30307D01*
X771275Y-30218D01*
X771185Y-30125D01*
X771160Y-30109D01*
X771138Y-30089D01*
X771024Y-30026D01*
X770914Y-29958D01*
X770885Y-29950D01*
X770860Y-29935D01*
X770734Y-29903D01*
X770610Y-29865D01*
X770580Y-29863D01*
X770552Y-29856D01*
X770391Y-29846D01*
X742870Y-29846D01*
X742752Y-29861D01*
X742633Y-29868D01*
X742595Y-29881D01*
X742554Y-29886D01*
X742444Y-29929D01*
X742331Y-29966D01*
X742296Y-29988D01*
X742259Y-30003D01*
X742163Y-30072D01*
X742062Y-30136D01*
X742034Y-30166D01*
X742001Y-30189D01*
X741925Y-30281D01*
X741844Y-30368D01*
X741824Y-30403D01*
X741799Y-30434D01*
X741748Y-30542D01*
X741690Y-30646D01*
X741680Y-30686D01*
X741663Y-30722D01*
X741641Y-30839D01*
X741611Y-30954D01*
X741607Y-31014D01*
X741603Y-31034D01*
X741605Y-31055D01*
X741601Y-31115D01*
X741601Y-37912D01*
X740112Y-39401D01*
X728008Y-39401D01*
X726500Y-37894D01*
X726497Y-37838D01*
X726484Y-37800D01*
X726479Y-37759D01*
X726436Y-37649D01*
X726399Y-37536D01*
X726377Y-37501D01*
X726362Y-37464D01*
X726293Y-37368D01*
X726229Y-37267D01*
X726199Y-37239D01*
X726176Y-37206D01*
X726084Y-37130D01*
X725997Y-37049D01*
X725962Y-37029D01*
X725931Y-37004D01*
X725823Y-36953D01*
X725719Y-36895D01*
X725679Y-36885D01*
X725643Y-36868D01*
X725526Y-36846D01*
X725411Y-36816D01*
X725351Y-36812D01*
X725331Y-36808D01*
X725310Y-36810D01*
X725250Y-36806D01*
X723941Y-36806D01*
X723843Y-36818D01*
X723744Y-36821D01*
X723685Y-36838D01*
X723625Y-36846D01*
X723533Y-36882D01*
X723438Y-36910D01*
X723386Y-36940D01*
X723330Y-36963D01*
X723250Y-37021D01*
X723164Y-37071D01*
X723089Y-37137D01*
X723072Y-37149D01*
X723064Y-37159D01*
X723043Y-37178D01*
X722570Y-37651D01*
X710592Y-37651D01*
X710119Y-37178D01*
X710040Y-37117D01*
X709968Y-37049D01*
X709915Y-37020D01*
X709867Y-36983D01*
X709776Y-36943D01*
X709690Y-36895D01*
X709631Y-36880D01*
X709575Y-36856D01*
X709477Y-36841D01*
X709382Y-36816D01*
X709282Y-36810D01*
X709261Y-36806D01*
X709249Y-36808D01*
X709221Y-36806D01*
X706159Y-36806D01*
X701286Y-31934D01*
X701177Y-31848D01*
X701070Y-31760D01*
X701051Y-31751D01*
X701035Y-31739D01*
X700907Y-31683D01*
X700782Y-31624D01*
X700762Y-31620D01*
X700743Y-31612D01*
X700605Y-31590D01*
X700469Y-31564D01*
X700449Y-31566D01*
X700429Y-31563D01*
X700290Y-31576D01*
X700152Y-31584D01*
X700133Y-31590D01*
X700113Y-31592D01*
X699981Y-31640D01*
X699850Y-31682D01*
X699832Y-31693D01*
X699813Y-31700D01*
X699698Y-31778D01*
X699581Y-31852D01*
X699567Y-31867D01*
X699550Y-31879D01*
X699458Y-31983D01*
X699363Y-32084D01*
X699353Y-32102D01*
X699340Y-32117D01*
X699276Y-32241D01*
X699209Y-32363D01*
X699204Y-32382D01*
X699195Y-32400D01*
X699165Y-32536D01*
X699130Y-32670D01*
X699128Y-32699D01*
X699125Y-32711D01*
X699126Y-32731D01*
X699120Y-32831D01*
X699120Y-35099D01*
X696568Y-37651D01*
X684590Y-37651D01*
X682038Y-35099D01*
X682038Y-30991D01*
X682026Y-30893D01*
X682023Y-30794D01*
X682006Y-30736D01*
X681998Y-30676D01*
X681962Y-30584D01*
X681934Y-30489D01*
X681904Y-30436D01*
X681881Y-30380D01*
X681823Y-30300D01*
X681773Y-30215D01*
X681707Y-30139D01*
X681695Y-30123D01*
X681685Y-30115D01*
X681667Y-30094D01*
X681377Y-29804D01*
X681299Y-29744D01*
X681227Y-29676D01*
X681174Y-29647D01*
X681126Y-29610D01*
X681035Y-29570D01*
X680948Y-29522D01*
X680890Y-29507D01*
X680834Y-29483D01*
X680736Y-29468D01*
X680640Y-29443D01*
X680540Y-29437D01*
X680520Y-29433D01*
X680508Y-29435D01*
X680480Y-29433D01*
X679413Y-29433D01*
X677316Y-28564D01*
X677268Y-28551D01*
X677223Y-28530D01*
X677115Y-28509D01*
X677009Y-28480D01*
X676959Y-28479D01*
X676910Y-28470D01*
X676801Y-28477D01*
X676691Y-28475D01*
X676643Y-28487D01*
X676593Y-28490D01*
X676489Y-28524D01*
X676382Y-28549D01*
X676338Y-28573D01*
X676291Y-28588D01*
X676198Y-28647D01*
X676101Y-28698D01*
X676064Y-28731D01*
X676022Y-28758D01*
X675947Y-28838D01*
X675865Y-28912D01*
X675838Y-28954D01*
X675804Y-28990D01*
X675751Y-29086D01*
X675691Y-29178D01*
X675674Y-29225D01*
X675650Y-29268D01*
X675623Y-29374D01*
X675587Y-29478D01*
X675583Y-29528D01*
X675571Y-29576D01*
X675561Y-29737D01*
X675561Y-37912D01*
X674072Y-39401D01*
X661968Y-39401D01*
X660479Y-37912D01*
X660479Y-30468D01*
X660462Y-30330D01*
X660449Y-30192D01*
X660442Y-30173D01*
X660439Y-30153D01*
X660388Y-30023D01*
X660341Y-29892D01*
X660330Y-29876D01*
X660322Y-29857D01*
X660241Y-29745D01*
X660163Y-29629D01*
X660147Y-29616D01*
X660136Y-29600D01*
X660028Y-29511D01*
X659924Y-29419D01*
X659906Y-29410D01*
X659891Y-29397D01*
X659765Y-29337D01*
X659641Y-29274D01*
X659621Y-29270D01*
X659603Y-29261D01*
X659466Y-29235D01*
X659331Y-29205D01*
X659310Y-29205D01*
X659291Y-29201D01*
X659152Y-29210D01*
X659013Y-29214D01*
X658993Y-29220D01*
X658973Y-29221D01*
X658841Y-29264D01*
X658707Y-29303D01*
X658690Y-29313D01*
X658671Y-29319D01*
X658553Y-29394D01*
X658433Y-29464D01*
X658412Y-29483D01*
X658402Y-29489D01*
X658388Y-29504D01*
X658313Y-29571D01*
X657482Y-30401D01*
X642678Y-30401D01*
X641137Y-28861D01*
X641028Y-28775D01*
X640921Y-28687D01*
X640902Y-28678D01*
X640886Y-28666D01*
X640758Y-28610D01*
X640633Y-28551D01*
X640613Y-28547D01*
X640594Y-28539D01*
X640456Y-28517D01*
X640320Y-28491D01*
X640300Y-28493D01*
X640280Y-28489D01*
X640141Y-28503D01*
X640003Y-28511D01*
X639984Y-28517D01*
X639964Y-28519D01*
X639832Y-28566D01*
X639701Y-28609D01*
X639683Y-28620D01*
X639664Y-28627D01*
X639549Y-28705D01*
X639432Y-28779D01*
X639418Y-28794D01*
X639401Y-28805D01*
X639309Y-28910D01*
X639214Y-29011D01*
X639204Y-29029D01*
X639191Y-29044D01*
X639127Y-29168D01*
X639060Y-29289D01*
X639055Y-29309D01*
X639046Y-29327D01*
X639016Y-29463D01*
X638981Y-29597D01*
X638979Y-29625D01*
X638976Y-29637D01*
X638977Y-29658D01*
X638971Y-29758D01*
X638971Y-38412D01*
X637482Y-39901D01*
X622678Y-39901D01*
X621189Y-38412D01*
X621189Y-36440D01*
X621174Y-36322D01*
X621167Y-36203D01*
X621154Y-36165D01*
X621149Y-36124D01*
X621106Y-36014D01*
X621069Y-35901D01*
X621047Y-35866D01*
X621032Y-35829D01*
X620963Y-35733D01*
X620899Y-35632D01*
X620869Y-35604D01*
X620846Y-35571D01*
X620754Y-35495D01*
X620667Y-35414D01*
X620632Y-35394D01*
X620601Y-35369D01*
X620493Y-35318D01*
X620389Y-35260D01*
X620349Y-35250D01*
X620313Y-35233D01*
X620196Y-35211D01*
X620081Y-35181D01*
X620021Y-35177D01*
X620001Y-35173D01*
X619980Y-35175D01*
X619920Y-35171D01*
X613330Y-35171D01*
X613212Y-35186D01*
X613093Y-35193D01*
X613055Y-35206D01*
X613014Y-35211D01*
X612904Y-35254D01*
X612791Y-35291D01*
X612756Y-35313D01*
X612719Y-35328D01*
X612623Y-35397D01*
X612522Y-35461D01*
X612494Y-35491D01*
X612461Y-35514D01*
X612385Y-35606D01*
X612304Y-35693D01*
X612284Y-35728D01*
X612259Y-35759D01*
X612208Y-35867D01*
X612150Y-35971D01*
X612140Y-36011D01*
X612123Y-36047D01*
X612101Y-36164D01*
X612071Y-36279D01*
X612067Y-36339D01*
X612063Y-36359D01*
X612065Y-36380D01*
X612061Y-36440D01*
X612061Y-37912D01*
X610572Y-39401D01*
X598468Y-39401D01*
X596979Y-37912D01*
X596979Y-24808D01*
X598029Y-23758D01*
X598102Y-23663D01*
X598181Y-23574D01*
X598200Y-23538D01*
X598224Y-23506D01*
X598272Y-23397D01*
X598326Y-23291D01*
X598335Y-23252D01*
X598351Y-23214D01*
X598369Y-23097D01*
X598395Y-22981D01*
X598394Y-22940D01*
X598400Y-22900D01*
X598389Y-22782D01*
X598386Y-22663D01*
X598374Y-22624D01*
X598371Y-22584D01*
X598330Y-22471D01*
X598297Y-22357D01*
X598277Y-22323D01*
X598263Y-22284D01*
X598196Y-22186D01*
X598136Y-22083D01*
X598096Y-22038D01*
X598084Y-22021D01*
X598069Y-22008D01*
X598029Y-21963D01*
X596979Y-20912D01*
X596979Y-7808D01*
X598468Y-6319D01*
X610572Y-6319D01*
X612061Y-7808D01*
X612061Y-9280D01*
X612076Y-9398D01*
X612083Y-9517D01*
X612096Y-9555D01*
X612101Y-9596D01*
X612144Y-9706D01*
X612181Y-9819D01*
X612203Y-9854D01*
X612218Y-9891D01*
X612287Y-9987D01*
X612351Y-10088D01*
X612381Y-10116D01*
X612404Y-10149D01*
X612496Y-10225D01*
X612583Y-10306D01*
X612618Y-10326D01*
X612649Y-10351D01*
X612757Y-10402D01*
X612861Y-10460D01*
X612901Y-10470D01*
X612937Y-10487D01*
X613054Y-10509D01*
X613169Y-10539D01*
X613229Y-10543D01*
X613249Y-10547D01*
X613270Y-10545D01*
X613330Y-10549D01*
X619920Y-10549D01*
X620038Y-10534D01*
X620157Y-10527D01*
X620195Y-10514D01*
X620236Y-10509D01*
X620346Y-10466D01*
X620459Y-10429D01*
X620494Y-10407D01*
X620531Y-10392D01*
X620627Y-10323D01*
X620728Y-10259D01*
X620756Y-10229D01*
X620789Y-10206D01*
X620865Y-10114D01*
X620946Y-10027D01*
X620966Y-9992D01*
X620991Y-9961D01*
X621042Y-9853D01*
X621100Y-9749D01*
X621110Y-9709D01*
X621127Y-9673D01*
X621149Y-9556D01*
X621179Y-9441D01*
X621183Y-9381D01*
X621187Y-9361D01*
X621185Y-9340D01*
X621189Y-9280D01*
X621189Y-7308D01*
X622678Y-5819D01*
X625920Y-5819D01*
X626058Y-5802D01*
X626196Y-5789D01*
X626215Y-5782D01*
X626235Y-5779D01*
X626365Y-5728D01*
X626496Y-5681D01*
X626512Y-5670D01*
X626531Y-5662D01*
X626643Y-5581D01*
X626759Y-5503D01*
X626772Y-5487D01*
X626788Y-5476D01*
X626877Y-5368D01*
X626969Y-5264D01*
X626978Y-5246D01*
X626991Y-5231D01*
X627050Y-5105D01*
X627114Y-4981D01*
X627118Y-4961D01*
X627127Y-4943D01*
X627153Y-4807D01*
X627183Y-4670D01*
X627183Y-4650D01*
X627186Y-4631D01*
X627178Y-4492D01*
X627174Y-4353D01*
X627168Y-4333D01*
X627167Y-4313D01*
X627124Y-4181D01*
X627085Y-4047D01*
X627075Y-4030D01*
X627069Y-4011D01*
X626994Y-3893D01*
X626924Y-3773D01*
X626905Y-3752D01*
X626899Y-3742D01*
X626894Y-3737D01*
X625887Y-1307D01*
X625887Y1307D01*
X626888Y3723D01*
X627317Y4152D01*
X627402Y4262D01*
X627491Y4369D01*
X627500Y4388D01*
X627512Y4404D01*
X627568Y4532D01*
X627627Y4657D01*
X627630Y4677D01*
X627639Y4696D01*
X627661Y4834D01*
X627686Y4970D01*
X627685Y4990D01*
X627688Y5010D01*
X627675Y5149D01*
X627667Y5287D01*
X627661Y5306D01*
X627659Y5326D01*
X627612Y5457D01*
X627569Y5589D01*
X627558Y5607D01*
X627551Y5626D01*
X627473Y5740D01*
X627399Y5858D01*
X627384Y5872D01*
X627372Y5889D01*
X627268Y5981D01*
X627167Y6076D01*
X627149Y6086D01*
X627134Y6099D01*
X627010Y6162D01*
X626888Y6230D01*
X626869Y6235D01*
X626851Y6244D01*
X626715Y6274D01*
X626580Y6309D01*
X626552Y6311D01*
X626540Y6314D01*
X626520Y6313D01*
X626420Y6319D01*
X623868Y6319D01*
X622379Y7808D01*
X622379Y13443D01*
X622373Y13493D01*
X622375Y13542D01*
X622353Y13650D01*
X622339Y13759D01*
X622321Y13805D01*
X622311Y13854D01*
X622263Y13952D01*
X622222Y14054D01*
X622193Y14095D01*
X622171Y14139D01*
X622100Y14223D01*
X622036Y14312D01*
X621997Y14343D01*
X621965Y14381D01*
X621875Y14444D01*
X621791Y14515D01*
X621746Y14536D01*
X621705Y14564D01*
X621602Y14603D01*
X621503Y14650D01*
X621454Y14659D01*
X621408Y14677D01*
X621298Y14689D01*
X621191Y14710D01*
X621141Y14707D01*
X621092Y14712D01*
X620983Y14697D01*
X620873Y14690D01*
X620826Y14675D01*
X620777Y14668D01*
X620624Y14616D01*
X618527Y13747D01*
X615913Y13747D01*
X613816Y14616D01*
X613768Y14629D01*
X613723Y14650D01*
X613615Y14671D01*
X613509Y14700D01*
X613459Y14701D01*
X613410Y14710D01*
X613301Y14703D01*
X613191Y14705D01*
X613143Y14693D01*
X613093Y14690D01*
X612989Y14656D01*
X612882Y14631D01*
X612838Y14607D01*
X612791Y14592D01*
X612698Y14533D01*
X612601Y14482D01*
X612564Y14449D01*
X612522Y14422D01*
X612447Y14342D01*
X612365Y14268D01*
X612338Y14226D01*
X612304Y14190D01*
X612251Y14094D01*
X612191Y14002D01*
X612174Y13955D01*
X612150Y13912D01*
X612123Y13806D01*
X612087Y13702D01*
X612083Y13652D01*
X612071Y13604D01*
X612061Y13443D01*
X612061Y7808D01*
X610572Y6319D01*
X602394Y6319D01*
X602296Y6307D01*
X602197Y6304D01*
X602139Y6287D01*
X602079Y6279D01*
X601987Y6243D01*
X601891Y6215D01*
X601839Y6185D01*
X601783Y6162D01*
X601703Y6104D01*
X601618Y6054D01*
X601542Y5988D01*
X601526Y5976D01*
X601518Y5966D01*
X601497Y5948D01*
X600628Y5079D01*
X577390Y5079D01*
X577272Y5064D01*
X577153Y5057D01*
X577115Y5044D01*
X577074Y5039D01*
X576964Y4996D01*
X576851Y4959D01*
X576816Y4937D01*
X576779Y4922D01*
X576683Y4853D01*
X576582Y4789D01*
X576554Y4759D01*
X576521Y4736D01*
X576445Y4644D01*
X576364Y4557D01*
X576344Y4522D01*
X576319Y4491D01*
X576268Y4383D01*
X576210Y4279D01*
X576200Y4239D01*
X576183Y4203D01*
X576161Y4086D01*
X576131Y3971D01*
X576127Y3911D01*
X576123Y3891D01*
X576125Y3870D01*
X576121Y3810D01*
X576121Y-6052D01*
X575451Y-6723D01*
X575378Y-6817D01*
X575299Y-6906D01*
X575281Y-6942D01*
X575256Y-6974D01*
X575208Y-7083D01*
X575154Y-7189D01*
X575145Y-7228D01*
X575129Y-7266D01*
X575111Y-7383D01*
X575085Y-7499D01*
X575086Y-7540D01*
X575080Y-7580D01*
X575091Y-7698D01*
X575094Y-7817D01*
X575106Y-7856D01*
X575109Y-7896D01*
X575150Y-8008D01*
X575183Y-8123D01*
X575203Y-8158D01*
X575217Y-8196D01*
X575284Y-8294D01*
X575344Y-8397D01*
X575384Y-8442D01*
X575396Y-8459D01*
X575411Y-8472D01*
X575451Y-8518D01*
X576121Y-9188D01*
X576121Y-21296D01*
X576047Y-21390D01*
X575959Y-21497D01*
X575950Y-21516D01*
X575938Y-21532D01*
X575882Y-21659D01*
X575823Y-21785D01*
X575819Y-21805D01*
X575811Y-21824D01*
X575790Y-21961D01*
X575763Y-22098D01*
X575765Y-22118D01*
X575762Y-22138D01*
X575775Y-22276D01*
X575783Y-22415D01*
X575789Y-22434D01*
X575791Y-22454D01*
X575838Y-22586D01*
X575881Y-22717D01*
X575892Y-22734D01*
X575899Y-22754D01*
X575977Y-22869D01*
X576051Y-22986D01*
X576066Y-23000D01*
X576077Y-23017D01*
X576182Y-23109D01*
X576283Y-23204D01*
X576301Y-23214D01*
X576316Y-23227D01*
X576440Y-23291D01*
X576561Y-23358D01*
X576581Y-23363D01*
X576599Y-23372D01*
X576735Y-23402D01*
X576869Y-23437D01*
X576897Y-23439D01*
X576909Y-23442D01*
X576930Y-23441D01*
X577030Y-23447D01*
X578356Y-23447D01*
X582557Y-27648D01*
X582635Y-27708D01*
X582707Y-27776D01*
X582760Y-27805D01*
X582808Y-27842D01*
X582899Y-27882D01*
X582986Y-27930D01*
X583044Y-27945D01*
X583100Y-27969D01*
X583198Y-27984D01*
X583294Y-28009D01*
X583394Y-28015D01*
X583414Y-28019D01*
X583426Y-28017D01*
X583454Y-28019D01*
X591632Y-28019D01*
X593121Y-29508D01*
X593121Y-41612D01*
X591308Y-43426D01*
X591222Y-43535D01*
X591134Y-43642D01*
X591125Y-43661D01*
X591113Y-43677D01*
X591057Y-43805D01*
X590998Y-43930D01*
X590994Y-43950D01*
X590986Y-43969D01*
X590964Y-44107D01*
X590938Y-44243D01*
X590940Y-44263D01*
X590936Y-44283D01*
X590950Y-44422D01*
X590958Y-44560D01*
X590964Y-44579D01*
X590966Y-44599D01*
X591013Y-44731D01*
X591056Y-44862D01*
X591067Y-44880D01*
X591074Y-44899D01*
X591152Y-45014D01*
X591226Y-45131D01*
X591241Y-45145D01*
X591252Y-45162D01*
X591357Y-45254D01*
X591458Y-45349D01*
X591476Y-45359D01*
X591491Y-45372D01*
X591615Y-45436D01*
X591736Y-45503D01*
X591756Y-45508D01*
X591774Y-45517D01*
X591910Y-45547D01*
X592044Y-45582D01*
X592072Y-45584D01*
X592084Y-45587D01*
X592105Y-45586D01*
X592205Y-45592D01*
X816483Y-45592D01*
X816601Y-45577D01*
G37*
G36*
X100186Y16472D02*
X100186Y16472D01*
X100257Y16478D01*
X100305Y16498D01*
X100356Y16509D01*
X100417Y16546D01*
X100483Y16574D01*
X100539Y16619D01*
X100567Y16636D01*
X100582Y16653D01*
X100614Y16679D01*
X101942Y18007D01*
X106338Y18007D01*
X106846Y17499D01*
X106904Y17457D01*
X106956Y17408D01*
X107003Y17386D01*
X107045Y17356D01*
X107114Y17334D01*
X107179Y17304D01*
X107231Y17299D01*
X107281Y17283D01*
X107352Y17285D01*
X107423Y17277D01*
X107474Y17288D01*
X107526Y17290D01*
X107594Y17314D01*
X107664Y17329D01*
X107709Y17356D01*
X107757Y17374D01*
X107813Y17419D01*
X107875Y17456D01*
X107909Y17495D01*
X107949Y17528D01*
X107988Y17588D01*
X108035Y17643D01*
X108054Y17691D01*
X108082Y17735D01*
X108100Y17804D01*
X108127Y17871D01*
X108135Y17942D01*
X108143Y17973D01*
X108141Y17996D01*
X108145Y18037D01*
X108145Y18569D01*
X110102Y20526D01*
X114738Y20526D01*
X116632Y18632D01*
X116648Y18621D01*
X116660Y18605D01*
X116748Y18549D01*
X116831Y18489D01*
X116850Y18483D01*
X116867Y18472D01*
X116968Y18447D01*
X117067Y18416D01*
X117086Y18417D01*
X117106Y18412D01*
X117209Y18420D01*
X117312Y18423D01*
X117331Y18430D01*
X117351Y18431D01*
X117446Y18472D01*
X117543Y18507D01*
X117559Y18520D01*
X117577Y18528D01*
X117708Y18632D01*
X118902Y19826D01*
X118955Y19900D01*
X119015Y19970D01*
X119027Y20000D01*
X119046Y20026D01*
X119073Y20113D01*
X119107Y20198D01*
X119111Y20239D01*
X119118Y20261D01*
X119117Y20293D01*
X119125Y20365D01*
X119125Y23138D01*
X123172Y27185D01*
X123216Y27245D01*
X123255Y27286D01*
X123261Y27301D01*
X123285Y27328D01*
X123297Y27358D01*
X123316Y27384D01*
X123343Y27471D01*
X123355Y27502D01*
X123358Y27509D01*
X123358Y27511D01*
X123377Y27556D01*
X123381Y27597D01*
X123388Y27619D01*
X123387Y27652D01*
X123395Y27723D01*
X123395Y33237D01*
X123381Y33327D01*
X123373Y33418D01*
X123361Y33448D01*
X123356Y33480D01*
X123313Y33561D01*
X123277Y33644D01*
X123251Y33677D01*
X123240Y33697D01*
X123217Y33719D01*
X123172Y33775D01*
X116785Y40162D01*
X116711Y40215D01*
X116642Y40275D01*
X116612Y40287D01*
X116586Y40306D01*
X116499Y40333D01*
X116414Y40367D01*
X116373Y40371D01*
X116351Y40378D01*
X116318Y40377D01*
X116247Y40385D01*
X115682Y40385D01*
X113822Y42245D01*
X102445Y53623D01*
X102350Y53691D01*
X102256Y53761D01*
X102250Y53763D01*
X102245Y53766D01*
X102134Y53801D01*
X102022Y53837D01*
X102016Y53837D01*
X102010Y53839D01*
X101893Y53836D01*
X101776Y53835D01*
X101769Y53832D01*
X101764Y53832D01*
X101747Y53826D01*
X101615Y53788D01*
X98693Y52577D01*
X94347Y52577D01*
X90333Y54240D01*
X87260Y57313D01*
X85597Y61327D01*
X85597Y65673D01*
X87260Y69687D01*
X89806Y72233D01*
X89848Y72291D01*
X89897Y72343D01*
X89919Y72390D01*
X89949Y72432D01*
X89970Y72501D01*
X90001Y72566D01*
X90006Y72618D01*
X90022Y72668D01*
X90020Y72739D01*
X90028Y72810D01*
X90017Y72861D01*
X90015Y72913D01*
X89991Y72981D01*
X89975Y73051D01*
X89949Y73096D01*
X89931Y73144D01*
X89886Y73200D01*
X89849Y73262D01*
X89810Y73296D01*
X89777Y73336D01*
X89717Y73375D01*
X89662Y73422D01*
X89614Y73441D01*
X89570Y73469D01*
X89501Y73487D01*
X89434Y73514D01*
X89363Y73522D01*
X89332Y73530D01*
X89308Y73528D01*
X89267Y73532D01*
X11049Y73532D01*
X11029Y73529D01*
X11010Y73531D01*
X10908Y73509D01*
X10806Y73493D01*
X10789Y73483D01*
X10769Y73479D01*
X10680Y73426D01*
X10589Y73377D01*
X10575Y73363D01*
X10558Y73353D01*
X10491Y73274D01*
X10419Y73199D01*
X10411Y73181D01*
X10398Y73166D01*
X10359Y73070D01*
X10316Y72976D01*
X10314Y72956D01*
X10306Y72938D01*
X10288Y72771D01*
X10288Y30226D01*
X10291Y30206D01*
X10289Y30187D01*
X10311Y30085D01*
X10327Y29983D01*
X10337Y29966D01*
X10341Y29946D01*
X10394Y29857D01*
X10443Y29766D01*
X10457Y29752D01*
X10467Y29735D01*
X10546Y29668D01*
X10621Y29596D01*
X10639Y29588D01*
X10654Y29575D01*
X10750Y29536D01*
X10844Y29493D01*
X10864Y29491D01*
X10882Y29483D01*
X11049Y29465D01*
X37164Y29465D01*
X37184Y29468D01*
X37203Y29466D01*
X37305Y29488D01*
X37407Y29504D01*
X37424Y29514D01*
X37444Y29518D01*
X37533Y29571D01*
X37624Y29620D01*
X37638Y29634D01*
X37655Y29644D01*
X37722Y29723D01*
X37794Y29798D01*
X37802Y29816D01*
X37815Y29831D01*
X37854Y29927D01*
X37897Y30021D01*
X37899Y30041D01*
X37907Y30059D01*
X37925Y30226D01*
X37925Y30508D01*
X38919Y32906D01*
X40754Y34741D01*
X43152Y35735D01*
X45748Y35735D01*
X48146Y34741D01*
X49981Y32906D01*
X50975Y30508D01*
X50975Y30226D01*
X50978Y30206D01*
X50976Y30187D01*
X50998Y30085D01*
X51014Y29983D01*
X51024Y29966D01*
X51028Y29946D01*
X51081Y29857D01*
X51130Y29766D01*
X51144Y29752D01*
X51154Y29735D01*
X51233Y29668D01*
X51308Y29596D01*
X51326Y29588D01*
X51341Y29575D01*
X51437Y29536D01*
X51531Y29493D01*
X51551Y29491D01*
X51569Y29483D01*
X51736Y29465D01*
X55207Y29465D01*
X55322Y29484D01*
X55438Y29501D01*
X55444Y29503D01*
X55450Y29504D01*
X55553Y29559D01*
X55658Y29612D01*
X55662Y29617D01*
X55668Y29620D01*
X55747Y29704D01*
X55830Y29788D01*
X55833Y29794D01*
X55837Y29798D01*
X55845Y29815D01*
X55911Y29935D01*
X56841Y32180D01*
X58470Y33809D01*
X60598Y34691D01*
X62902Y34691D01*
X65030Y33809D01*
X66659Y32180D01*
X67063Y31205D01*
X67125Y31105D01*
X67185Y31005D01*
X67189Y31001D01*
X67193Y30996D01*
X67283Y30921D01*
X67311Y30897D01*
X67311Y30860D01*
X67312Y30850D01*
X67311Y30841D01*
X67332Y30693D01*
X67351Y30544D01*
X67354Y30535D01*
X67355Y30526D01*
X67407Y30374D01*
X67565Y29994D01*
X67579Y29969D01*
X67588Y29941D01*
X67658Y29831D01*
X67722Y29718D01*
X67743Y29697D01*
X67758Y29672D01*
X67853Y29583D01*
X67943Y29490D01*
X67969Y29474D01*
X67990Y29454D01*
X68104Y29391D01*
X68215Y29323D01*
X68243Y29315D01*
X68269Y29300D01*
X68394Y29268D01*
X68518Y29230D01*
X68548Y29228D01*
X68577Y29221D01*
X68737Y29211D01*
X93980Y29211D01*
X94078Y29223D01*
X94177Y29226D01*
X94235Y29243D01*
X94296Y29251D01*
X94388Y29287D01*
X94483Y29315D01*
X94535Y29345D01*
X94591Y29368D01*
X94671Y29426D01*
X94757Y29476D01*
X94832Y29542D01*
X94849Y29554D01*
X94856Y29564D01*
X94878Y29583D01*
X95584Y30289D01*
X99315Y26558D01*
X99315Y17217D01*
X99326Y17147D01*
X99328Y17075D01*
X99346Y17026D01*
X99354Y16975D01*
X99388Y16911D01*
X99413Y16844D01*
X99445Y16803D01*
X99470Y16757D01*
X99522Y16708D01*
X99566Y16652D01*
X99610Y16624D01*
X99648Y16588D01*
X99713Y16558D01*
X99773Y16519D01*
X99824Y16506D01*
X99871Y16484D01*
X99942Y16476D01*
X100012Y16459D01*
X100064Y16463D01*
X100115Y16457D01*
X100186Y16472D01*
G37*
G36*
X725368Y-27899D02*
X725368Y-27899D01*
X725487Y-27892D01*
X725525Y-27879D01*
X725566Y-27874D01*
X725676Y-27831D01*
X725789Y-27794D01*
X725824Y-27772D01*
X725861Y-27757D01*
X725957Y-27688D01*
X726058Y-27624D01*
X726086Y-27594D01*
X726119Y-27571D01*
X726195Y-27479D01*
X726276Y-27392D01*
X726296Y-27357D01*
X726321Y-27326D01*
X726372Y-27218D01*
X726430Y-27114D01*
X726440Y-27074D01*
X726457Y-27038D01*
X726479Y-26921D01*
X726509Y-26806D01*
X726513Y-26746D01*
X726517Y-26726D01*
X726515Y-26705D01*
X726519Y-26645D01*
X726519Y-24808D01*
X728008Y-23319D01*
X735288Y-23319D01*
X735386Y-23307D01*
X735485Y-23304D01*
X735543Y-23287D01*
X735603Y-23279D01*
X735695Y-23243D01*
X735790Y-23215D01*
X735843Y-23185D01*
X735899Y-23162D01*
X735979Y-23104D01*
X736064Y-23054D01*
X736140Y-22988D01*
X736156Y-22976D01*
X736164Y-22966D01*
X736185Y-22948D01*
X738179Y-20954D01*
X770391Y-20954D01*
X770420Y-20951D01*
X770450Y-20953D01*
X770578Y-20931D01*
X770707Y-20914D01*
X770734Y-20904D01*
X770763Y-20899D01*
X770882Y-20845D01*
X771002Y-20797D01*
X771026Y-20780D01*
X771053Y-20768D01*
X771155Y-20687D01*
X771260Y-20611D01*
X771278Y-20588D01*
X771301Y-20569D01*
X771380Y-20466D01*
X771462Y-20366D01*
X771475Y-20339D01*
X771493Y-20315D01*
X771564Y-20171D01*
X772199Y-18637D01*
X775557Y-15279D01*
X778952Y-13873D01*
X779073Y-13804D01*
X779196Y-13739D01*
X779211Y-13725D01*
X779228Y-13715D01*
X779328Y-13618D01*
X779431Y-13525D01*
X779442Y-13508D01*
X779457Y-13494D01*
X779529Y-13376D01*
X779606Y-13259D01*
X779612Y-13240D01*
X779623Y-13223D01*
X779664Y-13090D01*
X779709Y-12958D01*
X779711Y-12938D01*
X779717Y-12919D01*
X779723Y-12780D01*
X779734Y-12641D01*
X779731Y-12621D01*
X779732Y-12601D01*
X779704Y-12465D01*
X779680Y-12328D01*
X779672Y-12309D01*
X779667Y-12290D01*
X779606Y-12165D01*
X779549Y-12038D01*
X779537Y-12022D01*
X779528Y-12004D01*
X779437Y-11898D01*
X779351Y-11790D01*
X779335Y-11777D01*
X779321Y-11762D01*
X779208Y-11682D01*
X779097Y-11598D01*
X779071Y-11586D01*
X779061Y-11579D01*
X779042Y-11572D01*
X778952Y-11527D01*
X775557Y-10121D01*
X772199Y-6763D01*
X770381Y-2375D01*
X770381Y2375D01*
X772209Y6788D01*
X772244Y6832D01*
X772332Y6939D01*
X772341Y6958D01*
X772353Y6974D01*
X772409Y7102D01*
X772468Y7227D01*
X772472Y7247D01*
X772480Y7266D01*
X772502Y7403D01*
X772528Y7540D01*
X772527Y7560D01*
X772530Y7580D01*
X772517Y7718D01*
X772508Y7857D01*
X772502Y7876D01*
X772500Y7896D01*
X772453Y8028D01*
X772410Y8159D01*
X772399Y8176D01*
X772392Y8196D01*
X772314Y8311D01*
X772240Y8428D01*
X772225Y8442D01*
X772214Y8459D01*
X772110Y8551D01*
X772008Y8646D01*
X771991Y8656D01*
X771975Y8669D01*
X771852Y8732D01*
X771730Y8800D01*
X771710Y8805D01*
X771692Y8814D01*
X771556Y8844D01*
X771422Y8879D01*
X771394Y8881D01*
X771382Y8884D01*
X771361Y8883D01*
X771261Y8889D01*
X741870Y8889D01*
X741752Y8874D01*
X741633Y8867D01*
X741595Y8854D01*
X741554Y8849D01*
X741444Y8806D01*
X741331Y8769D01*
X741296Y8747D01*
X741259Y8732D01*
X741163Y8663D01*
X741062Y8599D01*
X741034Y8569D01*
X741001Y8546D01*
X740925Y8454D01*
X740844Y8367D01*
X740824Y8332D01*
X740799Y8301D01*
X740748Y8193D01*
X740690Y8089D01*
X740680Y8049D01*
X740663Y8013D01*
X740641Y7896D01*
X740611Y7781D01*
X740607Y7721D01*
X740603Y7701D01*
X740605Y7680D01*
X740601Y7620D01*
X740601Y6808D01*
X739112Y5319D01*
X729008Y5319D01*
X727519Y6808D01*
X727519Y18912D01*
X729008Y20401D01*
X739112Y20401D01*
X740601Y18912D01*
X740601Y17780D01*
X740616Y17662D01*
X740623Y17543D01*
X740636Y17505D01*
X740641Y17464D01*
X740684Y17354D01*
X740721Y17241D01*
X740743Y17206D01*
X740758Y17169D01*
X740827Y17073D01*
X740891Y16972D01*
X740921Y16944D01*
X740944Y16911D01*
X741036Y16835D01*
X741123Y16754D01*
X741158Y16734D01*
X741189Y16709D01*
X741297Y16658D01*
X741401Y16600D01*
X741441Y16590D01*
X741477Y16573D01*
X741594Y16551D01*
X741709Y16521D01*
X741769Y16517D01*
X741789Y16513D01*
X741810Y16515D01*
X741870Y16511D01*
X771261Y16511D01*
X771399Y16528D01*
X771538Y16541D01*
X771557Y16548D01*
X771577Y16551D01*
X771706Y16602D01*
X771837Y16649D01*
X771854Y16660D01*
X771872Y16668D01*
X771985Y16749D01*
X772100Y16827D01*
X772113Y16843D01*
X772130Y16854D01*
X772218Y16962D01*
X772310Y17066D01*
X772320Y17084D01*
X772332Y17099D01*
X772392Y17225D01*
X772455Y17349D01*
X772459Y17369D01*
X772468Y17387D01*
X772494Y17523D01*
X772525Y17659D01*
X772524Y17680D01*
X772528Y17699D01*
X772519Y17838D01*
X772515Y17977D01*
X772509Y17997D01*
X772508Y18017D01*
X772465Y18149D01*
X772426Y18283D01*
X772416Y18300D01*
X772410Y18319D01*
X772336Y18437D01*
X772265Y18557D01*
X772246Y18578D01*
X772240Y18588D01*
X772225Y18602D01*
X772203Y18627D01*
X770381Y23025D01*
X770381Y27775D01*
X772199Y32163D01*
X775557Y35521D01*
X779945Y37339D01*
X784695Y37339D01*
X789083Y35521D01*
X792441Y32163D01*
X793847Y28768D01*
X793854Y28757D01*
X793855Y28754D01*
X793861Y28744D01*
X793916Y28647D01*
X793981Y28524D01*
X793995Y28509D01*
X794005Y28492D01*
X794102Y28392D01*
X794195Y28289D01*
X794212Y28278D01*
X794226Y28263D01*
X794345Y28190D01*
X794461Y28114D01*
X794480Y28108D01*
X794497Y28097D01*
X794630Y28056D01*
X794762Y28011D01*
X794782Y28009D01*
X794801Y28003D01*
X794940Y27997D01*
X795079Y27986D01*
X795099Y27989D01*
X795119Y27988D01*
X795255Y28016D01*
X795392Y28040D01*
X795411Y28048D01*
X795430Y28053D01*
X795556Y28114D01*
X795682Y28171D01*
X795698Y28183D01*
X795716Y28192D01*
X795822Y28283D01*
X795930Y28369D01*
X795943Y28385D01*
X795958Y28399D01*
X796038Y28512D01*
X796122Y28623D01*
X796134Y28649D01*
X796141Y28659D01*
X796148Y28678D01*
X796193Y28768D01*
X797599Y32163D01*
X800957Y35521D01*
X805345Y37339D01*
X810095Y37339D01*
X814483Y35521D01*
X815586Y34418D01*
X815695Y34334D01*
X815802Y34245D01*
X815821Y34236D01*
X815837Y34223D01*
X815964Y34168D01*
X816090Y34109D01*
X816110Y34105D01*
X816129Y34097D01*
X816267Y34075D01*
X816403Y34049D01*
X816423Y34050D01*
X816443Y34047D01*
X816582Y34060D01*
X816720Y34069D01*
X816739Y34075D01*
X816759Y34077D01*
X816891Y34124D01*
X817022Y34167D01*
X817040Y34178D01*
X817059Y34185D01*
X817174Y34263D01*
X817291Y34337D01*
X817305Y34352D01*
X817322Y34363D01*
X817414Y34468D01*
X817509Y34569D01*
X817519Y34586D01*
X817532Y34602D01*
X817596Y34726D01*
X817663Y34847D01*
X817668Y34867D01*
X817677Y34885D01*
X817707Y35021D01*
X817742Y35155D01*
X817744Y35183D01*
X817747Y35195D01*
X817746Y35216D01*
X817752Y35316D01*
X817752Y44323D01*
X817737Y44441D01*
X817730Y44560D01*
X817717Y44598D01*
X817712Y44639D01*
X817669Y44749D01*
X817632Y44862D01*
X817610Y44897D01*
X817595Y44934D01*
X817526Y45030D01*
X817462Y45131D01*
X817432Y45159D01*
X817409Y45192D01*
X817317Y45268D01*
X817230Y45349D01*
X817195Y45369D01*
X817164Y45394D01*
X817056Y45445D01*
X816952Y45503D01*
X816912Y45513D01*
X816876Y45530D01*
X816759Y45552D01*
X816644Y45582D01*
X816584Y45586D01*
X816564Y45590D01*
X816543Y45588D01*
X816483Y45592D01*
X705907Y45592D01*
X705770Y45575D01*
X705631Y45562D01*
X705612Y45555D01*
X705592Y45552D01*
X705463Y45501D01*
X705332Y45454D01*
X705315Y45443D01*
X705296Y45435D01*
X705184Y45354D01*
X705068Y45276D01*
X705055Y45260D01*
X705039Y45249D01*
X704950Y45141D01*
X704858Y45037D01*
X704849Y45019D01*
X704836Y45004D01*
X704777Y44878D01*
X704713Y44754D01*
X704709Y44734D01*
X704700Y44716D01*
X704674Y44579D01*
X704644Y44444D01*
X704644Y44423D01*
X704641Y44404D01*
X704649Y44265D01*
X704653Y44126D01*
X704659Y44106D01*
X704660Y44086D01*
X704703Y43954D01*
X704742Y43820D01*
X704752Y43803D01*
X704758Y43784D01*
X704833Y43666D01*
X704903Y43546D01*
X704922Y43525D01*
X704928Y43515D01*
X704943Y43501D01*
X705010Y43426D01*
X706612Y41823D01*
X707654Y39309D01*
X707678Y39266D01*
X707695Y39219D01*
X707757Y39128D01*
X707811Y39032D01*
X707846Y38997D01*
X707874Y38956D01*
X707956Y38883D01*
X708032Y38804D01*
X708075Y38778D01*
X708112Y38745D01*
X708210Y38695D01*
X708304Y38638D01*
X708351Y38623D01*
X708395Y38601D01*
X708502Y38576D01*
X708608Y38544D01*
X708657Y38542D01*
X708706Y38531D01*
X708816Y38534D01*
X708925Y38529D01*
X708974Y38539D01*
X709024Y38541D01*
X709129Y38571D01*
X709237Y38593D01*
X709281Y38615D01*
X709329Y38629D01*
X709424Y38685D01*
X709522Y38733D01*
X709560Y38765D01*
X709603Y38791D01*
X709724Y38897D01*
X710228Y39401D01*
X722332Y39401D01*
X723821Y37912D01*
X723821Y36440D01*
X723836Y36322D01*
X723843Y36203D01*
X723856Y36165D01*
X723861Y36124D01*
X723904Y36014D01*
X723941Y35901D01*
X723963Y35866D01*
X723978Y35829D01*
X724047Y35733D01*
X724111Y35632D01*
X724141Y35604D01*
X724164Y35571D01*
X724256Y35495D01*
X724343Y35414D01*
X724378Y35394D01*
X724409Y35369D01*
X724517Y35318D01*
X724621Y35260D01*
X724661Y35250D01*
X724697Y35233D01*
X724814Y35211D01*
X724929Y35181D01*
X724989Y35177D01*
X725009Y35173D01*
X725030Y35175D01*
X725090Y35171D01*
X726250Y35171D01*
X726368Y35186D01*
X726487Y35193D01*
X726525Y35206D01*
X726566Y35211D01*
X726676Y35254D01*
X726789Y35291D01*
X726824Y35313D01*
X726861Y35328D01*
X726957Y35397D01*
X727058Y35461D01*
X727086Y35491D01*
X727119Y35514D01*
X727195Y35606D01*
X727276Y35693D01*
X727296Y35728D01*
X727321Y35759D01*
X727372Y35867D01*
X727430Y35971D01*
X727440Y36011D01*
X727457Y36047D01*
X727479Y36164D01*
X727509Y36279D01*
X727513Y36339D01*
X727517Y36359D01*
X727515Y36380D01*
X727519Y36440D01*
X727519Y38912D01*
X729008Y40401D01*
X739112Y40401D01*
X740601Y38912D01*
X740601Y26808D01*
X739112Y25319D01*
X729008Y25319D01*
X727149Y27178D01*
X727071Y27238D01*
X726999Y27306D01*
X726946Y27335D01*
X726898Y27372D01*
X726807Y27412D01*
X726720Y27460D01*
X726662Y27475D01*
X726606Y27499D01*
X726508Y27514D01*
X726413Y27539D01*
X726312Y27545D01*
X726292Y27549D01*
X726280Y27547D01*
X726252Y27549D01*
X725090Y27549D01*
X724972Y27534D01*
X724853Y27527D01*
X724815Y27514D01*
X724774Y27509D01*
X724664Y27466D01*
X724551Y27429D01*
X724516Y27407D01*
X724479Y27392D01*
X724383Y27323D01*
X724282Y27259D01*
X724254Y27229D01*
X724221Y27206D01*
X724145Y27114D01*
X724064Y27027D01*
X724044Y26992D01*
X724019Y26961D01*
X723968Y26853D01*
X723910Y26749D01*
X723900Y26709D01*
X723883Y26673D01*
X723861Y26556D01*
X723831Y26441D01*
X723827Y26381D01*
X723823Y26361D01*
X723825Y26340D01*
X723821Y26280D01*
X723821Y24808D01*
X722771Y23758D01*
X722698Y23663D01*
X722619Y23574D01*
X722600Y23538D01*
X722576Y23506D01*
X722528Y23397D01*
X722474Y23291D01*
X722465Y23252D01*
X722449Y23214D01*
X722431Y23097D01*
X722405Y22981D01*
X722406Y22940D01*
X722400Y22900D01*
X722411Y22781D01*
X722414Y22663D01*
X722426Y22624D01*
X722429Y22584D01*
X722470Y22471D01*
X722503Y22357D01*
X722523Y22323D01*
X722537Y22284D01*
X722604Y22186D01*
X722664Y22083D01*
X722704Y22038D01*
X722716Y22021D01*
X722731Y22008D01*
X722771Y21963D01*
X723821Y20912D01*
X723821Y7808D01*
X722332Y6319D01*
X722320Y6319D01*
X722182Y6302D01*
X722044Y6289D01*
X722025Y6282D01*
X722005Y6279D01*
X721875Y6228D01*
X721745Y6181D01*
X721728Y6170D01*
X721709Y6162D01*
X721596Y6081D01*
X721481Y6003D01*
X721468Y5987D01*
X721452Y5976D01*
X721363Y5868D01*
X721271Y5764D01*
X721262Y5746D01*
X721249Y5731D01*
X721190Y5605D01*
X721126Y5481D01*
X721122Y5461D01*
X721113Y5443D01*
X721087Y5307D01*
X721057Y5171D01*
X721057Y5150D01*
X721054Y5131D01*
X721062Y4992D01*
X721066Y4853D01*
X721072Y4833D01*
X721073Y4813D01*
X721116Y4681D01*
X721155Y4547D01*
X721165Y4530D01*
X721171Y4511D01*
X721246Y4393D01*
X721316Y4273D01*
X721335Y4252D01*
X721341Y4242D01*
X721356Y4228D01*
X721423Y4152D01*
X721852Y3723D01*
X722853Y1307D01*
X722853Y-1307D01*
X721852Y-3723D01*
X720003Y-5572D01*
X719870Y-5627D01*
X719809Y-5662D01*
X719744Y-5688D01*
X719672Y-5740D01*
X719593Y-5785D01*
X719543Y-5833D01*
X719487Y-5874D01*
X719429Y-5944D01*
X719365Y-6006D01*
X719329Y-6066D01*
X719284Y-6119D01*
X719246Y-6201D01*
X719199Y-6277D01*
X719178Y-6344D01*
X719148Y-6407D01*
X719132Y-6495D01*
X719105Y-6581D01*
X719102Y-6651D01*
X719089Y-6720D01*
X719094Y-6809D01*
X719090Y-6899D01*
X719104Y-6967D01*
X719108Y-7037D01*
X719136Y-7122D01*
X719154Y-7210D01*
X719185Y-7273D01*
X719206Y-7339D01*
X719254Y-7415D01*
X719294Y-7496D01*
X719339Y-7549D01*
X719377Y-7608D01*
X719442Y-7670D01*
X719500Y-7738D01*
X719557Y-7778D01*
X719608Y-7826D01*
X719687Y-7869D01*
X719760Y-7921D01*
X719826Y-7946D01*
X719887Y-7980D01*
X719974Y-8002D01*
X720058Y-8034D01*
X720127Y-8042D01*
X720195Y-8059D01*
X720355Y-8069D01*
X722570Y-8069D01*
X725122Y-10621D01*
X725122Y-16099D01*
X722570Y-18651D01*
X710850Y-18651D01*
X710801Y-18657D01*
X710751Y-18655D01*
X710644Y-18677D01*
X710535Y-18691D01*
X710488Y-18709D01*
X710440Y-18719D01*
X710341Y-18767D01*
X710239Y-18808D01*
X710199Y-18837D01*
X710154Y-18859D01*
X710071Y-18930D01*
X709982Y-18994D01*
X709950Y-19033D01*
X709912Y-19065D01*
X709849Y-19155D01*
X709779Y-19239D01*
X709758Y-19284D01*
X709729Y-19325D01*
X709690Y-19428D01*
X709643Y-19527D01*
X709634Y-19576D01*
X709616Y-19622D01*
X709604Y-19732D01*
X709584Y-19839D01*
X709587Y-19889D01*
X709581Y-19938D01*
X709597Y-20047D01*
X709603Y-20157D01*
X709619Y-20204D01*
X709626Y-20253D01*
X709678Y-20406D01*
X710153Y-21553D01*
X710153Y-24167D01*
X709678Y-25314D01*
X709665Y-25362D01*
X709643Y-25407D01*
X709623Y-25515D01*
X709594Y-25621D01*
X709593Y-25671D01*
X709584Y-25720D01*
X709590Y-25829D01*
X709589Y-25939D01*
X709600Y-25987D01*
X709603Y-26037D01*
X709637Y-26141D01*
X709663Y-26248D01*
X709686Y-26292D01*
X709701Y-26339D01*
X709760Y-26432D01*
X709812Y-26529D01*
X709845Y-26566D01*
X709872Y-26608D01*
X709952Y-26683D01*
X710025Y-26765D01*
X710067Y-26792D01*
X710103Y-26826D01*
X710199Y-26879D01*
X710291Y-26939D01*
X710338Y-26956D01*
X710382Y-26980D01*
X710488Y-27007D01*
X710592Y-27043D01*
X710642Y-27047D01*
X710690Y-27059D01*
X710850Y-27069D01*
X722570Y-27069D01*
X723043Y-27542D01*
X723122Y-27603D01*
X723194Y-27671D01*
X723247Y-27700D01*
X723295Y-27737D01*
X723386Y-27777D01*
X723472Y-27825D01*
X723531Y-27840D01*
X723587Y-27864D01*
X723685Y-27879D01*
X723780Y-27904D01*
X723880Y-27910D01*
X723901Y-27914D01*
X723913Y-27912D01*
X723941Y-27914D01*
X725250Y-27914D01*
X725368Y-27899D01*
G37*
G36*
X479803Y-45575D02*
X479803Y-45575D01*
X479941Y-45562D01*
X479960Y-45555D01*
X479980Y-45552D01*
X480110Y-45501D01*
X480241Y-45454D01*
X480257Y-45443D01*
X480276Y-45435D01*
X480389Y-45354D01*
X480504Y-45276D01*
X480517Y-45260D01*
X480533Y-45249D01*
X480622Y-45141D01*
X480714Y-45037D01*
X480723Y-45019D01*
X480736Y-45004D01*
X480796Y-44878D01*
X480859Y-44754D01*
X480863Y-44734D01*
X480872Y-44716D01*
X480898Y-44579D01*
X480928Y-44444D01*
X480928Y-44423D01*
X480932Y-44404D01*
X480923Y-44265D01*
X480919Y-44126D01*
X480913Y-44106D01*
X480912Y-44086D01*
X480869Y-43954D01*
X480830Y-43820D01*
X480820Y-43803D01*
X480814Y-43784D01*
X480739Y-43666D01*
X480669Y-43546D01*
X480650Y-43525D01*
X480644Y-43515D01*
X480629Y-43501D01*
X480562Y-43426D01*
X480239Y-43102D01*
X480239Y-6498D01*
X481728Y-5009D01*
X515832Y-5009D01*
X517159Y-6336D01*
X517253Y-6409D01*
X517342Y-6487D01*
X517378Y-6506D01*
X517410Y-6530D01*
X517519Y-6578D01*
X517625Y-6632D01*
X517665Y-6641D01*
X517702Y-6657D01*
X517820Y-6676D01*
X517936Y-6702D01*
X517976Y-6700D01*
X518016Y-6707D01*
X518135Y-6696D01*
X518253Y-6692D01*
X518292Y-6681D01*
X518333Y-6677D01*
X518445Y-6637D01*
X518559Y-6603D01*
X518594Y-6583D01*
X518632Y-6569D01*
X518730Y-6502D01*
X518833Y-6442D01*
X518878Y-6402D01*
X518895Y-6391D01*
X518908Y-6375D01*
X518954Y-6336D01*
X522412Y-2877D01*
X522497Y-2768D01*
X522586Y-2661D01*
X522594Y-2642D01*
X522607Y-2626D01*
X522662Y-2498D01*
X522721Y-2373D01*
X522725Y-2353D01*
X522733Y-2334D01*
X522755Y-2196D01*
X522781Y-2060D01*
X522780Y-2040D01*
X522783Y-2020D01*
X522770Y-1881D01*
X522761Y-1743D01*
X522755Y-1724D01*
X522753Y-1704D01*
X522706Y-1572D01*
X522663Y-1441D01*
X522652Y-1423D01*
X522645Y-1404D01*
X522567Y-1289D01*
X522493Y-1172D01*
X522478Y-1158D01*
X522467Y-1141D01*
X522363Y-1049D01*
X522261Y-954D01*
X522244Y-944D01*
X522228Y-931D01*
X522105Y-868D01*
X521983Y-800D01*
X521963Y-795D01*
X521945Y-786D01*
X521809Y-756D01*
X521675Y-721D01*
X521647Y-719D01*
X521635Y-716D01*
X521614Y-717D01*
X521514Y-711D01*
X516838Y-711D01*
X516740Y-723D01*
X516641Y-726D01*
X516583Y-743D01*
X516523Y-751D01*
X516431Y-787D01*
X516335Y-815D01*
X516283Y-845D01*
X516227Y-868D01*
X516147Y-926D01*
X516062Y-976D01*
X515986Y-1042D01*
X515970Y-1054D01*
X515962Y-1064D01*
X515941Y-1082D01*
X515832Y-1191D01*
X481728Y-1191D01*
X480239Y298D01*
X480239Y43102D01*
X480562Y43426D01*
X480647Y43535D01*
X480736Y43642D01*
X480745Y43661D01*
X480757Y43677D01*
X480813Y43805D01*
X480872Y43930D01*
X480876Y43950D01*
X480884Y43969D01*
X480906Y44107D01*
X480932Y44243D01*
X480930Y44263D01*
X480934Y44283D01*
X480920Y44422D01*
X480912Y44560D01*
X480906Y44579D01*
X480904Y44599D01*
X480857Y44730D01*
X480814Y44862D01*
X480803Y44880D01*
X480796Y44899D01*
X480718Y45013D01*
X480644Y45131D01*
X480629Y45145D01*
X480618Y45162D01*
X480513Y45254D01*
X480412Y45349D01*
X480394Y45359D01*
X480379Y45372D01*
X480255Y45435D01*
X480134Y45503D01*
X480114Y45508D01*
X480096Y45517D01*
X479960Y45547D01*
X479826Y45582D01*
X479798Y45584D01*
X479786Y45587D01*
X479765Y45586D01*
X479665Y45592D01*
X450850Y45592D01*
X450732Y45577D01*
X450613Y45570D01*
X450575Y45557D01*
X450534Y45552D01*
X450424Y45509D01*
X450311Y45472D01*
X450276Y45450D01*
X450239Y45435D01*
X450143Y45366D01*
X450042Y45302D01*
X450014Y45272D01*
X449981Y45249D01*
X449905Y45157D01*
X449824Y45070D01*
X449804Y45035D01*
X449779Y45004D01*
X449728Y44896D01*
X449670Y44792D01*
X449660Y44752D01*
X449643Y44716D01*
X449621Y44599D01*
X449591Y44484D01*
X449587Y44424D01*
X449583Y44404D01*
X449585Y44383D01*
X449581Y44323D01*
X449581Y-44323D01*
X449596Y-44441D01*
X449603Y-44560D01*
X449616Y-44598D01*
X449621Y-44639D01*
X449664Y-44749D01*
X449701Y-44862D01*
X449723Y-44897D01*
X449738Y-44934D01*
X449807Y-45030D01*
X449871Y-45131D01*
X449901Y-45159D01*
X449924Y-45192D01*
X450016Y-45268D01*
X450103Y-45349D01*
X450138Y-45369D01*
X450169Y-45394D01*
X450277Y-45445D01*
X450381Y-45503D01*
X450421Y-45513D01*
X450457Y-45530D01*
X450574Y-45552D01*
X450689Y-45582D01*
X450749Y-45586D01*
X450769Y-45590D01*
X450790Y-45588D01*
X450850Y-45592D01*
X479665Y-45592D01*
X479803Y-45575D01*
G37*
G36*
X595828Y12716D02*
X595828Y12716D01*
X595947Y12723D01*
X595985Y12736D01*
X596026Y12741D01*
X596136Y12784D01*
X596249Y12821D01*
X596284Y12843D01*
X596321Y12858D01*
X596417Y12927D01*
X596518Y12991D01*
X596546Y13021D01*
X596579Y13044D01*
X596655Y13136D01*
X596736Y13223D01*
X596756Y13258D01*
X596781Y13289D01*
X596832Y13397D01*
X596890Y13501D01*
X596900Y13541D01*
X596917Y13577D01*
X596939Y13694D01*
X596969Y13809D01*
X596973Y13869D01*
X596977Y13889D01*
X596975Y13910D01*
X596979Y13970D01*
X596979Y20912D01*
X598468Y22401D01*
X610120Y22401D01*
X610149Y22404D01*
X610178Y22402D01*
X610306Y22424D01*
X610435Y22441D01*
X610462Y22451D01*
X610492Y22456D01*
X610610Y22510D01*
X610731Y22558D01*
X610755Y22575D01*
X610782Y22587D01*
X610883Y22668D01*
X610988Y22744D01*
X611007Y22767D01*
X611030Y22786D01*
X611108Y22889D01*
X611191Y22989D01*
X611203Y23016D01*
X611221Y23040D01*
X611292Y23184D01*
X611648Y24043D01*
X613497Y25892D01*
X615913Y26893D01*
X618527Y26893D01*
X620624Y26024D01*
X620672Y26011D01*
X620717Y25990D01*
X620825Y25969D01*
X620931Y25940D01*
X620981Y25939D01*
X621030Y25930D01*
X621139Y25937D01*
X621249Y25935D01*
X621297Y25947D01*
X621347Y25950D01*
X621451Y25984D01*
X621558Y26009D01*
X621602Y26033D01*
X621649Y26048D01*
X621742Y26107D01*
X621839Y26158D01*
X621876Y26191D01*
X621918Y26218D01*
X621993Y26298D01*
X622075Y26372D01*
X622102Y26414D01*
X622136Y26450D01*
X622189Y26546D01*
X622249Y26638D01*
X622266Y26685D01*
X622290Y26728D01*
X622317Y26834D01*
X622353Y26938D01*
X622357Y26988D01*
X622369Y27036D01*
X622379Y27197D01*
X622379Y37912D01*
X623868Y39401D01*
X635972Y39401D01*
X637068Y38306D01*
X637162Y38233D01*
X637251Y38154D01*
X637287Y38136D01*
X637319Y38111D01*
X637428Y38063D01*
X637534Y38009D01*
X637573Y38000D01*
X637611Y37984D01*
X637728Y37966D01*
X637844Y37940D01*
X637885Y37941D01*
X637925Y37935D01*
X638043Y37946D01*
X638162Y37949D01*
X638201Y37961D01*
X638241Y37964D01*
X638353Y38005D01*
X638468Y38038D01*
X638503Y38058D01*
X638541Y38072D01*
X638639Y38139D01*
X638742Y38199D01*
X638787Y38239D01*
X638804Y38251D01*
X638817Y38266D01*
X638863Y38306D01*
X640458Y39901D01*
X648588Y39901D01*
X648686Y39913D01*
X648785Y39916D01*
X648843Y39933D01*
X648903Y39941D01*
X648995Y39977D01*
X649090Y40005D01*
X649092Y40006D01*
X662645Y40006D01*
X662743Y40018D01*
X662842Y40021D01*
X662900Y40038D01*
X662960Y40046D01*
X663052Y40082D01*
X663147Y40110D01*
X663200Y40140D01*
X663256Y40163D01*
X663336Y40221D01*
X663421Y40271D01*
X663497Y40337D01*
X663513Y40349D01*
X663521Y40359D01*
X663542Y40377D01*
X664297Y41132D01*
X666713Y42133D01*
X669327Y42133D01*
X671743Y41132D01*
X673592Y39283D01*
X674593Y36867D01*
X674593Y34253D01*
X673724Y32156D01*
X673711Y32108D01*
X673690Y32063D01*
X673669Y31955D01*
X673640Y31849D01*
X673639Y31799D01*
X673630Y31750D01*
X673637Y31641D01*
X673635Y31531D01*
X673647Y31483D01*
X673650Y31433D01*
X673684Y31329D01*
X673709Y31222D01*
X673733Y31178D01*
X673748Y31131D01*
X673807Y31038D01*
X673858Y30941D01*
X673891Y30904D01*
X673918Y30862D01*
X673998Y30787D01*
X674072Y30705D01*
X674114Y30678D01*
X674150Y30644D01*
X674246Y30591D01*
X674338Y30531D01*
X674385Y30514D01*
X674428Y30490D01*
X674534Y30463D01*
X674638Y30427D01*
X674688Y30423D01*
X674736Y30411D01*
X674897Y30401D01*
X675262Y30401D01*
X676093Y29571D01*
X676202Y29486D01*
X676309Y29397D01*
X676328Y29388D01*
X676344Y29376D01*
X676471Y29320D01*
X676597Y29261D01*
X676617Y29257D01*
X676636Y29249D01*
X676774Y29227D01*
X676910Y29201D01*
X676930Y29203D01*
X676950Y29199D01*
X677089Y29213D01*
X677227Y29221D01*
X677246Y29227D01*
X677266Y29229D01*
X677398Y29276D01*
X677529Y29319D01*
X677547Y29330D01*
X677566Y29337D01*
X677681Y29415D01*
X677798Y29489D01*
X677812Y29504D01*
X677829Y29515D01*
X677921Y29620D01*
X678016Y29721D01*
X678026Y29739D01*
X678039Y29754D01*
X678102Y29878D01*
X678170Y29999D01*
X678175Y30019D01*
X678184Y30037D01*
X678214Y30173D01*
X678249Y30307D01*
X678251Y30335D01*
X678254Y30347D01*
X678253Y30368D01*
X678259Y30468D01*
X678259Y37912D01*
X679748Y39401D01*
X691852Y39401D01*
X692356Y38897D01*
X692395Y38867D01*
X692429Y38830D01*
X692521Y38769D01*
X692607Y38702D01*
X692653Y38682D01*
X692695Y38655D01*
X692799Y38619D01*
X692899Y38576D01*
X692948Y38568D01*
X692995Y38552D01*
X693105Y38543D01*
X693213Y38526D01*
X693263Y38530D01*
X693312Y38526D01*
X693421Y38545D01*
X693530Y38556D01*
X693577Y38572D01*
X693626Y38581D01*
X693726Y38626D01*
X693829Y38663D01*
X693870Y38691D01*
X693916Y38711D01*
X694002Y38780D01*
X694092Y38842D01*
X694125Y38879D01*
X694164Y38910D01*
X694230Y38998D01*
X694303Y39080D01*
X694326Y39124D01*
X694355Y39164D01*
X694426Y39309D01*
X695468Y41823D01*
X697070Y43426D01*
X697156Y43535D01*
X697244Y43642D01*
X697253Y43661D01*
X697265Y43677D01*
X697321Y43805D01*
X697380Y43930D01*
X697383Y43950D01*
X697392Y43969D01*
X697413Y44107D01*
X697439Y44243D01*
X697438Y44263D01*
X697441Y44283D01*
X697428Y44422D01*
X697420Y44560D01*
X697414Y44579D01*
X697412Y44599D01*
X697364Y44731D01*
X697322Y44862D01*
X697311Y44880D01*
X697304Y44899D01*
X697226Y45014D01*
X697152Y45131D01*
X697137Y45145D01*
X697125Y45162D01*
X697021Y45254D01*
X696920Y45349D01*
X696902Y45359D01*
X696887Y45372D01*
X696763Y45436D01*
X696641Y45503D01*
X696622Y45508D01*
X696604Y45517D01*
X696468Y45547D01*
X696333Y45582D01*
X696305Y45584D01*
X696293Y45587D01*
X696273Y45586D01*
X696173Y45592D01*
X575205Y45592D01*
X575068Y45575D01*
X574929Y45562D01*
X574910Y45555D01*
X574890Y45552D01*
X574761Y45501D01*
X574629Y45454D01*
X574613Y45443D01*
X574594Y45435D01*
X574481Y45354D01*
X574366Y45276D01*
X574353Y45260D01*
X574337Y45249D01*
X574248Y45141D01*
X574156Y45037D01*
X574147Y45019D01*
X574134Y45004D01*
X574074Y44878D01*
X574011Y44754D01*
X574007Y44734D01*
X573998Y44716D01*
X573972Y44580D01*
X573942Y44444D01*
X573942Y44423D01*
X573938Y44404D01*
X573947Y44265D01*
X573951Y44126D01*
X573957Y44106D01*
X573958Y44086D01*
X574001Y43954D01*
X574040Y43820D01*
X574050Y43803D01*
X574056Y43784D01*
X574131Y43666D01*
X574201Y43546D01*
X574220Y43525D01*
X574226Y43515D01*
X574241Y43501D01*
X574308Y43426D01*
X576121Y41612D01*
X576121Y29508D01*
X575451Y28838D01*
X575378Y28744D01*
X575299Y28654D01*
X575280Y28618D01*
X575256Y28586D01*
X575208Y28477D01*
X575154Y28371D01*
X575145Y28332D01*
X575129Y28294D01*
X575111Y28177D01*
X575085Y28061D01*
X575086Y28020D01*
X575080Y27980D01*
X575091Y27862D01*
X575094Y27743D01*
X575106Y27704D01*
X575109Y27664D01*
X575150Y27551D01*
X575183Y27437D01*
X575203Y27403D01*
X575217Y27364D01*
X575284Y27266D01*
X575344Y27163D01*
X575384Y27118D01*
X575396Y27101D01*
X575411Y27088D01*
X575451Y27043D01*
X576121Y26372D01*
X576121Y13970D01*
X576136Y13852D01*
X576143Y13733D01*
X576156Y13695D01*
X576161Y13654D01*
X576204Y13544D01*
X576241Y13431D01*
X576263Y13396D01*
X576278Y13359D01*
X576347Y13263D01*
X576411Y13162D01*
X576441Y13134D01*
X576464Y13101D01*
X576556Y13025D01*
X576643Y12944D01*
X576678Y12924D01*
X576709Y12899D01*
X576817Y12848D01*
X576921Y12790D01*
X576961Y12780D01*
X576997Y12763D01*
X577114Y12741D01*
X577229Y12711D01*
X577289Y12707D01*
X577309Y12703D01*
X577330Y12705D01*
X577390Y12701D01*
X595710Y12701D01*
X595828Y12716D01*
G37*
G36*
X226776Y15115D02*
X226776Y15115D01*
X226879Y15118D01*
X226898Y15125D01*
X226918Y15127D01*
X227013Y15167D01*
X227110Y15203D01*
X227126Y15215D01*
X227144Y15223D01*
X227275Y15328D01*
X237602Y25655D01*
X245334Y25655D01*
X245354Y25658D01*
X245373Y25656D01*
X245475Y25678D01*
X245577Y25694D01*
X245594Y25704D01*
X245614Y25708D01*
X245703Y25761D01*
X245794Y25810D01*
X245808Y25824D01*
X245825Y25834D01*
X245892Y25913D01*
X245964Y25988D01*
X245972Y26006D01*
X245985Y26021D01*
X246024Y26117D01*
X246067Y26211D01*
X246069Y26231D01*
X246077Y26249D01*
X246095Y26416D01*
X246095Y36112D01*
X246988Y37005D01*
X249564Y37005D01*
X249584Y37008D01*
X249603Y37006D01*
X249705Y37028D01*
X249807Y37044D01*
X249824Y37054D01*
X249844Y37058D01*
X249933Y37111D01*
X250024Y37160D01*
X250038Y37174D01*
X250055Y37184D01*
X250122Y37263D01*
X250194Y37338D01*
X250202Y37356D01*
X250215Y37371D01*
X250254Y37467D01*
X250297Y37561D01*
X250299Y37581D01*
X250307Y37599D01*
X250325Y37766D01*
X250325Y40918D01*
X252185Y42778D01*
X265352Y55944D01*
X265364Y55961D01*
X265379Y55973D01*
X265435Y56060D01*
X265496Y56144D01*
X265501Y56163D01*
X265512Y56180D01*
X265537Y56280D01*
X265568Y56379D01*
X265567Y56399D01*
X265572Y56418D01*
X265564Y56521D01*
X265562Y56625D01*
X265555Y56644D01*
X265553Y56664D01*
X265513Y56759D01*
X265477Y56856D01*
X265465Y56872D01*
X265457Y56890D01*
X265352Y57021D01*
X265060Y57313D01*
X263397Y61327D01*
X263397Y65673D01*
X265060Y69687D01*
X267606Y72233D01*
X267648Y72291D01*
X267697Y72343D01*
X267719Y72390D01*
X267749Y72432D01*
X267770Y72501D01*
X267801Y72566D01*
X267806Y72618D01*
X267822Y72668D01*
X267820Y72739D01*
X267828Y72810D01*
X267817Y72861D01*
X267815Y72913D01*
X267791Y72981D01*
X267775Y73051D01*
X267749Y73096D01*
X267731Y73144D01*
X267686Y73200D01*
X267649Y73262D01*
X267610Y73296D01*
X267577Y73336D01*
X267517Y73375D01*
X267462Y73422D01*
X267414Y73441D01*
X267370Y73469D01*
X267301Y73487D01*
X267234Y73514D01*
X267163Y73522D01*
X267132Y73530D01*
X267108Y73528D01*
X267067Y73532D01*
X256173Y73532D01*
X256102Y73521D01*
X256030Y73519D01*
X255981Y73501D01*
X255930Y73493D01*
X255867Y73459D01*
X255799Y73434D01*
X255759Y73402D01*
X255712Y73377D01*
X255663Y73325D01*
X255607Y73281D01*
X255579Y73237D01*
X255543Y73199D01*
X255513Y73134D01*
X255474Y73074D01*
X255461Y73023D01*
X255439Y72976D01*
X255432Y72905D01*
X255414Y72835D01*
X255418Y72783D01*
X255412Y72732D01*
X255428Y72661D01*
X255433Y72590D01*
X255454Y72542D01*
X255465Y72491D01*
X255501Y72430D01*
X255530Y72364D01*
X255574Y72308D01*
X255591Y72280D01*
X255609Y72265D01*
X255634Y72233D01*
X258180Y69687D01*
X259843Y65673D01*
X259843Y61327D01*
X258180Y57313D01*
X255107Y54240D01*
X251093Y52577D01*
X246627Y52577D01*
X246536Y52563D01*
X246446Y52555D01*
X246416Y52543D01*
X246384Y52538D01*
X246303Y52495D01*
X246219Y52459D01*
X246187Y52433D01*
X246166Y52422D01*
X246144Y52399D01*
X246088Y52354D01*
X239707Y45973D01*
X234943Y45973D01*
X234852Y45959D01*
X234762Y45951D01*
X234732Y45939D01*
X234700Y45934D01*
X234619Y45891D01*
X234535Y45855D01*
X234503Y45829D01*
X234482Y45818D01*
X234460Y45795D01*
X234404Y45750D01*
X231070Y42416D01*
X231017Y42342D01*
X230957Y42272D01*
X230945Y42242D01*
X230926Y42216D01*
X230899Y42129D01*
X230865Y42044D01*
X230861Y42003D01*
X230854Y41981D01*
X230855Y41949D01*
X230847Y41877D01*
X230847Y36013D01*
X230861Y35923D01*
X230869Y35832D01*
X230881Y35803D01*
X230886Y35771D01*
X230929Y35690D01*
X230965Y35606D01*
X230991Y35574D01*
X231002Y35553D01*
X231025Y35531D01*
X231070Y35475D01*
X233867Y32678D01*
X233867Y28282D01*
X231070Y25485D01*
X231017Y25411D01*
X230957Y25341D01*
X230945Y25311D01*
X230926Y25285D01*
X230899Y25198D01*
X230865Y25113D01*
X230861Y25072D01*
X230854Y25050D01*
X230855Y25018D01*
X230847Y24947D01*
X230847Y23411D01*
X225019Y17584D01*
X225008Y17568D01*
X224992Y17555D01*
X224963Y17509D01*
X224939Y17485D01*
X224923Y17450D01*
X224876Y17384D01*
X224870Y17365D01*
X224859Y17348D01*
X224839Y17270D01*
X224835Y17262D01*
X224834Y17249D01*
X224834Y17248D01*
X224803Y17149D01*
X224804Y17129D01*
X224799Y17110D01*
X224807Y17007D01*
X224810Y16903D01*
X224817Y16884D01*
X224818Y16864D01*
X224858Y16770D01*
X224894Y16672D01*
X224907Y16656D01*
X224914Y16638D01*
X225019Y16507D01*
X226199Y15328D01*
X226215Y15316D01*
X226227Y15300D01*
X226315Y15244D01*
X226398Y15184D01*
X226417Y15178D01*
X226434Y15167D01*
X226535Y15142D01*
X226634Y15112D01*
X226653Y15112D01*
X226673Y15107D01*
X226776Y15115D01*
G37*
%LPC*%
G36*
X57854Y37669D02*
X57854Y37669D01*
X56019Y39504D01*
X55025Y41902D01*
X55025Y44498D01*
X56019Y46896D01*
X57854Y48731D01*
X60252Y49725D01*
X73848Y49725D01*
X76246Y48731D01*
X78081Y46896D01*
X79075Y44498D01*
X79075Y41902D01*
X78081Y39504D01*
X76246Y37669D01*
X73987Y36733D01*
X73986Y36733D01*
X73848Y36675D01*
X60252Y36675D01*
X57854Y37669D01*
G37*
%LPD*%
%LPC*%
G36*
X20952Y-49725D02*
X20952Y-49725D01*
X18554Y-48731D01*
X16719Y-46896D01*
X15725Y-44498D01*
X15725Y-41902D01*
X16719Y-39504D01*
X18554Y-37669D01*
X20952Y-36675D01*
X29548Y-36675D01*
X31946Y-37669D01*
X33781Y-39504D01*
X34775Y-41902D01*
X34775Y-44498D01*
X33781Y-46896D01*
X31946Y-48731D01*
X29548Y-49725D01*
X20952Y-49725D01*
G37*
%LPD*%
%LPC*%
G36*
X20952Y36675D02*
X20952Y36675D01*
X18554Y37669D01*
X16719Y39504D01*
X15725Y41902D01*
X15725Y44498D01*
X16719Y46896D01*
X18554Y48731D01*
X20952Y49725D01*
X29548Y49725D01*
X31946Y48731D01*
X33781Y46896D01*
X34775Y44498D01*
X34775Y41902D01*
X33781Y39504D01*
X31946Y37669D01*
X29548Y36675D01*
X20952Y36675D01*
G37*
%LPD*%
%LPC*%
G36*
X396212Y-50975D02*
X396212Y-50975D01*
X393814Y-49981D01*
X391979Y-48146D01*
X390985Y-45748D01*
X390985Y-43152D01*
X391979Y-40754D01*
X393814Y-38919D01*
X396212Y-37925D01*
X398808Y-37925D01*
X401206Y-38919D01*
X403041Y-40754D01*
X404035Y-43152D01*
X404035Y-45748D01*
X403041Y-48146D01*
X401206Y-49981D01*
X398808Y-50975D01*
X396212Y-50975D01*
G37*
%LPD*%
D10*
X226140Y-4490D02*
X229960Y-4490D01*
X229960Y-5510D01*
X226140Y-5510D01*
X226140Y-4490D01*
X226140Y510D02*
X229960Y510D01*
X229960Y-510D01*
X226140Y-510D01*
X226140Y510D01*
X226140Y5510D02*
X229960Y5510D01*
X229960Y4490D01*
X226140Y4490D01*
X226140Y5510D01*
X222890Y10240D02*
X222890Y14060D01*
X223910Y14060D01*
X223910Y10240D01*
X222890Y10240D01*
X222890Y12121D02*
X223910Y12121D01*
X223910Y14002D02*
X222890Y14002D01*
X217890Y14060D02*
X217890Y10240D01*
X217890Y14060D02*
X218910Y14060D01*
X218910Y10240D01*
X217890Y10240D01*
X217890Y12121D02*
X218910Y12121D01*
X218910Y14002D02*
X217890Y14002D01*
X212890Y14060D02*
X212890Y10240D01*
X212890Y14060D02*
X213910Y14060D01*
X213910Y10240D01*
X212890Y10240D01*
X212890Y12121D02*
X213910Y12121D01*
X213910Y14002D02*
X212890Y14002D01*
X207890Y14060D02*
X207890Y10240D01*
X207890Y14060D02*
X208910Y14060D01*
X208910Y10240D01*
X207890Y10240D01*
X207890Y12121D02*
X208910Y12121D01*
X208910Y14002D02*
X207890Y14002D01*
X205660Y4490D02*
X201840Y4490D01*
X201840Y5510D01*
X205660Y5510D01*
X205660Y4490D01*
X205660Y-510D02*
X201840Y-510D01*
X201840Y510D01*
X205660Y510D01*
X205660Y-510D01*
X205660Y-5510D02*
X201840Y-5510D01*
X201840Y-4490D01*
X205660Y-4490D01*
X205660Y-5510D01*
X208910Y-10240D02*
X208910Y-14060D01*
X207890Y-14060D01*
X207890Y-10240D01*
X208910Y-10240D01*
X208910Y-12179D02*
X207890Y-12179D01*
X207890Y-10298D02*
X208910Y-10298D01*
X213910Y-10240D02*
X213910Y-14060D01*
X212890Y-14060D01*
X212890Y-10240D01*
X213910Y-10240D01*
X213910Y-12179D02*
X212890Y-12179D01*
X212890Y-10298D02*
X213910Y-10298D01*
X218910Y-10240D02*
X218910Y-14060D01*
X217890Y-14060D01*
X217890Y-10240D01*
X218910Y-10240D01*
X218910Y-12179D02*
X217890Y-12179D01*
X217890Y-10298D02*
X218910Y-10298D01*
X223910Y-10240D02*
X223910Y-14060D01*
X222890Y-14060D01*
X222890Y-10240D01*
X223910Y-10240D01*
X223910Y-12179D02*
X222890Y-12179D01*
X222890Y-10298D02*
X223910Y-10298D01*
D11*
X215900Y0D03*
D12*
X312420Y-25400D02*
X334920Y-25400D01*
X334920Y25400D02*
X312420Y25400D01*
D13*
X72800Y-7500D03*
X72800Y-2500D03*
D14*
X72800Y-32250D03*
X72800Y-24500D03*
D13*
X72800Y-17500D03*
X72800Y-12500D03*
X72800Y7500D03*
X72800Y2500D03*
D14*
X72800Y32250D03*
X72800Y24500D03*
D13*
X72800Y17500D03*
X72800Y12500D03*
D15*
X72550Y43200D02*
X61550Y43200D01*
X61550Y-43200D02*
X72550Y-43200D01*
X28250Y43200D02*
X22250Y43200D01*
X22250Y-43200D02*
X28250Y-43200D01*
D16*
X130420Y-30480D03*
X113420Y-30480D03*
X161680Y0D03*
X178680Y0D03*
X161680Y15240D03*
X178680Y15240D03*
X161680Y30480D03*
X178680Y30480D03*
X253120Y15240D03*
X270120Y15240D03*
X253120Y30480D03*
X270120Y30480D03*
X253120Y-15240D03*
X270120Y-15240D03*
X253120Y-30480D03*
X270120Y-30480D03*
X253120Y0D03*
X270120Y0D03*
X178680Y-15240D03*
X161680Y-15240D03*
X130420Y30480D03*
X113420Y30480D03*
D17*
X130485Y17186D02*
X132355Y17186D01*
X132355Y8816D01*
X130485Y8816D01*
X130485Y17186D01*
X130485Y12264D02*
X132355Y12264D01*
X132355Y15712D02*
X130485Y15712D01*
X122855Y17186D02*
X120985Y17186D01*
X122855Y17186D02*
X122855Y8816D01*
X120985Y8816D01*
X120985Y17186D01*
X120985Y12264D02*
X122855Y12264D01*
X122855Y15712D02*
X120985Y15712D01*
X113355Y17186D02*
X111485Y17186D01*
X113355Y17186D02*
X113355Y8816D01*
X111485Y8816D01*
X111485Y17186D01*
X111485Y12264D02*
X113355Y12264D01*
X113355Y15712D02*
X111485Y15712D01*
X111485Y-8816D02*
X113355Y-8816D01*
X113355Y-17186D01*
X111485Y-17186D01*
X111485Y-8816D01*
X111485Y-13738D02*
X113355Y-13738D01*
X113355Y-10290D02*
X111485Y-10290D01*
X130485Y-8816D02*
X132355Y-8816D01*
X132355Y-17186D01*
X130485Y-17186D01*
X130485Y-8816D01*
X130485Y-13738D02*
X132355Y-13738D01*
X132355Y-10290D02*
X130485Y-10290D01*
X122855Y-17186D02*
X120985Y-17186D01*
X120985Y-8816D01*
X122855Y-8816D01*
X122855Y-17186D01*
X122855Y-13738D02*
X120985Y-13738D01*
X120985Y-10290D02*
X122855Y-10290D01*
D18*
X20320Y63500D03*
X45720Y63500D03*
X71120Y63500D03*
X96520Y63500D03*
X121920Y63500D03*
X147320Y63500D03*
X172720Y63500D03*
X198120Y63500D03*
X223520Y63500D03*
X248920Y63500D03*
X274320Y63500D03*
X20320Y-63500D03*
X45720Y-63500D03*
X71120Y-63500D03*
X96520Y-63500D03*
X121920Y-63500D03*
X147320Y-63500D03*
X172720Y-63500D03*
X198120Y-63500D03*
X223520Y-63500D03*
X248920Y-63500D03*
X274320Y-63500D03*
D19*
X44450Y29210D03*
X397510Y-44450D03*
D16*
X585080Y-35560D03*
X568080Y-35560D03*
X549520Y-22860D03*
X532520Y-22860D03*
X585080Y-15240D03*
X568080Y-15240D03*
X585080Y0D03*
X568080Y0D03*
X585080Y35560D03*
X568080Y35560D03*
X585080Y20320D03*
X568080Y20320D03*
D20*
X604520Y31360D03*
X604520Y14360D03*
X629920Y14360D03*
X629920Y31360D03*
X604520Y-31360D03*
X604520Y-14360D03*
X685800Y31360D03*
X685800Y14360D03*
X668020Y-31360D03*
X668020Y-14360D03*
X734060Y-31360D03*
X734060Y-14360D03*
X716280Y31360D03*
X716280Y14360D03*
D21*
X734060Y32860D03*
X734060Y12860D03*
D22*
X667860Y22860D03*
X647860Y13360D03*
X647860Y32360D03*
X650080Y-22860D03*
X630080Y-32360D03*
X630080Y-13360D03*
D23*
X498780Y-40300D03*
X498780Y-34100D03*
X498780Y-27900D03*
X498780Y-21700D03*
X498780Y-15500D03*
X498780Y-9300D03*
X498780Y-3100D03*
X498780Y3100D03*
X498780Y9300D03*
X498780Y15500D03*
X498780Y21700D03*
X498780Y27900D03*
X498780Y34100D03*
X498780Y40300D03*
D17*
X720766Y-31425D02*
X720766Y-33295D01*
X712396Y-33295D01*
X712396Y-31425D01*
X720766Y-31425D01*
X720766Y-23795D02*
X720766Y-21925D01*
X720766Y-23795D02*
X712396Y-23795D01*
X712396Y-21925D01*
X720766Y-21925D01*
X720766Y-14295D02*
X720766Y-12425D01*
X720766Y-14295D02*
X712396Y-14295D01*
X712396Y-12425D01*
X720766Y-12425D01*
X694764Y-12425D02*
X694764Y-14295D01*
X686394Y-14295D01*
X686394Y-12425D01*
X694764Y-12425D01*
X694764Y-31425D02*
X694764Y-33295D01*
X686394Y-33295D01*
X686394Y-31425D01*
X694764Y-31425D01*
D18*
X807720Y-25400D03*
X782320Y-25400D03*
X807720Y0D03*
X782320Y0D03*
X807720Y25400D03*
X782320Y25400D03*
D24*
X86360Y40640D03*
X86360Y33020D03*
X93980Y33020D03*
X93980Y40640D03*
X93980Y-40640D03*
X93980Y-33020D03*
X86360Y-40640D03*
X86360Y-33020D03*
D25*
X203750Y0D02*
X215900Y-2101D01*
X215820Y5000D02*
X203750Y5000D01*
X215820Y5000D02*
X215900Y5080D01*
X215900Y-2101D01*
D24*
X238760Y38100D03*
X335280Y43180D03*
X335280Y7620D03*
X322580Y7620D03*
X309880Y7620D03*
X322580Y43180D03*
X309880Y43180D03*
X347980Y43180D03*
X347980Y7620D03*
X335280Y55880D03*
X322580Y55880D03*
X309880Y55880D03*
X347980Y55880D03*
X386080Y7620D03*
X373380Y7620D03*
X360680Y7620D03*
X398780Y7620D03*
X386080Y30480D03*
X373380Y30480D03*
X360680Y30480D03*
X398780Y30480D03*
X386080Y20320D03*
X373380Y20320D03*
X360680Y20320D03*
X398780Y20320D03*
X386080Y43180D03*
X373380Y43180D03*
X360680Y43180D03*
X398780Y43180D03*
X386080Y55880D03*
X373380Y55880D03*
X360680Y55880D03*
X398780Y55880D03*
D26*
X617220Y38100D03*
X617220Y0D03*
X472440Y0D03*
X457200Y10160D03*
X457200Y-10160D03*
X472440Y20320D03*
X457200Y30480D03*
X472440Y40640D03*
X472440Y-20320D03*
X472440Y-40640D03*
X457200Y-30480D03*
X652780Y-40640D03*
X769620Y40640D03*
X749300Y-15240D03*
X769620Y-40640D03*
X762000Y-15240D03*
X701040Y-40640D03*
D25*
X113420Y-30480D02*
X113420Y-30500D01*
X95660Y-48260D01*
X83820Y-48260D01*
X78760Y-43200D02*
X67050Y-43200D01*
X78760Y-43200D02*
X83820Y-48260D01*
D27*
X72800Y2500D02*
X66000Y2500D01*
X63500Y0D01*
X63500Y-5080D01*
X65920Y-7500D01*
X72800Y-7500D01*
X78860Y-7500D01*
X83820Y-2540D01*
X131420Y-9041D02*
X131420Y-13001D01*
X137160Y-2540D02*
X147320Y7620D01*
X147320Y63500D01*
X132080Y-2540D02*
X83820Y-2540D01*
X132080Y-2540D02*
X137160Y-2540D01*
X131420Y-3200D02*
X131420Y-13001D01*
X131420Y-3200D02*
X132080Y-2540D01*
X78780Y-2500D02*
X72800Y-2500D01*
X78780Y-2500D02*
X83820Y2540D01*
X78860Y7500D02*
X72800Y7500D01*
X78860Y7500D02*
X83820Y2540D01*
X131420Y9041D02*
X131420Y13001D01*
X134620Y2540D02*
X142240Y10160D01*
X142240Y43180D01*
X121920Y63500D01*
X132080Y2540D02*
X83820Y2540D01*
X132080Y2540D02*
X134620Y2540D01*
X131420Y3200D02*
X131420Y13001D01*
X131420Y3200D02*
X132080Y2540D01*
X80086Y-11354D02*
X80086Y-14847D01*
X77433Y-17500D02*
X72800Y-17500D01*
X77433Y-17500D02*
X80086Y-14847D01*
X80086Y-11354D02*
X83519Y-7921D01*
X99361Y-7921D01*
X228050Y-5000D02*
X236140Y-5000D01*
D24*
X238760Y-7620D03*
D27*
X112420Y-13001D02*
X112119Y-12700D01*
X104140Y-12700D01*
D24*
X104140Y-12700D03*
D27*
X99361Y-7921D01*
X223400Y-12150D02*
X236770Y-12150D01*
X238760Y-10160D01*
X238760Y-7620D01*
X236140Y-5000D01*
X246380Y0D02*
X253120Y0D01*
X246380Y0D02*
X238760Y-7620D01*
X85500Y7420D02*
X80420Y12500D01*
X72800Y12500D01*
X85500Y7420D02*
X98860Y7420D01*
X198040Y-5000D02*
X203750Y-5000D01*
X198040Y-5000D02*
X193040Y0D01*
D24*
X193040Y0D03*
D27*
X198120Y-12150D02*
X208400Y-12150D01*
X198120Y-5080D02*
X193040Y0D01*
X198120Y-5080D02*
X198120Y-12150D01*
X195030Y-15240D01*
X178680Y-15240D01*
X112420Y13001D02*
X112119Y12700D01*
X104140Y12700D01*
D24*
X104140Y12700D03*
D27*
X98860Y7420D01*
D24*
X86360Y15240D03*
X93980Y15240D03*
X86360Y22860D03*
X93980Y22860D03*
X86360Y-15240D03*
X86360Y-22860D03*
X93980Y-22860D03*
X93980Y-15240D03*
D25*
X233680Y0D02*
X238760Y5080D01*
X233680Y0D02*
X228050Y0D01*
D24*
X238760Y5080D03*
X335280Y-7620D03*
X322580Y-7620D03*
X309880Y-7620D03*
X347980Y-7620D03*
X335280Y-43180D03*
X322580Y-43180D03*
X309880Y-43180D03*
X347980Y-43180D03*
X335280Y-55880D03*
X322580Y-55880D03*
X309880Y-55880D03*
X347980Y-55880D03*
X386080Y-7620D03*
X373380Y-7620D03*
X360680Y-7620D03*
X398780Y-7620D03*
X373380Y-43180D03*
X360680Y-43180D03*
X373380Y-55880D03*
X360680Y-55880D03*
X398780Y-20320D03*
X386080Y-20320D03*
X373380Y-20320D03*
X373380Y-30480D03*
X360680Y-20320D03*
X360680Y-30480D03*
D25*
X121920Y13001D02*
X121920Y21980D01*
X130420Y30480D01*
X117720Y43180D01*
X116840Y43180D02*
X96520Y63500D01*
X116840Y43180D02*
X117720Y43180D01*
D27*
X248920Y58420D02*
X248920Y63500D01*
X248920Y58420D02*
X238760Y48260D01*
X233680Y48260D01*
X228560Y43140D02*
X228560Y30480D01*
X228560Y43140D02*
X233680Y48260D01*
X218400Y14199D02*
X218400Y12150D01*
X228560Y24359D02*
X228560Y30480D01*
X228560Y24359D02*
X218400Y14199D01*
X193040Y30480D02*
X178680Y30480D01*
D24*
X193040Y30480D03*
X228560Y30480D03*
D27*
X223520Y48260D02*
X223520Y63500D01*
X223520Y48260D02*
X218480Y43220D01*
X203200Y30480D02*
X187960Y15240D01*
X178680Y15240D01*
D24*
X203200Y30480D03*
X218480Y30480D03*
D27*
X218480Y43220D01*
X218480Y22310D02*
X213400Y17230D01*
X213400Y12150D01*
X218480Y22310D02*
X218480Y30480D01*
X198120Y62230D02*
X198120Y63500D01*
X190500Y11820D02*
X178680Y0D01*
X210940Y22310D02*
X210940Y49410D01*
X210940Y22310D02*
X208400Y19770D01*
X208400Y12150D01*
X210940Y49410D02*
X198120Y62230D01*
X208400Y12150D02*
X208070Y11820D01*
X190500Y11820D01*
D25*
X213400Y-12150D02*
X213400Y-17820D01*
X215900Y-20320D01*
X218400Y-17820D01*
X218400Y-12150D01*
X253120Y-15240D02*
X253120Y-30480D01*
X253120Y-22860D01*
X218440Y-22860D02*
X215900Y-20320D01*
X218440Y-22860D02*
X238760Y-22860D01*
X253120Y-22860D01*
D24*
X238760Y-30480D03*
D25*
X238760Y-22860D01*
X274320Y60960D02*
X274320Y63500D01*
X274320Y60960D02*
X253120Y39760D01*
X253120Y30480D01*
X253120Y15240D01*
X253120Y22860D01*
X238760Y22860D01*
X228050Y12150D02*
X223400Y12150D01*
X228050Y12150D02*
X238760Y22860D01*
X228050Y12150D02*
X228050Y5000D01*
X172720Y41520D02*
X172720Y63500D01*
X172720Y41520D02*
X161680Y30480D01*
X161680Y15240D01*
X161680Y0D01*
X498780Y-40300D02*
X563340Y-40300D01*
X568080Y-35560D01*
X554370Y-34100D02*
X498780Y-34100D01*
X554370Y-34100D02*
X561212Y-27258D01*
X576778Y-27258D01*
X585080Y-35560D01*
X519860Y-27900D02*
X498780Y-27900D01*
X524900Y-22860D02*
X532520Y-22860D01*
X524900Y-22860D02*
X519860Y-27900D01*
X498890Y-21590D02*
X498780Y-21700D01*
X498890Y-21590D02*
X517350Y-21590D01*
X539948Y-13288D02*
X549520Y-22860D01*
X539948Y-13288D02*
X525652Y-13288D01*
X517350Y-21590D01*
X522004Y34100D02*
X498780Y34100D01*
X522004Y34100D02*
X523178Y35274D01*
X545506Y35274D01*
X560460Y20320D02*
X568080Y20320D01*
X560460Y20320D02*
X545506Y35274D01*
X522270Y27900D02*
X498780Y27900D01*
X522270Y27900D02*
X525072Y30702D01*
X542068Y30702D01*
X563880Y8890D01*
X599050Y8890D02*
X604520Y14360D01*
X599050Y8890D02*
X563880Y8890D01*
X549370Y40300D02*
X498780Y40300D01*
X554110Y35560D02*
X568080Y35560D01*
X554110Y35560D02*
X549370Y40300D01*
D26*
X551180Y7620D03*
D25*
X532060Y9300D02*
X498780Y9300D01*
X533740Y7620D02*
X551180Y7620D01*
X533740Y7620D02*
X532060Y9300D01*
X716280Y31360D02*
X732560Y31360D01*
X734060Y32860D01*
X716280Y31360D02*
X707780Y31360D01*
X701040Y38100D01*
D26*
X701040Y38100D03*
X541020Y-5080D03*
D28*
X516076Y-15500D02*
X498780Y-15500D01*
X526496Y-5080D02*
X541020Y-5080D01*
X526496Y-5080D02*
X516076Y-15500D01*
X541020Y-5080D02*
X546100Y-10160D01*
X563000Y-10160D01*
X568080Y-15240D01*
D25*
X604520Y-14360D02*
X629080Y-14360D01*
X630080Y-13360D01*
X629920Y31360D02*
X646860Y31360D01*
X647860Y32360D01*
D26*
X680720Y-22860D03*
D28*
X690220Y-32360D01*
X690579Y-32360D01*
X680720Y-5080D02*
X685800Y0D01*
X680720Y-5080D02*
X680720Y-22860D01*
X716280Y0D02*
X716280Y14360D01*
X632460Y-10980D02*
X630080Y-13360D01*
X632460Y-10980D02*
X632460Y0D01*
D26*
X632460Y0D03*
D28*
X647860Y32360D02*
X651060Y35560D01*
X668020Y35560D01*
D26*
X668020Y35560D03*
D28*
X685800Y0D02*
X716280Y0D01*
D26*
X716280Y0D03*
D25*
X685800Y31360D02*
X677300Y22860D01*
X667860Y22860D01*
X685800Y31360D02*
X692150Y25010D01*
X696350Y25010D01*
X701040Y20320D01*
D26*
X701040Y20320D03*
D25*
X659520Y-22860D02*
X668020Y-31360D01*
X659520Y-22860D02*
X650080Y-22860D01*
X650240Y-22700D01*
X650240Y-5080D01*
X645160Y0D01*
D26*
X645160Y0D03*
D25*
X734220Y12700D02*
X795020Y12700D01*
X734220Y12700D02*
X734060Y12860D01*
X795020Y12700D02*
X807720Y0D01*
D26*
X528320Y22860D03*
D25*
X527160Y21700D02*
X498780Y21700D01*
X527160Y21700D02*
X528320Y22860D01*
X629920Y14360D02*
X646860Y14360D01*
X647860Y13360D01*
D26*
X617220Y20320D03*
D25*
X623960Y20320D02*
X629920Y14360D01*
X623960Y20320D02*
X617220Y20320D01*
D26*
X541020Y17780D03*
D25*
X524590Y15500D02*
X498780Y15500D01*
X524590Y15500D02*
X525072Y15018D01*
X531568Y15018D01*
X534330Y17780D01*
X541020Y17780D01*
X604520Y-31360D02*
X629080Y-31360D01*
X630080Y-32360D01*
D26*
X617220Y-22860D03*
D25*
X617220Y-31360D01*
X604520Y-31360D01*
D28*
X716581Y-32360D02*
X733060Y-32360D01*
X734060Y-31360D01*
X740020Y-25400D02*
X782320Y-25400D01*
X740020Y-25400D02*
X734060Y-31360D01*
X716581Y-32360D02*
X708000Y-32360D01*
X703580Y-27940D01*
X703580Y-22860D01*
X703580Y-17780D01*
X708000Y-13360D02*
X716581Y-13360D01*
X708000Y-13360D02*
X703580Y-17780D01*
X685800Y14360D02*
X671440Y0D01*
X660400Y0D01*
X660400Y-7620D02*
X667140Y-14360D01*
X668020Y-14360D01*
X660400Y-7620D02*
X660400Y0D01*
D26*
X660400Y0D03*
X703580Y-22860D03*
D25*
X567858Y-222D02*
X547932Y-222D01*
X567858Y-222D02*
X568080Y0D01*
X533064Y3100D02*
X498780Y3100D01*
X533064Y3100D02*
X533338Y2826D01*
X544884Y2826D01*
X547932Y-222D01*
M02*
