M48
;GenerationSoftware,Autodesk,EAGLE,9.6.0*%
;CreationDate,2021-04-24T07:29:21Z*%
FMAT,2
ICI,OFF
METRIC,TZ,000.000
T4C0.300
T3C0.650
T2C0.700
T1C1.350
%
G90
M71
T1
X6211Y36620
X23914Y11620
X28994Y11620
X33414Y11620
X38494Y11620
X88709Y11620
X93789Y11620
X76086Y36620
X71006Y36620
X66586Y36620
X61506Y36620
X11291Y36620
T2
X66306Y81839
X64506Y81839
T3
X10683Y14510
X10683Y8730
X89317Y39510
X89317Y33730
T4
X67119Y11468
X43751Y13906
X13004Y12090
X18224Y7153
X53601Y12057
X44767Y9080
X85915Y13906
X85915Y9334
X46111Y10277
X72326Y7937
X65849Y13398
X17589Y7153
X17907Y7712
X47815Y7757
X53601Y11422
X6032Y11620
X8572Y11620
X8572Y13144
X7302Y12382
X7302Y10858
X6032Y10096
X7302Y9334
X7302Y13906
X8572Y10096
X8572Y8572
X9842Y10858
X9842Y12382
X8572Y14668
X54617Y9517
X53855Y9009
X67754Y8191
X69532Y8775
X71183Y16065
X77660Y14033
X30264Y13017
X72072Y14947
X73215Y8750
X82105Y8445
X49720Y13144
X68135Y12001
X64960Y12128
X49717Y11312
X81089Y16065
X74053Y8013
X73190Y11620
X83502Y16065
X40830Y15709
X42227Y13271
X41719Y15709
X42227Y12509
X65011Y10579
X32194Y13017
X48069Y8572
X65493Y8267
X65290Y7505
X45021Y13652
X64198Y14414
X65417Y12763
X45783Y13394
X64960Y14414
X67754Y14033
X69989Y15938
X46240Y11497
X46164Y14541
X70446Y12560
X77279Y16065
X73215Y13474
X18732Y11239
X19113Y10731
X14973Y10909
X14541Y10477
X14033Y13652
X13525Y13398
X13017Y13652
X14109Y10909
X64376Y8369
X81978Y7175
X45402Y14541
X71208Y12534
X72910Y14185
X45402Y7937
X78422Y7150
X62547Y7683
X55562Y7531
X55562Y8166
X72859Y10934
X67754Y9309
X76522Y16065
X79565Y16065
X78041Y16065
X71234Y11290
X13347Y10579
X15684Y10528
X20764Y8572
X64985Y8902
X78803Y16065
X17895Y36874
X25896Y40557
X55360Y36239
X55360Y37001
X56122Y37001
X56122Y36239
X19927Y34207
X19927Y39033
X24753Y39033
X24753Y34207
X24753Y36620
X19927Y36620
X22340Y34207
X22340Y36620
X17895Y35096
X13069Y34334
X12942Y36620
X12942Y38906
X32881Y36468
X56249Y38906
X86996Y37090
X81776Y32153
X46399Y37057
X55233Y34080
X14085Y38906
X14085Y34334
X53889Y35277
X27674Y32937
X34151Y38398
X82411Y32153
X82094Y32712
X52185Y32757
X46399Y36422
X93968Y36620
X91428Y36620
X91428Y38144
X92698Y37382
X92698Y35858
X93968Y35096
X92698Y34334
X92698Y38906
X91428Y35096
X91428Y33572
X90158Y35858
X90158Y37382
X91428Y39668
X45383Y34517
X46145Y34009
X32246Y33191
X30468Y33775
X28817Y41065
X22340Y39033
X69736Y38017
X27928Y39947
X26785Y33750
X17895Y33445
X50280Y38144
X31865Y37001
X35040Y37128
X50283Y36312
X18911Y41065
X25947Y33013
X26810Y36620
X16498Y41065
X59170Y40709
X57773Y38271
X58281Y40709
X57773Y37509
X34989Y35579
X67806Y38017
X51931Y33572
X82105Y11874
X34710Y32505
X54979Y38652
X35802Y39414
X34583Y37763
X54217Y38394
X35040Y39414
X32246Y39033
X30011Y40938
X53760Y36497
X53836Y39541
X29554Y37560
X22721Y41065
X26785Y38474
X81268Y36239
X80887Y35731
X85027Y35909
X85459Y35477
X85967Y38652
X86475Y38398
X86983Y38652
X85891Y35909
X35624Y33369
X18022Y32175
X54598Y39541
X28792Y37534
X27090Y39185
X54598Y32937
X21578Y32150
X37453Y32683
X34507Y33267
X44438Y33166
X27141Y35934
X32246Y34309
X23478Y41065
X20435Y41065
X21959Y41065
X28766Y36290
X86653Y35579
X84316Y35528
X79236Y33572
X35015Y33902
X21197Y41065
X74104Y15557
X44640Y11239
X44640Y12001
X43878Y12001
X43878Y11239
X80073Y9207
X80073Y14033
X75247Y14033
X75247Y9207
X75247Y11620
X80073Y11620
X77660Y9207
X77660Y11620
X82105Y10096
X86931Y9334
X87058Y11620
X87058Y13906
X44438Y32531
M30