G04 EAGLE Gerber RS-274X export*
G75*
%MOMM*%
%FSLAX34Y34*%
%LPD*%
%INSoldermask Top*%
%IPPOS*%
%AMOC8*
5,1,8,0,0,1.08239X$1,22.5*%
G01*
%ADD10C,1.524000*%
%ADD11C,0.914400*%
%ADD12C,0.635000*%
%ADD13C,0.660400*%
%ADD14C,0.558800*%
%ADD15C,0.508000*%
%ADD16C,0.711200*%
%ADD17C,0.406400*%
%ADD18R,0.850800X0.280800*%
%ADD19R,0.280800X0.850800*%
%ADD20R,4.350800X4.350800*%
%ADD21R,0.350800X1.250800*%
%ADD22R,1.250800X0.350800*%
%ADD23R,0.270800X1.050800*%
%ADD24R,1.050800X0.270800*%
%ADD25C,0.252447*%
%ADD26R,3.400800X3.400800*%
%ADD27R,0.900800X0.250800*%
%ADD28R,0.250800X0.900800*%
%ADD29R,2.700800X2.700800*%
%ADD30C,0.350400*%
%ADD31R,0.600000X0.300000*%
%ADD32R,2.450000X1.700000*%
%ADD33R,0.350000X0.760000*%
%ADD34R,0.545800X0.300800*%
%ADD35R,0.650800X0.300800*%
%ADD36R,0.300800X0.545800*%
%ADD37R,0.300800X0.650800*%
%ADD38R,0.104000X0.453000*%
%ADD39R,0.453000X0.104000*%
%ADD40R,1.300000X0.350000*%
%ADD41R,0.350000X1.300000*%
%ADD42C,0.346763*%
%ADD43C,0.414550*%
%ADD44C,0.380050*%
%ADD45C,0.315559*%
%ADD46C,0.238131*%
%ADD47R,3.200800X3.200800*%
%ADD48C,0.455675*%
%ADD49C,0.191863*%
%ADD50R,2.550800X2.550800*%
%ADD51C,0.598416*%
%ADD52C,0.464253*%
%ADD53C,1.050800*%
%ADD54C,0.199953*%
%ADD55C,0.351431*%
%ADD56C,0.750800*%
%ADD57C,0.379763*%
%ADD58C,0.383972*%
%ADD59C,0.350800*%
%ADD60R,2.100800X2.100800*%
%ADD61C,0.307338*%
%ADD62C,0.272541*%
%ADD63C,0.277131*%
%ADD64C,0.339047*%
%ADD65C,0.345181*%
%ADD66C,0.234866*%
%ADD67C,0.421450*%
%ADD68C,0.700800*%
%ADD69C,0.309372*%
%ADD70C,0.246731*%
%ADD71C,0.340272*%
%ADD72C,0.406222*%
%ADD73C,0.201747*%
%ADD74C,0.445606*%
%ADD75P,2.246825X8X112.500000*%
%ADD76C,1.050800*%
%ADD77C,0.216575*%
%ADD78C,0.369822*%
%ADD79C,0.243838*%
%ADD80C,0.275731*%
%ADD81C,2.050800*%
%ADD82C,0.280559*%
%ADD83C,0.425194*%
%ADD84C,0.182878*%

G36*
X331018Y802857D02*
X331018Y802857D01*
X331020Y802856D01*
X331063Y802876D01*
X331107Y802894D01*
X331107Y802896D01*
X331109Y802897D01*
X331142Y802982D01*
X331142Y808124D01*
X335750Y808124D01*
X335752Y808125D01*
X335754Y808124D01*
X335797Y808144D01*
X335841Y808162D01*
X335841Y808164D01*
X335843Y808165D01*
X335876Y808250D01*
X335876Y831750D01*
X335875Y831752D01*
X335876Y831754D01*
X335856Y831797D01*
X335838Y831841D01*
X335836Y831841D01*
X335835Y831843D01*
X335750Y831876D01*
X331142Y831876D01*
X331142Y836856D01*
X331141Y836858D01*
X331142Y836860D01*
X331122Y836903D01*
X331104Y836947D01*
X331102Y836947D01*
X331101Y836949D01*
X331016Y836982D01*
X328984Y836982D01*
X328982Y836981D01*
X328980Y836982D01*
X328937Y836962D01*
X328893Y836944D01*
X328893Y836942D01*
X328891Y836941D01*
X328858Y836856D01*
X328858Y831876D01*
X318250Y831876D01*
X318248Y831875D01*
X318246Y831876D01*
X318203Y831856D01*
X318159Y831838D01*
X318159Y831836D01*
X318157Y831835D01*
X318124Y831750D01*
X318124Y808250D01*
X318125Y808248D01*
X318124Y808246D01*
X318144Y808203D01*
X318162Y808159D01*
X318164Y808159D01*
X318165Y808157D01*
X318250Y808124D01*
X328858Y808124D01*
X328858Y802982D01*
X328859Y802980D01*
X328858Y802978D01*
X328878Y802935D01*
X328896Y802891D01*
X328898Y802891D01*
X328899Y802889D01*
X328984Y802856D01*
X331016Y802856D01*
X331018Y802857D01*
G37*
G36*
X811158Y336519D02*
X811158Y336519D01*
X811160Y336518D01*
X811203Y336538D01*
X811247Y336556D01*
X811247Y336558D01*
X811249Y336559D01*
X811282Y336644D01*
X811282Y341624D01*
X821890Y341624D01*
X821892Y341625D01*
X821894Y341624D01*
X821937Y341644D01*
X821981Y341662D01*
X821981Y341664D01*
X821983Y341665D01*
X822016Y341750D01*
X822016Y365250D01*
X822015Y365252D01*
X822016Y365254D01*
X821996Y365297D01*
X821978Y365341D01*
X821976Y365341D01*
X821975Y365343D01*
X821890Y365376D01*
X811282Y365376D01*
X811282Y370518D01*
X811281Y370520D01*
X811282Y370522D01*
X811262Y370565D01*
X811244Y370609D01*
X811242Y370609D01*
X811241Y370611D01*
X811156Y370644D01*
X809124Y370644D01*
X809122Y370643D01*
X809120Y370644D01*
X809077Y370624D01*
X809033Y370606D01*
X809033Y370604D01*
X809031Y370603D01*
X808998Y370518D01*
X808998Y365376D01*
X804390Y365376D01*
X804388Y365375D01*
X804386Y365376D01*
X804343Y365356D01*
X804299Y365338D01*
X804299Y365336D01*
X804297Y365335D01*
X804264Y365250D01*
X804264Y341750D01*
X804265Y341748D01*
X804264Y341746D01*
X804284Y341703D01*
X804302Y341659D01*
X804304Y341659D01*
X804305Y341657D01*
X804390Y341624D01*
X808998Y341624D01*
X808998Y336644D01*
X808999Y336642D01*
X808998Y336640D01*
X809018Y336597D01*
X809036Y336553D01*
X809038Y336553D01*
X809039Y336551D01*
X809124Y336518D01*
X811156Y336518D01*
X811158Y336519D01*
G37*
G36*
X747216Y360325D02*
X747216Y360325D01*
X747218Y360324D01*
X747261Y360344D01*
X747305Y360362D01*
X747305Y360364D01*
X747307Y360365D01*
X747340Y360450D01*
X747340Y365058D01*
X752320Y365058D01*
X752322Y365059D01*
X752324Y365058D01*
X752367Y365078D01*
X752411Y365096D01*
X752411Y365098D01*
X752413Y365099D01*
X752446Y365184D01*
X752446Y367216D01*
X752445Y367218D01*
X752446Y367220D01*
X752426Y367263D01*
X752408Y367307D01*
X752406Y367307D01*
X752405Y367309D01*
X752320Y367342D01*
X747340Y367342D01*
X747340Y377950D01*
X747339Y377952D01*
X747340Y377954D01*
X747320Y377997D01*
X747302Y378041D01*
X747300Y378041D01*
X747299Y378043D01*
X747214Y378076D01*
X723714Y378076D01*
X723712Y378075D01*
X723710Y378076D01*
X723667Y378056D01*
X723623Y378038D01*
X723623Y378036D01*
X723621Y378035D01*
X723588Y377950D01*
X723588Y367342D01*
X718446Y367342D01*
X718444Y367341D01*
X718442Y367342D01*
X718399Y367322D01*
X718355Y367304D01*
X718355Y367302D01*
X718353Y367301D01*
X718320Y367216D01*
X718320Y365184D01*
X718321Y365182D01*
X718320Y365180D01*
X718340Y365137D01*
X718358Y365093D01*
X718360Y365093D01*
X718361Y365091D01*
X718446Y365058D01*
X723588Y365058D01*
X723588Y360450D01*
X723589Y360448D01*
X723588Y360446D01*
X723608Y360403D01*
X723626Y360359D01*
X723628Y360359D01*
X723629Y360357D01*
X723714Y360324D01*
X747214Y360324D01*
X747216Y360325D01*
G37*
G36*
X118084Y153354D02*
X118084Y153354D01*
X118087Y153351D01*
X119209Y153506D01*
X119214Y153511D01*
X119218Y153508D01*
X120289Y153879D01*
X120293Y153885D01*
X120298Y153883D01*
X121275Y154456D01*
X121278Y154462D01*
X121283Y154461D01*
X122130Y155214D01*
X122132Y155221D01*
X122137Y155221D01*
X122821Y156124D01*
X122821Y156131D01*
X122826Y156132D01*
X123321Y157151D01*
X123319Y157158D01*
X123324Y157160D01*
X123611Y158257D01*
X123609Y158261D01*
X123611Y158262D01*
X123609Y158264D01*
X123612Y158266D01*
X123679Y159397D01*
X123677Y159401D01*
X123679Y159403D01*
X123612Y160534D01*
X123607Y160539D01*
X123611Y160543D01*
X123324Y161640D01*
X123318Y161644D01*
X123321Y161649D01*
X122826Y162668D01*
X122820Y162671D01*
X122821Y162676D01*
X122137Y163579D01*
X122130Y163581D01*
X122130Y163586D01*
X121283Y164339D01*
X121276Y164339D01*
X121275Y164344D01*
X120298Y164917D01*
X120291Y164916D01*
X120289Y164921D01*
X119218Y165292D01*
X119212Y165289D01*
X119209Y165294D01*
X118087Y165449D01*
X118082Y165446D01*
X118080Y165449D01*
X106080Y165449D01*
X106075Y165446D01*
X106072Y165449D01*
X104805Y165244D01*
X104799Y165238D01*
X104795Y165241D01*
X103605Y164759D01*
X103601Y164752D01*
X103595Y164754D01*
X102542Y164020D01*
X102540Y164012D01*
X102534Y164013D01*
X101671Y163063D01*
X101670Y163054D01*
X101665Y163054D01*
X101035Y161935D01*
X101036Y161927D01*
X101030Y161925D01*
X100665Y160695D01*
X100668Y160687D01*
X100663Y160684D01*
X100581Y159403D01*
X100584Y159399D01*
X100581Y159397D01*
X100663Y158116D01*
X100669Y158110D01*
X100665Y158105D01*
X101030Y156875D01*
X101037Y156870D01*
X101035Y156865D01*
X101665Y155746D01*
X101672Y155743D01*
X101671Y155737D01*
X102534Y154787D01*
X102542Y154786D01*
X102542Y154780D01*
X103595Y154046D01*
X103603Y154046D01*
X103605Y154041D01*
X104795Y153559D01*
X104802Y153561D01*
X104805Y153556D01*
X106072Y153351D01*
X106077Y153354D01*
X106080Y153351D01*
X118080Y153351D01*
X118084Y153354D01*
G37*
G36*
X118084Y66954D02*
X118084Y66954D01*
X118087Y66951D01*
X119209Y67106D01*
X119214Y67111D01*
X119218Y67108D01*
X120289Y67479D01*
X120293Y67485D01*
X120298Y67483D01*
X121275Y68056D01*
X121278Y68062D01*
X121283Y68061D01*
X122130Y68814D01*
X122132Y68821D01*
X122137Y68821D01*
X122821Y69724D01*
X122821Y69731D01*
X122826Y69732D01*
X123321Y70751D01*
X123319Y70758D01*
X123324Y70760D01*
X123611Y71857D01*
X123609Y71861D01*
X123611Y71862D01*
X123609Y71864D01*
X123612Y71866D01*
X123679Y72997D01*
X123677Y73001D01*
X123679Y73003D01*
X123612Y74134D01*
X123607Y74139D01*
X123611Y74143D01*
X123324Y75240D01*
X123318Y75244D01*
X123321Y75249D01*
X122826Y76268D01*
X122820Y76271D01*
X122821Y76276D01*
X122137Y77179D01*
X122130Y77181D01*
X122130Y77186D01*
X121283Y77939D01*
X121276Y77939D01*
X121275Y77944D01*
X120298Y78517D01*
X120291Y78516D01*
X120289Y78521D01*
X119218Y78892D01*
X119212Y78889D01*
X119209Y78894D01*
X118087Y79049D01*
X118082Y79046D01*
X118080Y79049D01*
X106080Y79049D01*
X106075Y79046D01*
X106072Y79049D01*
X104805Y78844D01*
X104799Y78838D01*
X104795Y78841D01*
X103605Y78359D01*
X103601Y78352D01*
X103595Y78354D01*
X102542Y77620D01*
X102540Y77612D01*
X102534Y77613D01*
X101671Y76663D01*
X101670Y76654D01*
X101665Y76654D01*
X101035Y75535D01*
X101036Y75527D01*
X101030Y75525D01*
X100665Y74295D01*
X100668Y74287D01*
X100663Y74284D01*
X100581Y73003D01*
X100584Y72999D01*
X100581Y72997D01*
X100663Y71716D01*
X100669Y71710D01*
X100665Y71705D01*
X101030Y70475D01*
X101037Y70470D01*
X101035Y70465D01*
X101665Y69346D01*
X101672Y69343D01*
X101671Y69337D01*
X102534Y68387D01*
X102542Y68386D01*
X102542Y68380D01*
X103595Y67646D01*
X103603Y67646D01*
X103605Y67641D01*
X104795Y67159D01*
X104802Y67161D01*
X104805Y67156D01*
X106072Y66951D01*
X106077Y66954D01*
X106080Y66951D01*
X118080Y66951D01*
X118084Y66954D01*
G37*
G36*
X893925Y403354D02*
X893925Y403354D01*
X893928Y403351D01*
X895195Y403556D01*
X895201Y403562D01*
X895206Y403559D01*
X896395Y404041D01*
X896399Y404048D01*
X896405Y404046D01*
X897458Y404780D01*
X897460Y404788D01*
X897466Y404787D01*
X898329Y405737D01*
X898330Y405746D01*
X898335Y405746D01*
X898965Y406865D01*
X898964Y406873D01*
X898970Y406875D01*
X899335Y408105D01*
X899332Y408112D01*
X899336Y408115D01*
X899335Y408115D01*
X899337Y408116D01*
X899419Y409397D01*
X899417Y409401D01*
X899419Y409403D01*
X899337Y410684D01*
X899331Y410690D01*
X899335Y410695D01*
X898970Y411925D01*
X898963Y411930D01*
X898965Y411935D01*
X898335Y413054D01*
X898328Y413057D01*
X898329Y413063D01*
X897466Y414013D01*
X897458Y414014D01*
X897458Y414020D01*
X896405Y414754D01*
X896397Y414754D01*
X896395Y414759D01*
X895206Y415241D01*
X895198Y415239D01*
X895195Y415244D01*
X893928Y415449D01*
X893923Y415446D01*
X893920Y415449D01*
X881920Y415449D01*
X881916Y415446D01*
X881913Y415449D01*
X880791Y415294D01*
X880786Y415289D01*
X880782Y415292D01*
X879711Y414921D01*
X879707Y414915D01*
X879702Y414917D01*
X878725Y414344D01*
X878722Y414338D01*
X878717Y414339D01*
X877870Y413586D01*
X877868Y413579D01*
X877863Y413579D01*
X877179Y412676D01*
X877179Y412669D01*
X877174Y412668D01*
X876679Y411649D01*
X876681Y411642D01*
X876679Y411641D01*
X876676Y411640D01*
X876389Y410543D01*
X876392Y410537D01*
X876388Y410534D01*
X876321Y409403D01*
X876323Y409399D01*
X876321Y409397D01*
X876388Y408266D01*
X876393Y408261D01*
X876389Y408257D01*
X876676Y407160D01*
X876682Y407156D01*
X876679Y407151D01*
X877174Y406132D01*
X877180Y406129D01*
X877179Y406124D01*
X877863Y405221D01*
X877870Y405219D01*
X877870Y405214D01*
X878717Y404461D01*
X878724Y404461D01*
X878725Y404456D01*
X879702Y403883D01*
X879709Y403884D01*
X879711Y403879D01*
X880782Y403508D01*
X880788Y403511D01*
X880791Y403506D01*
X881913Y403351D01*
X881918Y403354D01*
X881920Y403351D01*
X893920Y403351D01*
X893925Y403354D01*
G37*
G36*
X893925Y316954D02*
X893925Y316954D01*
X893928Y316951D01*
X895195Y317156D01*
X895201Y317162D01*
X895206Y317159D01*
X896395Y317641D01*
X896399Y317648D01*
X896405Y317646D01*
X897458Y318380D01*
X897460Y318388D01*
X897466Y318387D01*
X898329Y319337D01*
X898330Y319346D01*
X898335Y319346D01*
X898965Y320465D01*
X898964Y320473D01*
X898970Y320475D01*
X899335Y321705D01*
X899332Y321712D01*
X899336Y321715D01*
X899335Y321715D01*
X899337Y321716D01*
X899419Y322997D01*
X899417Y323001D01*
X899419Y323003D01*
X899337Y324284D01*
X899331Y324290D01*
X899335Y324295D01*
X898970Y325525D01*
X898963Y325530D01*
X898965Y325535D01*
X898335Y326654D01*
X898328Y326657D01*
X898329Y326663D01*
X897466Y327613D01*
X897458Y327614D01*
X897458Y327620D01*
X896405Y328354D01*
X896397Y328354D01*
X896395Y328359D01*
X895206Y328841D01*
X895198Y328839D01*
X895195Y328844D01*
X893928Y329049D01*
X893923Y329046D01*
X893920Y329049D01*
X881920Y329049D01*
X881916Y329046D01*
X881913Y329049D01*
X880791Y328894D01*
X880786Y328889D01*
X880782Y328892D01*
X879711Y328521D01*
X879707Y328515D01*
X879702Y328517D01*
X878725Y327944D01*
X878722Y327938D01*
X878717Y327939D01*
X877870Y327186D01*
X877868Y327179D01*
X877863Y327179D01*
X877179Y326276D01*
X877179Y326269D01*
X877174Y326268D01*
X876679Y325249D01*
X876681Y325242D01*
X876679Y325241D01*
X876676Y325240D01*
X876389Y324143D01*
X876392Y324137D01*
X876388Y324134D01*
X876321Y323003D01*
X876323Y322999D01*
X876321Y322997D01*
X876388Y321866D01*
X876393Y321861D01*
X876389Y321857D01*
X876676Y320760D01*
X876682Y320756D01*
X876679Y320751D01*
X877174Y319732D01*
X877180Y319729D01*
X877179Y319724D01*
X877863Y318821D01*
X877870Y318819D01*
X877870Y318814D01*
X878717Y318061D01*
X878724Y318061D01*
X878725Y318056D01*
X879702Y317483D01*
X879709Y317484D01*
X879711Y317479D01*
X880782Y317108D01*
X880788Y317111D01*
X880791Y317106D01*
X881913Y316951D01*
X881918Y316954D01*
X881920Y316951D01*
X893920Y316951D01*
X893925Y316954D01*
G37*
G36*
X932723Y403353D02*
X932723Y403353D01*
X932725Y403351D01*
X933890Y403471D01*
X933896Y403476D01*
X933900Y403473D01*
X935019Y403817D01*
X935023Y403823D01*
X935028Y403821D01*
X936059Y404378D01*
X936062Y404384D01*
X936067Y404383D01*
X936969Y405130D01*
X936971Y405137D01*
X936976Y405137D01*
X937715Y406045D01*
X937715Y406052D01*
X937720Y406053D01*
X938268Y407089D01*
X938267Y407096D01*
X938272Y407097D01*
X938607Y408220D01*
X938605Y408227D01*
X938609Y408229D01*
X938719Y409395D01*
X938715Y409402D01*
X938719Y409405D01*
X938575Y410736D01*
X938569Y410741D01*
X938572Y410746D01*
X938136Y412011D01*
X938129Y412016D01*
X938131Y412021D01*
X937424Y413157D01*
X937416Y413160D01*
X937417Y413166D01*
X936475Y414116D01*
X936467Y414117D01*
X936466Y414122D01*
X935336Y414839D01*
X935328Y414838D01*
X935326Y414844D01*
X934065Y415291D01*
X934058Y415289D01*
X934055Y415294D01*
X932726Y415449D01*
X932722Y415447D01*
X932720Y415449D01*
X926720Y415449D01*
X926717Y415447D01*
X926715Y415449D01*
X925373Y415303D01*
X925367Y415298D01*
X925363Y415301D01*
X924087Y414861D01*
X924083Y414854D01*
X924077Y414856D01*
X922932Y414143D01*
X922929Y414135D01*
X922923Y414136D01*
X921965Y413186D01*
X921964Y413178D01*
X921958Y413177D01*
X921236Y412038D01*
X921236Y412033D01*
X921235Y412032D01*
X921236Y412030D01*
X921231Y412028D01*
X920780Y410757D01*
X920781Y410753D01*
X920779Y410752D01*
X920782Y410748D01*
X920778Y410746D01*
X920621Y409406D01*
X920625Y409399D01*
X920621Y409395D01*
X920742Y408220D01*
X920747Y408215D01*
X920744Y408211D01*
X921091Y407082D01*
X921097Y407078D01*
X921095Y407073D01*
X921656Y406034D01*
X921663Y406031D01*
X921661Y406026D01*
X922414Y405116D01*
X922421Y405114D01*
X922421Y405109D01*
X923337Y404363D01*
X923345Y404363D01*
X923345Y404358D01*
X924389Y403806D01*
X924397Y403807D01*
X924398Y403802D01*
X925530Y403464D01*
X925537Y403466D01*
X925539Y403462D01*
X926715Y403351D01*
X926718Y403353D01*
X926720Y403351D01*
X932720Y403351D01*
X932723Y403353D01*
G37*
G36*
X932723Y316953D02*
X932723Y316953D01*
X932725Y316951D01*
X933890Y317071D01*
X933896Y317076D01*
X933900Y317073D01*
X935019Y317417D01*
X935023Y317423D01*
X935028Y317421D01*
X936059Y317978D01*
X936062Y317984D01*
X936067Y317983D01*
X936969Y318730D01*
X936971Y318737D01*
X936976Y318737D01*
X937715Y319645D01*
X937715Y319652D01*
X937720Y319653D01*
X938268Y320689D01*
X938267Y320696D01*
X938272Y320697D01*
X938607Y321820D01*
X938605Y321827D01*
X938609Y321829D01*
X938719Y322995D01*
X938715Y323002D01*
X938719Y323005D01*
X938575Y324336D01*
X938569Y324341D01*
X938572Y324346D01*
X938136Y325611D01*
X938129Y325616D01*
X938131Y325621D01*
X937424Y326757D01*
X937416Y326760D01*
X937417Y326766D01*
X936475Y327716D01*
X936467Y327717D01*
X936466Y327722D01*
X935336Y328439D01*
X935328Y328438D01*
X935326Y328444D01*
X934065Y328891D01*
X934058Y328889D01*
X934055Y328894D01*
X932726Y329049D01*
X932722Y329047D01*
X932720Y329049D01*
X926720Y329049D01*
X926717Y329047D01*
X926715Y329049D01*
X925373Y328903D01*
X925367Y328898D01*
X925363Y328901D01*
X924087Y328461D01*
X924083Y328454D01*
X924077Y328456D01*
X922932Y327743D01*
X922929Y327735D01*
X922923Y327736D01*
X921965Y326786D01*
X921964Y326778D01*
X921958Y326777D01*
X921236Y325638D01*
X921236Y325633D01*
X921235Y325632D01*
X921236Y325630D01*
X921231Y325628D01*
X920780Y324357D01*
X920781Y324353D01*
X920779Y324352D01*
X920782Y324348D01*
X920778Y324346D01*
X920621Y323006D01*
X920625Y322999D01*
X920621Y322995D01*
X920742Y321820D01*
X920747Y321815D01*
X920744Y321811D01*
X921091Y320682D01*
X921097Y320678D01*
X921095Y320673D01*
X921656Y319634D01*
X921663Y319631D01*
X921661Y319626D01*
X922414Y318716D01*
X922421Y318714D01*
X922421Y318709D01*
X923337Y317963D01*
X923345Y317963D01*
X923345Y317958D01*
X924389Y317406D01*
X924397Y317407D01*
X924398Y317402D01*
X925530Y317064D01*
X925537Y317066D01*
X925539Y317062D01*
X926715Y316951D01*
X926718Y316953D01*
X926720Y316951D01*
X932720Y316951D01*
X932723Y316953D01*
G37*
G36*
X73283Y153353D02*
X73283Y153353D01*
X73285Y153351D01*
X74461Y153462D01*
X74466Y153467D01*
X74470Y153464D01*
X75602Y153802D01*
X75606Y153808D01*
X75611Y153806D01*
X76655Y154358D01*
X76658Y154365D01*
X76663Y154363D01*
X77579Y155109D01*
X77580Y155116D01*
X77586Y155116D01*
X78339Y156026D01*
X78339Y156033D01*
X78344Y156034D01*
X78905Y157073D01*
X78904Y157078D01*
X78908Y157080D01*
X78907Y157081D01*
X78909Y157082D01*
X79256Y158211D01*
X79256Y158212D01*
X79257Y158213D01*
X79254Y158217D01*
X79258Y158220D01*
X79379Y159395D01*
X79375Y159402D01*
X79379Y159406D01*
X79222Y160746D01*
X79217Y160752D01*
X79220Y160757D01*
X78769Y162028D01*
X78762Y162033D01*
X78764Y162038D01*
X78042Y163177D01*
X78034Y163180D01*
X78035Y163186D01*
X77077Y164136D01*
X77069Y164137D01*
X77068Y164143D01*
X75923Y164856D01*
X75915Y164855D01*
X75913Y164861D01*
X74637Y165301D01*
X74630Y165299D01*
X74627Y165303D01*
X73285Y165449D01*
X73282Y165447D01*
X73280Y165449D01*
X67280Y165449D01*
X67277Y165447D01*
X67274Y165449D01*
X65945Y165294D01*
X65939Y165288D01*
X65935Y165291D01*
X64674Y164844D01*
X64669Y164837D01*
X64664Y164839D01*
X63534Y164122D01*
X63531Y164115D01*
X63525Y164116D01*
X62583Y163166D01*
X62582Y163157D01*
X62576Y163157D01*
X61869Y162021D01*
X61870Y162013D01*
X61864Y162011D01*
X61428Y160746D01*
X61430Y160738D01*
X61425Y160736D01*
X61281Y159405D01*
X61285Y159399D01*
X61281Y159395D01*
X61391Y158229D01*
X61396Y158224D01*
X61393Y158220D01*
X61728Y157097D01*
X61734Y157093D01*
X61732Y157089D01*
X62280Y156053D01*
X62286Y156050D01*
X62285Y156045D01*
X63024Y155137D01*
X63031Y155135D01*
X63031Y155130D01*
X63933Y154383D01*
X63941Y154383D01*
X63941Y154378D01*
X64972Y153821D01*
X64979Y153822D01*
X64981Y153817D01*
X66100Y153473D01*
X66107Y153475D01*
X66110Y153471D01*
X67275Y153351D01*
X67278Y153353D01*
X67280Y153351D01*
X73280Y153351D01*
X73283Y153353D01*
G37*
G36*
X73283Y66953D02*
X73283Y66953D01*
X73285Y66951D01*
X74461Y67062D01*
X74466Y67067D01*
X74470Y67064D01*
X75602Y67402D01*
X75606Y67408D01*
X75611Y67406D01*
X76655Y67958D01*
X76658Y67965D01*
X76663Y67963D01*
X77579Y68709D01*
X77580Y68716D01*
X77586Y68716D01*
X78339Y69626D01*
X78339Y69633D01*
X78344Y69634D01*
X78905Y70673D01*
X78904Y70678D01*
X78908Y70680D01*
X78907Y70681D01*
X78909Y70682D01*
X79256Y71811D01*
X79256Y71812D01*
X79257Y71813D01*
X79254Y71817D01*
X79258Y71820D01*
X79379Y72995D01*
X79375Y73002D01*
X79379Y73006D01*
X79222Y74346D01*
X79217Y74352D01*
X79220Y74357D01*
X78769Y75628D01*
X78762Y75633D01*
X78764Y75638D01*
X78042Y76777D01*
X78034Y76780D01*
X78035Y76786D01*
X77077Y77736D01*
X77069Y77737D01*
X77068Y77743D01*
X75923Y78456D01*
X75915Y78455D01*
X75913Y78461D01*
X74637Y78901D01*
X74630Y78899D01*
X74627Y78903D01*
X73285Y79049D01*
X73282Y79047D01*
X73280Y79049D01*
X67280Y79049D01*
X67277Y79047D01*
X67274Y79049D01*
X65945Y78894D01*
X65939Y78888D01*
X65935Y78891D01*
X64674Y78444D01*
X64669Y78437D01*
X64664Y78439D01*
X63534Y77722D01*
X63531Y77715D01*
X63525Y77716D01*
X62583Y76766D01*
X62582Y76757D01*
X62576Y76757D01*
X61869Y75621D01*
X61870Y75613D01*
X61864Y75611D01*
X61428Y74346D01*
X61430Y74338D01*
X61425Y74336D01*
X61281Y73005D01*
X61285Y72999D01*
X61281Y72995D01*
X61391Y71829D01*
X61396Y71824D01*
X61393Y71820D01*
X61728Y70697D01*
X61734Y70693D01*
X61732Y70689D01*
X62280Y69653D01*
X62286Y69650D01*
X62285Y69645D01*
X63024Y68737D01*
X63031Y68735D01*
X63031Y68730D01*
X63933Y67983D01*
X63941Y67983D01*
X63941Y67978D01*
X64972Y67421D01*
X64979Y67422D01*
X64981Y67417D01*
X66100Y67073D01*
X66107Y67075D01*
X66110Y67071D01*
X67275Y66951D01*
X67278Y66953D01*
X67280Y66951D01*
X73280Y66951D01*
X73283Y66953D01*
G37*
G36*
X623000Y727746D02*
X623000Y727746D01*
X623001Y727746D01*
X623192Y727784D01*
X623193Y727785D01*
X623194Y727785D01*
X623356Y727893D01*
X623356Y727894D01*
X623357Y727894D01*
X623465Y728056D01*
X623465Y728057D01*
X623466Y728058D01*
X623466Y728060D01*
X623467Y728060D01*
X623466Y728060D01*
X623467Y728064D01*
X623468Y728068D01*
X623469Y728072D01*
X623469Y728073D01*
X623470Y728077D01*
X623471Y728081D01*
X623472Y728085D01*
X623481Y728132D01*
X623482Y728136D01*
X623483Y728140D01*
X623483Y728141D01*
X623483Y728145D01*
X623484Y728149D01*
X623485Y728153D01*
X623486Y728157D01*
X623486Y728158D01*
X623487Y728162D01*
X623488Y728166D01*
X623496Y728208D01*
X623496Y728209D01*
X623497Y728213D01*
X623498Y728217D01*
X623499Y728221D01*
X623499Y728225D01*
X623499Y728226D01*
X623500Y728230D01*
X623501Y728234D01*
X623502Y728238D01*
X623503Y728242D01*
X623503Y728243D01*
X623504Y728247D01*
X623504Y728249D01*
X623504Y728250D01*
X623504Y731750D01*
X623504Y731751D01*
X623466Y731942D01*
X623465Y731943D01*
X623465Y731944D01*
X623357Y732106D01*
X623356Y732106D01*
X623356Y732107D01*
X623194Y732215D01*
X623193Y732215D01*
X623192Y732216D01*
X623001Y732254D01*
X623000Y732254D01*
X605000Y732254D01*
X604999Y732254D01*
X604808Y732216D01*
X604807Y732215D01*
X604806Y732215D01*
X604644Y732107D01*
X604644Y732106D01*
X604643Y732106D01*
X604535Y731944D01*
X604535Y731943D01*
X604534Y731942D01*
X604534Y731941D01*
X604533Y731937D01*
X604532Y731933D01*
X604524Y731890D01*
X604523Y731886D01*
X604522Y731882D01*
X604521Y731877D01*
X604520Y731873D01*
X604519Y731869D01*
X604518Y731865D01*
X604518Y731860D01*
X604517Y731856D01*
X604516Y731852D01*
X604507Y731809D01*
X604507Y731805D01*
X604506Y731801D01*
X604505Y731797D01*
X604504Y731792D01*
X604503Y731788D01*
X604502Y731784D01*
X604502Y731780D01*
X604501Y731775D01*
X604500Y731771D01*
X604496Y731751D01*
X604496Y731750D01*
X604496Y728250D01*
X604496Y728249D01*
X604534Y728058D01*
X604535Y728057D01*
X604535Y728056D01*
X604643Y727894D01*
X604644Y727894D01*
X604644Y727893D01*
X604806Y727785D01*
X604807Y727785D01*
X604808Y727784D01*
X604999Y727746D01*
X605000Y727746D01*
X623000Y727746D01*
X623000Y727746D01*
G37*
G36*
X619500Y732746D02*
X619500Y732746D01*
X619501Y732746D01*
X619692Y732784D01*
X619693Y732785D01*
X619694Y732785D01*
X619856Y732893D01*
X619856Y732894D01*
X619857Y732894D01*
X619965Y733056D01*
X619965Y733057D01*
X619966Y733058D01*
X620004Y733249D01*
X620004Y733250D01*
X620004Y736750D01*
X620004Y736751D01*
X619966Y736942D01*
X619965Y736943D01*
X619965Y736944D01*
X619857Y737106D01*
X619856Y737106D01*
X619856Y737107D01*
X619694Y737215D01*
X619693Y737215D01*
X619692Y737216D01*
X619501Y737254D01*
X619500Y737254D01*
X605000Y737254D01*
X604999Y737254D01*
X604808Y737216D01*
X604807Y737215D01*
X604806Y737215D01*
X604644Y737107D01*
X604644Y737106D01*
X604643Y737106D01*
X604535Y736944D01*
X604535Y736943D01*
X604534Y736942D01*
X604496Y736751D01*
X604496Y736750D01*
X604496Y733250D01*
X604496Y733249D01*
X604534Y733058D01*
X604535Y733057D01*
X604535Y733056D01*
X604643Y732894D01*
X604644Y732894D01*
X604644Y732893D01*
X604806Y732785D01*
X604807Y732785D01*
X604808Y732784D01*
X604999Y732746D01*
X605000Y732746D01*
X619500Y732746D01*
X619500Y732746D01*
G37*
G36*
X619500Y722746D02*
X619500Y722746D01*
X619501Y722746D01*
X619692Y722784D01*
X619693Y722785D01*
X619694Y722785D01*
X619856Y722893D01*
X619856Y722894D01*
X619857Y722894D01*
X619965Y723056D01*
X619965Y723057D01*
X619966Y723058D01*
X620004Y723249D01*
X620004Y723250D01*
X620004Y726750D01*
X620004Y726751D01*
X619966Y726942D01*
X619965Y726943D01*
X619965Y726944D01*
X619857Y727106D01*
X619856Y727106D01*
X619856Y727107D01*
X619694Y727215D01*
X619693Y727215D01*
X619692Y727216D01*
X619501Y727254D01*
X619500Y727254D01*
X605000Y727254D01*
X604999Y727254D01*
X604808Y727216D01*
X604807Y727215D01*
X604806Y727215D01*
X604644Y727107D01*
X604644Y727106D01*
X604643Y727106D01*
X604535Y726944D01*
X604535Y726943D01*
X604534Y726942D01*
X604496Y726751D01*
X604496Y726750D01*
X604496Y723250D01*
X604496Y723249D01*
X604534Y723058D01*
X604535Y723057D01*
X604535Y723056D01*
X604643Y722894D01*
X604644Y722894D01*
X604644Y722893D01*
X604806Y722785D01*
X604807Y722785D01*
X604808Y722784D01*
X604999Y722746D01*
X605000Y722746D01*
X619500Y722746D01*
X619500Y722746D01*
G37*
G36*
X618250Y740746D02*
X618250Y740746D01*
X618251Y740746D01*
X618442Y740784D01*
X618443Y740785D01*
X618444Y740785D01*
X618606Y740893D01*
X618606Y740894D01*
X618607Y740894D01*
X618715Y741056D01*
X618715Y741057D01*
X618716Y741058D01*
X618716Y741060D01*
X618717Y741060D01*
X618716Y741060D01*
X618717Y741064D01*
X618718Y741068D01*
X618719Y741072D01*
X618719Y741073D01*
X618720Y741077D01*
X618721Y741081D01*
X618722Y741085D01*
X618731Y741132D01*
X618732Y741136D01*
X618733Y741140D01*
X618733Y741141D01*
X618733Y741145D01*
X618734Y741149D01*
X618735Y741153D01*
X618736Y741157D01*
X618736Y741158D01*
X618737Y741162D01*
X618738Y741166D01*
X618746Y741208D01*
X618746Y741209D01*
X618747Y741213D01*
X618748Y741217D01*
X618749Y741221D01*
X618749Y741225D01*
X618749Y741226D01*
X618750Y741230D01*
X618751Y741234D01*
X618752Y741238D01*
X618753Y741242D01*
X618753Y741243D01*
X618754Y741247D01*
X618754Y741249D01*
X618754Y741250D01*
X618754Y746500D01*
X618754Y746501D01*
X618716Y746692D01*
X618715Y746693D01*
X618715Y746694D01*
X618607Y746856D01*
X618606Y746856D01*
X618606Y746857D01*
X618444Y746965D01*
X618443Y746965D01*
X618442Y746966D01*
X618251Y747004D01*
X618250Y747004D01*
X616250Y747004D01*
X616249Y747004D01*
X616058Y746966D01*
X616057Y746965D01*
X616056Y746965D01*
X615894Y746857D01*
X615894Y746856D01*
X615893Y746856D01*
X615785Y746694D01*
X615785Y746693D01*
X615784Y746692D01*
X615783Y746688D01*
X615782Y746684D01*
X615781Y746679D01*
X615781Y746675D01*
X615780Y746675D01*
X615781Y746675D01*
X615780Y746671D01*
X615779Y746667D01*
X615778Y746662D01*
X615777Y746658D01*
X615776Y746654D01*
X615768Y746611D01*
X615767Y746607D01*
X615766Y746603D01*
X615765Y746599D01*
X615764Y746594D01*
X615764Y746590D01*
X615763Y746586D01*
X615762Y746582D01*
X615761Y746577D01*
X615760Y746573D01*
X615752Y746531D01*
X615751Y746526D01*
X615750Y746522D01*
X615749Y746518D01*
X615748Y746514D01*
X615748Y746509D01*
X615747Y746505D01*
X615746Y746501D01*
X615746Y746500D01*
X615746Y743754D01*
X613754Y743754D01*
X613754Y746500D01*
X613754Y746501D01*
X613716Y746692D01*
X613715Y746693D01*
X613715Y746694D01*
X613607Y746856D01*
X613606Y746856D01*
X613606Y746857D01*
X613444Y746965D01*
X613443Y746965D01*
X613442Y746966D01*
X613251Y747004D01*
X613250Y747004D01*
X611250Y747004D01*
X611249Y747004D01*
X611058Y746966D01*
X611057Y746965D01*
X611056Y746965D01*
X610894Y746857D01*
X610894Y746856D01*
X610893Y746856D01*
X610785Y746694D01*
X610785Y746693D01*
X610784Y746692D01*
X610783Y746688D01*
X610782Y746684D01*
X610781Y746679D01*
X610781Y746675D01*
X610780Y746675D01*
X610781Y746675D01*
X610780Y746671D01*
X610779Y746667D01*
X610778Y746662D01*
X610777Y746658D01*
X610776Y746654D01*
X610768Y746611D01*
X610767Y746607D01*
X610766Y746603D01*
X610765Y746599D01*
X610764Y746594D01*
X610764Y746590D01*
X610763Y746586D01*
X610762Y746582D01*
X610761Y746577D01*
X610760Y746573D01*
X610752Y746531D01*
X610751Y746526D01*
X610750Y746522D01*
X610749Y746518D01*
X610748Y746514D01*
X610748Y746509D01*
X610747Y746505D01*
X610746Y746501D01*
X610746Y746500D01*
X610746Y741250D01*
X610746Y741249D01*
X610784Y741058D01*
X610785Y741057D01*
X610785Y741056D01*
X610893Y740894D01*
X610894Y740894D01*
X610894Y740893D01*
X611056Y740785D01*
X611057Y740785D01*
X611058Y740784D01*
X611249Y740746D01*
X611250Y740746D01*
X618250Y740746D01*
X618250Y740746D01*
G37*
G36*
X613250Y712996D02*
X613250Y712996D01*
X613251Y712996D01*
X613442Y713034D01*
X613443Y713035D01*
X613444Y713035D01*
X613606Y713143D01*
X613606Y713144D01*
X613607Y713144D01*
X613715Y713306D01*
X613715Y713307D01*
X613716Y713308D01*
X613716Y713310D01*
X613717Y713310D01*
X613716Y713310D01*
X613717Y713314D01*
X613718Y713318D01*
X613719Y713322D01*
X613719Y713323D01*
X613720Y713327D01*
X613721Y713331D01*
X613722Y713335D01*
X613731Y713382D01*
X613732Y713386D01*
X613733Y713390D01*
X613733Y713391D01*
X613733Y713395D01*
X613734Y713399D01*
X613735Y713403D01*
X613736Y713407D01*
X613736Y713408D01*
X613737Y713412D01*
X613738Y713416D01*
X613746Y713458D01*
X613746Y713459D01*
X613747Y713463D01*
X613748Y713467D01*
X613749Y713471D01*
X613749Y713475D01*
X613749Y713476D01*
X613750Y713480D01*
X613751Y713484D01*
X613752Y713488D01*
X613753Y713492D01*
X613753Y713493D01*
X613754Y713497D01*
X613754Y713499D01*
X613754Y713500D01*
X613754Y716246D01*
X615746Y716246D01*
X615746Y713500D01*
X615746Y713499D01*
X615784Y713308D01*
X615785Y713307D01*
X615785Y713306D01*
X615893Y713144D01*
X615894Y713144D01*
X615894Y713143D01*
X616056Y713035D01*
X616057Y713035D01*
X616058Y713034D01*
X616249Y712996D01*
X616250Y712996D01*
X618250Y712996D01*
X618251Y712996D01*
X618442Y713034D01*
X618443Y713035D01*
X618444Y713035D01*
X618606Y713143D01*
X618606Y713144D01*
X618607Y713144D01*
X618715Y713306D01*
X618715Y713307D01*
X618716Y713308D01*
X618716Y713310D01*
X618717Y713310D01*
X618716Y713310D01*
X618717Y713314D01*
X618718Y713318D01*
X618719Y713322D01*
X618719Y713323D01*
X618720Y713327D01*
X618721Y713331D01*
X618722Y713335D01*
X618731Y713382D01*
X618732Y713386D01*
X618733Y713390D01*
X618733Y713391D01*
X618733Y713395D01*
X618734Y713399D01*
X618735Y713403D01*
X618736Y713407D01*
X618736Y713408D01*
X618737Y713412D01*
X618738Y713416D01*
X618746Y713458D01*
X618746Y713459D01*
X618747Y713463D01*
X618748Y713467D01*
X618749Y713471D01*
X618749Y713475D01*
X618749Y713476D01*
X618750Y713480D01*
X618751Y713484D01*
X618752Y713488D01*
X618753Y713492D01*
X618753Y713493D01*
X618754Y713497D01*
X618754Y713499D01*
X618754Y713500D01*
X618754Y718750D01*
X618754Y718751D01*
X618716Y718942D01*
X618715Y718943D01*
X618715Y718944D01*
X618607Y719106D01*
X618606Y719106D01*
X618606Y719107D01*
X618444Y719215D01*
X618443Y719215D01*
X618442Y719216D01*
X618251Y719254D01*
X618250Y719254D01*
X611250Y719254D01*
X611249Y719254D01*
X611058Y719216D01*
X611057Y719215D01*
X611056Y719215D01*
X610894Y719107D01*
X610894Y719106D01*
X610893Y719106D01*
X610785Y718944D01*
X610785Y718943D01*
X610784Y718942D01*
X610783Y718938D01*
X610782Y718934D01*
X610781Y718929D01*
X610781Y718925D01*
X610780Y718925D01*
X610781Y718925D01*
X610780Y718921D01*
X610779Y718917D01*
X610778Y718912D01*
X610777Y718908D01*
X610776Y718904D01*
X610768Y718861D01*
X610767Y718857D01*
X610766Y718853D01*
X610765Y718849D01*
X610764Y718844D01*
X610764Y718840D01*
X610763Y718836D01*
X610762Y718832D01*
X610761Y718827D01*
X610760Y718823D01*
X610752Y718781D01*
X610751Y718776D01*
X610750Y718772D01*
X610749Y718768D01*
X610748Y718764D01*
X610748Y718759D01*
X610747Y718755D01*
X610746Y718751D01*
X610746Y718750D01*
X610746Y713500D01*
X610746Y713499D01*
X610784Y713308D01*
X610785Y713307D01*
X610785Y713306D01*
X610893Y713144D01*
X610894Y713144D01*
X610894Y713143D01*
X611056Y713035D01*
X611057Y713035D01*
X611058Y713034D01*
X611249Y712996D01*
X611250Y712996D01*
X613250Y712996D01*
X613250Y712996D01*
G37*
G36*
X635000Y735246D02*
X635000Y735246D01*
X635001Y735246D01*
X635192Y735284D01*
X635193Y735285D01*
X635194Y735285D01*
X635356Y735393D01*
X635356Y735394D01*
X635357Y735394D01*
X635465Y735556D01*
X635465Y735557D01*
X635466Y735558D01*
X635466Y735560D01*
X635467Y735560D01*
X635466Y735560D01*
X635467Y735564D01*
X635468Y735568D01*
X635469Y735572D01*
X635469Y735573D01*
X635470Y735577D01*
X635471Y735581D01*
X635472Y735585D01*
X635481Y735632D01*
X635482Y735636D01*
X635483Y735640D01*
X635483Y735641D01*
X635483Y735645D01*
X635484Y735649D01*
X635485Y735653D01*
X635486Y735657D01*
X635486Y735658D01*
X635487Y735662D01*
X635488Y735666D01*
X635496Y735708D01*
X635496Y735709D01*
X635497Y735713D01*
X635498Y735717D01*
X635499Y735721D01*
X635499Y735725D01*
X635499Y735726D01*
X635500Y735730D01*
X635501Y735734D01*
X635502Y735738D01*
X635503Y735742D01*
X635503Y735743D01*
X635504Y735747D01*
X635504Y735749D01*
X635504Y735750D01*
X635504Y739250D01*
X635504Y739251D01*
X635466Y739442D01*
X635465Y739443D01*
X635465Y739444D01*
X635357Y739606D01*
X635356Y739606D01*
X635356Y739607D01*
X635194Y739715D01*
X635193Y739715D01*
X635192Y739716D01*
X635001Y739754D01*
X635000Y739754D01*
X628000Y739754D01*
X627999Y739754D01*
X627808Y739716D01*
X627807Y739715D01*
X627806Y739715D01*
X627644Y739607D01*
X627644Y739606D01*
X627643Y739606D01*
X627535Y739444D01*
X627535Y739443D01*
X627534Y739442D01*
X627534Y739441D01*
X627533Y739437D01*
X627532Y739433D01*
X627524Y739390D01*
X627523Y739386D01*
X627522Y739382D01*
X627521Y739377D01*
X627520Y739373D01*
X627519Y739369D01*
X627518Y739365D01*
X627518Y739360D01*
X627517Y739356D01*
X627516Y739352D01*
X627507Y739309D01*
X627507Y739305D01*
X627506Y739301D01*
X627505Y739297D01*
X627504Y739292D01*
X627503Y739288D01*
X627502Y739284D01*
X627502Y739280D01*
X627501Y739275D01*
X627500Y739271D01*
X627496Y739251D01*
X627496Y739250D01*
X627496Y735750D01*
X627496Y735749D01*
X627534Y735558D01*
X627535Y735557D01*
X627535Y735556D01*
X627643Y735394D01*
X627644Y735394D01*
X627644Y735393D01*
X627806Y735285D01*
X627807Y735285D01*
X627808Y735284D01*
X627999Y735246D01*
X628000Y735246D01*
X635000Y735246D01*
X635000Y735246D01*
G37*
G36*
X635000Y730246D02*
X635000Y730246D01*
X635001Y730246D01*
X635192Y730284D01*
X635193Y730285D01*
X635194Y730285D01*
X635356Y730393D01*
X635356Y730394D01*
X635357Y730394D01*
X635465Y730556D01*
X635465Y730557D01*
X635466Y730558D01*
X635466Y730560D01*
X635467Y730560D01*
X635466Y730560D01*
X635467Y730564D01*
X635468Y730568D01*
X635469Y730572D01*
X635469Y730573D01*
X635470Y730577D01*
X635471Y730581D01*
X635472Y730585D01*
X635481Y730632D01*
X635482Y730636D01*
X635483Y730640D01*
X635483Y730641D01*
X635483Y730645D01*
X635484Y730649D01*
X635485Y730653D01*
X635486Y730657D01*
X635486Y730658D01*
X635487Y730662D01*
X635488Y730666D01*
X635496Y730708D01*
X635496Y730709D01*
X635497Y730713D01*
X635498Y730717D01*
X635499Y730721D01*
X635499Y730725D01*
X635499Y730726D01*
X635500Y730730D01*
X635501Y730734D01*
X635502Y730738D01*
X635503Y730742D01*
X635503Y730743D01*
X635504Y730747D01*
X635504Y730749D01*
X635504Y730750D01*
X635504Y734250D01*
X635504Y734251D01*
X635466Y734442D01*
X635465Y734443D01*
X635465Y734444D01*
X635357Y734606D01*
X635356Y734606D01*
X635356Y734607D01*
X635194Y734715D01*
X635193Y734715D01*
X635192Y734716D01*
X635001Y734754D01*
X635000Y734754D01*
X628000Y734754D01*
X627999Y734754D01*
X627808Y734716D01*
X627807Y734715D01*
X627806Y734715D01*
X627644Y734607D01*
X627644Y734606D01*
X627643Y734606D01*
X627535Y734444D01*
X627535Y734443D01*
X627534Y734442D01*
X627534Y734441D01*
X627533Y734437D01*
X627532Y734433D01*
X627524Y734390D01*
X627523Y734386D01*
X627522Y734382D01*
X627521Y734377D01*
X627520Y734373D01*
X627519Y734369D01*
X627518Y734365D01*
X627518Y734360D01*
X627517Y734356D01*
X627516Y734352D01*
X627507Y734309D01*
X627507Y734305D01*
X627506Y734301D01*
X627505Y734297D01*
X627504Y734292D01*
X627503Y734288D01*
X627502Y734284D01*
X627502Y734280D01*
X627501Y734275D01*
X627500Y734271D01*
X627496Y734251D01*
X627496Y734250D01*
X627496Y730750D01*
X627496Y730749D01*
X627534Y730558D01*
X627535Y730557D01*
X627535Y730556D01*
X627643Y730394D01*
X627644Y730394D01*
X627644Y730393D01*
X627806Y730285D01*
X627807Y730285D01*
X627808Y730284D01*
X627999Y730246D01*
X628000Y730246D01*
X635000Y730246D01*
X635000Y730246D01*
G37*
G36*
X635000Y725246D02*
X635000Y725246D01*
X635001Y725246D01*
X635192Y725284D01*
X635193Y725285D01*
X635194Y725285D01*
X635356Y725393D01*
X635356Y725394D01*
X635357Y725394D01*
X635465Y725556D01*
X635465Y725557D01*
X635466Y725558D01*
X635466Y725560D01*
X635467Y725560D01*
X635466Y725560D01*
X635467Y725564D01*
X635468Y725568D01*
X635469Y725572D01*
X635469Y725573D01*
X635470Y725577D01*
X635471Y725581D01*
X635472Y725585D01*
X635481Y725632D01*
X635482Y725636D01*
X635483Y725640D01*
X635483Y725641D01*
X635483Y725645D01*
X635484Y725649D01*
X635485Y725653D01*
X635486Y725657D01*
X635486Y725658D01*
X635487Y725662D01*
X635488Y725666D01*
X635496Y725708D01*
X635496Y725709D01*
X635497Y725713D01*
X635498Y725717D01*
X635499Y725721D01*
X635499Y725725D01*
X635499Y725726D01*
X635500Y725730D01*
X635501Y725734D01*
X635502Y725738D01*
X635503Y725742D01*
X635503Y725743D01*
X635504Y725747D01*
X635504Y725749D01*
X635504Y725750D01*
X635504Y729250D01*
X635504Y729251D01*
X635466Y729442D01*
X635465Y729443D01*
X635465Y729444D01*
X635357Y729606D01*
X635356Y729606D01*
X635356Y729607D01*
X635194Y729715D01*
X635193Y729715D01*
X635192Y729716D01*
X635001Y729754D01*
X635000Y729754D01*
X628000Y729754D01*
X627999Y729754D01*
X627808Y729716D01*
X627807Y729715D01*
X627806Y729715D01*
X627644Y729607D01*
X627644Y729606D01*
X627643Y729606D01*
X627535Y729444D01*
X627535Y729443D01*
X627534Y729442D01*
X627534Y729441D01*
X627533Y729437D01*
X627532Y729433D01*
X627524Y729390D01*
X627523Y729386D01*
X627522Y729382D01*
X627521Y729377D01*
X627520Y729373D01*
X627519Y729369D01*
X627518Y729365D01*
X627518Y729360D01*
X627517Y729356D01*
X627516Y729352D01*
X627507Y729309D01*
X627507Y729305D01*
X627506Y729301D01*
X627505Y729297D01*
X627504Y729292D01*
X627503Y729288D01*
X627502Y729284D01*
X627502Y729280D01*
X627501Y729275D01*
X627500Y729271D01*
X627496Y729251D01*
X627496Y729250D01*
X627496Y725750D01*
X627496Y725749D01*
X627534Y725558D01*
X627535Y725557D01*
X627535Y725556D01*
X627643Y725394D01*
X627644Y725394D01*
X627644Y725393D01*
X627806Y725285D01*
X627807Y725285D01*
X627808Y725284D01*
X627999Y725246D01*
X628000Y725246D01*
X635000Y725246D01*
X635000Y725246D01*
G37*
G36*
X635000Y720246D02*
X635000Y720246D01*
X635001Y720246D01*
X635192Y720284D01*
X635193Y720285D01*
X635194Y720285D01*
X635356Y720393D01*
X635356Y720394D01*
X635357Y720394D01*
X635465Y720556D01*
X635465Y720557D01*
X635466Y720558D01*
X635466Y720560D01*
X635467Y720560D01*
X635466Y720560D01*
X635467Y720564D01*
X635468Y720568D01*
X635469Y720572D01*
X635469Y720573D01*
X635470Y720577D01*
X635471Y720581D01*
X635472Y720585D01*
X635481Y720632D01*
X635482Y720636D01*
X635483Y720640D01*
X635483Y720641D01*
X635483Y720645D01*
X635484Y720649D01*
X635485Y720653D01*
X635486Y720657D01*
X635486Y720658D01*
X635487Y720662D01*
X635488Y720666D01*
X635496Y720708D01*
X635496Y720709D01*
X635497Y720713D01*
X635498Y720717D01*
X635499Y720721D01*
X635499Y720725D01*
X635499Y720726D01*
X635500Y720730D01*
X635501Y720734D01*
X635502Y720738D01*
X635503Y720742D01*
X635503Y720743D01*
X635504Y720747D01*
X635504Y720749D01*
X635504Y720750D01*
X635504Y724250D01*
X635504Y724251D01*
X635466Y724442D01*
X635465Y724443D01*
X635465Y724444D01*
X635357Y724606D01*
X635356Y724606D01*
X635356Y724607D01*
X635194Y724715D01*
X635193Y724715D01*
X635192Y724716D01*
X635001Y724754D01*
X635000Y724754D01*
X628000Y724754D01*
X627999Y724754D01*
X627808Y724716D01*
X627807Y724715D01*
X627806Y724715D01*
X627644Y724607D01*
X627644Y724606D01*
X627643Y724606D01*
X627535Y724444D01*
X627535Y724443D01*
X627534Y724442D01*
X627534Y724441D01*
X627533Y724437D01*
X627532Y724433D01*
X627524Y724390D01*
X627523Y724386D01*
X627522Y724382D01*
X627521Y724377D01*
X627520Y724373D01*
X627519Y724369D01*
X627518Y724365D01*
X627518Y724360D01*
X627517Y724356D01*
X627516Y724352D01*
X627507Y724309D01*
X627507Y724305D01*
X627506Y724301D01*
X627505Y724297D01*
X627504Y724292D01*
X627503Y724288D01*
X627502Y724284D01*
X627502Y724280D01*
X627501Y724275D01*
X627500Y724271D01*
X627496Y724251D01*
X627496Y724250D01*
X627496Y720750D01*
X627496Y720749D01*
X627534Y720558D01*
X627535Y720557D01*
X627535Y720556D01*
X627643Y720394D01*
X627644Y720394D01*
X627644Y720393D01*
X627806Y720285D01*
X627807Y720285D01*
X627808Y720284D01*
X627999Y720246D01*
X628000Y720246D01*
X635000Y720246D01*
X635000Y720246D01*
G37*
G36*
X624000Y739996D02*
X624000Y739996D01*
X624001Y739996D01*
X624192Y740034D01*
X624193Y740035D01*
X624194Y740035D01*
X624356Y740143D01*
X624356Y740144D01*
X624357Y740144D01*
X624465Y740306D01*
X624465Y740307D01*
X624466Y740308D01*
X624466Y740310D01*
X624467Y740310D01*
X624466Y740310D01*
X624467Y740314D01*
X624468Y740318D01*
X624469Y740322D01*
X624469Y740323D01*
X624470Y740327D01*
X624471Y740331D01*
X624472Y740335D01*
X624481Y740382D01*
X624482Y740386D01*
X624483Y740390D01*
X624483Y740391D01*
X624483Y740395D01*
X624484Y740399D01*
X624485Y740403D01*
X624486Y740407D01*
X624486Y740408D01*
X624487Y740412D01*
X624488Y740416D01*
X624496Y740458D01*
X624496Y740459D01*
X624497Y740463D01*
X624498Y740467D01*
X624499Y740471D01*
X624499Y740475D01*
X624499Y740476D01*
X624500Y740480D01*
X624501Y740484D01*
X624502Y740488D01*
X624503Y740492D01*
X624503Y740493D01*
X624504Y740497D01*
X624504Y740499D01*
X624504Y740500D01*
X624504Y747500D01*
X624504Y747501D01*
X624466Y747692D01*
X624465Y747693D01*
X624465Y747694D01*
X624357Y747856D01*
X624356Y747856D01*
X624356Y747857D01*
X624194Y747965D01*
X624193Y747965D01*
X624192Y747966D01*
X624001Y748004D01*
X624000Y748004D01*
X620500Y748004D01*
X620499Y748004D01*
X620308Y747966D01*
X620307Y747965D01*
X620306Y747965D01*
X620144Y747857D01*
X620144Y747856D01*
X620143Y747856D01*
X620035Y747694D01*
X620035Y747693D01*
X620034Y747692D01*
X620028Y747663D01*
X620027Y747659D01*
X620026Y747655D01*
X620026Y747651D01*
X620025Y747646D01*
X620024Y747642D01*
X620023Y747638D01*
X620022Y747634D01*
X620021Y747629D01*
X620021Y747625D01*
X620012Y747583D01*
X620011Y747578D01*
X620010Y747574D01*
X620010Y747570D01*
X620009Y747566D01*
X620008Y747561D01*
X620007Y747557D01*
X620006Y747553D01*
X620005Y747549D01*
X620005Y747544D01*
X620004Y747544D01*
X619996Y747502D01*
X619996Y747501D01*
X619996Y747500D01*
X619996Y740500D01*
X619996Y740499D01*
X620034Y740308D01*
X620035Y740307D01*
X620035Y740306D01*
X620143Y740144D01*
X620144Y740144D01*
X620144Y740143D01*
X620306Y740035D01*
X620307Y740035D01*
X620308Y740034D01*
X620499Y739996D01*
X620500Y739996D01*
X624000Y739996D01*
X624000Y739996D01*
G37*
G36*
X629000Y739996D02*
X629000Y739996D01*
X629001Y739996D01*
X629192Y740034D01*
X629193Y740035D01*
X629194Y740035D01*
X629356Y740143D01*
X629356Y740144D01*
X629357Y740144D01*
X629465Y740306D01*
X629465Y740307D01*
X629466Y740308D01*
X629466Y740310D01*
X629467Y740310D01*
X629466Y740310D01*
X629467Y740314D01*
X629468Y740318D01*
X629469Y740322D01*
X629469Y740323D01*
X629470Y740327D01*
X629471Y740331D01*
X629472Y740335D01*
X629481Y740382D01*
X629482Y740386D01*
X629483Y740390D01*
X629483Y740391D01*
X629483Y740395D01*
X629484Y740399D01*
X629485Y740403D01*
X629486Y740407D01*
X629486Y740408D01*
X629487Y740412D01*
X629488Y740416D01*
X629496Y740458D01*
X629496Y740459D01*
X629497Y740463D01*
X629498Y740467D01*
X629499Y740471D01*
X629499Y740475D01*
X629499Y740476D01*
X629500Y740480D01*
X629501Y740484D01*
X629502Y740488D01*
X629503Y740492D01*
X629503Y740493D01*
X629504Y740497D01*
X629504Y740499D01*
X629504Y740500D01*
X629504Y747500D01*
X629504Y747501D01*
X629466Y747692D01*
X629465Y747693D01*
X629465Y747694D01*
X629357Y747856D01*
X629356Y747856D01*
X629356Y747857D01*
X629194Y747965D01*
X629193Y747965D01*
X629192Y747966D01*
X629001Y748004D01*
X629000Y748004D01*
X625500Y748004D01*
X625499Y748004D01*
X625308Y747966D01*
X625307Y747965D01*
X625306Y747965D01*
X625144Y747857D01*
X625144Y747856D01*
X625143Y747856D01*
X625035Y747694D01*
X625035Y747693D01*
X625034Y747692D01*
X625028Y747663D01*
X625027Y747659D01*
X625026Y747655D01*
X625026Y747651D01*
X625025Y747646D01*
X625024Y747642D01*
X625023Y747638D01*
X625022Y747634D01*
X625021Y747629D01*
X625021Y747625D01*
X625012Y747583D01*
X625011Y747578D01*
X625010Y747574D01*
X625010Y747570D01*
X625009Y747566D01*
X625008Y747561D01*
X625007Y747557D01*
X625006Y747553D01*
X625005Y747549D01*
X625005Y747544D01*
X625004Y747544D01*
X624996Y747502D01*
X624996Y747501D01*
X624996Y747500D01*
X624996Y740500D01*
X624996Y740499D01*
X625034Y740308D01*
X625035Y740307D01*
X625035Y740306D01*
X625143Y740144D01*
X625144Y740144D01*
X625144Y740143D01*
X625306Y740035D01*
X625307Y740035D01*
X625308Y740034D01*
X625499Y739996D01*
X625500Y739996D01*
X629000Y739996D01*
X629000Y739996D01*
G37*
G36*
X629000Y711996D02*
X629000Y711996D01*
X629001Y711996D01*
X629192Y712034D01*
X629193Y712035D01*
X629194Y712035D01*
X629356Y712143D01*
X629356Y712144D01*
X629357Y712144D01*
X629465Y712306D01*
X629465Y712307D01*
X629466Y712308D01*
X629466Y712310D01*
X629467Y712310D01*
X629466Y712310D01*
X629467Y712314D01*
X629468Y712318D01*
X629469Y712322D01*
X629469Y712323D01*
X629470Y712327D01*
X629471Y712331D01*
X629472Y712335D01*
X629481Y712382D01*
X629482Y712386D01*
X629483Y712390D01*
X629483Y712391D01*
X629483Y712395D01*
X629484Y712399D01*
X629485Y712403D01*
X629486Y712407D01*
X629486Y712408D01*
X629487Y712412D01*
X629488Y712416D01*
X629496Y712458D01*
X629496Y712459D01*
X629497Y712463D01*
X629498Y712467D01*
X629499Y712471D01*
X629499Y712475D01*
X629499Y712476D01*
X629500Y712480D01*
X629501Y712484D01*
X629502Y712488D01*
X629503Y712492D01*
X629503Y712493D01*
X629504Y712497D01*
X629504Y712499D01*
X629504Y712500D01*
X629504Y719500D01*
X629504Y719501D01*
X629466Y719692D01*
X629465Y719693D01*
X629465Y719694D01*
X629357Y719856D01*
X629356Y719856D01*
X629356Y719857D01*
X629194Y719965D01*
X629193Y719965D01*
X629192Y719966D01*
X629001Y720004D01*
X629000Y720004D01*
X625500Y720004D01*
X625499Y720004D01*
X625308Y719966D01*
X625307Y719965D01*
X625306Y719965D01*
X625144Y719857D01*
X625144Y719856D01*
X625143Y719856D01*
X625035Y719694D01*
X625035Y719693D01*
X625034Y719692D01*
X625028Y719663D01*
X625027Y719659D01*
X625026Y719655D01*
X625026Y719651D01*
X625025Y719646D01*
X625024Y719642D01*
X625023Y719638D01*
X625022Y719634D01*
X625021Y719629D01*
X625021Y719625D01*
X625012Y719583D01*
X625011Y719578D01*
X625010Y719574D01*
X625010Y719570D01*
X625009Y719566D01*
X625008Y719561D01*
X625007Y719557D01*
X625006Y719553D01*
X625005Y719549D01*
X625005Y719544D01*
X625004Y719544D01*
X624996Y719502D01*
X624996Y719501D01*
X624996Y719500D01*
X624996Y712500D01*
X624996Y712499D01*
X625034Y712308D01*
X625035Y712307D01*
X625035Y712306D01*
X625143Y712144D01*
X625144Y712144D01*
X625144Y712143D01*
X625306Y712035D01*
X625307Y712035D01*
X625308Y712034D01*
X625499Y711996D01*
X625500Y711996D01*
X629000Y711996D01*
X629000Y711996D01*
G37*
G36*
X624000Y711996D02*
X624000Y711996D01*
X624001Y711996D01*
X624192Y712034D01*
X624193Y712035D01*
X624194Y712035D01*
X624356Y712143D01*
X624356Y712144D01*
X624357Y712144D01*
X624465Y712306D01*
X624465Y712307D01*
X624466Y712308D01*
X624466Y712310D01*
X624467Y712310D01*
X624466Y712310D01*
X624467Y712314D01*
X624468Y712318D01*
X624469Y712322D01*
X624469Y712323D01*
X624470Y712327D01*
X624471Y712331D01*
X624472Y712335D01*
X624481Y712382D01*
X624482Y712386D01*
X624483Y712390D01*
X624483Y712391D01*
X624483Y712395D01*
X624484Y712399D01*
X624485Y712403D01*
X624486Y712407D01*
X624486Y712408D01*
X624487Y712412D01*
X624488Y712416D01*
X624496Y712458D01*
X624496Y712459D01*
X624497Y712463D01*
X624498Y712467D01*
X624499Y712471D01*
X624499Y712475D01*
X624499Y712476D01*
X624500Y712480D01*
X624501Y712484D01*
X624502Y712488D01*
X624503Y712492D01*
X624503Y712493D01*
X624504Y712497D01*
X624504Y712499D01*
X624504Y712500D01*
X624504Y719500D01*
X624504Y719501D01*
X624466Y719692D01*
X624465Y719693D01*
X624465Y719694D01*
X624357Y719856D01*
X624356Y719856D01*
X624356Y719857D01*
X624194Y719965D01*
X624193Y719965D01*
X624192Y719966D01*
X624001Y720004D01*
X624000Y720004D01*
X620500Y720004D01*
X620499Y720004D01*
X620308Y719966D01*
X620307Y719965D01*
X620306Y719965D01*
X620144Y719857D01*
X620144Y719856D01*
X620143Y719856D01*
X620035Y719694D01*
X620035Y719693D01*
X620034Y719692D01*
X620028Y719663D01*
X620027Y719659D01*
X620026Y719655D01*
X620026Y719651D01*
X620025Y719646D01*
X620024Y719642D01*
X620023Y719638D01*
X620022Y719634D01*
X620021Y719629D01*
X620021Y719625D01*
X620012Y719583D01*
X620011Y719578D01*
X620010Y719574D01*
X620010Y719570D01*
X620009Y719566D01*
X620008Y719561D01*
X620007Y719557D01*
X620006Y719553D01*
X620005Y719549D01*
X620005Y719544D01*
X620004Y719544D01*
X619996Y719502D01*
X619996Y719501D01*
X619996Y719500D01*
X619996Y712500D01*
X619996Y712499D01*
X620034Y712308D01*
X620035Y712307D01*
X620035Y712306D01*
X620143Y712144D01*
X620144Y712144D01*
X620144Y712143D01*
X620306Y712035D01*
X620307Y712035D01*
X620308Y712034D01*
X620499Y711996D01*
X620500Y711996D01*
X624000Y711996D01*
X624000Y711996D01*
G37*
D10*
X619640Y345880D02*
X619640Y328100D01*
D11*
X700920Y324290D02*
X831730Y324290D01*
X850780Y343340D01*
D12*
X873640Y348420D02*
X887610Y348420D01*
X881260Y334450D02*
X871100Y345880D01*
X881260Y343340D02*
X881260Y334450D01*
X881260Y343340D02*
X882530Y343340D01*
X887610Y348420D01*
X873640Y348420D02*
X871100Y345880D01*
D13*
X881260Y344610D02*
X854590Y344610D01*
X850780Y344610D01*
D14*
X850780Y340800D02*
X854590Y344610D01*
X629800Y323020D02*
X619640Y323020D01*
X623450Y329370D02*
X629800Y323020D01*
D15*
X845446Y399220D02*
X845446Y410396D01*
X845446Y399220D02*
X845446Y391600D01*
X853066Y391600D01*
X845446Y399220D01*
D16*
X749688Y339784D02*
X732924Y339784D01*
X749688Y339784D02*
X754768Y344864D01*
X767976Y344864D01*
X767976Y339784D01*
X749688Y339784D01*
D17*
X735464Y341308D02*
X728860Y341308D01*
X731908Y338260D01*
X732924Y338260D01*
D18*
X120500Y692000D03*
X120500Y688000D03*
X120500Y684000D03*
X120500Y680000D03*
X120500Y676000D03*
X120500Y672000D03*
X120500Y668000D03*
X120500Y664000D03*
X120500Y660000D03*
X120500Y656000D03*
X120500Y652000D03*
X120500Y648000D03*
D19*
X128000Y640500D03*
X132000Y640500D03*
X136000Y640500D03*
X140000Y640500D03*
X144000Y640500D03*
X148000Y640500D03*
X152000Y640500D03*
X156000Y640500D03*
X160000Y640500D03*
X164000Y640500D03*
X168000Y640500D03*
X172000Y640500D03*
D18*
X179500Y648000D03*
X179500Y652000D03*
X179500Y656000D03*
X179500Y660000D03*
X179500Y664000D03*
X179500Y668000D03*
X179500Y672000D03*
X179500Y676000D03*
X179500Y680000D03*
X179500Y684000D03*
X179500Y688000D03*
X179500Y692000D03*
D19*
X172000Y699500D03*
X168000Y699500D03*
X164000Y699500D03*
X160000Y699500D03*
X156000Y699500D03*
X152000Y699500D03*
X148000Y699500D03*
X144000Y699500D03*
X140000Y699500D03*
X136000Y699500D03*
X132000Y699500D03*
X128000Y699500D03*
D20*
X150000Y670000D03*
D21*
X122500Y757500D03*
X127500Y757500D03*
X132500Y757500D03*
X137500Y757500D03*
X142500Y757500D03*
X147500Y757500D03*
X152500Y757500D03*
X157500Y757500D03*
X162500Y757500D03*
X167500Y757500D03*
X172500Y757500D03*
X177500Y757500D03*
D22*
X192500Y772500D03*
X192500Y777500D03*
X192500Y782500D03*
X192500Y787500D03*
X192500Y792500D03*
X192500Y797500D03*
X192500Y802500D03*
X192500Y807500D03*
X192500Y812500D03*
X192500Y817500D03*
X192500Y822500D03*
X192500Y827500D03*
D21*
X177500Y842500D03*
X172500Y842500D03*
X167500Y842500D03*
X162500Y842500D03*
X157500Y842500D03*
X152500Y842500D03*
X147500Y842500D03*
X142500Y842500D03*
X137500Y842500D03*
X132500Y842500D03*
X127500Y842500D03*
X122500Y842500D03*
D22*
X107500Y827500D03*
X107500Y822500D03*
X107500Y817500D03*
X107500Y812500D03*
X107500Y807500D03*
X107500Y802500D03*
X107500Y797500D03*
X107500Y792500D03*
X107500Y787500D03*
X107500Y782500D03*
X107500Y777500D03*
X107500Y772500D03*
D23*
X287500Y642500D03*
X292500Y642500D03*
X277500Y642500D03*
X267500Y642500D03*
X257500Y642500D03*
X282500Y642500D03*
X272500Y642500D03*
X262500Y642500D03*
X252500Y642500D03*
X302500Y642500D03*
X312500Y642500D03*
X322500Y642500D03*
X327500Y642500D03*
X317500Y642500D03*
X307500Y642500D03*
X297500Y642500D03*
D24*
X347500Y697500D03*
X347500Y702500D03*
X347500Y687500D03*
X347500Y677500D03*
X347500Y667500D03*
X347500Y692500D03*
X347500Y682500D03*
X347500Y672500D03*
X347500Y662500D03*
X347500Y712500D03*
X347500Y722500D03*
X347500Y732500D03*
X347500Y737500D03*
X347500Y727500D03*
X347500Y717500D03*
X347500Y707500D03*
D23*
X292500Y757500D03*
X287500Y757500D03*
X302500Y757500D03*
X312500Y757500D03*
X322500Y757500D03*
X297500Y757500D03*
X307500Y757500D03*
X317500Y757500D03*
X327500Y757500D03*
X277500Y757500D03*
X267500Y757500D03*
X257500Y757500D03*
X252500Y757500D03*
X262500Y757500D03*
X272500Y757500D03*
X282500Y757500D03*
D24*
X232500Y702500D03*
X232500Y697500D03*
X232500Y712500D03*
X232500Y722500D03*
X232500Y732500D03*
X232500Y707500D03*
X232500Y717500D03*
X232500Y727500D03*
X232500Y737500D03*
X232500Y687500D03*
X232500Y677500D03*
X232500Y667500D03*
X232500Y662500D03*
X232500Y672500D03*
X232500Y682500D03*
X232500Y692500D03*
D25*
X29242Y677008D02*
X22008Y677008D01*
X22008Y678992D01*
X29242Y678992D01*
X29242Y677008D01*
X29242Y670508D02*
X22008Y670508D01*
X22008Y672492D01*
X29242Y672492D01*
X29242Y670508D01*
X29242Y664008D02*
X22008Y664008D01*
X22008Y665992D01*
X29242Y665992D01*
X29242Y664008D01*
X29242Y657508D02*
X22008Y657508D01*
X22008Y659492D01*
X29242Y659492D01*
X29242Y657508D01*
X29242Y651008D02*
X22008Y651008D01*
X22008Y652992D01*
X29242Y652992D01*
X29242Y651008D01*
X37992Y644242D02*
X37992Y637008D01*
X36008Y637008D01*
X36008Y644242D01*
X37992Y644242D01*
X37992Y639406D02*
X36008Y639406D01*
X36008Y641804D02*
X37992Y641804D01*
X37992Y644202D02*
X36008Y644202D01*
X44492Y644242D02*
X44492Y637008D01*
X42508Y637008D01*
X42508Y644242D01*
X44492Y644242D01*
X44492Y639406D02*
X42508Y639406D01*
X42508Y641804D02*
X44492Y641804D01*
X44492Y644202D02*
X42508Y644202D01*
X50992Y644242D02*
X50992Y637008D01*
X49008Y637008D01*
X49008Y644242D01*
X50992Y644242D01*
X50992Y639406D02*
X49008Y639406D01*
X49008Y641804D02*
X50992Y641804D01*
X50992Y644202D02*
X49008Y644202D01*
X57492Y644242D02*
X57492Y637008D01*
X55508Y637008D01*
X55508Y644242D01*
X57492Y644242D01*
X57492Y639406D02*
X55508Y639406D01*
X55508Y641804D02*
X57492Y641804D01*
X57492Y644202D02*
X55508Y644202D01*
X63992Y644242D02*
X63992Y637008D01*
X62008Y637008D01*
X62008Y644242D01*
X63992Y644242D01*
X63992Y639406D02*
X62008Y639406D01*
X62008Y641804D02*
X63992Y641804D01*
X63992Y644202D02*
X62008Y644202D01*
X70758Y652992D02*
X77992Y652992D01*
X77992Y651008D01*
X70758Y651008D01*
X70758Y652992D01*
X70758Y659492D02*
X77992Y659492D01*
X77992Y657508D01*
X70758Y657508D01*
X70758Y659492D01*
X70758Y665992D02*
X77992Y665992D01*
X77992Y664008D01*
X70758Y664008D01*
X70758Y665992D01*
X70758Y672492D02*
X77992Y672492D01*
X77992Y670508D01*
X70758Y670508D01*
X70758Y672492D01*
X70758Y678992D02*
X77992Y678992D01*
X77992Y677008D01*
X70758Y677008D01*
X70758Y678992D01*
X62008Y685758D02*
X62008Y692992D01*
X63992Y692992D01*
X63992Y685758D01*
X62008Y685758D01*
X62008Y688156D02*
X63992Y688156D01*
X63992Y690554D02*
X62008Y690554D01*
X62008Y692952D02*
X63992Y692952D01*
X55508Y692992D02*
X55508Y685758D01*
X55508Y692992D02*
X57492Y692992D01*
X57492Y685758D01*
X55508Y685758D01*
X55508Y688156D02*
X57492Y688156D01*
X57492Y690554D02*
X55508Y690554D01*
X55508Y692952D02*
X57492Y692952D01*
X49008Y692992D02*
X49008Y685758D01*
X49008Y692992D02*
X50992Y692992D01*
X50992Y685758D01*
X49008Y685758D01*
X49008Y688156D02*
X50992Y688156D01*
X50992Y690554D02*
X49008Y690554D01*
X49008Y692952D02*
X50992Y692952D01*
X42508Y692992D02*
X42508Y685758D01*
X42508Y692992D02*
X44492Y692992D01*
X44492Y685758D01*
X42508Y685758D01*
X42508Y688156D02*
X44492Y688156D01*
X44492Y690554D02*
X42508Y690554D01*
X42508Y692952D02*
X44492Y692952D01*
X36008Y692992D02*
X36008Y685758D01*
X36008Y692992D02*
X37992Y692992D01*
X37992Y685758D01*
X36008Y685758D01*
X36008Y688156D02*
X37992Y688156D01*
X37992Y690554D02*
X36008Y690554D01*
X36008Y692952D02*
X37992Y692952D01*
D26*
X50000Y665000D03*
D27*
X30250Y832000D03*
X30250Y828000D03*
X30250Y824000D03*
X30250Y820000D03*
X30250Y816000D03*
X30250Y812000D03*
X30250Y808000D03*
D28*
X38000Y800250D03*
X42000Y800250D03*
X46000Y800250D03*
X50000Y800250D03*
X54000Y800250D03*
X58000Y800250D03*
X62000Y800250D03*
D27*
X69750Y808000D03*
X69750Y812000D03*
X69750Y816000D03*
X69750Y820000D03*
X69750Y824000D03*
X69750Y828000D03*
X69750Y832000D03*
D28*
X62000Y839750D03*
X58000Y839750D03*
X54000Y839750D03*
X50000Y839750D03*
X46000Y839750D03*
X42000Y839750D03*
X38000Y839750D03*
D29*
X50000Y820000D03*
D30*
X240000Y808350D03*
X245000Y808350D03*
X250000Y808350D03*
X255000Y808350D03*
X260000Y808350D03*
X260000Y831650D03*
X255000Y831650D03*
X250000Y831650D03*
X245000Y831650D03*
X240000Y831650D03*
D31*
X233750Y822750D03*
X233750Y817250D03*
D32*
X250000Y820000D03*
D33*
X240000Y804550D03*
X245000Y804550D03*
X250000Y804550D03*
X255000Y804550D03*
X260000Y804550D03*
X260000Y835450D03*
X255000Y835450D03*
X250000Y835450D03*
X245000Y835450D03*
X240000Y835450D03*
D31*
X266250Y817250D03*
X266250Y822750D03*
D34*
X464475Y730000D03*
D35*
X465000Y726000D03*
X465000Y722000D03*
X465000Y718000D03*
X465000Y714000D03*
D34*
X464475Y710000D03*
D36*
X470000Y704475D03*
D37*
X474000Y705000D03*
X478000Y705000D03*
X482000Y705000D03*
X486000Y705000D03*
D36*
X490000Y704475D03*
D34*
X495525Y710000D03*
D35*
X495000Y714000D03*
X495000Y718000D03*
X495000Y722000D03*
X495000Y726000D03*
D34*
X495525Y730000D03*
D36*
X490000Y735525D03*
D37*
X486000Y735000D03*
X482000Y735000D03*
X478000Y735000D03*
X474000Y735000D03*
D36*
X470000Y735525D03*
D38*
X468490Y729995D03*
D39*
X470005Y708490D03*
D38*
X491510Y710005D03*
D39*
X489995Y731510D03*
X470005Y731510D03*
D38*
X468490Y710005D03*
D39*
X489995Y708490D03*
D38*
X491510Y729995D03*
D40*
X401500Y780000D03*
X401500Y775000D03*
X401500Y770000D03*
X401500Y765000D03*
X401500Y760000D03*
X401500Y755000D03*
X401500Y750000D03*
X401500Y745000D03*
X401500Y740000D03*
X401500Y735000D03*
X401500Y730000D03*
X401500Y725000D03*
X401500Y720000D03*
X401500Y715000D03*
X401500Y710000D03*
X401500Y705000D03*
X401500Y700000D03*
X401500Y695000D03*
X401500Y690000D03*
X401500Y685000D03*
X401500Y680000D03*
X401500Y675000D03*
X401500Y670000D03*
X401500Y665000D03*
X401500Y660000D03*
D41*
X420000Y641500D03*
X425000Y641500D03*
X430000Y641500D03*
X435000Y641500D03*
X440000Y641500D03*
X445000Y641500D03*
X450000Y641500D03*
X455000Y641500D03*
X460000Y641500D03*
X465000Y641500D03*
X470000Y641500D03*
X475000Y641500D03*
X480000Y641500D03*
X485000Y641500D03*
X490000Y641500D03*
X495000Y641500D03*
X500000Y641500D03*
X505000Y641500D03*
X510000Y641500D03*
X515000Y641500D03*
X520000Y641500D03*
X525000Y641500D03*
X530000Y641500D03*
X535000Y641500D03*
X540000Y641500D03*
D40*
X558500Y660000D03*
X558500Y665000D03*
X558500Y670000D03*
X558500Y675000D03*
X558500Y680000D03*
X558500Y685000D03*
X558500Y690000D03*
X558500Y695000D03*
X558500Y700000D03*
X558500Y705000D03*
X558500Y710000D03*
X558500Y715000D03*
X558500Y720000D03*
X558500Y725000D03*
X558500Y730000D03*
X558500Y735000D03*
X558500Y740000D03*
X558500Y745000D03*
X558500Y750000D03*
X558500Y755000D03*
X558500Y760000D03*
X558500Y765000D03*
X558500Y770000D03*
X558500Y775000D03*
X558500Y780000D03*
D41*
X540000Y798500D03*
X535000Y798500D03*
X530000Y798500D03*
X525000Y798500D03*
X520000Y798500D03*
X515000Y798500D03*
X510000Y798500D03*
X505000Y798500D03*
X500000Y798500D03*
X495000Y798500D03*
X490000Y798500D03*
X485000Y798500D03*
X480000Y798500D03*
X475000Y798500D03*
X470000Y798500D03*
X465000Y798500D03*
X460000Y798500D03*
X455000Y798500D03*
X450000Y798500D03*
X445000Y798500D03*
X440000Y798500D03*
X435000Y798500D03*
X430000Y798500D03*
X425000Y798500D03*
X420000Y798500D03*
D42*
X677175Y665266D02*
X685215Y665266D01*
X677175Y665266D02*
X677175Y672306D01*
X685215Y672306D01*
X685215Y665266D01*
X685215Y668561D02*
X677175Y668561D01*
X677175Y671856D02*
X685215Y671856D01*
X694175Y665266D02*
X702215Y665266D01*
X694175Y665266D02*
X694175Y672306D01*
X702215Y672306D01*
X702215Y665266D01*
X702215Y668561D02*
X694175Y668561D01*
X694175Y671856D02*
X702215Y671856D01*
X902521Y789980D02*
X910561Y789980D01*
X902521Y789980D02*
X902521Y797020D01*
X910561Y797020D01*
X910561Y789980D01*
X910561Y793275D02*
X902521Y793275D01*
X902521Y796570D02*
X910561Y796570D01*
X919521Y789980D02*
X927561Y789980D01*
X919521Y789980D02*
X919521Y797020D01*
X927561Y797020D01*
X927561Y789980D01*
X927561Y793275D02*
X919521Y793275D01*
X919521Y796570D02*
X927561Y796570D01*
X800856Y678004D02*
X800856Y669964D01*
X800856Y678004D02*
X807896Y678004D01*
X807896Y669964D01*
X800856Y669964D01*
X800856Y673259D02*
X807896Y673259D01*
X807896Y676554D02*
X800856Y676554D01*
X800856Y661004D02*
X800856Y652964D01*
X800856Y661004D02*
X807896Y661004D01*
X807896Y652964D01*
X800856Y652964D01*
X800856Y656259D02*
X807896Y656259D01*
X807896Y659554D02*
X800856Y659554D01*
X884866Y641572D02*
X892906Y641572D01*
X892906Y634532D01*
X884866Y634532D01*
X884866Y641572D01*
X884866Y637827D02*
X892906Y637827D01*
X892906Y641122D02*
X884866Y641122D01*
X875906Y641572D02*
X867866Y641572D01*
X875906Y641572D02*
X875906Y634532D01*
X867866Y634532D01*
X867866Y641572D01*
X867866Y637827D02*
X875906Y637827D01*
X875906Y641122D02*
X867866Y641122D01*
X611068Y795498D02*
X603028Y795498D01*
X603028Y802538D01*
X611068Y802538D01*
X611068Y795498D01*
X611068Y798793D02*
X603028Y798793D01*
X603028Y802088D02*
X611068Y802088D01*
X620028Y795498D02*
X628068Y795498D01*
X620028Y795498D02*
X620028Y802538D01*
X628068Y802538D01*
X628068Y795498D01*
X628068Y798793D02*
X620028Y798793D01*
X620028Y802088D02*
X628068Y802088D01*
X628079Y664384D02*
X620039Y664384D01*
X628079Y664384D02*
X628079Y657344D01*
X620039Y657344D01*
X620039Y664384D01*
X620039Y660639D02*
X628079Y660639D01*
X628079Y663934D02*
X620039Y663934D01*
X611079Y664384D02*
X603039Y664384D01*
X611079Y664384D02*
X611079Y657344D01*
X603039Y657344D01*
X603039Y664384D01*
X603039Y660639D02*
X611079Y660639D01*
X611079Y663934D02*
X603039Y663934D01*
X740404Y759213D02*
X740404Y767253D01*
X747444Y767253D01*
X747444Y759213D01*
X740404Y759213D01*
X740404Y762508D02*
X747444Y762508D01*
X747444Y765803D02*
X740404Y765803D01*
X740404Y750253D02*
X740404Y742213D01*
X740404Y750253D02*
X747444Y750253D01*
X747444Y742213D01*
X740404Y742213D01*
X740404Y745508D02*
X747444Y745508D01*
X747444Y748803D02*
X740404Y748803D01*
X734060Y767302D02*
X726020Y767302D01*
X734060Y767302D02*
X734060Y760262D01*
X726020Y760262D01*
X726020Y767302D01*
X726020Y763557D02*
X734060Y763557D01*
X734060Y766852D02*
X726020Y766852D01*
X717060Y767302D02*
X709020Y767302D01*
X717060Y767302D02*
X717060Y760262D01*
X709020Y760262D01*
X709020Y767302D01*
X709020Y763557D02*
X717060Y763557D01*
X717060Y766852D02*
X709020Y766852D01*
X859966Y661004D02*
X859966Y652964D01*
X852926Y652964D01*
X852926Y661004D01*
X859966Y661004D01*
X859966Y656259D02*
X852926Y656259D01*
X852926Y659554D02*
X859966Y659554D01*
X859966Y669964D02*
X859966Y678004D01*
X859966Y669964D02*
X852926Y669964D01*
X852926Y678004D01*
X859966Y678004D01*
X859966Y673259D02*
X852926Y673259D01*
X852926Y676554D02*
X859966Y676554D01*
X747837Y661875D02*
X747837Y653835D01*
X747837Y661875D02*
X754877Y661875D01*
X754877Y653835D01*
X747837Y653835D01*
X747837Y657130D02*
X754877Y657130D01*
X754877Y660425D02*
X747837Y660425D01*
X747837Y644875D02*
X747837Y636835D01*
X747837Y644875D02*
X754877Y644875D01*
X754877Y636835D01*
X747837Y636835D01*
X747837Y640130D02*
X754877Y640130D01*
X754877Y643425D02*
X747837Y643425D01*
X865141Y752405D02*
X865141Y760445D01*
X865141Y752405D02*
X858101Y752405D01*
X858101Y760445D01*
X865141Y760445D01*
X865141Y755700D02*
X858101Y755700D01*
X858101Y758995D02*
X865141Y758995D01*
X865141Y769405D02*
X865141Y777445D01*
X865141Y769405D02*
X858101Y769405D01*
X858101Y777445D01*
X865141Y777445D01*
X865141Y772700D02*
X858101Y772700D01*
X858101Y775995D02*
X865141Y775995D01*
X696246Y767302D02*
X688206Y767302D01*
X696246Y767302D02*
X696246Y760262D01*
X688206Y760262D01*
X688206Y767302D01*
X688206Y763557D02*
X696246Y763557D01*
X696246Y766852D02*
X688206Y766852D01*
X679246Y767302D02*
X671206Y767302D01*
X679246Y767302D02*
X679246Y760262D01*
X671206Y760262D01*
X671206Y767302D01*
X671206Y763557D02*
X679246Y763557D01*
X679246Y766852D02*
X671206Y766852D01*
X877810Y766795D02*
X877810Y758755D01*
X870770Y758755D01*
X870770Y766795D01*
X877810Y766795D01*
X877810Y762050D02*
X870770Y762050D01*
X870770Y765345D02*
X877810Y765345D01*
X877810Y775755D02*
X877810Y783795D01*
X877810Y775755D02*
X870770Y775755D01*
X870770Y783795D01*
X877810Y783795D01*
X877810Y779050D02*
X870770Y779050D01*
X870770Y782345D02*
X877810Y782345D01*
X689515Y704141D02*
X689515Y696101D01*
X689515Y704141D02*
X696555Y704141D01*
X696555Y696101D01*
X689515Y696101D01*
X689515Y699396D02*
X696555Y699396D01*
X696555Y702691D02*
X689515Y702691D01*
X689515Y687141D02*
X689515Y679101D01*
X689515Y687141D02*
X696555Y687141D01*
X696555Y679101D01*
X689515Y679101D01*
X689515Y682396D02*
X696555Y682396D01*
X696555Y685691D02*
X689515Y685691D01*
X889375Y805918D02*
X889375Y813958D01*
X896415Y813958D01*
X896415Y805918D01*
X889375Y805918D01*
X889375Y809213D02*
X896415Y809213D01*
X896415Y812508D02*
X889375Y812508D01*
X889375Y796958D02*
X889375Y788918D01*
X889375Y796958D02*
X896415Y796958D01*
X896415Y788918D01*
X889375Y788918D01*
X889375Y792213D02*
X896415Y792213D01*
X896415Y795508D02*
X889375Y795508D01*
X933508Y802346D02*
X933508Y810386D01*
X940548Y810386D01*
X940548Y802346D01*
X933508Y802346D01*
X933508Y805641D02*
X940548Y805641D01*
X940548Y808936D02*
X933508Y808936D01*
X933508Y793386D02*
X933508Y785346D01*
X933508Y793386D02*
X940548Y793386D01*
X940548Y785346D01*
X933508Y785346D01*
X933508Y788641D02*
X940548Y788641D01*
X940548Y791936D02*
X933508Y791936D01*
X862832Y807505D02*
X862832Y815545D01*
X869872Y815545D01*
X869872Y807505D01*
X862832Y807505D01*
X862832Y810800D02*
X869872Y810800D01*
X869872Y814095D02*
X862832Y814095D01*
X862832Y798545D02*
X862832Y790505D01*
X862832Y798545D02*
X869872Y798545D01*
X869872Y790505D01*
X862832Y790505D01*
X862832Y793800D02*
X869872Y793800D01*
X869872Y797095D02*
X862832Y797095D01*
X856918Y798545D02*
X856918Y790505D01*
X849878Y790505D01*
X849878Y798545D01*
X856918Y798545D01*
X856918Y793800D02*
X849878Y793800D01*
X849878Y797095D02*
X856918Y797095D01*
X856918Y807505D02*
X856918Y815545D01*
X856918Y807505D02*
X849878Y807505D01*
X849878Y815545D01*
X856918Y815545D01*
X856918Y810800D02*
X849878Y810800D01*
X849878Y814095D02*
X856918Y814095D01*
X808714Y799349D02*
X808714Y791309D01*
X808714Y799349D02*
X815754Y799349D01*
X815754Y791309D01*
X808714Y791309D01*
X808714Y794604D02*
X815754Y794604D01*
X815754Y797899D02*
X808714Y797899D01*
X808714Y782349D02*
X808714Y774309D01*
X808714Y782349D02*
X815754Y782349D01*
X815754Y774309D01*
X808714Y774309D01*
X808714Y777604D02*
X815754Y777604D01*
X815754Y780899D02*
X808714Y780899D01*
X772555Y789787D02*
X766871Y795471D01*
X771849Y800449D01*
X777533Y794765D01*
X772555Y789787D01*
X775850Y793082D02*
X769260Y793082D01*
X767777Y796377D02*
X775921Y796377D01*
X772626Y799672D02*
X771072Y799672D01*
X778892Y783450D02*
X784576Y777766D01*
X778892Y783450D02*
X783870Y788428D01*
X789554Y782744D01*
X784576Y777766D01*
X787871Y781061D02*
X781281Y781061D01*
X779798Y784356D02*
X787942Y784356D01*
X784647Y787651D02*
X783093Y787651D01*
X781586Y798855D02*
X775902Y804539D01*
X780880Y809517D01*
X786564Y803833D01*
X781586Y798855D01*
X784881Y802150D02*
X778291Y802150D01*
X776808Y805445D02*
X784952Y805445D01*
X781657Y808740D02*
X780103Y808740D01*
X787922Y792519D02*
X793606Y786835D01*
X787922Y792519D02*
X792900Y797497D01*
X798584Y791813D01*
X793606Y786835D01*
X796901Y790130D02*
X790311Y790130D01*
X788828Y793425D02*
X796972Y793425D01*
X793677Y796720D02*
X792123Y796720D01*
X766781Y680849D02*
X758741Y680849D01*
X758741Y687889D01*
X766781Y687889D01*
X766781Y680849D01*
X766781Y684144D02*
X758741Y684144D01*
X758741Y687439D02*
X766781Y687439D01*
X775741Y680849D02*
X783781Y680849D01*
X775741Y680849D02*
X775741Y687889D01*
X783781Y687889D01*
X783781Y680849D01*
X783781Y684144D02*
X775741Y684144D01*
X775741Y687439D02*
X783781Y687439D01*
X766832Y667889D02*
X758792Y667889D01*
X758792Y674929D01*
X766832Y674929D01*
X766832Y667889D01*
X766832Y671184D02*
X758792Y671184D01*
X758792Y674479D02*
X766832Y674479D01*
X775792Y667889D02*
X783832Y667889D01*
X775792Y667889D02*
X775792Y674929D01*
X783832Y674929D01*
X783832Y667889D01*
X783832Y671184D02*
X775792Y671184D01*
X775792Y674479D02*
X783832Y674479D01*
X767510Y644875D02*
X767510Y636835D01*
X760470Y636835D01*
X760470Y644875D01*
X767510Y644875D01*
X767510Y640130D02*
X760470Y640130D01*
X760470Y643425D02*
X767510Y643425D01*
X767510Y653835D02*
X767510Y661875D01*
X767510Y653835D02*
X760470Y653835D01*
X760470Y661875D01*
X767510Y661875D01*
X767510Y657130D02*
X760470Y657130D01*
X760470Y660425D02*
X767510Y660425D01*
X880985Y661014D02*
X880985Y652974D01*
X873945Y652974D01*
X873945Y661014D01*
X880985Y661014D01*
X880985Y656269D02*
X873945Y656269D01*
X873945Y659564D02*
X880985Y659564D01*
X880985Y669974D02*
X880985Y678014D01*
X880985Y669974D02*
X873945Y669974D01*
X873945Y678014D01*
X880985Y678014D01*
X880985Y673269D02*
X873945Y673269D01*
X873945Y676564D02*
X880985Y676564D01*
X766275Y751361D02*
X766275Y759401D01*
X766275Y751361D02*
X759235Y751361D01*
X759235Y759401D01*
X766275Y759401D01*
X766275Y754656D02*
X759235Y754656D01*
X759235Y757951D02*
X766275Y757951D01*
X766275Y768361D02*
X766275Y776401D01*
X766275Y768361D02*
X759235Y768361D01*
X759235Y776401D01*
X766275Y776401D01*
X766275Y771656D02*
X759235Y771656D01*
X759235Y774951D02*
X766275Y774951D01*
X843710Y790505D02*
X843710Y798545D01*
X843710Y790505D02*
X836670Y790505D01*
X836670Y798545D01*
X843710Y798545D01*
X843710Y793800D02*
X836670Y793800D01*
X836670Y797095D02*
X843710Y797095D01*
X843710Y807505D02*
X843710Y815545D01*
X843710Y807505D02*
X836670Y807505D01*
X836670Y815545D01*
X843710Y815545D01*
X843710Y810800D02*
X836670Y810800D01*
X836670Y814095D02*
X843710Y814095D01*
X886930Y678014D02*
X886930Y669974D01*
X886930Y678014D02*
X893970Y678014D01*
X893970Y669974D01*
X886930Y669974D01*
X886930Y673269D02*
X893970Y673269D01*
X893970Y676564D02*
X886930Y676564D01*
X886930Y661014D02*
X886930Y652974D01*
X886930Y661014D02*
X893970Y661014D01*
X893970Y652974D01*
X886930Y652974D01*
X886930Y656269D02*
X893970Y656269D01*
X893970Y659564D02*
X886930Y659564D01*
D43*
X642414Y656865D02*
X642414Y655003D01*
X642414Y656865D02*
X650776Y656865D01*
X650776Y655003D01*
X642414Y655003D01*
X642414Y647365D02*
X642414Y645503D01*
X642414Y647365D02*
X650776Y647365D01*
X650776Y645503D01*
X642414Y645503D01*
X642414Y637865D02*
X642414Y636003D01*
X642414Y637865D02*
X650776Y637865D01*
X650776Y636003D01*
X642414Y636003D01*
X668416Y636003D02*
X668416Y637865D01*
X676778Y637865D01*
X676778Y636003D01*
X668416Y636003D01*
X668416Y655003D02*
X668416Y656865D01*
X676778Y656865D01*
X676778Y655003D01*
X668416Y655003D01*
D44*
X782203Y699180D02*
X782203Y700888D01*
X782203Y699180D02*
X779653Y699180D01*
X779653Y700888D01*
X782203Y700888D01*
D45*
X782525Y706858D02*
X782525Y708210D01*
X782525Y706858D02*
X779331Y706858D01*
X779331Y708210D01*
X782525Y708210D01*
D44*
X782203Y714180D02*
X782203Y715888D01*
X782203Y714180D02*
X779653Y714180D01*
X779653Y715888D01*
X782203Y715888D01*
X764203Y715888D02*
X764203Y714180D01*
X761653Y714180D01*
X761653Y715888D01*
X764203Y715888D01*
D45*
X764525Y708210D02*
X764525Y706858D01*
X761331Y706858D01*
X761331Y708210D01*
X764525Y708210D01*
D44*
X764203Y700888D02*
X764203Y699180D01*
X761653Y699180D01*
X761653Y700888D01*
X764203Y700888D01*
D46*
X839901Y712987D02*
X846029Y712987D01*
X846029Y712013D01*
X839901Y712013D01*
X839901Y712987D01*
X839901Y717987D02*
X846029Y717987D01*
X846029Y717013D01*
X839901Y717013D01*
X839901Y717987D01*
X839901Y722987D02*
X846029Y722987D01*
X846029Y722013D01*
X839901Y722013D01*
X839901Y722987D01*
X839901Y727987D02*
X846029Y727987D01*
X846029Y727013D01*
X839901Y727013D01*
X839901Y727987D01*
X839901Y732987D02*
X846029Y732987D01*
X846029Y732013D01*
X839901Y732013D01*
X839901Y732987D01*
X839901Y737987D02*
X846029Y737987D01*
X846029Y737013D01*
X839901Y737013D01*
X839901Y737987D01*
X839901Y742987D02*
X846029Y742987D01*
X846029Y742013D01*
X839901Y742013D01*
X839901Y742987D01*
X839901Y747987D02*
X846029Y747987D01*
X846029Y747013D01*
X839901Y747013D01*
X839901Y747987D01*
X834978Y751936D02*
X834978Y758064D01*
X835952Y758064D01*
X835952Y751936D01*
X834978Y751936D01*
X834978Y754198D02*
X835952Y754198D01*
X835952Y756460D02*
X834978Y756460D01*
X829978Y758064D02*
X829978Y751936D01*
X829978Y758064D02*
X830952Y758064D01*
X830952Y751936D01*
X829978Y751936D01*
X829978Y754198D02*
X830952Y754198D01*
X830952Y756460D02*
X829978Y756460D01*
X824978Y758064D02*
X824978Y751936D01*
X824978Y758064D02*
X825952Y758064D01*
X825952Y751936D01*
X824978Y751936D01*
X824978Y754198D02*
X825952Y754198D01*
X825952Y756460D02*
X824978Y756460D01*
X819978Y758064D02*
X819978Y751936D01*
X819978Y758064D02*
X820952Y758064D01*
X820952Y751936D01*
X819978Y751936D01*
X819978Y754198D02*
X820952Y754198D01*
X820952Y756460D02*
X819978Y756460D01*
X814978Y758064D02*
X814978Y751936D01*
X814978Y758064D02*
X815952Y758064D01*
X815952Y751936D01*
X814978Y751936D01*
X814978Y754198D02*
X815952Y754198D01*
X815952Y756460D02*
X814978Y756460D01*
X809978Y758064D02*
X809978Y751936D01*
X809978Y758064D02*
X810952Y758064D01*
X810952Y751936D01*
X809978Y751936D01*
X809978Y754198D02*
X810952Y754198D01*
X810952Y756460D02*
X809978Y756460D01*
X804978Y758064D02*
X804978Y751936D01*
X804978Y758064D02*
X805952Y758064D01*
X805952Y751936D01*
X804978Y751936D01*
X804978Y754198D02*
X805952Y754198D01*
X805952Y756460D02*
X804978Y756460D01*
X799978Y758064D02*
X799978Y751936D01*
X799978Y758064D02*
X800952Y758064D01*
X800952Y751936D01*
X799978Y751936D01*
X799978Y754198D02*
X800952Y754198D01*
X800952Y756460D02*
X799978Y756460D01*
X796029Y747013D02*
X789901Y747013D01*
X789901Y747987D01*
X796029Y747987D01*
X796029Y747013D01*
X796029Y742013D02*
X789901Y742013D01*
X789901Y742987D01*
X796029Y742987D01*
X796029Y742013D01*
X796029Y737013D02*
X789901Y737013D01*
X789901Y737987D01*
X796029Y737987D01*
X796029Y737013D01*
X796029Y732013D02*
X789901Y732013D01*
X789901Y732987D01*
X796029Y732987D01*
X796029Y732013D01*
X796029Y727013D02*
X789901Y727013D01*
X789901Y727987D01*
X796029Y727987D01*
X796029Y727013D01*
X796029Y722013D02*
X789901Y722013D01*
X789901Y722987D01*
X796029Y722987D01*
X796029Y722013D01*
X796029Y717013D02*
X789901Y717013D01*
X789901Y717987D01*
X796029Y717987D01*
X796029Y717013D01*
X796029Y712013D02*
X789901Y712013D01*
X789901Y712987D01*
X796029Y712987D01*
X796029Y712013D01*
X800952Y708064D02*
X800952Y701936D01*
X799978Y701936D01*
X799978Y708064D01*
X800952Y708064D01*
X800952Y704198D02*
X799978Y704198D01*
X799978Y706460D02*
X800952Y706460D01*
X805952Y708064D02*
X805952Y701936D01*
X804978Y701936D01*
X804978Y708064D01*
X805952Y708064D01*
X805952Y704198D02*
X804978Y704198D01*
X804978Y706460D02*
X805952Y706460D01*
X810952Y708064D02*
X810952Y701936D01*
X809978Y701936D01*
X809978Y708064D01*
X810952Y708064D01*
X810952Y704198D02*
X809978Y704198D01*
X809978Y706460D02*
X810952Y706460D01*
X815952Y708064D02*
X815952Y701936D01*
X814978Y701936D01*
X814978Y708064D01*
X815952Y708064D01*
X815952Y704198D02*
X814978Y704198D01*
X814978Y706460D02*
X815952Y706460D01*
X820952Y708064D02*
X820952Y701936D01*
X819978Y701936D01*
X819978Y708064D01*
X820952Y708064D01*
X820952Y704198D02*
X819978Y704198D01*
X819978Y706460D02*
X820952Y706460D01*
X825952Y708064D02*
X825952Y701936D01*
X824978Y701936D01*
X824978Y708064D01*
X825952Y708064D01*
X825952Y704198D02*
X824978Y704198D01*
X824978Y706460D02*
X825952Y706460D01*
X830952Y708064D02*
X830952Y701936D01*
X829978Y701936D01*
X829978Y708064D01*
X830952Y708064D01*
X830952Y704198D02*
X829978Y704198D01*
X829978Y706460D02*
X830952Y706460D01*
X835952Y708064D02*
X835952Y701936D01*
X834978Y701936D01*
X834978Y708064D01*
X835952Y708064D01*
X835952Y704198D02*
X834978Y704198D01*
X834978Y706460D02*
X835952Y706460D01*
D47*
X817965Y730000D03*
D48*
X672249Y816568D02*
X672249Y818616D01*
X685219Y818616D01*
X685219Y816568D01*
X672249Y816568D01*
X672249Y805916D02*
X672249Y803868D01*
X672249Y805916D02*
X685219Y805916D01*
X685219Y803868D01*
X672249Y803868D01*
X672249Y793216D02*
X672249Y791168D01*
X672249Y793216D02*
X685219Y793216D01*
X685219Y791168D01*
X672249Y791168D01*
X672249Y780516D02*
X672249Y778468D01*
X672249Y780516D02*
X685219Y780516D01*
X685219Y778468D01*
X672249Y778468D01*
X737273Y778468D02*
X737273Y780516D01*
X750243Y780516D01*
X750243Y778468D01*
X737273Y778468D01*
X737273Y791168D02*
X737273Y793216D01*
X750243Y793216D01*
X750243Y791168D01*
X737273Y791168D01*
X737273Y803868D02*
X737273Y805916D01*
X750243Y805916D01*
X750243Y803868D01*
X737273Y803868D01*
X737273Y816568D02*
X737273Y818616D01*
X750243Y818616D01*
X750243Y816568D01*
X737273Y816568D01*
D49*
X740927Y717608D02*
X740927Y711018D01*
X739537Y711018D01*
X739537Y717608D01*
X740927Y717608D01*
X740927Y712841D02*
X739537Y712841D01*
X739537Y714664D02*
X740927Y714664D01*
X740927Y716487D02*
X739537Y716487D01*
X735927Y717608D02*
X735927Y711018D01*
X734537Y711018D01*
X734537Y717608D01*
X735927Y717608D01*
X735927Y712841D02*
X734537Y712841D01*
X734537Y714664D02*
X735927Y714664D01*
X735927Y716487D02*
X734537Y716487D01*
X730927Y717608D02*
X730927Y711018D01*
X729537Y711018D01*
X729537Y717608D01*
X730927Y717608D01*
X730927Y712841D02*
X729537Y712841D01*
X729537Y714664D02*
X730927Y714664D01*
X730927Y716487D02*
X729537Y716487D01*
X725927Y717608D02*
X725927Y711018D01*
X724537Y711018D01*
X724537Y717608D01*
X725927Y717608D01*
X725927Y712841D02*
X724537Y712841D01*
X724537Y714664D02*
X725927Y714664D01*
X725927Y716487D02*
X724537Y716487D01*
X720927Y717608D02*
X720927Y711018D01*
X719537Y711018D01*
X719537Y717608D01*
X720927Y717608D01*
X720927Y712841D02*
X719537Y712841D01*
X719537Y714664D02*
X720927Y714664D01*
X720927Y716487D02*
X719537Y716487D01*
X715927Y717608D02*
X715927Y711018D01*
X714537Y711018D01*
X714537Y717608D01*
X715927Y717608D01*
X715927Y712841D02*
X714537Y712841D01*
X714537Y714664D02*
X715927Y714664D01*
X715927Y716487D02*
X714537Y716487D01*
X711027Y706118D02*
X704437Y706118D01*
X704437Y707508D01*
X711027Y707508D01*
X711027Y706118D01*
X711027Y701118D02*
X704437Y701118D01*
X704437Y702508D01*
X711027Y702508D01*
X711027Y701118D01*
X711027Y696118D02*
X704437Y696118D01*
X704437Y697508D01*
X711027Y697508D01*
X711027Y696118D01*
X711027Y691118D02*
X704437Y691118D01*
X704437Y692508D01*
X711027Y692508D01*
X711027Y691118D01*
X711027Y686118D02*
X704437Y686118D01*
X704437Y687508D01*
X711027Y687508D01*
X711027Y686118D01*
X711027Y681118D02*
X704437Y681118D01*
X704437Y682508D01*
X711027Y682508D01*
X711027Y681118D01*
X714537Y677608D02*
X714537Y671018D01*
X714537Y677608D02*
X715927Y677608D01*
X715927Y671018D01*
X714537Y671018D01*
X714537Y672841D02*
X715927Y672841D01*
X715927Y674664D02*
X714537Y674664D01*
X714537Y676487D02*
X715927Y676487D01*
X719537Y677608D02*
X719537Y671018D01*
X719537Y677608D02*
X720927Y677608D01*
X720927Y671018D01*
X719537Y671018D01*
X719537Y672841D02*
X720927Y672841D01*
X720927Y674664D02*
X719537Y674664D01*
X719537Y676487D02*
X720927Y676487D01*
X724537Y677608D02*
X724537Y671018D01*
X724537Y677608D02*
X725927Y677608D01*
X725927Y671018D01*
X724537Y671018D01*
X724537Y672841D02*
X725927Y672841D01*
X725927Y674664D02*
X724537Y674664D01*
X724537Y676487D02*
X725927Y676487D01*
X729537Y677608D02*
X729537Y671018D01*
X729537Y677608D02*
X730927Y677608D01*
X730927Y671018D01*
X729537Y671018D01*
X729537Y672841D02*
X730927Y672841D01*
X730927Y674664D02*
X729537Y674664D01*
X729537Y676487D02*
X730927Y676487D01*
X734537Y677608D02*
X734537Y671018D01*
X734537Y677608D02*
X735927Y677608D01*
X735927Y671018D01*
X734537Y671018D01*
X734537Y672841D02*
X735927Y672841D01*
X735927Y674664D02*
X734537Y674664D01*
X734537Y676487D02*
X735927Y676487D01*
X739537Y677608D02*
X739537Y671018D01*
X739537Y677608D02*
X740927Y677608D01*
X740927Y671018D01*
X739537Y671018D01*
X739537Y672841D02*
X740927Y672841D01*
X740927Y674664D02*
X739537Y674664D01*
X739537Y676487D02*
X740927Y676487D01*
X744437Y682508D02*
X751027Y682508D01*
X751027Y681118D01*
X744437Y681118D01*
X744437Y682508D01*
X744437Y687508D02*
X751027Y687508D01*
X751027Y686118D01*
X744437Y686118D01*
X744437Y687508D01*
X744437Y692508D02*
X751027Y692508D01*
X751027Y691118D01*
X744437Y691118D01*
X744437Y692508D01*
X744437Y697508D02*
X751027Y697508D01*
X751027Y696118D01*
X744437Y696118D01*
X744437Y697508D01*
X744437Y702508D02*
X751027Y702508D01*
X751027Y701118D01*
X744437Y701118D01*
X744437Y702508D01*
X744437Y707508D02*
X751027Y707508D01*
X751027Y706118D01*
X744437Y706118D01*
X744437Y707508D01*
D50*
X727732Y694313D03*
D51*
X815022Y671722D02*
X822546Y671722D01*
X815022Y671722D02*
X815022Y677246D01*
X822546Y677246D01*
X822546Y671722D01*
X838022Y653722D02*
X845546Y653722D01*
X838022Y653722D02*
X838022Y659246D01*
X845546Y659246D01*
X845546Y653722D01*
X845546Y671722D02*
X838022Y671722D01*
X838022Y677246D01*
X845546Y677246D01*
X845546Y671722D01*
X822546Y653722D02*
X815022Y653722D01*
X815022Y659246D01*
X822546Y659246D01*
X822546Y653722D01*
D52*
X929603Y758629D02*
X929603Y768495D01*
X945469Y768495D01*
X945469Y758629D01*
X929603Y758629D01*
X929603Y763040D02*
X945469Y763040D01*
X945469Y767451D02*
X929603Y767451D01*
X929603Y673495D02*
X929603Y663629D01*
X929603Y673495D02*
X945469Y673495D01*
X945469Y663629D01*
X929603Y663629D01*
X929603Y668040D02*
X945469Y668040D01*
X945469Y672451D02*
X929603Y672451D01*
D53*
X656865Y785750D02*
X648865Y785750D01*
X618865Y785750D02*
X606865Y785750D01*
D54*
X656511Y738254D02*
X656511Y736746D01*
X656511Y738254D02*
X666519Y738254D01*
X666519Y736746D01*
X656511Y736746D01*
X656511Y733254D02*
X656511Y731746D01*
X656511Y733254D02*
X666519Y733254D01*
X666519Y731746D01*
X656511Y731746D01*
X656511Y728254D02*
X656511Y726746D01*
X656511Y728254D02*
X666519Y728254D01*
X666519Y726746D01*
X656511Y726746D01*
X656511Y723254D02*
X656511Y721746D01*
X656511Y723254D02*
X666519Y723254D01*
X666519Y721746D01*
X656511Y721746D01*
X656511Y741746D02*
X656511Y743254D01*
X666519Y743254D01*
X666519Y741746D01*
X656511Y741746D01*
X656511Y746746D02*
X656511Y748254D01*
X666519Y748254D01*
X666519Y746746D01*
X656511Y746746D01*
X656511Y718254D02*
X656511Y716746D01*
X656511Y718254D02*
X666519Y718254D01*
X666519Y716746D01*
X656511Y716746D01*
X656511Y713254D02*
X656511Y711746D01*
X656511Y713254D02*
X666519Y713254D01*
X666519Y711746D01*
X656511Y711746D01*
D55*
X657268Y752503D02*
X657268Y755497D01*
X665762Y755497D01*
X665762Y752503D01*
X657268Y752503D01*
X657268Y760503D02*
X657268Y763497D01*
X665762Y763497D01*
X665762Y760503D01*
X657268Y760503D01*
X657268Y707497D02*
X657268Y704503D01*
X657268Y707497D02*
X665762Y707497D01*
X665762Y704503D01*
X657268Y704503D01*
X657268Y699497D02*
X657268Y696503D01*
X657268Y699497D02*
X665762Y699497D01*
X665762Y696503D01*
X657268Y696503D01*
D53*
X656865Y674250D02*
X648865Y674250D01*
X618865Y674250D02*
X606865Y674250D01*
D42*
X673348Y696253D02*
X673348Y704293D01*
X680388Y704293D01*
X680388Y696253D01*
X673348Y696253D01*
X673348Y699548D02*
X680388Y699548D01*
X680388Y702843D02*
X673348Y702843D01*
X673348Y687293D02*
X673348Y679253D01*
X673348Y687293D02*
X680388Y687293D01*
X680388Y679253D01*
X673348Y679253D01*
X673348Y682548D02*
X680388Y682548D01*
X680388Y685843D02*
X673348Y685843D01*
D56*
X663056Y818392D03*
X645056Y818392D03*
D57*
X645701Y834037D02*
X662411Y834037D01*
X645701Y834037D02*
X645701Y841747D01*
X662411Y841747D01*
X662411Y834037D01*
X662411Y837645D02*
X645701Y837645D01*
X645701Y841253D02*
X662411Y841253D01*
X662411Y795037D02*
X645701Y795037D01*
X645701Y802747D01*
X662411Y802747D01*
X662411Y795037D01*
X662411Y798645D02*
X645701Y798645D01*
X645701Y802253D02*
X662411Y802253D01*
D42*
X773170Y644142D02*
X780210Y644142D01*
X780210Y637102D01*
X773170Y637102D01*
X773170Y644142D01*
X773170Y640397D02*
X780210Y640397D01*
X780210Y643692D02*
X773170Y643692D01*
X773170Y661682D02*
X780210Y661682D01*
X780210Y654642D01*
X773170Y654642D01*
X773170Y661682D01*
X773170Y657937D02*
X780210Y657937D01*
X780210Y661232D02*
X773170Y661232D01*
D58*
X696822Y715713D02*
X694154Y715713D01*
X696822Y715713D02*
X696822Y713045D01*
X694154Y713045D01*
X694154Y715713D01*
X674822Y715713D02*
X672154Y715713D01*
X674822Y715713D02*
X674822Y713045D01*
X672154Y713045D01*
X672154Y715713D01*
D42*
X739824Y644875D02*
X739824Y636835D01*
X732784Y636835D01*
X732784Y644875D01*
X739824Y644875D01*
X739824Y640130D02*
X732784Y640130D01*
X732784Y643425D02*
X739824Y643425D01*
X739824Y653835D02*
X739824Y661875D01*
X739824Y653835D02*
X732784Y653835D01*
X732784Y661875D01*
X739824Y661875D01*
X739824Y657130D02*
X732784Y657130D01*
X732784Y660425D02*
X739824Y660425D01*
X726997Y651557D02*
X719957Y651557D01*
X719957Y658597D01*
X726997Y658597D01*
X726997Y651557D01*
X726997Y654852D02*
X719957Y654852D01*
X719957Y658147D02*
X726997Y658147D01*
X726997Y634017D02*
X719957Y634017D01*
X719957Y641057D01*
X726997Y641057D01*
X726997Y634017D01*
X726997Y637312D02*
X719957Y637312D01*
X719957Y640607D02*
X726997Y640607D01*
X683000Y650787D02*
X683000Y658827D01*
X690040Y658827D01*
X690040Y650787D01*
X683000Y650787D01*
X683000Y654082D02*
X690040Y654082D01*
X690040Y657377D02*
X683000Y657377D01*
X683000Y641827D02*
X683000Y633787D01*
X683000Y641827D02*
X690040Y641827D01*
X690040Y633787D01*
X683000Y633787D01*
X683000Y637082D02*
X690040Y637082D01*
X690040Y640377D02*
X683000Y640377D01*
X695954Y651684D02*
X702994Y651684D01*
X695954Y651684D02*
X695954Y658724D01*
X702994Y658724D01*
X702994Y651684D01*
X702994Y654979D02*
X695954Y654979D01*
X695954Y658274D02*
X702994Y658274D01*
X702994Y634144D02*
X695954Y634144D01*
X695954Y641184D01*
X702994Y641184D01*
X702994Y634144D01*
X702994Y637439D02*
X695954Y637439D01*
X695954Y640734D02*
X702994Y640734D01*
X731785Y729401D02*
X739825Y729401D01*
X731785Y729401D02*
X731785Y736441D01*
X739825Y736441D01*
X739825Y729401D01*
X739825Y732696D02*
X731785Y732696D01*
X731785Y735991D02*
X739825Y735991D01*
X748785Y729401D02*
X756825Y729401D01*
X748785Y729401D02*
X748785Y736441D01*
X756825Y736441D01*
X756825Y729401D01*
X756825Y732696D02*
X748785Y732696D01*
X748785Y735991D02*
X756825Y735991D01*
D43*
X718688Y730829D02*
X718688Y728967D01*
X710326Y728967D01*
X710326Y730829D01*
X718688Y730829D01*
X718688Y738467D02*
X718688Y740329D01*
X718688Y738467D02*
X710326Y738467D01*
X710326Y740329D01*
X718688Y740329D01*
X718688Y747967D02*
X718688Y749829D01*
X718688Y747967D02*
X710326Y747967D01*
X710326Y749829D01*
X718688Y749829D01*
X692686Y749829D02*
X692686Y747967D01*
X684324Y747967D01*
X684324Y749829D01*
X692686Y749829D01*
X692686Y730829D02*
X692686Y728967D01*
X684324Y728967D01*
X684324Y730829D01*
X692686Y730829D01*
X684324Y738467D02*
X684324Y740329D01*
X692686Y740329D01*
X692686Y738467D01*
X684324Y738467D01*
D59*
X34500Y754750D02*
X26500Y754750D01*
X26500Y748250D02*
X34500Y748250D01*
X34500Y741750D02*
X26500Y741750D01*
X26500Y735250D02*
X34500Y735250D01*
X40250Y729500D02*
X40250Y721500D01*
X46750Y721500D02*
X46750Y729500D01*
X53250Y729500D02*
X53250Y721500D01*
X59750Y721500D02*
X59750Y729500D01*
X65500Y735250D02*
X73500Y735250D01*
X73500Y741750D02*
X65500Y741750D01*
X65500Y748250D02*
X73500Y748250D01*
X73500Y754750D02*
X65500Y754750D01*
X59750Y760500D02*
X59750Y768500D01*
X53250Y768500D02*
X53250Y760500D01*
X46750Y760500D02*
X46750Y768500D01*
X40250Y768500D02*
X40250Y760500D01*
D60*
X50000Y745000D03*
D25*
X342008Y811242D02*
X347992Y811242D01*
X347992Y809258D01*
X342008Y809258D01*
X342008Y811242D01*
X342008Y817742D02*
X347992Y817742D01*
X347992Y815758D01*
X342008Y815758D01*
X342008Y817742D01*
X342008Y824242D02*
X347992Y824242D01*
X347992Y822258D01*
X342008Y822258D01*
X342008Y824242D01*
X342008Y830742D02*
X347992Y830742D01*
X347992Y828758D01*
X342008Y828758D01*
X342008Y830742D01*
X317992Y830742D02*
X312008Y830742D01*
X317992Y830742D02*
X317992Y828758D01*
X312008Y828758D01*
X312008Y830742D01*
X312008Y824242D02*
X317992Y824242D01*
X317992Y822258D01*
X312008Y822258D01*
X312008Y824242D01*
X312008Y817742D02*
X317992Y817742D01*
X317992Y815758D01*
X312008Y815758D01*
X312008Y817742D01*
X312008Y811242D02*
X317992Y811242D01*
X317992Y809258D01*
X312008Y809258D01*
X312008Y811242D01*
D61*
X328742Y821258D02*
X331258Y821258D01*
X331258Y818742D01*
X328742Y818742D01*
X328742Y821258D01*
D62*
X219543Y101757D02*
X219543Y95083D01*
X219543Y101757D02*
X226217Y101757D01*
X226217Y95083D01*
X219543Y95083D01*
X219543Y97672D02*
X226217Y97672D01*
X226217Y100261D02*
X219543Y100261D01*
X219543Y86517D02*
X219543Y79843D01*
X219543Y86517D02*
X226217Y86517D01*
X226217Y79843D01*
X219543Y79843D01*
X219543Y82432D02*
X226217Y82432D01*
X226217Y85021D02*
X219543Y85021D01*
X827873Y138263D02*
X827873Y144937D01*
X834547Y144937D01*
X834547Y138263D01*
X827873Y138263D01*
X827873Y140852D02*
X834547Y140852D01*
X834547Y143441D02*
X827873Y143441D01*
X827873Y129697D02*
X827873Y123023D01*
X827873Y129697D02*
X834547Y129697D01*
X834547Y123023D01*
X827873Y123023D01*
X827873Y125612D02*
X834547Y125612D01*
X834547Y128201D02*
X827873Y128201D01*
D51*
X860308Y131462D02*
X860308Y123938D01*
X860308Y131462D02*
X865832Y131462D01*
X865832Y123938D01*
X860308Y123938D01*
X860308Y129623D02*
X865832Y129623D01*
X842308Y108462D02*
X842308Y100938D01*
X842308Y108462D02*
X847832Y108462D01*
X847832Y100938D01*
X842308Y100938D01*
X842308Y106623D02*
X847832Y106623D01*
X860308Y108462D02*
X860308Y100938D01*
X860308Y108462D02*
X865832Y108462D01*
X865832Y100938D01*
X860308Y100938D01*
X860308Y106623D02*
X865832Y106623D01*
X842308Y123938D02*
X842308Y131462D01*
X847832Y131462D01*
X847832Y123938D01*
X842308Y123938D01*
X842308Y129623D02*
X847832Y129623D01*
D62*
X834547Y94137D02*
X834547Y87463D01*
X827873Y87463D01*
X827873Y94137D01*
X834547Y94137D01*
X834547Y90052D02*
X827873Y90052D01*
X827873Y92641D02*
X834547Y92641D01*
X834547Y102703D02*
X834547Y109377D01*
X834547Y102703D02*
X827873Y102703D01*
X827873Y109377D01*
X834547Y109377D01*
X834547Y105292D02*
X827873Y105292D01*
X827873Y107881D02*
X834547Y107881D01*
X203357Y121753D02*
X196683Y121753D01*
X196683Y128427D01*
X203357Y128427D01*
X203357Y121753D01*
X203357Y124342D02*
X196683Y124342D01*
X196683Y126931D02*
X203357Y126931D01*
X211923Y121753D02*
X218597Y121753D01*
X211923Y121753D02*
X211923Y128427D01*
X218597Y128427D01*
X218597Y121753D01*
X218597Y124342D02*
X211923Y124342D01*
X211923Y126931D02*
X218597Y126931D01*
X203357Y134453D02*
X196683Y134453D01*
X196683Y141127D01*
X203357Y141127D01*
X203357Y134453D01*
X203357Y137042D02*
X196683Y137042D01*
X196683Y139631D02*
X203357Y139631D01*
X211923Y134453D02*
X218597Y134453D01*
X211923Y134453D02*
X211923Y141127D01*
X218597Y141127D01*
X218597Y134453D01*
X218597Y137042D02*
X211923Y137042D01*
X211923Y139631D02*
X218597Y139631D01*
X843113Y160177D02*
X849787Y160177D01*
X849787Y153503D01*
X843113Y153503D01*
X843113Y160177D01*
X843113Y156092D02*
X849787Y156092D01*
X849787Y158681D02*
X843113Y158681D01*
X834547Y160177D02*
X827873Y160177D01*
X834547Y160177D02*
X834547Y153503D01*
X827873Y153503D01*
X827873Y160177D01*
X827873Y156092D02*
X834547Y156092D01*
X834547Y158681D02*
X827873Y158681D01*
X698657Y80859D02*
X691983Y80859D01*
X691983Y87533D01*
X698657Y87533D01*
X698657Y80859D01*
X698657Y83448D02*
X691983Y83448D01*
X691983Y86037D02*
X698657Y86037D01*
X707223Y80859D02*
X713897Y80859D01*
X707223Y80859D02*
X707223Y87533D01*
X713897Y87533D01*
X713897Y80859D01*
X713897Y83448D02*
X707223Y83448D01*
X707223Y86037D02*
X713897Y86037D01*
X827873Y72223D02*
X834547Y72223D01*
X827873Y72223D02*
X827873Y78897D01*
X834547Y78897D01*
X834547Y72223D01*
X834547Y74812D02*
X827873Y74812D01*
X827873Y77401D02*
X834547Y77401D01*
X843113Y72223D02*
X849787Y72223D01*
X843113Y72223D02*
X843113Y78897D01*
X849787Y78897D01*
X849787Y72223D01*
X849787Y74812D02*
X843113Y74812D01*
X843113Y77401D02*
X849787Y77401D01*
D63*
X749469Y78331D02*
X749469Y84069D01*
X749469Y78331D02*
X748731Y78331D01*
X748731Y84069D01*
X749469Y84069D01*
X749469Y80963D02*
X748731Y80963D01*
X748731Y83595D02*
X749469Y83595D01*
X754469Y84069D02*
X754469Y78331D01*
X753731Y78331D01*
X753731Y84069D01*
X754469Y84069D01*
X754469Y80963D02*
X753731Y80963D01*
X753731Y83595D02*
X754469Y83595D01*
X759469Y84069D02*
X759469Y78331D01*
X758731Y78331D01*
X758731Y84069D01*
X759469Y84069D01*
X759469Y80963D02*
X758731Y80963D01*
X758731Y83595D02*
X759469Y83595D01*
X764469Y84069D02*
X764469Y78331D01*
X763731Y78331D01*
X763731Y84069D01*
X764469Y84069D01*
X764469Y80963D02*
X763731Y80963D01*
X763731Y83595D02*
X764469Y83595D01*
X769469Y84069D02*
X769469Y78331D01*
X768731Y78331D01*
X768731Y84069D01*
X769469Y84069D01*
X769469Y80963D02*
X768731Y80963D01*
X768731Y83595D02*
X769469Y83595D01*
X774469Y84069D02*
X774469Y78331D01*
X773731Y78331D01*
X773731Y84069D01*
X774469Y84069D01*
X774469Y80963D02*
X773731Y80963D01*
X773731Y83595D02*
X774469Y83595D01*
X779469Y84069D02*
X779469Y78331D01*
X778731Y78331D01*
X778731Y84069D01*
X779469Y84069D01*
X779469Y80963D02*
X778731Y80963D01*
X778731Y83595D02*
X779469Y83595D01*
X784469Y84069D02*
X784469Y78331D01*
X783731Y78331D01*
X783731Y84069D01*
X784469Y84069D01*
X784469Y80963D02*
X783731Y80963D01*
X783731Y83595D02*
X784469Y83595D01*
X789469Y84069D02*
X789469Y78331D01*
X788731Y78331D01*
X788731Y84069D01*
X789469Y84069D01*
X789469Y80963D02*
X788731Y80963D01*
X788731Y83595D02*
X789469Y83595D01*
X794469Y84069D02*
X794469Y78331D01*
X793731Y78331D01*
X793731Y84069D01*
X794469Y84069D01*
X794469Y80963D02*
X793731Y80963D01*
X793731Y83595D02*
X794469Y83595D01*
X799469Y84069D02*
X799469Y78331D01*
X798731Y78331D01*
X798731Y84069D01*
X799469Y84069D01*
X799469Y80963D02*
X798731Y80963D01*
X798731Y83595D02*
X799469Y83595D01*
X804469Y84069D02*
X804469Y78331D01*
X803731Y78331D01*
X803731Y84069D01*
X804469Y84069D01*
X804469Y80963D02*
X803731Y80963D01*
X803731Y83595D02*
X804469Y83595D01*
D64*
X803159Y142759D02*
X750041Y142759D01*
X803159Y142759D02*
X803159Y89641D01*
X750041Y89641D01*
X750041Y142759D01*
X750041Y92861D02*
X803159Y92861D01*
X803159Y96081D02*
X750041Y96081D01*
X750041Y99301D02*
X803159Y99301D01*
X803159Y102521D02*
X750041Y102521D01*
X750041Y105741D02*
X803159Y105741D01*
X803159Y108961D02*
X750041Y108961D01*
X750041Y112181D02*
X803159Y112181D01*
X803159Y115401D02*
X750041Y115401D01*
X750041Y118621D02*
X803159Y118621D01*
X803159Y121841D02*
X750041Y121841D01*
X750041Y125061D02*
X803159Y125061D01*
X803159Y128281D02*
X750041Y128281D01*
X750041Y131501D02*
X803159Y131501D01*
X803159Y134721D02*
X750041Y134721D01*
X750041Y137941D02*
X803159Y137941D01*
X803159Y141161D02*
X750041Y141161D01*
D63*
X808731Y89069D02*
X814469Y89069D01*
X814469Y88331D01*
X808731Y88331D01*
X808731Y89069D01*
X808731Y94069D02*
X814469Y94069D01*
X814469Y93331D01*
X808731Y93331D01*
X808731Y94069D01*
X808731Y99069D02*
X814469Y99069D01*
X814469Y98331D01*
X808731Y98331D01*
X808731Y99069D01*
X808731Y104069D02*
X814469Y104069D01*
X814469Y103331D01*
X808731Y103331D01*
X808731Y104069D01*
X808731Y109069D02*
X814469Y109069D01*
X814469Y108331D01*
X808731Y108331D01*
X808731Y109069D01*
X808731Y114069D02*
X814469Y114069D01*
X814469Y113331D01*
X808731Y113331D01*
X808731Y114069D01*
X808731Y119069D02*
X814469Y119069D01*
X814469Y118331D01*
X808731Y118331D01*
X808731Y119069D01*
X808731Y124069D02*
X814469Y124069D01*
X814469Y123331D01*
X808731Y123331D01*
X808731Y124069D01*
X808731Y129069D02*
X814469Y129069D01*
X814469Y128331D01*
X808731Y128331D01*
X808731Y129069D01*
X808731Y134069D02*
X814469Y134069D01*
X814469Y133331D01*
X808731Y133331D01*
X808731Y134069D01*
X808731Y139069D02*
X814469Y139069D01*
X814469Y138331D01*
X808731Y138331D01*
X808731Y139069D01*
X808731Y144069D02*
X814469Y144069D01*
X814469Y143331D01*
X808731Y143331D01*
X808731Y144069D01*
X803731Y148331D02*
X803731Y154069D01*
X804469Y154069D01*
X804469Y148331D01*
X803731Y148331D01*
X803731Y150963D02*
X804469Y150963D01*
X804469Y153595D02*
X803731Y153595D01*
X798731Y154069D02*
X798731Y148331D01*
X798731Y154069D02*
X799469Y154069D01*
X799469Y148331D01*
X798731Y148331D01*
X798731Y150963D02*
X799469Y150963D01*
X799469Y153595D02*
X798731Y153595D01*
X793731Y154069D02*
X793731Y148331D01*
X793731Y154069D02*
X794469Y154069D01*
X794469Y148331D01*
X793731Y148331D01*
X793731Y150963D02*
X794469Y150963D01*
X794469Y153595D02*
X793731Y153595D01*
X788731Y154069D02*
X788731Y148331D01*
X788731Y154069D02*
X789469Y154069D01*
X789469Y148331D01*
X788731Y148331D01*
X788731Y150963D02*
X789469Y150963D01*
X789469Y153595D02*
X788731Y153595D01*
X783731Y154069D02*
X783731Y148331D01*
X783731Y154069D02*
X784469Y154069D01*
X784469Y148331D01*
X783731Y148331D01*
X783731Y150963D02*
X784469Y150963D01*
X784469Y153595D02*
X783731Y153595D01*
X778731Y154069D02*
X778731Y148331D01*
X778731Y154069D02*
X779469Y154069D01*
X779469Y148331D01*
X778731Y148331D01*
X778731Y150963D02*
X779469Y150963D01*
X779469Y153595D02*
X778731Y153595D01*
X773731Y154069D02*
X773731Y148331D01*
X773731Y154069D02*
X774469Y154069D01*
X774469Y148331D01*
X773731Y148331D01*
X773731Y150963D02*
X774469Y150963D01*
X774469Y153595D02*
X773731Y153595D01*
X768731Y154069D02*
X768731Y148331D01*
X768731Y154069D02*
X769469Y154069D01*
X769469Y148331D01*
X768731Y148331D01*
X768731Y150963D02*
X769469Y150963D01*
X769469Y153595D02*
X768731Y153595D01*
X763731Y154069D02*
X763731Y148331D01*
X763731Y154069D02*
X764469Y154069D01*
X764469Y148331D01*
X763731Y148331D01*
X763731Y150963D02*
X764469Y150963D01*
X764469Y153595D02*
X763731Y153595D01*
X758731Y154069D02*
X758731Y148331D01*
X758731Y154069D02*
X759469Y154069D01*
X759469Y148331D01*
X758731Y148331D01*
X758731Y150963D02*
X759469Y150963D01*
X759469Y153595D02*
X758731Y153595D01*
X753731Y154069D02*
X753731Y148331D01*
X753731Y154069D02*
X754469Y154069D01*
X754469Y148331D01*
X753731Y148331D01*
X753731Y150963D02*
X754469Y150963D01*
X754469Y153595D02*
X753731Y153595D01*
X748731Y154069D02*
X748731Y148331D01*
X748731Y154069D02*
X749469Y154069D01*
X749469Y148331D01*
X748731Y148331D01*
X748731Y150963D02*
X749469Y150963D01*
X749469Y153595D02*
X748731Y153595D01*
X744469Y143331D02*
X738731Y143331D01*
X738731Y144069D01*
X744469Y144069D01*
X744469Y143331D01*
X744469Y138331D02*
X738731Y138331D01*
X738731Y139069D01*
X744469Y139069D01*
X744469Y138331D01*
X744469Y133331D02*
X738731Y133331D01*
X738731Y134069D01*
X744469Y134069D01*
X744469Y133331D01*
X744469Y128331D02*
X738731Y128331D01*
X738731Y129069D01*
X744469Y129069D01*
X744469Y128331D01*
X744469Y123331D02*
X738731Y123331D01*
X738731Y124069D01*
X744469Y124069D01*
X744469Y123331D01*
X744469Y118331D02*
X738731Y118331D01*
X738731Y119069D01*
X744469Y119069D01*
X744469Y118331D01*
X744469Y113331D02*
X738731Y113331D01*
X738731Y114069D01*
X744469Y114069D01*
X744469Y113331D01*
X744469Y108331D02*
X738731Y108331D01*
X738731Y109069D01*
X744469Y109069D01*
X744469Y108331D01*
X744469Y103331D02*
X738731Y103331D01*
X738731Y104069D01*
X744469Y104069D01*
X744469Y103331D01*
X744469Y98331D02*
X738731Y98331D01*
X738731Y99069D01*
X744469Y99069D01*
X744469Y98331D01*
X744469Y93331D02*
X738731Y93331D01*
X738731Y94069D01*
X744469Y94069D01*
X744469Y93331D01*
X744469Y88331D02*
X738731Y88331D01*
X738731Y89069D01*
X744469Y89069D01*
X744469Y88331D01*
X437959Y102281D02*
X437959Y105819D01*
X437959Y102281D02*
X437221Y102281D01*
X437221Y105819D01*
X437959Y105819D01*
X437959Y104913D02*
X437221Y104913D01*
X442959Y105819D02*
X442959Y102281D01*
X442221Y102281D01*
X442221Y105819D01*
X442959Y105819D01*
X442959Y104913D02*
X442221Y104913D01*
X447959Y105819D02*
X447959Y102281D01*
X447221Y102281D01*
X447221Y105819D01*
X447959Y105819D01*
X447959Y104913D02*
X447221Y104913D01*
X452971Y109069D02*
X456509Y109069D01*
X456509Y108331D01*
X452971Y108331D01*
X452971Y109069D01*
X452971Y114069D02*
X456509Y114069D01*
X456509Y113331D01*
X452971Y113331D01*
X452971Y114069D01*
X452971Y119069D02*
X456509Y119069D01*
X456509Y118331D01*
X452971Y118331D01*
X452971Y119069D01*
X452971Y124069D02*
X456509Y124069D01*
X456509Y123331D01*
X452971Y123331D01*
X452971Y124069D01*
X447221Y126581D02*
X447221Y130119D01*
X447959Y130119D01*
X447959Y126581D01*
X447221Y126581D01*
X447221Y129213D02*
X447959Y129213D01*
X442221Y130119D02*
X442221Y126581D01*
X442221Y130119D02*
X442959Y130119D01*
X442959Y126581D01*
X442221Y126581D01*
X442221Y129213D02*
X442959Y129213D01*
X437221Y130119D02*
X437221Y126581D01*
X437221Y130119D02*
X437959Y130119D01*
X437959Y126581D01*
X437221Y126581D01*
X437221Y129213D02*
X437959Y129213D01*
X432209Y123331D02*
X428671Y123331D01*
X428671Y124069D01*
X432209Y124069D01*
X432209Y123331D01*
X432209Y118331D02*
X428671Y118331D01*
X428671Y119069D01*
X432209Y119069D01*
X432209Y118331D01*
X432209Y113331D02*
X428671Y113331D01*
X428671Y114069D01*
X432209Y114069D01*
X432209Y113331D01*
X432209Y108331D02*
X428671Y108331D01*
X428671Y109069D01*
X432209Y109069D01*
X432209Y108331D01*
D65*
X448368Y110422D02*
X448368Y121978D01*
X448368Y110422D02*
X436812Y110422D01*
X436812Y121978D01*
X448368Y121978D01*
X448368Y113701D02*
X436812Y113701D01*
X436812Y116980D02*
X448368Y116980D01*
X448368Y120259D02*
X436812Y120259D01*
D66*
X113800Y109180D02*
X113800Y108220D01*
X113800Y109180D02*
X121960Y109180D01*
X121960Y108220D01*
X113800Y108220D01*
X113800Y113220D02*
X113800Y114180D01*
X121960Y114180D01*
X121960Y113220D01*
X113800Y113220D01*
D67*
X114733Y84897D02*
X114733Y83003D01*
X114733Y84897D02*
X121027Y84897D01*
X121027Y83003D01*
X114733Y83003D01*
X114733Y90753D02*
X114733Y92647D01*
X121027Y92647D01*
X121027Y90753D01*
X114733Y90753D01*
D66*
X113800Y98220D02*
X113800Y99180D01*
X121960Y99180D01*
X121960Y98220D01*
X113800Y98220D01*
X113800Y103220D02*
X113800Y104180D01*
X121960Y104180D01*
X121960Y103220D01*
X113800Y103220D01*
X121960Y123220D02*
X121960Y124180D01*
X121960Y123220D02*
X113800Y123220D01*
X113800Y124180D01*
X121960Y124180D01*
X121960Y119180D02*
X121960Y118220D01*
X113800Y118220D01*
X113800Y119180D01*
X121960Y119180D01*
D67*
X121027Y147503D02*
X121027Y149397D01*
X121027Y147503D02*
X114733Y147503D01*
X114733Y149397D01*
X121027Y149397D01*
X121027Y141647D02*
X121027Y139753D01*
X114733Y139753D01*
X114733Y141647D01*
X121027Y141647D01*
D66*
X121960Y134180D02*
X121960Y133220D01*
X113800Y133220D01*
X113800Y134180D01*
X121960Y134180D01*
X121960Y129180D02*
X121960Y128220D01*
X113800Y128220D01*
X113800Y129180D01*
X121960Y129180D01*
D68*
X106830Y145100D03*
X106830Y87300D03*
D62*
X484973Y141127D02*
X491647Y141127D01*
X491647Y134453D01*
X484973Y134453D01*
X484973Y141127D01*
X484973Y137042D02*
X491647Y137042D01*
X491647Y139631D02*
X484973Y139631D01*
X476407Y141127D02*
X469733Y141127D01*
X476407Y141127D02*
X476407Y134453D01*
X469733Y134453D01*
X469733Y141127D01*
X469733Y137042D02*
X476407Y137042D01*
X476407Y139631D02*
X469733Y139631D01*
X484973Y128427D02*
X491647Y128427D01*
X491647Y121753D01*
X484973Y121753D01*
X484973Y128427D01*
X484973Y124342D02*
X491647Y124342D01*
X491647Y126931D02*
X484973Y126931D01*
X476407Y128427D02*
X469733Y128427D01*
X476407Y128427D02*
X476407Y121753D01*
X469733Y121753D01*
X469733Y128427D01*
X469733Y124342D02*
X476407Y124342D01*
X476407Y126931D02*
X469733Y126931D01*
X484973Y115727D02*
X491647Y115727D01*
X491647Y109053D01*
X484973Y109053D01*
X484973Y115727D01*
X484973Y111642D02*
X491647Y111642D01*
X491647Y114231D02*
X484973Y114231D01*
X476407Y115727D02*
X469733Y115727D01*
X476407Y115727D02*
X476407Y109053D01*
X469733Y109053D01*
X469733Y115727D01*
X469733Y111642D02*
X476407Y111642D01*
X476407Y114231D02*
X469733Y114231D01*
X468463Y97947D02*
X468463Y91273D01*
X468463Y97947D02*
X475137Y97947D01*
X475137Y91273D01*
X468463Y91273D01*
X468463Y93862D02*
X475137Y93862D01*
X475137Y96451D02*
X468463Y96451D01*
X468463Y82707D02*
X468463Y76033D01*
X468463Y82707D02*
X475137Y82707D01*
X475137Y76033D01*
X468463Y76033D01*
X468463Y78622D02*
X475137Y78622D01*
X475137Y81211D02*
X468463Y81211D01*
X486243Y91273D02*
X486243Y97947D01*
X492917Y97947D01*
X492917Y91273D01*
X486243Y91273D01*
X486243Y93862D02*
X492917Y93862D01*
X492917Y96451D02*
X486243Y96451D01*
X486243Y82707D02*
X486243Y76033D01*
X486243Y82707D02*
X492917Y82707D01*
X492917Y76033D01*
X486243Y76033D01*
X486243Y78622D02*
X492917Y78622D01*
X492917Y81211D02*
X486243Y81211D01*
X408773Y105243D02*
X408773Y111917D01*
X415447Y111917D01*
X415447Y105243D01*
X408773Y105243D01*
X408773Y107832D02*
X415447Y107832D01*
X415447Y110421D02*
X408773Y110421D01*
X408773Y96677D02*
X408773Y90003D01*
X408773Y96677D02*
X415447Y96677D01*
X415447Y90003D01*
X408773Y90003D01*
X408773Y92592D02*
X415447Y92592D01*
X415447Y95181D02*
X408773Y95181D01*
X415447Y117943D02*
X415447Y124617D01*
X415447Y117943D02*
X408773Y117943D01*
X408773Y124617D01*
X415447Y124617D01*
X415447Y120532D02*
X408773Y120532D01*
X408773Y123121D02*
X415447Y123121D01*
X415447Y133183D02*
X415447Y139857D01*
X415447Y133183D02*
X408773Y133183D01*
X408773Y139857D01*
X415447Y139857D01*
X415447Y135772D02*
X408773Y135772D01*
X408773Y138361D02*
X415447Y138361D01*
X650073Y101757D02*
X656747Y101757D01*
X656747Y95083D01*
X650073Y95083D01*
X650073Y101757D01*
X650073Y97672D02*
X656747Y97672D01*
X656747Y100261D02*
X650073Y100261D01*
X641507Y101757D02*
X634833Y101757D01*
X641507Y101757D02*
X641507Y95083D01*
X634833Y95083D01*
X634833Y101757D01*
X634833Y97672D02*
X641507Y97672D01*
X641507Y100261D02*
X634833Y100261D01*
X543393Y129373D02*
X543393Y136047D01*
X550067Y136047D01*
X550067Y129373D01*
X543393Y129373D01*
X543393Y131962D02*
X550067Y131962D01*
X550067Y134551D02*
X543393Y134551D01*
X543393Y120807D02*
X543393Y114133D01*
X543393Y120807D02*
X550067Y120807D01*
X550067Y114133D01*
X543393Y114133D01*
X543393Y116722D02*
X550067Y116722D01*
X550067Y119311D02*
X543393Y119311D01*
X616107Y120807D02*
X616107Y114133D01*
X609433Y114133D01*
X609433Y120807D01*
X616107Y120807D01*
X616107Y116722D02*
X609433Y116722D01*
X609433Y119311D02*
X616107Y119311D01*
X616107Y129373D02*
X616107Y136047D01*
X616107Y129373D02*
X609433Y129373D01*
X609433Y136047D01*
X616107Y136047D01*
X616107Y131962D02*
X609433Y131962D01*
X609433Y134551D02*
X616107Y134551D01*
X631347Y120807D02*
X631347Y114133D01*
X624673Y114133D01*
X624673Y120807D01*
X631347Y120807D01*
X631347Y116722D02*
X624673Y116722D01*
X624673Y119311D02*
X631347Y119311D01*
X631347Y129373D02*
X631347Y136047D01*
X631347Y129373D02*
X624673Y129373D01*
X624673Y136047D01*
X631347Y136047D01*
X631347Y131962D02*
X624673Y131962D01*
X624673Y134551D02*
X631347Y134551D01*
D43*
X556218Y133659D02*
X556218Y135521D01*
X564580Y135521D01*
X564580Y133659D01*
X556218Y133659D01*
X556218Y126021D02*
X556218Y124159D01*
X556218Y126021D02*
X564580Y126021D01*
X564580Y124159D01*
X556218Y124159D01*
X556218Y116521D02*
X556218Y114659D01*
X556218Y116521D02*
X564580Y116521D01*
X564580Y114659D01*
X556218Y114659D01*
X582220Y114659D02*
X582220Y116521D01*
X590582Y116521D01*
X590582Y114659D01*
X582220Y114659D01*
X582220Y133659D02*
X582220Y135521D01*
X590582Y135521D01*
X590582Y133659D01*
X582220Y133659D01*
X590582Y126021D02*
X590582Y124159D01*
X582220Y124159D01*
X582220Y126021D01*
X590582Y126021D01*
D69*
X514368Y128923D02*
X514368Y136497D01*
X525752Y136497D01*
X525752Y128923D01*
X514368Y128923D01*
X514368Y131862D02*
X525752Y131862D01*
X525752Y134801D02*
X514368Y134801D01*
X514368Y118717D02*
X514368Y111143D01*
X514368Y118717D02*
X525752Y118717D01*
X525752Y111143D01*
X514368Y111143D01*
X514368Y114082D02*
X525752Y114082D01*
X525752Y117021D02*
X514368Y117021D01*
D62*
X203357Y109053D02*
X196683Y109053D01*
X196683Y115727D01*
X203357Y115727D01*
X203357Y109053D01*
X203357Y111642D02*
X196683Y111642D01*
X196683Y114231D02*
X203357Y114231D01*
X211923Y109053D02*
X218597Y109053D01*
X211923Y109053D02*
X211923Y115727D01*
X218597Y115727D01*
X218597Y109053D01*
X218597Y111642D02*
X211923Y111642D01*
X211923Y114231D02*
X218597Y114231D01*
X203357Y147153D02*
X196683Y147153D01*
X196683Y153827D01*
X203357Y153827D01*
X203357Y147153D01*
X203357Y149742D02*
X196683Y149742D01*
X196683Y152331D02*
X203357Y152331D01*
X211923Y147153D02*
X218597Y147153D01*
X211923Y147153D02*
X211923Y153827D01*
X218597Y153827D01*
X218597Y147153D01*
X218597Y149742D02*
X211923Y149742D01*
X211923Y152331D02*
X218597Y152331D01*
X500213Y97947D02*
X500213Y91273D01*
X500213Y97947D02*
X506887Y97947D01*
X506887Y91273D01*
X500213Y91273D01*
X500213Y93862D02*
X506887Y93862D01*
X506887Y96451D02*
X500213Y96451D01*
X500213Y82707D02*
X500213Y76033D01*
X500213Y82707D02*
X506887Y82707D01*
X506887Y76033D01*
X500213Y76033D01*
X500213Y78622D02*
X506887Y78622D01*
X506887Y81211D02*
X500213Y81211D01*
D70*
X552169Y103981D02*
X559211Y103981D01*
X559211Y97939D01*
X552169Y97939D01*
X552169Y103981D01*
X552169Y100283D02*
X559211Y100283D01*
X559211Y102627D02*
X552169Y102627D01*
X536211Y103981D02*
X529169Y103981D01*
X536211Y103981D02*
X536211Y97939D01*
X529169Y97939D01*
X529169Y103981D01*
X529169Y100283D02*
X536211Y100283D01*
X536211Y102627D02*
X529169Y102627D01*
D69*
X549293Y83792D02*
X556867Y83792D01*
X556867Y72408D01*
X549293Y72408D01*
X549293Y83792D01*
X549293Y75347D02*
X556867Y75347D01*
X556867Y78286D02*
X549293Y78286D01*
X549293Y81225D02*
X556867Y81225D01*
X539087Y83792D02*
X531513Y83792D01*
X539087Y83792D02*
X539087Y72408D01*
X531513Y72408D01*
X531513Y83792D01*
X531513Y75347D02*
X539087Y75347D01*
X539087Y78286D02*
X531513Y78286D01*
X531513Y81225D02*
X539087Y81225D01*
D62*
X596733Y109053D02*
X596733Y115727D01*
X603407Y115727D01*
X603407Y109053D01*
X596733Y109053D01*
X596733Y111642D02*
X603407Y111642D01*
X603407Y114231D02*
X596733Y114231D01*
X596733Y100487D02*
X596733Y93813D01*
X596733Y100487D02*
X603407Y100487D01*
X603407Y93813D01*
X596733Y93813D01*
X596733Y96402D02*
X603407Y96402D01*
X603407Y98991D02*
X596733Y98991D01*
D71*
X565157Y79313D02*
X565157Y72707D01*
X565157Y79313D02*
X589263Y79313D01*
X589263Y72707D01*
X565157Y72707D01*
X565157Y75940D02*
X589263Y75940D01*
X589263Y79173D02*
X565157Y79173D01*
X589263Y97207D02*
X589263Y103813D01*
X589263Y97207D02*
X565157Y97207D01*
X565157Y103813D01*
X589263Y103813D01*
X589263Y100440D02*
X565157Y100440D01*
X565157Y103673D02*
X589263Y103673D01*
D72*
X163883Y82053D02*
X163883Y71607D01*
X153437Y71607D01*
X153437Y82053D01*
X163883Y82053D01*
X163883Y75466D02*
X153437Y75466D01*
X153437Y79325D02*
X163883Y79325D01*
X200883Y82053D02*
X200883Y71607D01*
X190437Y71607D01*
X190437Y82053D01*
X200883Y82053D01*
X200883Y75466D02*
X190437Y75466D01*
X190437Y79325D02*
X200883Y79325D01*
X163883Y88117D02*
X163883Y98563D01*
X163883Y88117D02*
X153437Y88117D01*
X153437Y98563D01*
X163883Y98563D01*
X163883Y91976D02*
X153437Y91976D01*
X153437Y95835D02*
X163883Y95835D01*
X200883Y98563D02*
X200883Y88117D01*
X190437Y88117D01*
X190437Y98563D01*
X200883Y98563D01*
X200883Y91976D02*
X190437Y91976D01*
X190437Y95835D02*
X200883Y95835D01*
D73*
X166826Y105334D02*
X166826Y111826D01*
X166826Y105334D02*
X162334Y105334D01*
X162334Y111826D01*
X166826Y111826D01*
X166826Y107250D02*
X162334Y107250D01*
X162334Y109166D02*
X166826Y109166D01*
X166826Y111082D02*
X162334Y111082D01*
X181826Y111826D02*
X181826Y105334D01*
X177334Y105334D01*
X177334Y111826D01*
X181826Y111826D01*
X181826Y107250D02*
X177334Y107250D01*
X177334Y109166D02*
X181826Y109166D01*
X181826Y111082D02*
X177334Y111082D01*
X177334Y153594D02*
X177334Y160086D01*
X181826Y160086D01*
X181826Y153594D01*
X177334Y153594D01*
X177334Y155510D02*
X181826Y155510D01*
X181826Y157426D02*
X177334Y157426D01*
X177334Y159342D02*
X181826Y159342D01*
X162334Y160086D02*
X162334Y153594D01*
X162334Y160086D02*
X166826Y160086D01*
X166826Y153594D01*
X162334Y153594D01*
X162334Y155510D02*
X166826Y155510D01*
X166826Y157426D02*
X162334Y157426D01*
X162334Y159342D02*
X166826Y159342D01*
D70*
X515769Y103281D02*
X515769Y96239D01*
X515769Y103281D02*
X521811Y103281D01*
X521811Y96239D01*
X515769Y96239D01*
X515769Y98583D02*
X521811Y98583D01*
X521811Y100927D02*
X515769Y100927D01*
X515769Y103271D02*
X521811Y103271D01*
X515769Y80281D02*
X515769Y73239D01*
X515769Y80281D02*
X521811Y80281D01*
X521811Y73239D01*
X515769Y73239D01*
X515769Y75583D02*
X521811Y75583D01*
X521811Y77927D02*
X515769Y77927D01*
X515769Y80271D02*
X521811Y80271D01*
D62*
X627157Y78897D02*
X627157Y72223D01*
X620483Y72223D01*
X620483Y78897D01*
X627157Y78897D01*
X627157Y74812D02*
X620483Y74812D01*
X620483Y77401D02*
X627157Y77401D01*
X643157Y78897D02*
X643157Y72223D01*
X636483Y72223D01*
X636483Y78897D01*
X643157Y78897D01*
X643157Y74812D02*
X636483Y74812D01*
X636483Y77401D02*
X643157Y77401D01*
D43*
X189262Y121009D02*
X189262Y122871D01*
X189262Y121009D02*
X180900Y121009D01*
X180900Y122871D01*
X189262Y122871D01*
X189262Y130509D02*
X189262Y132371D01*
X189262Y130509D02*
X180900Y130509D01*
X180900Y132371D01*
X189262Y132371D01*
X189262Y140009D02*
X189262Y141871D01*
X189262Y140009D02*
X180900Y140009D01*
X180900Y141871D01*
X189262Y141871D01*
X163260Y141871D02*
X163260Y140009D01*
X154898Y140009D01*
X154898Y141871D01*
X163260Y141871D01*
X163260Y122871D02*
X163260Y121009D01*
X154898Y121009D01*
X154898Y122871D01*
X163260Y122871D01*
X154898Y130509D02*
X154898Y132371D01*
X163260Y132371D01*
X163260Y130509D01*
X154898Y130509D01*
D66*
X671750Y104780D02*
X671750Y99620D01*
X670790Y99620D01*
X670790Y104780D01*
X671750Y104780D01*
X671750Y101852D02*
X670790Y101852D01*
X670790Y104084D02*
X671750Y104084D01*
X666750Y104780D02*
X666750Y99620D01*
X665790Y99620D01*
X665790Y104780D01*
X666750Y104780D01*
X666750Y101852D02*
X665790Y101852D01*
X665790Y104084D02*
X666750Y104084D01*
X676750Y104780D02*
X676750Y99620D01*
X675790Y99620D01*
X675790Y104780D01*
X676750Y104780D01*
X676750Y101852D02*
X675790Y101852D01*
X675790Y104084D02*
X676750Y104084D01*
X681750Y104780D02*
X681750Y99620D01*
X680790Y99620D01*
X680790Y104780D01*
X681750Y104780D01*
X681750Y101852D02*
X680790Y101852D01*
X680790Y104084D02*
X681750Y104084D01*
X686750Y104780D02*
X686750Y99620D01*
X685790Y99620D01*
X685790Y104780D01*
X686750Y104780D01*
X686750Y101852D02*
X685790Y101852D01*
X685790Y104084D02*
X686750Y104084D01*
X680790Y127620D02*
X680790Y132780D01*
X681750Y132780D01*
X681750Y127620D01*
X680790Y127620D01*
X680790Y129852D02*
X681750Y129852D01*
X681750Y132084D02*
X680790Y132084D01*
X686750Y132780D02*
X686750Y127620D01*
X685790Y127620D01*
X685790Y132780D01*
X686750Y132780D01*
X686750Y129852D02*
X685790Y129852D01*
X685790Y132084D02*
X686750Y132084D01*
X675790Y132780D02*
X675790Y127620D01*
X675790Y132780D02*
X676750Y132780D01*
X676750Y127620D01*
X675790Y127620D01*
X675790Y129852D02*
X676750Y129852D01*
X676750Y132084D02*
X675790Y132084D01*
X670790Y132780D02*
X670790Y127620D01*
X670790Y132780D02*
X671750Y132780D01*
X671750Y127620D01*
X670790Y127620D01*
X670790Y129852D02*
X671750Y129852D01*
X671750Y132084D02*
X670790Y132084D01*
X666750Y132780D02*
X666750Y127620D01*
X665790Y127620D01*
X665790Y132780D01*
X666750Y132780D01*
X666750Y129852D02*
X665790Y129852D01*
X665790Y132084D02*
X666750Y132084D01*
X687690Y111680D02*
X692850Y111680D01*
X692850Y110720D01*
X687690Y110720D01*
X687690Y111680D01*
X687690Y116680D02*
X692850Y116680D01*
X692850Y115720D01*
X687690Y115720D01*
X687690Y116680D01*
X687690Y121680D02*
X692850Y121680D01*
X692850Y120720D01*
X687690Y120720D01*
X687690Y121680D01*
X664850Y120720D02*
X659690Y120720D01*
X659690Y121680D01*
X664850Y121680D01*
X664850Y120720D01*
X664850Y115720D02*
X659690Y115720D01*
X659690Y116680D01*
X664850Y116680D01*
X664850Y115720D01*
X664850Y110720D02*
X659690Y110720D01*
X659690Y111680D01*
X664850Y111680D01*
X664850Y110720D01*
D62*
X637373Y124293D02*
X637373Y130967D01*
X644047Y130967D01*
X644047Y124293D01*
X637373Y124293D01*
X637373Y126882D02*
X644047Y126882D01*
X644047Y129471D02*
X637373Y129471D01*
X637373Y115727D02*
X637373Y109053D01*
X637373Y115727D02*
X644047Y115727D01*
X644047Y109053D01*
X637373Y109053D01*
X637373Y111642D02*
X644047Y111642D01*
X644047Y114231D02*
X637373Y114231D01*
D70*
X304055Y136039D02*
X297013Y136039D01*
X297013Y142081D01*
X304055Y142081D01*
X304055Y136039D01*
X304055Y138383D02*
X297013Y138383D01*
X297013Y140727D02*
X304055Y140727D01*
X320013Y136039D02*
X327055Y136039D01*
X320013Y136039D02*
X320013Y142081D01*
X327055Y142081D01*
X327055Y136039D01*
X327055Y138383D02*
X320013Y138383D01*
X320013Y140727D02*
X327055Y140727D01*
D74*
X250494Y130496D02*
X238446Y130496D01*
X238446Y142544D01*
X250494Y142544D01*
X250494Y130496D01*
X250494Y134729D02*
X238446Y134729D01*
X238446Y138962D02*
X250494Y138962D01*
X278832Y130496D02*
X290880Y130496D01*
X278832Y130496D02*
X278832Y142544D01*
X290880Y142544D01*
X290880Y130496D01*
X290880Y134729D02*
X278832Y134729D01*
X278832Y138962D02*
X290880Y138962D01*
X250494Y89856D02*
X238446Y89856D01*
X238446Y101904D01*
X250494Y101904D01*
X250494Y89856D01*
X250494Y94089D02*
X238446Y94089D01*
X238446Y98322D02*
X250494Y98322D01*
X278832Y89856D02*
X290880Y89856D01*
X278832Y89856D02*
X278832Y101904D01*
X290880Y101904D01*
X290880Y89856D01*
X290880Y94089D02*
X278832Y94089D01*
X278832Y98322D02*
X290880Y98322D01*
X333188Y130496D02*
X345236Y130496D01*
X333188Y130496D02*
X333188Y142544D01*
X345236Y142544D01*
X345236Y130496D01*
X345236Y134729D02*
X333188Y134729D01*
X333188Y138962D02*
X345236Y138962D01*
X345236Y89856D02*
X333188Y89856D01*
X333188Y101904D01*
X345236Y101904D01*
X345236Y89856D01*
X345236Y94089D02*
X333188Y94089D01*
X333188Y98322D02*
X345236Y98322D01*
X373828Y130496D02*
X385876Y130496D01*
X373828Y130496D02*
X373828Y142544D01*
X385876Y142544D01*
X385876Y130496D01*
X385876Y134729D02*
X373828Y134729D01*
X373828Y138962D02*
X385876Y138962D01*
X385876Y89856D02*
X373828Y89856D01*
X373828Y101904D01*
X385876Y101904D01*
X385876Y89856D01*
X385876Y94089D02*
X373828Y94089D01*
X373828Y98322D02*
X385876Y98322D01*
X926786Y89856D02*
X938834Y89856D01*
X926786Y89856D02*
X926786Y101904D01*
X938834Y101904D01*
X938834Y89856D01*
X938834Y94089D02*
X926786Y94089D01*
X926786Y98322D02*
X938834Y98322D01*
X898194Y130496D02*
X886146Y130496D01*
X886146Y142544D01*
X898194Y142544D01*
X898194Y130496D01*
X898194Y134729D02*
X886146Y134729D01*
X886146Y138962D02*
X898194Y138962D01*
X898194Y89856D02*
X886146Y89856D01*
X886146Y101904D01*
X898194Y101904D01*
X898194Y89856D01*
X898194Y94089D02*
X886146Y94089D01*
X886146Y98322D02*
X898194Y98322D01*
X926786Y130496D02*
X938834Y130496D01*
X926786Y130496D02*
X926786Y142544D01*
X938834Y142544D01*
X938834Y130496D01*
X938834Y134729D02*
X926786Y134729D01*
X926786Y138962D02*
X938834Y138962D01*
D62*
X454873Y82707D02*
X454873Y76033D01*
X454873Y82707D02*
X461547Y82707D01*
X461547Y76033D01*
X454873Y76033D01*
X454873Y78622D02*
X461547Y78622D01*
X461547Y81211D02*
X454873Y81211D01*
X438873Y82707D02*
X438873Y76033D01*
X438873Y82707D02*
X445547Y82707D01*
X445547Y76033D01*
X438873Y76033D01*
X438873Y78622D02*
X445547Y78622D01*
X445547Y81211D02*
X438873Y81211D01*
X699603Y99853D02*
X706277Y99853D01*
X706277Y93179D01*
X699603Y93179D01*
X699603Y99853D01*
X699603Y95768D02*
X706277Y95768D01*
X706277Y98357D02*
X699603Y98357D01*
X699603Y115853D02*
X706277Y115853D01*
X706277Y109179D01*
X699603Y109179D01*
X699603Y115853D01*
X699603Y111768D02*
X706277Y111768D01*
X706277Y114357D02*
X699603Y114357D01*
X429417Y87843D02*
X422743Y87843D01*
X422743Y94517D01*
X429417Y94517D01*
X429417Y87843D01*
X429417Y90432D02*
X422743Y90432D01*
X422743Y93021D02*
X429417Y93021D01*
X429417Y71843D02*
X422743Y71843D01*
X422743Y78517D01*
X429417Y78517D01*
X429417Y71843D01*
X429417Y74432D02*
X422743Y74432D01*
X422743Y77021D02*
X429417Y77021D01*
X663027Y74509D02*
X669701Y74509D01*
X663027Y74509D02*
X663027Y81183D01*
X669701Y81183D01*
X669701Y74509D01*
X669701Y77098D02*
X663027Y77098D01*
X663027Y79687D02*
X669701Y79687D01*
X678267Y74509D02*
X684941Y74509D01*
X678267Y74509D02*
X678267Y81183D01*
X684941Y81183D01*
X684941Y74509D01*
X684941Y77098D02*
X678267Y77098D01*
X678267Y79687D02*
X684941Y79687D01*
D75*
X239140Y116200D03*
X289940Y116200D03*
X334140Y116200D03*
X384940Y116200D03*
X887090Y116200D03*
X937890Y116200D03*
D62*
X729137Y162717D02*
X722463Y162717D01*
X729137Y162717D02*
X729137Y156043D01*
X722463Y156043D01*
X722463Y162717D01*
X722463Y158632D02*
X729137Y158632D01*
X729137Y161221D02*
X722463Y161221D01*
X713897Y162717D02*
X707223Y162717D01*
X713897Y162717D02*
X713897Y156043D01*
X707223Y156043D01*
X707223Y162717D01*
X707223Y158632D02*
X713897Y158632D01*
X713897Y161221D02*
X707223Y161221D01*
X626267Y92867D02*
X626267Y86193D01*
X619593Y86193D01*
X619593Y92867D01*
X626267Y92867D01*
X626267Y88782D02*
X619593Y88782D01*
X619593Y91371D02*
X626267Y91371D01*
X626267Y101433D02*
X626267Y108107D01*
X626267Y101433D02*
X619593Y101433D01*
X619593Y108107D01*
X626267Y108107D01*
X626267Y104022D02*
X619593Y104022D01*
X619593Y106611D02*
X626267Y106611D01*
X307751Y90003D02*
X301077Y90003D01*
X301077Y96677D01*
X307751Y96677D01*
X307751Y90003D01*
X307751Y92592D02*
X301077Y92592D01*
X301077Y95181D02*
X307751Y95181D01*
X316317Y90003D02*
X322991Y90003D01*
X316317Y90003D02*
X316317Y96677D01*
X322991Y96677D01*
X322991Y90003D01*
X322991Y92592D02*
X316317Y92592D01*
X316317Y95181D02*
X322991Y95181D01*
D76*
X884550Y156840D03*
D62*
X156887Y322223D02*
X156887Y328897D01*
X156887Y322223D02*
X150213Y322223D01*
X150213Y328897D01*
X156887Y328897D01*
X156887Y324812D02*
X150213Y324812D01*
X150213Y327401D02*
X156887Y327401D01*
X156887Y337463D02*
X156887Y344137D01*
X156887Y337463D02*
X150213Y337463D01*
X150213Y344137D01*
X156887Y344137D01*
X156887Y340052D02*
X150213Y340052D01*
X150213Y342641D02*
X156887Y342641D01*
X311503Y320953D02*
X318177Y320953D01*
X311503Y320953D02*
X311503Y327627D01*
X318177Y327627D01*
X318177Y320953D01*
X318177Y323542D02*
X311503Y323542D01*
X311503Y326131D02*
X318177Y326131D01*
X326743Y320953D02*
X333417Y320953D01*
X326743Y320953D02*
X326743Y327627D01*
X333417Y327627D01*
X333417Y320953D01*
X333417Y323542D02*
X326743Y323542D01*
X326743Y326131D02*
X333417Y326131D01*
X305477Y327627D02*
X298803Y327627D01*
X305477Y327627D02*
X305477Y320953D01*
X298803Y320953D01*
X298803Y327627D01*
X298803Y323542D02*
X305477Y323542D01*
X305477Y326131D02*
X298803Y326131D01*
X290237Y327627D02*
X283563Y327627D01*
X290237Y327627D02*
X290237Y320953D01*
X283563Y320953D01*
X283563Y327627D01*
X283563Y323542D02*
X290237Y323542D01*
X290237Y326131D02*
X283563Y326131D01*
X264837Y400709D02*
X258163Y400709D01*
X258163Y407383D01*
X264837Y407383D01*
X264837Y400709D01*
X264837Y403298D02*
X258163Y403298D01*
X258163Y405887D02*
X264837Y405887D01*
X273403Y400709D02*
X280077Y400709D01*
X273403Y400709D02*
X273403Y407383D01*
X280077Y407383D01*
X280077Y400709D01*
X280077Y403298D02*
X273403Y403298D01*
X273403Y405887D02*
X280077Y405887D01*
X156887Y403883D02*
X150213Y403883D01*
X150213Y410557D01*
X156887Y410557D01*
X156887Y403883D01*
X156887Y406472D02*
X150213Y406472D01*
X150213Y409061D02*
X156887Y409061D01*
X156887Y387883D02*
X150213Y387883D01*
X150213Y394557D01*
X156887Y394557D01*
X156887Y387883D01*
X156887Y390472D02*
X150213Y390472D01*
X150213Y393061D02*
X156887Y393061D01*
D68*
X893170Y395100D03*
X893170Y337300D03*
D62*
X515027Y405789D02*
X508353Y405789D01*
X508353Y412463D01*
X515027Y412463D01*
X515027Y405789D01*
X515027Y408378D02*
X508353Y408378D01*
X508353Y410967D02*
X515027Y410967D01*
X523593Y405789D02*
X530267Y405789D01*
X523593Y405789D02*
X523593Y412463D01*
X530267Y412463D01*
X530267Y405789D01*
X530267Y408378D02*
X523593Y408378D01*
X523593Y410967D02*
X530267Y410967D01*
X536293Y405789D02*
X542967Y405789D01*
X536293Y405789D02*
X536293Y412463D01*
X542967Y412463D01*
X542967Y405789D01*
X542967Y408378D02*
X536293Y408378D01*
X536293Y410967D02*
X542967Y410967D01*
X551533Y405789D02*
X558207Y405789D01*
X551533Y405789D02*
X551533Y412463D01*
X558207Y412463D01*
X558207Y405789D01*
X558207Y408378D02*
X551533Y408378D01*
X551533Y410967D02*
X558207Y410967D01*
X530267Y391127D02*
X523593Y391127D01*
X530267Y391127D02*
X530267Y384453D01*
X523593Y384453D01*
X523593Y391127D01*
X523593Y387042D02*
X530267Y387042D01*
X530267Y389631D02*
X523593Y389631D01*
X515027Y391127D02*
X508353Y391127D01*
X515027Y391127D02*
X515027Y384453D01*
X508353Y384453D01*
X508353Y391127D01*
X508353Y387042D02*
X515027Y387042D01*
X515027Y389631D02*
X508353Y389631D01*
X523593Y378427D02*
X530267Y378427D01*
X530267Y371753D01*
X523593Y371753D01*
X523593Y378427D01*
X523593Y374342D02*
X530267Y374342D01*
X530267Y376931D02*
X523593Y376931D01*
X515027Y378427D02*
X508353Y378427D01*
X515027Y378427D02*
X515027Y371753D01*
X508353Y371753D01*
X508353Y378427D01*
X508353Y374342D02*
X515027Y374342D01*
X515027Y376931D02*
X508353Y376931D01*
X523593Y360647D02*
X530267Y360647D01*
X530267Y353973D01*
X523593Y353973D01*
X523593Y360647D01*
X523593Y356562D02*
X530267Y356562D01*
X530267Y359151D02*
X523593Y359151D01*
X515027Y360647D02*
X508353Y360647D01*
X515027Y360647D02*
X515027Y353973D01*
X508353Y353973D01*
X508353Y360647D01*
X508353Y356562D02*
X515027Y356562D01*
X515027Y359151D02*
X508353Y359151D01*
X394053Y353027D02*
X394053Y346353D01*
X394053Y353027D02*
X400727Y353027D01*
X400727Y346353D01*
X394053Y346353D01*
X394053Y348942D02*
X400727Y348942D01*
X400727Y351531D02*
X394053Y351531D01*
X394053Y337787D02*
X394053Y331113D01*
X394053Y337787D02*
X400727Y337787D01*
X400727Y331113D01*
X394053Y331113D01*
X394053Y333702D02*
X400727Y333702D01*
X400727Y336291D02*
X394053Y336291D01*
X381353Y346353D02*
X381353Y353027D01*
X388027Y353027D01*
X388027Y346353D01*
X381353Y346353D01*
X381353Y348942D02*
X388027Y348942D01*
X388027Y351531D02*
X381353Y351531D01*
X381353Y337787D02*
X381353Y331113D01*
X381353Y337787D02*
X388027Y337787D01*
X388027Y331113D01*
X381353Y331113D01*
X381353Y333702D02*
X388027Y333702D01*
X388027Y336291D02*
X381353Y336291D01*
D77*
X694668Y411339D02*
X694668Y412181D01*
X703010Y412181D01*
X703010Y411339D01*
X694668Y411339D01*
X694668Y407181D02*
X694668Y406339D01*
X694668Y407181D02*
X703010Y407181D01*
X703010Y406339D01*
X694668Y406339D01*
X694668Y402181D02*
X694668Y401339D01*
X694668Y402181D02*
X703010Y402181D01*
X703010Y401339D01*
X694668Y401339D01*
X694668Y397181D02*
X694668Y396339D01*
X694668Y397181D02*
X703010Y397181D01*
X703010Y396339D01*
X694668Y396339D01*
X694668Y392181D02*
X694668Y391339D01*
X694668Y392181D02*
X703010Y392181D01*
X703010Y391339D01*
X694668Y391339D01*
X745272Y391339D02*
X745272Y392181D01*
X745272Y391339D02*
X736930Y391339D01*
X736930Y392181D01*
X745272Y392181D01*
X745272Y396339D02*
X745272Y397181D01*
X745272Y396339D02*
X736930Y396339D01*
X736930Y397181D01*
X745272Y397181D01*
X745272Y401339D02*
X745272Y402181D01*
X745272Y401339D02*
X736930Y401339D01*
X736930Y402181D01*
X745272Y402181D01*
X745272Y406339D02*
X745272Y407181D01*
X745272Y406339D02*
X736930Y406339D01*
X736930Y407181D01*
X745272Y407181D01*
X745272Y411339D02*
X745272Y412181D01*
X745272Y411339D02*
X736930Y411339D01*
X736930Y412181D01*
X745272Y412181D01*
D62*
X718989Y344137D02*
X712315Y344137D01*
X718989Y344137D02*
X718989Y337463D01*
X712315Y337463D01*
X712315Y344137D01*
X712315Y340052D02*
X718989Y340052D01*
X718989Y342641D02*
X712315Y342641D01*
X703749Y344137D02*
X697075Y344137D01*
X703749Y344137D02*
X703749Y337463D01*
X697075Y337463D01*
X697075Y344137D01*
X697075Y340052D02*
X703749Y340052D01*
X703749Y342641D02*
X697075Y342641D01*
X794103Y400963D02*
X800777Y400963D01*
X794103Y400963D02*
X794103Y407637D01*
X800777Y407637D01*
X800777Y400963D01*
X800777Y403552D02*
X794103Y403552D01*
X794103Y406141D02*
X800777Y406141D01*
X809343Y400963D02*
X816017Y400963D01*
X809343Y400963D02*
X809343Y407637D01*
X816017Y407637D01*
X816017Y400963D01*
X816017Y403552D02*
X809343Y403552D01*
X809343Y406141D02*
X816017Y406141D01*
X781403Y403503D02*
X781403Y410177D01*
X788077Y410177D01*
X788077Y403503D01*
X781403Y403503D01*
X781403Y406092D02*
X788077Y406092D01*
X788077Y408681D02*
X781403Y408681D01*
X781403Y394937D02*
X781403Y388263D01*
X781403Y394937D02*
X788077Y394937D01*
X788077Y388263D01*
X781403Y388263D01*
X781403Y390852D02*
X788077Y390852D01*
X788077Y393441D02*
X781403Y393441D01*
X794103Y388263D02*
X800777Y388263D01*
X794103Y388263D02*
X794103Y394937D01*
X800777Y394937D01*
X800777Y388263D01*
X800777Y390852D02*
X794103Y390852D01*
X794103Y393441D02*
X800777Y393441D01*
X809343Y388263D02*
X816017Y388263D01*
X809343Y388263D02*
X809343Y394937D01*
X816017Y394937D01*
X816017Y388263D01*
X816017Y390852D02*
X809343Y390852D01*
X809343Y393441D02*
X816017Y393441D01*
X757597Y385723D02*
X750923Y385723D01*
X750923Y392397D01*
X757597Y392397D01*
X757597Y385723D01*
X757597Y388312D02*
X750923Y388312D01*
X750923Y390901D02*
X757597Y390901D01*
X766163Y385723D02*
X772837Y385723D01*
X766163Y385723D02*
X766163Y392397D01*
X772837Y392397D01*
X772837Y385723D01*
X772837Y388312D02*
X766163Y388312D01*
X766163Y390901D02*
X772837Y390901D01*
D25*
X726706Y354192D02*
X726706Y348208D01*
X724722Y348208D01*
X724722Y354192D01*
X726706Y354192D01*
X726706Y350606D02*
X724722Y350606D01*
X724722Y353004D02*
X726706Y353004D01*
X733206Y354192D02*
X733206Y348208D01*
X731222Y348208D01*
X731222Y354192D01*
X733206Y354192D01*
X733206Y350606D02*
X731222Y350606D01*
X731222Y353004D02*
X733206Y353004D01*
X739706Y354192D02*
X739706Y348208D01*
X737722Y348208D01*
X737722Y354192D01*
X739706Y354192D01*
X739706Y350606D02*
X737722Y350606D01*
X737722Y353004D02*
X739706Y353004D01*
X746206Y354192D02*
X746206Y348208D01*
X744222Y348208D01*
X744222Y354192D01*
X746206Y354192D01*
X746206Y350606D02*
X744222Y350606D01*
X744222Y353004D02*
X746206Y353004D01*
X746206Y378208D02*
X746206Y384192D01*
X746206Y378208D02*
X744222Y378208D01*
X744222Y384192D01*
X746206Y384192D01*
X746206Y380606D02*
X744222Y380606D01*
X744222Y383004D02*
X746206Y383004D01*
X739706Y384192D02*
X739706Y378208D01*
X737722Y378208D01*
X737722Y384192D01*
X739706Y384192D01*
X739706Y380606D02*
X737722Y380606D01*
X737722Y383004D02*
X739706Y383004D01*
X733206Y384192D02*
X733206Y378208D01*
X731222Y378208D01*
X731222Y384192D01*
X733206Y384192D01*
X733206Y380606D02*
X731222Y380606D01*
X731222Y383004D02*
X733206Y383004D01*
X726706Y384192D02*
X726706Y378208D01*
X724722Y378208D01*
X724722Y384192D01*
X726706Y384192D01*
X726706Y380606D02*
X724722Y380606D01*
X724722Y383004D02*
X726706Y383004D01*
D61*
X736722Y367458D02*
X736722Y364942D01*
X734206Y364942D01*
X734206Y367458D01*
X736722Y367458D01*
D70*
X241747Y347021D02*
X241747Y340979D01*
X234705Y340979D01*
X234705Y347021D01*
X241747Y347021D01*
X241747Y343323D02*
X234705Y343323D01*
X234705Y345667D02*
X241747Y345667D01*
X241747Y359979D02*
X241747Y366021D01*
X241747Y359979D02*
X234705Y359979D01*
X234705Y366021D01*
X241747Y366021D01*
X241747Y362323D02*
X234705Y362323D01*
X234705Y364667D02*
X241747Y364667D01*
X220747Y356521D02*
X220747Y350479D01*
X213705Y350479D01*
X213705Y356521D01*
X220747Y356521D01*
X220747Y352823D02*
X213705Y352823D01*
X213705Y355167D02*
X220747Y355167D01*
D62*
X197527Y411447D02*
X190853Y411447D01*
X197527Y411447D02*
X197527Y404773D01*
X190853Y404773D01*
X190853Y411447D01*
X190853Y407362D02*
X197527Y407362D01*
X197527Y409951D02*
X190853Y409951D01*
X182287Y411447D02*
X175613Y411447D01*
X182287Y411447D02*
X182287Y404773D01*
X175613Y404773D01*
X175613Y411447D01*
X175613Y407362D02*
X182287Y407362D01*
X182287Y409951D02*
X175613Y409951D01*
X231493Y333977D02*
X238167Y333977D01*
X238167Y327303D01*
X231493Y327303D01*
X231493Y333977D01*
X231493Y329892D02*
X238167Y329892D01*
X238167Y332481D02*
X231493Y332481D01*
X222927Y333977D02*
X216253Y333977D01*
X222927Y333977D02*
X222927Y327303D01*
X216253Y327303D01*
X216253Y333977D01*
X216253Y329892D02*
X222927Y329892D01*
X222927Y332481D02*
X216253Y332481D01*
D73*
X545786Y328466D02*
X545786Y323974D01*
X535294Y323974D01*
X535294Y328466D01*
X545786Y328466D01*
X545786Y325890D02*
X535294Y325890D01*
X535294Y327806D02*
X545786Y327806D01*
X545786Y342974D02*
X545786Y347466D01*
X545786Y342974D02*
X535294Y342974D01*
X535294Y347466D01*
X545786Y347466D01*
X545786Y344890D02*
X535294Y344890D01*
X535294Y346806D02*
X545786Y346806D01*
X571906Y328466D02*
X571906Y323974D01*
X561414Y323974D01*
X561414Y328466D01*
X571906Y328466D01*
X571906Y325890D02*
X561414Y325890D01*
X561414Y327806D02*
X571906Y327806D01*
X571906Y333474D02*
X571906Y337966D01*
X571906Y333474D02*
X561414Y333474D01*
X561414Y337966D01*
X571906Y337966D01*
X571906Y335390D02*
X561414Y335390D01*
X561414Y337306D02*
X571906Y337306D01*
X571906Y342974D02*
X571906Y347466D01*
X571906Y342974D02*
X561414Y342974D01*
X561414Y347466D01*
X571906Y347466D01*
X571906Y344890D02*
X561414Y344890D01*
X561414Y346806D02*
X571906Y346806D01*
D62*
X649323Y381659D02*
X655997Y381659D01*
X649323Y381659D02*
X649323Y388333D01*
X655997Y388333D01*
X655997Y381659D01*
X655997Y384248D02*
X649323Y384248D01*
X649323Y386837D02*
X655997Y386837D01*
X664563Y381659D02*
X671237Y381659D01*
X664563Y381659D02*
X664563Y388333D01*
X671237Y388333D01*
X671237Y381659D01*
X671237Y384248D02*
X664563Y384248D01*
X664563Y386837D02*
X671237Y386837D01*
X636623Y394359D02*
X636623Y401033D01*
X643297Y401033D01*
X643297Y394359D01*
X636623Y394359D01*
X636623Y396948D02*
X643297Y396948D01*
X643297Y399537D02*
X636623Y399537D01*
X636623Y385793D02*
X636623Y379119D01*
X636623Y385793D02*
X643297Y385793D01*
X643297Y379119D01*
X636623Y379119D01*
X636623Y381708D02*
X643297Y381708D01*
X643297Y384297D02*
X636623Y384297D01*
X691049Y361917D02*
X691049Y355243D01*
X684375Y355243D01*
X684375Y361917D01*
X691049Y361917D01*
X691049Y357832D02*
X684375Y357832D01*
X684375Y360421D02*
X691049Y360421D01*
X691049Y370483D02*
X691049Y377157D01*
X691049Y370483D02*
X684375Y370483D01*
X684375Y377157D01*
X691049Y377157D01*
X691049Y373072D02*
X684375Y373072D01*
X684375Y375661D02*
X691049Y375661D01*
X598847Y330167D02*
X598847Y323493D01*
X592173Y323493D01*
X592173Y330167D01*
X598847Y330167D01*
X598847Y326082D02*
X592173Y326082D01*
X592173Y328671D02*
X598847Y328671D01*
X598847Y338733D02*
X598847Y345407D01*
X598847Y338733D02*
X592173Y338733D01*
X592173Y345407D01*
X598847Y345407D01*
X598847Y341322D02*
X592173Y341322D01*
X592173Y343911D02*
X598847Y343911D01*
X586147Y330167D02*
X586147Y323493D01*
X579473Y323493D01*
X579473Y330167D01*
X586147Y330167D01*
X586147Y326082D02*
X579473Y326082D01*
X579473Y328671D02*
X586147Y328671D01*
X586147Y338733D02*
X586147Y345407D01*
X586147Y338733D02*
X579473Y338733D01*
X579473Y345407D01*
X586147Y345407D01*
X586147Y341322D02*
X579473Y341322D01*
X579473Y343911D02*
X586147Y343911D01*
D70*
X783951Y346791D02*
X783951Y339749D01*
X777909Y339749D01*
X777909Y346791D01*
X783951Y346791D01*
X783951Y342093D02*
X777909Y342093D01*
X777909Y344437D02*
X783951Y344437D01*
X783951Y346781D02*
X777909Y346781D01*
X783951Y362749D02*
X783951Y369791D01*
X783951Y362749D02*
X777909Y362749D01*
X777909Y369791D01*
X783951Y369791D01*
X783951Y365093D02*
X777909Y365093D01*
X777909Y367437D02*
X783951Y367437D01*
X783951Y369781D02*
X777909Y369781D01*
D78*
X836485Y374145D02*
X836485Y383655D01*
X836485Y374145D02*
X824435Y374145D01*
X824435Y383655D01*
X836485Y383655D01*
X836485Y377658D02*
X824435Y377658D01*
X824435Y381171D02*
X836485Y381171D01*
X836485Y399545D02*
X836485Y409055D01*
X836485Y399545D02*
X824435Y399545D01*
X824435Y409055D01*
X836485Y409055D01*
X836485Y403058D02*
X824435Y403058D01*
X824435Y406571D02*
X836485Y406571D01*
D62*
X193717Y320953D02*
X187043Y320953D01*
X187043Y327627D01*
X193717Y327627D01*
X193717Y320953D01*
X193717Y323542D02*
X187043Y323542D01*
X187043Y326131D02*
X193717Y326131D01*
X202283Y320953D02*
X208957Y320953D01*
X202283Y320953D02*
X202283Y327627D01*
X208957Y327627D01*
X208957Y320953D01*
X208957Y323542D02*
X202283Y323542D01*
X202283Y326131D02*
X208957Y326131D01*
D79*
X329775Y347455D02*
X335465Y347455D01*
X335465Y334145D01*
X329775Y334145D01*
X329775Y347455D01*
X329775Y336461D02*
X335465Y336461D01*
X335465Y338777D02*
X329775Y338777D01*
X329775Y341093D02*
X335465Y341093D01*
X335465Y343409D02*
X329775Y343409D01*
X329775Y345725D02*
X335465Y345725D01*
X335465Y398255D02*
X329775Y398255D01*
X335465Y398255D02*
X335465Y384945D01*
X329775Y384945D01*
X329775Y398255D01*
X329775Y387261D02*
X335465Y387261D01*
X335465Y389577D02*
X329775Y389577D01*
X329775Y391893D02*
X335465Y391893D01*
X335465Y394209D02*
X329775Y394209D01*
X329775Y396525D02*
X335465Y396525D01*
X367875Y347455D02*
X373565Y347455D01*
X373565Y334145D01*
X367875Y334145D01*
X367875Y347455D01*
X367875Y336461D02*
X373565Y336461D01*
X373565Y338777D02*
X367875Y338777D01*
X367875Y341093D02*
X373565Y341093D01*
X373565Y343409D02*
X367875Y343409D01*
X367875Y345725D02*
X373565Y345725D01*
X373565Y398255D02*
X367875Y398255D01*
X373565Y398255D02*
X373565Y384945D01*
X367875Y384945D01*
X367875Y398255D01*
X367875Y387261D02*
X373565Y387261D01*
X373565Y389577D02*
X367875Y389577D01*
X367875Y391893D02*
X373565Y391893D01*
X373565Y394209D02*
X367875Y394209D01*
X367875Y396525D02*
X373565Y396525D01*
X208465Y384945D02*
X202775Y384945D01*
X202775Y398255D01*
X208465Y398255D01*
X208465Y384945D01*
X208465Y387261D02*
X202775Y387261D01*
X202775Y389577D02*
X208465Y389577D01*
X208465Y391893D02*
X202775Y391893D01*
X202775Y394209D02*
X208465Y394209D01*
X208465Y396525D02*
X202775Y396525D01*
X202775Y334145D02*
X208465Y334145D01*
X202775Y334145D02*
X202775Y347455D01*
X208465Y347455D01*
X208465Y334145D01*
X208465Y336461D02*
X202775Y336461D01*
X202775Y338777D02*
X208465Y338777D01*
X208465Y341093D02*
X202775Y341093D01*
X202775Y343409D02*
X208465Y343409D01*
X208465Y345725D02*
X202775Y345725D01*
X170365Y384945D02*
X164675Y384945D01*
X164675Y398255D01*
X170365Y398255D01*
X170365Y384945D01*
X170365Y387261D02*
X164675Y387261D01*
X164675Y389577D02*
X170365Y389577D01*
X170365Y391893D02*
X164675Y391893D01*
X164675Y394209D02*
X170365Y394209D01*
X170365Y396525D02*
X164675Y396525D01*
X164675Y334145D02*
X170365Y334145D01*
X164675Y334145D02*
X164675Y347455D01*
X170365Y347455D01*
X170365Y334145D01*
X170365Y336461D02*
X164675Y336461D01*
X164675Y338777D02*
X170365Y338777D01*
X170365Y341093D02*
X164675Y341093D01*
X164675Y343409D02*
X170365Y343409D01*
X170365Y345725D02*
X164675Y345725D01*
D25*
X792148Y362258D02*
X798132Y362258D01*
X792148Y362258D02*
X792148Y364242D01*
X798132Y364242D01*
X798132Y362258D01*
X798132Y355758D02*
X792148Y355758D01*
X792148Y357742D01*
X798132Y357742D01*
X798132Y355758D01*
X798132Y349258D02*
X792148Y349258D01*
X792148Y351242D01*
X798132Y351242D01*
X798132Y349258D01*
X798132Y342758D02*
X792148Y342758D01*
X792148Y344742D01*
X798132Y344742D01*
X798132Y342758D01*
X822148Y342758D02*
X828132Y342758D01*
X822148Y342758D02*
X822148Y344742D01*
X828132Y344742D01*
X828132Y342758D01*
X828132Y349258D02*
X822148Y349258D01*
X822148Y351242D01*
X828132Y351242D01*
X828132Y349258D01*
X828132Y355758D02*
X822148Y355758D01*
X822148Y357742D01*
X828132Y357742D01*
X828132Y355758D01*
X828132Y362258D02*
X822148Y362258D01*
X822148Y364242D01*
X828132Y364242D01*
X828132Y362258D01*
D61*
X811398Y352242D02*
X808882Y352242D01*
X808882Y354758D01*
X811398Y354758D01*
X811398Y352242D01*
D62*
X809343Y380967D02*
X816017Y380967D01*
X816017Y374293D01*
X809343Y374293D01*
X809343Y380967D01*
X809343Y376882D02*
X816017Y376882D01*
X816017Y379471D02*
X809343Y379471D01*
X800777Y380967D02*
X794103Y380967D01*
X800777Y380967D02*
X800777Y374293D01*
X794103Y374293D01*
X794103Y380967D01*
X794103Y376882D02*
X800777Y376882D01*
X800777Y379471D02*
X794103Y379471D01*
D70*
X634059Y354591D02*
X634059Y348549D01*
X634059Y354591D02*
X641101Y354591D01*
X641101Y348549D01*
X634059Y348549D01*
X634059Y350893D02*
X641101Y350893D01*
X641101Y353237D02*
X634059Y353237D01*
X634059Y335591D02*
X634059Y329549D01*
X634059Y335591D02*
X641101Y335591D01*
X641101Y329549D01*
X634059Y329549D01*
X634059Y331893D02*
X641101Y331893D01*
X641101Y334237D02*
X634059Y334237D01*
X655059Y339049D02*
X655059Y345091D01*
X662101Y345091D01*
X662101Y339049D01*
X655059Y339049D01*
X655059Y341393D02*
X662101Y341393D01*
X662101Y343737D02*
X655059Y343737D01*
D62*
X636185Y362863D02*
X629511Y362863D01*
X629511Y369537D01*
X636185Y369537D01*
X636185Y362863D01*
X636185Y365452D02*
X629511Y365452D01*
X629511Y368041D02*
X636185Y368041D01*
X644751Y362863D02*
X651425Y362863D01*
X644751Y362863D02*
X644751Y369537D01*
X651425Y369537D01*
X651425Y362863D01*
X651425Y365452D02*
X644751Y365452D01*
X644751Y368041D02*
X651425Y368041D01*
X678349Y333977D02*
X678349Y327303D01*
X671675Y327303D01*
X671675Y333977D01*
X678349Y333977D01*
X678349Y329892D02*
X671675Y329892D01*
X671675Y332481D02*
X678349Y332481D01*
X678349Y342543D02*
X678349Y349217D01*
X678349Y342543D02*
X671675Y342543D01*
X671675Y349217D01*
X678349Y349217D01*
X678349Y345132D02*
X671675Y345132D01*
X671675Y347721D02*
X678349Y347721D01*
X691049Y333977D02*
X691049Y327303D01*
X684375Y327303D01*
X684375Y333977D01*
X691049Y333977D01*
X691049Y329892D02*
X684375Y329892D01*
X684375Y332481D02*
X691049Y332481D01*
X691049Y342543D02*
X691049Y349217D01*
X691049Y342543D02*
X684375Y342543D01*
X684375Y349217D01*
X691049Y349217D01*
X691049Y345132D02*
X684375Y345132D01*
X684375Y347721D02*
X691049Y347721D01*
X628057Y389857D02*
X621383Y389857D01*
X628057Y389857D02*
X628057Y383183D01*
X621383Y383183D01*
X621383Y389857D01*
X621383Y385772D02*
X628057Y385772D01*
X628057Y388361D02*
X621383Y388361D01*
X612817Y389857D02*
X606143Y389857D01*
X612817Y389857D02*
X612817Y383183D01*
X606143Y383183D01*
X606143Y389857D01*
X606143Y385772D02*
X612817Y385772D01*
X612817Y388361D02*
X606143Y388361D01*
X662023Y394359D02*
X668697Y394359D01*
X662023Y394359D02*
X662023Y401033D01*
X668697Y401033D01*
X668697Y394359D01*
X668697Y396948D02*
X662023Y396948D01*
X662023Y399537D02*
X668697Y399537D01*
X677263Y394359D02*
X683937Y394359D01*
X677263Y394359D02*
X677263Y401033D01*
X683937Y401033D01*
X683937Y394359D01*
X683937Y396948D02*
X677263Y396948D01*
X677263Y399537D02*
X683937Y399537D01*
D80*
X934754Y395076D02*
X934754Y382324D01*
X934754Y395076D02*
X941506Y395076D01*
X941506Y382324D01*
X934754Y382324D01*
X934754Y384943D02*
X941506Y384943D01*
X941506Y387562D02*
X934754Y387562D01*
X934754Y390181D02*
X941506Y390181D01*
X941506Y392800D02*
X934754Y392800D01*
X899754Y395076D02*
X899754Y382324D01*
X899754Y395076D02*
X906506Y395076D01*
X906506Y382324D01*
X899754Y382324D01*
X899754Y384943D02*
X906506Y384943D01*
X906506Y387562D02*
X899754Y387562D01*
X899754Y390181D02*
X906506Y390181D01*
X906506Y392800D02*
X899754Y392800D01*
X899754Y350076D02*
X899754Y337324D01*
X899754Y350076D02*
X906506Y350076D01*
X906506Y337324D01*
X899754Y337324D01*
X899754Y339943D02*
X906506Y339943D01*
X906506Y342562D02*
X899754Y342562D01*
X899754Y345181D02*
X906506Y345181D01*
X906506Y347800D02*
X899754Y347800D01*
D62*
X515027Y341273D02*
X508353Y341273D01*
X508353Y347947D01*
X515027Y347947D01*
X515027Y341273D01*
X515027Y343862D02*
X508353Y343862D01*
X508353Y346451D02*
X515027Y346451D01*
X523593Y341273D02*
X530267Y341273D01*
X523593Y341273D02*
X523593Y347947D01*
X530267Y347947D01*
X530267Y341273D01*
X530267Y343862D02*
X523593Y343862D01*
X523593Y346451D02*
X530267Y346451D01*
X515027Y323493D02*
X508353Y323493D01*
X508353Y330167D01*
X515027Y330167D01*
X515027Y323493D01*
X515027Y326082D02*
X508353Y326082D01*
X508353Y328671D02*
X515027Y328671D01*
X523593Y323493D02*
X530267Y323493D01*
X523593Y323493D02*
X523593Y330167D01*
X530267Y330167D01*
X530267Y323493D01*
X530267Y326082D02*
X523593Y326082D01*
X523593Y328671D02*
X530267Y328671D01*
X381353Y376833D02*
X381353Y383507D01*
X388027Y383507D01*
X388027Y376833D01*
X381353Y376833D01*
X381353Y379422D02*
X388027Y379422D01*
X388027Y382011D02*
X381353Y382011D01*
X381353Y368267D02*
X381353Y361593D01*
X381353Y368267D02*
X388027Y368267D01*
X388027Y361593D01*
X381353Y361593D01*
X381353Y364182D02*
X388027Y364182D01*
X388027Y366771D02*
X381353Y366771D01*
X388027Y389533D02*
X388027Y396207D01*
X388027Y389533D02*
X381353Y389533D01*
X381353Y396207D01*
X388027Y396207D01*
X388027Y392122D02*
X381353Y392122D01*
X381353Y394711D02*
X388027Y394711D01*
X388027Y404773D02*
X388027Y411447D01*
X388027Y404773D02*
X381353Y404773D01*
X381353Y411447D01*
X388027Y411447D01*
X388027Y407362D02*
X381353Y407362D01*
X381353Y409951D02*
X388027Y409951D01*
D70*
X412759Y393691D02*
X418801Y393691D01*
X418801Y386649D01*
X412759Y386649D01*
X412759Y393691D01*
X412759Y388993D02*
X418801Y388993D01*
X418801Y391337D02*
X412759Y391337D01*
X412759Y393681D02*
X418801Y393681D01*
X399801Y393691D02*
X393759Y393691D01*
X399801Y393691D02*
X399801Y386649D01*
X393759Y386649D01*
X393759Y393691D01*
X393759Y388993D02*
X399801Y388993D01*
X399801Y391337D02*
X393759Y391337D01*
X393759Y393681D02*
X399801Y393681D01*
X403259Y372691D02*
X409301Y372691D01*
X409301Y365649D01*
X403259Y365649D01*
X403259Y372691D01*
X403259Y367993D02*
X409301Y367993D01*
X409301Y370337D02*
X403259Y370337D01*
X403259Y372681D02*
X409301Y372681D01*
D62*
X410563Y406367D02*
X417237Y406367D01*
X417237Y399693D01*
X410563Y399693D01*
X410563Y406367D01*
X410563Y402282D02*
X417237Y402282D01*
X417237Y404871D02*
X410563Y404871D01*
X401997Y406367D02*
X395323Y406367D01*
X401997Y406367D02*
X401997Y399693D01*
X395323Y399693D01*
X395323Y406367D01*
X395323Y402282D02*
X401997Y402282D01*
X401997Y404871D02*
X395323Y404871D01*
D79*
X252915Y347455D02*
X247225Y347455D01*
X252915Y347455D02*
X252915Y334145D01*
X247225Y334145D01*
X247225Y347455D01*
X247225Y336461D02*
X252915Y336461D01*
X252915Y338777D02*
X247225Y338777D01*
X247225Y341093D02*
X252915Y341093D01*
X252915Y343409D02*
X247225Y343409D01*
X247225Y345725D02*
X252915Y345725D01*
X252915Y398255D02*
X247225Y398255D01*
X252915Y398255D02*
X252915Y384945D01*
X247225Y384945D01*
X247225Y398255D01*
X247225Y387261D02*
X252915Y387261D01*
X252915Y389577D02*
X247225Y389577D01*
X247225Y391893D02*
X252915Y391893D01*
X252915Y394209D02*
X247225Y394209D01*
X247225Y396525D02*
X252915Y396525D01*
X285325Y347455D02*
X291015Y347455D01*
X291015Y334145D01*
X285325Y334145D01*
X285325Y347455D01*
X285325Y336461D02*
X291015Y336461D01*
X291015Y338777D02*
X285325Y338777D01*
X285325Y341093D02*
X291015Y341093D01*
X291015Y343409D02*
X285325Y343409D01*
X285325Y345725D02*
X291015Y345725D01*
X291015Y398255D02*
X285325Y398255D01*
X291015Y398255D02*
X291015Y384945D01*
X285325Y384945D01*
X285325Y398255D01*
X285325Y387261D02*
X291015Y387261D01*
X291015Y389577D02*
X285325Y389577D01*
X285325Y391893D02*
X291015Y391893D01*
X291015Y394209D02*
X285325Y394209D01*
X285325Y396525D02*
X291015Y396525D01*
D62*
X301343Y356513D02*
X308017Y356513D01*
X301343Y356513D02*
X301343Y363187D01*
X308017Y363187D01*
X308017Y356513D01*
X308017Y359102D02*
X301343Y359102D01*
X301343Y361691D02*
X308017Y361691D01*
X316583Y356513D02*
X323257Y356513D01*
X316583Y356513D02*
X316583Y363187D01*
X323257Y363187D01*
X323257Y356513D01*
X323257Y359102D02*
X316583Y359102D01*
X316583Y361691D02*
X323257Y361691D01*
X308017Y376833D02*
X301343Y376833D01*
X301343Y383507D01*
X308017Y383507D01*
X308017Y376833D01*
X308017Y379422D02*
X301343Y379422D01*
X301343Y382011D02*
X308017Y382011D01*
X316583Y376833D02*
X323257Y376833D01*
X316583Y376833D02*
X316583Y383507D01*
X323257Y383507D01*
X323257Y376833D01*
X323257Y379422D02*
X316583Y379422D01*
X316583Y382011D02*
X323257Y382011D01*
D81*
X87510Y366200D03*
D82*
X469839Y407101D02*
X499541Y407101D01*
X499541Y405899D01*
X469839Y405899D01*
X469839Y407101D01*
X469839Y400901D02*
X499541Y400901D01*
X499541Y399699D01*
X469839Y399699D01*
X469839Y400901D01*
X469839Y394701D02*
X499541Y394701D01*
X499541Y393499D01*
X469839Y393499D01*
X469839Y394701D01*
X469839Y388501D02*
X499541Y388501D01*
X499541Y387299D01*
X469839Y387299D01*
X469839Y388501D01*
X469839Y382301D02*
X499541Y382301D01*
X499541Y381099D01*
X469839Y381099D01*
X469839Y382301D01*
X469839Y376101D02*
X499541Y376101D01*
X499541Y374899D01*
X469839Y374899D01*
X469839Y376101D01*
X469839Y369901D02*
X499541Y369901D01*
X499541Y368699D01*
X469839Y368699D01*
X469839Y369901D01*
X469839Y363701D02*
X499541Y363701D01*
X499541Y362499D01*
X469839Y362499D01*
X469839Y363701D01*
X469839Y357501D02*
X499541Y357501D01*
X499541Y356299D01*
X469839Y356299D01*
X469839Y357501D01*
X469839Y351301D02*
X499541Y351301D01*
X499541Y350099D01*
X469839Y350099D01*
X469839Y351301D01*
X469839Y345101D02*
X499541Y345101D01*
X499541Y343899D01*
X469839Y343899D01*
X469839Y345101D01*
X469839Y338901D02*
X499541Y338901D01*
X499541Y337699D01*
X469839Y337699D01*
X469839Y338901D01*
X469839Y332701D02*
X499541Y332701D01*
X499541Y331499D01*
X469839Y331499D01*
X469839Y332701D01*
X469839Y326501D02*
X499541Y326501D01*
X499541Y325299D01*
X469839Y325299D01*
X469839Y326501D01*
D62*
X156887Y355243D02*
X156887Y361917D01*
X156887Y355243D02*
X150213Y355243D01*
X150213Y361917D01*
X156887Y361917D01*
X156887Y357832D02*
X150213Y357832D01*
X150213Y360421D02*
X156887Y360421D01*
X156887Y370483D02*
X156887Y377157D01*
X156887Y370483D02*
X150213Y370483D01*
X150213Y377157D01*
X156887Y377157D01*
X156887Y373072D02*
X150213Y373072D01*
X150213Y375661D02*
X156887Y375661D01*
X144187Y361917D02*
X144187Y355243D01*
X137513Y355243D01*
X137513Y361917D01*
X144187Y361917D01*
X144187Y357832D02*
X137513Y357832D01*
X137513Y360421D02*
X144187Y360421D01*
X144187Y370483D02*
X144187Y377157D01*
X144187Y370483D02*
X137513Y370483D01*
X137513Y377157D01*
X144187Y377157D01*
X144187Y373072D02*
X137513Y373072D01*
X137513Y375661D02*
X144187Y375661D01*
D83*
X67858Y383312D02*
X67858Y394808D01*
X67858Y383312D02*
X56362Y383312D01*
X56362Y394808D01*
X67858Y394808D01*
X67858Y387351D02*
X56362Y387351D01*
X56362Y391390D02*
X67858Y391390D01*
X118658Y394808D02*
X118658Y383312D01*
X107162Y383312D01*
X107162Y394808D01*
X118658Y394808D01*
X118658Y387351D02*
X107162Y387351D01*
X107162Y391390D02*
X118658Y391390D01*
X67858Y349088D02*
X67858Y337592D01*
X56362Y337592D01*
X56362Y349088D01*
X67858Y349088D01*
X67858Y341631D02*
X56362Y341631D01*
X56362Y345670D02*
X67858Y345670D01*
X118658Y349088D02*
X118658Y337592D01*
X107162Y337592D01*
X107162Y349088D01*
X118658Y349088D01*
X118658Y341631D02*
X107162Y341631D01*
X107162Y345670D02*
X118658Y345670D01*
D75*
X760860Y366200D03*
X710060Y366200D03*
X665860Y366200D03*
X615060Y366200D03*
X112910Y366200D03*
X62110Y366200D03*
D84*
X246920Y411895D02*
X249664Y411895D01*
X249664Y404325D01*
X246920Y404325D01*
X246920Y411895D01*
X246920Y406063D02*
X249664Y406063D01*
X249664Y407801D02*
X246920Y407801D01*
X246920Y409539D02*
X249664Y409539D01*
X249664Y411277D02*
X246920Y411277D01*
X243060Y411895D02*
X240316Y411895D01*
X243060Y411895D02*
X243060Y404325D01*
X240316Y404325D01*
X240316Y411895D01*
X240316Y406063D02*
X243060Y406063D01*
X243060Y407801D02*
X240316Y407801D01*
X240316Y409539D02*
X243060Y409539D01*
X243060Y411277D02*
X240316Y411277D01*
D76*
X115450Y406840D03*
M02*
