G04 EAGLE Gerber RS-274X export*
G75*
%MOMM*%
%FSLAX34Y34*%
%LPD*%
%IN*%
%IPPOS*%
%AMOC8*
5,1,8,0,0,1.08239X$1,22.5*%
G01*
%ADD10C,0.254000*%


D10*
X0Y-70000D02*
X1000000Y-70000D01*
X1000000Y930000D01*
X0Y930000D01*
X0Y-70000D01*
X875660Y633800D02*
X886660Y633800D01*
X886921Y633811D01*
X887181Y633846D01*
X887436Y633902D01*
X887686Y633981D01*
X887928Y634081D01*
X888160Y634202D01*
X888381Y634343D01*
X888588Y634502D01*
X888781Y634679D01*
X888958Y634872D01*
X889117Y635079D01*
X889258Y635300D01*
X889379Y635532D01*
X889479Y635774D01*
X889558Y636024D01*
X889614Y636279D01*
X889649Y636539D01*
X889660Y636800D01*
X889649Y637061D01*
X889614Y637321D01*
X889558Y637576D01*
X889479Y637826D01*
X889379Y638068D01*
X889258Y638300D01*
X889117Y638521D01*
X888958Y638728D01*
X888781Y638921D01*
X888588Y639098D01*
X888381Y639257D01*
X888160Y639398D01*
X887928Y639519D01*
X887686Y639619D01*
X887436Y639698D01*
X887181Y639754D01*
X886921Y639789D01*
X886660Y639800D01*
X875660Y639800D01*
X875399Y639789D01*
X875139Y639754D01*
X874884Y639698D01*
X874634Y639619D01*
X874392Y639519D01*
X874160Y639398D01*
X873939Y639257D01*
X873732Y639098D01*
X873539Y638921D01*
X873362Y638728D01*
X873203Y638521D01*
X873062Y638300D01*
X872941Y638068D01*
X872841Y637826D01*
X872762Y637576D01*
X872706Y637321D01*
X872671Y637061D01*
X872660Y636800D01*
X872671Y636539D01*
X872706Y636279D01*
X872762Y636024D01*
X872841Y635774D01*
X872941Y635532D01*
X873062Y635300D01*
X873203Y635079D01*
X873362Y634872D01*
X873539Y634679D01*
X873732Y634502D01*
X873939Y634343D01*
X874160Y634202D01*
X874392Y634081D01*
X874634Y633981D01*
X874884Y633902D01*
X875139Y633846D01*
X875399Y633811D01*
X875660Y633800D01*
X919810Y633800D02*
X926010Y633800D01*
X926271Y633811D01*
X926531Y633846D01*
X926786Y633902D01*
X927036Y633981D01*
X927278Y634081D01*
X927510Y634202D01*
X927731Y634343D01*
X927938Y634502D01*
X928131Y634679D01*
X928308Y634872D01*
X928467Y635079D01*
X928608Y635300D01*
X928729Y635532D01*
X928829Y635774D01*
X928908Y636024D01*
X928964Y636279D01*
X928999Y636539D01*
X929010Y636800D01*
X928999Y637061D01*
X928964Y637321D01*
X928908Y637576D01*
X928829Y637826D01*
X928729Y638068D01*
X928608Y638300D01*
X928467Y638521D01*
X928308Y638728D01*
X928131Y638921D01*
X927938Y639098D01*
X927731Y639257D01*
X927510Y639398D01*
X927278Y639519D01*
X927036Y639619D01*
X926786Y639698D01*
X926531Y639754D01*
X926271Y639789D01*
X926010Y639800D01*
X919810Y639800D01*
X919549Y639789D01*
X919289Y639754D01*
X919034Y639698D01*
X918784Y639619D01*
X918542Y639519D01*
X918310Y639398D01*
X918089Y639257D01*
X917882Y639098D01*
X917689Y638921D01*
X917512Y638728D01*
X917353Y638521D01*
X917212Y638300D01*
X917091Y638068D01*
X916991Y637826D01*
X916912Y637576D01*
X916856Y637321D01*
X916821Y637061D01*
X916810Y636800D01*
X916821Y636539D01*
X916856Y636279D01*
X916912Y636024D01*
X916991Y635774D01*
X917091Y635532D01*
X917212Y635300D01*
X917353Y635079D01*
X917512Y634872D01*
X917689Y634679D01*
X917882Y634502D01*
X918089Y634343D01*
X918310Y634202D01*
X918542Y634081D01*
X918784Y633981D01*
X919034Y633902D01*
X919289Y633846D01*
X919549Y633811D01*
X919810Y633800D01*
X875660Y720200D02*
X886660Y720200D01*
X886921Y720211D01*
X887181Y720246D01*
X887436Y720302D01*
X887686Y720381D01*
X887928Y720481D01*
X888160Y720602D01*
X888381Y720743D01*
X888588Y720902D01*
X888781Y721079D01*
X888958Y721272D01*
X889117Y721479D01*
X889258Y721700D01*
X889379Y721932D01*
X889479Y722174D01*
X889558Y722424D01*
X889614Y722679D01*
X889649Y722939D01*
X889660Y723200D01*
X889649Y723461D01*
X889614Y723721D01*
X889558Y723976D01*
X889479Y724226D01*
X889379Y724468D01*
X889258Y724700D01*
X889117Y724921D01*
X888958Y725128D01*
X888781Y725321D01*
X888588Y725498D01*
X888381Y725657D01*
X888160Y725798D01*
X887928Y725919D01*
X887686Y726019D01*
X887436Y726098D01*
X887181Y726154D01*
X886921Y726189D01*
X886660Y726200D01*
X875660Y726200D01*
X875399Y726189D01*
X875139Y726154D01*
X874884Y726098D01*
X874634Y726019D01*
X874392Y725919D01*
X874160Y725798D01*
X873939Y725657D01*
X873732Y725498D01*
X873539Y725321D01*
X873362Y725128D01*
X873203Y724921D01*
X873062Y724700D01*
X872941Y724468D01*
X872841Y724226D01*
X872762Y723976D01*
X872706Y723721D01*
X872671Y723461D01*
X872660Y723200D01*
X872671Y722939D01*
X872706Y722679D01*
X872762Y722424D01*
X872841Y722174D01*
X872941Y721932D01*
X873062Y721700D01*
X873203Y721479D01*
X873362Y721272D01*
X873539Y721079D01*
X873732Y720902D01*
X873939Y720743D01*
X874160Y720602D01*
X874392Y720481D01*
X874634Y720381D01*
X874884Y720302D01*
X875139Y720246D01*
X875399Y720211D01*
X875660Y720200D01*
X919810Y720200D02*
X926010Y720200D01*
X926271Y720211D01*
X926531Y720246D01*
X926786Y720302D01*
X927036Y720381D01*
X927278Y720481D01*
X927510Y720602D01*
X927731Y720743D01*
X927938Y720902D01*
X928131Y721079D01*
X928308Y721272D01*
X928467Y721479D01*
X928608Y721700D01*
X928729Y721932D01*
X928829Y722174D01*
X928908Y722424D01*
X928964Y722679D01*
X928999Y722939D01*
X929010Y723200D01*
X928999Y723461D01*
X928964Y723721D01*
X928908Y723976D01*
X928829Y724226D01*
X928729Y724468D01*
X928608Y724700D01*
X928467Y724921D01*
X928308Y725128D01*
X928131Y725321D01*
X927938Y725498D01*
X927731Y725657D01*
X927510Y725798D01*
X927278Y725919D01*
X927036Y726019D01*
X926786Y726098D01*
X926531Y726154D01*
X926271Y726189D01*
X926010Y726200D01*
X919810Y726200D01*
X919549Y726189D01*
X919289Y726154D01*
X919034Y726098D01*
X918784Y726019D01*
X918542Y725919D01*
X918310Y725798D01*
X918089Y725657D01*
X917882Y725498D01*
X917689Y725321D01*
X917512Y725128D01*
X917353Y724921D01*
X917212Y724700D01*
X917091Y724468D01*
X916991Y724226D01*
X916912Y723976D01*
X916856Y723721D01*
X916821Y723461D01*
X916810Y723200D01*
X916821Y722939D01*
X916856Y722679D01*
X916912Y722424D01*
X916991Y722174D01*
X917091Y721932D01*
X917212Y721700D01*
X917353Y721479D01*
X917512Y721272D01*
X917689Y721079D01*
X917882Y720902D01*
X918089Y720743D01*
X918310Y720602D01*
X918542Y720481D01*
X918784Y720381D01*
X919034Y720302D01*
X919289Y720246D01*
X919549Y720211D01*
X919810Y720200D01*
X96630Y133800D02*
X107630Y133800D01*
X107891Y133811D01*
X108151Y133846D01*
X108406Y133902D01*
X108656Y133981D01*
X108898Y134081D01*
X109130Y134202D01*
X109351Y134343D01*
X109558Y134502D01*
X109751Y134679D01*
X109928Y134872D01*
X110087Y135079D01*
X110228Y135300D01*
X110349Y135532D01*
X110449Y135774D01*
X110528Y136024D01*
X110584Y136279D01*
X110619Y136539D01*
X110630Y136800D01*
X110619Y137061D01*
X110584Y137321D01*
X110528Y137576D01*
X110449Y137826D01*
X110349Y138068D01*
X110228Y138300D01*
X110087Y138521D01*
X109928Y138728D01*
X109751Y138921D01*
X109558Y139098D01*
X109351Y139257D01*
X109130Y139398D01*
X108898Y139519D01*
X108656Y139619D01*
X108406Y139698D01*
X108151Y139754D01*
X107891Y139789D01*
X107630Y139800D01*
X96630Y139800D01*
X96369Y139789D01*
X96109Y139754D01*
X95854Y139698D01*
X95604Y139619D01*
X95362Y139519D01*
X95130Y139398D01*
X94909Y139257D01*
X94702Y139098D01*
X94509Y138921D01*
X94332Y138728D01*
X94173Y138521D01*
X94032Y138300D01*
X93911Y138068D01*
X93811Y137826D01*
X93732Y137576D01*
X93676Y137321D01*
X93641Y137061D01*
X93630Y136800D01*
X93641Y136539D01*
X93676Y136279D01*
X93732Y136024D01*
X93811Y135774D01*
X93911Y135532D01*
X94032Y135300D01*
X94173Y135079D01*
X94332Y134872D01*
X94509Y134679D01*
X94702Y134502D01*
X94909Y134343D01*
X95130Y134202D01*
X95362Y134081D01*
X95604Y133981D01*
X95854Y133902D01*
X96109Y133846D01*
X96369Y133811D01*
X96630Y133800D01*
X57280Y133800D02*
X63480Y133800D01*
X63741Y133811D01*
X64001Y133846D01*
X64256Y133902D01*
X64506Y133981D01*
X64748Y134081D01*
X64980Y134202D01*
X65201Y134343D01*
X65408Y134502D01*
X65601Y134679D01*
X65778Y134872D01*
X65937Y135079D01*
X66078Y135300D01*
X66199Y135532D01*
X66299Y135774D01*
X66378Y136024D01*
X66434Y136279D01*
X66469Y136539D01*
X66480Y136800D01*
X66469Y137061D01*
X66434Y137321D01*
X66378Y137576D01*
X66299Y137826D01*
X66199Y138068D01*
X66078Y138300D01*
X65937Y138521D01*
X65778Y138728D01*
X65601Y138921D01*
X65408Y139098D01*
X65201Y139257D01*
X64980Y139398D01*
X64748Y139519D01*
X64506Y139619D01*
X64256Y139698D01*
X64001Y139754D01*
X63741Y139789D01*
X63480Y139800D01*
X57280Y139800D01*
X57019Y139789D01*
X56759Y139754D01*
X56504Y139698D01*
X56254Y139619D01*
X56012Y139519D01*
X55780Y139398D01*
X55559Y139257D01*
X55352Y139098D01*
X55159Y138921D01*
X54982Y138728D01*
X54823Y138521D01*
X54682Y138300D01*
X54561Y138068D01*
X54461Y137826D01*
X54382Y137576D01*
X54326Y137321D01*
X54291Y137061D01*
X54280Y136800D01*
X54291Y136539D01*
X54326Y136279D01*
X54382Y136024D01*
X54461Y135774D01*
X54561Y135532D01*
X54682Y135300D01*
X54823Y135079D01*
X54982Y134872D01*
X55159Y134679D01*
X55352Y134502D01*
X55559Y134343D01*
X55780Y134202D01*
X56012Y134081D01*
X56254Y133981D01*
X56504Y133902D01*
X56759Y133846D01*
X57019Y133811D01*
X57280Y133800D01*
X57280Y220200D02*
X63480Y220200D01*
X63741Y220211D01*
X64001Y220246D01*
X64256Y220302D01*
X64506Y220381D01*
X64748Y220481D01*
X64980Y220602D01*
X65201Y220743D01*
X65408Y220902D01*
X65601Y221079D01*
X65778Y221272D01*
X65937Y221479D01*
X66078Y221700D01*
X66199Y221932D01*
X66299Y222174D01*
X66378Y222424D01*
X66434Y222679D01*
X66469Y222939D01*
X66480Y223200D01*
X66469Y223461D01*
X66434Y223721D01*
X66378Y223976D01*
X66299Y224226D01*
X66199Y224468D01*
X66078Y224700D01*
X65937Y224921D01*
X65778Y225128D01*
X65601Y225321D01*
X65408Y225498D01*
X65201Y225657D01*
X64980Y225798D01*
X64748Y225919D01*
X64506Y226019D01*
X64256Y226098D01*
X64001Y226154D01*
X63741Y226189D01*
X63480Y226200D01*
X57280Y226200D01*
X57019Y226189D01*
X56759Y226154D01*
X56504Y226098D01*
X56254Y226019D01*
X56012Y225919D01*
X55780Y225798D01*
X55559Y225657D01*
X55352Y225498D01*
X55159Y225321D01*
X54982Y225128D01*
X54823Y224921D01*
X54682Y224700D01*
X54561Y224468D01*
X54461Y224226D01*
X54382Y223976D01*
X54326Y223721D01*
X54291Y223461D01*
X54280Y223200D01*
X54291Y222939D01*
X54326Y222679D01*
X54382Y222424D01*
X54461Y222174D01*
X54561Y221932D01*
X54682Y221700D01*
X54823Y221479D01*
X54982Y221272D01*
X55159Y221079D01*
X55352Y220902D01*
X55559Y220743D01*
X55780Y220602D01*
X56012Y220481D01*
X56254Y220381D01*
X56504Y220302D01*
X56759Y220246D01*
X57019Y220211D01*
X57280Y220200D01*
X96630Y220200D02*
X107630Y220200D01*
X107891Y220211D01*
X108151Y220246D01*
X108406Y220302D01*
X108656Y220381D01*
X108898Y220481D01*
X109130Y220602D01*
X109351Y220743D01*
X109558Y220902D01*
X109751Y221079D01*
X109928Y221272D01*
X110087Y221479D01*
X110228Y221700D01*
X110349Y221932D01*
X110449Y222174D01*
X110528Y222424D01*
X110584Y222679D01*
X110619Y222939D01*
X110630Y223200D01*
X110619Y223461D01*
X110584Y223721D01*
X110528Y223976D01*
X110449Y224226D01*
X110349Y224468D01*
X110228Y224700D01*
X110087Y224921D01*
X109928Y225128D01*
X109751Y225321D01*
X109558Y225498D01*
X109351Y225657D01*
X109130Y225798D01*
X108898Y225919D01*
X108656Y226019D01*
X108406Y226098D01*
X108151Y226154D01*
X107891Y226189D01*
X107630Y226200D01*
X96630Y226200D01*
X96369Y226189D01*
X96109Y226154D01*
X95854Y226098D01*
X95604Y226019D01*
X95362Y225919D01*
X95130Y225798D01*
X94909Y225657D01*
X94702Y225498D01*
X94509Y225321D01*
X94332Y225128D01*
X94173Y224921D01*
X94032Y224700D01*
X93911Y224468D01*
X93811Y224226D01*
X93732Y223976D01*
X93676Y223721D01*
X93641Y223461D01*
X93630Y223200D01*
X93641Y222939D01*
X93676Y222679D01*
X93732Y222424D01*
X93811Y222174D01*
X93911Y221932D01*
X94032Y221700D01*
X94173Y221479D01*
X94332Y221272D01*
X94509Y221079D01*
X94702Y220902D01*
X94909Y220743D01*
X95130Y220602D01*
X95362Y220481D01*
X95604Y220381D01*
X95854Y220302D01*
X96109Y220246D01*
X96369Y220211D01*
X96630Y220200D01*
X96630Y133800D02*
X107630Y133800D01*
X107891Y133811D01*
X108151Y133846D01*
X108406Y133902D01*
X108656Y133981D01*
X108898Y134081D01*
X109130Y134202D01*
X109351Y134343D01*
X109558Y134502D01*
X109751Y134679D01*
X109928Y134872D01*
X110087Y135079D01*
X110228Y135300D01*
X110349Y135532D01*
X110449Y135774D01*
X110528Y136024D01*
X110584Y136279D01*
X110619Y136539D01*
X110630Y136800D01*
X110619Y137061D01*
X110584Y137321D01*
X110528Y137576D01*
X110449Y137826D01*
X110349Y138068D01*
X110228Y138300D01*
X110087Y138521D01*
X109928Y138728D01*
X109751Y138921D01*
X109558Y139098D01*
X109351Y139257D01*
X109130Y139398D01*
X108898Y139519D01*
X108656Y139619D01*
X108406Y139698D01*
X108151Y139754D01*
X107891Y139789D01*
X107630Y139800D01*
X96630Y139800D01*
X96369Y139789D01*
X96109Y139754D01*
X95854Y139698D01*
X95604Y139619D01*
X95362Y139519D01*
X95130Y139398D01*
X94909Y139257D01*
X94702Y139098D01*
X94509Y138921D01*
X94332Y138728D01*
X94173Y138521D01*
X94032Y138300D01*
X93911Y138068D01*
X93811Y137826D01*
X93732Y137576D01*
X93676Y137321D01*
X93641Y137061D01*
X93630Y136800D01*
X93641Y136539D01*
X93676Y136279D01*
X93732Y136024D01*
X93811Y135774D01*
X93911Y135532D01*
X94032Y135300D01*
X94173Y135079D01*
X94332Y134872D01*
X94509Y134679D01*
X94702Y134502D01*
X94909Y134343D01*
X95130Y134202D01*
X95362Y134081D01*
X95604Y133981D01*
X95854Y133902D01*
X96109Y133846D01*
X96369Y133811D01*
X96630Y133800D01*
X96630Y220200D02*
X107630Y220200D01*
X107891Y220211D01*
X108151Y220246D01*
X108406Y220302D01*
X108656Y220381D01*
X108898Y220481D01*
X109130Y220602D01*
X109351Y220743D01*
X109558Y220902D01*
X109751Y221079D01*
X109928Y221272D01*
X110087Y221479D01*
X110228Y221700D01*
X110349Y221932D01*
X110449Y222174D01*
X110528Y222424D01*
X110584Y222679D01*
X110619Y222939D01*
X110630Y223200D01*
X110619Y223461D01*
X110584Y223721D01*
X110528Y223976D01*
X110449Y224226D01*
X110349Y224468D01*
X110228Y224700D01*
X110087Y224921D01*
X109928Y225128D01*
X109751Y225321D01*
X109558Y225498D01*
X109351Y225657D01*
X109130Y225798D01*
X108898Y225919D01*
X108656Y226019D01*
X108406Y226098D01*
X108151Y226154D01*
X107891Y226189D01*
X107630Y226200D01*
X96630Y226200D01*
X96369Y226189D01*
X96109Y226154D01*
X95854Y226098D01*
X95604Y226019D01*
X95362Y225919D01*
X95130Y225798D01*
X94909Y225657D01*
X94702Y225498D01*
X94509Y225321D01*
X94332Y225128D01*
X94173Y224921D01*
X94032Y224700D01*
X93911Y224468D01*
X93811Y224226D01*
X93732Y223976D01*
X93676Y223721D01*
X93641Y223461D01*
X93630Y223200D01*
X93641Y222939D01*
X93676Y222679D01*
X93732Y222424D01*
X93811Y222174D01*
X93911Y221932D01*
X94032Y221700D01*
X94173Y221479D01*
X94332Y221272D01*
X94509Y221079D01*
X94702Y220902D01*
X94909Y220743D01*
X95130Y220602D01*
X95362Y220481D01*
X95604Y220381D01*
X95854Y220302D01*
X96109Y220246D01*
X96369Y220211D01*
X96630Y220200D01*
X42700Y652060D02*
X42716Y651603D01*
X42772Y651150D01*
X42868Y650703D01*
X43002Y650267D01*
X43173Y649843D01*
X43381Y649436D01*
X43623Y649049D01*
X43898Y648685D01*
X44204Y648345D01*
X44539Y648034D01*
X44899Y647753D01*
X45282Y647505D01*
X45686Y647290D01*
X46106Y647112D01*
X46510Y646980D01*
X111205Y629381D01*
X111637Y629283D01*
X112076Y629222D01*
X112519Y629200D01*
X112962Y629217D01*
X113401Y629272D01*
X113835Y629365D01*
X114258Y629496D01*
X114669Y629663D01*
X115063Y629865D01*
X115438Y630101D01*
X115791Y630369D01*
X116120Y630666D01*
X116421Y630991D01*
X116693Y631341D01*
X116934Y631713D01*
X117141Y632105D01*
X117313Y632513D01*
X117449Y632935D01*
X117547Y633367D01*
X117608Y633806D01*
X117630Y634249D01*
X117630Y634280D01*
X117630Y639360D01*
X117669Y640246D01*
X117784Y641124D01*
X117976Y641990D01*
X118243Y642835D01*
X118582Y643654D01*
X118991Y644440D01*
X119467Y645188D01*
X120007Y645891D01*
X120606Y646544D01*
X121259Y647143D01*
X121962Y647683D01*
X122710Y648159D01*
X123496Y648568D01*
X124315Y648907D01*
X125160Y649174D01*
X126026Y649366D01*
X126905Y649481D01*
X127790Y649520D01*
X128676Y649481D01*
X129554Y649366D01*
X130420Y649174D01*
X131265Y648907D01*
X132084Y648568D01*
X132870Y648159D01*
X133618Y647683D01*
X134321Y647143D01*
X134974Y646544D01*
X135573Y645891D01*
X136113Y645188D01*
X136589Y644440D01*
X136998Y643654D01*
X137337Y642835D01*
X137604Y641990D01*
X137796Y641124D01*
X137911Y640246D01*
X137950Y639360D01*
X137950Y634280D01*
X137969Y633837D01*
X138027Y633398D01*
X138123Y632965D01*
X138256Y632543D01*
X138426Y632133D01*
X138631Y631740D01*
X138869Y631366D01*
X139139Y631015D01*
X139438Y630688D01*
X139765Y630389D01*
X140116Y630119D01*
X140490Y629881D01*
X140883Y629676D01*
X141293Y629506D01*
X141715Y629373D01*
X142148Y629277D01*
X142587Y629219D01*
X143030Y629200D01*
X841530Y629200D01*
X845340Y633010D01*
X845340Y639360D01*
X845379Y640246D01*
X845494Y641124D01*
X845686Y641990D01*
X845953Y642835D01*
X846292Y643654D01*
X846701Y644440D01*
X847177Y645188D01*
X847717Y645891D01*
X848316Y646544D01*
X848969Y647143D01*
X849672Y647683D01*
X850420Y648159D01*
X851206Y648568D01*
X852025Y648907D01*
X852870Y649174D01*
X853736Y649366D01*
X854615Y649481D01*
X855500Y649520D01*
X856386Y649481D01*
X857264Y649366D01*
X858130Y649174D01*
X858975Y648907D01*
X859794Y648568D01*
X860580Y648159D01*
X861328Y647683D01*
X862031Y647143D01*
X862684Y646544D01*
X863283Y645891D01*
X863823Y645188D01*
X864299Y644440D01*
X864708Y643654D01*
X865047Y642835D01*
X865314Y641990D01*
X865506Y641124D01*
X865621Y640246D01*
X865660Y639360D01*
X865660Y633010D01*
X869470Y629200D01*
X934240Y629200D01*
X934793Y629224D01*
X935343Y629296D01*
X935884Y629416D01*
X936412Y629583D01*
X936924Y629795D01*
X937415Y630051D01*
X937882Y630348D01*
X938322Y630686D01*
X938730Y631060D01*
X939104Y631468D01*
X939442Y631908D01*
X939739Y632375D01*
X939995Y632866D01*
X940207Y633378D01*
X940374Y633907D01*
X940494Y634447D01*
X940566Y634997D01*
X940590Y635550D01*
X940590Y724450D01*
X940566Y725003D01*
X940494Y725553D01*
X940374Y726094D01*
X940207Y726622D01*
X939995Y727134D01*
X939739Y727625D01*
X939442Y728092D01*
X939104Y728532D01*
X938730Y728940D01*
X938322Y729314D01*
X937882Y729652D01*
X937415Y729949D01*
X936924Y730205D01*
X936412Y730417D01*
X935884Y730584D01*
X935343Y730704D01*
X934793Y730776D01*
X934240Y730800D01*
X869470Y730800D01*
X865660Y726990D01*
X865660Y720640D01*
X865621Y719755D01*
X865506Y718876D01*
X865314Y718010D01*
X865047Y717165D01*
X864708Y716346D01*
X864299Y715560D01*
X863823Y714812D01*
X863283Y714109D01*
X862684Y713456D01*
X862031Y712857D01*
X861328Y712317D01*
X860580Y711841D01*
X859794Y711432D01*
X858975Y711093D01*
X858130Y710826D01*
X857264Y710634D01*
X856386Y710519D01*
X855500Y710480D01*
X854615Y710519D01*
X853736Y710634D01*
X852870Y710826D01*
X852025Y711093D01*
X851206Y711432D01*
X850420Y711841D01*
X849672Y712317D01*
X848969Y712857D01*
X848316Y713456D01*
X847717Y714109D01*
X847177Y714812D01*
X846701Y715560D01*
X846292Y716346D01*
X845953Y717165D01*
X845686Y718010D01*
X845494Y718876D01*
X845379Y719755D01*
X845340Y720640D01*
X845340Y726990D01*
X841530Y730800D01*
X143030Y730800D01*
X142587Y730781D01*
X142148Y730723D01*
X141715Y730627D01*
X141293Y730494D01*
X140883Y730324D01*
X140490Y730119D01*
X140116Y729881D01*
X139765Y729612D01*
X139438Y729312D01*
X139139Y728985D01*
X138869Y728634D01*
X138631Y728260D01*
X138426Y727867D01*
X138256Y727457D01*
X138123Y727035D01*
X138027Y726602D01*
X137969Y726163D01*
X137950Y725720D01*
X137950Y720640D01*
X137911Y719755D01*
X137796Y718876D01*
X137604Y718010D01*
X137337Y717165D01*
X136998Y716346D01*
X136589Y715560D01*
X136113Y714812D01*
X135573Y714109D01*
X134974Y713456D01*
X134321Y712857D01*
X133618Y712317D01*
X132870Y711841D01*
X132084Y711432D01*
X131265Y711093D01*
X130420Y710826D01*
X129554Y710634D01*
X128676Y710519D01*
X127790Y710480D01*
X126905Y710519D01*
X126026Y710634D01*
X125160Y710826D01*
X124315Y711093D01*
X123496Y711432D01*
X122710Y711841D01*
X121962Y712317D01*
X121259Y712857D01*
X120606Y713456D01*
X120007Y714109D01*
X119467Y714812D01*
X118991Y715560D01*
X118582Y716346D01*
X118243Y717165D01*
X117976Y718010D01*
X117784Y718876D01*
X117669Y719755D01*
X117630Y720640D01*
X117630Y725720D01*
X117611Y726163D01*
X117553Y726602D01*
X117457Y727035D01*
X117324Y727457D01*
X117154Y727867D01*
X116949Y728260D01*
X116711Y728634D01*
X116442Y728985D01*
X116142Y729312D01*
X115815Y729612D01*
X115464Y729881D01*
X115090Y730119D01*
X114697Y730324D01*
X114287Y730494D01*
X113865Y730627D01*
X113432Y730723D01*
X112993Y730781D01*
X112550Y730800D01*
X112107Y730781D01*
X111668Y730723D01*
X111235Y730627D01*
X111205Y730619D01*
X46510Y713020D01*
X46076Y712877D01*
X45657Y712696D01*
X45255Y712479D01*
X44873Y712228D01*
X44514Y711945D01*
X44182Y711632D01*
X43878Y711291D01*
X43605Y710924D01*
X43365Y710536D01*
X43160Y710128D01*
X42991Y709703D01*
X42860Y709266D01*
X42767Y708818D01*
X42714Y708365D01*
X42700Y707940D01*
X42700Y652060D01*
X42700Y135550D02*
X42724Y134997D01*
X42796Y134447D01*
X42916Y133907D01*
X43083Y133378D01*
X43295Y132866D01*
X43551Y132375D01*
X43848Y131908D01*
X44186Y131468D01*
X44560Y131060D01*
X44968Y130686D01*
X45408Y130348D01*
X45875Y130051D01*
X46366Y129795D01*
X46878Y129583D01*
X47407Y129416D01*
X47947Y129296D01*
X48497Y129224D01*
X49050Y129200D01*
X113820Y129200D01*
X117630Y133010D01*
X117630Y139360D01*
X117669Y140246D01*
X117784Y141124D01*
X117976Y141990D01*
X118243Y142835D01*
X118582Y143654D01*
X118991Y144440D01*
X119467Y145188D01*
X120007Y145891D01*
X120606Y146544D01*
X121259Y147143D01*
X121962Y147683D01*
X122710Y148159D01*
X123496Y148568D01*
X124315Y148907D01*
X125160Y149174D01*
X126026Y149366D01*
X126905Y149481D01*
X127790Y149520D01*
X128676Y149481D01*
X129554Y149366D01*
X130420Y149174D01*
X131265Y148907D01*
X132084Y148568D01*
X132870Y148159D01*
X133618Y147683D01*
X134321Y147143D01*
X134974Y146544D01*
X135573Y145891D01*
X136113Y145188D01*
X136589Y144440D01*
X136998Y143654D01*
X137337Y142835D01*
X137604Y141990D01*
X137796Y141124D01*
X137911Y140246D01*
X137950Y139360D01*
X137950Y133010D01*
X141760Y129200D01*
X840260Y129200D01*
X840703Y129219D01*
X841142Y129277D01*
X841575Y129373D01*
X841997Y129506D01*
X842407Y129676D01*
X842800Y129881D01*
X843174Y130119D01*
X843525Y130389D01*
X843852Y130688D01*
X844152Y131015D01*
X844421Y131366D01*
X844659Y131740D01*
X844864Y132133D01*
X845034Y132543D01*
X845167Y132965D01*
X845263Y133398D01*
X845321Y133837D01*
X845340Y134280D01*
X845340Y139360D01*
X845379Y140246D01*
X845494Y141124D01*
X845686Y141990D01*
X845953Y142835D01*
X846292Y143654D01*
X846701Y144440D01*
X847177Y145188D01*
X847717Y145891D01*
X848316Y146544D01*
X848969Y147143D01*
X849672Y147683D01*
X850420Y148159D01*
X851206Y148568D01*
X852025Y148907D01*
X852870Y149174D01*
X853736Y149366D01*
X854615Y149481D01*
X855500Y149520D01*
X856386Y149481D01*
X857264Y149366D01*
X858130Y149174D01*
X858975Y148907D01*
X859794Y148568D01*
X860580Y148159D01*
X861328Y147683D01*
X862031Y147143D01*
X862684Y146544D01*
X863283Y145891D01*
X863823Y145188D01*
X864299Y144440D01*
X864708Y143654D01*
X865047Y142835D01*
X865314Y141990D01*
X865506Y141124D01*
X865621Y140246D01*
X865660Y139360D01*
X865660Y134280D01*
X865679Y133837D01*
X865737Y133398D01*
X865833Y132965D01*
X865966Y132543D01*
X866136Y132133D01*
X866341Y131740D01*
X866579Y131366D01*
X866848Y131015D01*
X867148Y130688D01*
X867475Y130388D01*
X867826Y130119D01*
X868200Y129881D01*
X868593Y129676D01*
X869003Y129506D01*
X869425Y129373D01*
X869858Y129277D01*
X870297Y129219D01*
X870740Y129200D01*
X871183Y129219D01*
X871622Y129277D01*
X872055Y129373D01*
X872085Y129381D01*
X936780Y146980D01*
X937214Y147123D01*
X937633Y147304D01*
X938035Y147521D01*
X938417Y147772D01*
X938776Y148055D01*
X939108Y148368D01*
X939412Y148709D01*
X939685Y149076D01*
X939925Y149464D01*
X940130Y149872D01*
X940299Y150297D01*
X940430Y150734D01*
X940523Y151182D01*
X940576Y151635D01*
X940590Y152060D01*
X940590Y207940D01*
X940574Y208397D01*
X940518Y208850D01*
X940422Y209297D01*
X940288Y209733D01*
X940117Y210157D01*
X939909Y210564D01*
X939667Y210951D01*
X939392Y211316D01*
X939086Y211655D01*
X938751Y211966D01*
X938391Y212247D01*
X938008Y212496D01*
X937604Y212710D01*
X937184Y212888D01*
X936780Y213020D01*
X872085Y230619D01*
X871653Y230717D01*
X871214Y230778D01*
X870771Y230800D01*
X870328Y230783D01*
X869889Y230728D01*
X869455Y230635D01*
X869032Y230504D01*
X868621Y230337D01*
X868227Y230135D01*
X867852Y229899D01*
X867498Y229631D01*
X867170Y229334D01*
X866869Y229009D01*
X866597Y228659D01*
X866356Y228287D01*
X866149Y227895D01*
X865977Y227487D01*
X865841Y227065D01*
X865743Y226633D01*
X865682Y226194D01*
X865660Y225751D01*
X865660Y225720D01*
X865660Y220640D01*
X865621Y219755D01*
X865506Y218876D01*
X865314Y218010D01*
X865047Y217165D01*
X864708Y216346D01*
X864299Y215560D01*
X863823Y214812D01*
X863283Y214109D01*
X862684Y213456D01*
X862031Y212857D01*
X861328Y212317D01*
X860580Y211841D01*
X859794Y211432D01*
X858975Y211093D01*
X858130Y210826D01*
X857264Y210634D01*
X856386Y210519D01*
X855500Y210480D01*
X854615Y210519D01*
X853736Y210634D01*
X852870Y210826D01*
X852025Y211093D01*
X851206Y211432D01*
X850420Y211841D01*
X849672Y212317D01*
X848969Y212857D01*
X848316Y213456D01*
X847717Y214109D01*
X847177Y214812D01*
X846701Y215560D01*
X846292Y216346D01*
X845953Y217165D01*
X845686Y218010D01*
X845494Y218876D01*
X845379Y219755D01*
X845340Y220640D01*
X845340Y225720D01*
X845321Y226163D01*
X845263Y226602D01*
X845167Y227035D01*
X845034Y227457D01*
X844864Y227867D01*
X844659Y228260D01*
X844421Y228634D01*
X844152Y228985D01*
X843852Y229312D01*
X843525Y229612D01*
X843174Y229881D01*
X842800Y230119D01*
X842407Y230324D01*
X841997Y230494D01*
X841575Y230627D01*
X841142Y230723D01*
X840703Y230781D01*
X840260Y230800D01*
X141760Y230800D01*
X137950Y226990D01*
X137950Y220640D01*
X137911Y219755D01*
X137796Y218876D01*
X137604Y218010D01*
X137337Y217165D01*
X136998Y216346D01*
X136589Y215560D01*
X136113Y214812D01*
X135573Y214109D01*
X134974Y213456D01*
X134321Y212857D01*
X133618Y212317D01*
X132870Y211841D01*
X132084Y211432D01*
X131265Y211093D01*
X130420Y210826D01*
X129554Y210634D01*
X128676Y210519D01*
X127790Y210480D01*
X126905Y210519D01*
X126026Y210634D01*
X125160Y210826D01*
X124315Y211093D01*
X123496Y211432D01*
X122710Y211841D01*
X121962Y212317D01*
X121259Y212857D01*
X120606Y213456D01*
X120007Y214109D01*
X119467Y214812D01*
X118991Y215560D01*
X118582Y216346D01*
X118243Y217165D01*
X117976Y218010D01*
X117784Y218876D01*
X117669Y219755D01*
X117630Y220640D01*
X117630Y226990D01*
X113820Y230800D01*
X49050Y230800D01*
X48497Y230776D01*
X47947Y230704D01*
X47407Y230584D01*
X46878Y230417D01*
X46366Y230205D01*
X45875Y229949D01*
X45408Y229652D01*
X44968Y229314D01*
X44560Y228940D01*
X44186Y228532D01*
X43848Y228092D01*
X43551Y227625D01*
X43295Y227134D01*
X43083Y226622D01*
X42916Y226094D01*
X42796Y225553D01*
X42724Y225003D01*
X42700Y224450D01*
X42700Y135550D01*
X875660Y633800D02*
X886660Y633800D01*
X886921Y633811D01*
X887181Y633846D01*
X887436Y633902D01*
X887686Y633981D01*
X887928Y634081D01*
X888160Y634202D01*
X888381Y634343D01*
X888588Y634502D01*
X888781Y634679D01*
X888958Y634872D01*
X889117Y635079D01*
X889258Y635300D01*
X889379Y635532D01*
X889479Y635774D01*
X889558Y636024D01*
X889614Y636279D01*
X889649Y636539D01*
X889660Y636800D01*
X889649Y637061D01*
X889614Y637321D01*
X889558Y637576D01*
X889479Y637826D01*
X889379Y638068D01*
X889258Y638300D01*
X889117Y638521D01*
X888958Y638728D01*
X888781Y638921D01*
X888588Y639098D01*
X888381Y639257D01*
X888160Y639398D01*
X887928Y639519D01*
X887686Y639619D01*
X887436Y639698D01*
X887181Y639754D01*
X886921Y639789D01*
X886660Y639800D01*
X875660Y639800D01*
X875399Y639789D01*
X875139Y639754D01*
X874884Y639698D01*
X874634Y639619D01*
X874392Y639519D01*
X874160Y639398D01*
X873939Y639257D01*
X873732Y639098D01*
X873539Y638921D01*
X873362Y638728D01*
X873203Y638521D01*
X873062Y638300D01*
X872941Y638068D01*
X872841Y637826D01*
X872762Y637576D01*
X872706Y637321D01*
X872671Y637061D01*
X872660Y636800D01*
X872671Y636539D01*
X872706Y636279D01*
X872762Y636024D01*
X872841Y635774D01*
X872941Y635532D01*
X873062Y635300D01*
X873203Y635079D01*
X873362Y634872D01*
X873539Y634679D01*
X873732Y634502D01*
X873939Y634343D01*
X874160Y634202D01*
X874392Y634081D01*
X874634Y633981D01*
X874884Y633902D01*
X875139Y633846D01*
X875399Y633811D01*
X875660Y633800D01*
X875660Y720200D02*
X886660Y720200D01*
X886921Y720211D01*
X887181Y720246D01*
X887436Y720302D01*
X887686Y720381D01*
X887928Y720481D01*
X888160Y720602D01*
X888381Y720743D01*
X888588Y720902D01*
X888781Y721079D01*
X888958Y721272D01*
X889117Y721479D01*
X889258Y721700D01*
X889379Y721932D01*
X889479Y722174D01*
X889558Y722424D01*
X889614Y722679D01*
X889649Y722939D01*
X889660Y723200D01*
X889649Y723461D01*
X889614Y723721D01*
X889558Y723976D01*
X889479Y724226D01*
X889379Y724468D01*
X889258Y724700D01*
X889117Y724921D01*
X888958Y725128D01*
X888781Y725321D01*
X888588Y725498D01*
X888381Y725657D01*
X888160Y725798D01*
X887928Y725919D01*
X887686Y726019D01*
X887436Y726098D01*
X887181Y726154D01*
X886921Y726189D01*
X886660Y726200D01*
X875660Y726200D01*
X875399Y726189D01*
X875139Y726154D01*
X874884Y726098D01*
X874634Y726019D01*
X874392Y725919D01*
X874160Y725798D01*
X873939Y725657D01*
X873732Y725498D01*
X873539Y725321D01*
X873362Y725128D01*
X873203Y724921D01*
X873062Y724700D01*
X872941Y724468D01*
X872841Y724226D01*
X872762Y723976D01*
X872706Y723721D01*
X872671Y723461D01*
X872660Y723200D01*
X872671Y722939D01*
X872706Y722679D01*
X872762Y722424D01*
X872841Y722174D01*
X872941Y721932D01*
X873062Y721700D01*
X873203Y721479D01*
X873362Y721272D01*
X873539Y721079D01*
X873732Y720902D01*
X873939Y720743D01*
X874160Y720602D01*
X874392Y720481D01*
X874634Y720381D01*
X874884Y720302D01*
X875139Y720246D01*
X875399Y720211D01*
X875660Y720200D01*
X919810Y633800D02*
X926010Y633800D01*
X926271Y633811D01*
X926531Y633846D01*
X926786Y633902D01*
X927036Y633981D01*
X927278Y634081D01*
X927510Y634202D01*
X927731Y634343D01*
X927938Y634502D01*
X928131Y634679D01*
X928308Y634872D01*
X928467Y635079D01*
X928608Y635300D01*
X928729Y635532D01*
X928829Y635774D01*
X928908Y636024D01*
X928964Y636279D01*
X928999Y636539D01*
X929010Y636800D01*
X928999Y637061D01*
X928964Y637321D01*
X928908Y637576D01*
X928829Y637826D01*
X928729Y638068D01*
X928608Y638300D01*
X928467Y638521D01*
X928308Y638728D01*
X928131Y638921D01*
X927938Y639098D01*
X927731Y639257D01*
X927510Y639398D01*
X927278Y639519D01*
X927036Y639619D01*
X926786Y639698D01*
X926531Y639754D01*
X926271Y639789D01*
X926010Y639800D01*
X919810Y639800D01*
X919549Y639789D01*
X919289Y639754D01*
X919034Y639698D01*
X918784Y639619D01*
X918542Y639519D01*
X918310Y639398D01*
X918089Y639257D01*
X917882Y639098D01*
X917689Y638921D01*
X917512Y638728D01*
X917353Y638521D01*
X917212Y638300D01*
X917091Y638068D01*
X916991Y637826D01*
X916912Y637576D01*
X916856Y637321D01*
X916821Y637061D01*
X916810Y636800D01*
X916821Y636539D01*
X916856Y636279D01*
X916912Y636024D01*
X916991Y635774D01*
X917091Y635532D01*
X917212Y635300D01*
X917353Y635079D01*
X917512Y634872D01*
X917689Y634679D01*
X917882Y634502D01*
X918089Y634343D01*
X918310Y634202D01*
X918542Y634081D01*
X918784Y633981D01*
X919034Y633902D01*
X919289Y633846D01*
X919549Y633811D01*
X919810Y633800D01*
X919810Y720200D02*
X926010Y720200D01*
X926271Y720211D01*
X926531Y720246D01*
X926786Y720302D01*
X927036Y720381D01*
X927278Y720481D01*
X927510Y720602D01*
X927731Y720743D01*
X927938Y720902D01*
X928131Y721079D01*
X928308Y721272D01*
X928467Y721479D01*
X928608Y721700D01*
X928729Y721932D01*
X928829Y722174D01*
X928908Y722424D01*
X928964Y722679D01*
X928999Y722939D01*
X929010Y723200D01*
X928999Y723461D01*
X928964Y723721D01*
X928908Y723976D01*
X928829Y724226D01*
X928729Y724468D01*
X928608Y724700D01*
X928467Y724921D01*
X928308Y725128D01*
X928131Y725321D01*
X927938Y725498D01*
X927731Y725657D01*
X927510Y725798D01*
X927278Y725919D01*
X927036Y726019D01*
X926786Y726098D01*
X926531Y726154D01*
X926271Y726189D01*
X926010Y726200D01*
X919810Y726200D01*
X919549Y726189D01*
X919289Y726154D01*
X919034Y726098D01*
X918784Y726019D01*
X918542Y725919D01*
X918310Y725798D01*
X918089Y725657D01*
X917882Y725498D01*
X917689Y725321D01*
X917512Y725128D01*
X917353Y724921D01*
X917212Y724700D01*
X917091Y724468D01*
X916991Y724226D01*
X916912Y723976D01*
X916856Y723721D01*
X916821Y723461D01*
X916810Y723200D01*
X916821Y722939D01*
X916856Y722679D01*
X916912Y722424D01*
X916991Y722174D01*
X917091Y721932D01*
X917212Y721700D01*
X917353Y721479D01*
X917512Y721272D01*
X917689Y721079D01*
X917882Y720902D01*
X918089Y720743D01*
X918310Y720602D01*
X918542Y720481D01*
X918784Y720381D01*
X919034Y720302D01*
X919289Y720246D01*
X919549Y720211D01*
X919810Y720200D01*
X57280Y133800D02*
X63480Y133800D01*
X63741Y133811D01*
X64001Y133846D01*
X64256Y133902D01*
X64506Y133981D01*
X64748Y134081D01*
X64980Y134202D01*
X65201Y134343D01*
X65408Y134502D01*
X65601Y134679D01*
X65778Y134872D01*
X65937Y135079D01*
X66078Y135300D01*
X66199Y135532D01*
X66299Y135774D01*
X66378Y136024D01*
X66434Y136279D01*
X66469Y136539D01*
X66480Y136800D01*
X66469Y137061D01*
X66434Y137321D01*
X66378Y137576D01*
X66299Y137826D01*
X66199Y138068D01*
X66078Y138300D01*
X65937Y138521D01*
X65778Y138728D01*
X65601Y138921D01*
X65408Y139098D01*
X65201Y139257D01*
X64980Y139398D01*
X64748Y139519D01*
X64506Y139619D01*
X64256Y139698D01*
X64001Y139754D01*
X63741Y139789D01*
X63480Y139800D01*
X57280Y139800D01*
X57019Y139789D01*
X56759Y139754D01*
X56504Y139698D01*
X56254Y139619D01*
X56012Y139519D01*
X55780Y139398D01*
X55559Y139257D01*
X55352Y139098D01*
X55159Y138921D01*
X54982Y138728D01*
X54823Y138521D01*
X54682Y138300D01*
X54561Y138068D01*
X54461Y137826D01*
X54382Y137576D01*
X54326Y137321D01*
X54291Y137061D01*
X54280Y136800D01*
X54291Y136539D01*
X54326Y136279D01*
X54382Y136024D01*
X54461Y135774D01*
X54561Y135532D01*
X54682Y135300D01*
X54823Y135079D01*
X54982Y134872D01*
X55159Y134679D01*
X55352Y134502D01*
X55559Y134343D01*
X55780Y134202D01*
X56012Y134081D01*
X56254Y133981D01*
X56504Y133902D01*
X56759Y133846D01*
X57019Y133811D01*
X57280Y133800D01*
X57280Y220200D02*
X63480Y220200D01*
X63741Y220211D01*
X64001Y220246D01*
X64256Y220302D01*
X64506Y220381D01*
X64748Y220481D01*
X64980Y220602D01*
X65201Y220743D01*
X65408Y220902D01*
X65601Y221079D01*
X65778Y221272D01*
X65937Y221479D01*
X66078Y221700D01*
X66199Y221932D01*
X66299Y222174D01*
X66378Y222424D01*
X66434Y222679D01*
X66469Y222939D01*
X66480Y223200D01*
X66469Y223461D01*
X66434Y223721D01*
X66378Y223976D01*
X66299Y224226D01*
X66199Y224468D01*
X66078Y224700D01*
X65937Y224921D01*
X65778Y225128D01*
X65601Y225321D01*
X65408Y225498D01*
X65201Y225657D01*
X64980Y225798D01*
X64748Y225919D01*
X64506Y226019D01*
X64256Y226098D01*
X64001Y226154D01*
X63741Y226189D01*
X63480Y226200D01*
X57280Y226200D01*
X57019Y226189D01*
X56759Y226154D01*
X56504Y226098D01*
X56254Y226019D01*
X56012Y225919D01*
X55780Y225798D01*
X55559Y225657D01*
X55352Y225498D01*
X55159Y225321D01*
X54982Y225128D01*
X54823Y224921D01*
X54682Y224700D01*
X54561Y224468D01*
X54461Y224226D01*
X54382Y223976D01*
X54326Y223721D01*
X54291Y223461D01*
X54280Y223200D01*
X54291Y222939D01*
X54326Y222679D01*
X54382Y222424D01*
X54461Y222174D01*
X54561Y221932D01*
X54682Y221700D01*
X54823Y221479D01*
X54982Y221272D01*
X55159Y221079D01*
X55352Y220902D01*
X55559Y220743D01*
X55780Y220602D01*
X56012Y220481D01*
X56254Y220381D01*
X56504Y220302D01*
X56759Y220246D01*
X57019Y220211D01*
X57280Y220200D01*
X96617Y205650D02*
X96195Y205706D01*
X95783Y205816D01*
X95389Y205979D01*
X95021Y206192D01*
X94683Y206451D01*
X94381Y206753D01*
X94122Y207091D01*
X93909Y207459D01*
X93746Y207853D01*
X93636Y208265D01*
X93580Y208687D01*
X93580Y209113D01*
X93636Y209535D01*
X93746Y209947D01*
X93909Y210341D01*
X94122Y210709D01*
X94381Y211047D01*
X94683Y211349D01*
X95021Y211608D01*
X95389Y211821D01*
X95783Y211984D01*
X96195Y212094D01*
X96617Y212150D01*
X97043Y212150D01*
X97465Y212094D01*
X97877Y211984D01*
X98271Y211821D01*
X98639Y211608D01*
X98977Y211349D01*
X99279Y211047D01*
X99538Y210709D01*
X99751Y210341D01*
X99914Y209947D01*
X100024Y209535D01*
X100080Y209113D01*
X100080Y208687D01*
X100024Y208265D01*
X99914Y207853D01*
X99751Y207459D01*
X99538Y207091D01*
X99279Y206753D01*
X98977Y206451D01*
X98639Y206192D01*
X98271Y205979D01*
X97877Y205816D01*
X97465Y205706D01*
X97043Y205650D01*
X96617Y205650D01*
X96617Y147850D02*
X96195Y147906D01*
X95783Y148016D01*
X95389Y148179D01*
X95021Y148392D01*
X94683Y148651D01*
X94381Y148953D01*
X94122Y149291D01*
X93909Y149659D01*
X93746Y150053D01*
X93636Y150465D01*
X93580Y150887D01*
X93580Y151313D01*
X93636Y151735D01*
X93746Y152147D01*
X93909Y152541D01*
X94122Y152909D01*
X94381Y153247D01*
X94683Y153549D01*
X95021Y153808D01*
X95389Y154021D01*
X95783Y154184D01*
X96195Y154294D01*
X96617Y154350D01*
X97043Y154350D01*
X97465Y154294D01*
X97877Y154184D01*
X98271Y154021D01*
X98639Y153808D01*
X98977Y153549D01*
X99279Y153247D01*
X99538Y152909D01*
X99751Y152541D01*
X99914Y152147D01*
X100024Y151735D01*
X100080Y151313D01*
X100080Y150887D01*
X100024Y150465D01*
X99914Y150053D01*
X99751Y149659D01*
X99538Y149291D01*
X99279Y148953D01*
X98977Y148651D01*
X98639Y148392D01*
X98271Y148179D01*
X97877Y148016D01*
X97465Y147906D01*
X97043Y147850D01*
X96617Y147850D01*
X886673Y705650D02*
X887095Y705706D01*
X887507Y705816D01*
X887901Y705979D01*
X888269Y706192D01*
X888607Y706451D01*
X888909Y706753D01*
X889168Y707091D01*
X889381Y707459D01*
X889544Y707853D01*
X889654Y708265D01*
X889710Y708687D01*
X889710Y709113D01*
X889654Y709535D01*
X889544Y709947D01*
X889381Y710341D01*
X889168Y710709D01*
X888909Y711047D01*
X888607Y711349D01*
X888269Y711608D01*
X887901Y711821D01*
X887507Y711984D01*
X887095Y712094D01*
X886673Y712150D01*
X886247Y712150D01*
X885825Y712094D01*
X885413Y711984D01*
X885019Y711821D01*
X884651Y711608D01*
X884313Y711349D01*
X884011Y711047D01*
X883752Y710709D01*
X883539Y710341D01*
X883376Y709947D01*
X883266Y709535D01*
X883210Y709113D01*
X883210Y708687D01*
X883266Y708265D01*
X883376Y707853D01*
X883539Y707459D01*
X883752Y707091D01*
X884011Y706753D01*
X884313Y706451D01*
X884651Y706192D01*
X885019Y705979D01*
X885413Y705816D01*
X885825Y705706D01*
X886247Y705650D01*
X886673Y705650D01*
X886673Y647850D02*
X887095Y647906D01*
X887507Y648016D01*
X887901Y648179D01*
X888269Y648392D01*
X888607Y648651D01*
X888909Y648953D01*
X889168Y649291D01*
X889381Y649659D01*
X889544Y650053D01*
X889654Y650465D01*
X889710Y650887D01*
X889710Y651313D01*
X889654Y651735D01*
X889544Y652147D01*
X889381Y652541D01*
X889168Y652909D01*
X888909Y653247D01*
X888607Y653549D01*
X888269Y653808D01*
X887901Y654021D01*
X887507Y654184D01*
X887095Y654294D01*
X886673Y654350D01*
X886247Y654350D01*
X885825Y654294D01*
X885413Y654184D01*
X885019Y654021D01*
X884651Y653808D01*
X884313Y653549D01*
X884011Y653247D01*
X883752Y652909D01*
X883539Y652541D01*
X883376Y652147D01*
X883266Y651735D01*
X883210Y651313D01*
X883210Y650887D01*
X883266Y650465D01*
X883376Y650053D01*
X883539Y649659D01*
X883752Y649291D01*
X884011Y648953D01*
X884313Y648651D01*
X884651Y648392D01*
X885019Y648179D01*
X885413Y648016D01*
X885825Y647906D01*
X886247Y647850D01*
X886673Y647850D01*
M02*
