G04 EAGLE Gerber RS-274X export*
G75*
%MOMM*%
%FSLAX34Y34*%
%LPD*%
%INSoldermask Top*%
%IPPOS*%
%AMOC8*
5,1,8,0,0,1.08239X$1,22.5*%
G01*
%ADD10C,1.524000*%
%ADD11C,0.914400*%
%ADD12C,0.635000*%
%ADD13C,0.660400*%
%ADD14C,0.558800*%
%ADD15C,0.508000*%
%ADD16C,0.711200*%
%ADD17C,0.406400*%
%ADD18C,0.272541*%
%ADD19C,0.598416*%
%ADD20C,0.277131*%
%ADD21C,0.339047*%
%ADD22C,0.345181*%
%ADD23C,0.234866*%
%ADD24C,0.421450*%
%ADD25C,0.700800*%
%ADD26C,0.414550*%
%ADD27C,0.309372*%
%ADD28C,0.246731*%
%ADD29C,0.340272*%
%ADD30C,0.406222*%
%ADD31C,0.201747*%
%ADD32C,0.445606*%
%ADD33P,2.246825X8X112.500000*%
%ADD34C,1.050800*%
%ADD35C,0.216575*%
%ADD36C,0.252447*%
%ADD37C,0.307338*%
%ADD38C,0.369822*%
%ADD39C,0.243838*%
%ADD40C,0.275731*%
%ADD41C,2.050800*%
%ADD42C,0.280559*%
%ADD43C,0.425194*%
%ADD44C,0.182878*%

G36*
X804448Y650319D02*
X804448Y650319D01*
X804450Y650318D01*
X804493Y650338D01*
X804537Y650356D01*
X804537Y650358D01*
X804539Y650359D01*
X804572Y650444D01*
X804572Y655424D01*
X815180Y655424D01*
X815182Y655425D01*
X815184Y655424D01*
X815227Y655444D01*
X815271Y655462D01*
X815271Y655464D01*
X815273Y655465D01*
X815306Y655550D01*
X815306Y679050D01*
X815305Y679052D01*
X815306Y679054D01*
X815286Y679097D01*
X815268Y679141D01*
X815266Y679141D01*
X815265Y679143D01*
X815180Y679176D01*
X804572Y679176D01*
X804572Y684318D01*
X804571Y684320D01*
X804572Y684322D01*
X804552Y684365D01*
X804534Y684409D01*
X804532Y684409D01*
X804531Y684411D01*
X804446Y684444D01*
X802414Y684444D01*
X802412Y684443D01*
X802410Y684444D01*
X802367Y684424D01*
X802323Y684406D01*
X802323Y684404D01*
X802321Y684403D01*
X802288Y684318D01*
X802288Y679176D01*
X797680Y679176D01*
X797678Y679175D01*
X797676Y679176D01*
X797633Y679156D01*
X797589Y679138D01*
X797589Y679136D01*
X797587Y679135D01*
X797554Y679050D01*
X797554Y655550D01*
X797555Y655548D01*
X797554Y655546D01*
X797574Y655503D01*
X797592Y655459D01*
X797594Y655459D01*
X797595Y655457D01*
X797680Y655424D01*
X802288Y655424D01*
X802288Y650444D01*
X802289Y650442D01*
X802288Y650440D01*
X802308Y650397D01*
X802326Y650353D01*
X802328Y650353D01*
X802329Y650351D01*
X802414Y650318D01*
X804446Y650318D01*
X804448Y650319D01*
G37*
G36*
X740506Y674125D02*
X740506Y674125D01*
X740508Y674124D01*
X740551Y674144D01*
X740595Y674162D01*
X740595Y674164D01*
X740597Y674165D01*
X740630Y674250D01*
X740630Y678858D01*
X745610Y678858D01*
X745612Y678859D01*
X745614Y678858D01*
X745657Y678878D01*
X745701Y678896D01*
X745701Y678898D01*
X745703Y678899D01*
X745736Y678984D01*
X745736Y681016D01*
X745735Y681018D01*
X745736Y681020D01*
X745716Y681063D01*
X745698Y681107D01*
X745696Y681107D01*
X745695Y681109D01*
X745610Y681142D01*
X740630Y681142D01*
X740630Y691750D01*
X740629Y691752D01*
X740630Y691754D01*
X740610Y691797D01*
X740592Y691841D01*
X740590Y691841D01*
X740589Y691843D01*
X740504Y691876D01*
X717004Y691876D01*
X717002Y691875D01*
X717000Y691876D01*
X716957Y691856D01*
X716913Y691838D01*
X716913Y691836D01*
X716911Y691835D01*
X716878Y691750D01*
X716878Y681142D01*
X711736Y681142D01*
X711734Y681141D01*
X711732Y681142D01*
X711689Y681122D01*
X711645Y681104D01*
X711645Y681102D01*
X711643Y681101D01*
X711610Y681016D01*
X711610Y678984D01*
X711611Y678982D01*
X711610Y678980D01*
X711630Y678937D01*
X711648Y678893D01*
X711650Y678893D01*
X711651Y678891D01*
X711736Y678858D01*
X716878Y678858D01*
X716878Y674250D01*
X716879Y674248D01*
X716878Y674246D01*
X716898Y674203D01*
X716916Y674159D01*
X716918Y674159D01*
X716919Y674157D01*
X717004Y674124D01*
X740504Y674124D01*
X740506Y674125D01*
G37*
G36*
X108084Y217154D02*
X108084Y217154D01*
X108087Y217151D01*
X109209Y217306D01*
X109214Y217311D01*
X109218Y217308D01*
X110289Y217679D01*
X110293Y217685D01*
X110298Y217683D01*
X111275Y218256D01*
X111278Y218262D01*
X111283Y218261D01*
X112130Y219014D01*
X112132Y219021D01*
X112137Y219021D01*
X112821Y219924D01*
X112821Y219931D01*
X112826Y219932D01*
X113321Y220951D01*
X113319Y220958D01*
X113324Y220960D01*
X113611Y222057D01*
X113609Y222061D01*
X113611Y222062D01*
X113609Y222064D01*
X113612Y222066D01*
X113679Y223197D01*
X113677Y223201D01*
X113679Y223203D01*
X113612Y224334D01*
X113607Y224339D01*
X113611Y224343D01*
X113324Y225440D01*
X113318Y225444D01*
X113321Y225449D01*
X112826Y226468D01*
X112820Y226471D01*
X112821Y226476D01*
X112137Y227379D01*
X112130Y227381D01*
X112130Y227386D01*
X111283Y228139D01*
X111276Y228139D01*
X111275Y228144D01*
X110298Y228717D01*
X110291Y228716D01*
X110289Y228721D01*
X109218Y229092D01*
X109212Y229089D01*
X109209Y229094D01*
X108087Y229249D01*
X108082Y229246D01*
X108080Y229249D01*
X96080Y229249D01*
X96075Y229246D01*
X96072Y229249D01*
X94805Y229044D01*
X94799Y229038D01*
X94795Y229041D01*
X93605Y228559D01*
X93601Y228552D01*
X93595Y228554D01*
X92542Y227820D01*
X92540Y227812D01*
X92534Y227813D01*
X91671Y226863D01*
X91670Y226854D01*
X91665Y226854D01*
X91035Y225735D01*
X91036Y225727D01*
X91030Y225725D01*
X90665Y224495D01*
X90668Y224487D01*
X90663Y224484D01*
X90581Y223203D01*
X90584Y223199D01*
X90581Y223197D01*
X90663Y221916D01*
X90669Y221910D01*
X90665Y221905D01*
X91030Y220675D01*
X91037Y220670D01*
X91035Y220665D01*
X91665Y219546D01*
X91672Y219543D01*
X91671Y219537D01*
X92534Y218587D01*
X92542Y218586D01*
X92542Y218580D01*
X93595Y217846D01*
X93603Y217846D01*
X93605Y217841D01*
X94795Y217359D01*
X94802Y217361D01*
X94805Y217356D01*
X96072Y217151D01*
X96077Y217154D01*
X96080Y217151D01*
X108080Y217151D01*
X108084Y217154D01*
G37*
G36*
X108084Y130754D02*
X108084Y130754D01*
X108087Y130751D01*
X109209Y130906D01*
X109214Y130911D01*
X109218Y130908D01*
X110289Y131279D01*
X110293Y131285D01*
X110298Y131283D01*
X111275Y131856D01*
X111278Y131862D01*
X111283Y131861D01*
X112130Y132614D01*
X112132Y132621D01*
X112137Y132621D01*
X112821Y133524D01*
X112821Y133531D01*
X112826Y133532D01*
X113321Y134551D01*
X113319Y134558D01*
X113324Y134560D01*
X113611Y135657D01*
X113609Y135661D01*
X113611Y135662D01*
X113609Y135664D01*
X113612Y135666D01*
X113679Y136797D01*
X113677Y136801D01*
X113679Y136803D01*
X113612Y137934D01*
X113607Y137939D01*
X113611Y137943D01*
X113324Y139040D01*
X113318Y139044D01*
X113321Y139049D01*
X112826Y140068D01*
X112820Y140071D01*
X112821Y140076D01*
X112137Y140979D01*
X112130Y140981D01*
X112130Y140986D01*
X111283Y141739D01*
X111276Y141739D01*
X111275Y141744D01*
X110298Y142317D01*
X110291Y142316D01*
X110289Y142321D01*
X109218Y142692D01*
X109212Y142689D01*
X109209Y142694D01*
X108087Y142849D01*
X108082Y142846D01*
X108080Y142849D01*
X96080Y142849D01*
X96075Y142846D01*
X96072Y142849D01*
X94805Y142644D01*
X94799Y142638D01*
X94795Y142641D01*
X93605Y142159D01*
X93601Y142152D01*
X93595Y142154D01*
X92542Y141420D01*
X92540Y141412D01*
X92534Y141413D01*
X91671Y140463D01*
X91670Y140454D01*
X91665Y140454D01*
X91035Y139335D01*
X91036Y139327D01*
X91030Y139325D01*
X90665Y138095D01*
X90668Y138087D01*
X90663Y138084D01*
X90581Y136803D01*
X90584Y136799D01*
X90581Y136797D01*
X90663Y135516D01*
X90669Y135510D01*
X90665Y135505D01*
X91030Y134275D01*
X91037Y134270D01*
X91035Y134265D01*
X91665Y133146D01*
X91672Y133143D01*
X91671Y133137D01*
X92534Y132187D01*
X92542Y132186D01*
X92542Y132180D01*
X93595Y131446D01*
X93603Y131446D01*
X93605Y131441D01*
X94795Y130959D01*
X94802Y130961D01*
X94805Y130956D01*
X96072Y130751D01*
X96077Y130754D01*
X96080Y130751D01*
X108080Y130751D01*
X108084Y130754D01*
G37*
G36*
X887215Y717154D02*
X887215Y717154D01*
X887218Y717151D01*
X888485Y717356D01*
X888491Y717362D01*
X888496Y717359D01*
X889685Y717841D01*
X889689Y717848D01*
X889695Y717846D01*
X890748Y718580D01*
X890750Y718588D01*
X890756Y718587D01*
X891619Y719537D01*
X891620Y719546D01*
X891625Y719546D01*
X892255Y720665D01*
X892254Y720673D01*
X892260Y720675D01*
X892625Y721905D01*
X892622Y721912D01*
X892626Y721915D01*
X892625Y721915D01*
X892627Y721916D01*
X892709Y723197D01*
X892707Y723201D01*
X892709Y723203D01*
X892627Y724484D01*
X892621Y724490D01*
X892625Y724495D01*
X892260Y725725D01*
X892253Y725730D01*
X892255Y725735D01*
X891625Y726854D01*
X891618Y726857D01*
X891619Y726863D01*
X890756Y727813D01*
X890748Y727814D01*
X890748Y727820D01*
X889695Y728554D01*
X889687Y728554D01*
X889685Y728559D01*
X888496Y729041D01*
X888488Y729039D01*
X888485Y729044D01*
X887218Y729249D01*
X887213Y729246D01*
X887210Y729249D01*
X875210Y729249D01*
X875206Y729246D01*
X875203Y729249D01*
X874081Y729094D01*
X874076Y729089D01*
X874072Y729092D01*
X873001Y728721D01*
X872997Y728715D01*
X872992Y728717D01*
X872015Y728144D01*
X872012Y728138D01*
X872007Y728139D01*
X871160Y727386D01*
X871158Y727379D01*
X871153Y727379D01*
X870469Y726476D01*
X870469Y726469D01*
X870464Y726468D01*
X869969Y725449D01*
X869971Y725442D01*
X869969Y725441D01*
X869966Y725440D01*
X869679Y724343D01*
X869682Y724337D01*
X869678Y724334D01*
X869611Y723203D01*
X869613Y723199D01*
X869611Y723197D01*
X869678Y722066D01*
X869683Y722061D01*
X869679Y722057D01*
X869966Y720960D01*
X869972Y720956D01*
X869969Y720951D01*
X870464Y719932D01*
X870470Y719929D01*
X870469Y719924D01*
X871153Y719021D01*
X871160Y719019D01*
X871160Y719014D01*
X872007Y718261D01*
X872014Y718261D01*
X872015Y718256D01*
X872992Y717683D01*
X872999Y717684D01*
X873001Y717679D01*
X874072Y717308D01*
X874078Y717311D01*
X874081Y717306D01*
X875203Y717151D01*
X875208Y717154D01*
X875210Y717151D01*
X887210Y717151D01*
X887215Y717154D01*
G37*
G36*
X887215Y630754D02*
X887215Y630754D01*
X887218Y630751D01*
X888485Y630956D01*
X888491Y630962D01*
X888496Y630959D01*
X889685Y631441D01*
X889689Y631448D01*
X889695Y631446D01*
X890748Y632180D01*
X890750Y632188D01*
X890756Y632187D01*
X891619Y633137D01*
X891620Y633146D01*
X891625Y633146D01*
X892255Y634265D01*
X892254Y634273D01*
X892260Y634275D01*
X892625Y635505D01*
X892622Y635512D01*
X892626Y635515D01*
X892625Y635515D01*
X892627Y635516D01*
X892709Y636797D01*
X892707Y636801D01*
X892709Y636803D01*
X892627Y638084D01*
X892621Y638090D01*
X892625Y638095D01*
X892260Y639325D01*
X892253Y639330D01*
X892255Y639335D01*
X891625Y640454D01*
X891618Y640457D01*
X891619Y640463D01*
X890756Y641413D01*
X890748Y641414D01*
X890748Y641420D01*
X889695Y642154D01*
X889687Y642154D01*
X889685Y642159D01*
X888496Y642641D01*
X888488Y642639D01*
X888485Y642644D01*
X887218Y642849D01*
X887213Y642846D01*
X887210Y642849D01*
X875210Y642849D01*
X875206Y642846D01*
X875203Y642849D01*
X874081Y642694D01*
X874076Y642689D01*
X874072Y642692D01*
X873001Y642321D01*
X872997Y642315D01*
X872992Y642317D01*
X872015Y641744D01*
X872012Y641738D01*
X872007Y641739D01*
X871160Y640986D01*
X871158Y640979D01*
X871153Y640979D01*
X870469Y640076D01*
X870469Y640069D01*
X870464Y640068D01*
X869969Y639049D01*
X869971Y639042D01*
X869969Y639041D01*
X869966Y639040D01*
X869679Y637943D01*
X869682Y637937D01*
X869678Y637934D01*
X869611Y636803D01*
X869613Y636799D01*
X869611Y636797D01*
X869678Y635666D01*
X869683Y635661D01*
X869679Y635657D01*
X869966Y634560D01*
X869972Y634556D01*
X869969Y634551D01*
X870464Y633532D01*
X870470Y633529D01*
X870469Y633524D01*
X871153Y632621D01*
X871160Y632619D01*
X871160Y632614D01*
X872007Y631861D01*
X872014Y631861D01*
X872015Y631856D01*
X872992Y631283D01*
X872999Y631284D01*
X873001Y631279D01*
X874072Y630908D01*
X874078Y630911D01*
X874081Y630906D01*
X875203Y630751D01*
X875208Y630754D01*
X875210Y630751D01*
X887210Y630751D01*
X887215Y630754D01*
G37*
G36*
X926013Y717153D02*
X926013Y717153D01*
X926015Y717151D01*
X927180Y717271D01*
X927186Y717276D01*
X927190Y717273D01*
X928309Y717617D01*
X928313Y717623D01*
X928318Y717621D01*
X929349Y718178D01*
X929352Y718184D01*
X929357Y718183D01*
X930259Y718930D01*
X930261Y718937D01*
X930266Y718937D01*
X931005Y719845D01*
X931005Y719852D01*
X931010Y719853D01*
X931558Y720889D01*
X931557Y720896D01*
X931562Y720897D01*
X931897Y722020D01*
X931895Y722027D01*
X931899Y722029D01*
X932009Y723195D01*
X932005Y723202D01*
X932009Y723205D01*
X931865Y724536D01*
X931859Y724541D01*
X931862Y724546D01*
X931426Y725811D01*
X931419Y725816D01*
X931421Y725821D01*
X930714Y726957D01*
X930706Y726960D01*
X930707Y726966D01*
X929765Y727916D01*
X929757Y727917D01*
X929756Y727922D01*
X928626Y728639D01*
X928618Y728638D01*
X928616Y728644D01*
X927355Y729091D01*
X927348Y729089D01*
X927345Y729094D01*
X926016Y729249D01*
X926012Y729247D01*
X926010Y729249D01*
X920010Y729249D01*
X920007Y729247D01*
X920005Y729249D01*
X918663Y729103D01*
X918657Y729098D01*
X918653Y729101D01*
X917377Y728661D01*
X917373Y728654D01*
X917367Y728656D01*
X916222Y727943D01*
X916219Y727935D01*
X916213Y727936D01*
X915255Y726986D01*
X915254Y726978D01*
X915248Y726977D01*
X914526Y725838D01*
X914526Y725833D01*
X914525Y725832D01*
X914526Y725830D01*
X914521Y725828D01*
X914070Y724557D01*
X914071Y724553D01*
X914069Y724552D01*
X914072Y724548D01*
X914068Y724546D01*
X913911Y723206D01*
X913915Y723199D01*
X913911Y723195D01*
X914032Y722020D01*
X914037Y722015D01*
X914034Y722011D01*
X914381Y720882D01*
X914387Y720878D01*
X914385Y720873D01*
X914946Y719834D01*
X914953Y719831D01*
X914951Y719826D01*
X915704Y718916D01*
X915711Y718914D01*
X915711Y718909D01*
X916627Y718163D01*
X916635Y718163D01*
X916635Y718158D01*
X917679Y717606D01*
X917687Y717607D01*
X917688Y717602D01*
X918820Y717264D01*
X918827Y717266D01*
X918829Y717262D01*
X920005Y717151D01*
X920008Y717153D01*
X920010Y717151D01*
X926010Y717151D01*
X926013Y717153D01*
G37*
G36*
X926013Y630753D02*
X926013Y630753D01*
X926015Y630751D01*
X927180Y630871D01*
X927186Y630876D01*
X927190Y630873D01*
X928309Y631217D01*
X928313Y631223D01*
X928318Y631221D01*
X929349Y631778D01*
X929352Y631784D01*
X929357Y631783D01*
X930259Y632530D01*
X930261Y632537D01*
X930266Y632537D01*
X931005Y633445D01*
X931005Y633452D01*
X931010Y633453D01*
X931558Y634489D01*
X931557Y634496D01*
X931562Y634497D01*
X931897Y635620D01*
X931895Y635627D01*
X931899Y635629D01*
X932009Y636795D01*
X932005Y636802D01*
X932009Y636805D01*
X931865Y638136D01*
X931859Y638141D01*
X931862Y638146D01*
X931426Y639411D01*
X931419Y639416D01*
X931421Y639421D01*
X930714Y640557D01*
X930706Y640560D01*
X930707Y640566D01*
X929765Y641516D01*
X929757Y641517D01*
X929756Y641522D01*
X928626Y642239D01*
X928618Y642238D01*
X928616Y642244D01*
X927355Y642691D01*
X927348Y642689D01*
X927345Y642694D01*
X926016Y642849D01*
X926012Y642847D01*
X926010Y642849D01*
X920010Y642849D01*
X920007Y642847D01*
X920005Y642849D01*
X918663Y642703D01*
X918657Y642698D01*
X918653Y642701D01*
X917377Y642261D01*
X917373Y642254D01*
X917367Y642256D01*
X916222Y641543D01*
X916219Y641535D01*
X916213Y641536D01*
X915255Y640586D01*
X915254Y640578D01*
X915248Y640577D01*
X914526Y639438D01*
X914526Y639433D01*
X914525Y639432D01*
X914526Y639430D01*
X914521Y639428D01*
X914070Y638157D01*
X914071Y638153D01*
X914069Y638152D01*
X914072Y638148D01*
X914068Y638146D01*
X913911Y636806D01*
X913915Y636799D01*
X913911Y636795D01*
X914032Y635620D01*
X914037Y635615D01*
X914034Y635611D01*
X914381Y634482D01*
X914387Y634478D01*
X914385Y634473D01*
X914946Y633434D01*
X914953Y633431D01*
X914951Y633426D01*
X915704Y632516D01*
X915711Y632514D01*
X915711Y632509D01*
X916627Y631763D01*
X916635Y631763D01*
X916635Y631758D01*
X917679Y631206D01*
X917687Y631207D01*
X917688Y631202D01*
X918820Y630864D01*
X918827Y630866D01*
X918829Y630862D01*
X920005Y630751D01*
X920008Y630753D01*
X920010Y630751D01*
X926010Y630751D01*
X926013Y630753D01*
G37*
G36*
X63283Y217153D02*
X63283Y217153D01*
X63285Y217151D01*
X64461Y217262D01*
X64466Y217267D01*
X64470Y217264D01*
X65602Y217602D01*
X65606Y217608D01*
X65611Y217606D01*
X66655Y218158D01*
X66658Y218165D01*
X66663Y218163D01*
X67579Y218909D01*
X67580Y218916D01*
X67586Y218916D01*
X68339Y219826D01*
X68339Y219833D01*
X68344Y219834D01*
X68905Y220873D01*
X68904Y220878D01*
X68908Y220880D01*
X68907Y220881D01*
X68909Y220882D01*
X69256Y222011D01*
X69256Y222012D01*
X69257Y222013D01*
X69254Y222017D01*
X69258Y222020D01*
X69379Y223195D01*
X69375Y223202D01*
X69379Y223206D01*
X69222Y224546D01*
X69217Y224552D01*
X69220Y224557D01*
X68769Y225828D01*
X68762Y225833D01*
X68764Y225838D01*
X68042Y226977D01*
X68034Y226980D01*
X68035Y226986D01*
X67077Y227936D01*
X67069Y227937D01*
X67068Y227943D01*
X65923Y228656D01*
X65915Y228655D01*
X65913Y228661D01*
X64637Y229101D01*
X64630Y229099D01*
X64627Y229103D01*
X63285Y229249D01*
X63282Y229247D01*
X63280Y229249D01*
X57280Y229249D01*
X57277Y229247D01*
X57274Y229249D01*
X55945Y229094D01*
X55939Y229088D01*
X55935Y229091D01*
X54674Y228644D01*
X54669Y228637D01*
X54664Y228639D01*
X53534Y227922D01*
X53531Y227915D01*
X53525Y227916D01*
X52583Y226966D01*
X52582Y226957D01*
X52576Y226957D01*
X51869Y225821D01*
X51870Y225813D01*
X51864Y225811D01*
X51428Y224546D01*
X51430Y224538D01*
X51425Y224536D01*
X51281Y223205D01*
X51285Y223199D01*
X51281Y223195D01*
X51391Y222029D01*
X51396Y222024D01*
X51393Y222020D01*
X51728Y220897D01*
X51734Y220893D01*
X51732Y220889D01*
X52280Y219853D01*
X52286Y219850D01*
X52285Y219845D01*
X53024Y218937D01*
X53031Y218935D01*
X53031Y218930D01*
X53933Y218183D01*
X53941Y218183D01*
X53941Y218178D01*
X54972Y217621D01*
X54979Y217622D01*
X54981Y217617D01*
X56100Y217273D01*
X56107Y217275D01*
X56110Y217271D01*
X57275Y217151D01*
X57278Y217153D01*
X57280Y217151D01*
X63280Y217151D01*
X63283Y217153D01*
G37*
G36*
X63283Y130753D02*
X63283Y130753D01*
X63285Y130751D01*
X64461Y130862D01*
X64466Y130867D01*
X64470Y130864D01*
X65602Y131202D01*
X65606Y131208D01*
X65611Y131206D01*
X66655Y131758D01*
X66658Y131765D01*
X66663Y131763D01*
X67579Y132509D01*
X67580Y132516D01*
X67586Y132516D01*
X68339Y133426D01*
X68339Y133433D01*
X68344Y133434D01*
X68905Y134473D01*
X68904Y134478D01*
X68908Y134480D01*
X68907Y134481D01*
X68909Y134482D01*
X69256Y135611D01*
X69256Y135612D01*
X69257Y135613D01*
X69254Y135617D01*
X69258Y135620D01*
X69379Y136795D01*
X69375Y136802D01*
X69379Y136806D01*
X69222Y138146D01*
X69217Y138152D01*
X69220Y138157D01*
X68769Y139428D01*
X68762Y139433D01*
X68764Y139438D01*
X68042Y140577D01*
X68034Y140580D01*
X68035Y140586D01*
X67077Y141536D01*
X67069Y141537D01*
X67068Y141543D01*
X65923Y142256D01*
X65915Y142255D01*
X65913Y142261D01*
X64637Y142701D01*
X64630Y142699D01*
X64627Y142703D01*
X63285Y142849D01*
X63282Y142847D01*
X63280Y142849D01*
X57280Y142849D01*
X57277Y142847D01*
X57274Y142849D01*
X55945Y142694D01*
X55939Y142688D01*
X55935Y142691D01*
X54674Y142244D01*
X54669Y142237D01*
X54664Y142239D01*
X53534Y141522D01*
X53531Y141515D01*
X53525Y141516D01*
X52583Y140566D01*
X52582Y140557D01*
X52576Y140557D01*
X51869Y139421D01*
X51870Y139413D01*
X51864Y139411D01*
X51428Y138146D01*
X51430Y138138D01*
X51425Y138136D01*
X51281Y136805D01*
X51285Y136799D01*
X51281Y136795D01*
X51391Y135629D01*
X51396Y135624D01*
X51393Y135620D01*
X51728Y134497D01*
X51734Y134493D01*
X51732Y134489D01*
X52280Y133453D01*
X52286Y133450D01*
X52285Y133445D01*
X53024Y132537D01*
X53031Y132535D01*
X53031Y132530D01*
X53933Y131783D01*
X53941Y131783D01*
X53941Y131778D01*
X54972Y131221D01*
X54979Y131222D01*
X54981Y131217D01*
X56100Y130873D01*
X56107Y130875D01*
X56110Y130871D01*
X57275Y130751D01*
X57278Y130753D01*
X57280Y130751D01*
X63280Y130751D01*
X63283Y130753D01*
G37*
D10*
X612930Y659680D02*
X612930Y641900D01*
D11*
X694210Y638090D02*
X825020Y638090D01*
X844070Y657140D01*
D12*
X866930Y662220D02*
X880900Y662220D01*
X874550Y648250D02*
X864390Y659680D01*
X874550Y657140D02*
X874550Y648250D01*
X874550Y657140D02*
X875820Y657140D01*
X880900Y662220D01*
X866930Y662220D02*
X864390Y659680D01*
D13*
X874550Y658410D02*
X847880Y658410D01*
X844070Y658410D01*
D14*
X844070Y654600D02*
X847880Y658410D01*
X623090Y636820D02*
X612930Y636820D01*
X616740Y643170D02*
X623090Y636820D01*
D15*
X838736Y713020D02*
X838736Y724196D01*
X838736Y713020D02*
X838736Y705400D01*
X846356Y705400D01*
X838736Y713020D01*
D16*
X742978Y653584D02*
X726214Y653584D01*
X742978Y653584D02*
X748058Y658664D01*
X761266Y658664D01*
X761266Y653584D01*
X742978Y653584D01*
D17*
X728754Y655108D02*
X722150Y655108D01*
X725198Y652060D01*
X726214Y652060D01*
D18*
X209543Y165557D02*
X209543Y158883D01*
X209543Y165557D02*
X216217Y165557D01*
X216217Y158883D01*
X209543Y158883D01*
X209543Y161472D02*
X216217Y161472D01*
X216217Y164061D02*
X209543Y164061D01*
X209543Y150317D02*
X209543Y143643D01*
X209543Y150317D02*
X216217Y150317D01*
X216217Y143643D01*
X209543Y143643D01*
X209543Y146232D02*
X216217Y146232D01*
X216217Y148821D02*
X209543Y148821D01*
X817873Y202063D02*
X817873Y208737D01*
X824547Y208737D01*
X824547Y202063D01*
X817873Y202063D01*
X817873Y204652D02*
X824547Y204652D01*
X824547Y207241D02*
X817873Y207241D01*
X817873Y193497D02*
X817873Y186823D01*
X817873Y193497D02*
X824547Y193497D01*
X824547Y186823D01*
X817873Y186823D01*
X817873Y189412D02*
X824547Y189412D01*
X824547Y192001D02*
X817873Y192001D01*
D19*
X850308Y195262D02*
X850308Y187738D01*
X850308Y195262D02*
X855832Y195262D01*
X855832Y187738D01*
X850308Y187738D01*
X850308Y193423D02*
X855832Y193423D01*
X832308Y172262D02*
X832308Y164738D01*
X832308Y172262D02*
X837832Y172262D01*
X837832Y164738D01*
X832308Y164738D01*
X832308Y170423D02*
X837832Y170423D01*
X850308Y172262D02*
X850308Y164738D01*
X850308Y172262D02*
X855832Y172262D01*
X855832Y164738D01*
X850308Y164738D01*
X850308Y170423D02*
X855832Y170423D01*
X832308Y187738D02*
X832308Y195262D01*
X837832Y195262D01*
X837832Y187738D01*
X832308Y187738D01*
X832308Y193423D02*
X837832Y193423D01*
D18*
X824547Y157937D02*
X824547Y151263D01*
X817873Y151263D01*
X817873Y157937D01*
X824547Y157937D01*
X824547Y153852D02*
X817873Y153852D01*
X817873Y156441D02*
X824547Y156441D01*
X824547Y166503D02*
X824547Y173177D01*
X824547Y166503D02*
X817873Y166503D01*
X817873Y173177D01*
X824547Y173177D01*
X824547Y169092D02*
X817873Y169092D01*
X817873Y171681D02*
X824547Y171681D01*
X193357Y185553D02*
X186683Y185553D01*
X186683Y192227D01*
X193357Y192227D01*
X193357Y185553D01*
X193357Y188142D02*
X186683Y188142D01*
X186683Y190731D02*
X193357Y190731D01*
X201923Y185553D02*
X208597Y185553D01*
X201923Y185553D02*
X201923Y192227D01*
X208597Y192227D01*
X208597Y185553D01*
X208597Y188142D02*
X201923Y188142D01*
X201923Y190731D02*
X208597Y190731D01*
X193357Y198253D02*
X186683Y198253D01*
X186683Y204927D01*
X193357Y204927D01*
X193357Y198253D01*
X193357Y200842D02*
X186683Y200842D01*
X186683Y203431D02*
X193357Y203431D01*
X201923Y198253D02*
X208597Y198253D01*
X201923Y198253D02*
X201923Y204927D01*
X208597Y204927D01*
X208597Y198253D01*
X208597Y200842D02*
X201923Y200842D01*
X201923Y203431D02*
X208597Y203431D01*
X833113Y223977D02*
X839787Y223977D01*
X839787Y217303D01*
X833113Y217303D01*
X833113Y223977D01*
X833113Y219892D02*
X839787Y219892D01*
X839787Y222481D02*
X833113Y222481D01*
X824547Y223977D02*
X817873Y223977D01*
X824547Y223977D02*
X824547Y217303D01*
X817873Y217303D01*
X817873Y223977D01*
X817873Y219892D02*
X824547Y219892D01*
X824547Y222481D02*
X817873Y222481D01*
X688657Y144659D02*
X681983Y144659D01*
X681983Y151333D01*
X688657Y151333D01*
X688657Y144659D01*
X688657Y147248D02*
X681983Y147248D01*
X681983Y149837D02*
X688657Y149837D01*
X697223Y144659D02*
X703897Y144659D01*
X697223Y144659D02*
X697223Y151333D01*
X703897Y151333D01*
X703897Y144659D01*
X703897Y147248D02*
X697223Y147248D01*
X697223Y149837D02*
X703897Y149837D01*
X817873Y136023D02*
X824547Y136023D01*
X817873Y136023D02*
X817873Y142697D01*
X824547Y142697D01*
X824547Y136023D01*
X824547Y138612D02*
X817873Y138612D01*
X817873Y141201D02*
X824547Y141201D01*
X833113Y136023D02*
X839787Y136023D01*
X833113Y136023D02*
X833113Y142697D01*
X839787Y142697D01*
X839787Y136023D01*
X839787Y138612D02*
X833113Y138612D01*
X833113Y141201D02*
X839787Y141201D01*
D20*
X739469Y142131D02*
X739469Y147869D01*
X739469Y142131D02*
X738731Y142131D01*
X738731Y147869D01*
X739469Y147869D01*
X739469Y144763D02*
X738731Y144763D01*
X738731Y147395D02*
X739469Y147395D01*
X744469Y147869D02*
X744469Y142131D01*
X743731Y142131D01*
X743731Y147869D01*
X744469Y147869D01*
X744469Y144763D02*
X743731Y144763D01*
X743731Y147395D02*
X744469Y147395D01*
X749469Y147869D02*
X749469Y142131D01*
X748731Y142131D01*
X748731Y147869D01*
X749469Y147869D01*
X749469Y144763D02*
X748731Y144763D01*
X748731Y147395D02*
X749469Y147395D01*
X754469Y147869D02*
X754469Y142131D01*
X753731Y142131D01*
X753731Y147869D01*
X754469Y147869D01*
X754469Y144763D02*
X753731Y144763D01*
X753731Y147395D02*
X754469Y147395D01*
X759469Y147869D02*
X759469Y142131D01*
X758731Y142131D01*
X758731Y147869D01*
X759469Y147869D01*
X759469Y144763D02*
X758731Y144763D01*
X758731Y147395D02*
X759469Y147395D01*
X764469Y147869D02*
X764469Y142131D01*
X763731Y142131D01*
X763731Y147869D01*
X764469Y147869D01*
X764469Y144763D02*
X763731Y144763D01*
X763731Y147395D02*
X764469Y147395D01*
X769469Y147869D02*
X769469Y142131D01*
X768731Y142131D01*
X768731Y147869D01*
X769469Y147869D01*
X769469Y144763D02*
X768731Y144763D01*
X768731Y147395D02*
X769469Y147395D01*
X774469Y147869D02*
X774469Y142131D01*
X773731Y142131D01*
X773731Y147869D01*
X774469Y147869D01*
X774469Y144763D02*
X773731Y144763D01*
X773731Y147395D02*
X774469Y147395D01*
X779469Y147869D02*
X779469Y142131D01*
X778731Y142131D01*
X778731Y147869D01*
X779469Y147869D01*
X779469Y144763D02*
X778731Y144763D01*
X778731Y147395D02*
X779469Y147395D01*
X784469Y147869D02*
X784469Y142131D01*
X783731Y142131D01*
X783731Y147869D01*
X784469Y147869D01*
X784469Y144763D02*
X783731Y144763D01*
X783731Y147395D02*
X784469Y147395D01*
X789469Y147869D02*
X789469Y142131D01*
X788731Y142131D01*
X788731Y147869D01*
X789469Y147869D01*
X789469Y144763D02*
X788731Y144763D01*
X788731Y147395D02*
X789469Y147395D01*
X794469Y147869D02*
X794469Y142131D01*
X793731Y142131D01*
X793731Y147869D01*
X794469Y147869D01*
X794469Y144763D02*
X793731Y144763D01*
X793731Y147395D02*
X794469Y147395D01*
D21*
X793159Y206559D02*
X740041Y206559D01*
X793159Y206559D02*
X793159Y153441D01*
X740041Y153441D01*
X740041Y206559D01*
X740041Y156661D02*
X793159Y156661D01*
X793159Y159881D02*
X740041Y159881D01*
X740041Y163101D02*
X793159Y163101D01*
X793159Y166321D02*
X740041Y166321D01*
X740041Y169541D02*
X793159Y169541D01*
X793159Y172761D02*
X740041Y172761D01*
X740041Y175981D02*
X793159Y175981D01*
X793159Y179201D02*
X740041Y179201D01*
X740041Y182421D02*
X793159Y182421D01*
X793159Y185641D02*
X740041Y185641D01*
X740041Y188861D02*
X793159Y188861D01*
X793159Y192081D02*
X740041Y192081D01*
X740041Y195301D02*
X793159Y195301D01*
X793159Y198521D02*
X740041Y198521D01*
X740041Y201741D02*
X793159Y201741D01*
X793159Y204961D02*
X740041Y204961D01*
D20*
X798731Y152869D02*
X804469Y152869D01*
X804469Y152131D01*
X798731Y152131D01*
X798731Y152869D01*
X798731Y157869D02*
X804469Y157869D01*
X804469Y157131D01*
X798731Y157131D01*
X798731Y157869D01*
X798731Y162869D02*
X804469Y162869D01*
X804469Y162131D01*
X798731Y162131D01*
X798731Y162869D01*
X798731Y167869D02*
X804469Y167869D01*
X804469Y167131D01*
X798731Y167131D01*
X798731Y167869D01*
X798731Y172869D02*
X804469Y172869D01*
X804469Y172131D01*
X798731Y172131D01*
X798731Y172869D01*
X798731Y177869D02*
X804469Y177869D01*
X804469Y177131D01*
X798731Y177131D01*
X798731Y177869D01*
X798731Y182869D02*
X804469Y182869D01*
X804469Y182131D01*
X798731Y182131D01*
X798731Y182869D01*
X798731Y187869D02*
X804469Y187869D01*
X804469Y187131D01*
X798731Y187131D01*
X798731Y187869D01*
X798731Y192869D02*
X804469Y192869D01*
X804469Y192131D01*
X798731Y192131D01*
X798731Y192869D01*
X798731Y197869D02*
X804469Y197869D01*
X804469Y197131D01*
X798731Y197131D01*
X798731Y197869D01*
X798731Y202869D02*
X804469Y202869D01*
X804469Y202131D01*
X798731Y202131D01*
X798731Y202869D01*
X798731Y207869D02*
X804469Y207869D01*
X804469Y207131D01*
X798731Y207131D01*
X798731Y207869D01*
X793731Y212131D02*
X793731Y217869D01*
X794469Y217869D01*
X794469Y212131D01*
X793731Y212131D01*
X793731Y214763D02*
X794469Y214763D01*
X794469Y217395D02*
X793731Y217395D01*
X788731Y217869D02*
X788731Y212131D01*
X788731Y217869D02*
X789469Y217869D01*
X789469Y212131D01*
X788731Y212131D01*
X788731Y214763D02*
X789469Y214763D01*
X789469Y217395D02*
X788731Y217395D01*
X783731Y217869D02*
X783731Y212131D01*
X783731Y217869D02*
X784469Y217869D01*
X784469Y212131D01*
X783731Y212131D01*
X783731Y214763D02*
X784469Y214763D01*
X784469Y217395D02*
X783731Y217395D01*
X778731Y217869D02*
X778731Y212131D01*
X778731Y217869D02*
X779469Y217869D01*
X779469Y212131D01*
X778731Y212131D01*
X778731Y214763D02*
X779469Y214763D01*
X779469Y217395D02*
X778731Y217395D01*
X773731Y217869D02*
X773731Y212131D01*
X773731Y217869D02*
X774469Y217869D01*
X774469Y212131D01*
X773731Y212131D01*
X773731Y214763D02*
X774469Y214763D01*
X774469Y217395D02*
X773731Y217395D01*
X768731Y217869D02*
X768731Y212131D01*
X768731Y217869D02*
X769469Y217869D01*
X769469Y212131D01*
X768731Y212131D01*
X768731Y214763D02*
X769469Y214763D01*
X769469Y217395D02*
X768731Y217395D01*
X763731Y217869D02*
X763731Y212131D01*
X763731Y217869D02*
X764469Y217869D01*
X764469Y212131D01*
X763731Y212131D01*
X763731Y214763D02*
X764469Y214763D01*
X764469Y217395D02*
X763731Y217395D01*
X758731Y217869D02*
X758731Y212131D01*
X758731Y217869D02*
X759469Y217869D01*
X759469Y212131D01*
X758731Y212131D01*
X758731Y214763D02*
X759469Y214763D01*
X759469Y217395D02*
X758731Y217395D01*
X753731Y217869D02*
X753731Y212131D01*
X753731Y217869D02*
X754469Y217869D01*
X754469Y212131D01*
X753731Y212131D01*
X753731Y214763D02*
X754469Y214763D01*
X754469Y217395D02*
X753731Y217395D01*
X748731Y217869D02*
X748731Y212131D01*
X748731Y217869D02*
X749469Y217869D01*
X749469Y212131D01*
X748731Y212131D01*
X748731Y214763D02*
X749469Y214763D01*
X749469Y217395D02*
X748731Y217395D01*
X743731Y217869D02*
X743731Y212131D01*
X743731Y217869D02*
X744469Y217869D01*
X744469Y212131D01*
X743731Y212131D01*
X743731Y214763D02*
X744469Y214763D01*
X744469Y217395D02*
X743731Y217395D01*
X738731Y217869D02*
X738731Y212131D01*
X738731Y217869D02*
X739469Y217869D01*
X739469Y212131D01*
X738731Y212131D01*
X738731Y214763D02*
X739469Y214763D01*
X739469Y217395D02*
X738731Y217395D01*
X734469Y207131D02*
X728731Y207131D01*
X728731Y207869D01*
X734469Y207869D01*
X734469Y207131D01*
X734469Y202131D02*
X728731Y202131D01*
X728731Y202869D01*
X734469Y202869D01*
X734469Y202131D01*
X734469Y197131D02*
X728731Y197131D01*
X728731Y197869D01*
X734469Y197869D01*
X734469Y197131D01*
X734469Y192131D02*
X728731Y192131D01*
X728731Y192869D01*
X734469Y192869D01*
X734469Y192131D01*
X734469Y187131D02*
X728731Y187131D01*
X728731Y187869D01*
X734469Y187869D01*
X734469Y187131D01*
X734469Y182131D02*
X728731Y182131D01*
X728731Y182869D01*
X734469Y182869D01*
X734469Y182131D01*
X734469Y177131D02*
X728731Y177131D01*
X728731Y177869D01*
X734469Y177869D01*
X734469Y177131D01*
X734469Y172131D02*
X728731Y172131D01*
X728731Y172869D01*
X734469Y172869D01*
X734469Y172131D01*
X734469Y167131D02*
X728731Y167131D01*
X728731Y167869D01*
X734469Y167869D01*
X734469Y167131D01*
X734469Y162131D02*
X728731Y162131D01*
X728731Y162869D01*
X734469Y162869D01*
X734469Y162131D01*
X734469Y157131D02*
X728731Y157131D01*
X728731Y157869D01*
X734469Y157869D01*
X734469Y157131D01*
X734469Y152131D02*
X728731Y152131D01*
X728731Y152869D01*
X734469Y152869D01*
X734469Y152131D01*
X427959Y166081D02*
X427959Y169619D01*
X427959Y166081D02*
X427221Y166081D01*
X427221Y169619D01*
X427959Y169619D01*
X427959Y168713D02*
X427221Y168713D01*
X432959Y169619D02*
X432959Y166081D01*
X432221Y166081D01*
X432221Y169619D01*
X432959Y169619D01*
X432959Y168713D02*
X432221Y168713D01*
X437959Y169619D02*
X437959Y166081D01*
X437221Y166081D01*
X437221Y169619D01*
X437959Y169619D01*
X437959Y168713D02*
X437221Y168713D01*
X442971Y172869D02*
X446509Y172869D01*
X446509Y172131D01*
X442971Y172131D01*
X442971Y172869D01*
X442971Y177869D02*
X446509Y177869D01*
X446509Y177131D01*
X442971Y177131D01*
X442971Y177869D01*
X442971Y182869D02*
X446509Y182869D01*
X446509Y182131D01*
X442971Y182131D01*
X442971Y182869D01*
X442971Y187869D02*
X446509Y187869D01*
X446509Y187131D01*
X442971Y187131D01*
X442971Y187869D01*
X437221Y190381D02*
X437221Y193919D01*
X437959Y193919D01*
X437959Y190381D01*
X437221Y190381D01*
X437221Y193013D02*
X437959Y193013D01*
X432221Y193919D02*
X432221Y190381D01*
X432221Y193919D02*
X432959Y193919D01*
X432959Y190381D01*
X432221Y190381D01*
X432221Y193013D02*
X432959Y193013D01*
X427221Y193919D02*
X427221Y190381D01*
X427221Y193919D02*
X427959Y193919D01*
X427959Y190381D01*
X427221Y190381D01*
X427221Y193013D02*
X427959Y193013D01*
X422209Y187131D02*
X418671Y187131D01*
X418671Y187869D01*
X422209Y187869D01*
X422209Y187131D01*
X422209Y182131D02*
X418671Y182131D01*
X418671Y182869D01*
X422209Y182869D01*
X422209Y182131D01*
X422209Y177131D02*
X418671Y177131D01*
X418671Y177869D01*
X422209Y177869D01*
X422209Y177131D01*
X422209Y172131D02*
X418671Y172131D01*
X418671Y172869D01*
X422209Y172869D01*
X422209Y172131D01*
D22*
X438368Y174222D02*
X438368Y185778D01*
X438368Y174222D02*
X426812Y174222D01*
X426812Y185778D01*
X438368Y185778D01*
X438368Y177501D02*
X426812Y177501D01*
X426812Y180780D02*
X438368Y180780D01*
X438368Y184059D02*
X426812Y184059D01*
D23*
X103800Y172980D02*
X103800Y172020D01*
X103800Y172980D02*
X111960Y172980D01*
X111960Y172020D01*
X103800Y172020D01*
X103800Y177020D02*
X103800Y177980D01*
X111960Y177980D01*
X111960Y177020D01*
X103800Y177020D01*
D24*
X104733Y148697D02*
X104733Y146803D01*
X104733Y148697D02*
X111027Y148697D01*
X111027Y146803D01*
X104733Y146803D01*
X104733Y154553D02*
X104733Y156447D01*
X111027Y156447D01*
X111027Y154553D01*
X104733Y154553D01*
D23*
X103800Y162020D02*
X103800Y162980D01*
X111960Y162980D01*
X111960Y162020D01*
X103800Y162020D01*
X103800Y167020D02*
X103800Y167980D01*
X111960Y167980D01*
X111960Y167020D01*
X103800Y167020D01*
X111960Y187020D02*
X111960Y187980D01*
X111960Y187020D02*
X103800Y187020D01*
X103800Y187980D01*
X111960Y187980D01*
X111960Y182980D02*
X111960Y182020D01*
X103800Y182020D01*
X103800Y182980D01*
X111960Y182980D01*
D24*
X111027Y211303D02*
X111027Y213197D01*
X111027Y211303D02*
X104733Y211303D01*
X104733Y213197D01*
X111027Y213197D01*
X111027Y205447D02*
X111027Y203553D01*
X104733Y203553D01*
X104733Y205447D01*
X111027Y205447D01*
D23*
X111960Y197980D02*
X111960Y197020D01*
X103800Y197020D01*
X103800Y197980D01*
X111960Y197980D01*
X111960Y192980D02*
X111960Y192020D01*
X103800Y192020D01*
X103800Y192980D01*
X111960Y192980D01*
D25*
X96830Y208900D03*
X96830Y151100D03*
D18*
X474973Y204927D02*
X481647Y204927D01*
X481647Y198253D01*
X474973Y198253D01*
X474973Y204927D01*
X474973Y200842D02*
X481647Y200842D01*
X481647Y203431D02*
X474973Y203431D01*
X466407Y204927D02*
X459733Y204927D01*
X466407Y204927D02*
X466407Y198253D01*
X459733Y198253D01*
X459733Y204927D01*
X459733Y200842D02*
X466407Y200842D01*
X466407Y203431D02*
X459733Y203431D01*
X474973Y192227D02*
X481647Y192227D01*
X481647Y185553D01*
X474973Y185553D01*
X474973Y192227D01*
X474973Y188142D02*
X481647Y188142D01*
X481647Y190731D02*
X474973Y190731D01*
X466407Y192227D02*
X459733Y192227D01*
X466407Y192227D02*
X466407Y185553D01*
X459733Y185553D01*
X459733Y192227D01*
X459733Y188142D02*
X466407Y188142D01*
X466407Y190731D02*
X459733Y190731D01*
X474973Y179527D02*
X481647Y179527D01*
X481647Y172853D01*
X474973Y172853D01*
X474973Y179527D01*
X474973Y175442D02*
X481647Y175442D01*
X481647Y178031D02*
X474973Y178031D01*
X466407Y179527D02*
X459733Y179527D01*
X466407Y179527D02*
X466407Y172853D01*
X459733Y172853D01*
X459733Y179527D01*
X459733Y175442D02*
X466407Y175442D01*
X466407Y178031D02*
X459733Y178031D01*
X458463Y161747D02*
X458463Y155073D01*
X458463Y161747D02*
X465137Y161747D01*
X465137Y155073D01*
X458463Y155073D01*
X458463Y157662D02*
X465137Y157662D01*
X465137Y160251D02*
X458463Y160251D01*
X458463Y146507D02*
X458463Y139833D01*
X458463Y146507D02*
X465137Y146507D01*
X465137Y139833D01*
X458463Y139833D01*
X458463Y142422D02*
X465137Y142422D01*
X465137Y145011D02*
X458463Y145011D01*
X476243Y155073D02*
X476243Y161747D01*
X482917Y161747D01*
X482917Y155073D01*
X476243Y155073D01*
X476243Y157662D02*
X482917Y157662D01*
X482917Y160251D02*
X476243Y160251D01*
X476243Y146507D02*
X476243Y139833D01*
X476243Y146507D02*
X482917Y146507D01*
X482917Y139833D01*
X476243Y139833D01*
X476243Y142422D02*
X482917Y142422D01*
X482917Y145011D02*
X476243Y145011D01*
X398773Y169043D02*
X398773Y175717D01*
X405447Y175717D01*
X405447Y169043D01*
X398773Y169043D01*
X398773Y171632D02*
X405447Y171632D01*
X405447Y174221D02*
X398773Y174221D01*
X398773Y160477D02*
X398773Y153803D01*
X398773Y160477D02*
X405447Y160477D01*
X405447Y153803D01*
X398773Y153803D01*
X398773Y156392D02*
X405447Y156392D01*
X405447Y158981D02*
X398773Y158981D01*
X405447Y181743D02*
X405447Y188417D01*
X405447Y181743D02*
X398773Y181743D01*
X398773Y188417D01*
X405447Y188417D01*
X405447Y184332D02*
X398773Y184332D01*
X398773Y186921D02*
X405447Y186921D01*
X405447Y196983D02*
X405447Y203657D01*
X405447Y196983D02*
X398773Y196983D01*
X398773Y203657D01*
X405447Y203657D01*
X405447Y199572D02*
X398773Y199572D01*
X398773Y202161D02*
X405447Y202161D01*
X640073Y165557D02*
X646747Y165557D01*
X646747Y158883D01*
X640073Y158883D01*
X640073Y165557D01*
X640073Y161472D02*
X646747Y161472D01*
X646747Y164061D02*
X640073Y164061D01*
X631507Y165557D02*
X624833Y165557D01*
X631507Y165557D02*
X631507Y158883D01*
X624833Y158883D01*
X624833Y165557D01*
X624833Y161472D02*
X631507Y161472D01*
X631507Y164061D02*
X624833Y164061D01*
X533393Y193173D02*
X533393Y199847D01*
X540067Y199847D01*
X540067Y193173D01*
X533393Y193173D01*
X533393Y195762D02*
X540067Y195762D01*
X540067Y198351D02*
X533393Y198351D01*
X533393Y184607D02*
X533393Y177933D01*
X533393Y184607D02*
X540067Y184607D01*
X540067Y177933D01*
X533393Y177933D01*
X533393Y180522D02*
X540067Y180522D01*
X540067Y183111D02*
X533393Y183111D01*
X606107Y184607D02*
X606107Y177933D01*
X599433Y177933D01*
X599433Y184607D01*
X606107Y184607D01*
X606107Y180522D02*
X599433Y180522D01*
X599433Y183111D02*
X606107Y183111D01*
X606107Y193173D02*
X606107Y199847D01*
X606107Y193173D02*
X599433Y193173D01*
X599433Y199847D01*
X606107Y199847D01*
X606107Y195762D02*
X599433Y195762D01*
X599433Y198351D02*
X606107Y198351D01*
X621347Y184607D02*
X621347Y177933D01*
X614673Y177933D01*
X614673Y184607D01*
X621347Y184607D01*
X621347Y180522D02*
X614673Y180522D01*
X614673Y183111D02*
X621347Y183111D01*
X621347Y193173D02*
X621347Y199847D01*
X621347Y193173D02*
X614673Y193173D01*
X614673Y199847D01*
X621347Y199847D01*
X621347Y195762D02*
X614673Y195762D01*
X614673Y198351D02*
X621347Y198351D01*
D26*
X546218Y197459D02*
X546218Y199321D01*
X554580Y199321D01*
X554580Y197459D01*
X546218Y197459D01*
X546218Y189821D02*
X546218Y187959D01*
X546218Y189821D02*
X554580Y189821D01*
X554580Y187959D01*
X546218Y187959D01*
X546218Y180321D02*
X546218Y178459D01*
X546218Y180321D02*
X554580Y180321D01*
X554580Y178459D01*
X546218Y178459D01*
X572220Y178459D02*
X572220Y180321D01*
X580582Y180321D01*
X580582Y178459D01*
X572220Y178459D01*
X572220Y197459D02*
X572220Y199321D01*
X580582Y199321D01*
X580582Y197459D01*
X572220Y197459D01*
X580582Y189821D02*
X580582Y187959D01*
X572220Y187959D01*
X572220Y189821D01*
X580582Y189821D01*
D27*
X504368Y192723D02*
X504368Y200297D01*
X515752Y200297D01*
X515752Y192723D01*
X504368Y192723D01*
X504368Y195662D02*
X515752Y195662D01*
X515752Y198601D02*
X504368Y198601D01*
X504368Y182517D02*
X504368Y174943D01*
X504368Y182517D02*
X515752Y182517D01*
X515752Y174943D01*
X504368Y174943D01*
X504368Y177882D02*
X515752Y177882D01*
X515752Y180821D02*
X504368Y180821D01*
D18*
X193357Y172853D02*
X186683Y172853D01*
X186683Y179527D01*
X193357Y179527D01*
X193357Y172853D01*
X193357Y175442D02*
X186683Y175442D01*
X186683Y178031D02*
X193357Y178031D01*
X201923Y172853D02*
X208597Y172853D01*
X201923Y172853D02*
X201923Y179527D01*
X208597Y179527D01*
X208597Y172853D01*
X208597Y175442D02*
X201923Y175442D01*
X201923Y178031D02*
X208597Y178031D01*
X193357Y210953D02*
X186683Y210953D01*
X186683Y217627D01*
X193357Y217627D01*
X193357Y210953D01*
X193357Y213542D02*
X186683Y213542D01*
X186683Y216131D02*
X193357Y216131D01*
X201923Y210953D02*
X208597Y210953D01*
X201923Y210953D02*
X201923Y217627D01*
X208597Y217627D01*
X208597Y210953D01*
X208597Y213542D02*
X201923Y213542D01*
X201923Y216131D02*
X208597Y216131D01*
X490213Y161747D02*
X490213Y155073D01*
X490213Y161747D02*
X496887Y161747D01*
X496887Y155073D01*
X490213Y155073D01*
X490213Y157662D02*
X496887Y157662D01*
X496887Y160251D02*
X490213Y160251D01*
X490213Y146507D02*
X490213Y139833D01*
X490213Y146507D02*
X496887Y146507D01*
X496887Y139833D01*
X490213Y139833D01*
X490213Y142422D02*
X496887Y142422D01*
X496887Y145011D02*
X490213Y145011D01*
D28*
X542169Y167781D02*
X549211Y167781D01*
X549211Y161739D01*
X542169Y161739D01*
X542169Y167781D01*
X542169Y164083D02*
X549211Y164083D01*
X549211Y166427D02*
X542169Y166427D01*
X526211Y167781D02*
X519169Y167781D01*
X526211Y167781D02*
X526211Y161739D01*
X519169Y161739D01*
X519169Y167781D01*
X519169Y164083D02*
X526211Y164083D01*
X526211Y166427D02*
X519169Y166427D01*
D27*
X539293Y147592D02*
X546867Y147592D01*
X546867Y136208D01*
X539293Y136208D01*
X539293Y147592D01*
X539293Y139147D02*
X546867Y139147D01*
X546867Y142086D02*
X539293Y142086D01*
X539293Y145025D02*
X546867Y145025D01*
X529087Y147592D02*
X521513Y147592D01*
X529087Y147592D02*
X529087Y136208D01*
X521513Y136208D01*
X521513Y147592D01*
X521513Y139147D02*
X529087Y139147D01*
X529087Y142086D02*
X521513Y142086D01*
X521513Y145025D02*
X529087Y145025D01*
D18*
X586733Y172853D02*
X586733Y179527D01*
X593407Y179527D01*
X593407Y172853D01*
X586733Y172853D01*
X586733Y175442D02*
X593407Y175442D01*
X593407Y178031D02*
X586733Y178031D01*
X586733Y164287D02*
X586733Y157613D01*
X586733Y164287D02*
X593407Y164287D01*
X593407Y157613D01*
X586733Y157613D01*
X586733Y160202D02*
X593407Y160202D01*
X593407Y162791D02*
X586733Y162791D01*
D29*
X555157Y143113D02*
X555157Y136507D01*
X555157Y143113D02*
X579263Y143113D01*
X579263Y136507D01*
X555157Y136507D01*
X555157Y139740D02*
X579263Y139740D01*
X579263Y142973D02*
X555157Y142973D01*
X579263Y161007D02*
X579263Y167613D01*
X579263Y161007D02*
X555157Y161007D01*
X555157Y167613D01*
X579263Y167613D01*
X579263Y164240D02*
X555157Y164240D01*
X555157Y167473D02*
X579263Y167473D01*
D30*
X153883Y145853D02*
X153883Y135407D01*
X143437Y135407D01*
X143437Y145853D01*
X153883Y145853D01*
X153883Y139266D02*
X143437Y139266D01*
X143437Y143125D02*
X153883Y143125D01*
X190883Y145853D02*
X190883Y135407D01*
X180437Y135407D01*
X180437Y145853D01*
X190883Y145853D01*
X190883Y139266D02*
X180437Y139266D01*
X180437Y143125D02*
X190883Y143125D01*
X153883Y151917D02*
X153883Y162363D01*
X153883Y151917D02*
X143437Y151917D01*
X143437Y162363D01*
X153883Y162363D01*
X153883Y155776D02*
X143437Y155776D01*
X143437Y159635D02*
X153883Y159635D01*
X190883Y162363D02*
X190883Y151917D01*
X180437Y151917D01*
X180437Y162363D01*
X190883Y162363D01*
X190883Y155776D02*
X180437Y155776D01*
X180437Y159635D02*
X190883Y159635D01*
D31*
X156826Y169134D02*
X156826Y175626D01*
X156826Y169134D02*
X152334Y169134D01*
X152334Y175626D01*
X156826Y175626D01*
X156826Y171050D02*
X152334Y171050D01*
X152334Y172966D02*
X156826Y172966D01*
X156826Y174882D02*
X152334Y174882D01*
X171826Y175626D02*
X171826Y169134D01*
X167334Y169134D01*
X167334Y175626D01*
X171826Y175626D01*
X171826Y171050D02*
X167334Y171050D01*
X167334Y172966D02*
X171826Y172966D01*
X171826Y174882D02*
X167334Y174882D01*
X167334Y217394D02*
X167334Y223886D01*
X171826Y223886D01*
X171826Y217394D01*
X167334Y217394D01*
X167334Y219310D02*
X171826Y219310D01*
X171826Y221226D02*
X167334Y221226D01*
X167334Y223142D02*
X171826Y223142D01*
X152334Y223886D02*
X152334Y217394D01*
X152334Y223886D02*
X156826Y223886D01*
X156826Y217394D01*
X152334Y217394D01*
X152334Y219310D02*
X156826Y219310D01*
X156826Y221226D02*
X152334Y221226D01*
X152334Y223142D02*
X156826Y223142D01*
D28*
X505769Y167081D02*
X505769Y160039D01*
X505769Y167081D02*
X511811Y167081D01*
X511811Y160039D01*
X505769Y160039D01*
X505769Y162383D02*
X511811Y162383D01*
X511811Y164727D02*
X505769Y164727D01*
X505769Y167071D02*
X511811Y167071D01*
X505769Y144081D02*
X505769Y137039D01*
X505769Y144081D02*
X511811Y144081D01*
X511811Y137039D01*
X505769Y137039D01*
X505769Y139383D02*
X511811Y139383D01*
X511811Y141727D02*
X505769Y141727D01*
X505769Y144071D02*
X511811Y144071D01*
D18*
X617157Y142697D02*
X617157Y136023D01*
X610483Y136023D01*
X610483Y142697D01*
X617157Y142697D01*
X617157Y138612D02*
X610483Y138612D01*
X610483Y141201D02*
X617157Y141201D01*
X633157Y142697D02*
X633157Y136023D01*
X626483Y136023D01*
X626483Y142697D01*
X633157Y142697D01*
X633157Y138612D02*
X626483Y138612D01*
X626483Y141201D02*
X633157Y141201D01*
D26*
X179262Y184809D02*
X179262Y186671D01*
X179262Y184809D02*
X170900Y184809D01*
X170900Y186671D01*
X179262Y186671D01*
X179262Y194309D02*
X179262Y196171D01*
X179262Y194309D02*
X170900Y194309D01*
X170900Y196171D01*
X179262Y196171D01*
X179262Y203809D02*
X179262Y205671D01*
X179262Y203809D02*
X170900Y203809D01*
X170900Y205671D01*
X179262Y205671D01*
X153260Y205671D02*
X153260Y203809D01*
X144898Y203809D01*
X144898Y205671D01*
X153260Y205671D01*
X153260Y186671D02*
X153260Y184809D01*
X144898Y184809D01*
X144898Y186671D01*
X153260Y186671D01*
X144898Y194309D02*
X144898Y196171D01*
X153260Y196171D01*
X153260Y194309D01*
X144898Y194309D01*
D23*
X661750Y168580D02*
X661750Y163420D01*
X660790Y163420D01*
X660790Y168580D01*
X661750Y168580D01*
X661750Y165652D02*
X660790Y165652D01*
X660790Y167884D02*
X661750Y167884D01*
X656750Y168580D02*
X656750Y163420D01*
X655790Y163420D01*
X655790Y168580D01*
X656750Y168580D01*
X656750Y165652D02*
X655790Y165652D01*
X655790Y167884D02*
X656750Y167884D01*
X666750Y168580D02*
X666750Y163420D01*
X665790Y163420D01*
X665790Y168580D01*
X666750Y168580D01*
X666750Y165652D02*
X665790Y165652D01*
X665790Y167884D02*
X666750Y167884D01*
X671750Y168580D02*
X671750Y163420D01*
X670790Y163420D01*
X670790Y168580D01*
X671750Y168580D01*
X671750Y165652D02*
X670790Y165652D01*
X670790Y167884D02*
X671750Y167884D01*
X676750Y168580D02*
X676750Y163420D01*
X675790Y163420D01*
X675790Y168580D01*
X676750Y168580D01*
X676750Y165652D02*
X675790Y165652D01*
X675790Y167884D02*
X676750Y167884D01*
X670790Y191420D02*
X670790Y196580D01*
X671750Y196580D01*
X671750Y191420D01*
X670790Y191420D01*
X670790Y193652D02*
X671750Y193652D01*
X671750Y195884D02*
X670790Y195884D01*
X676750Y196580D02*
X676750Y191420D01*
X675790Y191420D01*
X675790Y196580D01*
X676750Y196580D01*
X676750Y193652D02*
X675790Y193652D01*
X675790Y195884D02*
X676750Y195884D01*
X665790Y196580D02*
X665790Y191420D01*
X665790Y196580D02*
X666750Y196580D01*
X666750Y191420D01*
X665790Y191420D01*
X665790Y193652D02*
X666750Y193652D01*
X666750Y195884D02*
X665790Y195884D01*
X660790Y196580D02*
X660790Y191420D01*
X660790Y196580D02*
X661750Y196580D01*
X661750Y191420D01*
X660790Y191420D01*
X660790Y193652D02*
X661750Y193652D01*
X661750Y195884D02*
X660790Y195884D01*
X656750Y196580D02*
X656750Y191420D01*
X655790Y191420D01*
X655790Y196580D01*
X656750Y196580D01*
X656750Y193652D02*
X655790Y193652D01*
X655790Y195884D02*
X656750Y195884D01*
X677690Y175480D02*
X682850Y175480D01*
X682850Y174520D01*
X677690Y174520D01*
X677690Y175480D01*
X677690Y180480D02*
X682850Y180480D01*
X682850Y179520D01*
X677690Y179520D01*
X677690Y180480D01*
X677690Y185480D02*
X682850Y185480D01*
X682850Y184520D01*
X677690Y184520D01*
X677690Y185480D01*
X654850Y184520D02*
X649690Y184520D01*
X649690Y185480D01*
X654850Y185480D01*
X654850Y184520D01*
X654850Y179520D02*
X649690Y179520D01*
X649690Y180480D01*
X654850Y180480D01*
X654850Y179520D01*
X654850Y174520D02*
X649690Y174520D01*
X649690Y175480D01*
X654850Y175480D01*
X654850Y174520D01*
D18*
X627373Y188093D02*
X627373Y194767D01*
X634047Y194767D01*
X634047Y188093D01*
X627373Y188093D01*
X627373Y190682D02*
X634047Y190682D01*
X634047Y193271D02*
X627373Y193271D01*
X627373Y179527D02*
X627373Y172853D01*
X627373Y179527D02*
X634047Y179527D01*
X634047Y172853D01*
X627373Y172853D01*
X627373Y175442D02*
X634047Y175442D01*
X634047Y178031D02*
X627373Y178031D01*
D28*
X294055Y199839D02*
X287013Y199839D01*
X287013Y205881D01*
X294055Y205881D01*
X294055Y199839D01*
X294055Y202183D02*
X287013Y202183D01*
X287013Y204527D02*
X294055Y204527D01*
X310013Y199839D02*
X317055Y199839D01*
X310013Y199839D02*
X310013Y205881D01*
X317055Y205881D01*
X317055Y199839D01*
X317055Y202183D02*
X310013Y202183D01*
X310013Y204527D02*
X317055Y204527D01*
D32*
X240494Y194296D02*
X228446Y194296D01*
X228446Y206344D01*
X240494Y206344D01*
X240494Y194296D01*
X240494Y198529D02*
X228446Y198529D01*
X228446Y202762D02*
X240494Y202762D01*
X268832Y194296D02*
X280880Y194296D01*
X268832Y194296D02*
X268832Y206344D01*
X280880Y206344D01*
X280880Y194296D01*
X280880Y198529D02*
X268832Y198529D01*
X268832Y202762D02*
X280880Y202762D01*
X240494Y153656D02*
X228446Y153656D01*
X228446Y165704D01*
X240494Y165704D01*
X240494Y153656D01*
X240494Y157889D02*
X228446Y157889D01*
X228446Y162122D02*
X240494Y162122D01*
X268832Y153656D02*
X280880Y153656D01*
X268832Y153656D02*
X268832Y165704D01*
X280880Y165704D01*
X280880Y153656D01*
X280880Y157889D02*
X268832Y157889D01*
X268832Y162122D02*
X280880Y162122D01*
X323188Y194296D02*
X335236Y194296D01*
X323188Y194296D02*
X323188Y206344D01*
X335236Y206344D01*
X335236Y194296D01*
X335236Y198529D02*
X323188Y198529D01*
X323188Y202762D02*
X335236Y202762D01*
X335236Y153656D02*
X323188Y153656D01*
X323188Y165704D01*
X335236Y165704D01*
X335236Y153656D01*
X335236Y157889D02*
X323188Y157889D01*
X323188Y162122D02*
X335236Y162122D01*
X363828Y194296D02*
X375876Y194296D01*
X363828Y194296D02*
X363828Y206344D01*
X375876Y206344D01*
X375876Y194296D01*
X375876Y198529D02*
X363828Y198529D01*
X363828Y202762D02*
X375876Y202762D01*
X375876Y153656D02*
X363828Y153656D01*
X363828Y165704D01*
X375876Y165704D01*
X375876Y153656D01*
X375876Y157889D02*
X363828Y157889D01*
X363828Y162122D02*
X375876Y162122D01*
X916786Y153656D02*
X928834Y153656D01*
X916786Y153656D02*
X916786Y165704D01*
X928834Y165704D01*
X928834Y153656D01*
X928834Y157889D02*
X916786Y157889D01*
X916786Y162122D02*
X928834Y162122D01*
X888194Y194296D02*
X876146Y194296D01*
X876146Y206344D01*
X888194Y206344D01*
X888194Y194296D01*
X888194Y198529D02*
X876146Y198529D01*
X876146Y202762D02*
X888194Y202762D01*
X888194Y153656D02*
X876146Y153656D01*
X876146Y165704D01*
X888194Y165704D01*
X888194Y153656D01*
X888194Y157889D02*
X876146Y157889D01*
X876146Y162122D02*
X888194Y162122D01*
X916786Y194296D02*
X928834Y194296D01*
X916786Y194296D02*
X916786Y206344D01*
X928834Y206344D01*
X928834Y194296D01*
X928834Y198529D02*
X916786Y198529D01*
X916786Y202762D02*
X928834Y202762D01*
D18*
X444873Y146507D02*
X444873Y139833D01*
X444873Y146507D02*
X451547Y146507D01*
X451547Y139833D01*
X444873Y139833D01*
X444873Y142422D02*
X451547Y142422D01*
X451547Y145011D02*
X444873Y145011D01*
X428873Y146507D02*
X428873Y139833D01*
X428873Y146507D02*
X435547Y146507D01*
X435547Y139833D01*
X428873Y139833D01*
X428873Y142422D02*
X435547Y142422D01*
X435547Y145011D02*
X428873Y145011D01*
X689603Y163653D02*
X696277Y163653D01*
X696277Y156979D01*
X689603Y156979D01*
X689603Y163653D01*
X689603Y159568D02*
X696277Y159568D01*
X696277Y162157D02*
X689603Y162157D01*
X689603Y179653D02*
X696277Y179653D01*
X696277Y172979D01*
X689603Y172979D01*
X689603Y179653D01*
X689603Y175568D02*
X696277Y175568D01*
X696277Y178157D02*
X689603Y178157D01*
X419417Y151643D02*
X412743Y151643D01*
X412743Y158317D01*
X419417Y158317D01*
X419417Y151643D01*
X419417Y154232D02*
X412743Y154232D01*
X412743Y156821D02*
X419417Y156821D01*
X419417Y135643D02*
X412743Y135643D01*
X412743Y142317D01*
X419417Y142317D01*
X419417Y135643D01*
X419417Y138232D02*
X412743Y138232D01*
X412743Y140821D02*
X419417Y140821D01*
X653027Y138309D02*
X659701Y138309D01*
X653027Y138309D02*
X653027Y144983D01*
X659701Y144983D01*
X659701Y138309D01*
X659701Y140898D02*
X653027Y140898D01*
X653027Y143487D02*
X659701Y143487D01*
X668267Y138309D02*
X674941Y138309D01*
X668267Y138309D02*
X668267Y144983D01*
X674941Y144983D01*
X674941Y138309D01*
X674941Y140898D02*
X668267Y140898D01*
X668267Y143487D02*
X674941Y143487D01*
D33*
X229140Y180000D03*
X279940Y180000D03*
X324140Y180000D03*
X374940Y180000D03*
X877090Y180000D03*
X927890Y180000D03*
D18*
X719137Y226517D02*
X712463Y226517D01*
X719137Y226517D02*
X719137Y219843D01*
X712463Y219843D01*
X712463Y226517D01*
X712463Y222432D02*
X719137Y222432D01*
X719137Y225021D02*
X712463Y225021D01*
X703897Y226517D02*
X697223Y226517D01*
X703897Y226517D02*
X703897Y219843D01*
X697223Y219843D01*
X697223Y226517D01*
X697223Y222432D02*
X703897Y222432D01*
X703897Y225021D02*
X697223Y225021D01*
X616267Y156667D02*
X616267Y149993D01*
X609593Y149993D01*
X609593Y156667D01*
X616267Y156667D01*
X616267Y152582D02*
X609593Y152582D01*
X609593Y155171D02*
X616267Y155171D01*
X616267Y165233D02*
X616267Y171907D01*
X616267Y165233D02*
X609593Y165233D01*
X609593Y171907D01*
X616267Y171907D01*
X616267Y167822D02*
X609593Y167822D01*
X609593Y170411D02*
X616267Y170411D01*
X297751Y153803D02*
X291077Y153803D01*
X291077Y160477D01*
X297751Y160477D01*
X297751Y153803D01*
X297751Y156392D02*
X291077Y156392D01*
X291077Y158981D02*
X297751Y158981D01*
X306317Y153803D02*
X312991Y153803D01*
X306317Y153803D02*
X306317Y160477D01*
X312991Y160477D01*
X312991Y153803D01*
X312991Y156392D02*
X306317Y156392D01*
X306317Y158981D02*
X312991Y158981D01*
D34*
X874550Y220640D03*
D18*
X150177Y636023D02*
X150177Y642697D01*
X150177Y636023D02*
X143503Y636023D01*
X143503Y642697D01*
X150177Y642697D01*
X150177Y638612D02*
X143503Y638612D01*
X143503Y641201D02*
X150177Y641201D01*
X150177Y651263D02*
X150177Y657937D01*
X150177Y651263D02*
X143503Y651263D01*
X143503Y657937D01*
X150177Y657937D01*
X150177Y653852D02*
X143503Y653852D01*
X143503Y656441D02*
X150177Y656441D01*
X304793Y634753D02*
X311467Y634753D01*
X304793Y634753D02*
X304793Y641427D01*
X311467Y641427D01*
X311467Y634753D01*
X311467Y637342D02*
X304793Y637342D01*
X304793Y639931D02*
X311467Y639931D01*
X320033Y634753D02*
X326707Y634753D01*
X320033Y634753D02*
X320033Y641427D01*
X326707Y641427D01*
X326707Y634753D01*
X326707Y637342D02*
X320033Y637342D01*
X320033Y639931D02*
X326707Y639931D01*
X298767Y641427D02*
X292093Y641427D01*
X298767Y641427D02*
X298767Y634753D01*
X292093Y634753D01*
X292093Y641427D01*
X292093Y637342D02*
X298767Y637342D01*
X298767Y639931D02*
X292093Y639931D01*
X283527Y641427D02*
X276853Y641427D01*
X283527Y641427D02*
X283527Y634753D01*
X276853Y634753D01*
X276853Y641427D01*
X276853Y637342D02*
X283527Y637342D01*
X283527Y639931D02*
X276853Y639931D01*
X258127Y714509D02*
X251453Y714509D01*
X251453Y721183D01*
X258127Y721183D01*
X258127Y714509D01*
X258127Y717098D02*
X251453Y717098D01*
X251453Y719687D02*
X258127Y719687D01*
X266693Y714509D02*
X273367Y714509D01*
X266693Y714509D02*
X266693Y721183D01*
X273367Y721183D01*
X273367Y714509D01*
X273367Y717098D02*
X266693Y717098D01*
X266693Y719687D02*
X273367Y719687D01*
X150177Y717683D02*
X143503Y717683D01*
X143503Y724357D01*
X150177Y724357D01*
X150177Y717683D01*
X150177Y720272D02*
X143503Y720272D01*
X143503Y722861D02*
X150177Y722861D01*
X150177Y701683D02*
X143503Y701683D01*
X143503Y708357D01*
X150177Y708357D01*
X150177Y701683D01*
X150177Y704272D02*
X143503Y704272D01*
X143503Y706861D02*
X150177Y706861D01*
D25*
X886460Y708900D03*
X886460Y651100D03*
D18*
X508317Y719589D02*
X501643Y719589D01*
X501643Y726263D01*
X508317Y726263D01*
X508317Y719589D01*
X508317Y722178D02*
X501643Y722178D01*
X501643Y724767D02*
X508317Y724767D01*
X516883Y719589D02*
X523557Y719589D01*
X516883Y719589D02*
X516883Y726263D01*
X523557Y726263D01*
X523557Y719589D01*
X523557Y722178D02*
X516883Y722178D01*
X516883Y724767D02*
X523557Y724767D01*
X529583Y719589D02*
X536257Y719589D01*
X529583Y719589D02*
X529583Y726263D01*
X536257Y726263D01*
X536257Y719589D01*
X536257Y722178D02*
X529583Y722178D01*
X529583Y724767D02*
X536257Y724767D01*
X544823Y719589D02*
X551497Y719589D01*
X544823Y719589D02*
X544823Y726263D01*
X551497Y726263D01*
X551497Y719589D01*
X551497Y722178D02*
X544823Y722178D01*
X544823Y724767D02*
X551497Y724767D01*
X523557Y704927D02*
X516883Y704927D01*
X523557Y704927D02*
X523557Y698253D01*
X516883Y698253D01*
X516883Y704927D01*
X516883Y700842D02*
X523557Y700842D01*
X523557Y703431D02*
X516883Y703431D01*
X508317Y704927D02*
X501643Y704927D01*
X508317Y704927D02*
X508317Y698253D01*
X501643Y698253D01*
X501643Y704927D01*
X501643Y700842D02*
X508317Y700842D01*
X508317Y703431D02*
X501643Y703431D01*
X516883Y692227D02*
X523557Y692227D01*
X523557Y685553D01*
X516883Y685553D01*
X516883Y692227D01*
X516883Y688142D02*
X523557Y688142D01*
X523557Y690731D02*
X516883Y690731D01*
X508317Y692227D02*
X501643Y692227D01*
X508317Y692227D02*
X508317Y685553D01*
X501643Y685553D01*
X501643Y692227D01*
X501643Y688142D02*
X508317Y688142D01*
X508317Y690731D02*
X501643Y690731D01*
X516883Y674447D02*
X523557Y674447D01*
X523557Y667773D01*
X516883Y667773D01*
X516883Y674447D01*
X516883Y670362D02*
X523557Y670362D01*
X523557Y672951D02*
X516883Y672951D01*
X508317Y674447D02*
X501643Y674447D01*
X508317Y674447D02*
X508317Y667773D01*
X501643Y667773D01*
X501643Y674447D01*
X501643Y670362D02*
X508317Y670362D01*
X508317Y672951D02*
X501643Y672951D01*
X387343Y666827D02*
X387343Y660153D01*
X387343Y666827D02*
X394017Y666827D01*
X394017Y660153D01*
X387343Y660153D01*
X387343Y662742D02*
X394017Y662742D01*
X394017Y665331D02*
X387343Y665331D01*
X387343Y651587D02*
X387343Y644913D01*
X387343Y651587D02*
X394017Y651587D01*
X394017Y644913D01*
X387343Y644913D01*
X387343Y647502D02*
X394017Y647502D01*
X394017Y650091D02*
X387343Y650091D01*
X374643Y660153D02*
X374643Y666827D01*
X381317Y666827D01*
X381317Y660153D01*
X374643Y660153D01*
X374643Y662742D02*
X381317Y662742D01*
X381317Y665331D02*
X374643Y665331D01*
X374643Y651587D02*
X374643Y644913D01*
X374643Y651587D02*
X381317Y651587D01*
X381317Y644913D01*
X374643Y644913D01*
X374643Y647502D02*
X381317Y647502D01*
X381317Y650091D02*
X374643Y650091D01*
D35*
X687958Y725139D02*
X687958Y725981D01*
X696300Y725981D01*
X696300Y725139D01*
X687958Y725139D01*
X687958Y720981D02*
X687958Y720139D01*
X687958Y720981D02*
X696300Y720981D01*
X696300Y720139D01*
X687958Y720139D01*
X687958Y715981D02*
X687958Y715139D01*
X687958Y715981D02*
X696300Y715981D01*
X696300Y715139D01*
X687958Y715139D01*
X687958Y710981D02*
X687958Y710139D01*
X687958Y710981D02*
X696300Y710981D01*
X696300Y710139D01*
X687958Y710139D01*
X687958Y705981D02*
X687958Y705139D01*
X687958Y705981D02*
X696300Y705981D01*
X696300Y705139D01*
X687958Y705139D01*
X738562Y705139D02*
X738562Y705981D01*
X738562Y705139D02*
X730220Y705139D01*
X730220Y705981D01*
X738562Y705981D01*
X738562Y710139D02*
X738562Y710981D01*
X738562Y710139D02*
X730220Y710139D01*
X730220Y710981D01*
X738562Y710981D01*
X738562Y715139D02*
X738562Y715981D01*
X738562Y715139D02*
X730220Y715139D01*
X730220Y715981D01*
X738562Y715981D01*
X738562Y720139D02*
X738562Y720981D01*
X738562Y720139D02*
X730220Y720139D01*
X730220Y720981D01*
X738562Y720981D01*
X738562Y725139D02*
X738562Y725981D01*
X738562Y725139D02*
X730220Y725139D01*
X730220Y725981D01*
X738562Y725981D01*
D18*
X712279Y657937D02*
X705605Y657937D01*
X712279Y657937D02*
X712279Y651263D01*
X705605Y651263D01*
X705605Y657937D01*
X705605Y653852D02*
X712279Y653852D01*
X712279Y656441D02*
X705605Y656441D01*
X697039Y657937D02*
X690365Y657937D01*
X697039Y657937D02*
X697039Y651263D01*
X690365Y651263D01*
X690365Y657937D01*
X690365Y653852D02*
X697039Y653852D01*
X697039Y656441D02*
X690365Y656441D01*
X787393Y714763D02*
X794067Y714763D01*
X787393Y714763D02*
X787393Y721437D01*
X794067Y721437D01*
X794067Y714763D01*
X794067Y717352D02*
X787393Y717352D01*
X787393Y719941D02*
X794067Y719941D01*
X802633Y714763D02*
X809307Y714763D01*
X802633Y714763D02*
X802633Y721437D01*
X809307Y721437D01*
X809307Y714763D01*
X809307Y717352D02*
X802633Y717352D01*
X802633Y719941D02*
X809307Y719941D01*
X774693Y717303D02*
X774693Y723977D01*
X781367Y723977D01*
X781367Y717303D01*
X774693Y717303D01*
X774693Y719892D02*
X781367Y719892D01*
X781367Y722481D02*
X774693Y722481D01*
X774693Y708737D02*
X774693Y702063D01*
X774693Y708737D02*
X781367Y708737D01*
X781367Y702063D01*
X774693Y702063D01*
X774693Y704652D02*
X781367Y704652D01*
X781367Y707241D02*
X774693Y707241D01*
X787393Y702063D02*
X794067Y702063D01*
X787393Y702063D02*
X787393Y708737D01*
X794067Y708737D01*
X794067Y702063D01*
X794067Y704652D02*
X787393Y704652D01*
X787393Y707241D02*
X794067Y707241D01*
X802633Y702063D02*
X809307Y702063D01*
X802633Y702063D02*
X802633Y708737D01*
X809307Y708737D01*
X809307Y702063D01*
X809307Y704652D02*
X802633Y704652D01*
X802633Y707241D02*
X809307Y707241D01*
X750887Y699523D02*
X744213Y699523D01*
X744213Y706197D01*
X750887Y706197D01*
X750887Y699523D01*
X750887Y702112D02*
X744213Y702112D01*
X744213Y704701D02*
X750887Y704701D01*
X759453Y699523D02*
X766127Y699523D01*
X759453Y699523D02*
X759453Y706197D01*
X766127Y706197D01*
X766127Y699523D01*
X766127Y702112D02*
X759453Y702112D01*
X759453Y704701D02*
X766127Y704701D01*
D36*
X719996Y667992D02*
X719996Y662008D01*
X718012Y662008D01*
X718012Y667992D01*
X719996Y667992D01*
X719996Y664406D02*
X718012Y664406D01*
X718012Y666804D02*
X719996Y666804D01*
X726496Y667992D02*
X726496Y662008D01*
X724512Y662008D01*
X724512Y667992D01*
X726496Y667992D01*
X726496Y664406D02*
X724512Y664406D01*
X724512Y666804D02*
X726496Y666804D01*
X732996Y667992D02*
X732996Y662008D01*
X731012Y662008D01*
X731012Y667992D01*
X732996Y667992D01*
X732996Y664406D02*
X731012Y664406D01*
X731012Y666804D02*
X732996Y666804D01*
X739496Y667992D02*
X739496Y662008D01*
X737512Y662008D01*
X737512Y667992D01*
X739496Y667992D01*
X739496Y664406D02*
X737512Y664406D01*
X737512Y666804D02*
X739496Y666804D01*
X739496Y692008D02*
X739496Y697992D01*
X739496Y692008D02*
X737512Y692008D01*
X737512Y697992D01*
X739496Y697992D01*
X739496Y694406D02*
X737512Y694406D01*
X737512Y696804D02*
X739496Y696804D01*
X732996Y697992D02*
X732996Y692008D01*
X731012Y692008D01*
X731012Y697992D01*
X732996Y697992D01*
X732996Y694406D02*
X731012Y694406D01*
X731012Y696804D02*
X732996Y696804D01*
X726496Y697992D02*
X726496Y692008D01*
X724512Y692008D01*
X724512Y697992D01*
X726496Y697992D01*
X726496Y694406D02*
X724512Y694406D01*
X724512Y696804D02*
X726496Y696804D01*
X719996Y697992D02*
X719996Y692008D01*
X718012Y692008D01*
X718012Y697992D01*
X719996Y697992D01*
X719996Y694406D02*
X718012Y694406D01*
X718012Y696804D02*
X719996Y696804D01*
D37*
X730012Y681258D02*
X730012Y678742D01*
X727496Y678742D01*
X727496Y681258D01*
X730012Y681258D01*
D28*
X235037Y660821D02*
X235037Y654779D01*
X227995Y654779D01*
X227995Y660821D01*
X235037Y660821D01*
X235037Y657123D02*
X227995Y657123D01*
X227995Y659467D02*
X235037Y659467D01*
X235037Y673779D02*
X235037Y679821D01*
X235037Y673779D02*
X227995Y673779D01*
X227995Y679821D01*
X235037Y679821D01*
X235037Y676123D02*
X227995Y676123D01*
X227995Y678467D02*
X235037Y678467D01*
X214037Y670321D02*
X214037Y664279D01*
X206995Y664279D01*
X206995Y670321D01*
X214037Y670321D01*
X214037Y666623D02*
X206995Y666623D01*
X206995Y668967D02*
X214037Y668967D01*
D18*
X190817Y725247D02*
X184143Y725247D01*
X190817Y725247D02*
X190817Y718573D01*
X184143Y718573D01*
X184143Y725247D01*
X184143Y721162D02*
X190817Y721162D01*
X190817Y723751D02*
X184143Y723751D01*
X175577Y725247D02*
X168903Y725247D01*
X175577Y725247D02*
X175577Y718573D01*
X168903Y718573D01*
X168903Y725247D01*
X168903Y721162D02*
X175577Y721162D01*
X175577Y723751D02*
X168903Y723751D01*
X224783Y647777D02*
X231457Y647777D01*
X231457Y641103D01*
X224783Y641103D01*
X224783Y647777D01*
X224783Y643692D02*
X231457Y643692D01*
X231457Y646281D02*
X224783Y646281D01*
X216217Y647777D02*
X209543Y647777D01*
X216217Y647777D02*
X216217Y641103D01*
X209543Y641103D01*
X209543Y647777D01*
X209543Y643692D02*
X216217Y643692D01*
X216217Y646281D02*
X209543Y646281D01*
D31*
X539076Y642266D02*
X539076Y637774D01*
X528584Y637774D01*
X528584Y642266D01*
X539076Y642266D01*
X539076Y639690D02*
X528584Y639690D01*
X528584Y641606D02*
X539076Y641606D01*
X539076Y656774D02*
X539076Y661266D01*
X539076Y656774D02*
X528584Y656774D01*
X528584Y661266D01*
X539076Y661266D01*
X539076Y658690D02*
X528584Y658690D01*
X528584Y660606D02*
X539076Y660606D01*
X565196Y642266D02*
X565196Y637774D01*
X554704Y637774D01*
X554704Y642266D01*
X565196Y642266D01*
X565196Y639690D02*
X554704Y639690D01*
X554704Y641606D02*
X565196Y641606D01*
X565196Y647274D02*
X565196Y651766D01*
X565196Y647274D02*
X554704Y647274D01*
X554704Y651766D01*
X565196Y651766D01*
X565196Y649190D02*
X554704Y649190D01*
X554704Y651106D02*
X565196Y651106D01*
X565196Y656774D02*
X565196Y661266D01*
X565196Y656774D02*
X554704Y656774D01*
X554704Y661266D01*
X565196Y661266D01*
X565196Y658690D02*
X554704Y658690D01*
X554704Y660606D02*
X565196Y660606D01*
D18*
X642613Y695459D02*
X649287Y695459D01*
X642613Y695459D02*
X642613Y702133D01*
X649287Y702133D01*
X649287Y695459D01*
X649287Y698048D02*
X642613Y698048D01*
X642613Y700637D02*
X649287Y700637D01*
X657853Y695459D02*
X664527Y695459D01*
X657853Y695459D02*
X657853Y702133D01*
X664527Y702133D01*
X664527Y695459D01*
X664527Y698048D02*
X657853Y698048D01*
X657853Y700637D02*
X664527Y700637D01*
X629913Y708159D02*
X629913Y714833D01*
X636587Y714833D01*
X636587Y708159D01*
X629913Y708159D01*
X629913Y710748D02*
X636587Y710748D01*
X636587Y713337D02*
X629913Y713337D01*
X629913Y699593D02*
X629913Y692919D01*
X629913Y699593D02*
X636587Y699593D01*
X636587Y692919D01*
X629913Y692919D01*
X629913Y695508D02*
X636587Y695508D01*
X636587Y698097D02*
X629913Y698097D01*
X684339Y675717D02*
X684339Y669043D01*
X677665Y669043D01*
X677665Y675717D01*
X684339Y675717D01*
X684339Y671632D02*
X677665Y671632D01*
X677665Y674221D02*
X684339Y674221D01*
X684339Y684283D02*
X684339Y690957D01*
X684339Y684283D02*
X677665Y684283D01*
X677665Y690957D01*
X684339Y690957D01*
X684339Y686872D02*
X677665Y686872D01*
X677665Y689461D02*
X684339Y689461D01*
X592137Y643967D02*
X592137Y637293D01*
X585463Y637293D01*
X585463Y643967D01*
X592137Y643967D01*
X592137Y639882D02*
X585463Y639882D01*
X585463Y642471D02*
X592137Y642471D01*
X592137Y652533D02*
X592137Y659207D01*
X592137Y652533D02*
X585463Y652533D01*
X585463Y659207D01*
X592137Y659207D01*
X592137Y655122D02*
X585463Y655122D01*
X585463Y657711D02*
X592137Y657711D01*
X579437Y643967D02*
X579437Y637293D01*
X572763Y637293D01*
X572763Y643967D01*
X579437Y643967D01*
X579437Y639882D02*
X572763Y639882D01*
X572763Y642471D02*
X579437Y642471D01*
X579437Y652533D02*
X579437Y659207D01*
X579437Y652533D02*
X572763Y652533D01*
X572763Y659207D01*
X579437Y659207D01*
X579437Y655122D02*
X572763Y655122D01*
X572763Y657711D02*
X579437Y657711D01*
D28*
X777241Y660591D02*
X777241Y653549D01*
X771199Y653549D01*
X771199Y660591D01*
X777241Y660591D01*
X777241Y655893D02*
X771199Y655893D01*
X771199Y658237D02*
X777241Y658237D01*
X777241Y660581D02*
X771199Y660581D01*
X777241Y676549D02*
X777241Y683591D01*
X777241Y676549D02*
X771199Y676549D01*
X771199Y683591D01*
X777241Y683591D01*
X777241Y678893D02*
X771199Y678893D01*
X771199Y681237D02*
X777241Y681237D01*
X777241Y683581D02*
X771199Y683581D01*
D38*
X829775Y687945D02*
X829775Y697455D01*
X829775Y687945D02*
X817725Y687945D01*
X817725Y697455D01*
X829775Y697455D01*
X829775Y691458D02*
X817725Y691458D01*
X817725Y694971D02*
X829775Y694971D01*
X829775Y713345D02*
X829775Y722855D01*
X829775Y713345D02*
X817725Y713345D01*
X817725Y722855D01*
X829775Y722855D01*
X829775Y716858D02*
X817725Y716858D01*
X817725Y720371D02*
X829775Y720371D01*
D18*
X187007Y634753D02*
X180333Y634753D01*
X180333Y641427D01*
X187007Y641427D01*
X187007Y634753D01*
X187007Y637342D02*
X180333Y637342D01*
X180333Y639931D02*
X187007Y639931D01*
X195573Y634753D02*
X202247Y634753D01*
X195573Y634753D02*
X195573Y641427D01*
X202247Y641427D01*
X202247Y634753D01*
X202247Y637342D02*
X195573Y637342D01*
X195573Y639931D02*
X202247Y639931D01*
D39*
X323065Y661255D02*
X328755Y661255D01*
X328755Y647945D01*
X323065Y647945D01*
X323065Y661255D01*
X323065Y650261D02*
X328755Y650261D01*
X328755Y652577D02*
X323065Y652577D01*
X323065Y654893D02*
X328755Y654893D01*
X328755Y657209D02*
X323065Y657209D01*
X323065Y659525D02*
X328755Y659525D01*
X328755Y712055D02*
X323065Y712055D01*
X328755Y712055D02*
X328755Y698745D01*
X323065Y698745D01*
X323065Y712055D01*
X323065Y701061D02*
X328755Y701061D01*
X328755Y703377D02*
X323065Y703377D01*
X323065Y705693D02*
X328755Y705693D01*
X328755Y708009D02*
X323065Y708009D01*
X323065Y710325D02*
X328755Y710325D01*
X361165Y661255D02*
X366855Y661255D01*
X366855Y647945D01*
X361165Y647945D01*
X361165Y661255D01*
X361165Y650261D02*
X366855Y650261D01*
X366855Y652577D02*
X361165Y652577D01*
X361165Y654893D02*
X366855Y654893D01*
X366855Y657209D02*
X361165Y657209D01*
X361165Y659525D02*
X366855Y659525D01*
X366855Y712055D02*
X361165Y712055D01*
X366855Y712055D02*
X366855Y698745D01*
X361165Y698745D01*
X361165Y712055D01*
X361165Y701061D02*
X366855Y701061D01*
X366855Y703377D02*
X361165Y703377D01*
X361165Y705693D02*
X366855Y705693D01*
X366855Y708009D02*
X361165Y708009D01*
X361165Y710325D02*
X366855Y710325D01*
X201755Y698745D02*
X196065Y698745D01*
X196065Y712055D01*
X201755Y712055D01*
X201755Y698745D01*
X201755Y701061D02*
X196065Y701061D01*
X196065Y703377D02*
X201755Y703377D01*
X201755Y705693D02*
X196065Y705693D01*
X196065Y708009D02*
X201755Y708009D01*
X201755Y710325D02*
X196065Y710325D01*
X196065Y647945D02*
X201755Y647945D01*
X196065Y647945D02*
X196065Y661255D01*
X201755Y661255D01*
X201755Y647945D01*
X201755Y650261D02*
X196065Y650261D01*
X196065Y652577D02*
X201755Y652577D01*
X201755Y654893D02*
X196065Y654893D01*
X196065Y657209D02*
X201755Y657209D01*
X201755Y659525D02*
X196065Y659525D01*
X163655Y698745D02*
X157965Y698745D01*
X157965Y712055D01*
X163655Y712055D01*
X163655Y698745D01*
X163655Y701061D02*
X157965Y701061D01*
X157965Y703377D02*
X163655Y703377D01*
X163655Y705693D02*
X157965Y705693D01*
X157965Y708009D02*
X163655Y708009D01*
X163655Y710325D02*
X157965Y710325D01*
X157965Y647945D02*
X163655Y647945D01*
X157965Y647945D02*
X157965Y661255D01*
X163655Y661255D01*
X163655Y647945D01*
X163655Y650261D02*
X157965Y650261D01*
X157965Y652577D02*
X163655Y652577D01*
X163655Y654893D02*
X157965Y654893D01*
X157965Y657209D02*
X163655Y657209D01*
X163655Y659525D02*
X157965Y659525D01*
D36*
X785438Y676058D02*
X791422Y676058D01*
X785438Y676058D02*
X785438Y678042D01*
X791422Y678042D01*
X791422Y676058D01*
X791422Y669558D02*
X785438Y669558D01*
X785438Y671542D01*
X791422Y671542D01*
X791422Y669558D01*
X791422Y663058D02*
X785438Y663058D01*
X785438Y665042D01*
X791422Y665042D01*
X791422Y663058D01*
X791422Y656558D02*
X785438Y656558D01*
X785438Y658542D01*
X791422Y658542D01*
X791422Y656558D01*
X815438Y656558D02*
X821422Y656558D01*
X815438Y656558D02*
X815438Y658542D01*
X821422Y658542D01*
X821422Y656558D01*
X821422Y663058D02*
X815438Y663058D01*
X815438Y665042D01*
X821422Y665042D01*
X821422Y663058D01*
X821422Y669558D02*
X815438Y669558D01*
X815438Y671542D01*
X821422Y671542D01*
X821422Y669558D01*
X821422Y676058D02*
X815438Y676058D01*
X815438Y678042D01*
X821422Y678042D01*
X821422Y676058D01*
D37*
X804688Y666042D02*
X802172Y666042D01*
X802172Y668558D01*
X804688Y668558D01*
X804688Y666042D01*
D18*
X802633Y694767D02*
X809307Y694767D01*
X809307Y688093D01*
X802633Y688093D01*
X802633Y694767D01*
X802633Y690682D02*
X809307Y690682D01*
X809307Y693271D02*
X802633Y693271D01*
X794067Y694767D02*
X787393Y694767D01*
X794067Y694767D02*
X794067Y688093D01*
X787393Y688093D01*
X787393Y694767D01*
X787393Y690682D02*
X794067Y690682D01*
X794067Y693271D02*
X787393Y693271D01*
D28*
X627349Y668391D02*
X627349Y662349D01*
X627349Y668391D02*
X634391Y668391D01*
X634391Y662349D01*
X627349Y662349D01*
X627349Y664693D02*
X634391Y664693D01*
X634391Y667037D02*
X627349Y667037D01*
X627349Y649391D02*
X627349Y643349D01*
X627349Y649391D02*
X634391Y649391D01*
X634391Y643349D01*
X627349Y643349D01*
X627349Y645693D02*
X634391Y645693D01*
X634391Y648037D02*
X627349Y648037D01*
X648349Y652849D02*
X648349Y658891D01*
X655391Y658891D01*
X655391Y652849D01*
X648349Y652849D01*
X648349Y655193D02*
X655391Y655193D01*
X655391Y657537D02*
X648349Y657537D01*
D18*
X629475Y676663D02*
X622801Y676663D01*
X622801Y683337D01*
X629475Y683337D01*
X629475Y676663D01*
X629475Y679252D02*
X622801Y679252D01*
X622801Y681841D02*
X629475Y681841D01*
X638041Y676663D02*
X644715Y676663D01*
X638041Y676663D02*
X638041Y683337D01*
X644715Y683337D01*
X644715Y676663D01*
X644715Y679252D02*
X638041Y679252D01*
X638041Y681841D02*
X644715Y681841D01*
X671639Y647777D02*
X671639Y641103D01*
X664965Y641103D01*
X664965Y647777D01*
X671639Y647777D01*
X671639Y643692D02*
X664965Y643692D01*
X664965Y646281D02*
X671639Y646281D01*
X671639Y656343D02*
X671639Y663017D01*
X671639Y656343D02*
X664965Y656343D01*
X664965Y663017D01*
X671639Y663017D01*
X671639Y658932D02*
X664965Y658932D01*
X664965Y661521D02*
X671639Y661521D01*
X684339Y647777D02*
X684339Y641103D01*
X677665Y641103D01*
X677665Y647777D01*
X684339Y647777D01*
X684339Y643692D02*
X677665Y643692D01*
X677665Y646281D02*
X684339Y646281D01*
X684339Y656343D02*
X684339Y663017D01*
X684339Y656343D02*
X677665Y656343D01*
X677665Y663017D01*
X684339Y663017D01*
X684339Y658932D02*
X677665Y658932D01*
X677665Y661521D02*
X684339Y661521D01*
X621347Y703657D02*
X614673Y703657D01*
X621347Y703657D02*
X621347Y696983D01*
X614673Y696983D01*
X614673Y703657D01*
X614673Y699572D02*
X621347Y699572D01*
X621347Y702161D02*
X614673Y702161D01*
X606107Y703657D02*
X599433Y703657D01*
X606107Y703657D02*
X606107Y696983D01*
X599433Y696983D01*
X599433Y703657D01*
X599433Y699572D02*
X606107Y699572D01*
X606107Y702161D02*
X599433Y702161D01*
X655313Y708159D02*
X661987Y708159D01*
X655313Y708159D02*
X655313Y714833D01*
X661987Y714833D01*
X661987Y708159D01*
X661987Y710748D02*
X655313Y710748D01*
X655313Y713337D02*
X661987Y713337D01*
X670553Y708159D02*
X677227Y708159D01*
X670553Y708159D02*
X670553Y714833D01*
X677227Y714833D01*
X677227Y708159D01*
X677227Y710748D02*
X670553Y710748D01*
X670553Y713337D02*
X677227Y713337D01*
D40*
X928044Y708876D02*
X928044Y696124D01*
X928044Y708876D02*
X934796Y708876D01*
X934796Y696124D01*
X928044Y696124D01*
X928044Y698743D02*
X934796Y698743D01*
X934796Y701362D02*
X928044Y701362D01*
X928044Y703981D02*
X934796Y703981D01*
X934796Y706600D02*
X928044Y706600D01*
X893044Y708876D02*
X893044Y696124D01*
X893044Y708876D02*
X899796Y708876D01*
X899796Y696124D01*
X893044Y696124D01*
X893044Y698743D02*
X899796Y698743D01*
X899796Y701362D02*
X893044Y701362D01*
X893044Y703981D02*
X899796Y703981D01*
X899796Y706600D02*
X893044Y706600D01*
X893044Y663876D02*
X893044Y651124D01*
X893044Y663876D02*
X899796Y663876D01*
X899796Y651124D01*
X893044Y651124D01*
X893044Y653743D02*
X899796Y653743D01*
X899796Y656362D02*
X893044Y656362D01*
X893044Y658981D02*
X899796Y658981D01*
X899796Y661600D02*
X893044Y661600D01*
D18*
X508317Y655073D02*
X501643Y655073D01*
X501643Y661747D01*
X508317Y661747D01*
X508317Y655073D01*
X508317Y657662D02*
X501643Y657662D01*
X501643Y660251D02*
X508317Y660251D01*
X516883Y655073D02*
X523557Y655073D01*
X516883Y655073D02*
X516883Y661747D01*
X523557Y661747D01*
X523557Y655073D01*
X523557Y657662D02*
X516883Y657662D01*
X516883Y660251D02*
X523557Y660251D01*
X508317Y637293D02*
X501643Y637293D01*
X501643Y643967D01*
X508317Y643967D01*
X508317Y637293D01*
X508317Y639882D02*
X501643Y639882D01*
X501643Y642471D02*
X508317Y642471D01*
X516883Y637293D02*
X523557Y637293D01*
X516883Y637293D02*
X516883Y643967D01*
X523557Y643967D01*
X523557Y637293D01*
X523557Y639882D02*
X516883Y639882D01*
X516883Y642471D02*
X523557Y642471D01*
X374643Y690633D02*
X374643Y697307D01*
X381317Y697307D01*
X381317Y690633D01*
X374643Y690633D01*
X374643Y693222D02*
X381317Y693222D01*
X381317Y695811D02*
X374643Y695811D01*
X374643Y682067D02*
X374643Y675393D01*
X374643Y682067D02*
X381317Y682067D01*
X381317Y675393D01*
X374643Y675393D01*
X374643Y677982D02*
X381317Y677982D01*
X381317Y680571D02*
X374643Y680571D01*
X381317Y703333D02*
X381317Y710007D01*
X381317Y703333D02*
X374643Y703333D01*
X374643Y710007D01*
X381317Y710007D01*
X381317Y705922D02*
X374643Y705922D01*
X374643Y708511D02*
X381317Y708511D01*
X381317Y718573D02*
X381317Y725247D01*
X381317Y718573D02*
X374643Y718573D01*
X374643Y725247D01*
X381317Y725247D01*
X381317Y721162D02*
X374643Y721162D01*
X374643Y723751D02*
X381317Y723751D01*
D28*
X406049Y707491D02*
X412091Y707491D01*
X412091Y700449D01*
X406049Y700449D01*
X406049Y707491D01*
X406049Y702793D02*
X412091Y702793D01*
X412091Y705137D02*
X406049Y705137D01*
X406049Y707481D02*
X412091Y707481D01*
X393091Y707491D02*
X387049Y707491D01*
X393091Y707491D02*
X393091Y700449D01*
X387049Y700449D01*
X387049Y707491D01*
X387049Y702793D02*
X393091Y702793D01*
X393091Y705137D02*
X387049Y705137D01*
X387049Y707481D02*
X393091Y707481D01*
X396549Y686491D02*
X402591Y686491D01*
X402591Y679449D01*
X396549Y679449D01*
X396549Y686491D01*
X396549Y681793D02*
X402591Y681793D01*
X402591Y684137D02*
X396549Y684137D01*
X396549Y686481D02*
X402591Y686481D01*
D18*
X403853Y720167D02*
X410527Y720167D01*
X410527Y713493D01*
X403853Y713493D01*
X403853Y720167D01*
X403853Y716082D02*
X410527Y716082D01*
X410527Y718671D02*
X403853Y718671D01*
X395287Y720167D02*
X388613Y720167D01*
X395287Y720167D02*
X395287Y713493D01*
X388613Y713493D01*
X388613Y720167D01*
X388613Y716082D02*
X395287Y716082D01*
X395287Y718671D02*
X388613Y718671D01*
D39*
X246205Y661255D02*
X240515Y661255D01*
X246205Y661255D02*
X246205Y647945D01*
X240515Y647945D01*
X240515Y661255D01*
X240515Y650261D02*
X246205Y650261D01*
X246205Y652577D02*
X240515Y652577D01*
X240515Y654893D02*
X246205Y654893D01*
X246205Y657209D02*
X240515Y657209D01*
X240515Y659525D02*
X246205Y659525D01*
X246205Y712055D02*
X240515Y712055D01*
X246205Y712055D02*
X246205Y698745D01*
X240515Y698745D01*
X240515Y712055D01*
X240515Y701061D02*
X246205Y701061D01*
X246205Y703377D02*
X240515Y703377D01*
X240515Y705693D02*
X246205Y705693D01*
X246205Y708009D02*
X240515Y708009D01*
X240515Y710325D02*
X246205Y710325D01*
X278615Y661255D02*
X284305Y661255D01*
X284305Y647945D01*
X278615Y647945D01*
X278615Y661255D01*
X278615Y650261D02*
X284305Y650261D01*
X284305Y652577D02*
X278615Y652577D01*
X278615Y654893D02*
X284305Y654893D01*
X284305Y657209D02*
X278615Y657209D01*
X278615Y659525D02*
X284305Y659525D01*
X284305Y712055D02*
X278615Y712055D01*
X284305Y712055D02*
X284305Y698745D01*
X278615Y698745D01*
X278615Y712055D01*
X278615Y701061D02*
X284305Y701061D01*
X284305Y703377D02*
X278615Y703377D01*
X278615Y705693D02*
X284305Y705693D01*
X284305Y708009D02*
X278615Y708009D01*
X278615Y710325D02*
X284305Y710325D01*
D18*
X294633Y670313D02*
X301307Y670313D01*
X294633Y670313D02*
X294633Y676987D01*
X301307Y676987D01*
X301307Y670313D01*
X301307Y672902D02*
X294633Y672902D01*
X294633Y675491D02*
X301307Y675491D01*
X309873Y670313D02*
X316547Y670313D01*
X309873Y670313D02*
X309873Y676987D01*
X316547Y676987D01*
X316547Y670313D01*
X316547Y672902D02*
X309873Y672902D01*
X309873Y675491D02*
X316547Y675491D01*
X301307Y690633D02*
X294633Y690633D01*
X294633Y697307D01*
X301307Y697307D01*
X301307Y690633D01*
X301307Y693222D02*
X294633Y693222D01*
X294633Y695811D02*
X301307Y695811D01*
X309873Y690633D02*
X316547Y690633D01*
X309873Y690633D02*
X309873Y697307D01*
X316547Y697307D01*
X316547Y690633D01*
X316547Y693222D02*
X309873Y693222D01*
X309873Y695811D02*
X316547Y695811D01*
D41*
X80800Y680000D03*
D42*
X463129Y720901D02*
X492831Y720901D01*
X492831Y719699D01*
X463129Y719699D01*
X463129Y720901D01*
X463129Y714701D02*
X492831Y714701D01*
X492831Y713499D01*
X463129Y713499D01*
X463129Y714701D01*
X463129Y708501D02*
X492831Y708501D01*
X492831Y707299D01*
X463129Y707299D01*
X463129Y708501D01*
X463129Y702301D02*
X492831Y702301D01*
X492831Y701099D01*
X463129Y701099D01*
X463129Y702301D01*
X463129Y696101D02*
X492831Y696101D01*
X492831Y694899D01*
X463129Y694899D01*
X463129Y696101D01*
X463129Y689901D02*
X492831Y689901D01*
X492831Y688699D01*
X463129Y688699D01*
X463129Y689901D01*
X463129Y683701D02*
X492831Y683701D01*
X492831Y682499D01*
X463129Y682499D01*
X463129Y683701D01*
X463129Y677501D02*
X492831Y677501D01*
X492831Y676299D01*
X463129Y676299D01*
X463129Y677501D01*
X463129Y671301D02*
X492831Y671301D01*
X492831Y670099D01*
X463129Y670099D01*
X463129Y671301D01*
X463129Y665101D02*
X492831Y665101D01*
X492831Y663899D01*
X463129Y663899D01*
X463129Y665101D01*
X463129Y658901D02*
X492831Y658901D01*
X492831Y657699D01*
X463129Y657699D01*
X463129Y658901D01*
X463129Y652701D02*
X492831Y652701D01*
X492831Y651499D01*
X463129Y651499D01*
X463129Y652701D01*
X463129Y646501D02*
X492831Y646501D01*
X492831Y645299D01*
X463129Y645299D01*
X463129Y646501D01*
X463129Y640301D02*
X492831Y640301D01*
X492831Y639099D01*
X463129Y639099D01*
X463129Y640301D01*
D18*
X150177Y669043D02*
X150177Y675717D01*
X150177Y669043D02*
X143503Y669043D01*
X143503Y675717D01*
X150177Y675717D01*
X150177Y671632D02*
X143503Y671632D01*
X143503Y674221D02*
X150177Y674221D01*
X150177Y684283D02*
X150177Y690957D01*
X150177Y684283D02*
X143503Y684283D01*
X143503Y690957D01*
X150177Y690957D01*
X150177Y686872D02*
X143503Y686872D01*
X143503Y689461D02*
X150177Y689461D01*
X137477Y675717D02*
X137477Y669043D01*
X130803Y669043D01*
X130803Y675717D01*
X137477Y675717D01*
X137477Y671632D02*
X130803Y671632D01*
X130803Y674221D02*
X137477Y674221D01*
X137477Y684283D02*
X137477Y690957D01*
X137477Y684283D02*
X130803Y684283D01*
X130803Y690957D01*
X137477Y690957D01*
X137477Y686872D02*
X130803Y686872D01*
X130803Y689461D02*
X137477Y689461D01*
D43*
X61148Y697112D02*
X61148Y708608D01*
X61148Y697112D02*
X49652Y697112D01*
X49652Y708608D01*
X61148Y708608D01*
X61148Y701151D02*
X49652Y701151D01*
X49652Y705190D02*
X61148Y705190D01*
X111948Y708608D02*
X111948Y697112D01*
X100452Y697112D01*
X100452Y708608D01*
X111948Y708608D01*
X111948Y701151D02*
X100452Y701151D01*
X100452Y705190D02*
X111948Y705190D01*
X61148Y662888D02*
X61148Y651392D01*
X49652Y651392D01*
X49652Y662888D01*
X61148Y662888D01*
X61148Y655431D02*
X49652Y655431D01*
X49652Y659470D02*
X61148Y659470D01*
X111948Y662888D02*
X111948Y651392D01*
X100452Y651392D01*
X100452Y662888D01*
X111948Y662888D01*
X111948Y655431D02*
X100452Y655431D01*
X100452Y659470D02*
X111948Y659470D01*
D33*
X754150Y680000D03*
X703350Y680000D03*
X659150Y680000D03*
X608350Y680000D03*
X106200Y680000D03*
X55400Y680000D03*
D44*
X240210Y725695D02*
X242954Y725695D01*
X242954Y718125D01*
X240210Y718125D01*
X240210Y725695D01*
X240210Y719863D02*
X242954Y719863D01*
X242954Y721601D02*
X240210Y721601D01*
X240210Y723339D02*
X242954Y723339D01*
X242954Y725077D02*
X240210Y725077D01*
X236350Y725695D02*
X233606Y725695D01*
X236350Y725695D02*
X236350Y718125D01*
X233606Y718125D01*
X233606Y725695D01*
X233606Y719863D02*
X236350Y719863D01*
X236350Y721601D02*
X233606Y721601D01*
X233606Y723339D02*
X236350Y723339D01*
X236350Y725077D02*
X233606Y725077D01*
D34*
X108740Y720640D03*
M02*
