G04 EAGLE Gerber RS-274X export*
G75*
%MOMM*%
%FSLAX34Y34*%
%LPD*%
%INSolderpaste Top*%
%IPPOS*%
%AMOC8*
5,1,8,0,0,1.08239X$1,22.5*%
G01*
%ADD10C,0.222250*%
%ADD11C,0.550000*%
%ADD12C,0.225000*%
%ADD13R,1.050000X1.050000*%
%ADD14R,0.500000X0.500000*%
%ADD15C,0.184800*%
%ADD16C,0.369600*%
%ADD17C,0.363000*%
%ADD18C,0.254000*%
%ADD19C,0.200000*%
%ADD20C,0.285000*%
%ADD21C,0.350000*%
%ADD22C,0.150000*%

G36*
X78085Y27954D02*
X78085Y27954D01*
X78088Y27951D01*
X79183Y28131D01*
X79189Y28137D01*
X79194Y28134D01*
X80222Y28553D01*
X80226Y28560D01*
X80231Y28558D01*
X81140Y29196D01*
X81143Y29203D01*
X81148Y29203D01*
X81892Y30026D01*
X81893Y30034D01*
X81899Y30035D01*
X82441Y31003D01*
X82440Y31012D01*
X82446Y31014D01*
X82759Y32078D01*
X82756Y32086D01*
X82761Y32089D01*
X82829Y33197D01*
X82825Y33204D01*
X82829Y33207D01*
X82659Y34315D01*
X82653Y34321D01*
X82656Y34326D01*
X82244Y35368D01*
X82237Y35372D01*
X82239Y35377D01*
X81605Y36302D01*
X81597Y36304D01*
X81598Y36310D01*
X80775Y37070D01*
X80766Y37071D01*
X80766Y37077D01*
X79794Y37634D01*
X79786Y37633D01*
X79784Y37639D01*
X78712Y37966D01*
X78704Y37963D01*
X78701Y37968D01*
X77584Y38049D01*
X77581Y38048D01*
X77580Y38049D01*
X65580Y38049D01*
X65577Y38047D01*
X65570Y38047D01*
X65569Y38048D01*
X64625Y37829D01*
X64619Y37823D01*
X64614Y37825D01*
X63742Y37402D01*
X63739Y37394D01*
X63733Y37396D01*
X62977Y36789D01*
X62975Y36781D01*
X62969Y36781D01*
X62368Y36021D01*
X62368Y36012D01*
X62362Y36011D01*
X61944Y35136D01*
X61946Y35128D01*
X61941Y35126D01*
X61729Y34180D01*
X61732Y34173D01*
X61727Y34169D01*
X61731Y33200D01*
X61731Y33199D01*
X61750Y32131D01*
X61755Y32124D01*
X61751Y32120D01*
X62007Y31083D01*
X62014Y31078D01*
X62011Y31072D01*
X62492Y30118D01*
X62499Y30115D01*
X62498Y30109D01*
X63179Y29286D01*
X63187Y29284D01*
X63187Y29278D01*
X64034Y28627D01*
X64042Y28627D01*
X64043Y28621D01*
X65014Y28174D01*
X65022Y28176D01*
X65024Y28171D01*
X66070Y27952D01*
X66077Y27955D01*
X66080Y27951D01*
X78080Y27951D01*
X78085Y27954D01*
G37*
G36*
X78085Y114355D02*
X78085Y114355D01*
X78088Y114351D01*
X79194Y114544D01*
X79199Y114549D01*
X79199Y114550D01*
X79204Y114547D01*
X80239Y114980D01*
X80243Y114987D01*
X80248Y114985D01*
X81161Y115638D01*
X81163Y115646D01*
X81169Y115645D01*
X81913Y116484D01*
X81914Y116493D01*
X81919Y116493D01*
X82458Y117477D01*
X82457Y117485D01*
X82458Y117486D01*
X82462Y117487D01*
X82463Y117489D01*
X82645Y118130D01*
X82769Y118566D01*
X82767Y118571D01*
X82769Y118573D01*
X82767Y118575D01*
X82771Y118577D01*
X82829Y119697D01*
X82826Y119702D01*
X82829Y119706D01*
X82711Y120751D01*
X82705Y120757D01*
X82709Y120762D01*
X82361Y121756D01*
X82354Y121760D01*
X82356Y121765D01*
X81796Y122657D01*
X81789Y122660D01*
X81789Y122665D01*
X81045Y123409D01*
X81037Y123411D01*
X81037Y123416D01*
X80145Y123976D01*
X80137Y123976D01*
X80136Y123981D01*
X79142Y124329D01*
X79134Y124326D01*
X79131Y124331D01*
X78086Y124449D01*
X78082Y124447D01*
X78080Y124449D01*
X66080Y124449D01*
X66077Y124447D01*
X66074Y124447D01*
X66072Y124449D01*
X65076Y124291D01*
X65070Y124285D01*
X65065Y124288D01*
X64129Y123913D01*
X64125Y123906D01*
X64119Y123908D01*
X63290Y123334D01*
X63287Y123326D01*
X63282Y123327D01*
X62601Y122583D01*
X62600Y122574D01*
X62594Y122574D01*
X62096Y121697D01*
X62097Y121689D01*
X62092Y121686D01*
X61904Y121062D01*
X61801Y120721D01*
X61802Y120718D01*
X61801Y120717D01*
X61804Y120713D01*
X61799Y120710D01*
X61731Y119703D01*
X61732Y119701D01*
X61731Y119700D01*
X61740Y118619D01*
X61745Y118612D01*
X61741Y118608D01*
X61991Y117556D01*
X61997Y117551D01*
X61994Y117546D01*
X62471Y116576D01*
X62479Y116573D01*
X62477Y116567D01*
X63158Y115728D01*
X63166Y115726D01*
X63166Y115720D01*
X64017Y115054D01*
X64025Y115053D01*
X64026Y115048D01*
X65003Y114587D01*
X65011Y114589D01*
X65014Y114584D01*
X66069Y114352D01*
X66077Y114355D01*
X66080Y114351D01*
X78080Y114351D01*
X78085Y114355D01*
G37*
G36*
X33284Y27954D02*
X33284Y27954D01*
X33286Y27951D01*
X34419Y28101D01*
X34425Y28107D01*
X34430Y28104D01*
X35500Y28502D01*
X35504Y28509D01*
X35510Y28507D01*
X36465Y29134D01*
X36468Y29142D01*
X36473Y29141D01*
X37265Y29964D01*
X37266Y29972D01*
X37272Y29973D01*
X37861Y30952D01*
X37860Y30960D01*
X37865Y30962D01*
X38221Y32047D01*
X38219Y32055D01*
X38223Y32058D01*
X38329Y33195D01*
X38324Y33204D01*
X38328Y33209D01*
X38121Y34346D01*
X38115Y34352D01*
X38118Y34357D01*
X37663Y35419D01*
X37656Y35423D01*
X37658Y35429D01*
X36978Y36364D01*
X36970Y36366D01*
X36971Y36372D01*
X36100Y37132D01*
X36092Y37132D01*
X36091Y37138D01*
X35072Y37685D01*
X35064Y37684D01*
X35062Y37689D01*
X33948Y37996D01*
X33940Y37993D01*
X33937Y37998D01*
X32782Y38049D01*
X32781Y38048D01*
X32780Y38049D01*
X26780Y38049D01*
X26777Y38047D01*
X26772Y38047D01*
X26771Y38048D01*
X25690Y37836D01*
X25685Y37830D01*
X25680Y37833D01*
X24674Y37386D01*
X24670Y37379D01*
X24664Y37381D01*
X23783Y36721D01*
X23780Y36713D01*
X23775Y36713D01*
X23062Y35874D01*
X23062Y35866D01*
X23056Y35865D01*
X22548Y34888D01*
X22549Y34880D01*
X22544Y34878D01*
X22266Y33813D01*
X22269Y33805D01*
X22265Y33802D01*
X22231Y32702D01*
X22235Y32696D01*
X22231Y32693D01*
X22386Y31618D01*
X22392Y31612D01*
X22389Y31607D01*
X22779Y30593D01*
X22786Y30589D01*
X22785Y30583D01*
X23391Y29681D01*
X23399Y29679D01*
X23398Y29673D01*
X24190Y28929D01*
X24198Y28928D01*
X24198Y28922D01*
X25136Y28373D01*
X25144Y28374D01*
X25146Y28368D01*
X26182Y28041D01*
X26190Y28044D01*
X26193Y28039D01*
X27276Y27951D01*
X27279Y27953D01*
X27280Y27951D01*
X33280Y27951D01*
X33284Y27954D01*
G37*
G36*
X33283Y114353D02*
X33283Y114353D01*
X33285Y114351D01*
X34377Y114452D01*
X34383Y114457D01*
X34388Y114454D01*
X35431Y114795D01*
X35436Y114802D01*
X35441Y114800D01*
X36382Y115364D01*
X36385Y115372D01*
X36391Y115371D01*
X37183Y116131D01*
X37184Y116139D01*
X37190Y116140D01*
X37793Y117057D01*
X37792Y117065D01*
X37798Y117067D01*
X38181Y118095D01*
X38179Y118103D01*
X38184Y118106D01*
X38329Y119194D01*
X38325Y119201D01*
X38329Y119205D01*
X38223Y120342D01*
X38218Y120348D01*
X38221Y120353D01*
X37865Y121438D01*
X37858Y121443D01*
X37861Y121448D01*
X37272Y122427D01*
X37264Y122430D01*
X37265Y122436D01*
X36473Y123259D01*
X36465Y123260D01*
X36465Y123266D01*
X35510Y123893D01*
X35502Y123892D01*
X35500Y123898D01*
X34430Y124296D01*
X34422Y124294D01*
X34419Y124299D01*
X33286Y124449D01*
X33283Y124447D01*
X33282Y124447D01*
X33280Y124449D01*
X27280Y124449D01*
X27277Y124447D01*
X27275Y124447D01*
X27274Y124449D01*
X26141Y124299D01*
X26135Y124293D01*
X26130Y124296D01*
X25060Y123898D01*
X25056Y123891D01*
X25050Y123893D01*
X24095Y123266D01*
X24092Y123258D01*
X24087Y123259D01*
X23295Y122436D01*
X23294Y122428D01*
X23288Y122427D01*
X22699Y121448D01*
X22700Y121440D01*
X22695Y121438D01*
X22339Y120353D01*
X22342Y120345D01*
X22337Y120342D01*
X22231Y119205D01*
X22235Y119198D01*
X22231Y119194D01*
X22376Y118106D01*
X22382Y118100D01*
X22379Y118095D01*
X22763Y117067D01*
X22769Y117062D01*
X22768Y117057D01*
X23370Y116140D01*
X23378Y116137D01*
X23377Y116131D01*
X24169Y115371D01*
X24177Y115370D01*
X24178Y115364D01*
X25119Y114800D01*
X25127Y114801D01*
X25129Y114795D01*
X26172Y114454D01*
X26180Y114456D01*
X26183Y114452D01*
X27276Y114351D01*
X27278Y114353D01*
X27280Y114351D01*
X33280Y114351D01*
X33283Y114353D01*
G37*
D10*
X179546Y55086D02*
X179546Y61754D01*
X186214Y61754D01*
X186214Y55086D01*
X179546Y55086D01*
X179546Y57198D02*
X186214Y57198D01*
X186214Y59310D02*
X179546Y59310D01*
X179546Y61422D02*
X186214Y61422D01*
X179546Y46514D02*
X179546Y39846D01*
X179546Y46514D02*
X186214Y46514D01*
X186214Y39846D01*
X179546Y39846D01*
X179546Y41958D02*
X186214Y41958D01*
X186214Y44070D02*
X179546Y44070D01*
X179546Y46182D02*
X186214Y46182D01*
X787876Y98266D02*
X787876Y104934D01*
X794544Y104934D01*
X794544Y98266D01*
X787876Y98266D01*
X787876Y100378D02*
X794544Y100378D01*
X794544Y102490D02*
X787876Y102490D01*
X787876Y104602D02*
X794544Y104602D01*
X787876Y89694D02*
X787876Y83026D01*
X787876Y89694D02*
X794544Y89694D01*
X794544Y83026D01*
X787876Y83026D01*
X787876Y85138D02*
X794544Y85138D01*
X794544Y87250D02*
X787876Y87250D01*
X787876Y89362D02*
X794544Y89362D01*
D11*
X820320Y91450D02*
X820320Y83950D01*
X820320Y91450D02*
X825820Y91450D01*
X825820Y83950D01*
X820320Y83950D01*
X820320Y89175D02*
X825820Y89175D01*
X802320Y68450D02*
X802320Y60950D01*
X802320Y68450D02*
X807820Y68450D01*
X807820Y60950D01*
X802320Y60950D01*
X802320Y66175D02*
X807820Y66175D01*
X820320Y68450D02*
X820320Y60950D01*
X820320Y68450D02*
X825820Y68450D01*
X825820Y60950D01*
X820320Y60950D01*
X820320Y66175D02*
X825820Y66175D01*
X802320Y83950D02*
X802320Y91450D01*
X807820Y91450D01*
X807820Y83950D01*
X802320Y83950D01*
X802320Y89175D02*
X807820Y89175D01*
D10*
X794544Y54134D02*
X794544Y47466D01*
X787876Y47466D01*
X787876Y54134D01*
X794544Y54134D01*
X794544Y49578D02*
X787876Y49578D01*
X787876Y51690D02*
X794544Y51690D01*
X794544Y53802D02*
X787876Y53802D01*
X794544Y62706D02*
X794544Y69374D01*
X794544Y62706D02*
X787876Y62706D01*
X787876Y69374D01*
X794544Y69374D01*
X794544Y64818D02*
X787876Y64818D01*
X787876Y66930D02*
X794544Y66930D01*
X794544Y69042D02*
X787876Y69042D01*
X163354Y81756D02*
X156686Y81756D01*
X156686Y88424D01*
X163354Y88424D01*
X163354Y81756D01*
X163354Y83868D02*
X156686Y83868D01*
X156686Y85980D02*
X163354Y85980D01*
X163354Y88092D02*
X156686Y88092D01*
X171926Y81756D02*
X178594Y81756D01*
X171926Y81756D02*
X171926Y88424D01*
X178594Y88424D01*
X178594Y81756D01*
X178594Y83868D02*
X171926Y83868D01*
X171926Y85980D02*
X178594Y85980D01*
X178594Y88092D02*
X171926Y88092D01*
X163354Y94456D02*
X156686Y94456D01*
X156686Y101124D01*
X163354Y101124D01*
X163354Y94456D01*
X163354Y96568D02*
X156686Y96568D01*
X156686Y98680D02*
X163354Y98680D01*
X163354Y100792D02*
X156686Y100792D01*
X171926Y94456D02*
X178594Y94456D01*
X171926Y94456D02*
X171926Y101124D01*
X178594Y101124D01*
X178594Y94456D01*
X178594Y96568D02*
X171926Y96568D01*
X171926Y98680D02*
X178594Y98680D01*
X178594Y100792D02*
X171926Y100792D01*
X803116Y120174D02*
X809784Y120174D01*
X809784Y113506D01*
X803116Y113506D01*
X803116Y120174D01*
X803116Y115618D02*
X809784Y115618D01*
X809784Y117730D02*
X803116Y117730D01*
X803116Y119842D02*
X809784Y119842D01*
X794544Y120174D02*
X787876Y120174D01*
X794544Y120174D02*
X794544Y113506D01*
X787876Y113506D01*
X787876Y120174D01*
X787876Y115618D02*
X794544Y115618D01*
X794544Y117730D02*
X787876Y117730D01*
X787876Y119842D02*
X794544Y119842D01*
X658654Y40862D02*
X651986Y40862D01*
X651986Y47530D01*
X658654Y47530D01*
X658654Y40862D01*
X658654Y42974D02*
X651986Y42974D01*
X651986Y45086D02*
X658654Y45086D01*
X658654Y47198D02*
X651986Y47198D01*
X667226Y40862D02*
X673894Y40862D01*
X667226Y40862D02*
X667226Y47530D01*
X673894Y47530D01*
X673894Y40862D01*
X673894Y42974D02*
X667226Y42974D01*
X667226Y45086D02*
X673894Y45086D01*
X673894Y47198D02*
X667226Y47198D01*
X787876Y32226D02*
X794544Y32226D01*
X787876Y32226D02*
X787876Y38894D01*
X794544Y38894D01*
X794544Y32226D01*
X794544Y34338D02*
X787876Y34338D01*
X787876Y36450D02*
X794544Y36450D01*
X794544Y38562D02*
X787876Y38562D01*
X803116Y32226D02*
X809784Y32226D01*
X803116Y32226D02*
X803116Y38894D01*
X809784Y38894D01*
X809784Y32226D01*
X809784Y34338D02*
X803116Y34338D01*
X803116Y36450D02*
X809784Y36450D01*
X809784Y38562D02*
X803116Y38562D01*
D12*
X709475Y38325D02*
X709475Y44075D01*
X709475Y38325D02*
X708725Y38325D01*
X708725Y44075D01*
X709475Y44075D01*
X709475Y40462D02*
X708725Y40462D01*
X708725Y42599D02*
X709475Y42599D01*
X714475Y44075D02*
X714475Y38325D01*
X713725Y38325D01*
X713725Y44075D01*
X714475Y44075D01*
X714475Y40462D02*
X713725Y40462D01*
X713725Y42599D02*
X714475Y42599D01*
X719475Y44075D02*
X719475Y38325D01*
X718725Y38325D01*
X718725Y44075D01*
X719475Y44075D01*
X719475Y40462D02*
X718725Y40462D01*
X718725Y42599D02*
X719475Y42599D01*
X724475Y44075D02*
X724475Y38325D01*
X723725Y38325D01*
X723725Y44075D01*
X724475Y44075D01*
X724475Y40462D02*
X723725Y40462D01*
X723725Y42599D02*
X724475Y42599D01*
X729475Y44075D02*
X729475Y38325D01*
X728725Y38325D01*
X728725Y44075D01*
X729475Y44075D01*
X729475Y40462D02*
X728725Y40462D01*
X728725Y42599D02*
X729475Y42599D01*
X734475Y44075D02*
X734475Y38325D01*
X733725Y38325D01*
X733725Y44075D01*
X734475Y44075D01*
X734475Y40462D02*
X733725Y40462D01*
X733725Y42599D02*
X734475Y42599D01*
X739475Y44075D02*
X739475Y38325D01*
X738725Y38325D01*
X738725Y44075D01*
X739475Y44075D01*
X739475Y40462D02*
X738725Y40462D01*
X738725Y42599D02*
X739475Y42599D01*
X744475Y44075D02*
X744475Y38325D01*
X743725Y38325D01*
X743725Y44075D01*
X744475Y44075D01*
X744475Y40462D02*
X743725Y40462D01*
X743725Y42599D02*
X744475Y42599D01*
X749475Y44075D02*
X749475Y38325D01*
X748725Y38325D01*
X748725Y44075D01*
X749475Y44075D01*
X749475Y40462D02*
X748725Y40462D01*
X748725Y42599D02*
X749475Y42599D01*
X754475Y44075D02*
X754475Y38325D01*
X753725Y38325D01*
X753725Y44075D01*
X754475Y44075D01*
X754475Y40462D02*
X753725Y40462D01*
X753725Y42599D02*
X754475Y42599D01*
X759475Y44075D02*
X759475Y38325D01*
X758725Y38325D01*
X758725Y44075D01*
X759475Y44075D01*
X759475Y40462D02*
X758725Y40462D01*
X758725Y42599D02*
X759475Y42599D01*
X764475Y44075D02*
X764475Y38325D01*
X763725Y38325D01*
X763725Y44075D01*
X764475Y44075D01*
X764475Y40462D02*
X763725Y40462D01*
X763725Y42599D02*
X764475Y42599D01*
X768725Y49075D02*
X774475Y49075D01*
X774475Y48325D01*
X768725Y48325D01*
X768725Y49075D01*
X768725Y54075D02*
X774475Y54075D01*
X774475Y53325D01*
X768725Y53325D01*
X768725Y54075D01*
X768725Y59075D02*
X774475Y59075D01*
X774475Y58325D01*
X768725Y58325D01*
X768725Y59075D01*
X768725Y64075D02*
X774475Y64075D01*
X774475Y63325D01*
X768725Y63325D01*
X768725Y64075D01*
X768725Y69075D02*
X774475Y69075D01*
X774475Y68325D01*
X768725Y68325D01*
X768725Y69075D01*
X768725Y74075D02*
X774475Y74075D01*
X774475Y73325D01*
X768725Y73325D01*
X768725Y74075D01*
X768725Y79075D02*
X774475Y79075D01*
X774475Y78325D01*
X768725Y78325D01*
X768725Y79075D01*
X768725Y84075D02*
X774475Y84075D01*
X774475Y83325D01*
X768725Y83325D01*
X768725Y84075D01*
X768725Y89075D02*
X774475Y89075D01*
X774475Y88325D01*
X768725Y88325D01*
X768725Y89075D01*
X768725Y94075D02*
X774475Y94075D01*
X774475Y93325D01*
X768725Y93325D01*
X768725Y94075D01*
X768725Y99075D02*
X774475Y99075D01*
X774475Y98325D01*
X768725Y98325D01*
X768725Y99075D01*
X768725Y104075D02*
X774475Y104075D01*
X774475Y103325D01*
X768725Y103325D01*
X768725Y104075D01*
X763725Y108325D02*
X763725Y114075D01*
X764475Y114075D01*
X764475Y108325D01*
X763725Y108325D01*
X763725Y110462D02*
X764475Y110462D01*
X764475Y112599D02*
X763725Y112599D01*
X758725Y114075D02*
X758725Y108325D01*
X758725Y114075D02*
X759475Y114075D01*
X759475Y108325D01*
X758725Y108325D01*
X758725Y110462D02*
X759475Y110462D01*
X759475Y112599D02*
X758725Y112599D01*
X753725Y114075D02*
X753725Y108325D01*
X753725Y114075D02*
X754475Y114075D01*
X754475Y108325D01*
X753725Y108325D01*
X753725Y110462D02*
X754475Y110462D01*
X754475Y112599D02*
X753725Y112599D01*
X748725Y114075D02*
X748725Y108325D01*
X748725Y114075D02*
X749475Y114075D01*
X749475Y108325D01*
X748725Y108325D01*
X748725Y110462D02*
X749475Y110462D01*
X749475Y112599D02*
X748725Y112599D01*
X743725Y114075D02*
X743725Y108325D01*
X743725Y114075D02*
X744475Y114075D01*
X744475Y108325D01*
X743725Y108325D01*
X743725Y110462D02*
X744475Y110462D01*
X744475Y112599D02*
X743725Y112599D01*
X738725Y114075D02*
X738725Y108325D01*
X738725Y114075D02*
X739475Y114075D01*
X739475Y108325D01*
X738725Y108325D01*
X738725Y110462D02*
X739475Y110462D01*
X739475Y112599D02*
X738725Y112599D01*
X733725Y114075D02*
X733725Y108325D01*
X733725Y114075D02*
X734475Y114075D01*
X734475Y108325D01*
X733725Y108325D01*
X733725Y110462D02*
X734475Y110462D01*
X734475Y112599D02*
X733725Y112599D01*
X728725Y114075D02*
X728725Y108325D01*
X728725Y114075D02*
X729475Y114075D01*
X729475Y108325D01*
X728725Y108325D01*
X728725Y110462D02*
X729475Y110462D01*
X729475Y112599D02*
X728725Y112599D01*
X723725Y114075D02*
X723725Y108325D01*
X723725Y114075D02*
X724475Y114075D01*
X724475Y108325D01*
X723725Y108325D01*
X723725Y110462D02*
X724475Y110462D01*
X724475Y112599D02*
X723725Y112599D01*
X718725Y114075D02*
X718725Y108325D01*
X718725Y114075D02*
X719475Y114075D01*
X719475Y108325D01*
X718725Y108325D01*
X718725Y110462D02*
X719475Y110462D01*
X719475Y112599D02*
X718725Y112599D01*
X713725Y114075D02*
X713725Y108325D01*
X713725Y114075D02*
X714475Y114075D01*
X714475Y108325D01*
X713725Y108325D01*
X713725Y110462D02*
X714475Y110462D01*
X714475Y112599D02*
X713725Y112599D01*
X708725Y114075D02*
X708725Y108325D01*
X708725Y114075D02*
X709475Y114075D01*
X709475Y108325D01*
X708725Y108325D01*
X708725Y110462D02*
X709475Y110462D01*
X709475Y112599D02*
X708725Y112599D01*
X704475Y103325D02*
X698725Y103325D01*
X698725Y104075D01*
X704475Y104075D01*
X704475Y103325D01*
X704475Y98325D02*
X698725Y98325D01*
X698725Y99075D01*
X704475Y99075D01*
X704475Y98325D01*
X704475Y93325D02*
X698725Y93325D01*
X698725Y94075D01*
X704475Y94075D01*
X704475Y93325D01*
X704475Y88325D02*
X698725Y88325D01*
X698725Y89075D01*
X704475Y89075D01*
X704475Y88325D01*
X704475Y83325D02*
X698725Y83325D01*
X698725Y84075D01*
X704475Y84075D01*
X704475Y83325D01*
X704475Y78325D02*
X698725Y78325D01*
X698725Y79075D01*
X704475Y79075D01*
X704475Y78325D01*
X704475Y73325D02*
X698725Y73325D01*
X698725Y74075D01*
X704475Y74075D01*
X704475Y73325D01*
X704475Y68325D02*
X698725Y68325D01*
X698725Y69075D01*
X704475Y69075D01*
X704475Y68325D01*
X704475Y63325D02*
X698725Y63325D01*
X698725Y64075D01*
X704475Y64075D01*
X704475Y63325D01*
X704475Y58325D02*
X698725Y58325D01*
X698725Y59075D01*
X704475Y59075D01*
X704475Y58325D01*
X704475Y53325D02*
X698725Y53325D01*
X698725Y54075D01*
X704475Y54075D01*
X704475Y53325D01*
X704475Y48325D02*
X698725Y48325D01*
X698725Y49075D01*
X704475Y49075D01*
X704475Y48325D01*
D13*
X756850Y55950D03*
X743350Y55950D03*
X756850Y69450D03*
X743350Y69450D03*
X729850Y55950D03*
X716350Y55950D03*
X729850Y69450D03*
X716350Y69450D03*
X756850Y82950D03*
X743350Y82950D03*
X756850Y96450D03*
X743350Y96450D03*
X729850Y82950D03*
X716350Y82950D03*
X729850Y96450D03*
X716350Y96450D03*
D12*
X397965Y65825D02*
X397965Y62275D01*
X397215Y62275D01*
X397215Y65825D01*
X397965Y65825D01*
X397965Y64412D02*
X397215Y64412D01*
X402965Y65825D02*
X402965Y62275D01*
X402215Y62275D01*
X402215Y65825D01*
X402965Y65825D01*
X402965Y64412D02*
X402215Y64412D01*
X407965Y65825D02*
X407965Y62275D01*
X407215Y62275D01*
X407215Y65825D01*
X407965Y65825D01*
X407965Y64412D02*
X407215Y64412D01*
X412965Y69075D02*
X416515Y69075D01*
X416515Y68325D01*
X412965Y68325D01*
X412965Y69075D01*
X412965Y74075D02*
X416515Y74075D01*
X416515Y73325D01*
X412965Y73325D01*
X412965Y74075D01*
X412965Y79075D02*
X416515Y79075D01*
X416515Y78325D01*
X412965Y78325D01*
X412965Y79075D01*
X412965Y84075D02*
X416515Y84075D01*
X416515Y83325D01*
X412965Y83325D01*
X412965Y84075D01*
X407215Y86575D02*
X407215Y90125D01*
X407965Y90125D01*
X407965Y86575D01*
X407215Y86575D01*
X407215Y88712D02*
X407965Y88712D01*
X402215Y90125D02*
X402215Y86575D01*
X402215Y90125D02*
X402965Y90125D01*
X402965Y86575D01*
X402215Y86575D01*
X402215Y88712D02*
X402965Y88712D01*
X397215Y90125D02*
X397215Y86575D01*
X397215Y90125D02*
X397965Y90125D01*
X397965Y86575D01*
X397215Y86575D01*
X397215Y88712D02*
X397965Y88712D01*
X392215Y83325D02*
X388665Y83325D01*
X388665Y84075D01*
X392215Y84075D01*
X392215Y83325D01*
X392215Y78325D02*
X388665Y78325D01*
X388665Y79075D01*
X392215Y79075D01*
X392215Y78325D01*
X392215Y73325D02*
X388665Y73325D01*
X388665Y74075D01*
X392215Y74075D01*
X392215Y73325D01*
X392215Y68325D02*
X388665Y68325D01*
X388665Y69075D01*
X392215Y69075D01*
X392215Y68325D01*
D14*
X399090Y79700D03*
X399090Y72700D03*
X406090Y72700D03*
X406090Y79700D03*
D15*
X73804Y69176D02*
X73804Y68224D01*
X73804Y69176D02*
X81956Y69176D01*
X81956Y68224D01*
X73804Y68224D01*
X73804Y73224D02*
X73804Y74176D01*
X81956Y74176D01*
X81956Y73224D01*
X73804Y73224D01*
D16*
X74728Y44902D02*
X74728Y42998D01*
X74728Y44902D02*
X81032Y44902D01*
X81032Y42998D01*
X74728Y42998D01*
X74728Y50748D02*
X74728Y52652D01*
X81032Y52652D01*
X81032Y50748D01*
X74728Y50748D01*
D15*
X73804Y58224D02*
X73804Y59176D01*
X81956Y59176D01*
X81956Y58224D01*
X73804Y58224D01*
X73804Y63224D02*
X73804Y64176D01*
X81956Y64176D01*
X81956Y63224D01*
X73804Y63224D01*
X81956Y83224D02*
X81956Y84176D01*
X81956Y83224D02*
X73804Y83224D01*
X73804Y84176D01*
X81956Y84176D01*
X81956Y79176D02*
X81956Y78224D01*
X73804Y78224D01*
X73804Y79176D01*
X81956Y79176D01*
D16*
X81032Y107498D02*
X81032Y109402D01*
X81032Y107498D02*
X74728Y107498D01*
X74728Y109402D01*
X81032Y109402D01*
X81032Y101652D02*
X81032Y99748D01*
X74728Y99748D01*
X74728Y101652D01*
X81032Y101652D01*
D15*
X81956Y94176D02*
X81956Y93224D01*
X73804Y93224D01*
X73804Y94176D01*
X81956Y94176D01*
X81956Y89176D02*
X81956Y88224D01*
X73804Y88224D01*
X73804Y89176D01*
X81956Y89176D01*
D10*
X444976Y101124D02*
X451644Y101124D01*
X451644Y94456D01*
X444976Y94456D01*
X444976Y101124D01*
X444976Y96568D02*
X451644Y96568D01*
X451644Y98680D02*
X444976Y98680D01*
X444976Y100792D02*
X451644Y100792D01*
X436404Y101124D02*
X429736Y101124D01*
X436404Y101124D02*
X436404Y94456D01*
X429736Y94456D01*
X429736Y101124D01*
X429736Y96568D02*
X436404Y96568D01*
X436404Y98680D02*
X429736Y98680D01*
X429736Y100792D02*
X436404Y100792D01*
X444976Y88424D02*
X451644Y88424D01*
X451644Y81756D01*
X444976Y81756D01*
X444976Y88424D01*
X444976Y83868D02*
X451644Y83868D01*
X451644Y85980D02*
X444976Y85980D01*
X444976Y88092D02*
X451644Y88092D01*
X436404Y88424D02*
X429736Y88424D01*
X436404Y88424D02*
X436404Y81756D01*
X429736Y81756D01*
X429736Y88424D01*
X429736Y83868D02*
X436404Y83868D01*
X436404Y85980D02*
X429736Y85980D01*
X429736Y88092D02*
X436404Y88092D01*
X444976Y75724D02*
X451644Y75724D01*
X451644Y69056D01*
X444976Y69056D01*
X444976Y75724D01*
X444976Y71168D02*
X451644Y71168D01*
X451644Y73280D02*
X444976Y73280D01*
X444976Y75392D02*
X451644Y75392D01*
X436404Y75724D02*
X429736Y75724D01*
X436404Y75724D02*
X436404Y69056D01*
X429736Y69056D01*
X429736Y75724D01*
X429736Y71168D02*
X436404Y71168D01*
X436404Y73280D02*
X429736Y73280D01*
X429736Y75392D02*
X436404Y75392D01*
X428466Y57944D02*
X428466Y51276D01*
X428466Y57944D02*
X435134Y57944D01*
X435134Y51276D01*
X428466Y51276D01*
X428466Y53388D02*
X435134Y53388D01*
X435134Y55500D02*
X428466Y55500D01*
X428466Y57612D02*
X435134Y57612D01*
X428466Y42704D02*
X428466Y36036D01*
X428466Y42704D02*
X435134Y42704D01*
X435134Y36036D01*
X428466Y36036D01*
X428466Y38148D02*
X435134Y38148D01*
X435134Y40260D02*
X428466Y40260D01*
X428466Y42372D02*
X435134Y42372D01*
X446246Y51276D02*
X446246Y57944D01*
X452914Y57944D01*
X452914Y51276D01*
X446246Y51276D01*
X446246Y53388D02*
X452914Y53388D01*
X452914Y55500D02*
X446246Y55500D01*
X446246Y57612D02*
X452914Y57612D01*
X446246Y42704D02*
X446246Y36036D01*
X446246Y42704D02*
X452914Y42704D01*
X452914Y36036D01*
X446246Y36036D01*
X446246Y38148D02*
X452914Y38148D01*
X452914Y40260D02*
X446246Y40260D01*
X446246Y42372D02*
X452914Y42372D01*
X368776Y65246D02*
X368776Y71914D01*
X375444Y71914D01*
X375444Y65246D01*
X368776Y65246D01*
X368776Y67358D02*
X375444Y67358D01*
X375444Y69470D02*
X368776Y69470D01*
X368776Y71582D02*
X375444Y71582D01*
X368776Y56674D02*
X368776Y50006D01*
X368776Y56674D02*
X375444Y56674D01*
X375444Y50006D01*
X368776Y50006D01*
X368776Y52118D02*
X375444Y52118D01*
X375444Y54230D02*
X368776Y54230D01*
X368776Y56342D02*
X375444Y56342D01*
X375444Y77946D02*
X375444Y84614D01*
X375444Y77946D02*
X368776Y77946D01*
X368776Y84614D01*
X375444Y84614D01*
X375444Y80058D02*
X368776Y80058D01*
X368776Y82170D02*
X375444Y82170D01*
X375444Y84282D02*
X368776Y84282D01*
X375444Y93186D02*
X375444Y99854D01*
X375444Y93186D02*
X368776Y93186D01*
X368776Y99854D01*
X375444Y99854D01*
X375444Y95298D02*
X368776Y95298D01*
X368776Y97410D02*
X375444Y97410D01*
X375444Y99522D02*
X368776Y99522D01*
X610076Y61754D02*
X616744Y61754D01*
X616744Y55086D01*
X610076Y55086D01*
X610076Y61754D01*
X610076Y57198D02*
X616744Y57198D01*
X616744Y59310D02*
X610076Y59310D01*
X610076Y61422D02*
X616744Y61422D01*
X601504Y61754D02*
X594836Y61754D01*
X601504Y61754D02*
X601504Y55086D01*
X594836Y55086D01*
X594836Y61754D01*
X594836Y57198D02*
X601504Y57198D01*
X601504Y59310D02*
X594836Y59310D01*
X594836Y61422D02*
X601504Y61422D01*
X503396Y89376D02*
X503396Y96044D01*
X510064Y96044D01*
X510064Y89376D01*
X503396Y89376D01*
X503396Y91488D02*
X510064Y91488D01*
X510064Y93600D02*
X503396Y93600D01*
X503396Y95712D02*
X510064Y95712D01*
X503396Y80804D02*
X503396Y74136D01*
X503396Y80804D02*
X510064Y80804D01*
X510064Y74136D01*
X503396Y74136D01*
X503396Y76248D02*
X510064Y76248D01*
X510064Y78360D02*
X503396Y78360D01*
X503396Y80472D02*
X510064Y80472D01*
X576104Y80804D02*
X576104Y74136D01*
X569436Y74136D01*
X569436Y80804D01*
X576104Y80804D01*
X576104Y76248D02*
X569436Y76248D01*
X569436Y78360D02*
X576104Y78360D01*
X576104Y80472D02*
X569436Y80472D01*
X576104Y89376D02*
X576104Y96044D01*
X576104Y89376D02*
X569436Y89376D01*
X569436Y96044D01*
X576104Y96044D01*
X576104Y91488D02*
X569436Y91488D01*
X569436Y93600D02*
X576104Y93600D01*
X576104Y95712D02*
X569436Y95712D01*
X591344Y80804D02*
X591344Y74136D01*
X584676Y74136D01*
X584676Y80804D01*
X591344Y80804D01*
X591344Y76248D02*
X584676Y76248D01*
X584676Y78360D02*
X591344Y78360D01*
X591344Y80472D02*
X584676Y80472D01*
X591344Y89376D02*
X591344Y96044D01*
X591344Y89376D02*
X584676Y89376D01*
X584676Y96044D01*
X591344Y96044D01*
X591344Y91488D02*
X584676Y91488D01*
X584676Y93600D02*
X591344Y93600D01*
X591344Y95712D02*
X584676Y95712D01*
D17*
X516214Y95525D02*
X516214Y93655D01*
X516214Y95525D02*
X524584Y95525D01*
X524584Y93655D01*
X516214Y93655D01*
X516214Y86025D02*
X516214Y84155D01*
X516214Y86025D02*
X524584Y86025D01*
X524584Y84155D01*
X516214Y84155D01*
X516214Y76525D02*
X516214Y74655D01*
X516214Y76525D02*
X524584Y76525D01*
X524584Y74655D01*
X516214Y74655D01*
X542216Y74655D02*
X542216Y76525D01*
X550586Y76525D01*
X550586Y74655D01*
X542216Y74655D01*
X542216Y93655D02*
X542216Y95525D01*
X550586Y95525D01*
X550586Y93655D01*
X542216Y93655D01*
X550586Y86025D02*
X550586Y84155D01*
X542216Y84155D01*
X542216Y86025D01*
X550586Y86025D01*
D18*
X474345Y88900D02*
X474345Y96520D01*
X485775Y96520D01*
X485775Y88900D01*
X474345Y88900D01*
X474345Y91313D02*
X485775Y91313D01*
X485775Y93726D02*
X474345Y93726D01*
X474345Y96139D02*
X485775Y96139D01*
X474345Y78740D02*
X474345Y71120D01*
X474345Y78740D02*
X485775Y78740D01*
X485775Y71120D01*
X474345Y71120D01*
X474345Y73533D02*
X485775Y73533D01*
X485775Y75946D02*
X474345Y75946D01*
X474345Y78359D02*
X485775Y78359D01*
D10*
X163354Y69056D02*
X156686Y69056D01*
X156686Y75724D01*
X163354Y75724D01*
X163354Y69056D01*
X163354Y71168D02*
X156686Y71168D01*
X156686Y73280D02*
X163354Y73280D01*
X163354Y75392D02*
X156686Y75392D01*
X171926Y69056D02*
X178594Y69056D01*
X171926Y69056D02*
X171926Y75724D01*
X178594Y75724D01*
X178594Y69056D01*
X178594Y71168D02*
X171926Y71168D01*
X171926Y73280D02*
X178594Y73280D01*
X178594Y75392D02*
X171926Y75392D01*
X163354Y107156D02*
X156686Y107156D01*
X156686Y113824D01*
X163354Y113824D01*
X163354Y107156D01*
X163354Y109268D02*
X156686Y109268D01*
X156686Y111380D02*
X163354Y111380D01*
X163354Y113492D02*
X156686Y113492D01*
X171926Y107156D02*
X178594Y107156D01*
X171926Y107156D02*
X171926Y113824D01*
X178594Y113824D01*
X178594Y107156D01*
X178594Y109268D02*
X171926Y109268D01*
X171926Y111380D02*
X178594Y111380D01*
X178594Y113492D02*
X171926Y113492D01*
X460216Y57944D02*
X460216Y51276D01*
X460216Y57944D02*
X466884Y57944D01*
X466884Y51276D01*
X460216Y51276D01*
X460216Y53388D02*
X466884Y53388D01*
X466884Y55500D02*
X460216Y55500D01*
X460216Y57612D02*
X466884Y57612D01*
X460216Y42704D02*
X460216Y36036D01*
X460216Y42704D02*
X466884Y42704D01*
X466884Y36036D01*
X460216Y36036D01*
X460216Y38148D02*
X466884Y38148D01*
X466884Y40260D02*
X460216Y40260D01*
X460216Y42372D02*
X466884Y42372D01*
D19*
X512190Y63960D02*
X519190Y63960D01*
X519190Y57960D01*
X512190Y57960D01*
X512190Y63960D01*
X512190Y59860D02*
X519190Y59860D01*
X519190Y61760D02*
X512190Y61760D01*
X512190Y63660D02*
X519190Y63660D01*
X496190Y63960D02*
X489190Y63960D01*
X496190Y63960D02*
X496190Y57960D01*
X489190Y57960D01*
X489190Y63960D01*
X489190Y59860D02*
X496190Y59860D01*
X496190Y61760D02*
X489190Y61760D01*
X489190Y63660D02*
X496190Y63660D01*
D18*
X509270Y43815D02*
X516890Y43815D01*
X516890Y32385D01*
X509270Y32385D01*
X509270Y43815D01*
X509270Y34798D02*
X516890Y34798D01*
X516890Y37211D02*
X509270Y37211D01*
X509270Y39624D02*
X516890Y39624D01*
X516890Y42037D02*
X509270Y42037D01*
X499110Y43815D02*
X491490Y43815D01*
X499110Y43815D02*
X499110Y32385D01*
X491490Y32385D01*
X491490Y43815D01*
X491490Y34798D02*
X499110Y34798D01*
X499110Y37211D02*
X491490Y37211D01*
X491490Y39624D02*
X499110Y39624D01*
X499110Y42037D02*
X491490Y42037D01*
D10*
X556736Y69056D02*
X556736Y75724D01*
X563404Y75724D01*
X563404Y69056D01*
X556736Y69056D01*
X556736Y71168D02*
X563404Y71168D01*
X563404Y73280D02*
X556736Y73280D01*
X556736Y75392D02*
X563404Y75392D01*
X556736Y60484D02*
X556736Y53816D01*
X556736Y60484D02*
X563404Y60484D01*
X563404Y53816D01*
X556736Y53816D01*
X556736Y55928D02*
X563404Y55928D01*
X563404Y58040D02*
X556736Y58040D01*
X556736Y60152D02*
X563404Y60152D01*
D20*
X525135Y39335D02*
X525135Y32685D01*
X525135Y39335D02*
X549285Y39335D01*
X549285Y32685D01*
X525135Y32685D01*
X525135Y35392D02*
X549285Y35392D01*
X549285Y38099D02*
X525135Y38099D01*
X549285Y57185D02*
X549285Y63835D01*
X549285Y57185D02*
X525135Y57185D01*
X525135Y63835D01*
X549285Y63835D01*
X549285Y59892D02*
X525135Y59892D01*
X525135Y62599D02*
X549285Y62599D01*
D21*
X123910Y42080D02*
X123910Y31580D01*
X113410Y31580D01*
X113410Y42080D01*
X123910Y42080D01*
X123910Y34905D02*
X113410Y34905D01*
X113410Y38230D02*
X123910Y38230D01*
X123910Y41555D02*
X113410Y41555D01*
X160910Y42080D02*
X160910Y31580D01*
X150410Y31580D01*
X150410Y42080D01*
X160910Y42080D01*
X160910Y34905D02*
X150410Y34905D01*
X150410Y38230D02*
X160910Y38230D01*
X160910Y41555D02*
X150410Y41555D01*
X123910Y48090D02*
X123910Y58590D01*
X123910Y48090D02*
X113410Y48090D01*
X113410Y58590D01*
X123910Y58590D01*
X123910Y51415D02*
X113410Y51415D01*
X113410Y54740D02*
X123910Y54740D01*
X123910Y58065D02*
X113410Y58065D01*
X160910Y58590D02*
X160910Y48090D01*
X150410Y48090D01*
X150410Y58590D01*
X160910Y58590D01*
X160910Y51415D02*
X150410Y51415D01*
X150410Y54740D02*
X160910Y54740D01*
X160910Y58065D02*
X150410Y58065D01*
D22*
X126830Y65330D02*
X126830Y71830D01*
X126830Y65330D02*
X122330Y65330D01*
X122330Y71830D01*
X126830Y71830D01*
X126830Y66755D02*
X122330Y66755D01*
X122330Y68180D02*
X126830Y68180D01*
X126830Y69605D02*
X122330Y69605D01*
X122330Y71030D02*
X126830Y71030D01*
X141830Y71830D02*
X141830Y65330D01*
X137330Y65330D01*
X137330Y71830D01*
X141830Y71830D01*
X141830Y66755D02*
X137330Y66755D01*
X137330Y68180D02*
X141830Y68180D01*
X141830Y69605D02*
X137330Y69605D01*
X137330Y71030D02*
X141830Y71030D01*
X137330Y113590D02*
X137330Y120090D01*
X141830Y120090D01*
X141830Y113590D01*
X137330Y113590D01*
X137330Y115015D02*
X141830Y115015D01*
X141830Y116440D02*
X137330Y116440D01*
X137330Y117865D02*
X141830Y117865D01*
X141830Y119290D02*
X137330Y119290D01*
X122330Y120090D02*
X122330Y113590D01*
X122330Y120090D02*
X126830Y120090D01*
X126830Y113590D01*
X122330Y113590D01*
X122330Y115015D02*
X126830Y115015D01*
X126830Y116440D02*
X122330Y116440D01*
X122330Y117865D02*
X126830Y117865D01*
X126830Y119290D02*
X122330Y119290D01*
D19*
X475790Y63260D02*
X475790Y56260D01*
X475790Y63260D02*
X481790Y63260D01*
X481790Y56260D01*
X475790Y56260D01*
X475790Y58160D02*
X481790Y58160D01*
X481790Y60060D02*
X475790Y60060D01*
X475790Y61960D02*
X481790Y61960D01*
X475790Y40260D02*
X475790Y33260D01*
X475790Y40260D02*
X481790Y40260D01*
X481790Y33260D01*
X475790Y33260D01*
X475790Y35160D02*
X481790Y35160D01*
X481790Y37060D02*
X475790Y37060D01*
X475790Y38960D02*
X481790Y38960D01*
D10*
X587154Y38894D02*
X587154Y32226D01*
X580486Y32226D01*
X580486Y38894D01*
X587154Y38894D01*
X587154Y34338D02*
X580486Y34338D01*
X580486Y36450D02*
X587154Y36450D01*
X587154Y38562D02*
X580486Y38562D01*
X603154Y38894D02*
X603154Y32226D01*
X596486Y32226D01*
X596486Y38894D01*
X603154Y38894D01*
X603154Y34338D02*
X596486Y34338D01*
X596486Y36450D02*
X603154Y36450D01*
X603154Y38562D02*
X596486Y38562D01*
D17*
X149266Y81005D02*
X149266Y82875D01*
X149266Y81005D02*
X140896Y81005D01*
X140896Y82875D01*
X149266Y82875D01*
X149266Y90505D02*
X149266Y92375D01*
X149266Y90505D02*
X140896Y90505D01*
X140896Y92375D01*
X149266Y92375D01*
X149266Y100005D02*
X149266Y101875D01*
X149266Y100005D02*
X140896Y100005D01*
X140896Y101875D01*
X149266Y101875D01*
X123264Y101875D02*
X123264Y100005D01*
X114894Y100005D01*
X114894Y101875D01*
X123264Y101875D01*
X123264Y82875D02*
X123264Y81005D01*
X114894Y81005D01*
X114894Y82875D01*
X123264Y82875D01*
X114894Y90505D02*
X114894Y92375D01*
X123264Y92375D01*
X123264Y90505D01*
X114894Y90505D01*
D15*
X631746Y64776D02*
X631746Y59624D01*
X630794Y59624D01*
X630794Y64776D01*
X631746Y64776D01*
X631746Y61380D02*
X630794Y61380D01*
X630794Y63136D02*
X631746Y63136D01*
X626746Y64776D02*
X626746Y59624D01*
X625794Y59624D01*
X625794Y64776D01*
X626746Y64776D01*
X626746Y61380D02*
X625794Y61380D01*
X625794Y63136D02*
X626746Y63136D01*
X636746Y64776D02*
X636746Y59624D01*
X635794Y59624D01*
X635794Y64776D01*
X636746Y64776D01*
X636746Y61380D02*
X635794Y61380D01*
X635794Y63136D02*
X636746Y63136D01*
X641746Y64776D02*
X641746Y59624D01*
X640794Y59624D01*
X640794Y64776D01*
X641746Y64776D01*
X641746Y61380D02*
X640794Y61380D01*
X640794Y63136D02*
X641746Y63136D01*
X646746Y64776D02*
X646746Y59624D01*
X645794Y59624D01*
X645794Y64776D01*
X646746Y64776D01*
X646746Y61380D02*
X645794Y61380D01*
X645794Y63136D02*
X646746Y63136D01*
X640794Y87624D02*
X640794Y92776D01*
X641746Y92776D01*
X641746Y87624D01*
X640794Y87624D01*
X640794Y89380D02*
X641746Y89380D01*
X641746Y91136D02*
X640794Y91136D01*
X646746Y92776D02*
X646746Y87624D01*
X645794Y87624D01*
X645794Y92776D01*
X646746Y92776D01*
X646746Y89380D02*
X645794Y89380D01*
X645794Y91136D02*
X646746Y91136D01*
X635794Y92776D02*
X635794Y87624D01*
X635794Y92776D02*
X636746Y92776D01*
X636746Y87624D01*
X635794Y87624D01*
X635794Y89380D02*
X636746Y89380D01*
X636746Y91136D02*
X635794Y91136D01*
X630794Y92776D02*
X630794Y87624D01*
X630794Y92776D02*
X631746Y92776D01*
X631746Y87624D01*
X630794Y87624D01*
X630794Y89380D02*
X631746Y89380D01*
X631746Y91136D02*
X630794Y91136D01*
X626746Y92776D02*
X626746Y87624D01*
X625794Y87624D01*
X625794Y92776D01*
X626746Y92776D01*
X626746Y89380D02*
X625794Y89380D01*
X625794Y91136D02*
X626746Y91136D01*
X647694Y71676D02*
X652846Y71676D01*
X652846Y70724D01*
X647694Y70724D01*
X647694Y71676D01*
X647694Y76676D02*
X652846Y76676D01*
X652846Y75724D01*
X647694Y75724D01*
X647694Y76676D01*
X647694Y81676D02*
X652846Y81676D01*
X652846Y80724D01*
X647694Y80724D01*
X647694Y81676D01*
X624846Y80724D02*
X619694Y80724D01*
X619694Y81676D01*
X624846Y81676D01*
X624846Y80724D01*
X624846Y75724D02*
X619694Y75724D01*
X619694Y76676D01*
X624846Y76676D01*
X624846Y75724D01*
X624846Y70724D02*
X619694Y70724D01*
X619694Y71676D01*
X624846Y71676D01*
X624846Y70724D01*
D10*
X597376Y84296D02*
X597376Y90964D01*
X604044Y90964D01*
X604044Y84296D01*
X597376Y84296D01*
X597376Y86408D02*
X604044Y86408D01*
X604044Y88520D02*
X597376Y88520D01*
X597376Y90632D02*
X604044Y90632D01*
X597376Y75724D02*
X597376Y69056D01*
X597376Y75724D02*
X604044Y75724D01*
X604044Y69056D01*
X597376Y69056D01*
X597376Y71168D02*
X604044Y71168D01*
X604044Y73280D02*
X597376Y73280D01*
X597376Y75392D02*
X604044Y75392D01*
D19*
X264034Y96060D02*
X257034Y96060D01*
X257034Y102060D01*
X264034Y102060D01*
X264034Y96060D01*
X264034Y97960D02*
X257034Y97960D01*
X257034Y99860D02*
X264034Y99860D01*
X264034Y101760D02*
X257034Y101760D01*
X280034Y96060D02*
X287034Y96060D01*
X280034Y96060D02*
X280034Y102060D01*
X287034Y102060D01*
X287034Y96060D01*
X287034Y97960D02*
X280034Y97960D01*
X280034Y99860D02*
X287034Y99860D01*
X287034Y101760D02*
X280034Y101760D01*
D10*
X414876Y42704D02*
X414876Y36036D01*
X414876Y42704D02*
X421544Y42704D01*
X421544Y36036D01*
X414876Y36036D01*
X414876Y38148D02*
X421544Y38148D01*
X421544Y40260D02*
X414876Y40260D01*
X414876Y42372D02*
X421544Y42372D01*
X398876Y42704D02*
X398876Y36036D01*
X398876Y42704D02*
X405544Y42704D01*
X405544Y36036D01*
X398876Y36036D01*
X398876Y38148D02*
X405544Y38148D01*
X405544Y40260D02*
X398876Y40260D01*
X398876Y42372D02*
X405544Y42372D01*
X659606Y59850D02*
X666274Y59850D01*
X666274Y53182D01*
X659606Y53182D01*
X659606Y59850D01*
X659606Y55294D02*
X666274Y55294D01*
X666274Y57406D02*
X659606Y57406D01*
X659606Y59518D02*
X666274Y59518D01*
X666274Y75850D02*
X659606Y75850D01*
X666274Y75850D02*
X666274Y69182D01*
X659606Y69182D01*
X659606Y75850D01*
X659606Y71294D02*
X666274Y71294D01*
X666274Y73406D02*
X659606Y73406D01*
X659606Y75518D02*
X666274Y75518D01*
X389414Y47846D02*
X382746Y47846D01*
X382746Y54514D01*
X389414Y54514D01*
X389414Y47846D01*
X389414Y49958D02*
X382746Y49958D01*
X382746Y52070D02*
X389414Y52070D01*
X389414Y54182D02*
X382746Y54182D01*
X382746Y31846D02*
X389414Y31846D01*
X382746Y31846D02*
X382746Y38514D01*
X389414Y38514D01*
X389414Y31846D01*
X389414Y33958D02*
X382746Y33958D01*
X382746Y36070D02*
X389414Y36070D01*
X389414Y38182D02*
X382746Y38182D01*
X623030Y34512D02*
X629698Y34512D01*
X623030Y34512D02*
X623030Y41180D01*
X629698Y41180D01*
X629698Y34512D01*
X629698Y36624D02*
X623030Y36624D01*
X623030Y38736D02*
X629698Y38736D01*
X629698Y40848D02*
X623030Y40848D01*
X638270Y34512D02*
X644938Y34512D01*
X638270Y34512D02*
X638270Y41180D01*
X644938Y41180D01*
X644938Y34512D01*
X644938Y36624D02*
X638270Y36624D01*
X638270Y38736D02*
X644938Y38736D01*
X644938Y40848D02*
X638270Y40848D01*
X586264Y46196D02*
X586264Y52864D01*
X586264Y46196D02*
X579596Y46196D01*
X579596Y52864D01*
X586264Y52864D01*
X586264Y48308D02*
X579596Y48308D01*
X579596Y50420D02*
X586264Y50420D01*
X586264Y52532D02*
X579596Y52532D01*
X586264Y61436D02*
X586264Y68104D01*
X586264Y61436D02*
X579596Y61436D01*
X579596Y68104D01*
X586264Y68104D01*
X586264Y63548D02*
X579596Y63548D01*
X579596Y65660D02*
X586264Y65660D01*
X586264Y67772D02*
X579596Y67772D01*
X267748Y50006D02*
X261080Y50006D01*
X261080Y56674D01*
X267748Y56674D01*
X267748Y50006D01*
X267748Y52118D02*
X261080Y52118D01*
X261080Y54230D02*
X267748Y54230D01*
X267748Y56342D02*
X261080Y56342D01*
X276320Y50006D02*
X282988Y50006D01*
X276320Y50006D02*
X276320Y56674D01*
X282988Y56674D01*
X282988Y50006D01*
X282988Y52118D02*
X276320Y52118D01*
X276320Y54230D02*
X282988Y54230D01*
X282988Y56342D02*
X276320Y56342D01*
M02*
