G04 EAGLE Gerber RS-274X export*
G75*
%MOMM*%
%FSLAX34Y34*%
%LPD*%
%INSolderpaste Top*%
%IPPOS*%
%AMOC8*
5,1,8,0,0,1.08239X$1,22.5*%
G01*
%ADD10C,0.127000*%
%ADD11R,1.520281X1.520281*%
%ADD12R,0.800000X0.230000*%
%ADD13R,0.230000X0.800000*%
%ADD14R,0.300000X1.200000*%
%ADD15R,1.200000X0.300000*%
%ADD16R,0.220000X1.000000*%
%ADD17R,1.000000X0.220000*%
%ADD18C,0.200000*%
%ADD19R,1.200000X1.200000*%
%ADD20R,0.662500X0.662500*%
%ADD21R,0.450000X0.200000*%
%ADD22R,0.200000X0.450000*%
%ADD23C,0.230000*%
%ADD24R,0.575000X0.250000*%
%ADD25R,1.025000X0.650000*%
%ADD26R,0.230000X0.685000*%
%ADD27R,0.450000X0.250000*%
%ADD28R,0.250000X0.450000*%
%ADD29R,1.125000X0.250000*%
%ADD30R,0.250000X1.125000*%
%ADD31C,0.300000*%
%ADD32C,0.363000*%
%ADD33C,0.330000*%
%ADD34C,0.264000*%
%ADD35C,0.187834*%
%ADD36R,1.300000X1.300000*%
%ADD37C,0.402334*%
%ADD38C,0.140000*%
%ADD39R,0.600000X0.600000*%
%ADD40C,0.550000*%
%ADD41C,0.420000*%
%ADD42C,1.000000*%
%ADD43C,0.150000*%
%ADD44C,0.250000*%
%ADD45R,0.800000X0.800000*%
%ADD46R,0.508000X0.508000*%
%ADD47R,0.220853X0.394284*%
%ADD48R,0.220850X0.394281*%
%ADD49C,0.254000*%
%ADD50C,0.222250*%
%ADD51C,0.225000*%
%ADD52R,1.050000X1.050000*%
%ADD53R,0.500000X0.500000*%
%ADD54C,0.184800*%
%ADD55C,0.369600*%
%ADD56C,0.285000*%
%ADD57C,0.350000*%
%ADD58C,0.165000*%
%ADD59R,0.394284X0.220853*%
%ADD60R,0.394281X0.220850*%
%ADD61C,0.317500*%
%ADD62C,0.190500*%

G36*
X118085Y67954D02*
X118085Y67954D01*
X118088Y67951D01*
X119183Y68131D01*
X119189Y68137D01*
X119194Y68134D01*
X120222Y68553D01*
X120226Y68560D01*
X120231Y68558D01*
X121140Y69196D01*
X121143Y69203D01*
X121148Y69203D01*
X121892Y70026D01*
X121893Y70034D01*
X121899Y70035D01*
X122441Y71003D01*
X122440Y71012D01*
X122446Y71014D01*
X122759Y72078D01*
X122756Y72086D01*
X122761Y72089D01*
X122829Y73197D01*
X122825Y73204D01*
X122829Y73207D01*
X122659Y74315D01*
X122653Y74321D01*
X122656Y74326D01*
X122244Y75368D01*
X122237Y75372D01*
X122239Y75377D01*
X121605Y76302D01*
X121597Y76304D01*
X121598Y76310D01*
X120775Y77070D01*
X120766Y77071D01*
X120766Y77077D01*
X119794Y77634D01*
X119786Y77633D01*
X119784Y77639D01*
X118712Y77966D01*
X118704Y77963D01*
X118701Y77968D01*
X117584Y78049D01*
X117581Y78048D01*
X117580Y78049D01*
X105580Y78049D01*
X105577Y78047D01*
X105570Y78047D01*
X105569Y78048D01*
X104625Y77829D01*
X104619Y77823D01*
X104614Y77825D01*
X103742Y77402D01*
X103739Y77394D01*
X103733Y77396D01*
X102977Y76789D01*
X102975Y76781D01*
X102969Y76781D01*
X102368Y76021D01*
X102368Y76012D01*
X102362Y76011D01*
X101944Y75136D01*
X101946Y75128D01*
X101941Y75126D01*
X101729Y74180D01*
X101732Y74173D01*
X101727Y74169D01*
X101731Y73200D01*
X101731Y73199D01*
X101750Y72131D01*
X101755Y72124D01*
X101751Y72120D01*
X102007Y71083D01*
X102014Y71078D01*
X102011Y71072D01*
X102492Y70118D01*
X102499Y70115D01*
X102498Y70109D01*
X103179Y69286D01*
X103187Y69284D01*
X103187Y69278D01*
X104034Y68627D01*
X104042Y68627D01*
X104043Y68621D01*
X105014Y68174D01*
X105022Y68176D01*
X105024Y68171D01*
X106070Y67952D01*
X106077Y67955D01*
X106080Y67951D01*
X118080Y67951D01*
X118085Y67954D01*
G37*
G36*
X118085Y154355D02*
X118085Y154355D01*
X118088Y154351D01*
X119194Y154544D01*
X119199Y154549D01*
X119199Y154550D01*
X119204Y154547D01*
X120239Y154980D01*
X120243Y154987D01*
X120248Y154985D01*
X121161Y155638D01*
X121163Y155646D01*
X121169Y155645D01*
X121913Y156484D01*
X121914Y156493D01*
X121919Y156493D01*
X122458Y157477D01*
X122457Y157485D01*
X122458Y157486D01*
X122462Y157487D01*
X122463Y157489D01*
X122645Y158130D01*
X122769Y158566D01*
X122767Y158571D01*
X122769Y158573D01*
X122767Y158575D01*
X122771Y158577D01*
X122829Y159697D01*
X122826Y159702D01*
X122829Y159706D01*
X122711Y160751D01*
X122705Y160757D01*
X122709Y160762D01*
X122361Y161756D01*
X122354Y161760D01*
X122356Y161765D01*
X121796Y162657D01*
X121789Y162660D01*
X121789Y162665D01*
X121045Y163409D01*
X121037Y163411D01*
X121037Y163416D01*
X120145Y163976D01*
X120137Y163976D01*
X120136Y163981D01*
X119142Y164329D01*
X119134Y164326D01*
X119131Y164331D01*
X118086Y164449D01*
X118082Y164447D01*
X118080Y164449D01*
X106080Y164449D01*
X106077Y164447D01*
X106074Y164447D01*
X106072Y164449D01*
X105076Y164291D01*
X105070Y164285D01*
X105065Y164288D01*
X104129Y163913D01*
X104125Y163906D01*
X104119Y163908D01*
X103290Y163334D01*
X103287Y163326D01*
X103282Y163327D01*
X102601Y162583D01*
X102600Y162574D01*
X102594Y162574D01*
X102096Y161697D01*
X102097Y161689D01*
X102092Y161686D01*
X101904Y161062D01*
X101801Y160721D01*
X101802Y160718D01*
X101801Y160717D01*
X101804Y160713D01*
X101799Y160710D01*
X101731Y159703D01*
X101732Y159701D01*
X101731Y159700D01*
X101740Y158619D01*
X101745Y158612D01*
X101741Y158608D01*
X101991Y157556D01*
X101997Y157551D01*
X101994Y157546D01*
X102471Y156576D01*
X102479Y156573D01*
X102477Y156567D01*
X103158Y155728D01*
X103166Y155726D01*
X103166Y155720D01*
X104017Y155054D01*
X104025Y155053D01*
X104026Y155048D01*
X105003Y154587D01*
X105011Y154589D01*
X105014Y154584D01*
X106069Y154352D01*
X106077Y154355D01*
X106080Y154351D01*
X118080Y154351D01*
X118085Y154355D01*
G37*
G36*
X73284Y67954D02*
X73284Y67954D01*
X73286Y67951D01*
X74419Y68101D01*
X74425Y68107D01*
X74430Y68104D01*
X75500Y68502D01*
X75504Y68509D01*
X75510Y68507D01*
X76465Y69134D01*
X76468Y69142D01*
X76473Y69141D01*
X77265Y69964D01*
X77266Y69972D01*
X77272Y69973D01*
X77861Y70952D01*
X77860Y70960D01*
X77865Y70962D01*
X78221Y72047D01*
X78219Y72055D01*
X78223Y72058D01*
X78329Y73195D01*
X78324Y73204D01*
X78328Y73209D01*
X78121Y74346D01*
X78115Y74352D01*
X78118Y74357D01*
X77663Y75419D01*
X77656Y75423D01*
X77658Y75429D01*
X76978Y76364D01*
X76970Y76366D01*
X76971Y76372D01*
X76100Y77132D01*
X76092Y77132D01*
X76091Y77138D01*
X75072Y77685D01*
X75064Y77684D01*
X75062Y77689D01*
X73948Y77996D01*
X73940Y77993D01*
X73937Y77998D01*
X72782Y78049D01*
X72781Y78048D01*
X72780Y78049D01*
X66780Y78049D01*
X66777Y78047D01*
X66772Y78047D01*
X66771Y78048D01*
X65690Y77836D01*
X65685Y77830D01*
X65680Y77833D01*
X64674Y77386D01*
X64670Y77379D01*
X64664Y77381D01*
X63783Y76721D01*
X63780Y76713D01*
X63775Y76713D01*
X63062Y75874D01*
X63062Y75866D01*
X63056Y75865D01*
X62548Y74888D01*
X62549Y74880D01*
X62544Y74878D01*
X62266Y73813D01*
X62269Y73805D01*
X62265Y73802D01*
X62231Y72702D01*
X62235Y72696D01*
X62231Y72693D01*
X62386Y71618D01*
X62392Y71612D01*
X62389Y71607D01*
X62779Y70593D01*
X62786Y70589D01*
X62785Y70583D01*
X63391Y69681D01*
X63399Y69679D01*
X63398Y69673D01*
X64190Y68929D01*
X64198Y68928D01*
X64198Y68922D01*
X65136Y68373D01*
X65144Y68374D01*
X65146Y68368D01*
X66182Y68041D01*
X66190Y68044D01*
X66193Y68039D01*
X67276Y67951D01*
X67279Y67953D01*
X67280Y67951D01*
X73280Y67951D01*
X73284Y67954D01*
G37*
G36*
X73283Y154353D02*
X73283Y154353D01*
X73285Y154351D01*
X74377Y154452D01*
X74383Y154457D01*
X74388Y154454D01*
X75431Y154795D01*
X75436Y154802D01*
X75441Y154800D01*
X76382Y155364D01*
X76385Y155372D01*
X76391Y155371D01*
X77183Y156131D01*
X77184Y156139D01*
X77190Y156140D01*
X77793Y157057D01*
X77792Y157065D01*
X77798Y157067D01*
X78181Y158095D01*
X78179Y158103D01*
X78184Y158106D01*
X78329Y159194D01*
X78325Y159201D01*
X78329Y159205D01*
X78223Y160342D01*
X78218Y160348D01*
X78221Y160353D01*
X77865Y161438D01*
X77858Y161443D01*
X77861Y161448D01*
X77272Y162427D01*
X77264Y162430D01*
X77265Y162436D01*
X76473Y163259D01*
X76465Y163260D01*
X76465Y163266D01*
X75510Y163893D01*
X75502Y163892D01*
X75500Y163898D01*
X74430Y164296D01*
X74422Y164294D01*
X74419Y164299D01*
X73286Y164449D01*
X73283Y164447D01*
X73282Y164447D01*
X73280Y164449D01*
X67280Y164449D01*
X67277Y164447D01*
X67275Y164447D01*
X67274Y164449D01*
X66141Y164299D01*
X66135Y164293D01*
X66130Y164296D01*
X65060Y163898D01*
X65056Y163891D01*
X65050Y163893D01*
X64095Y163266D01*
X64092Y163258D01*
X64087Y163259D01*
X63295Y162436D01*
X63294Y162428D01*
X63288Y162427D01*
X62699Y161448D01*
X62700Y161440D01*
X62695Y161438D01*
X62339Y160353D01*
X62342Y160345D01*
X62337Y160342D01*
X62231Y159205D01*
X62235Y159198D01*
X62231Y159194D01*
X62376Y158106D01*
X62382Y158100D01*
X62379Y158095D01*
X62763Y157067D01*
X62769Y157062D01*
X62768Y157057D01*
X63370Y156140D01*
X63378Y156137D01*
X63377Y156131D01*
X64169Y155371D01*
X64177Y155370D01*
X64178Y155364D01*
X65119Y154800D01*
X65127Y154801D01*
X65129Y154795D01*
X66172Y154454D01*
X66180Y154456D01*
X66183Y154452D01*
X67276Y154351D01*
X67278Y154353D01*
X67280Y154351D01*
X73280Y154351D01*
X73283Y154353D01*
G37*
G36*
X618000Y740996D02*
X618000Y740996D01*
X618001Y740996D01*
X618192Y741034D01*
X618193Y741035D01*
X618194Y741035D01*
X618356Y741143D01*
X618356Y741144D01*
X618357Y741144D01*
X618465Y741306D01*
X618465Y741307D01*
X618466Y741308D01*
X618504Y741499D01*
X618504Y741500D01*
X618504Y746500D01*
X618504Y746501D01*
X618466Y746692D01*
X618465Y746693D01*
X618465Y746694D01*
X618357Y746856D01*
X618356Y746856D01*
X618356Y746857D01*
X618194Y746965D01*
X618193Y746965D01*
X618192Y746966D01*
X618001Y747004D01*
X618000Y747004D01*
X616500Y747004D01*
X616499Y747004D01*
X616308Y746966D01*
X616307Y746965D01*
X616306Y746965D01*
X616144Y746857D01*
X616144Y746856D01*
X616143Y746856D01*
X616035Y746694D01*
X616035Y746693D01*
X616034Y746692D01*
X615996Y746501D01*
X615996Y746500D01*
X615996Y743504D01*
X613504Y743504D01*
X613504Y746500D01*
X613504Y746501D01*
X613466Y746692D01*
X613465Y746693D01*
X613465Y746694D01*
X613357Y746856D01*
X613356Y746856D01*
X613356Y746857D01*
X613194Y746965D01*
X613193Y746965D01*
X613192Y746966D01*
X613001Y747004D01*
X613000Y747004D01*
X611500Y747004D01*
X611499Y747004D01*
X611308Y746966D01*
X611307Y746965D01*
X611306Y746965D01*
X611144Y746857D01*
X611144Y746856D01*
X611143Y746856D01*
X611035Y746694D01*
X611035Y746693D01*
X611034Y746692D01*
X610996Y746501D01*
X610996Y746500D01*
X610996Y741500D01*
X610996Y741499D01*
X611034Y741308D01*
X611035Y741307D01*
X611035Y741306D01*
X611143Y741144D01*
X611144Y741144D01*
X611144Y741143D01*
X611306Y741035D01*
X611307Y741035D01*
X611308Y741034D01*
X611499Y740996D01*
X611500Y740996D01*
X618000Y740996D01*
X618000Y740996D01*
G37*
G36*
X613000Y712996D02*
X613000Y712996D01*
X613001Y712996D01*
X613192Y713034D01*
X613193Y713035D01*
X613194Y713035D01*
X613356Y713143D01*
X613356Y713144D01*
X613357Y713144D01*
X613465Y713306D01*
X613465Y713307D01*
X613466Y713308D01*
X613504Y713499D01*
X613504Y713500D01*
X613504Y716496D01*
X615996Y716496D01*
X615996Y713500D01*
X615996Y713499D01*
X616034Y713308D01*
X616035Y713307D01*
X616035Y713306D01*
X616143Y713144D01*
X616144Y713144D01*
X616144Y713143D01*
X616306Y713035D01*
X616307Y713035D01*
X616308Y713034D01*
X616499Y712996D01*
X616500Y712996D01*
X618000Y712996D01*
X618001Y712996D01*
X618192Y713034D01*
X618193Y713035D01*
X618194Y713035D01*
X618356Y713143D01*
X618356Y713144D01*
X618357Y713144D01*
X618465Y713306D01*
X618465Y713307D01*
X618466Y713308D01*
X618504Y713499D01*
X618504Y713500D01*
X618504Y718500D01*
X618504Y718501D01*
X618466Y718692D01*
X618465Y718693D01*
X618465Y718694D01*
X618357Y718856D01*
X618356Y718856D01*
X618356Y718857D01*
X618194Y718965D01*
X618193Y718965D01*
X618192Y718966D01*
X618001Y719004D01*
X618000Y719004D01*
X611500Y719004D01*
X611499Y719004D01*
X611308Y718966D01*
X611307Y718965D01*
X611306Y718965D01*
X611144Y718857D01*
X611144Y718856D01*
X611143Y718856D01*
X611035Y718694D01*
X611035Y718693D01*
X611034Y718692D01*
X610996Y718501D01*
X610996Y718500D01*
X610996Y713500D01*
X610996Y713499D01*
X611034Y713308D01*
X611035Y713307D01*
X611035Y713306D01*
X611143Y713144D01*
X611144Y713144D01*
X611144Y713143D01*
X611306Y713035D01*
X611307Y713035D01*
X611308Y713034D01*
X611499Y712996D01*
X611500Y712996D01*
X613000Y712996D01*
X613000Y712996D01*
G37*
G36*
X621700Y728746D02*
X621700Y728746D01*
X621701Y728746D01*
X621892Y728784D01*
X621893Y728785D01*
X621894Y728785D01*
X622056Y728893D01*
X622056Y728894D01*
X622057Y728894D01*
X622165Y729056D01*
X622165Y729057D01*
X622166Y729058D01*
X622166Y729060D01*
X622167Y729060D01*
X622166Y729060D01*
X622167Y729064D01*
X622168Y729068D01*
X622169Y729072D01*
X622169Y729073D01*
X622170Y729077D01*
X622171Y729081D01*
X622172Y729085D01*
X622181Y729132D01*
X622182Y729136D01*
X622183Y729140D01*
X622183Y729141D01*
X622183Y729145D01*
X622184Y729149D01*
X622185Y729153D01*
X622186Y729157D01*
X622186Y729158D01*
X622187Y729162D01*
X622188Y729166D01*
X622196Y729208D01*
X622196Y729209D01*
X622197Y729213D01*
X622198Y729217D01*
X622199Y729221D01*
X622199Y729225D01*
X622199Y729226D01*
X622200Y729230D01*
X622201Y729234D01*
X622202Y729238D01*
X622203Y729242D01*
X622203Y729243D01*
X622204Y729247D01*
X622204Y729249D01*
X622204Y729250D01*
X622204Y730750D01*
X622204Y730751D01*
X622166Y730942D01*
X622165Y730943D01*
X622165Y730944D01*
X622057Y731106D01*
X622056Y731106D01*
X622056Y731107D01*
X621894Y731215D01*
X621893Y731215D01*
X621892Y731216D01*
X621701Y731254D01*
X621700Y731254D01*
X615500Y731254D01*
X615499Y731254D01*
X615308Y731216D01*
X615307Y731215D01*
X615306Y731215D01*
X615144Y731107D01*
X615144Y731106D01*
X615143Y731106D01*
X615035Y730944D01*
X615035Y730943D01*
X615034Y730942D01*
X615033Y730939D01*
X615025Y730897D01*
X615024Y730893D01*
X615023Y730888D01*
X615022Y730884D01*
X615022Y730880D01*
X615021Y730880D01*
X615022Y730880D01*
X615021Y730876D01*
X615020Y730871D01*
X615019Y730867D01*
X615018Y730863D01*
X615010Y730820D01*
X615009Y730816D01*
X615008Y730812D01*
X615007Y730808D01*
X615006Y730803D01*
X615005Y730799D01*
X615005Y730795D01*
X615004Y730791D01*
X615003Y730786D01*
X615002Y730782D01*
X614996Y730751D01*
X614996Y730750D01*
X614996Y729250D01*
X614996Y729249D01*
X615034Y729058D01*
X615035Y729057D01*
X615035Y729056D01*
X615143Y728894D01*
X615144Y728894D01*
X615144Y728893D01*
X615306Y728785D01*
X615307Y728785D01*
X615308Y728784D01*
X615499Y728746D01*
X615500Y728746D01*
X621700Y728746D01*
X621700Y728746D01*
G37*
G36*
X612500Y728746D02*
X612500Y728746D01*
X612501Y728746D01*
X612692Y728784D01*
X612693Y728785D01*
X612694Y728785D01*
X612856Y728893D01*
X612856Y728894D01*
X612857Y728894D01*
X612965Y729056D01*
X612965Y729057D01*
X612966Y729058D01*
X612966Y729060D01*
X612967Y729060D01*
X612966Y729060D01*
X612967Y729064D01*
X612968Y729068D01*
X612969Y729072D01*
X612969Y729073D01*
X612970Y729077D01*
X612971Y729081D01*
X612972Y729085D01*
X612981Y729132D01*
X612982Y729136D01*
X612983Y729140D01*
X612983Y729141D01*
X612983Y729145D01*
X612984Y729149D01*
X612985Y729153D01*
X612986Y729157D01*
X612986Y729158D01*
X612987Y729162D01*
X612988Y729166D01*
X612996Y729208D01*
X612996Y729209D01*
X612997Y729213D01*
X612998Y729217D01*
X612999Y729221D01*
X612999Y729225D01*
X612999Y729226D01*
X613000Y729230D01*
X613001Y729234D01*
X613002Y729238D01*
X613003Y729242D01*
X613003Y729243D01*
X613004Y729247D01*
X613004Y729249D01*
X613004Y729250D01*
X613004Y730750D01*
X613004Y730751D01*
X612966Y730942D01*
X612965Y730943D01*
X612965Y730944D01*
X612857Y731106D01*
X612856Y731106D01*
X612856Y731107D01*
X612694Y731215D01*
X612693Y731215D01*
X612692Y731216D01*
X612501Y731254D01*
X612500Y731254D01*
X606300Y731254D01*
X606299Y731254D01*
X606108Y731216D01*
X606107Y731215D01*
X606106Y731215D01*
X605944Y731107D01*
X605944Y731106D01*
X605943Y731106D01*
X605835Y730944D01*
X605835Y730943D01*
X605834Y730942D01*
X605833Y730939D01*
X605825Y730897D01*
X605824Y730893D01*
X605823Y730888D01*
X605822Y730884D01*
X605822Y730880D01*
X605821Y730880D01*
X605822Y730880D01*
X605821Y730876D01*
X605820Y730871D01*
X605819Y730867D01*
X605818Y730863D01*
X605810Y730820D01*
X605809Y730816D01*
X605808Y730812D01*
X605807Y730808D01*
X605806Y730803D01*
X605805Y730799D01*
X605805Y730795D01*
X605804Y730791D01*
X605803Y730786D01*
X605802Y730782D01*
X605796Y730751D01*
X605796Y730750D01*
X605796Y729250D01*
X605796Y729249D01*
X605834Y729058D01*
X605835Y729057D01*
X605835Y729056D01*
X605943Y728894D01*
X605944Y728894D01*
X605944Y728893D01*
X606106Y728785D01*
X606107Y728785D01*
X606108Y728784D01*
X606299Y728746D01*
X606300Y728746D01*
X612500Y728746D01*
X612500Y728746D01*
G37*
G36*
X634000Y736246D02*
X634000Y736246D01*
X634001Y736246D01*
X634192Y736284D01*
X634193Y736285D01*
X634194Y736285D01*
X634356Y736393D01*
X634356Y736394D01*
X634357Y736394D01*
X634465Y736556D01*
X634465Y736557D01*
X634466Y736558D01*
X634466Y736560D01*
X634467Y736560D01*
X634466Y736560D01*
X634467Y736564D01*
X634468Y736568D01*
X634469Y736572D01*
X634469Y736573D01*
X634470Y736577D01*
X634471Y736581D01*
X634472Y736585D01*
X634481Y736632D01*
X634482Y736636D01*
X634483Y736640D01*
X634483Y736641D01*
X634483Y736645D01*
X634484Y736649D01*
X634485Y736653D01*
X634486Y736657D01*
X634486Y736658D01*
X634487Y736662D01*
X634488Y736666D01*
X634496Y736708D01*
X634496Y736709D01*
X634497Y736713D01*
X634498Y736717D01*
X634499Y736721D01*
X634499Y736725D01*
X634499Y736726D01*
X634500Y736730D01*
X634501Y736734D01*
X634502Y736738D01*
X634503Y736742D01*
X634503Y736743D01*
X634504Y736747D01*
X634504Y736749D01*
X634504Y736750D01*
X634504Y738250D01*
X634504Y738251D01*
X634466Y738442D01*
X634465Y738443D01*
X634465Y738444D01*
X634357Y738606D01*
X634356Y738606D01*
X634356Y738607D01*
X634194Y738715D01*
X634193Y738715D01*
X634192Y738716D01*
X634001Y738754D01*
X634000Y738754D01*
X629000Y738754D01*
X628999Y738754D01*
X628808Y738716D01*
X628807Y738715D01*
X628806Y738715D01*
X628644Y738607D01*
X628644Y738606D01*
X628643Y738606D01*
X628535Y738444D01*
X628535Y738443D01*
X628534Y738442D01*
X628533Y738439D01*
X628525Y738397D01*
X628524Y738393D01*
X628523Y738388D01*
X628522Y738384D01*
X628522Y738380D01*
X628521Y738380D01*
X628522Y738380D01*
X628521Y738376D01*
X628520Y738371D01*
X628519Y738367D01*
X628518Y738363D01*
X628510Y738320D01*
X628509Y738316D01*
X628508Y738312D01*
X628507Y738308D01*
X628506Y738303D01*
X628505Y738299D01*
X628505Y738295D01*
X628504Y738291D01*
X628503Y738286D01*
X628502Y738282D01*
X628496Y738251D01*
X628496Y738250D01*
X628496Y736750D01*
X628496Y736749D01*
X628534Y736558D01*
X628535Y736557D01*
X628535Y736556D01*
X628643Y736394D01*
X628644Y736394D01*
X628644Y736393D01*
X628806Y736285D01*
X628807Y736285D01*
X628808Y736284D01*
X628999Y736246D01*
X629000Y736246D01*
X634000Y736246D01*
X634000Y736246D01*
G37*
G36*
X634000Y731246D02*
X634000Y731246D01*
X634001Y731246D01*
X634192Y731284D01*
X634193Y731285D01*
X634194Y731285D01*
X634356Y731393D01*
X634356Y731394D01*
X634357Y731394D01*
X634465Y731556D01*
X634465Y731557D01*
X634466Y731558D01*
X634466Y731560D01*
X634467Y731560D01*
X634466Y731560D01*
X634467Y731564D01*
X634468Y731568D01*
X634469Y731572D01*
X634469Y731573D01*
X634470Y731577D01*
X634471Y731581D01*
X634472Y731585D01*
X634481Y731632D01*
X634482Y731636D01*
X634483Y731640D01*
X634483Y731641D01*
X634483Y731645D01*
X634484Y731649D01*
X634485Y731653D01*
X634486Y731657D01*
X634486Y731658D01*
X634487Y731662D01*
X634488Y731666D01*
X634496Y731708D01*
X634496Y731709D01*
X634497Y731713D01*
X634498Y731717D01*
X634499Y731721D01*
X634499Y731725D01*
X634499Y731726D01*
X634500Y731730D01*
X634501Y731734D01*
X634502Y731738D01*
X634503Y731742D01*
X634503Y731743D01*
X634504Y731747D01*
X634504Y731749D01*
X634504Y731750D01*
X634504Y733250D01*
X634504Y733251D01*
X634466Y733442D01*
X634465Y733443D01*
X634465Y733444D01*
X634357Y733606D01*
X634356Y733606D01*
X634356Y733607D01*
X634194Y733715D01*
X634193Y733715D01*
X634192Y733716D01*
X634001Y733754D01*
X634000Y733754D01*
X629000Y733754D01*
X628999Y733754D01*
X628808Y733716D01*
X628807Y733715D01*
X628806Y733715D01*
X628644Y733607D01*
X628644Y733606D01*
X628643Y733606D01*
X628535Y733444D01*
X628535Y733443D01*
X628534Y733442D01*
X628533Y733439D01*
X628525Y733397D01*
X628524Y733393D01*
X628523Y733388D01*
X628522Y733384D01*
X628522Y733380D01*
X628521Y733380D01*
X628522Y733380D01*
X628521Y733376D01*
X628520Y733371D01*
X628519Y733367D01*
X628518Y733363D01*
X628510Y733320D01*
X628509Y733316D01*
X628508Y733312D01*
X628507Y733308D01*
X628506Y733303D01*
X628505Y733299D01*
X628505Y733295D01*
X628504Y733291D01*
X628503Y733286D01*
X628502Y733282D01*
X628496Y733251D01*
X628496Y733250D01*
X628496Y731750D01*
X628496Y731749D01*
X628534Y731558D01*
X628535Y731557D01*
X628535Y731556D01*
X628643Y731394D01*
X628644Y731394D01*
X628644Y731393D01*
X628806Y731285D01*
X628807Y731285D01*
X628808Y731284D01*
X628999Y731246D01*
X629000Y731246D01*
X634000Y731246D01*
X634000Y731246D01*
G37*
G36*
X634000Y726246D02*
X634000Y726246D01*
X634001Y726246D01*
X634192Y726284D01*
X634193Y726285D01*
X634194Y726285D01*
X634356Y726393D01*
X634356Y726394D01*
X634357Y726394D01*
X634465Y726556D01*
X634465Y726557D01*
X634466Y726558D01*
X634466Y726560D01*
X634467Y726560D01*
X634466Y726560D01*
X634467Y726564D01*
X634468Y726568D01*
X634469Y726572D01*
X634469Y726573D01*
X634470Y726577D01*
X634471Y726581D01*
X634472Y726585D01*
X634481Y726632D01*
X634482Y726636D01*
X634483Y726640D01*
X634483Y726641D01*
X634483Y726645D01*
X634484Y726649D01*
X634485Y726653D01*
X634486Y726657D01*
X634486Y726658D01*
X634487Y726662D01*
X634488Y726666D01*
X634496Y726708D01*
X634496Y726709D01*
X634497Y726713D01*
X634498Y726717D01*
X634499Y726721D01*
X634499Y726725D01*
X634499Y726726D01*
X634500Y726730D01*
X634501Y726734D01*
X634502Y726738D01*
X634503Y726742D01*
X634503Y726743D01*
X634504Y726747D01*
X634504Y726749D01*
X634504Y726750D01*
X634504Y728250D01*
X634504Y728251D01*
X634466Y728442D01*
X634465Y728443D01*
X634465Y728444D01*
X634357Y728606D01*
X634356Y728606D01*
X634356Y728607D01*
X634194Y728715D01*
X634193Y728715D01*
X634192Y728716D01*
X634001Y728754D01*
X634000Y728754D01*
X629000Y728754D01*
X628999Y728754D01*
X628808Y728716D01*
X628807Y728715D01*
X628806Y728715D01*
X628644Y728607D01*
X628644Y728606D01*
X628643Y728606D01*
X628535Y728444D01*
X628535Y728443D01*
X628534Y728442D01*
X628533Y728439D01*
X628525Y728397D01*
X628524Y728393D01*
X628523Y728388D01*
X628522Y728384D01*
X628522Y728380D01*
X628521Y728380D01*
X628522Y728380D01*
X628521Y728376D01*
X628520Y728371D01*
X628519Y728367D01*
X628518Y728363D01*
X628510Y728320D01*
X628509Y728316D01*
X628508Y728312D01*
X628507Y728308D01*
X628506Y728303D01*
X628505Y728299D01*
X628505Y728295D01*
X628504Y728291D01*
X628503Y728286D01*
X628502Y728282D01*
X628496Y728251D01*
X628496Y728250D01*
X628496Y726750D01*
X628496Y726749D01*
X628534Y726558D01*
X628535Y726557D01*
X628535Y726556D01*
X628643Y726394D01*
X628644Y726394D01*
X628644Y726393D01*
X628806Y726285D01*
X628807Y726285D01*
X628808Y726284D01*
X628999Y726246D01*
X629000Y726246D01*
X634000Y726246D01*
X634000Y726246D01*
G37*
G36*
X634000Y721246D02*
X634000Y721246D01*
X634001Y721246D01*
X634192Y721284D01*
X634193Y721285D01*
X634194Y721285D01*
X634356Y721393D01*
X634356Y721394D01*
X634357Y721394D01*
X634465Y721556D01*
X634465Y721557D01*
X634466Y721558D01*
X634466Y721560D01*
X634467Y721560D01*
X634466Y721560D01*
X634467Y721564D01*
X634468Y721568D01*
X634469Y721572D01*
X634469Y721573D01*
X634470Y721577D01*
X634471Y721581D01*
X634472Y721585D01*
X634481Y721632D01*
X634482Y721636D01*
X634483Y721640D01*
X634483Y721641D01*
X634483Y721645D01*
X634484Y721649D01*
X634485Y721653D01*
X634486Y721657D01*
X634486Y721658D01*
X634487Y721662D01*
X634488Y721666D01*
X634496Y721708D01*
X634496Y721709D01*
X634497Y721713D01*
X634498Y721717D01*
X634499Y721721D01*
X634499Y721725D01*
X634499Y721726D01*
X634500Y721730D01*
X634501Y721734D01*
X634502Y721738D01*
X634503Y721742D01*
X634503Y721743D01*
X634504Y721747D01*
X634504Y721749D01*
X634504Y721750D01*
X634504Y723250D01*
X634504Y723251D01*
X634466Y723442D01*
X634465Y723443D01*
X634465Y723444D01*
X634357Y723606D01*
X634356Y723606D01*
X634356Y723607D01*
X634194Y723715D01*
X634193Y723715D01*
X634192Y723716D01*
X634001Y723754D01*
X634000Y723754D01*
X629000Y723754D01*
X628999Y723754D01*
X628808Y723716D01*
X628807Y723715D01*
X628806Y723715D01*
X628644Y723607D01*
X628644Y723606D01*
X628643Y723606D01*
X628535Y723444D01*
X628535Y723443D01*
X628534Y723442D01*
X628533Y723439D01*
X628525Y723397D01*
X628524Y723393D01*
X628523Y723388D01*
X628522Y723384D01*
X628522Y723380D01*
X628521Y723380D01*
X628522Y723380D01*
X628521Y723376D01*
X628520Y723371D01*
X628519Y723367D01*
X628518Y723363D01*
X628510Y723320D01*
X628509Y723316D01*
X628508Y723312D01*
X628507Y723308D01*
X628506Y723303D01*
X628505Y723299D01*
X628505Y723295D01*
X628504Y723291D01*
X628503Y723286D01*
X628502Y723282D01*
X628496Y723251D01*
X628496Y723250D01*
X628496Y721750D01*
X628496Y721749D01*
X628534Y721558D01*
X628535Y721557D01*
X628535Y721556D01*
X628643Y721394D01*
X628644Y721394D01*
X628644Y721393D01*
X628806Y721285D01*
X628807Y721285D01*
X628808Y721284D01*
X628999Y721246D01*
X629000Y721246D01*
X634000Y721246D01*
X634000Y721246D01*
G37*
G36*
X623000Y740996D02*
X623000Y740996D01*
X623001Y740996D01*
X623192Y741034D01*
X623193Y741035D01*
X623194Y741035D01*
X623356Y741143D01*
X623356Y741144D01*
X623357Y741144D01*
X623465Y741306D01*
X623465Y741307D01*
X623466Y741308D01*
X623466Y741310D01*
X623467Y741310D01*
X623466Y741310D01*
X623467Y741314D01*
X623468Y741318D01*
X623469Y741322D01*
X623469Y741323D01*
X623470Y741327D01*
X623471Y741331D01*
X623472Y741335D01*
X623481Y741382D01*
X623482Y741386D01*
X623483Y741390D01*
X623483Y741391D01*
X623483Y741395D01*
X623484Y741399D01*
X623485Y741403D01*
X623486Y741407D01*
X623486Y741408D01*
X623487Y741412D01*
X623488Y741416D01*
X623496Y741458D01*
X623496Y741459D01*
X623497Y741463D01*
X623498Y741467D01*
X623499Y741471D01*
X623499Y741475D01*
X623499Y741476D01*
X623500Y741480D01*
X623501Y741484D01*
X623502Y741488D01*
X623503Y741492D01*
X623503Y741493D01*
X623504Y741497D01*
X623504Y741499D01*
X623504Y741500D01*
X623504Y746500D01*
X623504Y746501D01*
X623466Y746692D01*
X623465Y746693D01*
X623465Y746694D01*
X623357Y746856D01*
X623356Y746856D01*
X623356Y746857D01*
X623194Y746965D01*
X623193Y746965D01*
X623192Y746966D01*
X623001Y747004D01*
X623000Y747004D01*
X621500Y747004D01*
X621499Y747004D01*
X621308Y746966D01*
X621307Y746965D01*
X621306Y746965D01*
X621144Y746857D01*
X621144Y746856D01*
X621143Y746856D01*
X621035Y746694D01*
X621035Y746693D01*
X621034Y746692D01*
X621030Y746670D01*
X621029Y746670D01*
X621030Y746670D01*
X621029Y746666D01*
X621028Y746662D01*
X621027Y746657D01*
X621026Y746653D01*
X621025Y746649D01*
X621024Y746645D01*
X621024Y746640D01*
X621023Y746636D01*
X621014Y746594D01*
X621013Y746589D01*
X621013Y746585D01*
X621012Y746581D01*
X621011Y746577D01*
X621010Y746572D01*
X621009Y746568D01*
X621008Y746564D01*
X621008Y746560D01*
X621007Y746555D01*
X620998Y746513D01*
X620997Y746509D01*
X620997Y746504D01*
X620996Y746501D01*
X620996Y746500D01*
X620996Y741500D01*
X620996Y741499D01*
X621034Y741308D01*
X621035Y741307D01*
X621035Y741306D01*
X621143Y741144D01*
X621144Y741144D01*
X621144Y741143D01*
X621306Y741035D01*
X621307Y741035D01*
X621308Y741034D01*
X621499Y740996D01*
X621500Y740996D01*
X623000Y740996D01*
X623000Y740996D01*
G37*
G36*
X628000Y740996D02*
X628000Y740996D01*
X628001Y740996D01*
X628192Y741034D01*
X628193Y741035D01*
X628194Y741035D01*
X628356Y741143D01*
X628356Y741144D01*
X628357Y741144D01*
X628465Y741306D01*
X628465Y741307D01*
X628466Y741308D01*
X628466Y741310D01*
X628467Y741310D01*
X628466Y741310D01*
X628467Y741314D01*
X628468Y741318D01*
X628469Y741322D01*
X628469Y741323D01*
X628470Y741327D01*
X628471Y741331D01*
X628472Y741335D01*
X628481Y741382D01*
X628482Y741386D01*
X628483Y741390D01*
X628483Y741391D01*
X628483Y741395D01*
X628484Y741399D01*
X628485Y741403D01*
X628486Y741407D01*
X628486Y741408D01*
X628487Y741412D01*
X628488Y741416D01*
X628496Y741458D01*
X628496Y741459D01*
X628497Y741463D01*
X628498Y741467D01*
X628499Y741471D01*
X628499Y741475D01*
X628499Y741476D01*
X628500Y741480D01*
X628501Y741484D01*
X628502Y741488D01*
X628503Y741492D01*
X628503Y741493D01*
X628504Y741497D01*
X628504Y741499D01*
X628504Y741500D01*
X628504Y746500D01*
X628504Y746501D01*
X628466Y746692D01*
X628465Y746693D01*
X628465Y746694D01*
X628357Y746856D01*
X628356Y746856D01*
X628356Y746857D01*
X628194Y746965D01*
X628193Y746965D01*
X628192Y746966D01*
X628001Y747004D01*
X628000Y747004D01*
X626500Y747004D01*
X626499Y747004D01*
X626308Y746966D01*
X626307Y746965D01*
X626306Y746965D01*
X626144Y746857D01*
X626144Y746856D01*
X626143Y746856D01*
X626035Y746694D01*
X626035Y746693D01*
X626034Y746692D01*
X626030Y746670D01*
X626029Y746670D01*
X626030Y746670D01*
X626029Y746666D01*
X626028Y746662D01*
X626027Y746657D01*
X626026Y746653D01*
X626025Y746649D01*
X626024Y746645D01*
X626024Y746640D01*
X626023Y746636D01*
X626014Y746594D01*
X626013Y746589D01*
X626013Y746585D01*
X626012Y746581D01*
X626011Y746577D01*
X626010Y746572D01*
X626009Y746568D01*
X626008Y746564D01*
X626008Y746560D01*
X626007Y746555D01*
X625998Y746513D01*
X625997Y746509D01*
X625997Y746504D01*
X625996Y746501D01*
X625996Y746500D01*
X625996Y741500D01*
X625996Y741499D01*
X626034Y741308D01*
X626035Y741307D01*
X626035Y741306D01*
X626143Y741144D01*
X626144Y741144D01*
X626144Y741143D01*
X626306Y741035D01*
X626307Y741035D01*
X626308Y741034D01*
X626499Y740996D01*
X626500Y740996D01*
X628000Y740996D01*
X628000Y740996D01*
G37*
G36*
X623000Y712996D02*
X623000Y712996D01*
X623001Y712996D01*
X623192Y713034D01*
X623193Y713035D01*
X623194Y713035D01*
X623356Y713143D01*
X623356Y713144D01*
X623357Y713144D01*
X623465Y713306D01*
X623465Y713307D01*
X623466Y713308D01*
X623466Y713310D01*
X623467Y713310D01*
X623466Y713310D01*
X623467Y713314D01*
X623468Y713318D01*
X623469Y713322D01*
X623469Y713323D01*
X623470Y713327D01*
X623471Y713331D01*
X623472Y713335D01*
X623481Y713382D01*
X623482Y713386D01*
X623483Y713390D01*
X623483Y713391D01*
X623483Y713395D01*
X623484Y713399D01*
X623485Y713403D01*
X623486Y713407D01*
X623486Y713408D01*
X623487Y713412D01*
X623488Y713416D01*
X623496Y713458D01*
X623496Y713459D01*
X623497Y713463D01*
X623498Y713467D01*
X623499Y713471D01*
X623499Y713475D01*
X623499Y713476D01*
X623500Y713480D01*
X623501Y713484D01*
X623502Y713488D01*
X623503Y713492D01*
X623503Y713493D01*
X623504Y713497D01*
X623504Y713499D01*
X623504Y713500D01*
X623504Y718500D01*
X623504Y718501D01*
X623466Y718692D01*
X623465Y718693D01*
X623465Y718694D01*
X623357Y718856D01*
X623356Y718856D01*
X623356Y718857D01*
X623194Y718965D01*
X623193Y718965D01*
X623192Y718966D01*
X623001Y719004D01*
X623000Y719004D01*
X621500Y719004D01*
X621499Y719004D01*
X621308Y718966D01*
X621307Y718965D01*
X621306Y718965D01*
X621144Y718857D01*
X621144Y718856D01*
X621143Y718856D01*
X621035Y718694D01*
X621035Y718693D01*
X621034Y718692D01*
X621030Y718670D01*
X621029Y718670D01*
X621030Y718670D01*
X621029Y718666D01*
X621028Y718662D01*
X621027Y718657D01*
X621026Y718653D01*
X621025Y718649D01*
X621024Y718645D01*
X621024Y718640D01*
X621023Y718636D01*
X621014Y718594D01*
X621013Y718589D01*
X621013Y718585D01*
X621012Y718581D01*
X621011Y718577D01*
X621010Y718572D01*
X621009Y718568D01*
X621008Y718564D01*
X621008Y718560D01*
X621007Y718555D01*
X620998Y718513D01*
X620997Y718509D01*
X620997Y718504D01*
X620996Y718501D01*
X620996Y718500D01*
X620996Y713500D01*
X620996Y713499D01*
X621034Y713308D01*
X621035Y713307D01*
X621035Y713306D01*
X621143Y713144D01*
X621144Y713144D01*
X621144Y713143D01*
X621306Y713035D01*
X621307Y713035D01*
X621308Y713034D01*
X621499Y712996D01*
X621500Y712996D01*
X623000Y712996D01*
X623000Y712996D01*
G37*
G36*
X628000Y712996D02*
X628000Y712996D01*
X628001Y712996D01*
X628192Y713034D01*
X628193Y713035D01*
X628194Y713035D01*
X628356Y713143D01*
X628356Y713144D01*
X628357Y713144D01*
X628465Y713306D01*
X628465Y713307D01*
X628466Y713308D01*
X628466Y713310D01*
X628467Y713310D01*
X628466Y713310D01*
X628467Y713314D01*
X628468Y713318D01*
X628469Y713322D01*
X628469Y713323D01*
X628470Y713327D01*
X628471Y713331D01*
X628472Y713335D01*
X628481Y713382D01*
X628482Y713386D01*
X628483Y713390D01*
X628483Y713391D01*
X628483Y713395D01*
X628484Y713399D01*
X628485Y713403D01*
X628486Y713407D01*
X628486Y713408D01*
X628487Y713412D01*
X628488Y713416D01*
X628496Y713458D01*
X628496Y713459D01*
X628497Y713463D01*
X628498Y713467D01*
X628499Y713471D01*
X628499Y713475D01*
X628499Y713476D01*
X628500Y713480D01*
X628501Y713484D01*
X628502Y713488D01*
X628503Y713492D01*
X628503Y713493D01*
X628504Y713497D01*
X628504Y713499D01*
X628504Y713500D01*
X628504Y718500D01*
X628504Y718501D01*
X628466Y718692D01*
X628465Y718693D01*
X628465Y718694D01*
X628357Y718856D01*
X628356Y718856D01*
X628356Y718857D01*
X628194Y718965D01*
X628193Y718965D01*
X628192Y718966D01*
X628001Y719004D01*
X628000Y719004D01*
X626500Y719004D01*
X626499Y719004D01*
X626308Y718966D01*
X626307Y718965D01*
X626306Y718965D01*
X626144Y718857D01*
X626144Y718856D01*
X626143Y718856D01*
X626035Y718694D01*
X626035Y718693D01*
X626034Y718692D01*
X626030Y718670D01*
X626029Y718670D01*
X626030Y718670D01*
X626029Y718666D01*
X626028Y718662D01*
X626027Y718657D01*
X626026Y718653D01*
X626025Y718649D01*
X626024Y718645D01*
X626024Y718640D01*
X626023Y718636D01*
X626014Y718594D01*
X626013Y718589D01*
X626013Y718585D01*
X626012Y718581D01*
X626011Y718577D01*
X626010Y718572D01*
X626009Y718568D01*
X626008Y718564D01*
X626008Y718560D01*
X626007Y718555D01*
X625998Y718513D01*
X625997Y718509D01*
X625997Y718504D01*
X625996Y718501D01*
X625996Y718500D01*
X625996Y713500D01*
X625996Y713499D01*
X626034Y713308D01*
X626035Y713307D01*
X626035Y713306D01*
X626143Y713144D01*
X626144Y713144D01*
X626144Y713143D01*
X626306Y713035D01*
X626307Y713035D01*
X626308Y713034D01*
X626499Y712996D01*
X626500Y712996D01*
X628000Y712996D01*
X628000Y712996D01*
G37*
G36*
X618500Y733746D02*
X618500Y733746D01*
X618501Y733746D01*
X618692Y733784D01*
X618693Y733785D01*
X618694Y733785D01*
X618856Y733893D01*
X618856Y733894D01*
X618857Y733894D01*
X618965Y734056D01*
X618965Y734057D01*
X618966Y734058D01*
X618966Y734060D01*
X618967Y734060D01*
X618966Y734060D01*
X618967Y734064D01*
X618968Y734068D01*
X618969Y734072D01*
X618969Y734073D01*
X618970Y734077D01*
X618971Y734081D01*
X618972Y734085D01*
X618981Y734132D01*
X618982Y734136D01*
X618983Y734140D01*
X618983Y734141D01*
X618983Y734145D01*
X618984Y734149D01*
X618985Y734153D01*
X618986Y734157D01*
X618986Y734158D01*
X618987Y734162D01*
X618988Y734166D01*
X618996Y734208D01*
X618996Y734209D01*
X618997Y734213D01*
X618998Y734217D01*
X618999Y734221D01*
X618999Y734225D01*
X618999Y734226D01*
X619000Y734230D01*
X619001Y734234D01*
X619002Y734238D01*
X619003Y734242D01*
X619003Y734243D01*
X619004Y734247D01*
X619004Y734249D01*
X619004Y734250D01*
X619004Y735750D01*
X619004Y735751D01*
X618966Y735942D01*
X618965Y735943D01*
X618965Y735944D01*
X618857Y736106D01*
X618856Y736106D01*
X618856Y736107D01*
X618694Y736215D01*
X618693Y736215D01*
X618692Y736216D01*
X618501Y736254D01*
X618500Y736254D01*
X613750Y736254D01*
X613749Y736254D01*
X613558Y736216D01*
X613557Y736215D01*
X613556Y736215D01*
X613394Y736107D01*
X613394Y736106D01*
X613393Y736106D01*
X613285Y735944D01*
X613285Y735943D01*
X613284Y735942D01*
X613283Y735939D01*
X613275Y735897D01*
X613274Y735893D01*
X613273Y735888D01*
X613272Y735884D01*
X613272Y735880D01*
X613271Y735880D01*
X613272Y735880D01*
X613271Y735876D01*
X613270Y735871D01*
X613269Y735867D01*
X613268Y735863D01*
X613260Y735820D01*
X613259Y735816D01*
X613258Y735812D01*
X613257Y735808D01*
X613256Y735803D01*
X613255Y735799D01*
X613255Y735795D01*
X613254Y735791D01*
X613253Y735786D01*
X613252Y735782D01*
X613246Y735751D01*
X613246Y735750D01*
X613246Y734250D01*
X613246Y734249D01*
X613284Y734058D01*
X613285Y734057D01*
X613285Y734056D01*
X613393Y733894D01*
X613394Y733894D01*
X613394Y733893D01*
X613556Y733785D01*
X613557Y733785D01*
X613558Y733784D01*
X613749Y733746D01*
X613750Y733746D01*
X618500Y733746D01*
X618500Y733746D01*
G37*
G36*
X610250Y733746D02*
X610250Y733746D01*
X610251Y733746D01*
X610442Y733784D01*
X610443Y733785D01*
X610444Y733785D01*
X610606Y733893D01*
X610606Y733894D01*
X610607Y733894D01*
X610715Y734056D01*
X610715Y734057D01*
X610716Y734058D01*
X610716Y734060D01*
X610717Y734060D01*
X610716Y734060D01*
X610717Y734064D01*
X610718Y734068D01*
X610719Y734072D01*
X610719Y734073D01*
X610720Y734077D01*
X610721Y734081D01*
X610722Y734085D01*
X610731Y734132D01*
X610732Y734136D01*
X610733Y734140D01*
X610733Y734141D01*
X610733Y734145D01*
X610734Y734149D01*
X610735Y734153D01*
X610736Y734157D01*
X610736Y734158D01*
X610737Y734162D01*
X610738Y734166D01*
X610746Y734208D01*
X610746Y734209D01*
X610747Y734213D01*
X610748Y734217D01*
X610749Y734221D01*
X610749Y734225D01*
X610749Y734226D01*
X610750Y734230D01*
X610751Y734234D01*
X610752Y734238D01*
X610753Y734242D01*
X610753Y734243D01*
X610754Y734247D01*
X610754Y734249D01*
X610754Y734250D01*
X610754Y735750D01*
X610754Y735751D01*
X610716Y735942D01*
X610715Y735943D01*
X610715Y735944D01*
X610607Y736106D01*
X610606Y736106D01*
X610606Y736107D01*
X610444Y736215D01*
X610443Y736215D01*
X610442Y736216D01*
X610251Y736254D01*
X610250Y736254D01*
X605500Y736254D01*
X605499Y736254D01*
X605308Y736216D01*
X605307Y736215D01*
X605306Y736215D01*
X605144Y736107D01*
X605144Y736106D01*
X605143Y736106D01*
X605035Y735944D01*
X605035Y735943D01*
X605034Y735942D01*
X605033Y735939D01*
X605025Y735897D01*
X605024Y735893D01*
X605023Y735888D01*
X605022Y735884D01*
X605022Y735880D01*
X605021Y735880D01*
X605022Y735880D01*
X605021Y735876D01*
X605020Y735871D01*
X605019Y735867D01*
X605018Y735863D01*
X605010Y735820D01*
X605009Y735816D01*
X605008Y735812D01*
X605007Y735808D01*
X605006Y735803D01*
X605005Y735799D01*
X605005Y735795D01*
X605004Y735791D01*
X605003Y735786D01*
X605002Y735782D01*
X604996Y735751D01*
X604996Y735750D01*
X604996Y734250D01*
X604996Y734249D01*
X605034Y734058D01*
X605035Y734057D01*
X605035Y734056D01*
X605143Y733894D01*
X605144Y733894D01*
X605144Y733893D01*
X605306Y733785D01*
X605307Y733785D01*
X605308Y733784D01*
X605499Y733746D01*
X605500Y733746D01*
X610250Y733746D01*
X610250Y733746D01*
G37*
G36*
X618500Y723746D02*
X618500Y723746D01*
X618501Y723746D01*
X618692Y723784D01*
X618693Y723785D01*
X618694Y723785D01*
X618856Y723893D01*
X618856Y723894D01*
X618857Y723894D01*
X618965Y724056D01*
X618965Y724057D01*
X618966Y724058D01*
X618966Y724060D01*
X618967Y724060D01*
X618966Y724060D01*
X618967Y724064D01*
X618968Y724068D01*
X618969Y724072D01*
X618969Y724073D01*
X618970Y724077D01*
X618971Y724081D01*
X618972Y724085D01*
X618981Y724132D01*
X618982Y724136D01*
X618983Y724140D01*
X618983Y724141D01*
X618983Y724145D01*
X618984Y724149D01*
X618985Y724153D01*
X618986Y724157D01*
X618986Y724158D01*
X618987Y724162D01*
X618988Y724166D01*
X618996Y724208D01*
X618996Y724209D01*
X618997Y724213D01*
X618998Y724217D01*
X618999Y724221D01*
X618999Y724225D01*
X618999Y724226D01*
X619000Y724230D01*
X619001Y724234D01*
X619002Y724238D01*
X619003Y724242D01*
X619003Y724243D01*
X619004Y724247D01*
X619004Y724249D01*
X619004Y724250D01*
X619004Y725750D01*
X619004Y725751D01*
X618966Y725942D01*
X618965Y725943D01*
X618965Y725944D01*
X618857Y726106D01*
X618856Y726106D01*
X618856Y726107D01*
X618694Y726215D01*
X618693Y726215D01*
X618692Y726216D01*
X618501Y726254D01*
X618500Y726254D01*
X613750Y726254D01*
X613749Y726254D01*
X613558Y726216D01*
X613557Y726215D01*
X613556Y726215D01*
X613394Y726107D01*
X613394Y726106D01*
X613393Y726106D01*
X613285Y725944D01*
X613285Y725943D01*
X613284Y725942D01*
X613283Y725939D01*
X613275Y725897D01*
X613274Y725893D01*
X613273Y725888D01*
X613272Y725884D01*
X613272Y725880D01*
X613271Y725880D01*
X613272Y725880D01*
X613271Y725876D01*
X613270Y725871D01*
X613269Y725867D01*
X613268Y725863D01*
X613260Y725820D01*
X613259Y725816D01*
X613258Y725812D01*
X613257Y725808D01*
X613256Y725803D01*
X613255Y725799D01*
X613255Y725795D01*
X613254Y725791D01*
X613253Y725786D01*
X613252Y725782D01*
X613246Y725751D01*
X613246Y725750D01*
X613246Y724250D01*
X613246Y724249D01*
X613284Y724058D01*
X613285Y724057D01*
X613285Y724056D01*
X613393Y723894D01*
X613394Y723894D01*
X613394Y723893D01*
X613556Y723785D01*
X613557Y723785D01*
X613558Y723784D01*
X613749Y723746D01*
X613750Y723746D01*
X618500Y723746D01*
X618500Y723746D01*
G37*
G36*
X610250Y723746D02*
X610250Y723746D01*
X610251Y723746D01*
X610442Y723784D01*
X610443Y723785D01*
X610444Y723785D01*
X610606Y723893D01*
X610606Y723894D01*
X610607Y723894D01*
X610715Y724056D01*
X610715Y724057D01*
X610716Y724058D01*
X610716Y724060D01*
X610717Y724060D01*
X610716Y724060D01*
X610717Y724064D01*
X610718Y724068D01*
X610719Y724072D01*
X610719Y724073D01*
X610720Y724077D01*
X610721Y724081D01*
X610722Y724085D01*
X610731Y724132D01*
X610732Y724136D01*
X610733Y724140D01*
X610733Y724141D01*
X610733Y724145D01*
X610734Y724149D01*
X610735Y724153D01*
X610736Y724157D01*
X610736Y724158D01*
X610737Y724162D01*
X610738Y724166D01*
X610746Y724208D01*
X610746Y724209D01*
X610747Y724213D01*
X610748Y724217D01*
X610749Y724221D01*
X610749Y724225D01*
X610749Y724226D01*
X610750Y724230D01*
X610751Y724234D01*
X610752Y724238D01*
X610753Y724242D01*
X610753Y724243D01*
X610754Y724247D01*
X610754Y724249D01*
X610754Y724250D01*
X610754Y725750D01*
X610754Y725751D01*
X610716Y725942D01*
X610715Y725943D01*
X610715Y725944D01*
X610607Y726106D01*
X610606Y726106D01*
X610606Y726107D01*
X610444Y726215D01*
X610443Y726215D01*
X610442Y726216D01*
X610251Y726254D01*
X610250Y726254D01*
X605500Y726254D01*
X605499Y726254D01*
X605308Y726216D01*
X605307Y726215D01*
X605306Y726215D01*
X605144Y726107D01*
X605144Y726106D01*
X605143Y726106D01*
X605035Y725944D01*
X605035Y725943D01*
X605034Y725942D01*
X605033Y725939D01*
X605025Y725897D01*
X605024Y725893D01*
X605023Y725888D01*
X605022Y725884D01*
X605022Y725880D01*
X605021Y725880D01*
X605022Y725880D01*
X605021Y725876D01*
X605020Y725871D01*
X605019Y725867D01*
X605018Y725863D01*
X605010Y725820D01*
X605009Y725816D01*
X605008Y725812D01*
X605007Y725808D01*
X605006Y725803D01*
X605005Y725799D01*
X605005Y725795D01*
X605004Y725791D01*
X605003Y725786D01*
X605002Y725782D01*
X604996Y725751D01*
X604996Y725750D01*
X604996Y724250D01*
X604996Y724249D01*
X605034Y724058D01*
X605035Y724057D01*
X605035Y724056D01*
X605143Y723894D01*
X605144Y723894D01*
X605144Y723893D01*
X605306Y723785D01*
X605307Y723785D01*
X605308Y723784D01*
X605499Y723746D01*
X605500Y723746D01*
X610250Y723746D01*
X610250Y723746D01*
G37*
D10*
X950000Y-70000D02*
X50000Y-70000D01*
X1000000Y-20000D02*
X1000000Y880000D01*
X0Y880000D02*
X0Y-20000D01*
X50000Y930000D02*
X950000Y930000D01*
X50000Y930000D02*
X48792Y929985D01*
X47584Y929942D01*
X46378Y929869D01*
X45174Y929767D01*
X43973Y929635D01*
X42776Y929475D01*
X41582Y929286D01*
X40394Y929069D01*
X39211Y928822D01*
X38034Y928547D01*
X36865Y928244D01*
X35703Y927912D01*
X34549Y927553D01*
X33405Y927166D01*
X32270Y926751D01*
X31145Y926309D01*
X30032Y925840D01*
X28930Y925344D01*
X27840Y924821D01*
X26764Y924273D01*
X25701Y923698D01*
X24652Y923098D01*
X23618Y922473D01*
X22599Y921824D01*
X21597Y921149D01*
X20611Y920451D01*
X19642Y919729D01*
X18691Y918984D01*
X17758Y918216D01*
X16844Y917426D01*
X15949Y916613D01*
X15074Y915780D01*
X14220Y914926D01*
X13387Y914051D01*
X12574Y913156D01*
X11784Y912242D01*
X11016Y911309D01*
X10271Y910358D01*
X9549Y909389D01*
X8851Y908403D01*
X8176Y907401D01*
X7527Y906382D01*
X6902Y905348D01*
X6302Y904299D01*
X5727Y903236D01*
X5179Y902160D01*
X4656Y901070D01*
X4160Y899968D01*
X3691Y898855D01*
X3249Y897730D01*
X2834Y896595D01*
X2447Y895451D01*
X2088Y894297D01*
X1756Y893135D01*
X1453Y891966D01*
X1178Y890789D01*
X931Y889606D01*
X714Y888418D01*
X525Y887224D01*
X365Y886027D01*
X233Y884826D01*
X131Y883622D01*
X58Y882416D01*
X15Y881208D01*
X0Y880000D01*
X950000Y930000D02*
X951208Y929985D01*
X952416Y929942D01*
X953622Y929869D01*
X954826Y929767D01*
X956027Y929635D01*
X957224Y929475D01*
X958418Y929286D01*
X959606Y929069D01*
X960789Y928822D01*
X961966Y928547D01*
X963135Y928244D01*
X964297Y927912D01*
X965451Y927553D01*
X966595Y927166D01*
X967730Y926751D01*
X968855Y926309D01*
X969968Y925840D01*
X971070Y925344D01*
X972160Y924821D01*
X973236Y924273D01*
X974299Y923698D01*
X975348Y923098D01*
X976382Y922473D01*
X977401Y921824D01*
X978403Y921149D01*
X979389Y920451D01*
X980358Y919729D01*
X981309Y918984D01*
X982242Y918216D01*
X983156Y917426D01*
X984051Y916613D01*
X984926Y915780D01*
X985780Y914926D01*
X986613Y914051D01*
X987426Y913156D01*
X988216Y912242D01*
X988984Y911309D01*
X989729Y910358D01*
X990451Y909389D01*
X991149Y908403D01*
X991824Y907401D01*
X992473Y906382D01*
X993098Y905348D01*
X993698Y904299D01*
X994273Y903236D01*
X994821Y902160D01*
X995344Y901070D01*
X995840Y899968D01*
X996309Y898855D01*
X996751Y897730D01*
X997166Y896595D01*
X997553Y895451D01*
X997912Y894297D01*
X998244Y893135D01*
X998547Y891966D01*
X998822Y890789D01*
X999069Y889606D01*
X999286Y888418D01*
X999475Y887224D01*
X999635Y886027D01*
X999767Y884826D01*
X999869Y883622D01*
X999942Y882416D01*
X999985Y881208D01*
X1000000Y880000D01*
X50000Y-70000D02*
X48792Y-69985D01*
X47584Y-69942D01*
X46378Y-69869D01*
X45174Y-69767D01*
X43973Y-69635D01*
X42776Y-69475D01*
X41582Y-69286D01*
X40394Y-69069D01*
X39211Y-68822D01*
X38034Y-68547D01*
X36865Y-68244D01*
X35703Y-67912D01*
X34549Y-67553D01*
X33405Y-67166D01*
X32270Y-66751D01*
X31145Y-66309D01*
X30032Y-65840D01*
X28930Y-65344D01*
X27840Y-64821D01*
X26764Y-64273D01*
X25701Y-63698D01*
X24652Y-63098D01*
X23618Y-62473D01*
X22599Y-61824D01*
X21597Y-61149D01*
X20611Y-60451D01*
X19642Y-59729D01*
X18691Y-58984D01*
X17758Y-58216D01*
X16844Y-57426D01*
X15949Y-56613D01*
X15074Y-55780D01*
X14220Y-54926D01*
X13387Y-54051D01*
X12574Y-53156D01*
X11784Y-52242D01*
X11016Y-51309D01*
X10271Y-50358D01*
X9549Y-49389D01*
X8851Y-48403D01*
X8176Y-47401D01*
X7527Y-46382D01*
X6902Y-45348D01*
X6302Y-44299D01*
X5727Y-43236D01*
X5179Y-42160D01*
X4656Y-41070D01*
X4160Y-39968D01*
X3691Y-38855D01*
X3249Y-37730D01*
X2834Y-36595D01*
X2447Y-35451D01*
X2088Y-34297D01*
X1756Y-33135D01*
X1453Y-31966D01*
X1178Y-30789D01*
X931Y-29606D01*
X714Y-28418D01*
X525Y-27224D01*
X365Y-26027D01*
X233Y-24826D01*
X131Y-23622D01*
X58Y-22416D01*
X15Y-21208D01*
X0Y-20000D01*
X950000Y-70000D02*
X951208Y-69985D01*
X952416Y-69942D01*
X953622Y-69869D01*
X954826Y-69767D01*
X956027Y-69635D01*
X957224Y-69475D01*
X958418Y-69286D01*
X959606Y-69069D01*
X960789Y-68822D01*
X961966Y-68547D01*
X963135Y-68244D01*
X964297Y-67912D01*
X965451Y-67553D01*
X966595Y-67166D01*
X967730Y-66751D01*
X968855Y-66309D01*
X969968Y-65840D01*
X971070Y-65344D01*
X972160Y-64821D01*
X973236Y-64273D01*
X974299Y-63698D01*
X975348Y-63098D01*
X976382Y-62473D01*
X977401Y-61824D01*
X978403Y-61149D01*
X979389Y-60451D01*
X980358Y-59729D01*
X981309Y-58984D01*
X982242Y-58216D01*
X983156Y-57426D01*
X984051Y-56613D01*
X984926Y-55780D01*
X985780Y-54926D01*
X986613Y-54051D01*
X987426Y-53156D01*
X988216Y-52242D01*
X988984Y-51309D01*
X989729Y-50358D01*
X990451Y-49389D01*
X991149Y-48403D01*
X991824Y-47401D01*
X992473Y-46382D01*
X993098Y-45348D01*
X993698Y-44299D01*
X994273Y-43236D01*
X994821Y-42160D01*
X995344Y-41070D01*
X995840Y-39968D01*
X996309Y-38855D01*
X996751Y-37730D01*
X997166Y-36595D01*
X997553Y-35451D01*
X997912Y-34297D01*
X998244Y-33135D01*
X998547Y-31966D01*
X998822Y-30789D01*
X999069Y-29606D01*
X999286Y-28418D01*
X999475Y-27224D01*
X999635Y-26027D01*
X999767Y-24826D01*
X999869Y-23622D01*
X999942Y-22416D01*
X999985Y-21208D01*
X1000000Y-20000D01*
D11*
X160750Y680750D03*
X139250Y680750D03*
X139250Y659250D03*
X160750Y659250D03*
D12*
X120500Y692000D03*
X120500Y688000D03*
X120500Y684000D03*
X120500Y680000D03*
X120500Y676000D03*
X120500Y672000D03*
X120500Y668000D03*
X120500Y664000D03*
X120500Y660000D03*
X120500Y656000D03*
X120500Y652000D03*
X120500Y648000D03*
D13*
X128000Y640500D03*
X132000Y640500D03*
X136000Y640500D03*
X140000Y640500D03*
X144000Y640500D03*
X148000Y640500D03*
X152000Y640500D03*
X156000Y640500D03*
X160000Y640500D03*
X164000Y640500D03*
X168000Y640500D03*
X172000Y640500D03*
D12*
X179500Y648000D03*
X179500Y652000D03*
X179500Y656000D03*
X179500Y660000D03*
X179500Y664000D03*
X179500Y668000D03*
X179500Y672000D03*
X179500Y676000D03*
X179500Y680000D03*
X179500Y684000D03*
X179500Y688000D03*
X179500Y692000D03*
D13*
X172000Y699500D03*
X168000Y699500D03*
X164000Y699500D03*
X160000Y699500D03*
X156000Y699500D03*
X152000Y699500D03*
X148000Y699500D03*
X144000Y699500D03*
X140000Y699500D03*
X136000Y699500D03*
X132000Y699500D03*
X128000Y699500D03*
D14*
X122500Y757500D03*
X127500Y757500D03*
X132500Y757500D03*
X137500Y757500D03*
X142500Y757500D03*
X147500Y757500D03*
X152500Y757500D03*
X157500Y757500D03*
X162500Y757500D03*
X167500Y757500D03*
X172500Y757500D03*
X177500Y757500D03*
D15*
X192500Y772500D03*
X192500Y777500D03*
X192500Y782500D03*
X192500Y787500D03*
X192500Y792500D03*
X192500Y797500D03*
X192500Y802500D03*
X192500Y807500D03*
X192500Y812500D03*
X192500Y817500D03*
X192500Y822500D03*
X192500Y827500D03*
D14*
X177500Y842500D03*
X172500Y842500D03*
X167500Y842500D03*
X162500Y842500D03*
X157500Y842500D03*
X152500Y842500D03*
X147500Y842500D03*
X142500Y842500D03*
X137500Y842500D03*
X132500Y842500D03*
X127500Y842500D03*
X122500Y842500D03*
D15*
X107500Y827500D03*
X107500Y822500D03*
X107500Y817500D03*
X107500Y812500D03*
X107500Y807500D03*
X107500Y802500D03*
X107500Y797500D03*
X107500Y792500D03*
X107500Y787500D03*
X107500Y782500D03*
X107500Y777500D03*
X107500Y772500D03*
D16*
X287500Y642500D03*
X292500Y642500D03*
X277500Y642500D03*
X267500Y642500D03*
X257500Y642500D03*
X282500Y642500D03*
X272500Y642500D03*
X262500Y642500D03*
X252500Y642500D03*
X302500Y642500D03*
X312500Y642500D03*
X322500Y642500D03*
X327500Y642500D03*
X317500Y642500D03*
X307500Y642500D03*
X297500Y642500D03*
D17*
X347500Y697500D03*
X347500Y702500D03*
X347500Y687500D03*
X347500Y677500D03*
X347500Y667500D03*
X347500Y692500D03*
X347500Y682500D03*
X347500Y672500D03*
X347500Y662500D03*
X347500Y712500D03*
X347500Y722500D03*
X347500Y732500D03*
X347500Y737500D03*
X347500Y727500D03*
X347500Y717500D03*
X347500Y707500D03*
D16*
X292500Y757500D03*
X287500Y757500D03*
X302500Y757500D03*
X312500Y757500D03*
X322500Y757500D03*
X297500Y757500D03*
X307500Y757500D03*
X317500Y757500D03*
X327500Y757500D03*
X277500Y757500D03*
X267500Y757500D03*
X257500Y757500D03*
X252500Y757500D03*
X262500Y757500D03*
X272500Y757500D03*
X282500Y757500D03*
D17*
X232500Y702500D03*
X232500Y697500D03*
X232500Y712500D03*
X232500Y722500D03*
X232500Y732500D03*
X232500Y707500D03*
X232500Y717500D03*
X232500Y727500D03*
X232500Y737500D03*
X232500Y687500D03*
X232500Y677500D03*
X232500Y667500D03*
X232500Y662500D03*
X232500Y672500D03*
X232500Y682500D03*
X232500Y692500D03*
D18*
X29250Y677000D02*
X22000Y677000D01*
X22000Y679000D01*
X29250Y679000D01*
X29250Y677000D01*
X29250Y678900D02*
X22000Y678900D01*
X22000Y670500D02*
X29250Y670500D01*
X22000Y670500D02*
X22000Y672500D01*
X29250Y672500D01*
X29250Y670500D01*
X29250Y672400D02*
X22000Y672400D01*
X22000Y664000D02*
X29250Y664000D01*
X22000Y664000D02*
X22000Y666000D01*
X29250Y666000D01*
X29250Y664000D01*
X29250Y665900D02*
X22000Y665900D01*
X22000Y657500D02*
X29250Y657500D01*
X22000Y657500D02*
X22000Y659500D01*
X29250Y659500D01*
X29250Y657500D01*
X29250Y659400D02*
X22000Y659400D01*
X22000Y651000D02*
X29250Y651000D01*
X22000Y651000D02*
X22000Y653000D01*
X29250Y653000D01*
X29250Y651000D01*
X29250Y652900D02*
X22000Y652900D01*
X38000Y644250D02*
X38000Y637000D01*
X36000Y637000D01*
X36000Y644250D01*
X38000Y644250D01*
X38000Y638900D02*
X36000Y638900D01*
X36000Y640800D02*
X38000Y640800D01*
X38000Y642700D02*
X36000Y642700D01*
X44500Y644250D02*
X44500Y637000D01*
X42500Y637000D01*
X42500Y644250D01*
X44500Y644250D01*
X44500Y638900D02*
X42500Y638900D01*
X42500Y640800D02*
X44500Y640800D01*
X44500Y642700D02*
X42500Y642700D01*
X51000Y644250D02*
X51000Y637000D01*
X49000Y637000D01*
X49000Y644250D01*
X51000Y644250D01*
X51000Y638900D02*
X49000Y638900D01*
X49000Y640800D02*
X51000Y640800D01*
X51000Y642700D02*
X49000Y642700D01*
X57500Y644250D02*
X57500Y637000D01*
X55500Y637000D01*
X55500Y644250D01*
X57500Y644250D01*
X57500Y638900D02*
X55500Y638900D01*
X55500Y640800D02*
X57500Y640800D01*
X57500Y642700D02*
X55500Y642700D01*
X64000Y644250D02*
X64000Y637000D01*
X62000Y637000D01*
X62000Y644250D01*
X64000Y644250D01*
X64000Y638900D02*
X62000Y638900D01*
X62000Y640800D02*
X64000Y640800D01*
X64000Y642700D02*
X62000Y642700D01*
X70750Y653000D02*
X78000Y653000D01*
X78000Y651000D01*
X70750Y651000D01*
X70750Y653000D01*
X70750Y652900D02*
X78000Y652900D01*
X78000Y659500D02*
X70750Y659500D01*
X78000Y659500D02*
X78000Y657500D01*
X70750Y657500D01*
X70750Y659500D01*
X70750Y659400D02*
X78000Y659400D01*
X78000Y666000D02*
X70750Y666000D01*
X78000Y666000D02*
X78000Y664000D01*
X70750Y664000D01*
X70750Y666000D01*
X70750Y665900D02*
X78000Y665900D01*
X78000Y672500D02*
X70750Y672500D01*
X78000Y672500D02*
X78000Y670500D01*
X70750Y670500D01*
X70750Y672500D01*
X70750Y672400D02*
X78000Y672400D01*
X78000Y679000D02*
X70750Y679000D01*
X78000Y679000D02*
X78000Y677000D01*
X70750Y677000D01*
X70750Y679000D01*
X70750Y678900D02*
X78000Y678900D01*
X62000Y685750D02*
X62000Y693000D01*
X64000Y693000D01*
X64000Y685750D01*
X62000Y685750D01*
X62000Y687650D02*
X64000Y687650D01*
X64000Y689550D02*
X62000Y689550D01*
X62000Y691450D02*
X64000Y691450D01*
X55500Y693000D02*
X55500Y685750D01*
X55500Y693000D02*
X57500Y693000D01*
X57500Y685750D01*
X55500Y685750D01*
X55500Y687650D02*
X57500Y687650D01*
X57500Y689550D02*
X55500Y689550D01*
X55500Y691450D02*
X57500Y691450D01*
X49000Y693000D02*
X49000Y685750D01*
X49000Y693000D02*
X51000Y693000D01*
X51000Y685750D01*
X49000Y685750D01*
X49000Y687650D02*
X51000Y687650D01*
X51000Y689550D02*
X49000Y689550D01*
X49000Y691450D02*
X51000Y691450D01*
X42500Y693000D02*
X42500Y685750D01*
X42500Y693000D02*
X44500Y693000D01*
X44500Y685750D01*
X42500Y685750D01*
X42500Y687650D02*
X44500Y687650D01*
X44500Y689550D02*
X42500Y689550D01*
X42500Y691450D02*
X44500Y691450D01*
X36000Y693000D02*
X36000Y685750D01*
X36000Y693000D02*
X38000Y693000D01*
X38000Y685750D01*
X36000Y685750D01*
X36000Y687650D02*
X38000Y687650D01*
X38000Y689550D02*
X36000Y689550D01*
X36000Y691450D02*
X38000Y691450D01*
D19*
X42500Y672500D03*
X57500Y672500D03*
X42500Y657500D03*
X57500Y657500D03*
D20*
X43375Y813375D03*
X56625Y826625D03*
X43375Y826625D03*
X56625Y813375D03*
D21*
X32250Y832000D03*
X32250Y828000D03*
X32250Y824000D03*
X32250Y820000D03*
X32250Y816000D03*
X32250Y812000D03*
X32250Y808000D03*
D22*
X38000Y802250D03*
X42000Y802250D03*
X46000Y802250D03*
X50000Y802250D03*
X54000Y802250D03*
X58000Y802250D03*
X62000Y802250D03*
D21*
X67750Y808000D03*
X67750Y812000D03*
X67750Y816000D03*
X67750Y820000D03*
X67750Y824000D03*
X67750Y828000D03*
X67750Y832000D03*
D22*
X62000Y837750D03*
X58000Y837750D03*
X54000Y837750D03*
X50000Y837750D03*
X46000Y837750D03*
X42000Y837750D03*
X38000Y837750D03*
D23*
X240000Y808350D03*
X245000Y808350D03*
X250000Y808350D03*
X255000Y808350D03*
X260000Y808350D03*
X260000Y831650D03*
X255000Y831650D03*
X250000Y831650D03*
X245000Y831650D03*
X240000Y831650D03*
D24*
X233875Y822750D03*
X233875Y817250D03*
D25*
X243375Y824750D03*
X243375Y815250D03*
X256625Y815250D03*
X256625Y824750D03*
D26*
X240000Y804925D03*
X245000Y804925D03*
X250000Y804925D03*
X255000Y804925D03*
X260000Y804925D03*
X260000Y835075D03*
X255000Y835075D03*
X250000Y835075D03*
X245000Y835075D03*
X240000Y835075D03*
D24*
X266125Y817250D03*
X266125Y822750D03*
D27*
X465000Y726000D03*
X465000Y730000D03*
X465000Y722000D03*
X465000Y718000D03*
X465000Y714000D03*
X465000Y710000D03*
D28*
X470000Y705000D03*
X474000Y705000D03*
X478000Y705000D03*
X482000Y705000D03*
X486000Y705000D03*
X490000Y705000D03*
D27*
X495000Y710000D03*
X495000Y714000D03*
X495000Y722000D03*
X495000Y718000D03*
X495000Y726000D03*
X495000Y730000D03*
D28*
X490000Y735000D03*
X486000Y735000D03*
X482000Y735000D03*
X478000Y735000D03*
X474000Y735000D03*
X470000Y735000D03*
D29*
X401500Y780000D03*
X401500Y775000D03*
X401500Y770000D03*
X401500Y765000D03*
X401500Y760000D03*
X401500Y755000D03*
X401500Y750000D03*
X401500Y745000D03*
X401500Y740000D03*
X401500Y735000D03*
X401500Y730000D03*
X401500Y725000D03*
X401500Y720000D03*
X401500Y715000D03*
X401500Y710000D03*
X401500Y705000D03*
X401500Y700000D03*
X401500Y695000D03*
X401500Y690000D03*
X401500Y685000D03*
X401500Y680000D03*
X401500Y675000D03*
X401500Y670000D03*
X401500Y665000D03*
X401500Y660000D03*
D30*
X420000Y641500D03*
X425000Y641500D03*
X430000Y641500D03*
X435000Y641500D03*
X440000Y641500D03*
X445000Y641500D03*
X450000Y641500D03*
X455000Y641500D03*
X460000Y641500D03*
X465000Y641500D03*
X470000Y641500D03*
X475000Y641500D03*
X480000Y641500D03*
X485000Y641500D03*
X490000Y641500D03*
X495000Y641500D03*
X500000Y641500D03*
X505000Y641500D03*
X510000Y641500D03*
X515000Y641500D03*
X520000Y641500D03*
X525000Y641500D03*
X530000Y641500D03*
X535000Y641500D03*
X540000Y641500D03*
D29*
X558500Y660000D03*
X558500Y665000D03*
X558500Y670000D03*
X558500Y675000D03*
X558500Y680000D03*
X558500Y685000D03*
X558500Y690000D03*
X558500Y695000D03*
X558500Y700000D03*
X558500Y705000D03*
X558500Y710000D03*
X558500Y715000D03*
X558500Y720000D03*
X558500Y725000D03*
X558500Y730000D03*
X558500Y735000D03*
X558500Y740000D03*
X558500Y745000D03*
X558500Y750000D03*
X558500Y755000D03*
X558500Y760000D03*
X558500Y765000D03*
X558500Y770000D03*
X558500Y775000D03*
X558500Y780000D03*
D30*
X540000Y798500D03*
X535000Y798500D03*
X530000Y798500D03*
X525000Y798500D03*
X520000Y798500D03*
X515000Y798500D03*
X510000Y798500D03*
X505000Y798500D03*
X500000Y798500D03*
X495000Y798500D03*
X490000Y798500D03*
X485000Y798500D03*
X480000Y798500D03*
X475000Y798500D03*
X470000Y798500D03*
X465000Y798500D03*
X460000Y798500D03*
X455000Y798500D03*
X450000Y798500D03*
X445000Y798500D03*
X440000Y798500D03*
X435000Y798500D03*
X430000Y798500D03*
X425000Y798500D03*
X420000Y798500D03*
D31*
X677195Y665286D02*
X685195Y665286D01*
X677195Y665286D02*
X677195Y672286D01*
X685195Y672286D01*
X685195Y665286D01*
X685195Y668136D02*
X677195Y668136D01*
X677195Y670986D02*
X685195Y670986D01*
X694195Y665286D02*
X702195Y665286D01*
X694195Y665286D02*
X694195Y672286D01*
X702195Y672286D01*
X702195Y665286D01*
X702195Y668136D02*
X694195Y668136D01*
X694195Y670986D02*
X702195Y670986D01*
X902541Y790000D02*
X910541Y790000D01*
X902541Y790000D02*
X902541Y797000D01*
X910541Y797000D01*
X910541Y790000D01*
X910541Y792850D02*
X902541Y792850D01*
X902541Y795700D02*
X910541Y795700D01*
X919541Y790000D02*
X927541Y790000D01*
X919541Y790000D02*
X919541Y797000D01*
X927541Y797000D01*
X927541Y790000D01*
X927541Y792850D02*
X919541Y792850D01*
X919541Y795700D02*
X927541Y795700D01*
X800876Y677984D02*
X800876Y669984D01*
X800876Y677984D02*
X807876Y677984D01*
X807876Y669984D01*
X800876Y669984D01*
X800876Y672834D02*
X807876Y672834D01*
X807876Y675684D02*
X800876Y675684D01*
X800876Y660984D02*
X800876Y652984D01*
X800876Y660984D02*
X807876Y660984D01*
X807876Y652984D01*
X800876Y652984D01*
X800876Y655834D02*
X807876Y655834D01*
X807876Y658684D02*
X800876Y658684D01*
X884886Y641552D02*
X892886Y641552D01*
X892886Y634552D01*
X884886Y634552D01*
X884886Y641552D01*
X884886Y637402D02*
X892886Y637402D01*
X892886Y640252D02*
X884886Y640252D01*
X875886Y641552D02*
X867886Y641552D01*
X875886Y641552D02*
X875886Y634552D01*
X867886Y634552D01*
X867886Y641552D01*
X867886Y637402D02*
X875886Y637402D01*
X875886Y640252D02*
X867886Y640252D01*
X611048Y795518D02*
X603048Y795518D01*
X603048Y802518D01*
X611048Y802518D01*
X611048Y795518D01*
X611048Y798368D02*
X603048Y798368D01*
X603048Y801218D02*
X611048Y801218D01*
X620048Y795518D02*
X628048Y795518D01*
X620048Y795518D02*
X620048Y802518D01*
X628048Y802518D01*
X628048Y795518D01*
X628048Y798368D02*
X620048Y798368D01*
X620048Y801218D02*
X628048Y801218D01*
X628059Y664364D02*
X620059Y664364D01*
X628059Y664364D02*
X628059Y657364D01*
X620059Y657364D01*
X620059Y664364D01*
X620059Y660214D02*
X628059Y660214D01*
X628059Y663064D02*
X620059Y663064D01*
X611059Y664364D02*
X603059Y664364D01*
X611059Y664364D02*
X611059Y657364D01*
X603059Y657364D01*
X603059Y664364D01*
X603059Y660214D02*
X611059Y660214D01*
X611059Y663064D02*
X603059Y663064D01*
X740424Y759233D02*
X740424Y767233D01*
X747424Y767233D01*
X747424Y759233D01*
X740424Y759233D01*
X740424Y762083D02*
X747424Y762083D01*
X747424Y764933D02*
X740424Y764933D01*
X740424Y750233D02*
X740424Y742233D01*
X740424Y750233D02*
X747424Y750233D01*
X747424Y742233D01*
X740424Y742233D01*
X740424Y745083D02*
X747424Y745083D01*
X747424Y747933D02*
X740424Y747933D01*
X734040Y767282D02*
X726040Y767282D01*
X734040Y767282D02*
X734040Y760282D01*
X726040Y760282D01*
X726040Y767282D01*
X726040Y763132D02*
X734040Y763132D01*
X734040Y765982D02*
X726040Y765982D01*
X717040Y767282D02*
X709040Y767282D01*
X717040Y767282D02*
X717040Y760282D01*
X709040Y760282D01*
X709040Y767282D01*
X709040Y763132D02*
X717040Y763132D01*
X717040Y765982D02*
X709040Y765982D01*
X859946Y660984D02*
X859946Y652984D01*
X852946Y652984D01*
X852946Y660984D01*
X859946Y660984D01*
X859946Y655834D02*
X852946Y655834D01*
X852946Y658684D02*
X859946Y658684D01*
X859946Y669984D02*
X859946Y677984D01*
X859946Y669984D02*
X852946Y669984D01*
X852946Y677984D01*
X859946Y677984D01*
X859946Y672834D02*
X852946Y672834D01*
X852946Y675684D02*
X859946Y675684D01*
X747857Y661855D02*
X747857Y653855D01*
X747857Y661855D02*
X754857Y661855D01*
X754857Y653855D01*
X747857Y653855D01*
X747857Y656705D02*
X754857Y656705D01*
X754857Y659555D02*
X747857Y659555D01*
X747857Y644855D02*
X747857Y636855D01*
X747857Y644855D02*
X754857Y644855D01*
X754857Y636855D01*
X747857Y636855D01*
X747857Y639705D02*
X754857Y639705D01*
X754857Y642555D02*
X747857Y642555D01*
X865121Y752425D02*
X865121Y760425D01*
X865121Y752425D02*
X858121Y752425D01*
X858121Y760425D01*
X865121Y760425D01*
X865121Y755275D02*
X858121Y755275D01*
X858121Y758125D02*
X865121Y758125D01*
X865121Y769425D02*
X865121Y777425D01*
X865121Y769425D02*
X858121Y769425D01*
X858121Y777425D01*
X865121Y777425D01*
X865121Y772275D02*
X858121Y772275D01*
X858121Y775125D02*
X865121Y775125D01*
X696226Y767282D02*
X688226Y767282D01*
X696226Y767282D02*
X696226Y760282D01*
X688226Y760282D01*
X688226Y767282D01*
X688226Y763132D02*
X696226Y763132D01*
X696226Y765982D02*
X688226Y765982D01*
X679226Y767282D02*
X671226Y767282D01*
X679226Y767282D02*
X679226Y760282D01*
X671226Y760282D01*
X671226Y767282D01*
X671226Y763132D02*
X679226Y763132D01*
X679226Y765982D02*
X671226Y765982D01*
X877790Y766775D02*
X877790Y758775D01*
X870790Y758775D01*
X870790Y766775D01*
X877790Y766775D01*
X877790Y761625D02*
X870790Y761625D01*
X870790Y764475D02*
X877790Y764475D01*
X877790Y775775D02*
X877790Y783775D01*
X877790Y775775D02*
X870790Y775775D01*
X870790Y783775D01*
X877790Y783775D01*
X877790Y778625D02*
X870790Y778625D01*
X870790Y781475D02*
X877790Y781475D01*
X689535Y704121D02*
X689535Y696121D01*
X689535Y704121D02*
X696535Y704121D01*
X696535Y696121D01*
X689535Y696121D01*
X689535Y698971D02*
X696535Y698971D01*
X696535Y701821D02*
X689535Y701821D01*
X689535Y687121D02*
X689535Y679121D01*
X689535Y687121D02*
X696535Y687121D01*
X696535Y679121D01*
X689535Y679121D01*
X689535Y681971D02*
X696535Y681971D01*
X696535Y684821D02*
X689535Y684821D01*
X889395Y805938D02*
X889395Y813938D01*
X896395Y813938D01*
X896395Y805938D01*
X889395Y805938D01*
X889395Y808788D02*
X896395Y808788D01*
X896395Y811638D02*
X889395Y811638D01*
X889395Y796938D02*
X889395Y788938D01*
X889395Y796938D02*
X896395Y796938D01*
X896395Y788938D01*
X889395Y788938D01*
X889395Y791788D02*
X896395Y791788D01*
X896395Y794638D02*
X889395Y794638D01*
X933528Y802366D02*
X933528Y810366D01*
X940528Y810366D01*
X940528Y802366D01*
X933528Y802366D01*
X933528Y805216D02*
X940528Y805216D01*
X940528Y808066D02*
X933528Y808066D01*
X933528Y793366D02*
X933528Y785366D01*
X933528Y793366D02*
X940528Y793366D01*
X940528Y785366D01*
X933528Y785366D01*
X933528Y788216D02*
X940528Y788216D01*
X940528Y791066D02*
X933528Y791066D01*
X862852Y807525D02*
X862852Y815525D01*
X869852Y815525D01*
X869852Y807525D01*
X862852Y807525D01*
X862852Y810375D02*
X869852Y810375D01*
X869852Y813225D02*
X862852Y813225D01*
X862852Y798525D02*
X862852Y790525D01*
X862852Y798525D02*
X869852Y798525D01*
X869852Y790525D01*
X862852Y790525D01*
X862852Y793375D02*
X869852Y793375D01*
X869852Y796225D02*
X862852Y796225D01*
X856898Y798525D02*
X856898Y790525D01*
X849898Y790525D01*
X849898Y798525D01*
X856898Y798525D01*
X856898Y793375D02*
X849898Y793375D01*
X849898Y796225D02*
X856898Y796225D01*
X856898Y807525D02*
X856898Y815525D01*
X856898Y807525D02*
X849898Y807525D01*
X849898Y815525D01*
X856898Y815525D01*
X856898Y810375D02*
X849898Y810375D01*
X849898Y813225D02*
X856898Y813225D01*
X808734Y799329D02*
X808734Y791329D01*
X808734Y799329D02*
X815734Y799329D01*
X815734Y791329D01*
X808734Y791329D01*
X808734Y794179D02*
X815734Y794179D01*
X815734Y797029D02*
X808734Y797029D01*
X808734Y782329D02*
X808734Y774329D01*
X808734Y782329D02*
X815734Y782329D01*
X815734Y774329D01*
X808734Y774329D01*
X808734Y777179D02*
X815734Y777179D01*
X815734Y780029D02*
X808734Y780029D01*
X772555Y789815D02*
X766899Y795471D01*
X771849Y800421D01*
X777505Y794765D01*
X772555Y789815D01*
X775405Y792665D02*
X769705Y792665D01*
X766943Y795515D02*
X776755Y795515D01*
X773905Y798365D02*
X769793Y798365D01*
X778920Y783450D02*
X784576Y777794D01*
X778920Y783450D02*
X783870Y788400D01*
X789526Y782744D01*
X784576Y777794D01*
X787426Y780644D02*
X781726Y780644D01*
X778964Y783494D02*
X788776Y783494D01*
X785926Y786344D02*
X781814Y786344D01*
X781586Y798883D02*
X775930Y804539D01*
X780880Y809489D01*
X786536Y803833D01*
X781586Y798883D01*
X784436Y801733D02*
X778736Y801733D01*
X775974Y804583D02*
X785786Y804583D01*
X782936Y807433D02*
X778824Y807433D01*
X787950Y792519D02*
X793606Y786863D01*
X787950Y792519D02*
X792900Y797469D01*
X798556Y791813D01*
X793606Y786863D01*
X796456Y789713D02*
X790756Y789713D01*
X787994Y792563D02*
X797806Y792563D01*
X794956Y795413D02*
X790844Y795413D01*
X766761Y680869D02*
X758761Y680869D01*
X758761Y687869D01*
X766761Y687869D01*
X766761Y680869D01*
X766761Y683719D02*
X758761Y683719D01*
X758761Y686569D02*
X766761Y686569D01*
X775761Y680869D02*
X783761Y680869D01*
X775761Y680869D02*
X775761Y687869D01*
X783761Y687869D01*
X783761Y680869D01*
X783761Y683719D02*
X775761Y683719D01*
X775761Y686569D02*
X783761Y686569D01*
X766812Y667909D02*
X758812Y667909D01*
X758812Y674909D01*
X766812Y674909D01*
X766812Y667909D01*
X766812Y670759D02*
X758812Y670759D01*
X758812Y673609D02*
X766812Y673609D01*
X775812Y667909D02*
X783812Y667909D01*
X775812Y667909D02*
X775812Y674909D01*
X783812Y674909D01*
X783812Y667909D01*
X783812Y670759D02*
X775812Y670759D01*
X775812Y673609D02*
X783812Y673609D01*
X767490Y644855D02*
X767490Y636855D01*
X760490Y636855D01*
X760490Y644855D01*
X767490Y644855D01*
X767490Y639705D02*
X760490Y639705D01*
X760490Y642555D02*
X767490Y642555D01*
X767490Y653855D02*
X767490Y661855D01*
X767490Y653855D02*
X760490Y653855D01*
X760490Y661855D01*
X767490Y661855D01*
X767490Y656705D02*
X760490Y656705D01*
X760490Y659555D02*
X767490Y659555D01*
X880965Y660994D02*
X880965Y652994D01*
X873965Y652994D01*
X873965Y660994D01*
X880965Y660994D01*
X880965Y655844D02*
X873965Y655844D01*
X873965Y658694D02*
X880965Y658694D01*
X880965Y669994D02*
X880965Y677994D01*
X880965Y669994D02*
X873965Y669994D01*
X873965Y677994D01*
X880965Y677994D01*
X880965Y672844D02*
X873965Y672844D01*
X873965Y675694D02*
X880965Y675694D01*
X766255Y751381D02*
X766255Y759381D01*
X766255Y751381D02*
X759255Y751381D01*
X759255Y759381D01*
X766255Y759381D01*
X766255Y754231D02*
X759255Y754231D01*
X759255Y757081D02*
X766255Y757081D01*
X766255Y768381D02*
X766255Y776381D01*
X766255Y768381D02*
X759255Y768381D01*
X759255Y776381D01*
X766255Y776381D01*
X766255Y771231D02*
X759255Y771231D01*
X759255Y774081D02*
X766255Y774081D01*
X843690Y790525D02*
X843690Y798525D01*
X843690Y790525D02*
X836690Y790525D01*
X836690Y798525D01*
X843690Y798525D01*
X843690Y793375D02*
X836690Y793375D01*
X836690Y796225D02*
X843690Y796225D01*
X843690Y807525D02*
X843690Y815525D01*
X843690Y807525D02*
X836690Y807525D01*
X836690Y815525D01*
X843690Y815525D01*
X843690Y810375D02*
X836690Y810375D01*
X836690Y813225D02*
X843690Y813225D01*
X886950Y677994D02*
X886950Y669994D01*
X886950Y677994D02*
X893950Y677994D01*
X893950Y669994D01*
X886950Y669994D01*
X886950Y672844D02*
X893950Y672844D01*
X893950Y675694D02*
X886950Y675694D01*
X886950Y660994D02*
X886950Y652994D01*
X886950Y660994D02*
X893950Y660994D01*
X893950Y652994D01*
X886950Y652994D01*
X886950Y655844D02*
X893950Y655844D01*
X893950Y658694D02*
X886950Y658694D01*
D32*
X642410Y656869D02*
X642410Y654999D01*
X642410Y656869D02*
X650780Y656869D01*
X650780Y654999D01*
X642410Y654999D01*
X642410Y647369D02*
X642410Y645499D01*
X642410Y647369D02*
X650780Y647369D01*
X650780Y645499D01*
X642410Y645499D01*
X642410Y637869D02*
X642410Y635999D01*
X642410Y637869D02*
X650780Y637869D01*
X650780Y635999D01*
X642410Y635999D01*
X668412Y635999D02*
X668412Y637869D01*
X676782Y637869D01*
X676782Y635999D01*
X668412Y635999D01*
X668412Y654999D02*
X668412Y656869D01*
X676782Y656869D01*
X676782Y654999D01*
X668412Y654999D01*
D33*
X782199Y699184D02*
X782199Y700884D01*
X782199Y699184D02*
X779657Y699184D01*
X779657Y700884D01*
X782199Y700884D01*
D34*
X782529Y706854D02*
X782529Y708214D01*
X782529Y706854D02*
X779327Y706854D01*
X779327Y708214D01*
X782529Y708214D01*
D33*
X782199Y714184D02*
X782199Y715884D01*
X782199Y714184D02*
X779657Y714184D01*
X779657Y715884D01*
X782199Y715884D01*
X764199Y715884D02*
X764199Y714184D01*
X761657Y714184D01*
X761657Y715884D01*
X764199Y715884D01*
D34*
X764529Y708214D02*
X764529Y706854D01*
X761327Y706854D01*
X761327Y708214D01*
X764529Y708214D01*
D33*
X764199Y700884D02*
X764199Y699184D01*
X761657Y699184D01*
X761657Y700884D01*
X764199Y700884D01*
D35*
X839904Y712984D02*
X846026Y712984D01*
X846026Y712016D01*
X839904Y712016D01*
X839904Y712984D01*
X839904Y717984D02*
X846026Y717984D01*
X846026Y717016D01*
X839904Y717016D01*
X839904Y717984D01*
X839904Y722984D02*
X846026Y722984D01*
X846026Y722016D01*
X839904Y722016D01*
X839904Y722984D01*
X839904Y727984D02*
X846026Y727984D01*
X846026Y727016D01*
X839904Y727016D01*
X839904Y727984D01*
X839904Y732984D02*
X846026Y732984D01*
X846026Y732016D01*
X839904Y732016D01*
X839904Y732984D01*
X839904Y737984D02*
X846026Y737984D01*
X846026Y737016D01*
X839904Y737016D01*
X839904Y737984D01*
X839904Y742984D02*
X846026Y742984D01*
X846026Y742016D01*
X839904Y742016D01*
X839904Y742984D01*
X839904Y747984D02*
X846026Y747984D01*
X846026Y747016D01*
X839904Y747016D01*
X839904Y747984D01*
X834981Y751939D02*
X834981Y758061D01*
X835949Y758061D01*
X835949Y751939D01*
X834981Y751939D01*
X834981Y753723D02*
X835949Y753723D01*
X835949Y755507D02*
X834981Y755507D01*
X834981Y757291D02*
X835949Y757291D01*
X829981Y758061D02*
X829981Y751939D01*
X829981Y758061D02*
X830949Y758061D01*
X830949Y751939D01*
X829981Y751939D01*
X829981Y753723D02*
X830949Y753723D01*
X830949Y755507D02*
X829981Y755507D01*
X829981Y757291D02*
X830949Y757291D01*
X824981Y758061D02*
X824981Y751939D01*
X824981Y758061D02*
X825949Y758061D01*
X825949Y751939D01*
X824981Y751939D01*
X824981Y753723D02*
X825949Y753723D01*
X825949Y755507D02*
X824981Y755507D01*
X824981Y757291D02*
X825949Y757291D01*
X819981Y758061D02*
X819981Y751939D01*
X819981Y758061D02*
X820949Y758061D01*
X820949Y751939D01*
X819981Y751939D01*
X819981Y753723D02*
X820949Y753723D01*
X820949Y755507D02*
X819981Y755507D01*
X819981Y757291D02*
X820949Y757291D01*
X814981Y758061D02*
X814981Y751939D01*
X814981Y758061D02*
X815949Y758061D01*
X815949Y751939D01*
X814981Y751939D01*
X814981Y753723D02*
X815949Y753723D01*
X815949Y755507D02*
X814981Y755507D01*
X814981Y757291D02*
X815949Y757291D01*
X809981Y758061D02*
X809981Y751939D01*
X809981Y758061D02*
X810949Y758061D01*
X810949Y751939D01*
X809981Y751939D01*
X809981Y753723D02*
X810949Y753723D01*
X810949Y755507D02*
X809981Y755507D01*
X809981Y757291D02*
X810949Y757291D01*
X804981Y758061D02*
X804981Y751939D01*
X804981Y758061D02*
X805949Y758061D01*
X805949Y751939D01*
X804981Y751939D01*
X804981Y753723D02*
X805949Y753723D01*
X805949Y755507D02*
X804981Y755507D01*
X804981Y757291D02*
X805949Y757291D01*
X799981Y758061D02*
X799981Y751939D01*
X799981Y758061D02*
X800949Y758061D01*
X800949Y751939D01*
X799981Y751939D01*
X799981Y753723D02*
X800949Y753723D01*
X800949Y755507D02*
X799981Y755507D01*
X799981Y757291D02*
X800949Y757291D01*
X796026Y747016D02*
X789904Y747016D01*
X789904Y747984D01*
X796026Y747984D01*
X796026Y747016D01*
X796026Y742016D02*
X789904Y742016D01*
X789904Y742984D01*
X796026Y742984D01*
X796026Y742016D01*
X796026Y737016D02*
X789904Y737016D01*
X789904Y737984D01*
X796026Y737984D01*
X796026Y737016D01*
X796026Y732016D02*
X789904Y732016D01*
X789904Y732984D01*
X796026Y732984D01*
X796026Y732016D01*
X796026Y727016D02*
X789904Y727016D01*
X789904Y727984D01*
X796026Y727984D01*
X796026Y727016D01*
X796026Y722016D02*
X789904Y722016D01*
X789904Y722984D01*
X796026Y722984D01*
X796026Y722016D01*
X796026Y717016D02*
X789904Y717016D01*
X789904Y717984D01*
X796026Y717984D01*
X796026Y717016D01*
X796026Y712016D02*
X789904Y712016D01*
X789904Y712984D01*
X796026Y712984D01*
X796026Y712016D01*
X800949Y708061D02*
X800949Y701939D01*
X799981Y701939D01*
X799981Y708061D01*
X800949Y708061D01*
X800949Y703723D02*
X799981Y703723D01*
X799981Y705507D02*
X800949Y705507D01*
X800949Y707291D02*
X799981Y707291D01*
X805949Y708061D02*
X805949Y701939D01*
X804981Y701939D01*
X804981Y708061D01*
X805949Y708061D01*
X805949Y703723D02*
X804981Y703723D01*
X804981Y705507D02*
X805949Y705507D01*
X805949Y707291D02*
X804981Y707291D01*
X810949Y708061D02*
X810949Y701939D01*
X809981Y701939D01*
X809981Y708061D01*
X810949Y708061D01*
X810949Y703723D02*
X809981Y703723D01*
X809981Y705507D02*
X810949Y705507D01*
X810949Y707291D02*
X809981Y707291D01*
X815949Y708061D02*
X815949Y701939D01*
X814981Y701939D01*
X814981Y708061D01*
X815949Y708061D01*
X815949Y703723D02*
X814981Y703723D01*
X814981Y705507D02*
X815949Y705507D01*
X815949Y707291D02*
X814981Y707291D01*
X820949Y708061D02*
X820949Y701939D01*
X819981Y701939D01*
X819981Y708061D01*
X820949Y708061D01*
X820949Y703723D02*
X819981Y703723D01*
X819981Y705507D02*
X820949Y705507D01*
X820949Y707291D02*
X819981Y707291D01*
X825949Y708061D02*
X825949Y701939D01*
X824981Y701939D01*
X824981Y708061D01*
X825949Y708061D01*
X825949Y703723D02*
X824981Y703723D01*
X824981Y705507D02*
X825949Y705507D01*
X825949Y707291D02*
X824981Y707291D01*
X830949Y708061D02*
X830949Y701939D01*
X829981Y701939D01*
X829981Y708061D01*
X830949Y708061D01*
X830949Y703723D02*
X829981Y703723D01*
X829981Y705507D02*
X830949Y705507D01*
X830949Y707291D02*
X829981Y707291D01*
X835949Y708061D02*
X835949Y701939D01*
X834981Y701939D01*
X834981Y708061D01*
X835949Y708061D01*
X835949Y703723D02*
X834981Y703723D01*
X834981Y705507D02*
X835949Y705507D01*
X835949Y707291D02*
X834981Y707291D01*
D36*
X825965Y722000D03*
X809965Y722000D03*
X825965Y738000D03*
X809965Y738000D03*
D37*
X672236Y816555D02*
X672236Y818629D01*
X685232Y818629D01*
X685232Y816555D01*
X672236Y816555D01*
X672236Y805929D02*
X672236Y803855D01*
X672236Y805929D02*
X685232Y805929D01*
X685232Y803855D01*
X672236Y803855D01*
X672236Y793229D02*
X672236Y791155D01*
X672236Y793229D02*
X685232Y793229D01*
X685232Y791155D01*
X672236Y791155D01*
X672236Y780529D02*
X672236Y778455D01*
X672236Y780529D02*
X685232Y780529D01*
X685232Y778455D01*
X672236Y778455D01*
X737260Y778455D02*
X737260Y780529D01*
X750256Y780529D01*
X750256Y778455D01*
X737260Y778455D01*
X737260Y791155D02*
X737260Y793229D01*
X750256Y793229D01*
X750256Y791155D01*
X737260Y791155D01*
X737260Y803855D02*
X737260Y805929D01*
X750256Y805929D01*
X750256Y803855D01*
X737260Y803855D01*
X737260Y816555D02*
X737260Y818629D01*
X750256Y818629D01*
X750256Y816555D01*
X737260Y816555D01*
D38*
X740932Y717613D02*
X740932Y711013D01*
X739532Y711013D01*
X739532Y717613D01*
X740932Y717613D01*
X740932Y712343D02*
X739532Y712343D01*
X739532Y713673D02*
X740932Y713673D01*
X740932Y715003D02*
X739532Y715003D01*
X739532Y716333D02*
X740932Y716333D01*
X735932Y717613D02*
X735932Y711013D01*
X734532Y711013D01*
X734532Y717613D01*
X735932Y717613D01*
X735932Y712343D02*
X734532Y712343D01*
X734532Y713673D02*
X735932Y713673D01*
X735932Y715003D02*
X734532Y715003D01*
X734532Y716333D02*
X735932Y716333D01*
X730932Y717613D02*
X730932Y711013D01*
X729532Y711013D01*
X729532Y717613D01*
X730932Y717613D01*
X730932Y712343D02*
X729532Y712343D01*
X729532Y713673D02*
X730932Y713673D01*
X730932Y715003D02*
X729532Y715003D01*
X729532Y716333D02*
X730932Y716333D01*
X725932Y717613D02*
X725932Y711013D01*
X724532Y711013D01*
X724532Y717613D01*
X725932Y717613D01*
X725932Y712343D02*
X724532Y712343D01*
X724532Y713673D02*
X725932Y713673D01*
X725932Y715003D02*
X724532Y715003D01*
X724532Y716333D02*
X725932Y716333D01*
X720932Y717613D02*
X720932Y711013D01*
X719532Y711013D01*
X719532Y717613D01*
X720932Y717613D01*
X720932Y712343D02*
X719532Y712343D01*
X719532Y713673D02*
X720932Y713673D01*
X720932Y715003D02*
X719532Y715003D01*
X719532Y716333D02*
X720932Y716333D01*
X715932Y717613D02*
X715932Y711013D01*
X714532Y711013D01*
X714532Y717613D01*
X715932Y717613D01*
X715932Y712343D02*
X714532Y712343D01*
X714532Y713673D02*
X715932Y713673D01*
X715932Y715003D02*
X714532Y715003D01*
X714532Y716333D02*
X715932Y716333D01*
X711032Y706113D02*
X704432Y706113D01*
X704432Y707513D01*
X711032Y707513D01*
X711032Y706113D01*
X711032Y707443D02*
X704432Y707443D01*
X704432Y701113D02*
X711032Y701113D01*
X704432Y701113D02*
X704432Y702513D01*
X711032Y702513D01*
X711032Y701113D01*
X711032Y702443D02*
X704432Y702443D01*
X704432Y696113D02*
X711032Y696113D01*
X704432Y696113D02*
X704432Y697513D01*
X711032Y697513D01*
X711032Y696113D01*
X711032Y697443D02*
X704432Y697443D01*
X704432Y691113D02*
X711032Y691113D01*
X704432Y691113D02*
X704432Y692513D01*
X711032Y692513D01*
X711032Y691113D01*
X711032Y692443D02*
X704432Y692443D01*
X704432Y686113D02*
X711032Y686113D01*
X704432Y686113D02*
X704432Y687513D01*
X711032Y687513D01*
X711032Y686113D01*
X711032Y687443D02*
X704432Y687443D01*
X704432Y681113D02*
X711032Y681113D01*
X704432Y681113D02*
X704432Y682513D01*
X711032Y682513D01*
X711032Y681113D01*
X711032Y682443D02*
X704432Y682443D01*
X714532Y677613D02*
X714532Y671013D01*
X714532Y677613D02*
X715932Y677613D01*
X715932Y671013D01*
X714532Y671013D01*
X714532Y672343D02*
X715932Y672343D01*
X715932Y673673D02*
X714532Y673673D01*
X714532Y675003D02*
X715932Y675003D01*
X715932Y676333D02*
X714532Y676333D01*
X719532Y677613D02*
X719532Y671013D01*
X719532Y677613D02*
X720932Y677613D01*
X720932Y671013D01*
X719532Y671013D01*
X719532Y672343D02*
X720932Y672343D01*
X720932Y673673D02*
X719532Y673673D01*
X719532Y675003D02*
X720932Y675003D01*
X720932Y676333D02*
X719532Y676333D01*
X724532Y677613D02*
X724532Y671013D01*
X724532Y677613D02*
X725932Y677613D01*
X725932Y671013D01*
X724532Y671013D01*
X724532Y672343D02*
X725932Y672343D01*
X725932Y673673D02*
X724532Y673673D01*
X724532Y675003D02*
X725932Y675003D01*
X725932Y676333D02*
X724532Y676333D01*
X729532Y677613D02*
X729532Y671013D01*
X729532Y677613D02*
X730932Y677613D01*
X730932Y671013D01*
X729532Y671013D01*
X729532Y672343D02*
X730932Y672343D01*
X730932Y673673D02*
X729532Y673673D01*
X729532Y675003D02*
X730932Y675003D01*
X730932Y676333D02*
X729532Y676333D01*
X734532Y677613D02*
X734532Y671013D01*
X734532Y677613D02*
X735932Y677613D01*
X735932Y671013D01*
X734532Y671013D01*
X734532Y672343D02*
X735932Y672343D01*
X735932Y673673D02*
X734532Y673673D01*
X734532Y675003D02*
X735932Y675003D01*
X735932Y676333D02*
X734532Y676333D01*
X739532Y677613D02*
X739532Y671013D01*
X739532Y677613D02*
X740932Y677613D01*
X740932Y671013D01*
X739532Y671013D01*
X739532Y672343D02*
X740932Y672343D01*
X740932Y673673D02*
X739532Y673673D01*
X739532Y675003D02*
X740932Y675003D01*
X740932Y676333D02*
X739532Y676333D01*
X744432Y682513D02*
X751032Y682513D01*
X751032Y681113D01*
X744432Y681113D01*
X744432Y682513D01*
X744432Y682443D02*
X751032Y682443D01*
X751032Y687513D02*
X744432Y687513D01*
X751032Y687513D02*
X751032Y686113D01*
X744432Y686113D01*
X744432Y687513D01*
X744432Y687443D02*
X751032Y687443D01*
X751032Y692513D02*
X744432Y692513D01*
X751032Y692513D02*
X751032Y691113D01*
X744432Y691113D01*
X744432Y692513D01*
X744432Y692443D02*
X751032Y692443D01*
X751032Y697513D02*
X744432Y697513D01*
X751032Y697513D02*
X751032Y696113D01*
X744432Y696113D01*
X744432Y697513D01*
X744432Y697443D02*
X751032Y697443D01*
X751032Y702513D02*
X744432Y702513D01*
X751032Y702513D02*
X751032Y701113D01*
X744432Y701113D01*
X744432Y702513D01*
X744432Y702443D02*
X751032Y702443D01*
X751032Y707513D02*
X744432Y707513D01*
X751032Y707513D02*
X751032Y706113D01*
X744432Y706113D01*
X744432Y707513D01*
X744432Y707443D02*
X751032Y707443D01*
D39*
X718732Y703313D03*
X727732Y694313D03*
X727732Y703313D03*
X736732Y703313D03*
X736732Y685313D03*
X718732Y685313D03*
X727732Y685313D03*
X736732Y694313D03*
X718732Y694313D03*
D40*
X815034Y671734D02*
X822534Y671734D01*
X815034Y671734D02*
X815034Y677234D01*
X822534Y677234D01*
X822534Y671734D01*
X822534Y676959D02*
X815034Y676959D01*
X838034Y653734D02*
X845534Y653734D01*
X838034Y653734D02*
X838034Y659234D01*
X845534Y659234D01*
X845534Y653734D01*
X845534Y658959D02*
X838034Y658959D01*
X838034Y671734D02*
X845534Y671734D01*
X838034Y671734D02*
X838034Y677234D01*
X845534Y677234D01*
X845534Y671734D01*
X845534Y676959D02*
X838034Y676959D01*
X822534Y653734D02*
X815034Y653734D01*
X815034Y659234D01*
X822534Y659234D01*
X822534Y653734D01*
X822534Y658959D02*
X815034Y658959D01*
D41*
X929636Y758662D02*
X929636Y768462D01*
X945436Y768462D01*
X945436Y758662D01*
X929636Y758662D01*
X929636Y762652D02*
X945436Y762652D01*
X945436Y766642D02*
X929636Y766642D01*
X929636Y673462D02*
X929636Y663662D01*
X929636Y673462D02*
X945436Y673462D01*
X945436Y663662D01*
X929636Y663662D01*
X929636Y667652D02*
X945436Y667652D01*
X945436Y671642D02*
X929636Y671642D01*
D42*
X656865Y785750D02*
X648865Y785750D01*
X618865Y785750D02*
X606865Y785750D01*
D43*
X656515Y738250D02*
X656515Y736750D01*
X656515Y738250D02*
X666515Y738250D01*
X666515Y736750D01*
X656515Y736750D01*
X656515Y738175D02*
X666515Y738175D01*
X656515Y733250D02*
X656515Y731750D01*
X656515Y733250D02*
X666515Y733250D01*
X666515Y731750D01*
X656515Y731750D01*
X656515Y733175D02*
X666515Y733175D01*
X656515Y728250D02*
X656515Y726750D01*
X656515Y728250D02*
X666515Y728250D01*
X666515Y726750D01*
X656515Y726750D01*
X656515Y728175D02*
X666515Y728175D01*
X656515Y723250D02*
X656515Y721750D01*
X656515Y723250D02*
X666515Y723250D01*
X666515Y721750D01*
X656515Y721750D01*
X656515Y723175D02*
X666515Y723175D01*
X656515Y741750D02*
X656515Y743250D01*
X666515Y743250D01*
X666515Y741750D01*
X656515Y741750D01*
X656515Y743175D02*
X666515Y743175D01*
X656515Y746750D02*
X656515Y748250D01*
X666515Y748250D01*
X666515Y746750D01*
X656515Y746750D01*
X656515Y748175D02*
X666515Y748175D01*
X656515Y718250D02*
X656515Y716750D01*
X656515Y718250D02*
X666515Y718250D01*
X666515Y716750D01*
X656515Y716750D01*
X656515Y718175D02*
X666515Y718175D01*
X656515Y713250D02*
X656515Y711750D01*
X656515Y713250D02*
X666515Y713250D01*
X666515Y711750D01*
X656515Y711750D01*
X656515Y713175D02*
X666515Y713175D01*
D31*
X657265Y752500D02*
X657265Y755500D01*
X665765Y755500D01*
X665765Y752500D01*
X657265Y752500D01*
X657265Y755350D02*
X665765Y755350D01*
X657265Y760500D02*
X657265Y763500D01*
X665765Y763500D01*
X665765Y760500D01*
X657265Y760500D01*
X657265Y763350D02*
X665765Y763350D01*
X657265Y707500D02*
X657265Y704500D01*
X657265Y707500D02*
X665765Y707500D01*
X665765Y704500D01*
X657265Y704500D01*
X657265Y707350D02*
X665765Y707350D01*
X657265Y699500D02*
X657265Y696500D01*
X657265Y699500D02*
X665765Y699500D01*
X665765Y696500D01*
X657265Y696500D01*
X657265Y699350D02*
X665765Y699350D01*
D42*
X656865Y674250D02*
X648865Y674250D01*
X618865Y674250D02*
X606865Y674250D01*
D31*
X673368Y696273D02*
X673368Y704273D01*
X680368Y704273D01*
X680368Y696273D01*
X673368Y696273D01*
X673368Y699123D02*
X680368Y699123D01*
X680368Y701973D02*
X673368Y701973D01*
X673368Y687273D02*
X673368Y679273D01*
X673368Y687273D02*
X680368Y687273D01*
X680368Y679273D01*
X673368Y679273D01*
X673368Y682123D02*
X680368Y682123D01*
X680368Y684973D02*
X673368Y684973D01*
D33*
X662406Y834042D02*
X645706Y834042D01*
X645706Y841742D01*
X662406Y841742D01*
X662406Y834042D01*
X662406Y837177D02*
X645706Y837177D01*
X645706Y840312D02*
X662406Y840312D01*
X662406Y795042D02*
X645706Y795042D01*
X645706Y802742D01*
X662406Y802742D01*
X662406Y795042D01*
X662406Y798177D02*
X645706Y798177D01*
X645706Y801312D02*
X662406Y801312D01*
D31*
X773190Y644122D02*
X780190Y644122D01*
X780190Y637122D01*
X773190Y637122D01*
X773190Y644122D01*
X773190Y639972D02*
X780190Y639972D01*
X780190Y642822D02*
X773190Y642822D01*
X773190Y661662D02*
X780190Y661662D01*
X780190Y654662D01*
X773190Y654662D01*
X773190Y661662D01*
X773190Y657512D02*
X780190Y657512D01*
X780190Y660362D02*
X773190Y660362D01*
D33*
X696838Y715729D02*
X694138Y715729D01*
X696838Y715729D02*
X696838Y713029D01*
X694138Y713029D01*
X694138Y715729D01*
X674838Y715729D02*
X672138Y715729D01*
X674838Y715729D02*
X674838Y713029D01*
X672138Y713029D01*
X672138Y715729D01*
D31*
X739804Y644855D02*
X739804Y636855D01*
X732804Y636855D01*
X732804Y644855D01*
X739804Y644855D01*
X739804Y639705D02*
X732804Y639705D01*
X732804Y642555D02*
X739804Y642555D01*
X739804Y653855D02*
X739804Y661855D01*
X739804Y653855D02*
X732804Y653855D01*
X732804Y661855D01*
X739804Y661855D01*
X739804Y656705D02*
X732804Y656705D01*
X732804Y659555D02*
X739804Y659555D01*
X726977Y651577D02*
X719977Y651577D01*
X719977Y658577D01*
X726977Y658577D01*
X726977Y651577D01*
X726977Y654427D02*
X719977Y654427D01*
X719977Y657277D02*
X726977Y657277D01*
X726977Y634037D02*
X719977Y634037D01*
X719977Y641037D01*
X726977Y641037D01*
X726977Y634037D01*
X726977Y636887D02*
X719977Y636887D01*
X719977Y639737D02*
X726977Y639737D01*
X683020Y650807D02*
X683020Y658807D01*
X690020Y658807D01*
X690020Y650807D01*
X683020Y650807D01*
X683020Y653657D02*
X690020Y653657D01*
X690020Y656507D02*
X683020Y656507D01*
X683020Y641807D02*
X683020Y633807D01*
X683020Y641807D02*
X690020Y641807D01*
X690020Y633807D01*
X683020Y633807D01*
X683020Y636657D02*
X690020Y636657D01*
X690020Y639507D02*
X683020Y639507D01*
X695974Y651704D02*
X702974Y651704D01*
X695974Y651704D02*
X695974Y658704D01*
X702974Y658704D01*
X702974Y651704D01*
X702974Y654554D02*
X695974Y654554D01*
X695974Y657404D02*
X702974Y657404D01*
X702974Y634164D02*
X695974Y634164D01*
X695974Y641164D01*
X702974Y641164D01*
X702974Y634164D01*
X702974Y637014D02*
X695974Y637014D01*
X695974Y639864D02*
X702974Y639864D01*
X731805Y729421D02*
X739805Y729421D01*
X731805Y729421D02*
X731805Y736421D01*
X739805Y736421D01*
X739805Y729421D01*
X739805Y732271D02*
X731805Y732271D01*
X731805Y735121D02*
X739805Y735121D01*
X748805Y729421D02*
X756805Y729421D01*
X748805Y729421D02*
X748805Y736421D01*
X756805Y736421D01*
X756805Y729421D01*
X756805Y732271D02*
X748805Y732271D01*
X748805Y735121D02*
X756805Y735121D01*
D32*
X718692Y730833D02*
X718692Y728963D01*
X710322Y728963D01*
X710322Y730833D01*
X718692Y730833D01*
X718692Y738463D02*
X718692Y740333D01*
X718692Y738463D02*
X710322Y738463D01*
X710322Y740333D01*
X718692Y740333D01*
X718692Y747963D02*
X718692Y749833D01*
X718692Y747963D02*
X710322Y747963D01*
X710322Y749833D01*
X718692Y749833D01*
X692690Y749833D02*
X692690Y747963D01*
X684320Y747963D01*
X684320Y749833D01*
X692690Y749833D01*
X692690Y730833D02*
X692690Y728963D01*
X684320Y728963D01*
X684320Y730833D01*
X692690Y730833D01*
X684320Y738463D02*
X684320Y740333D01*
X692690Y740333D01*
X692690Y738463D01*
X684320Y738463D01*
D44*
X34500Y754750D02*
X26500Y754750D01*
X26500Y748250D02*
X34500Y748250D01*
X34500Y741750D02*
X26500Y741750D01*
X26500Y735250D02*
X34500Y735250D01*
X40250Y729500D02*
X40250Y721500D01*
X46750Y721500D02*
X46750Y729500D01*
X53250Y729500D02*
X53250Y721500D01*
X59750Y721500D02*
X59750Y729500D01*
X65500Y754750D02*
X73500Y754750D01*
X73500Y748250D02*
X65500Y748250D01*
X65500Y741750D02*
X73500Y741750D01*
X73500Y735250D02*
X65500Y735250D01*
X40250Y760500D02*
X40250Y768500D01*
X46750Y768500D02*
X46750Y760500D01*
X53250Y760500D02*
X53250Y768500D01*
X59750Y768500D02*
X59750Y760500D01*
D31*
X34500Y754750D02*
X26500Y754750D01*
X26500Y748250D02*
X34500Y748250D01*
X34500Y741750D02*
X26500Y741750D01*
X26500Y735250D02*
X34500Y735250D01*
X40250Y729500D02*
X40250Y721500D01*
X46750Y721500D02*
X46750Y729500D01*
X53250Y729500D02*
X53250Y721500D01*
X59750Y721500D02*
X59750Y729500D01*
X65500Y735250D02*
X73500Y735250D01*
X73500Y741750D02*
X65500Y741750D01*
X65500Y748250D02*
X73500Y748250D01*
X73500Y754750D02*
X65500Y754750D01*
X59750Y760500D02*
X59750Y768500D01*
X53250Y768500D02*
X53250Y760500D01*
X46750Y760500D02*
X46750Y768500D01*
X40250Y768500D02*
X40250Y760500D01*
D45*
X45000Y750000D03*
X55000Y750000D03*
X45000Y740000D03*
X55000Y740000D03*
D18*
X342000Y811250D02*
X348000Y811250D01*
X348000Y809250D01*
X342000Y809250D01*
X342000Y811250D01*
X342000Y811150D02*
X348000Y811150D01*
X348000Y817750D02*
X342000Y817750D01*
X348000Y817750D02*
X348000Y815750D01*
X342000Y815750D01*
X342000Y817750D01*
X342000Y817650D02*
X348000Y817650D01*
X348000Y824250D02*
X342000Y824250D01*
X348000Y824250D02*
X348000Y822250D01*
X342000Y822250D01*
X342000Y824250D01*
X342000Y824150D02*
X348000Y824150D01*
X348000Y830750D02*
X342000Y830750D01*
X348000Y830750D02*
X348000Y828750D01*
X342000Y828750D01*
X342000Y830750D01*
X342000Y830650D02*
X348000Y830650D01*
X318000Y830750D02*
X312000Y830750D01*
X318000Y830750D02*
X318000Y828750D01*
X312000Y828750D01*
X312000Y830750D01*
X312000Y830650D02*
X318000Y830650D01*
X318000Y824250D02*
X312000Y824250D01*
X318000Y824250D02*
X318000Y822250D01*
X312000Y822250D01*
X312000Y824250D01*
X312000Y824150D02*
X318000Y824150D01*
X318000Y817750D02*
X312000Y817750D01*
X318000Y817750D02*
X318000Y815750D01*
X312000Y815750D01*
X312000Y817750D01*
X312000Y817650D02*
X318000Y817650D01*
X318000Y811250D02*
X312000Y811250D01*
X318000Y811250D02*
X318000Y809250D01*
X312000Y809250D01*
X312000Y811250D01*
X312000Y811150D02*
X318000Y811150D01*
D46*
X332540Y811110D03*
X323650Y811110D03*
X332540Y820000D03*
X323650Y820000D03*
X332540Y828890D03*
X323650Y828890D03*
D47*
X329996Y804923D03*
D48*
X329991Y834878D03*
D49*
X328730Y821270D02*
X331270Y821270D01*
X331270Y818730D01*
X328730Y818730D01*
X328730Y821270D01*
X328730Y821143D02*
X331270Y821143D01*
D50*
X219546Y101754D02*
X219546Y95086D01*
X219546Y101754D02*
X226214Y101754D01*
X226214Y95086D01*
X219546Y95086D01*
X219546Y97198D02*
X226214Y97198D01*
X226214Y99310D02*
X219546Y99310D01*
X219546Y101422D02*
X226214Y101422D01*
X219546Y86514D02*
X219546Y79846D01*
X219546Y86514D02*
X226214Y86514D01*
X226214Y79846D01*
X219546Y79846D01*
X219546Y81958D02*
X226214Y81958D01*
X226214Y84070D02*
X219546Y84070D01*
X219546Y86182D02*
X226214Y86182D01*
X827876Y138266D02*
X827876Y144934D01*
X834544Y144934D01*
X834544Y138266D01*
X827876Y138266D01*
X827876Y140378D02*
X834544Y140378D01*
X834544Y142490D02*
X827876Y142490D01*
X827876Y144602D02*
X834544Y144602D01*
X827876Y129694D02*
X827876Y123026D01*
X827876Y129694D02*
X834544Y129694D01*
X834544Y123026D01*
X827876Y123026D01*
X827876Y125138D02*
X834544Y125138D01*
X834544Y127250D02*
X827876Y127250D01*
X827876Y129362D02*
X834544Y129362D01*
D40*
X860320Y131450D02*
X860320Y123950D01*
X860320Y131450D02*
X865820Y131450D01*
X865820Y123950D01*
X860320Y123950D01*
X860320Y129175D02*
X865820Y129175D01*
X842320Y108450D02*
X842320Y100950D01*
X842320Y108450D02*
X847820Y108450D01*
X847820Y100950D01*
X842320Y100950D01*
X842320Y106175D02*
X847820Y106175D01*
X860320Y108450D02*
X860320Y100950D01*
X860320Y108450D02*
X865820Y108450D01*
X865820Y100950D01*
X860320Y100950D01*
X860320Y106175D02*
X865820Y106175D01*
X842320Y123950D02*
X842320Y131450D01*
X847820Y131450D01*
X847820Y123950D01*
X842320Y123950D01*
X842320Y129175D02*
X847820Y129175D01*
D50*
X834544Y94134D02*
X834544Y87466D01*
X827876Y87466D01*
X827876Y94134D01*
X834544Y94134D01*
X834544Y89578D02*
X827876Y89578D01*
X827876Y91690D02*
X834544Y91690D01*
X834544Y93802D02*
X827876Y93802D01*
X834544Y102706D02*
X834544Y109374D01*
X834544Y102706D02*
X827876Y102706D01*
X827876Y109374D01*
X834544Y109374D01*
X834544Y104818D02*
X827876Y104818D01*
X827876Y106930D02*
X834544Y106930D01*
X834544Y109042D02*
X827876Y109042D01*
X203354Y121756D02*
X196686Y121756D01*
X196686Y128424D01*
X203354Y128424D01*
X203354Y121756D01*
X203354Y123868D02*
X196686Y123868D01*
X196686Y125980D02*
X203354Y125980D01*
X203354Y128092D02*
X196686Y128092D01*
X211926Y121756D02*
X218594Y121756D01*
X211926Y121756D02*
X211926Y128424D01*
X218594Y128424D01*
X218594Y121756D01*
X218594Y123868D02*
X211926Y123868D01*
X211926Y125980D02*
X218594Y125980D01*
X218594Y128092D02*
X211926Y128092D01*
X203354Y134456D02*
X196686Y134456D01*
X196686Y141124D01*
X203354Y141124D01*
X203354Y134456D01*
X203354Y136568D02*
X196686Y136568D01*
X196686Y138680D02*
X203354Y138680D01*
X203354Y140792D02*
X196686Y140792D01*
X211926Y134456D02*
X218594Y134456D01*
X211926Y134456D02*
X211926Y141124D01*
X218594Y141124D01*
X218594Y134456D01*
X218594Y136568D02*
X211926Y136568D01*
X211926Y138680D02*
X218594Y138680D01*
X218594Y140792D02*
X211926Y140792D01*
X843116Y160174D02*
X849784Y160174D01*
X849784Y153506D01*
X843116Y153506D01*
X843116Y160174D01*
X843116Y155618D02*
X849784Y155618D01*
X849784Y157730D02*
X843116Y157730D01*
X843116Y159842D02*
X849784Y159842D01*
X834544Y160174D02*
X827876Y160174D01*
X834544Y160174D02*
X834544Y153506D01*
X827876Y153506D01*
X827876Y160174D01*
X827876Y155618D02*
X834544Y155618D01*
X834544Y157730D02*
X827876Y157730D01*
X827876Y159842D02*
X834544Y159842D01*
X698654Y80862D02*
X691986Y80862D01*
X691986Y87530D01*
X698654Y87530D01*
X698654Y80862D01*
X698654Y82974D02*
X691986Y82974D01*
X691986Y85086D02*
X698654Y85086D01*
X698654Y87198D02*
X691986Y87198D01*
X707226Y80862D02*
X713894Y80862D01*
X707226Y80862D02*
X707226Y87530D01*
X713894Y87530D01*
X713894Y80862D01*
X713894Y82974D02*
X707226Y82974D01*
X707226Y85086D02*
X713894Y85086D01*
X713894Y87198D02*
X707226Y87198D01*
X827876Y72226D02*
X834544Y72226D01*
X827876Y72226D02*
X827876Y78894D01*
X834544Y78894D01*
X834544Y72226D01*
X834544Y74338D02*
X827876Y74338D01*
X827876Y76450D02*
X834544Y76450D01*
X834544Y78562D02*
X827876Y78562D01*
X843116Y72226D02*
X849784Y72226D01*
X843116Y72226D02*
X843116Y78894D01*
X849784Y78894D01*
X849784Y72226D01*
X849784Y74338D02*
X843116Y74338D01*
X843116Y76450D02*
X849784Y76450D01*
X849784Y78562D02*
X843116Y78562D01*
D51*
X749475Y78325D02*
X749475Y84075D01*
X749475Y78325D02*
X748725Y78325D01*
X748725Y84075D01*
X749475Y84075D01*
X749475Y80462D02*
X748725Y80462D01*
X748725Y82599D02*
X749475Y82599D01*
X754475Y84075D02*
X754475Y78325D01*
X753725Y78325D01*
X753725Y84075D01*
X754475Y84075D01*
X754475Y80462D02*
X753725Y80462D01*
X753725Y82599D02*
X754475Y82599D01*
X759475Y84075D02*
X759475Y78325D01*
X758725Y78325D01*
X758725Y84075D01*
X759475Y84075D01*
X759475Y80462D02*
X758725Y80462D01*
X758725Y82599D02*
X759475Y82599D01*
X764475Y84075D02*
X764475Y78325D01*
X763725Y78325D01*
X763725Y84075D01*
X764475Y84075D01*
X764475Y80462D02*
X763725Y80462D01*
X763725Y82599D02*
X764475Y82599D01*
X769475Y84075D02*
X769475Y78325D01*
X768725Y78325D01*
X768725Y84075D01*
X769475Y84075D01*
X769475Y80462D02*
X768725Y80462D01*
X768725Y82599D02*
X769475Y82599D01*
X774475Y84075D02*
X774475Y78325D01*
X773725Y78325D01*
X773725Y84075D01*
X774475Y84075D01*
X774475Y80462D02*
X773725Y80462D01*
X773725Y82599D02*
X774475Y82599D01*
X779475Y84075D02*
X779475Y78325D01*
X778725Y78325D01*
X778725Y84075D01*
X779475Y84075D01*
X779475Y80462D02*
X778725Y80462D01*
X778725Y82599D02*
X779475Y82599D01*
X784475Y84075D02*
X784475Y78325D01*
X783725Y78325D01*
X783725Y84075D01*
X784475Y84075D01*
X784475Y80462D02*
X783725Y80462D01*
X783725Y82599D02*
X784475Y82599D01*
X789475Y84075D02*
X789475Y78325D01*
X788725Y78325D01*
X788725Y84075D01*
X789475Y84075D01*
X789475Y80462D02*
X788725Y80462D01*
X788725Y82599D02*
X789475Y82599D01*
X794475Y84075D02*
X794475Y78325D01*
X793725Y78325D01*
X793725Y84075D01*
X794475Y84075D01*
X794475Y80462D02*
X793725Y80462D01*
X793725Y82599D02*
X794475Y82599D01*
X799475Y84075D02*
X799475Y78325D01*
X798725Y78325D01*
X798725Y84075D01*
X799475Y84075D01*
X799475Y80462D02*
X798725Y80462D01*
X798725Y82599D02*
X799475Y82599D01*
X804475Y84075D02*
X804475Y78325D01*
X803725Y78325D01*
X803725Y84075D01*
X804475Y84075D01*
X804475Y80462D02*
X803725Y80462D01*
X803725Y82599D02*
X804475Y82599D01*
X808725Y89075D02*
X814475Y89075D01*
X814475Y88325D01*
X808725Y88325D01*
X808725Y89075D01*
X808725Y94075D02*
X814475Y94075D01*
X814475Y93325D01*
X808725Y93325D01*
X808725Y94075D01*
X808725Y99075D02*
X814475Y99075D01*
X814475Y98325D01*
X808725Y98325D01*
X808725Y99075D01*
X808725Y104075D02*
X814475Y104075D01*
X814475Y103325D01*
X808725Y103325D01*
X808725Y104075D01*
X808725Y109075D02*
X814475Y109075D01*
X814475Y108325D01*
X808725Y108325D01*
X808725Y109075D01*
X808725Y114075D02*
X814475Y114075D01*
X814475Y113325D01*
X808725Y113325D01*
X808725Y114075D01*
X808725Y119075D02*
X814475Y119075D01*
X814475Y118325D01*
X808725Y118325D01*
X808725Y119075D01*
X808725Y124075D02*
X814475Y124075D01*
X814475Y123325D01*
X808725Y123325D01*
X808725Y124075D01*
X808725Y129075D02*
X814475Y129075D01*
X814475Y128325D01*
X808725Y128325D01*
X808725Y129075D01*
X808725Y134075D02*
X814475Y134075D01*
X814475Y133325D01*
X808725Y133325D01*
X808725Y134075D01*
X808725Y139075D02*
X814475Y139075D01*
X814475Y138325D01*
X808725Y138325D01*
X808725Y139075D01*
X808725Y144075D02*
X814475Y144075D01*
X814475Y143325D01*
X808725Y143325D01*
X808725Y144075D01*
X803725Y148325D02*
X803725Y154075D01*
X804475Y154075D01*
X804475Y148325D01*
X803725Y148325D01*
X803725Y150462D02*
X804475Y150462D01*
X804475Y152599D02*
X803725Y152599D01*
X798725Y154075D02*
X798725Y148325D01*
X798725Y154075D02*
X799475Y154075D01*
X799475Y148325D01*
X798725Y148325D01*
X798725Y150462D02*
X799475Y150462D01*
X799475Y152599D02*
X798725Y152599D01*
X793725Y154075D02*
X793725Y148325D01*
X793725Y154075D02*
X794475Y154075D01*
X794475Y148325D01*
X793725Y148325D01*
X793725Y150462D02*
X794475Y150462D01*
X794475Y152599D02*
X793725Y152599D01*
X788725Y154075D02*
X788725Y148325D01*
X788725Y154075D02*
X789475Y154075D01*
X789475Y148325D01*
X788725Y148325D01*
X788725Y150462D02*
X789475Y150462D01*
X789475Y152599D02*
X788725Y152599D01*
X783725Y154075D02*
X783725Y148325D01*
X783725Y154075D02*
X784475Y154075D01*
X784475Y148325D01*
X783725Y148325D01*
X783725Y150462D02*
X784475Y150462D01*
X784475Y152599D02*
X783725Y152599D01*
X778725Y154075D02*
X778725Y148325D01*
X778725Y154075D02*
X779475Y154075D01*
X779475Y148325D01*
X778725Y148325D01*
X778725Y150462D02*
X779475Y150462D01*
X779475Y152599D02*
X778725Y152599D01*
X773725Y154075D02*
X773725Y148325D01*
X773725Y154075D02*
X774475Y154075D01*
X774475Y148325D01*
X773725Y148325D01*
X773725Y150462D02*
X774475Y150462D01*
X774475Y152599D02*
X773725Y152599D01*
X768725Y154075D02*
X768725Y148325D01*
X768725Y154075D02*
X769475Y154075D01*
X769475Y148325D01*
X768725Y148325D01*
X768725Y150462D02*
X769475Y150462D01*
X769475Y152599D02*
X768725Y152599D01*
X763725Y154075D02*
X763725Y148325D01*
X763725Y154075D02*
X764475Y154075D01*
X764475Y148325D01*
X763725Y148325D01*
X763725Y150462D02*
X764475Y150462D01*
X764475Y152599D02*
X763725Y152599D01*
X758725Y154075D02*
X758725Y148325D01*
X758725Y154075D02*
X759475Y154075D01*
X759475Y148325D01*
X758725Y148325D01*
X758725Y150462D02*
X759475Y150462D01*
X759475Y152599D02*
X758725Y152599D01*
X753725Y154075D02*
X753725Y148325D01*
X753725Y154075D02*
X754475Y154075D01*
X754475Y148325D01*
X753725Y148325D01*
X753725Y150462D02*
X754475Y150462D01*
X754475Y152599D02*
X753725Y152599D01*
X748725Y154075D02*
X748725Y148325D01*
X748725Y154075D02*
X749475Y154075D01*
X749475Y148325D01*
X748725Y148325D01*
X748725Y150462D02*
X749475Y150462D01*
X749475Y152599D02*
X748725Y152599D01*
X744475Y143325D02*
X738725Y143325D01*
X738725Y144075D01*
X744475Y144075D01*
X744475Y143325D01*
X744475Y138325D02*
X738725Y138325D01*
X738725Y139075D01*
X744475Y139075D01*
X744475Y138325D01*
X744475Y133325D02*
X738725Y133325D01*
X738725Y134075D01*
X744475Y134075D01*
X744475Y133325D01*
X744475Y128325D02*
X738725Y128325D01*
X738725Y129075D01*
X744475Y129075D01*
X744475Y128325D01*
X744475Y123325D02*
X738725Y123325D01*
X738725Y124075D01*
X744475Y124075D01*
X744475Y123325D01*
X744475Y118325D02*
X738725Y118325D01*
X738725Y119075D01*
X744475Y119075D01*
X744475Y118325D01*
X744475Y113325D02*
X738725Y113325D01*
X738725Y114075D01*
X744475Y114075D01*
X744475Y113325D01*
X744475Y108325D02*
X738725Y108325D01*
X738725Y109075D01*
X744475Y109075D01*
X744475Y108325D01*
X744475Y103325D02*
X738725Y103325D01*
X738725Y104075D01*
X744475Y104075D01*
X744475Y103325D01*
X744475Y98325D02*
X738725Y98325D01*
X738725Y99075D01*
X744475Y99075D01*
X744475Y98325D01*
X744475Y93325D02*
X738725Y93325D01*
X738725Y94075D01*
X744475Y94075D01*
X744475Y93325D01*
X744475Y88325D02*
X738725Y88325D01*
X738725Y89075D01*
X744475Y89075D01*
X744475Y88325D01*
D52*
X796850Y95950D03*
X783350Y95950D03*
X796850Y109450D03*
X783350Y109450D03*
X769850Y95950D03*
X756350Y95950D03*
X769850Y109450D03*
X756350Y109450D03*
X796850Y122950D03*
X783350Y122950D03*
X796850Y136450D03*
X783350Y136450D03*
X769850Y122950D03*
X756350Y122950D03*
X769850Y136450D03*
X756350Y136450D03*
D51*
X437965Y105825D02*
X437965Y102275D01*
X437215Y102275D01*
X437215Y105825D01*
X437965Y105825D01*
X437965Y104412D02*
X437215Y104412D01*
X442965Y105825D02*
X442965Y102275D01*
X442215Y102275D01*
X442215Y105825D01*
X442965Y105825D01*
X442965Y104412D02*
X442215Y104412D01*
X447965Y105825D02*
X447965Y102275D01*
X447215Y102275D01*
X447215Y105825D01*
X447965Y105825D01*
X447965Y104412D02*
X447215Y104412D01*
X452965Y109075D02*
X456515Y109075D01*
X456515Y108325D01*
X452965Y108325D01*
X452965Y109075D01*
X452965Y114075D02*
X456515Y114075D01*
X456515Y113325D01*
X452965Y113325D01*
X452965Y114075D01*
X452965Y119075D02*
X456515Y119075D01*
X456515Y118325D01*
X452965Y118325D01*
X452965Y119075D01*
X452965Y124075D02*
X456515Y124075D01*
X456515Y123325D01*
X452965Y123325D01*
X452965Y124075D01*
X447215Y126575D02*
X447215Y130125D01*
X447965Y130125D01*
X447965Y126575D01*
X447215Y126575D01*
X447215Y128712D02*
X447965Y128712D01*
X442215Y130125D02*
X442215Y126575D01*
X442215Y130125D02*
X442965Y130125D01*
X442965Y126575D01*
X442215Y126575D01*
X442215Y128712D02*
X442965Y128712D01*
X437215Y130125D02*
X437215Y126575D01*
X437215Y130125D02*
X437965Y130125D01*
X437965Y126575D01*
X437215Y126575D01*
X437215Y128712D02*
X437965Y128712D01*
X432215Y123325D02*
X428665Y123325D01*
X428665Y124075D01*
X432215Y124075D01*
X432215Y123325D01*
X432215Y118325D02*
X428665Y118325D01*
X428665Y119075D01*
X432215Y119075D01*
X432215Y118325D01*
X432215Y113325D02*
X428665Y113325D01*
X428665Y114075D01*
X432215Y114075D01*
X432215Y113325D01*
X432215Y108325D02*
X428665Y108325D01*
X428665Y109075D01*
X432215Y109075D01*
X432215Y108325D01*
D53*
X439090Y119700D03*
X439090Y112700D03*
X446090Y112700D03*
X446090Y119700D03*
D54*
X113804Y109176D02*
X113804Y108224D01*
X113804Y109176D02*
X121956Y109176D01*
X121956Y108224D01*
X113804Y108224D01*
X113804Y113224D02*
X113804Y114176D01*
X121956Y114176D01*
X121956Y113224D01*
X113804Y113224D01*
D55*
X114728Y84902D02*
X114728Y82998D01*
X114728Y84902D02*
X121032Y84902D01*
X121032Y82998D01*
X114728Y82998D01*
X114728Y90748D02*
X114728Y92652D01*
X121032Y92652D01*
X121032Y90748D01*
X114728Y90748D01*
D54*
X113804Y98224D02*
X113804Y99176D01*
X121956Y99176D01*
X121956Y98224D01*
X113804Y98224D01*
X113804Y103224D02*
X113804Y104176D01*
X121956Y104176D01*
X121956Y103224D01*
X113804Y103224D01*
X121956Y123224D02*
X121956Y124176D01*
X121956Y123224D02*
X113804Y123224D01*
X113804Y124176D01*
X121956Y124176D01*
X121956Y119176D02*
X121956Y118224D01*
X113804Y118224D01*
X113804Y119176D01*
X121956Y119176D01*
D55*
X121032Y147498D02*
X121032Y149402D01*
X121032Y147498D02*
X114728Y147498D01*
X114728Y149402D01*
X121032Y149402D01*
X121032Y141652D02*
X121032Y139748D01*
X114728Y139748D01*
X114728Y141652D01*
X121032Y141652D01*
D54*
X121956Y134176D02*
X121956Y133224D01*
X113804Y133224D01*
X113804Y134176D01*
X121956Y134176D01*
X121956Y129176D02*
X121956Y128224D01*
X113804Y128224D01*
X113804Y129176D01*
X121956Y129176D01*
D50*
X484976Y141124D02*
X491644Y141124D01*
X491644Y134456D01*
X484976Y134456D01*
X484976Y141124D01*
X484976Y136568D02*
X491644Y136568D01*
X491644Y138680D02*
X484976Y138680D01*
X484976Y140792D02*
X491644Y140792D01*
X476404Y141124D02*
X469736Y141124D01*
X476404Y141124D02*
X476404Y134456D01*
X469736Y134456D01*
X469736Y141124D01*
X469736Y136568D02*
X476404Y136568D01*
X476404Y138680D02*
X469736Y138680D01*
X469736Y140792D02*
X476404Y140792D01*
X484976Y128424D02*
X491644Y128424D01*
X491644Y121756D01*
X484976Y121756D01*
X484976Y128424D01*
X484976Y123868D02*
X491644Y123868D01*
X491644Y125980D02*
X484976Y125980D01*
X484976Y128092D02*
X491644Y128092D01*
X476404Y128424D02*
X469736Y128424D01*
X476404Y128424D02*
X476404Y121756D01*
X469736Y121756D01*
X469736Y128424D01*
X469736Y123868D02*
X476404Y123868D01*
X476404Y125980D02*
X469736Y125980D01*
X469736Y128092D02*
X476404Y128092D01*
X484976Y115724D02*
X491644Y115724D01*
X491644Y109056D01*
X484976Y109056D01*
X484976Y115724D01*
X484976Y111168D02*
X491644Y111168D01*
X491644Y113280D02*
X484976Y113280D01*
X484976Y115392D02*
X491644Y115392D01*
X476404Y115724D02*
X469736Y115724D01*
X476404Y115724D02*
X476404Y109056D01*
X469736Y109056D01*
X469736Y115724D01*
X469736Y111168D02*
X476404Y111168D01*
X476404Y113280D02*
X469736Y113280D01*
X469736Y115392D02*
X476404Y115392D01*
X468466Y97944D02*
X468466Y91276D01*
X468466Y97944D02*
X475134Y97944D01*
X475134Y91276D01*
X468466Y91276D01*
X468466Y93388D02*
X475134Y93388D01*
X475134Y95500D02*
X468466Y95500D01*
X468466Y97612D02*
X475134Y97612D01*
X468466Y82704D02*
X468466Y76036D01*
X468466Y82704D02*
X475134Y82704D01*
X475134Y76036D01*
X468466Y76036D01*
X468466Y78148D02*
X475134Y78148D01*
X475134Y80260D02*
X468466Y80260D01*
X468466Y82372D02*
X475134Y82372D01*
X486246Y91276D02*
X486246Y97944D01*
X492914Y97944D01*
X492914Y91276D01*
X486246Y91276D01*
X486246Y93388D02*
X492914Y93388D01*
X492914Y95500D02*
X486246Y95500D01*
X486246Y97612D02*
X492914Y97612D01*
X486246Y82704D02*
X486246Y76036D01*
X486246Y82704D02*
X492914Y82704D01*
X492914Y76036D01*
X486246Y76036D01*
X486246Y78148D02*
X492914Y78148D01*
X492914Y80260D02*
X486246Y80260D01*
X486246Y82372D02*
X492914Y82372D01*
X408776Y105246D02*
X408776Y111914D01*
X415444Y111914D01*
X415444Y105246D01*
X408776Y105246D01*
X408776Y107358D02*
X415444Y107358D01*
X415444Y109470D02*
X408776Y109470D01*
X408776Y111582D02*
X415444Y111582D01*
X408776Y96674D02*
X408776Y90006D01*
X408776Y96674D02*
X415444Y96674D01*
X415444Y90006D01*
X408776Y90006D01*
X408776Y92118D02*
X415444Y92118D01*
X415444Y94230D02*
X408776Y94230D01*
X408776Y96342D02*
X415444Y96342D01*
X415444Y117946D02*
X415444Y124614D01*
X415444Y117946D02*
X408776Y117946D01*
X408776Y124614D01*
X415444Y124614D01*
X415444Y120058D02*
X408776Y120058D01*
X408776Y122170D02*
X415444Y122170D01*
X415444Y124282D02*
X408776Y124282D01*
X415444Y133186D02*
X415444Y139854D01*
X415444Y133186D02*
X408776Y133186D01*
X408776Y139854D01*
X415444Y139854D01*
X415444Y135298D02*
X408776Y135298D01*
X408776Y137410D02*
X415444Y137410D01*
X415444Y139522D02*
X408776Y139522D01*
X650076Y101754D02*
X656744Y101754D01*
X656744Y95086D01*
X650076Y95086D01*
X650076Y101754D01*
X650076Y97198D02*
X656744Y97198D01*
X656744Y99310D02*
X650076Y99310D01*
X650076Y101422D02*
X656744Y101422D01*
X641504Y101754D02*
X634836Y101754D01*
X641504Y101754D02*
X641504Y95086D01*
X634836Y95086D01*
X634836Y101754D01*
X634836Y97198D02*
X641504Y97198D01*
X641504Y99310D02*
X634836Y99310D01*
X634836Y101422D02*
X641504Y101422D01*
X543396Y129376D02*
X543396Y136044D01*
X550064Y136044D01*
X550064Y129376D01*
X543396Y129376D01*
X543396Y131488D02*
X550064Y131488D01*
X550064Y133600D02*
X543396Y133600D01*
X543396Y135712D02*
X550064Y135712D01*
X543396Y120804D02*
X543396Y114136D01*
X543396Y120804D02*
X550064Y120804D01*
X550064Y114136D01*
X543396Y114136D01*
X543396Y116248D02*
X550064Y116248D01*
X550064Y118360D02*
X543396Y118360D01*
X543396Y120472D02*
X550064Y120472D01*
X616104Y120804D02*
X616104Y114136D01*
X609436Y114136D01*
X609436Y120804D01*
X616104Y120804D01*
X616104Y116248D02*
X609436Y116248D01*
X609436Y118360D02*
X616104Y118360D01*
X616104Y120472D02*
X609436Y120472D01*
X616104Y129376D02*
X616104Y136044D01*
X616104Y129376D02*
X609436Y129376D01*
X609436Y136044D01*
X616104Y136044D01*
X616104Y131488D02*
X609436Y131488D01*
X609436Y133600D02*
X616104Y133600D01*
X616104Y135712D02*
X609436Y135712D01*
X631344Y120804D02*
X631344Y114136D01*
X624676Y114136D01*
X624676Y120804D01*
X631344Y120804D01*
X631344Y116248D02*
X624676Y116248D01*
X624676Y118360D02*
X631344Y118360D01*
X631344Y120472D02*
X624676Y120472D01*
X631344Y129376D02*
X631344Y136044D01*
X631344Y129376D02*
X624676Y129376D01*
X624676Y136044D01*
X631344Y136044D01*
X631344Y131488D02*
X624676Y131488D01*
X624676Y133600D02*
X631344Y133600D01*
X631344Y135712D02*
X624676Y135712D01*
D32*
X556214Y135525D02*
X556214Y133655D01*
X556214Y135525D02*
X564584Y135525D01*
X564584Y133655D01*
X556214Y133655D01*
X556214Y126025D02*
X556214Y124155D01*
X556214Y126025D02*
X564584Y126025D01*
X564584Y124155D01*
X556214Y124155D01*
X556214Y116525D02*
X556214Y114655D01*
X556214Y116525D02*
X564584Y116525D01*
X564584Y114655D01*
X556214Y114655D01*
X582216Y114655D02*
X582216Y116525D01*
X590586Y116525D01*
X590586Y114655D01*
X582216Y114655D01*
X582216Y133655D02*
X582216Y135525D01*
X590586Y135525D01*
X590586Y133655D01*
X582216Y133655D01*
X590586Y126025D02*
X590586Y124155D01*
X582216Y124155D01*
X582216Y126025D01*
X590586Y126025D01*
D49*
X514345Y128900D02*
X514345Y136520D01*
X525775Y136520D01*
X525775Y128900D01*
X514345Y128900D01*
X514345Y131313D02*
X525775Y131313D01*
X525775Y133726D02*
X514345Y133726D01*
X514345Y136139D02*
X525775Y136139D01*
X514345Y118740D02*
X514345Y111120D01*
X514345Y118740D02*
X525775Y118740D01*
X525775Y111120D01*
X514345Y111120D01*
X514345Y113533D02*
X525775Y113533D01*
X525775Y115946D02*
X514345Y115946D01*
X514345Y118359D02*
X525775Y118359D01*
D50*
X203354Y109056D02*
X196686Y109056D01*
X196686Y115724D01*
X203354Y115724D01*
X203354Y109056D01*
X203354Y111168D02*
X196686Y111168D01*
X196686Y113280D02*
X203354Y113280D01*
X203354Y115392D02*
X196686Y115392D01*
X211926Y109056D02*
X218594Y109056D01*
X211926Y109056D02*
X211926Y115724D01*
X218594Y115724D01*
X218594Y109056D01*
X218594Y111168D02*
X211926Y111168D01*
X211926Y113280D02*
X218594Y113280D01*
X218594Y115392D02*
X211926Y115392D01*
X203354Y147156D02*
X196686Y147156D01*
X196686Y153824D01*
X203354Y153824D01*
X203354Y147156D01*
X203354Y149268D02*
X196686Y149268D01*
X196686Y151380D02*
X203354Y151380D01*
X203354Y153492D02*
X196686Y153492D01*
X211926Y147156D02*
X218594Y147156D01*
X211926Y147156D02*
X211926Y153824D01*
X218594Y153824D01*
X218594Y147156D01*
X218594Y149268D02*
X211926Y149268D01*
X211926Y151380D02*
X218594Y151380D01*
X218594Y153492D02*
X211926Y153492D01*
X500216Y97944D02*
X500216Y91276D01*
X500216Y97944D02*
X506884Y97944D01*
X506884Y91276D01*
X500216Y91276D01*
X500216Y93388D02*
X506884Y93388D01*
X506884Y95500D02*
X500216Y95500D01*
X500216Y97612D02*
X506884Y97612D01*
X500216Y82704D02*
X500216Y76036D01*
X500216Y82704D02*
X506884Y82704D01*
X506884Y76036D01*
X500216Y76036D01*
X500216Y78148D02*
X506884Y78148D01*
X506884Y80260D02*
X500216Y80260D01*
X500216Y82372D02*
X506884Y82372D01*
D18*
X552190Y103960D02*
X559190Y103960D01*
X559190Y97960D01*
X552190Y97960D01*
X552190Y103960D01*
X552190Y99860D02*
X559190Y99860D01*
X559190Y101760D02*
X552190Y101760D01*
X552190Y103660D02*
X559190Y103660D01*
X536190Y103960D02*
X529190Y103960D01*
X536190Y103960D02*
X536190Y97960D01*
X529190Y97960D01*
X529190Y103960D01*
X529190Y99860D02*
X536190Y99860D01*
X536190Y101760D02*
X529190Y101760D01*
X529190Y103660D02*
X536190Y103660D01*
D49*
X549270Y83815D02*
X556890Y83815D01*
X556890Y72385D01*
X549270Y72385D01*
X549270Y83815D01*
X549270Y74798D02*
X556890Y74798D01*
X556890Y77211D02*
X549270Y77211D01*
X549270Y79624D02*
X556890Y79624D01*
X556890Y82037D02*
X549270Y82037D01*
X539110Y83815D02*
X531490Y83815D01*
X539110Y83815D02*
X539110Y72385D01*
X531490Y72385D01*
X531490Y83815D01*
X531490Y74798D02*
X539110Y74798D01*
X539110Y77211D02*
X531490Y77211D01*
X531490Y79624D02*
X539110Y79624D01*
X539110Y82037D02*
X531490Y82037D01*
D50*
X596736Y109056D02*
X596736Y115724D01*
X603404Y115724D01*
X603404Y109056D01*
X596736Y109056D01*
X596736Y111168D02*
X603404Y111168D01*
X603404Y113280D02*
X596736Y113280D01*
X596736Y115392D02*
X603404Y115392D01*
X596736Y100484D02*
X596736Y93816D01*
X596736Y100484D02*
X603404Y100484D01*
X603404Y93816D01*
X596736Y93816D01*
X596736Y95928D02*
X603404Y95928D01*
X603404Y98040D02*
X596736Y98040D01*
X596736Y100152D02*
X603404Y100152D01*
D56*
X565135Y79335D02*
X565135Y72685D01*
X565135Y79335D02*
X589285Y79335D01*
X589285Y72685D01*
X565135Y72685D01*
X565135Y75392D02*
X589285Y75392D01*
X589285Y78099D02*
X565135Y78099D01*
X589285Y97185D02*
X589285Y103835D01*
X589285Y97185D02*
X565135Y97185D01*
X565135Y103835D01*
X589285Y103835D01*
X589285Y99892D02*
X565135Y99892D01*
X565135Y102599D02*
X589285Y102599D01*
D57*
X163910Y82080D02*
X163910Y71580D01*
X153410Y71580D01*
X153410Y82080D01*
X163910Y82080D01*
X163910Y74905D02*
X153410Y74905D01*
X153410Y78230D02*
X163910Y78230D01*
X163910Y81555D02*
X153410Y81555D01*
X200910Y82080D02*
X200910Y71580D01*
X190410Y71580D01*
X190410Y82080D01*
X200910Y82080D01*
X200910Y74905D02*
X190410Y74905D01*
X190410Y78230D02*
X200910Y78230D01*
X200910Y81555D02*
X190410Y81555D01*
X163910Y88090D02*
X163910Y98590D01*
X163910Y88090D02*
X153410Y88090D01*
X153410Y98590D01*
X163910Y98590D01*
X163910Y91415D02*
X153410Y91415D01*
X153410Y94740D02*
X163910Y94740D01*
X163910Y98065D02*
X153410Y98065D01*
X200910Y98590D02*
X200910Y88090D01*
X190410Y88090D01*
X190410Y98590D01*
X200910Y98590D01*
X200910Y91415D02*
X190410Y91415D01*
X190410Y94740D02*
X200910Y94740D01*
X200910Y98065D02*
X190410Y98065D01*
D43*
X166830Y105330D02*
X166830Y111830D01*
X166830Y105330D02*
X162330Y105330D01*
X162330Y111830D01*
X166830Y111830D01*
X166830Y106755D02*
X162330Y106755D01*
X162330Y108180D02*
X166830Y108180D01*
X166830Y109605D02*
X162330Y109605D01*
X162330Y111030D02*
X166830Y111030D01*
X181830Y111830D02*
X181830Y105330D01*
X177330Y105330D01*
X177330Y111830D01*
X181830Y111830D01*
X181830Y106755D02*
X177330Y106755D01*
X177330Y108180D02*
X181830Y108180D01*
X181830Y109605D02*
X177330Y109605D01*
X177330Y111030D02*
X181830Y111030D01*
X177330Y153590D02*
X177330Y160090D01*
X181830Y160090D01*
X181830Y153590D01*
X177330Y153590D01*
X177330Y155015D02*
X181830Y155015D01*
X181830Y156440D02*
X177330Y156440D01*
X177330Y157865D02*
X181830Y157865D01*
X181830Y159290D02*
X177330Y159290D01*
X162330Y160090D02*
X162330Y153590D01*
X162330Y160090D02*
X166830Y160090D01*
X166830Y153590D01*
X162330Y153590D01*
X162330Y155015D02*
X166830Y155015D01*
X166830Y156440D02*
X162330Y156440D01*
X162330Y157865D02*
X166830Y157865D01*
X166830Y159290D02*
X162330Y159290D01*
D18*
X515790Y103260D02*
X515790Y96260D01*
X515790Y103260D02*
X521790Y103260D01*
X521790Y96260D01*
X515790Y96260D01*
X515790Y98160D02*
X521790Y98160D01*
X521790Y100060D02*
X515790Y100060D01*
X515790Y101960D02*
X521790Y101960D01*
X515790Y80260D02*
X515790Y73260D01*
X515790Y80260D02*
X521790Y80260D01*
X521790Y73260D01*
X515790Y73260D01*
X515790Y75160D02*
X521790Y75160D01*
X521790Y77060D02*
X515790Y77060D01*
X515790Y78960D02*
X521790Y78960D01*
D50*
X627154Y78894D02*
X627154Y72226D01*
X620486Y72226D01*
X620486Y78894D01*
X627154Y78894D01*
X627154Y74338D02*
X620486Y74338D01*
X620486Y76450D02*
X627154Y76450D01*
X627154Y78562D02*
X620486Y78562D01*
X643154Y78894D02*
X643154Y72226D01*
X636486Y72226D01*
X636486Y78894D01*
X643154Y78894D01*
X643154Y74338D02*
X636486Y74338D01*
X636486Y76450D02*
X643154Y76450D01*
X643154Y78562D02*
X636486Y78562D01*
D32*
X189266Y121005D02*
X189266Y122875D01*
X189266Y121005D02*
X180896Y121005D01*
X180896Y122875D01*
X189266Y122875D01*
X189266Y130505D02*
X189266Y132375D01*
X189266Y130505D02*
X180896Y130505D01*
X180896Y132375D01*
X189266Y132375D01*
X189266Y140005D02*
X189266Y141875D01*
X189266Y140005D02*
X180896Y140005D01*
X180896Y141875D01*
X189266Y141875D01*
X163264Y141875D02*
X163264Y140005D01*
X154894Y140005D01*
X154894Y141875D01*
X163264Y141875D01*
X163264Y122875D02*
X163264Y121005D01*
X154894Y121005D01*
X154894Y122875D01*
X163264Y122875D01*
X154894Y130505D02*
X154894Y132375D01*
X163264Y132375D01*
X163264Y130505D01*
X154894Y130505D01*
D54*
X671746Y104776D02*
X671746Y99624D01*
X670794Y99624D01*
X670794Y104776D01*
X671746Y104776D01*
X671746Y101380D02*
X670794Y101380D01*
X670794Y103136D02*
X671746Y103136D01*
X666746Y104776D02*
X666746Y99624D01*
X665794Y99624D01*
X665794Y104776D01*
X666746Y104776D01*
X666746Y101380D02*
X665794Y101380D01*
X665794Y103136D02*
X666746Y103136D01*
X676746Y104776D02*
X676746Y99624D01*
X675794Y99624D01*
X675794Y104776D01*
X676746Y104776D01*
X676746Y101380D02*
X675794Y101380D01*
X675794Y103136D02*
X676746Y103136D01*
X681746Y104776D02*
X681746Y99624D01*
X680794Y99624D01*
X680794Y104776D01*
X681746Y104776D01*
X681746Y101380D02*
X680794Y101380D01*
X680794Y103136D02*
X681746Y103136D01*
X686746Y104776D02*
X686746Y99624D01*
X685794Y99624D01*
X685794Y104776D01*
X686746Y104776D01*
X686746Y101380D02*
X685794Y101380D01*
X685794Y103136D02*
X686746Y103136D01*
X680794Y127624D02*
X680794Y132776D01*
X681746Y132776D01*
X681746Y127624D01*
X680794Y127624D01*
X680794Y129380D02*
X681746Y129380D01*
X681746Y131136D02*
X680794Y131136D01*
X686746Y132776D02*
X686746Y127624D01*
X685794Y127624D01*
X685794Y132776D01*
X686746Y132776D01*
X686746Y129380D02*
X685794Y129380D01*
X685794Y131136D02*
X686746Y131136D01*
X675794Y132776D02*
X675794Y127624D01*
X675794Y132776D02*
X676746Y132776D01*
X676746Y127624D01*
X675794Y127624D01*
X675794Y129380D02*
X676746Y129380D01*
X676746Y131136D02*
X675794Y131136D01*
X670794Y132776D02*
X670794Y127624D01*
X670794Y132776D02*
X671746Y132776D01*
X671746Y127624D01*
X670794Y127624D01*
X670794Y129380D02*
X671746Y129380D01*
X671746Y131136D02*
X670794Y131136D01*
X666746Y132776D02*
X666746Y127624D01*
X665794Y127624D01*
X665794Y132776D01*
X666746Y132776D01*
X666746Y129380D02*
X665794Y129380D01*
X665794Y131136D02*
X666746Y131136D01*
X687694Y111676D02*
X692846Y111676D01*
X692846Y110724D01*
X687694Y110724D01*
X687694Y111676D01*
X687694Y116676D02*
X692846Y116676D01*
X692846Y115724D01*
X687694Y115724D01*
X687694Y116676D01*
X687694Y121676D02*
X692846Y121676D01*
X692846Y120724D01*
X687694Y120724D01*
X687694Y121676D01*
X664846Y120724D02*
X659694Y120724D01*
X659694Y121676D01*
X664846Y121676D01*
X664846Y120724D01*
X664846Y115724D02*
X659694Y115724D01*
X659694Y116676D01*
X664846Y116676D01*
X664846Y115724D01*
X664846Y110724D02*
X659694Y110724D01*
X659694Y111676D01*
X664846Y111676D01*
X664846Y110724D01*
D50*
X637376Y124296D02*
X637376Y130964D01*
X644044Y130964D01*
X644044Y124296D01*
X637376Y124296D01*
X637376Y126408D02*
X644044Y126408D01*
X644044Y128520D02*
X637376Y128520D01*
X637376Y130632D02*
X644044Y130632D01*
X637376Y115724D02*
X637376Y109056D01*
X637376Y115724D02*
X644044Y115724D01*
X644044Y109056D01*
X637376Y109056D01*
X637376Y111168D02*
X644044Y111168D01*
X644044Y113280D02*
X637376Y113280D01*
X637376Y115392D02*
X644044Y115392D01*
D18*
X304034Y136060D02*
X297034Y136060D01*
X297034Y142060D01*
X304034Y142060D01*
X304034Y136060D01*
X304034Y137960D02*
X297034Y137960D01*
X297034Y139860D02*
X304034Y139860D01*
X304034Y141760D02*
X297034Y141760D01*
X320034Y136060D02*
X327034Y136060D01*
X320034Y136060D02*
X320034Y142060D01*
X327034Y142060D01*
X327034Y136060D01*
X327034Y137960D02*
X320034Y137960D01*
X320034Y139860D02*
X327034Y139860D01*
X327034Y141760D02*
X320034Y141760D01*
D50*
X454876Y82704D02*
X454876Y76036D01*
X454876Y82704D02*
X461544Y82704D01*
X461544Y76036D01*
X454876Y76036D01*
X454876Y78148D02*
X461544Y78148D01*
X461544Y80260D02*
X454876Y80260D01*
X454876Y82372D02*
X461544Y82372D01*
X438876Y82704D02*
X438876Y76036D01*
X438876Y82704D02*
X445544Y82704D01*
X445544Y76036D01*
X438876Y76036D01*
X438876Y78148D02*
X445544Y78148D01*
X445544Y80260D02*
X438876Y80260D01*
X438876Y82372D02*
X445544Y82372D01*
X699606Y99850D02*
X706274Y99850D01*
X706274Y93182D01*
X699606Y93182D01*
X699606Y99850D01*
X699606Y95294D02*
X706274Y95294D01*
X706274Y97406D02*
X699606Y97406D01*
X699606Y99518D02*
X706274Y99518D01*
X706274Y115850D02*
X699606Y115850D01*
X706274Y115850D02*
X706274Y109182D01*
X699606Y109182D01*
X699606Y115850D01*
X699606Y111294D02*
X706274Y111294D01*
X706274Y113406D02*
X699606Y113406D01*
X699606Y115518D02*
X706274Y115518D01*
X429414Y87846D02*
X422746Y87846D01*
X422746Y94514D01*
X429414Y94514D01*
X429414Y87846D01*
X429414Y89958D02*
X422746Y89958D01*
X422746Y92070D02*
X429414Y92070D01*
X429414Y94182D02*
X422746Y94182D01*
X422746Y71846D02*
X429414Y71846D01*
X422746Y71846D02*
X422746Y78514D01*
X429414Y78514D01*
X429414Y71846D01*
X429414Y73958D02*
X422746Y73958D01*
X422746Y76070D02*
X429414Y76070D01*
X429414Y78182D02*
X422746Y78182D01*
X663030Y74512D02*
X669698Y74512D01*
X663030Y74512D02*
X663030Y81180D01*
X669698Y81180D01*
X669698Y74512D01*
X669698Y76624D02*
X663030Y76624D01*
X663030Y78736D02*
X669698Y78736D01*
X669698Y80848D02*
X663030Y80848D01*
X678270Y74512D02*
X684938Y74512D01*
X678270Y74512D02*
X678270Y81180D01*
X684938Y81180D01*
X684938Y74512D01*
X684938Y76624D02*
X678270Y76624D01*
X678270Y78736D02*
X684938Y78736D01*
X684938Y80848D02*
X678270Y80848D01*
X722466Y162714D02*
X729134Y162714D01*
X729134Y156046D01*
X722466Y156046D01*
X722466Y162714D01*
X722466Y158158D02*
X729134Y158158D01*
X729134Y160270D02*
X722466Y160270D01*
X722466Y162382D02*
X729134Y162382D01*
X713894Y162714D02*
X707226Y162714D01*
X713894Y162714D02*
X713894Y156046D01*
X707226Y156046D01*
X707226Y162714D01*
X707226Y158158D02*
X713894Y158158D01*
X713894Y160270D02*
X707226Y160270D01*
X707226Y162382D02*
X713894Y162382D01*
X626264Y92864D02*
X626264Y86196D01*
X619596Y86196D01*
X619596Y92864D01*
X626264Y92864D01*
X626264Y88308D02*
X619596Y88308D01*
X619596Y90420D02*
X626264Y90420D01*
X626264Y92532D02*
X619596Y92532D01*
X626264Y101436D02*
X626264Y108104D01*
X626264Y101436D02*
X619596Y101436D01*
X619596Y108104D01*
X626264Y108104D01*
X626264Y103548D02*
X619596Y103548D01*
X619596Y105660D02*
X626264Y105660D01*
X626264Y107772D02*
X619596Y107772D01*
X307748Y90006D02*
X301080Y90006D01*
X301080Y96674D01*
X307748Y96674D01*
X307748Y90006D01*
X307748Y92118D02*
X301080Y92118D01*
X301080Y94230D02*
X307748Y94230D01*
X307748Y96342D02*
X301080Y96342D01*
X316320Y90006D02*
X322988Y90006D01*
X316320Y90006D02*
X316320Y96674D01*
X322988Y96674D01*
X322988Y90006D01*
X322988Y92118D02*
X316320Y92118D01*
X316320Y94230D02*
X322988Y94230D01*
X322988Y96342D02*
X316320Y96342D01*
X156884Y322226D02*
X156884Y328894D01*
X156884Y322226D02*
X150216Y322226D01*
X150216Y328894D01*
X156884Y328894D01*
X156884Y324338D02*
X150216Y324338D01*
X150216Y326450D02*
X156884Y326450D01*
X156884Y328562D02*
X150216Y328562D01*
X156884Y337466D02*
X156884Y344134D01*
X156884Y337466D02*
X150216Y337466D01*
X150216Y344134D01*
X156884Y344134D01*
X156884Y339578D02*
X150216Y339578D01*
X150216Y341690D02*
X156884Y341690D01*
X156884Y343802D02*
X150216Y343802D01*
X311506Y320956D02*
X318174Y320956D01*
X311506Y320956D02*
X311506Y327624D01*
X318174Y327624D01*
X318174Y320956D01*
X318174Y323068D02*
X311506Y323068D01*
X311506Y325180D02*
X318174Y325180D01*
X318174Y327292D02*
X311506Y327292D01*
X326746Y320956D02*
X333414Y320956D01*
X326746Y320956D02*
X326746Y327624D01*
X333414Y327624D01*
X333414Y320956D01*
X333414Y323068D02*
X326746Y323068D01*
X326746Y325180D02*
X333414Y325180D01*
X333414Y327292D02*
X326746Y327292D01*
X305474Y327624D02*
X298806Y327624D01*
X305474Y327624D02*
X305474Y320956D01*
X298806Y320956D01*
X298806Y327624D01*
X298806Y323068D02*
X305474Y323068D01*
X305474Y325180D02*
X298806Y325180D01*
X298806Y327292D02*
X305474Y327292D01*
X290234Y327624D02*
X283566Y327624D01*
X290234Y327624D02*
X290234Y320956D01*
X283566Y320956D01*
X283566Y327624D01*
X283566Y323068D02*
X290234Y323068D01*
X290234Y325180D02*
X283566Y325180D01*
X283566Y327292D02*
X290234Y327292D01*
X264834Y400712D02*
X258166Y400712D01*
X258166Y407380D01*
X264834Y407380D01*
X264834Y400712D01*
X264834Y402824D02*
X258166Y402824D01*
X258166Y404936D02*
X264834Y404936D01*
X264834Y407048D02*
X258166Y407048D01*
X273406Y400712D02*
X280074Y400712D01*
X273406Y400712D02*
X273406Y407380D01*
X280074Y407380D01*
X280074Y400712D01*
X280074Y402824D02*
X273406Y402824D01*
X273406Y404936D02*
X280074Y404936D01*
X280074Y407048D02*
X273406Y407048D01*
X156884Y403886D02*
X150216Y403886D01*
X150216Y410554D01*
X156884Y410554D01*
X156884Y403886D01*
X156884Y405998D02*
X150216Y405998D01*
X150216Y408110D02*
X156884Y408110D01*
X156884Y410222D02*
X150216Y410222D01*
X150216Y387886D02*
X156884Y387886D01*
X150216Y387886D02*
X150216Y394554D01*
X156884Y394554D01*
X156884Y387886D01*
X156884Y389998D02*
X150216Y389998D01*
X150216Y392110D02*
X156884Y392110D01*
X156884Y394222D02*
X150216Y394222D01*
X508356Y405792D02*
X515024Y405792D01*
X508356Y405792D02*
X508356Y412460D01*
X515024Y412460D01*
X515024Y405792D01*
X515024Y407904D02*
X508356Y407904D01*
X508356Y410016D02*
X515024Y410016D01*
X515024Y412128D02*
X508356Y412128D01*
X523596Y405792D02*
X530264Y405792D01*
X523596Y405792D02*
X523596Y412460D01*
X530264Y412460D01*
X530264Y405792D01*
X530264Y407904D02*
X523596Y407904D01*
X523596Y410016D02*
X530264Y410016D01*
X530264Y412128D02*
X523596Y412128D01*
X536296Y405792D02*
X542964Y405792D01*
X536296Y405792D02*
X536296Y412460D01*
X542964Y412460D01*
X542964Y405792D01*
X542964Y407904D02*
X536296Y407904D01*
X536296Y410016D02*
X542964Y410016D01*
X542964Y412128D02*
X536296Y412128D01*
X551536Y405792D02*
X558204Y405792D01*
X551536Y405792D02*
X551536Y412460D01*
X558204Y412460D01*
X558204Y405792D01*
X558204Y407904D02*
X551536Y407904D01*
X551536Y410016D02*
X558204Y410016D01*
X558204Y412128D02*
X551536Y412128D01*
X530264Y391124D02*
X523596Y391124D01*
X530264Y391124D02*
X530264Y384456D01*
X523596Y384456D01*
X523596Y391124D01*
X523596Y386568D02*
X530264Y386568D01*
X530264Y388680D02*
X523596Y388680D01*
X523596Y390792D02*
X530264Y390792D01*
X515024Y391124D02*
X508356Y391124D01*
X515024Y391124D02*
X515024Y384456D01*
X508356Y384456D01*
X508356Y391124D01*
X508356Y386568D02*
X515024Y386568D01*
X515024Y388680D02*
X508356Y388680D01*
X508356Y390792D02*
X515024Y390792D01*
X523596Y378424D02*
X530264Y378424D01*
X530264Y371756D01*
X523596Y371756D01*
X523596Y378424D01*
X523596Y373868D02*
X530264Y373868D01*
X530264Y375980D02*
X523596Y375980D01*
X523596Y378092D02*
X530264Y378092D01*
X515024Y378424D02*
X508356Y378424D01*
X515024Y378424D02*
X515024Y371756D01*
X508356Y371756D01*
X508356Y378424D01*
X508356Y373868D02*
X515024Y373868D01*
X515024Y375980D02*
X508356Y375980D01*
X508356Y378092D02*
X515024Y378092D01*
X523596Y360644D02*
X530264Y360644D01*
X530264Y353976D01*
X523596Y353976D01*
X523596Y360644D01*
X523596Y356088D02*
X530264Y356088D01*
X530264Y358200D02*
X523596Y358200D01*
X523596Y360312D02*
X530264Y360312D01*
X515024Y360644D02*
X508356Y360644D01*
X515024Y360644D02*
X515024Y353976D01*
X508356Y353976D01*
X508356Y360644D01*
X508356Y356088D02*
X515024Y356088D01*
X515024Y358200D02*
X508356Y358200D01*
X508356Y360312D02*
X515024Y360312D01*
X394056Y353024D02*
X394056Y346356D01*
X394056Y353024D02*
X400724Y353024D01*
X400724Y346356D01*
X394056Y346356D01*
X394056Y348468D02*
X400724Y348468D01*
X400724Y350580D02*
X394056Y350580D01*
X394056Y352692D02*
X400724Y352692D01*
X394056Y337784D02*
X394056Y331116D01*
X394056Y337784D02*
X400724Y337784D01*
X400724Y331116D01*
X394056Y331116D01*
X394056Y333228D02*
X400724Y333228D01*
X400724Y335340D02*
X394056Y335340D01*
X394056Y337452D02*
X400724Y337452D01*
X381356Y346356D02*
X381356Y353024D01*
X388024Y353024D01*
X388024Y346356D01*
X381356Y346356D01*
X381356Y348468D02*
X388024Y348468D01*
X388024Y350580D02*
X381356Y350580D01*
X381356Y352692D02*
X388024Y352692D01*
X381356Y337784D02*
X381356Y331116D01*
X381356Y337784D02*
X388024Y337784D01*
X388024Y331116D01*
X381356Y331116D01*
X381356Y333228D02*
X388024Y333228D01*
X388024Y335340D02*
X381356Y335340D01*
X381356Y337452D02*
X388024Y337452D01*
D58*
X694664Y411335D02*
X694664Y412185D01*
X703014Y412185D01*
X703014Y411335D01*
X694664Y411335D01*
X694664Y407185D02*
X694664Y406335D01*
X694664Y407185D02*
X703014Y407185D01*
X703014Y406335D01*
X694664Y406335D01*
X694664Y402185D02*
X694664Y401335D01*
X694664Y402185D02*
X703014Y402185D01*
X703014Y401335D01*
X694664Y401335D01*
X694664Y397185D02*
X694664Y396335D01*
X694664Y397185D02*
X703014Y397185D01*
X703014Y396335D01*
X694664Y396335D01*
X694664Y392185D02*
X694664Y391335D01*
X694664Y392185D02*
X703014Y392185D01*
X703014Y391335D01*
X694664Y391335D01*
X745276Y391335D02*
X745276Y392185D01*
X745276Y391335D02*
X736926Y391335D01*
X736926Y392185D01*
X745276Y392185D01*
X745276Y396335D02*
X745276Y397185D01*
X745276Y396335D02*
X736926Y396335D01*
X736926Y397185D01*
X745276Y397185D01*
X745276Y401335D02*
X745276Y402185D01*
X745276Y401335D02*
X736926Y401335D01*
X736926Y402185D01*
X745276Y402185D01*
X745276Y406335D02*
X745276Y407185D01*
X745276Y406335D02*
X736926Y406335D01*
X736926Y407185D01*
X745276Y407185D01*
X745276Y411335D02*
X745276Y412185D01*
X745276Y411335D02*
X736926Y411335D01*
X736926Y412185D01*
X745276Y412185D01*
D50*
X718986Y344134D02*
X712318Y344134D01*
X718986Y344134D02*
X718986Y337466D01*
X712318Y337466D01*
X712318Y344134D01*
X712318Y339578D02*
X718986Y339578D01*
X718986Y341690D02*
X712318Y341690D01*
X712318Y343802D02*
X718986Y343802D01*
X703746Y344134D02*
X697078Y344134D01*
X703746Y344134D02*
X703746Y337466D01*
X697078Y337466D01*
X697078Y344134D01*
X697078Y339578D02*
X703746Y339578D01*
X703746Y341690D02*
X697078Y341690D01*
X697078Y343802D02*
X703746Y343802D01*
X794106Y400966D02*
X800774Y400966D01*
X794106Y400966D02*
X794106Y407634D01*
X800774Y407634D01*
X800774Y400966D01*
X800774Y403078D02*
X794106Y403078D01*
X794106Y405190D02*
X800774Y405190D01*
X800774Y407302D02*
X794106Y407302D01*
X809346Y400966D02*
X816014Y400966D01*
X809346Y400966D02*
X809346Y407634D01*
X816014Y407634D01*
X816014Y400966D01*
X816014Y403078D02*
X809346Y403078D01*
X809346Y405190D02*
X816014Y405190D01*
X816014Y407302D02*
X809346Y407302D01*
X781406Y410174D02*
X781406Y403506D01*
X781406Y410174D02*
X788074Y410174D01*
X788074Y403506D01*
X781406Y403506D01*
X781406Y405618D02*
X788074Y405618D01*
X788074Y407730D02*
X781406Y407730D01*
X781406Y409842D02*
X788074Y409842D01*
X781406Y394934D02*
X781406Y388266D01*
X781406Y394934D02*
X788074Y394934D01*
X788074Y388266D01*
X781406Y388266D01*
X781406Y390378D02*
X788074Y390378D01*
X788074Y392490D02*
X781406Y392490D01*
X781406Y394602D02*
X788074Y394602D01*
X794106Y388266D02*
X800774Y388266D01*
X794106Y388266D02*
X794106Y394934D01*
X800774Y394934D01*
X800774Y388266D01*
X800774Y390378D02*
X794106Y390378D01*
X794106Y392490D02*
X800774Y392490D01*
X800774Y394602D02*
X794106Y394602D01*
X809346Y388266D02*
X816014Y388266D01*
X809346Y388266D02*
X809346Y394934D01*
X816014Y394934D01*
X816014Y388266D01*
X816014Y390378D02*
X809346Y390378D01*
X809346Y392490D02*
X816014Y392490D01*
X816014Y394602D02*
X809346Y394602D01*
X757594Y385726D02*
X750926Y385726D01*
X750926Y392394D01*
X757594Y392394D01*
X757594Y385726D01*
X757594Y387838D02*
X750926Y387838D01*
X750926Y389950D02*
X757594Y389950D01*
X757594Y392062D02*
X750926Y392062D01*
X766166Y385726D02*
X772834Y385726D01*
X766166Y385726D02*
X766166Y392394D01*
X772834Y392394D01*
X772834Y385726D01*
X772834Y387838D02*
X766166Y387838D01*
X766166Y389950D02*
X772834Y389950D01*
X772834Y392062D02*
X766166Y392062D01*
D18*
X726714Y354200D02*
X726714Y348200D01*
X724714Y348200D01*
X724714Y354200D01*
X726714Y354200D01*
X726714Y350100D02*
X724714Y350100D01*
X724714Y352000D02*
X726714Y352000D01*
X726714Y353900D02*
X724714Y353900D01*
X733214Y354200D02*
X733214Y348200D01*
X731214Y348200D01*
X731214Y354200D01*
X733214Y354200D01*
X733214Y350100D02*
X731214Y350100D01*
X731214Y352000D02*
X733214Y352000D01*
X733214Y353900D02*
X731214Y353900D01*
X739714Y354200D02*
X739714Y348200D01*
X737714Y348200D01*
X737714Y354200D01*
X739714Y354200D01*
X739714Y350100D02*
X737714Y350100D01*
X737714Y352000D02*
X739714Y352000D01*
X739714Y353900D02*
X737714Y353900D01*
X746214Y354200D02*
X746214Y348200D01*
X744214Y348200D01*
X744214Y354200D01*
X746214Y354200D01*
X746214Y350100D02*
X744214Y350100D01*
X744214Y352000D02*
X746214Y352000D01*
X746214Y353900D02*
X744214Y353900D01*
X746214Y378200D02*
X746214Y384200D01*
X746214Y378200D02*
X744214Y378200D01*
X744214Y384200D01*
X746214Y384200D01*
X746214Y380100D02*
X744214Y380100D01*
X744214Y382000D02*
X746214Y382000D01*
X746214Y383900D02*
X744214Y383900D01*
X739714Y384200D02*
X739714Y378200D01*
X737714Y378200D01*
X737714Y384200D01*
X739714Y384200D01*
X739714Y380100D02*
X737714Y380100D01*
X737714Y382000D02*
X739714Y382000D01*
X739714Y383900D02*
X737714Y383900D01*
X733214Y384200D02*
X733214Y378200D01*
X731214Y378200D01*
X731214Y384200D01*
X733214Y384200D01*
X733214Y380100D02*
X731214Y380100D01*
X731214Y382000D02*
X733214Y382000D01*
X733214Y383900D02*
X731214Y383900D01*
X726714Y384200D02*
X726714Y378200D01*
X724714Y378200D01*
X724714Y384200D01*
X726714Y384200D01*
X726714Y380100D02*
X724714Y380100D01*
X724714Y382000D02*
X726714Y382000D01*
X726714Y383900D02*
X724714Y383900D01*
D46*
X726574Y363660D03*
X726574Y372550D03*
X735464Y363660D03*
X735464Y372550D03*
X744354Y363660D03*
X744354Y372550D03*
D59*
X720387Y366204D03*
D60*
X750342Y366209D03*
D49*
X736734Y367470D02*
X736734Y364930D01*
X734194Y364930D01*
X734194Y367470D01*
X736734Y367470D01*
X736734Y367343D02*
X734194Y367343D01*
D18*
X241726Y347000D02*
X241726Y341000D01*
X234726Y341000D01*
X234726Y347000D01*
X241726Y347000D01*
X241726Y342900D02*
X234726Y342900D01*
X234726Y344800D02*
X241726Y344800D01*
X241726Y346700D02*
X234726Y346700D01*
X241726Y360000D02*
X241726Y366000D01*
X241726Y360000D02*
X234726Y360000D01*
X234726Y366000D01*
X241726Y366000D01*
X241726Y361900D02*
X234726Y361900D01*
X234726Y363800D02*
X241726Y363800D01*
X241726Y365700D02*
X234726Y365700D01*
X220726Y356500D02*
X220726Y350500D01*
X213726Y350500D01*
X213726Y356500D01*
X220726Y356500D01*
X220726Y352400D02*
X213726Y352400D01*
X213726Y354300D02*
X220726Y354300D01*
X220726Y356200D02*
X213726Y356200D01*
D50*
X197524Y411444D02*
X190856Y411444D01*
X197524Y411444D02*
X197524Y404776D01*
X190856Y404776D01*
X190856Y411444D01*
X190856Y406888D02*
X197524Y406888D01*
X197524Y409000D02*
X190856Y409000D01*
X190856Y411112D02*
X197524Y411112D01*
X182284Y411444D02*
X175616Y411444D01*
X182284Y411444D02*
X182284Y404776D01*
X175616Y404776D01*
X175616Y411444D01*
X175616Y406888D02*
X182284Y406888D01*
X182284Y409000D02*
X175616Y409000D01*
X175616Y411112D02*
X182284Y411112D01*
X231496Y333974D02*
X238164Y333974D01*
X238164Y327306D01*
X231496Y327306D01*
X231496Y333974D01*
X231496Y329418D02*
X238164Y329418D01*
X238164Y331530D02*
X231496Y331530D01*
X231496Y333642D02*
X238164Y333642D01*
X222924Y333974D02*
X216256Y333974D01*
X222924Y333974D02*
X222924Y327306D01*
X216256Y327306D01*
X216256Y333974D01*
X216256Y329418D02*
X222924Y329418D01*
X222924Y331530D02*
X216256Y331530D01*
X216256Y333642D02*
X222924Y333642D01*
D43*
X545790Y328470D02*
X545790Y323970D01*
X535290Y323970D01*
X535290Y328470D01*
X545790Y328470D01*
X545790Y325395D02*
X535290Y325395D01*
X535290Y326820D02*
X545790Y326820D01*
X545790Y328245D02*
X535290Y328245D01*
X545790Y342970D02*
X545790Y347470D01*
X545790Y342970D02*
X535290Y342970D01*
X535290Y347470D01*
X545790Y347470D01*
X545790Y344395D02*
X535290Y344395D01*
X535290Y345820D02*
X545790Y345820D01*
X545790Y347245D02*
X535290Y347245D01*
X571910Y328470D02*
X571910Y323970D01*
X561410Y323970D01*
X561410Y328470D01*
X571910Y328470D01*
X571910Y325395D02*
X561410Y325395D01*
X561410Y326820D02*
X571910Y326820D01*
X571910Y328245D02*
X561410Y328245D01*
X571910Y333470D02*
X571910Y337970D01*
X571910Y333470D02*
X561410Y333470D01*
X561410Y337970D01*
X571910Y337970D01*
X571910Y334895D02*
X561410Y334895D01*
X561410Y336320D02*
X571910Y336320D01*
X571910Y337745D02*
X561410Y337745D01*
X571910Y342970D02*
X571910Y347470D01*
X571910Y342970D02*
X561410Y342970D01*
X561410Y347470D01*
X571910Y347470D01*
X571910Y344395D02*
X561410Y344395D01*
X561410Y345820D02*
X571910Y345820D01*
X571910Y347245D02*
X561410Y347245D01*
D50*
X649326Y381662D02*
X655994Y381662D01*
X649326Y381662D02*
X649326Y388330D01*
X655994Y388330D01*
X655994Y381662D01*
X655994Y383774D02*
X649326Y383774D01*
X649326Y385886D02*
X655994Y385886D01*
X655994Y387998D02*
X649326Y387998D01*
X664566Y381662D02*
X671234Y381662D01*
X664566Y381662D02*
X664566Y388330D01*
X671234Y388330D01*
X671234Y381662D01*
X671234Y383774D02*
X664566Y383774D01*
X664566Y385886D02*
X671234Y385886D01*
X671234Y387998D02*
X664566Y387998D01*
X636626Y394362D02*
X636626Y401030D01*
X643294Y401030D01*
X643294Y394362D01*
X636626Y394362D01*
X636626Y396474D02*
X643294Y396474D01*
X643294Y398586D02*
X636626Y398586D01*
X636626Y400698D02*
X643294Y400698D01*
X636626Y385790D02*
X636626Y379122D01*
X636626Y385790D02*
X643294Y385790D01*
X643294Y379122D01*
X636626Y379122D01*
X636626Y381234D02*
X643294Y381234D01*
X643294Y383346D02*
X636626Y383346D01*
X636626Y385458D02*
X643294Y385458D01*
X691046Y361914D02*
X691046Y355246D01*
X684378Y355246D01*
X684378Y361914D01*
X691046Y361914D01*
X691046Y357358D02*
X684378Y357358D01*
X684378Y359470D02*
X691046Y359470D01*
X691046Y361582D02*
X684378Y361582D01*
X691046Y370486D02*
X691046Y377154D01*
X691046Y370486D02*
X684378Y370486D01*
X684378Y377154D01*
X691046Y377154D01*
X691046Y372598D02*
X684378Y372598D01*
X684378Y374710D02*
X691046Y374710D01*
X691046Y376822D02*
X684378Y376822D01*
X598844Y330164D02*
X598844Y323496D01*
X592176Y323496D01*
X592176Y330164D01*
X598844Y330164D01*
X598844Y325608D02*
X592176Y325608D01*
X592176Y327720D02*
X598844Y327720D01*
X598844Y329832D02*
X592176Y329832D01*
X598844Y338736D02*
X598844Y345404D01*
X598844Y338736D02*
X592176Y338736D01*
X592176Y345404D01*
X598844Y345404D01*
X598844Y340848D02*
X592176Y340848D01*
X592176Y342960D02*
X598844Y342960D01*
X598844Y345072D02*
X592176Y345072D01*
X586144Y330164D02*
X586144Y323496D01*
X579476Y323496D01*
X579476Y330164D01*
X586144Y330164D01*
X586144Y325608D02*
X579476Y325608D01*
X579476Y327720D02*
X586144Y327720D01*
X586144Y329832D02*
X579476Y329832D01*
X586144Y338736D02*
X586144Y345404D01*
X586144Y338736D02*
X579476Y338736D01*
X579476Y345404D01*
X586144Y345404D01*
X586144Y340848D02*
X579476Y340848D01*
X579476Y342960D02*
X586144Y342960D01*
X586144Y345072D02*
X579476Y345072D01*
D18*
X783930Y346770D02*
X783930Y339770D01*
X777930Y339770D01*
X777930Y346770D01*
X783930Y346770D01*
X783930Y341670D02*
X777930Y341670D01*
X777930Y343570D02*
X783930Y343570D01*
X783930Y345470D02*
X777930Y345470D01*
X783930Y362770D02*
X783930Y369770D01*
X783930Y362770D02*
X777930Y362770D01*
X777930Y369770D01*
X783930Y369770D01*
X783930Y364670D02*
X777930Y364670D01*
X777930Y366570D02*
X783930Y366570D01*
X783930Y368470D02*
X777930Y368470D01*
D61*
X836493Y374137D02*
X836493Y383663D01*
X836493Y374137D02*
X824427Y374137D01*
X824427Y383663D01*
X836493Y383663D01*
X836493Y377153D02*
X824427Y377153D01*
X824427Y380169D02*
X836493Y380169D01*
X836493Y383185D02*
X824427Y383185D01*
X836493Y399537D02*
X836493Y409063D01*
X836493Y399537D02*
X824427Y399537D01*
X824427Y409063D01*
X836493Y409063D01*
X836493Y402553D02*
X824427Y402553D01*
X824427Y405569D02*
X836493Y405569D01*
X836493Y408585D02*
X824427Y408585D01*
D50*
X193714Y320956D02*
X187046Y320956D01*
X187046Y327624D01*
X193714Y327624D01*
X193714Y320956D01*
X193714Y323068D02*
X187046Y323068D01*
X187046Y325180D02*
X193714Y325180D01*
X193714Y327292D02*
X187046Y327292D01*
X202286Y320956D02*
X208954Y320956D01*
X202286Y320956D02*
X202286Y327624D01*
X208954Y327624D01*
X208954Y320956D01*
X208954Y323068D02*
X202286Y323068D01*
X202286Y325180D02*
X208954Y325180D01*
X208954Y327292D02*
X202286Y327292D01*
D62*
X329762Y347468D02*
X335478Y347468D01*
X335478Y334132D01*
X329762Y334132D01*
X329762Y347468D01*
X329762Y335942D02*
X335478Y335942D01*
X335478Y337752D02*
X329762Y337752D01*
X329762Y339562D02*
X335478Y339562D01*
X335478Y341372D02*
X329762Y341372D01*
X329762Y343182D02*
X335478Y343182D01*
X335478Y344992D02*
X329762Y344992D01*
X329762Y346802D02*
X335478Y346802D01*
X335478Y398268D02*
X329762Y398268D01*
X335478Y398268D02*
X335478Y384932D01*
X329762Y384932D01*
X329762Y398268D01*
X329762Y386742D02*
X335478Y386742D01*
X335478Y388552D02*
X329762Y388552D01*
X329762Y390362D02*
X335478Y390362D01*
X335478Y392172D02*
X329762Y392172D01*
X329762Y393982D02*
X335478Y393982D01*
X335478Y395792D02*
X329762Y395792D01*
X329762Y397602D02*
X335478Y397602D01*
X367862Y347468D02*
X373578Y347468D01*
X373578Y334132D01*
X367862Y334132D01*
X367862Y347468D01*
X367862Y335942D02*
X373578Y335942D01*
X373578Y337752D02*
X367862Y337752D01*
X367862Y339562D02*
X373578Y339562D01*
X373578Y341372D02*
X367862Y341372D01*
X367862Y343182D02*
X373578Y343182D01*
X373578Y344992D02*
X367862Y344992D01*
X367862Y346802D02*
X373578Y346802D01*
X373578Y398268D02*
X367862Y398268D01*
X373578Y398268D02*
X373578Y384932D01*
X367862Y384932D01*
X367862Y398268D01*
X367862Y386742D02*
X373578Y386742D01*
X373578Y388552D02*
X367862Y388552D01*
X367862Y390362D02*
X373578Y390362D01*
X373578Y392172D02*
X367862Y392172D01*
X367862Y393982D02*
X373578Y393982D01*
X373578Y395792D02*
X367862Y395792D01*
X367862Y397602D02*
X373578Y397602D01*
X208478Y384932D02*
X202762Y384932D01*
X202762Y398268D01*
X208478Y398268D01*
X208478Y384932D01*
X208478Y386742D02*
X202762Y386742D01*
X202762Y388552D02*
X208478Y388552D01*
X208478Y390362D02*
X202762Y390362D01*
X202762Y392172D02*
X208478Y392172D01*
X208478Y393982D02*
X202762Y393982D01*
X202762Y395792D02*
X208478Y395792D01*
X208478Y397602D02*
X202762Y397602D01*
X202762Y334132D02*
X208478Y334132D01*
X202762Y334132D02*
X202762Y347468D01*
X208478Y347468D01*
X208478Y334132D01*
X208478Y335942D02*
X202762Y335942D01*
X202762Y337752D02*
X208478Y337752D01*
X208478Y339562D02*
X202762Y339562D01*
X202762Y341372D02*
X208478Y341372D01*
X208478Y343182D02*
X202762Y343182D01*
X202762Y344992D02*
X208478Y344992D01*
X208478Y346802D02*
X202762Y346802D01*
X170378Y384932D02*
X164662Y384932D01*
X164662Y398268D01*
X170378Y398268D01*
X170378Y384932D01*
X170378Y386742D02*
X164662Y386742D01*
X164662Y388552D02*
X170378Y388552D01*
X170378Y390362D02*
X164662Y390362D01*
X164662Y392172D02*
X170378Y392172D01*
X170378Y393982D02*
X164662Y393982D01*
X164662Y395792D02*
X170378Y395792D01*
X170378Y397602D02*
X164662Y397602D01*
X164662Y334132D02*
X170378Y334132D01*
X164662Y334132D02*
X164662Y347468D01*
X170378Y347468D01*
X170378Y334132D01*
X170378Y335942D02*
X164662Y335942D01*
X164662Y337752D02*
X170378Y337752D01*
X170378Y339562D02*
X164662Y339562D01*
X164662Y341372D02*
X170378Y341372D01*
X170378Y343182D02*
X164662Y343182D01*
X164662Y344992D02*
X170378Y344992D01*
X170378Y346802D02*
X164662Y346802D01*
D18*
X792140Y362250D02*
X798140Y362250D01*
X792140Y362250D02*
X792140Y364250D01*
X798140Y364250D01*
X798140Y362250D01*
X798140Y364150D02*
X792140Y364150D01*
X792140Y355750D02*
X798140Y355750D01*
X792140Y355750D02*
X792140Y357750D01*
X798140Y357750D01*
X798140Y355750D01*
X798140Y357650D02*
X792140Y357650D01*
X792140Y349250D02*
X798140Y349250D01*
X792140Y349250D02*
X792140Y351250D01*
X798140Y351250D01*
X798140Y349250D01*
X798140Y351150D02*
X792140Y351150D01*
X792140Y342750D02*
X798140Y342750D01*
X792140Y342750D02*
X792140Y344750D01*
X798140Y344750D01*
X798140Y342750D01*
X798140Y344650D02*
X792140Y344650D01*
X822140Y342750D02*
X828140Y342750D01*
X822140Y342750D02*
X822140Y344750D01*
X828140Y344750D01*
X828140Y342750D01*
X828140Y344650D02*
X822140Y344650D01*
X822140Y349250D02*
X828140Y349250D01*
X822140Y349250D02*
X822140Y351250D01*
X828140Y351250D01*
X828140Y349250D01*
X828140Y351150D02*
X822140Y351150D01*
X822140Y355750D02*
X828140Y355750D01*
X822140Y355750D02*
X822140Y357750D01*
X828140Y357750D01*
X828140Y355750D01*
X828140Y357650D02*
X822140Y357650D01*
X822140Y362250D02*
X828140Y362250D01*
X822140Y362250D02*
X822140Y364250D01*
X828140Y364250D01*
X828140Y362250D01*
X828140Y364150D02*
X822140Y364150D01*
D46*
X807600Y362390D03*
X816490Y362390D03*
X807600Y353500D03*
X816490Y353500D03*
X807600Y344610D03*
X816490Y344610D03*
D47*
X810144Y368577D03*
D48*
X810149Y338622D03*
D49*
X811410Y352230D02*
X808870Y352230D01*
X808870Y354770D01*
X811410Y354770D01*
X811410Y352230D01*
X811410Y354643D02*
X808870Y354643D01*
D50*
X809346Y380964D02*
X816014Y380964D01*
X816014Y374296D01*
X809346Y374296D01*
X809346Y380964D01*
X809346Y376408D02*
X816014Y376408D01*
X816014Y378520D02*
X809346Y378520D01*
X809346Y380632D02*
X816014Y380632D01*
X800774Y380964D02*
X794106Y380964D01*
X800774Y380964D02*
X800774Y374296D01*
X794106Y374296D01*
X794106Y380964D01*
X794106Y376408D02*
X800774Y376408D01*
X800774Y378520D02*
X794106Y378520D01*
X794106Y380632D02*
X800774Y380632D01*
D18*
X634080Y354570D02*
X634080Y348570D01*
X634080Y354570D02*
X641080Y354570D01*
X641080Y348570D01*
X634080Y348570D01*
X634080Y350470D02*
X641080Y350470D01*
X641080Y352370D02*
X634080Y352370D01*
X634080Y354270D02*
X641080Y354270D01*
X634080Y335570D02*
X634080Y329570D01*
X634080Y335570D02*
X641080Y335570D01*
X641080Y329570D01*
X634080Y329570D01*
X634080Y331470D02*
X641080Y331470D01*
X641080Y333370D02*
X634080Y333370D01*
X634080Y335270D02*
X641080Y335270D01*
X655080Y339070D02*
X655080Y345070D01*
X662080Y345070D01*
X662080Y339070D01*
X655080Y339070D01*
X655080Y340970D02*
X662080Y340970D01*
X662080Y342870D02*
X655080Y342870D01*
X655080Y344770D02*
X662080Y344770D01*
D50*
X636182Y362866D02*
X629514Y362866D01*
X629514Y369534D01*
X636182Y369534D01*
X636182Y362866D01*
X636182Y364978D02*
X629514Y364978D01*
X629514Y367090D02*
X636182Y367090D01*
X636182Y369202D02*
X629514Y369202D01*
X644754Y362866D02*
X651422Y362866D01*
X644754Y362866D02*
X644754Y369534D01*
X651422Y369534D01*
X651422Y362866D01*
X651422Y364978D02*
X644754Y364978D01*
X644754Y367090D02*
X651422Y367090D01*
X651422Y369202D02*
X644754Y369202D01*
X678346Y333974D02*
X678346Y327306D01*
X671678Y327306D01*
X671678Y333974D01*
X678346Y333974D01*
X678346Y329418D02*
X671678Y329418D01*
X671678Y331530D02*
X678346Y331530D01*
X678346Y333642D02*
X671678Y333642D01*
X678346Y342546D02*
X678346Y349214D01*
X678346Y342546D02*
X671678Y342546D01*
X671678Y349214D01*
X678346Y349214D01*
X678346Y344658D02*
X671678Y344658D01*
X671678Y346770D02*
X678346Y346770D01*
X678346Y348882D02*
X671678Y348882D01*
X691046Y333974D02*
X691046Y327306D01*
X684378Y327306D01*
X684378Y333974D01*
X691046Y333974D01*
X691046Y329418D02*
X684378Y329418D01*
X684378Y331530D02*
X691046Y331530D01*
X691046Y333642D02*
X684378Y333642D01*
X691046Y342546D02*
X691046Y349214D01*
X691046Y342546D02*
X684378Y342546D01*
X684378Y349214D01*
X691046Y349214D01*
X691046Y344658D02*
X684378Y344658D01*
X684378Y346770D02*
X691046Y346770D01*
X691046Y348882D02*
X684378Y348882D01*
X628054Y389854D02*
X621386Y389854D01*
X628054Y389854D02*
X628054Y383186D01*
X621386Y383186D01*
X621386Y389854D01*
X621386Y385298D02*
X628054Y385298D01*
X628054Y387410D02*
X621386Y387410D01*
X621386Y389522D02*
X628054Y389522D01*
X612814Y389854D02*
X606146Y389854D01*
X612814Y389854D02*
X612814Y383186D01*
X606146Y383186D01*
X606146Y389854D01*
X606146Y385298D02*
X612814Y385298D01*
X612814Y387410D02*
X606146Y387410D01*
X606146Y389522D02*
X612814Y389522D01*
X662026Y394362D02*
X668694Y394362D01*
X662026Y394362D02*
X662026Y401030D01*
X668694Y401030D01*
X668694Y394362D01*
X668694Y396474D02*
X662026Y396474D01*
X662026Y398586D02*
X668694Y398586D01*
X668694Y400698D02*
X662026Y400698D01*
X677266Y394362D02*
X683934Y394362D01*
X677266Y394362D02*
X677266Y401030D01*
X683934Y401030D01*
X683934Y394362D01*
X683934Y396474D02*
X677266Y396474D01*
X677266Y398586D02*
X683934Y398586D01*
X683934Y400698D02*
X677266Y400698D01*
D51*
X934755Y395075D02*
X934755Y382325D01*
X934755Y395075D02*
X941505Y395075D01*
X941505Y382325D01*
X934755Y382325D01*
X934755Y384462D02*
X941505Y384462D01*
X941505Y386599D02*
X934755Y386599D01*
X934755Y388736D02*
X941505Y388736D01*
X941505Y390873D02*
X934755Y390873D01*
X934755Y393010D02*
X941505Y393010D01*
X899755Y395075D02*
X899755Y382325D01*
X899755Y395075D02*
X906505Y395075D01*
X906505Y382325D01*
X899755Y382325D01*
X899755Y384462D02*
X906505Y384462D01*
X906505Y386599D02*
X899755Y386599D01*
X899755Y388736D02*
X906505Y388736D01*
X906505Y390873D02*
X899755Y390873D01*
X899755Y393010D02*
X906505Y393010D01*
X899755Y350075D02*
X899755Y337325D01*
X899755Y350075D02*
X906505Y350075D01*
X906505Y337325D01*
X899755Y337325D01*
X899755Y339462D02*
X906505Y339462D01*
X906505Y341599D02*
X899755Y341599D01*
X899755Y343736D02*
X906505Y343736D01*
X906505Y345873D02*
X899755Y345873D01*
X899755Y348010D02*
X906505Y348010D01*
D50*
X515024Y341276D02*
X508356Y341276D01*
X508356Y347944D01*
X515024Y347944D01*
X515024Y341276D01*
X515024Y343388D02*
X508356Y343388D01*
X508356Y345500D02*
X515024Y345500D01*
X515024Y347612D02*
X508356Y347612D01*
X523596Y341276D02*
X530264Y341276D01*
X523596Y341276D02*
X523596Y347944D01*
X530264Y347944D01*
X530264Y341276D01*
X530264Y343388D02*
X523596Y343388D01*
X523596Y345500D02*
X530264Y345500D01*
X530264Y347612D02*
X523596Y347612D01*
X515024Y323496D02*
X508356Y323496D01*
X508356Y330164D01*
X515024Y330164D01*
X515024Y323496D01*
X515024Y325608D02*
X508356Y325608D01*
X508356Y327720D02*
X515024Y327720D01*
X515024Y329832D02*
X508356Y329832D01*
X523596Y323496D02*
X530264Y323496D01*
X523596Y323496D02*
X523596Y330164D01*
X530264Y330164D01*
X530264Y323496D01*
X530264Y325608D02*
X523596Y325608D01*
X523596Y327720D02*
X530264Y327720D01*
X530264Y329832D02*
X523596Y329832D01*
X381356Y376836D02*
X381356Y383504D01*
X388024Y383504D01*
X388024Y376836D01*
X381356Y376836D01*
X381356Y378948D02*
X388024Y378948D01*
X388024Y381060D02*
X381356Y381060D01*
X381356Y383172D02*
X388024Y383172D01*
X381356Y368264D02*
X381356Y361596D01*
X381356Y368264D02*
X388024Y368264D01*
X388024Y361596D01*
X381356Y361596D01*
X381356Y363708D02*
X388024Y363708D01*
X388024Y365820D02*
X381356Y365820D01*
X381356Y367932D02*
X388024Y367932D01*
X388024Y389536D02*
X388024Y396204D01*
X388024Y389536D02*
X381356Y389536D01*
X381356Y396204D01*
X388024Y396204D01*
X388024Y391648D02*
X381356Y391648D01*
X381356Y393760D02*
X388024Y393760D01*
X388024Y395872D02*
X381356Y395872D01*
X388024Y404776D02*
X388024Y411444D01*
X388024Y404776D02*
X381356Y404776D01*
X381356Y411444D01*
X388024Y411444D01*
X388024Y406888D02*
X381356Y406888D01*
X381356Y409000D02*
X388024Y409000D01*
X388024Y411112D02*
X381356Y411112D01*
D18*
X412780Y393670D02*
X418780Y393670D01*
X418780Y386670D01*
X412780Y386670D01*
X412780Y393670D01*
X412780Y388570D02*
X418780Y388570D01*
X418780Y390470D02*
X412780Y390470D01*
X412780Y392370D02*
X418780Y392370D01*
X399780Y393670D02*
X393780Y393670D01*
X399780Y393670D02*
X399780Y386670D01*
X393780Y386670D01*
X393780Y393670D01*
X393780Y388570D02*
X399780Y388570D01*
X399780Y390470D02*
X393780Y390470D01*
X393780Y392370D02*
X399780Y392370D01*
X403280Y372670D02*
X409280Y372670D01*
X409280Y365670D01*
X403280Y365670D01*
X403280Y372670D01*
X403280Y367570D02*
X409280Y367570D01*
X409280Y369470D02*
X403280Y369470D01*
X403280Y371370D02*
X409280Y371370D01*
D50*
X410566Y406364D02*
X417234Y406364D01*
X417234Y399696D01*
X410566Y399696D01*
X410566Y406364D01*
X410566Y401808D02*
X417234Y401808D01*
X417234Y403920D02*
X410566Y403920D01*
X410566Y406032D02*
X417234Y406032D01*
X401994Y406364D02*
X395326Y406364D01*
X401994Y406364D02*
X401994Y399696D01*
X395326Y399696D01*
X395326Y406364D01*
X395326Y401808D02*
X401994Y401808D01*
X401994Y403920D02*
X395326Y403920D01*
X395326Y406032D02*
X401994Y406032D01*
D62*
X252928Y347468D02*
X247212Y347468D01*
X252928Y347468D02*
X252928Y334132D01*
X247212Y334132D01*
X247212Y347468D01*
X247212Y335942D02*
X252928Y335942D01*
X252928Y337752D02*
X247212Y337752D01*
X247212Y339562D02*
X252928Y339562D01*
X252928Y341372D02*
X247212Y341372D01*
X247212Y343182D02*
X252928Y343182D01*
X252928Y344992D02*
X247212Y344992D01*
X247212Y346802D02*
X252928Y346802D01*
X252928Y398268D02*
X247212Y398268D01*
X252928Y398268D02*
X252928Y384932D01*
X247212Y384932D01*
X247212Y398268D01*
X247212Y386742D02*
X252928Y386742D01*
X252928Y388552D02*
X247212Y388552D01*
X247212Y390362D02*
X252928Y390362D01*
X252928Y392172D02*
X247212Y392172D01*
X247212Y393982D02*
X252928Y393982D01*
X252928Y395792D02*
X247212Y395792D01*
X247212Y397602D02*
X252928Y397602D01*
X285312Y347468D02*
X291028Y347468D01*
X291028Y334132D01*
X285312Y334132D01*
X285312Y347468D01*
X285312Y335942D02*
X291028Y335942D01*
X291028Y337752D02*
X285312Y337752D01*
X285312Y339562D02*
X291028Y339562D01*
X291028Y341372D02*
X285312Y341372D01*
X285312Y343182D02*
X291028Y343182D01*
X291028Y344992D02*
X285312Y344992D01*
X285312Y346802D02*
X291028Y346802D01*
X291028Y398268D02*
X285312Y398268D01*
X291028Y398268D02*
X291028Y384932D01*
X285312Y384932D01*
X285312Y398268D01*
X285312Y386742D02*
X291028Y386742D01*
X291028Y388552D02*
X285312Y388552D01*
X285312Y390362D02*
X291028Y390362D01*
X291028Y392172D02*
X285312Y392172D01*
X285312Y393982D02*
X291028Y393982D01*
X291028Y395792D02*
X285312Y395792D01*
X285312Y397602D02*
X291028Y397602D01*
D50*
X301346Y356516D02*
X308014Y356516D01*
X301346Y356516D02*
X301346Y363184D01*
X308014Y363184D01*
X308014Y356516D01*
X308014Y358628D02*
X301346Y358628D01*
X301346Y360740D02*
X308014Y360740D01*
X308014Y362852D02*
X301346Y362852D01*
X316586Y356516D02*
X323254Y356516D01*
X316586Y356516D02*
X316586Y363184D01*
X323254Y363184D01*
X323254Y356516D01*
X323254Y358628D02*
X316586Y358628D01*
X316586Y360740D02*
X323254Y360740D01*
X323254Y362852D02*
X316586Y362852D01*
X308014Y376836D02*
X301346Y376836D01*
X301346Y383504D01*
X308014Y383504D01*
X308014Y376836D01*
X308014Y378948D02*
X301346Y378948D01*
X301346Y381060D02*
X308014Y381060D01*
X308014Y383172D02*
X301346Y383172D01*
X316586Y376836D02*
X323254Y376836D01*
X316586Y376836D02*
X316586Y383504D01*
X323254Y383504D01*
X323254Y376836D01*
X323254Y378948D02*
X316586Y378948D01*
X316586Y381060D02*
X323254Y381060D01*
X323254Y383172D02*
X316586Y383172D01*
X156884Y361914D02*
X156884Y355246D01*
X150216Y355246D01*
X150216Y361914D01*
X156884Y361914D01*
X156884Y357358D02*
X150216Y357358D01*
X150216Y359470D02*
X156884Y359470D01*
X156884Y361582D02*
X150216Y361582D01*
X156884Y370486D02*
X156884Y377154D01*
X156884Y370486D02*
X150216Y370486D01*
X150216Y377154D01*
X156884Y377154D01*
X156884Y372598D02*
X150216Y372598D01*
X150216Y374710D02*
X156884Y374710D01*
X156884Y376822D02*
X150216Y376822D01*
X144184Y361914D02*
X144184Y355246D01*
X137516Y355246D01*
X137516Y361914D01*
X144184Y361914D01*
X144184Y357358D02*
X137516Y357358D01*
X137516Y359470D02*
X144184Y359470D01*
X144184Y361582D02*
X137516Y361582D01*
X144184Y370486D02*
X144184Y377154D01*
X144184Y370486D02*
X137516Y370486D01*
X137516Y377154D01*
X144184Y377154D01*
X144184Y372598D02*
X137516Y372598D01*
X137516Y374710D02*
X144184Y374710D01*
X144184Y376822D02*
X137516Y376822D01*
M02*
