G04 EAGLE Gerber RS-274X export*
G75*
%MOMM*%
%FSLAX34Y34*%
%LPD*%
%INSolderpaste Top*%
%IPPOS*%
%AMOC8*
5,1,8,0,0,1.08239X$1,22.5*%
G01*
%ADD10C,0.127000*%
%ADD11C,0.222250*%
%ADD12C,0.550000*%
%ADD13C,0.225000*%
%ADD14R,1.050000X1.050000*%
%ADD15R,0.500000X0.500000*%
%ADD16C,0.184800*%
%ADD17C,0.369600*%
%ADD18C,0.363000*%
%ADD19C,0.254000*%
%ADD20C,0.200000*%
%ADD21C,0.285000*%
%ADD22C,0.350000*%
%ADD23C,0.150000*%
%ADD24C,0.165000*%
%ADD25R,0.508000X0.508000*%
%ADD26R,0.394284X0.220853*%
%ADD27R,0.394281X0.220850*%
%ADD28C,0.317500*%
%ADD29C,0.190500*%
%ADD30R,0.220853X0.394284*%
%ADD31R,0.220850X0.394281*%

G36*
X108085Y131754D02*
X108085Y131754D01*
X108088Y131751D01*
X109183Y131931D01*
X109189Y131937D01*
X109194Y131934D01*
X110222Y132353D01*
X110226Y132360D01*
X110231Y132358D01*
X111140Y132996D01*
X111143Y133003D01*
X111148Y133003D01*
X111892Y133826D01*
X111893Y133834D01*
X111899Y133835D01*
X112441Y134803D01*
X112440Y134812D01*
X112446Y134814D01*
X112759Y135878D01*
X112756Y135886D01*
X112761Y135889D01*
X112829Y136997D01*
X112825Y137004D01*
X112829Y137007D01*
X112659Y138115D01*
X112653Y138121D01*
X112656Y138126D01*
X112244Y139168D01*
X112237Y139172D01*
X112239Y139177D01*
X111605Y140102D01*
X111597Y140104D01*
X111598Y140110D01*
X110775Y140870D01*
X110766Y140871D01*
X110766Y140877D01*
X109794Y141434D01*
X109786Y141433D01*
X109784Y141439D01*
X108712Y141766D01*
X108704Y141763D01*
X108701Y141768D01*
X107584Y141849D01*
X107581Y141848D01*
X107580Y141849D01*
X95580Y141849D01*
X95577Y141847D01*
X95570Y141847D01*
X95569Y141848D01*
X94625Y141629D01*
X94619Y141623D01*
X94614Y141625D01*
X93742Y141202D01*
X93739Y141194D01*
X93733Y141196D01*
X92977Y140589D01*
X92975Y140581D01*
X92969Y140581D01*
X92368Y139821D01*
X92368Y139812D01*
X92362Y139811D01*
X91944Y138936D01*
X91946Y138928D01*
X91941Y138926D01*
X91729Y137980D01*
X91732Y137973D01*
X91727Y137969D01*
X91731Y137000D01*
X91731Y136999D01*
X91750Y135931D01*
X91755Y135924D01*
X91751Y135920D01*
X92007Y134883D01*
X92014Y134878D01*
X92011Y134872D01*
X92492Y133918D01*
X92499Y133915D01*
X92498Y133909D01*
X93179Y133086D01*
X93187Y133084D01*
X93187Y133078D01*
X94034Y132427D01*
X94042Y132427D01*
X94043Y132421D01*
X95014Y131974D01*
X95022Y131976D01*
X95024Y131971D01*
X96070Y131752D01*
X96077Y131755D01*
X96080Y131751D01*
X108080Y131751D01*
X108085Y131754D01*
G37*
G36*
X108085Y218155D02*
X108085Y218155D01*
X108088Y218151D01*
X109194Y218344D01*
X109199Y218349D01*
X109199Y218350D01*
X109204Y218347D01*
X110239Y218780D01*
X110243Y218787D01*
X110248Y218785D01*
X111161Y219438D01*
X111163Y219446D01*
X111169Y219445D01*
X111913Y220284D01*
X111914Y220293D01*
X111919Y220293D01*
X112458Y221277D01*
X112457Y221285D01*
X112458Y221286D01*
X112462Y221287D01*
X112463Y221289D01*
X112645Y221930D01*
X112769Y222366D01*
X112767Y222371D01*
X112769Y222373D01*
X112767Y222375D01*
X112771Y222377D01*
X112829Y223497D01*
X112826Y223502D01*
X112829Y223506D01*
X112711Y224551D01*
X112705Y224557D01*
X112709Y224562D01*
X112361Y225556D01*
X112354Y225560D01*
X112356Y225565D01*
X111796Y226457D01*
X111789Y226460D01*
X111789Y226465D01*
X111045Y227209D01*
X111037Y227211D01*
X111037Y227216D01*
X110145Y227776D01*
X110137Y227776D01*
X110136Y227781D01*
X109142Y228129D01*
X109134Y228126D01*
X109131Y228131D01*
X108086Y228249D01*
X108082Y228247D01*
X108080Y228249D01*
X96080Y228249D01*
X96077Y228247D01*
X96074Y228247D01*
X96072Y228249D01*
X95076Y228091D01*
X95070Y228085D01*
X95065Y228088D01*
X94129Y227713D01*
X94125Y227706D01*
X94119Y227708D01*
X93290Y227134D01*
X93287Y227126D01*
X93282Y227127D01*
X92601Y226383D01*
X92600Y226374D01*
X92594Y226374D01*
X92096Y225497D01*
X92097Y225489D01*
X92092Y225486D01*
X91904Y224862D01*
X91801Y224521D01*
X91802Y224518D01*
X91801Y224517D01*
X91804Y224513D01*
X91799Y224510D01*
X91731Y223503D01*
X91732Y223501D01*
X91731Y223500D01*
X91740Y222419D01*
X91745Y222412D01*
X91741Y222408D01*
X91991Y221356D01*
X91997Y221351D01*
X91994Y221346D01*
X92471Y220376D01*
X92479Y220373D01*
X92477Y220367D01*
X93158Y219528D01*
X93166Y219526D01*
X93166Y219520D01*
X94017Y218854D01*
X94025Y218853D01*
X94026Y218848D01*
X95003Y218387D01*
X95011Y218389D01*
X95014Y218384D01*
X96069Y218152D01*
X96077Y218155D01*
X96080Y218151D01*
X108080Y218151D01*
X108085Y218155D01*
G37*
G36*
X63284Y131754D02*
X63284Y131754D01*
X63286Y131751D01*
X64419Y131901D01*
X64425Y131907D01*
X64430Y131904D01*
X65500Y132302D01*
X65504Y132309D01*
X65510Y132307D01*
X66465Y132934D01*
X66468Y132942D01*
X66473Y132941D01*
X67265Y133764D01*
X67266Y133772D01*
X67272Y133773D01*
X67861Y134752D01*
X67860Y134760D01*
X67865Y134762D01*
X68221Y135847D01*
X68219Y135855D01*
X68223Y135858D01*
X68329Y136995D01*
X68324Y137004D01*
X68328Y137009D01*
X68121Y138146D01*
X68115Y138152D01*
X68118Y138157D01*
X67663Y139219D01*
X67656Y139223D01*
X67658Y139229D01*
X66978Y140164D01*
X66970Y140166D01*
X66971Y140172D01*
X66100Y140932D01*
X66092Y140932D01*
X66091Y140938D01*
X65072Y141485D01*
X65064Y141484D01*
X65062Y141489D01*
X63948Y141796D01*
X63940Y141793D01*
X63937Y141798D01*
X62782Y141849D01*
X62781Y141848D01*
X62780Y141849D01*
X56780Y141849D01*
X56777Y141847D01*
X56772Y141847D01*
X56771Y141848D01*
X55690Y141636D01*
X55685Y141630D01*
X55680Y141633D01*
X54674Y141186D01*
X54670Y141179D01*
X54664Y141181D01*
X53783Y140521D01*
X53780Y140513D01*
X53775Y140513D01*
X53062Y139674D01*
X53062Y139666D01*
X53056Y139665D01*
X52548Y138688D01*
X52549Y138680D01*
X52544Y138678D01*
X52266Y137613D01*
X52269Y137605D01*
X52265Y137602D01*
X52231Y136502D01*
X52235Y136496D01*
X52231Y136493D01*
X52386Y135418D01*
X52392Y135412D01*
X52389Y135407D01*
X52779Y134393D01*
X52786Y134389D01*
X52785Y134383D01*
X53391Y133481D01*
X53399Y133479D01*
X53398Y133473D01*
X54190Y132729D01*
X54198Y132728D01*
X54198Y132722D01*
X55136Y132173D01*
X55144Y132174D01*
X55146Y132168D01*
X56182Y131841D01*
X56190Y131844D01*
X56193Y131839D01*
X57276Y131751D01*
X57279Y131753D01*
X57280Y131751D01*
X63280Y131751D01*
X63284Y131754D01*
G37*
G36*
X63283Y218153D02*
X63283Y218153D01*
X63285Y218151D01*
X64377Y218252D01*
X64383Y218257D01*
X64388Y218254D01*
X65431Y218595D01*
X65436Y218602D01*
X65441Y218600D01*
X66382Y219164D01*
X66385Y219172D01*
X66391Y219171D01*
X67183Y219931D01*
X67184Y219939D01*
X67190Y219940D01*
X67793Y220857D01*
X67792Y220865D01*
X67798Y220867D01*
X68181Y221895D01*
X68179Y221903D01*
X68184Y221906D01*
X68329Y222994D01*
X68325Y223001D01*
X68329Y223005D01*
X68223Y224142D01*
X68218Y224148D01*
X68221Y224153D01*
X67865Y225238D01*
X67858Y225243D01*
X67861Y225248D01*
X67272Y226227D01*
X67264Y226230D01*
X67265Y226236D01*
X66473Y227059D01*
X66465Y227060D01*
X66465Y227066D01*
X65510Y227693D01*
X65502Y227692D01*
X65500Y227698D01*
X64430Y228096D01*
X64422Y228094D01*
X64419Y228099D01*
X63286Y228249D01*
X63283Y228247D01*
X63282Y228247D01*
X63280Y228249D01*
X57280Y228249D01*
X57277Y228247D01*
X57275Y228247D01*
X57274Y228249D01*
X56141Y228099D01*
X56135Y228093D01*
X56130Y228096D01*
X55060Y227698D01*
X55056Y227691D01*
X55050Y227693D01*
X54095Y227066D01*
X54092Y227058D01*
X54087Y227059D01*
X53295Y226236D01*
X53294Y226228D01*
X53288Y226227D01*
X52699Y225248D01*
X52700Y225240D01*
X52695Y225238D01*
X52339Y224153D01*
X52342Y224145D01*
X52337Y224142D01*
X52231Y223005D01*
X52235Y222998D01*
X52231Y222994D01*
X52376Y221906D01*
X52382Y221900D01*
X52379Y221895D01*
X52763Y220867D01*
X52769Y220862D01*
X52768Y220857D01*
X53370Y219940D01*
X53378Y219937D01*
X53377Y219931D01*
X54169Y219171D01*
X54177Y219170D01*
X54178Y219164D01*
X55119Y218600D01*
X55127Y218601D01*
X55129Y218595D01*
X56172Y218254D01*
X56180Y218256D01*
X56183Y218252D01*
X57276Y218151D01*
X57278Y218153D01*
X57280Y218151D01*
X63280Y218151D01*
X63283Y218153D01*
G37*
D10*
X950000Y-70000D02*
X50000Y-70000D01*
X0Y-20000D02*
X0Y880000D01*
X50000Y930000D02*
X950000Y930000D01*
X50000Y930000D02*
X48792Y929985D01*
X47584Y929942D01*
X46378Y929869D01*
X45174Y929767D01*
X43973Y929635D01*
X42776Y929475D01*
X41582Y929286D01*
X40394Y929069D01*
X39211Y928822D01*
X38034Y928547D01*
X36865Y928244D01*
X35703Y927912D01*
X34549Y927553D01*
X33405Y927166D01*
X32270Y926751D01*
X31145Y926309D01*
X30032Y925840D01*
X28930Y925344D01*
X27840Y924821D01*
X26764Y924273D01*
X25701Y923698D01*
X24652Y923098D01*
X23618Y922473D01*
X22599Y921824D01*
X21597Y921149D01*
X20611Y920451D01*
X19642Y919729D01*
X18691Y918984D01*
X17758Y918216D01*
X16844Y917426D01*
X15949Y916613D01*
X15074Y915780D01*
X14220Y914926D01*
X13387Y914051D01*
X12574Y913156D01*
X11784Y912242D01*
X11016Y911309D01*
X10271Y910358D01*
X9549Y909389D01*
X8851Y908403D01*
X8176Y907401D01*
X7527Y906382D01*
X6902Y905348D01*
X6302Y904299D01*
X5727Y903236D01*
X5179Y902160D01*
X4656Y901070D01*
X4160Y899968D01*
X3691Y898855D01*
X3249Y897730D01*
X2834Y896595D01*
X2447Y895451D01*
X2088Y894297D01*
X1756Y893135D01*
X1453Y891966D01*
X1178Y890789D01*
X931Y889606D01*
X714Y888418D01*
X525Y887224D01*
X365Y886027D01*
X233Y884826D01*
X131Y883622D01*
X58Y882416D01*
X15Y881208D01*
X0Y880000D01*
X0Y-20000D02*
X15Y-21208D01*
X58Y-22416D01*
X131Y-23622D01*
X233Y-24826D01*
X365Y-26027D01*
X525Y-27224D01*
X714Y-28418D01*
X931Y-29606D01*
X1178Y-30789D01*
X1453Y-31966D01*
X1756Y-33135D01*
X2088Y-34297D01*
X2447Y-35451D01*
X2834Y-36595D01*
X3249Y-37730D01*
X3691Y-38855D01*
X4160Y-39968D01*
X4656Y-41070D01*
X5179Y-42160D01*
X5727Y-43236D01*
X6302Y-44299D01*
X6902Y-45348D01*
X7527Y-46382D01*
X8176Y-47401D01*
X8851Y-48403D01*
X9549Y-49389D01*
X10271Y-50358D01*
X11016Y-51309D01*
X11784Y-52242D01*
X12574Y-53156D01*
X13387Y-54051D01*
X14220Y-54926D01*
X15074Y-55780D01*
X15949Y-56613D01*
X16844Y-57426D01*
X17758Y-58216D01*
X18691Y-58984D01*
X19642Y-59729D01*
X20611Y-60451D01*
X21597Y-61149D01*
X22599Y-61824D01*
X23618Y-62473D01*
X24652Y-63098D01*
X25701Y-63698D01*
X26764Y-64273D01*
X27840Y-64821D01*
X28930Y-65344D01*
X30032Y-65840D01*
X31145Y-66309D01*
X32270Y-66751D01*
X33405Y-67166D01*
X34549Y-67553D01*
X35703Y-67912D01*
X36865Y-68244D01*
X38034Y-68547D01*
X39211Y-68822D01*
X40394Y-69069D01*
X41582Y-69286D01*
X42776Y-69475D01*
X43973Y-69635D01*
X45174Y-69767D01*
X46378Y-69869D01*
X47584Y-69942D01*
X48792Y-69985D01*
X50000Y-70000D01*
X950000Y-70000D02*
X951208Y-69985D01*
X952416Y-69942D01*
X953622Y-69869D01*
X954826Y-69767D01*
X956027Y-69635D01*
X957224Y-69475D01*
X958418Y-69286D01*
X959606Y-69069D01*
X960789Y-68822D01*
X961966Y-68547D01*
X963135Y-68244D01*
X964297Y-67912D01*
X965451Y-67553D01*
X966595Y-67166D01*
X967730Y-66751D01*
X968855Y-66309D01*
X969968Y-65840D01*
X971070Y-65344D01*
X972160Y-64821D01*
X973236Y-64273D01*
X974299Y-63698D01*
X975348Y-63098D01*
X976382Y-62473D01*
X977401Y-61824D01*
X978403Y-61149D01*
X979389Y-60451D01*
X980358Y-59729D01*
X981309Y-58984D01*
X982242Y-58216D01*
X983156Y-57426D01*
X984051Y-56613D01*
X984926Y-55780D01*
X985780Y-54926D01*
X986613Y-54051D01*
X987426Y-53156D01*
X988216Y-52242D01*
X988984Y-51309D01*
X989729Y-50358D01*
X990451Y-49389D01*
X991149Y-48403D01*
X991824Y-47401D01*
X992473Y-46382D01*
X993098Y-45348D01*
X993698Y-44299D01*
X994273Y-43236D01*
X994821Y-42160D01*
X995344Y-41070D01*
X995840Y-39968D01*
X996309Y-38855D01*
X996751Y-37730D01*
X997166Y-36595D01*
X997553Y-35451D01*
X997912Y-34297D01*
X998244Y-33135D01*
X998547Y-31966D01*
X998822Y-30789D01*
X999069Y-29606D01*
X999286Y-28418D01*
X999475Y-27224D01*
X999635Y-26027D01*
X999767Y-24826D01*
X999869Y-23622D01*
X999942Y-22416D01*
X999985Y-21208D01*
X1000000Y-20000D01*
X1000000Y880000D01*
X999985Y881208D01*
X999942Y882416D01*
X999869Y883622D01*
X999767Y884826D01*
X999635Y886027D01*
X999475Y887224D01*
X999286Y888418D01*
X999069Y889606D01*
X998822Y890789D01*
X998547Y891966D01*
X998244Y893135D01*
X997912Y894297D01*
X997553Y895451D01*
X997166Y896595D01*
X996751Y897730D01*
X996309Y898855D01*
X995840Y899968D01*
X995344Y901070D01*
X994821Y902160D01*
X994273Y903236D01*
X993698Y904299D01*
X993098Y905348D01*
X992473Y906382D01*
X991824Y907401D01*
X991149Y908403D01*
X990451Y909389D01*
X989729Y910358D01*
X988984Y911309D01*
X988216Y912242D01*
X987426Y913156D01*
X986613Y914051D01*
X985780Y914926D01*
X984926Y915780D01*
X984051Y916613D01*
X983156Y917426D01*
X982242Y918216D01*
X981309Y918984D01*
X980358Y919729D01*
X979389Y920451D01*
X978403Y921149D01*
X977401Y921824D01*
X976382Y922473D01*
X975348Y923098D01*
X974299Y923698D01*
X973236Y924273D01*
X972160Y924821D01*
X971070Y925344D01*
X969968Y925840D01*
X968855Y926309D01*
X967730Y926751D01*
X966595Y927166D01*
X965451Y927553D01*
X964297Y927912D01*
X963135Y928244D01*
X961966Y928547D01*
X960789Y928822D01*
X959606Y929069D01*
X958418Y929286D01*
X957224Y929475D01*
X956027Y929635D01*
X954826Y929767D01*
X953622Y929869D01*
X952416Y929942D01*
X951208Y929985D01*
X950000Y930000D01*
D11*
X209546Y165554D02*
X209546Y158886D01*
X209546Y165554D02*
X216214Y165554D01*
X216214Y158886D01*
X209546Y158886D01*
X209546Y160998D02*
X216214Y160998D01*
X216214Y163110D02*
X209546Y163110D01*
X209546Y165222D02*
X216214Y165222D01*
X209546Y150314D02*
X209546Y143646D01*
X209546Y150314D02*
X216214Y150314D01*
X216214Y143646D01*
X209546Y143646D01*
X209546Y145758D02*
X216214Y145758D01*
X216214Y147870D02*
X209546Y147870D01*
X209546Y149982D02*
X216214Y149982D01*
X817876Y202066D02*
X817876Y208734D01*
X824544Y208734D01*
X824544Y202066D01*
X817876Y202066D01*
X817876Y204178D02*
X824544Y204178D01*
X824544Y206290D02*
X817876Y206290D01*
X817876Y208402D02*
X824544Y208402D01*
X817876Y193494D02*
X817876Y186826D01*
X817876Y193494D02*
X824544Y193494D01*
X824544Y186826D01*
X817876Y186826D01*
X817876Y188938D02*
X824544Y188938D01*
X824544Y191050D02*
X817876Y191050D01*
X817876Y193162D02*
X824544Y193162D01*
D12*
X850320Y195250D02*
X850320Y187750D01*
X850320Y195250D02*
X855820Y195250D01*
X855820Y187750D01*
X850320Y187750D01*
X850320Y192975D02*
X855820Y192975D01*
X832320Y172250D02*
X832320Y164750D01*
X832320Y172250D02*
X837820Y172250D01*
X837820Y164750D01*
X832320Y164750D01*
X832320Y169975D02*
X837820Y169975D01*
X850320Y172250D02*
X850320Y164750D01*
X850320Y172250D02*
X855820Y172250D01*
X855820Y164750D01*
X850320Y164750D01*
X850320Y169975D02*
X855820Y169975D01*
X832320Y187750D02*
X832320Y195250D01*
X837820Y195250D01*
X837820Y187750D01*
X832320Y187750D01*
X832320Y192975D02*
X837820Y192975D01*
D11*
X824544Y157934D02*
X824544Y151266D01*
X817876Y151266D01*
X817876Y157934D01*
X824544Y157934D01*
X824544Y153378D02*
X817876Y153378D01*
X817876Y155490D02*
X824544Y155490D01*
X824544Y157602D02*
X817876Y157602D01*
X824544Y166506D02*
X824544Y173174D01*
X824544Y166506D02*
X817876Y166506D01*
X817876Y173174D01*
X824544Y173174D01*
X824544Y168618D02*
X817876Y168618D01*
X817876Y170730D02*
X824544Y170730D01*
X824544Y172842D02*
X817876Y172842D01*
X193354Y185556D02*
X186686Y185556D01*
X186686Y192224D01*
X193354Y192224D01*
X193354Y185556D01*
X193354Y187668D02*
X186686Y187668D01*
X186686Y189780D02*
X193354Y189780D01*
X193354Y191892D02*
X186686Y191892D01*
X201926Y185556D02*
X208594Y185556D01*
X201926Y185556D02*
X201926Y192224D01*
X208594Y192224D01*
X208594Y185556D01*
X208594Y187668D02*
X201926Y187668D01*
X201926Y189780D02*
X208594Y189780D01*
X208594Y191892D02*
X201926Y191892D01*
X193354Y198256D02*
X186686Y198256D01*
X186686Y204924D01*
X193354Y204924D01*
X193354Y198256D01*
X193354Y200368D02*
X186686Y200368D01*
X186686Y202480D02*
X193354Y202480D01*
X193354Y204592D02*
X186686Y204592D01*
X201926Y198256D02*
X208594Y198256D01*
X201926Y198256D02*
X201926Y204924D01*
X208594Y204924D01*
X208594Y198256D01*
X208594Y200368D02*
X201926Y200368D01*
X201926Y202480D02*
X208594Y202480D01*
X208594Y204592D02*
X201926Y204592D01*
X833116Y223974D02*
X839784Y223974D01*
X839784Y217306D01*
X833116Y217306D01*
X833116Y223974D01*
X833116Y219418D02*
X839784Y219418D01*
X839784Y221530D02*
X833116Y221530D01*
X833116Y223642D02*
X839784Y223642D01*
X824544Y223974D02*
X817876Y223974D01*
X824544Y223974D02*
X824544Y217306D01*
X817876Y217306D01*
X817876Y223974D01*
X817876Y219418D02*
X824544Y219418D01*
X824544Y221530D02*
X817876Y221530D01*
X817876Y223642D02*
X824544Y223642D01*
X688654Y144662D02*
X681986Y144662D01*
X681986Y151330D01*
X688654Y151330D01*
X688654Y144662D01*
X688654Y146774D02*
X681986Y146774D01*
X681986Y148886D02*
X688654Y148886D01*
X688654Y150998D02*
X681986Y150998D01*
X697226Y144662D02*
X703894Y144662D01*
X697226Y144662D02*
X697226Y151330D01*
X703894Y151330D01*
X703894Y144662D01*
X703894Y146774D02*
X697226Y146774D01*
X697226Y148886D02*
X703894Y148886D01*
X703894Y150998D02*
X697226Y150998D01*
X817876Y136026D02*
X824544Y136026D01*
X817876Y136026D02*
X817876Y142694D01*
X824544Y142694D01*
X824544Y136026D01*
X824544Y138138D02*
X817876Y138138D01*
X817876Y140250D02*
X824544Y140250D01*
X824544Y142362D02*
X817876Y142362D01*
X833116Y136026D02*
X839784Y136026D01*
X833116Y136026D02*
X833116Y142694D01*
X839784Y142694D01*
X839784Y136026D01*
X839784Y138138D02*
X833116Y138138D01*
X833116Y140250D02*
X839784Y140250D01*
X839784Y142362D02*
X833116Y142362D01*
D13*
X739475Y142125D02*
X739475Y147875D01*
X739475Y142125D02*
X738725Y142125D01*
X738725Y147875D01*
X739475Y147875D01*
X739475Y144262D02*
X738725Y144262D01*
X738725Y146399D02*
X739475Y146399D01*
X744475Y147875D02*
X744475Y142125D01*
X743725Y142125D01*
X743725Y147875D01*
X744475Y147875D01*
X744475Y144262D02*
X743725Y144262D01*
X743725Y146399D02*
X744475Y146399D01*
X749475Y147875D02*
X749475Y142125D01*
X748725Y142125D01*
X748725Y147875D01*
X749475Y147875D01*
X749475Y144262D02*
X748725Y144262D01*
X748725Y146399D02*
X749475Y146399D01*
X754475Y147875D02*
X754475Y142125D01*
X753725Y142125D01*
X753725Y147875D01*
X754475Y147875D01*
X754475Y144262D02*
X753725Y144262D01*
X753725Y146399D02*
X754475Y146399D01*
X759475Y147875D02*
X759475Y142125D01*
X758725Y142125D01*
X758725Y147875D01*
X759475Y147875D01*
X759475Y144262D02*
X758725Y144262D01*
X758725Y146399D02*
X759475Y146399D01*
X764475Y147875D02*
X764475Y142125D01*
X763725Y142125D01*
X763725Y147875D01*
X764475Y147875D01*
X764475Y144262D02*
X763725Y144262D01*
X763725Y146399D02*
X764475Y146399D01*
X769475Y147875D02*
X769475Y142125D01*
X768725Y142125D01*
X768725Y147875D01*
X769475Y147875D01*
X769475Y144262D02*
X768725Y144262D01*
X768725Y146399D02*
X769475Y146399D01*
X774475Y147875D02*
X774475Y142125D01*
X773725Y142125D01*
X773725Y147875D01*
X774475Y147875D01*
X774475Y144262D02*
X773725Y144262D01*
X773725Y146399D02*
X774475Y146399D01*
X779475Y147875D02*
X779475Y142125D01*
X778725Y142125D01*
X778725Y147875D01*
X779475Y147875D01*
X779475Y144262D02*
X778725Y144262D01*
X778725Y146399D02*
X779475Y146399D01*
X784475Y147875D02*
X784475Y142125D01*
X783725Y142125D01*
X783725Y147875D01*
X784475Y147875D01*
X784475Y144262D02*
X783725Y144262D01*
X783725Y146399D02*
X784475Y146399D01*
X789475Y147875D02*
X789475Y142125D01*
X788725Y142125D01*
X788725Y147875D01*
X789475Y147875D01*
X789475Y144262D02*
X788725Y144262D01*
X788725Y146399D02*
X789475Y146399D01*
X794475Y147875D02*
X794475Y142125D01*
X793725Y142125D01*
X793725Y147875D01*
X794475Y147875D01*
X794475Y144262D02*
X793725Y144262D01*
X793725Y146399D02*
X794475Y146399D01*
X798725Y152875D02*
X804475Y152875D01*
X804475Y152125D01*
X798725Y152125D01*
X798725Y152875D01*
X798725Y157875D02*
X804475Y157875D01*
X804475Y157125D01*
X798725Y157125D01*
X798725Y157875D01*
X798725Y162875D02*
X804475Y162875D01*
X804475Y162125D01*
X798725Y162125D01*
X798725Y162875D01*
X798725Y167875D02*
X804475Y167875D01*
X804475Y167125D01*
X798725Y167125D01*
X798725Y167875D01*
X798725Y172875D02*
X804475Y172875D01*
X804475Y172125D01*
X798725Y172125D01*
X798725Y172875D01*
X798725Y177875D02*
X804475Y177875D01*
X804475Y177125D01*
X798725Y177125D01*
X798725Y177875D01*
X798725Y182875D02*
X804475Y182875D01*
X804475Y182125D01*
X798725Y182125D01*
X798725Y182875D01*
X798725Y187875D02*
X804475Y187875D01*
X804475Y187125D01*
X798725Y187125D01*
X798725Y187875D01*
X798725Y192875D02*
X804475Y192875D01*
X804475Y192125D01*
X798725Y192125D01*
X798725Y192875D01*
X798725Y197875D02*
X804475Y197875D01*
X804475Y197125D01*
X798725Y197125D01*
X798725Y197875D01*
X798725Y202875D02*
X804475Y202875D01*
X804475Y202125D01*
X798725Y202125D01*
X798725Y202875D01*
X798725Y207875D02*
X804475Y207875D01*
X804475Y207125D01*
X798725Y207125D01*
X798725Y207875D01*
X793725Y212125D02*
X793725Y217875D01*
X794475Y217875D01*
X794475Y212125D01*
X793725Y212125D01*
X793725Y214262D02*
X794475Y214262D01*
X794475Y216399D02*
X793725Y216399D01*
X788725Y217875D02*
X788725Y212125D01*
X788725Y217875D02*
X789475Y217875D01*
X789475Y212125D01*
X788725Y212125D01*
X788725Y214262D02*
X789475Y214262D01*
X789475Y216399D02*
X788725Y216399D01*
X783725Y217875D02*
X783725Y212125D01*
X783725Y217875D02*
X784475Y217875D01*
X784475Y212125D01*
X783725Y212125D01*
X783725Y214262D02*
X784475Y214262D01*
X784475Y216399D02*
X783725Y216399D01*
X778725Y217875D02*
X778725Y212125D01*
X778725Y217875D02*
X779475Y217875D01*
X779475Y212125D01*
X778725Y212125D01*
X778725Y214262D02*
X779475Y214262D01*
X779475Y216399D02*
X778725Y216399D01*
X773725Y217875D02*
X773725Y212125D01*
X773725Y217875D02*
X774475Y217875D01*
X774475Y212125D01*
X773725Y212125D01*
X773725Y214262D02*
X774475Y214262D01*
X774475Y216399D02*
X773725Y216399D01*
X768725Y217875D02*
X768725Y212125D01*
X768725Y217875D02*
X769475Y217875D01*
X769475Y212125D01*
X768725Y212125D01*
X768725Y214262D02*
X769475Y214262D01*
X769475Y216399D02*
X768725Y216399D01*
X763725Y217875D02*
X763725Y212125D01*
X763725Y217875D02*
X764475Y217875D01*
X764475Y212125D01*
X763725Y212125D01*
X763725Y214262D02*
X764475Y214262D01*
X764475Y216399D02*
X763725Y216399D01*
X758725Y217875D02*
X758725Y212125D01*
X758725Y217875D02*
X759475Y217875D01*
X759475Y212125D01*
X758725Y212125D01*
X758725Y214262D02*
X759475Y214262D01*
X759475Y216399D02*
X758725Y216399D01*
X753725Y217875D02*
X753725Y212125D01*
X753725Y217875D02*
X754475Y217875D01*
X754475Y212125D01*
X753725Y212125D01*
X753725Y214262D02*
X754475Y214262D01*
X754475Y216399D02*
X753725Y216399D01*
X748725Y217875D02*
X748725Y212125D01*
X748725Y217875D02*
X749475Y217875D01*
X749475Y212125D01*
X748725Y212125D01*
X748725Y214262D02*
X749475Y214262D01*
X749475Y216399D02*
X748725Y216399D01*
X743725Y217875D02*
X743725Y212125D01*
X743725Y217875D02*
X744475Y217875D01*
X744475Y212125D01*
X743725Y212125D01*
X743725Y214262D02*
X744475Y214262D01*
X744475Y216399D02*
X743725Y216399D01*
X738725Y217875D02*
X738725Y212125D01*
X738725Y217875D02*
X739475Y217875D01*
X739475Y212125D01*
X738725Y212125D01*
X738725Y214262D02*
X739475Y214262D01*
X739475Y216399D02*
X738725Y216399D01*
X734475Y207125D02*
X728725Y207125D01*
X728725Y207875D01*
X734475Y207875D01*
X734475Y207125D01*
X734475Y202125D02*
X728725Y202125D01*
X728725Y202875D01*
X734475Y202875D01*
X734475Y202125D01*
X734475Y197125D02*
X728725Y197125D01*
X728725Y197875D01*
X734475Y197875D01*
X734475Y197125D01*
X734475Y192125D02*
X728725Y192125D01*
X728725Y192875D01*
X734475Y192875D01*
X734475Y192125D01*
X734475Y187125D02*
X728725Y187125D01*
X728725Y187875D01*
X734475Y187875D01*
X734475Y187125D01*
X734475Y182125D02*
X728725Y182125D01*
X728725Y182875D01*
X734475Y182875D01*
X734475Y182125D01*
X734475Y177125D02*
X728725Y177125D01*
X728725Y177875D01*
X734475Y177875D01*
X734475Y177125D01*
X734475Y172125D02*
X728725Y172125D01*
X728725Y172875D01*
X734475Y172875D01*
X734475Y172125D01*
X734475Y167125D02*
X728725Y167125D01*
X728725Y167875D01*
X734475Y167875D01*
X734475Y167125D01*
X734475Y162125D02*
X728725Y162125D01*
X728725Y162875D01*
X734475Y162875D01*
X734475Y162125D01*
X734475Y157125D02*
X728725Y157125D01*
X728725Y157875D01*
X734475Y157875D01*
X734475Y157125D01*
X734475Y152125D02*
X728725Y152125D01*
X728725Y152875D01*
X734475Y152875D01*
X734475Y152125D01*
D14*
X786850Y159750D03*
X773350Y159750D03*
X786850Y173250D03*
X773350Y173250D03*
X759850Y159750D03*
X746350Y159750D03*
X759850Y173250D03*
X746350Y173250D03*
X786850Y186750D03*
X773350Y186750D03*
X786850Y200250D03*
X773350Y200250D03*
X759850Y186750D03*
X746350Y186750D03*
X759850Y200250D03*
X746350Y200250D03*
D13*
X427965Y169625D02*
X427965Y166075D01*
X427215Y166075D01*
X427215Y169625D01*
X427965Y169625D01*
X427965Y168212D02*
X427215Y168212D01*
X432965Y169625D02*
X432965Y166075D01*
X432215Y166075D01*
X432215Y169625D01*
X432965Y169625D01*
X432965Y168212D02*
X432215Y168212D01*
X437965Y169625D02*
X437965Y166075D01*
X437215Y166075D01*
X437215Y169625D01*
X437965Y169625D01*
X437965Y168212D02*
X437215Y168212D01*
X442965Y172875D02*
X446515Y172875D01*
X446515Y172125D01*
X442965Y172125D01*
X442965Y172875D01*
X442965Y177875D02*
X446515Y177875D01*
X446515Y177125D01*
X442965Y177125D01*
X442965Y177875D01*
X442965Y182875D02*
X446515Y182875D01*
X446515Y182125D01*
X442965Y182125D01*
X442965Y182875D01*
X442965Y187875D02*
X446515Y187875D01*
X446515Y187125D01*
X442965Y187125D01*
X442965Y187875D01*
X437215Y190375D02*
X437215Y193925D01*
X437965Y193925D01*
X437965Y190375D01*
X437215Y190375D01*
X437215Y192512D02*
X437965Y192512D01*
X432215Y193925D02*
X432215Y190375D01*
X432215Y193925D02*
X432965Y193925D01*
X432965Y190375D01*
X432215Y190375D01*
X432215Y192512D02*
X432965Y192512D01*
X427215Y193925D02*
X427215Y190375D01*
X427215Y193925D02*
X427965Y193925D01*
X427965Y190375D01*
X427215Y190375D01*
X427215Y192512D02*
X427965Y192512D01*
X422215Y187125D02*
X418665Y187125D01*
X418665Y187875D01*
X422215Y187875D01*
X422215Y187125D01*
X422215Y182125D02*
X418665Y182125D01*
X418665Y182875D01*
X422215Y182875D01*
X422215Y182125D01*
X422215Y177125D02*
X418665Y177125D01*
X418665Y177875D01*
X422215Y177875D01*
X422215Y177125D01*
X422215Y172125D02*
X418665Y172125D01*
X418665Y172875D01*
X422215Y172875D01*
X422215Y172125D01*
D15*
X429090Y183500D03*
X429090Y176500D03*
X436090Y176500D03*
X436090Y183500D03*
D16*
X103804Y172976D02*
X103804Y172024D01*
X103804Y172976D02*
X111956Y172976D01*
X111956Y172024D01*
X103804Y172024D01*
X103804Y177024D02*
X103804Y177976D01*
X111956Y177976D01*
X111956Y177024D01*
X103804Y177024D01*
D17*
X104728Y148702D02*
X104728Y146798D01*
X104728Y148702D02*
X111032Y148702D01*
X111032Y146798D01*
X104728Y146798D01*
X104728Y154548D02*
X104728Y156452D01*
X111032Y156452D01*
X111032Y154548D01*
X104728Y154548D01*
D16*
X103804Y162024D02*
X103804Y162976D01*
X111956Y162976D01*
X111956Y162024D01*
X103804Y162024D01*
X103804Y167024D02*
X103804Y167976D01*
X111956Y167976D01*
X111956Y167024D01*
X103804Y167024D01*
X111956Y187024D02*
X111956Y187976D01*
X111956Y187024D02*
X103804Y187024D01*
X103804Y187976D01*
X111956Y187976D01*
X111956Y182976D02*
X111956Y182024D01*
X103804Y182024D01*
X103804Y182976D01*
X111956Y182976D01*
D17*
X111032Y211298D02*
X111032Y213202D01*
X111032Y211298D02*
X104728Y211298D01*
X104728Y213202D01*
X111032Y213202D01*
X111032Y205452D02*
X111032Y203548D01*
X104728Y203548D01*
X104728Y205452D01*
X111032Y205452D01*
D16*
X111956Y197976D02*
X111956Y197024D01*
X103804Y197024D01*
X103804Y197976D01*
X111956Y197976D01*
X111956Y192976D02*
X111956Y192024D01*
X103804Y192024D01*
X103804Y192976D01*
X111956Y192976D01*
D11*
X474976Y204924D02*
X481644Y204924D01*
X481644Y198256D01*
X474976Y198256D01*
X474976Y204924D01*
X474976Y200368D02*
X481644Y200368D01*
X481644Y202480D02*
X474976Y202480D01*
X474976Y204592D02*
X481644Y204592D01*
X466404Y204924D02*
X459736Y204924D01*
X466404Y204924D02*
X466404Y198256D01*
X459736Y198256D01*
X459736Y204924D01*
X459736Y200368D02*
X466404Y200368D01*
X466404Y202480D02*
X459736Y202480D01*
X459736Y204592D02*
X466404Y204592D01*
X474976Y192224D02*
X481644Y192224D01*
X481644Y185556D01*
X474976Y185556D01*
X474976Y192224D01*
X474976Y187668D02*
X481644Y187668D01*
X481644Y189780D02*
X474976Y189780D01*
X474976Y191892D02*
X481644Y191892D01*
X466404Y192224D02*
X459736Y192224D01*
X466404Y192224D02*
X466404Y185556D01*
X459736Y185556D01*
X459736Y192224D01*
X459736Y187668D02*
X466404Y187668D01*
X466404Y189780D02*
X459736Y189780D01*
X459736Y191892D02*
X466404Y191892D01*
X474976Y179524D02*
X481644Y179524D01*
X481644Y172856D01*
X474976Y172856D01*
X474976Y179524D01*
X474976Y174968D02*
X481644Y174968D01*
X481644Y177080D02*
X474976Y177080D01*
X474976Y179192D02*
X481644Y179192D01*
X466404Y179524D02*
X459736Y179524D01*
X466404Y179524D02*
X466404Y172856D01*
X459736Y172856D01*
X459736Y179524D01*
X459736Y174968D02*
X466404Y174968D01*
X466404Y177080D02*
X459736Y177080D01*
X459736Y179192D02*
X466404Y179192D01*
X458466Y161744D02*
X458466Y155076D01*
X458466Y161744D02*
X465134Y161744D01*
X465134Y155076D01*
X458466Y155076D01*
X458466Y157188D02*
X465134Y157188D01*
X465134Y159300D02*
X458466Y159300D01*
X458466Y161412D02*
X465134Y161412D01*
X458466Y146504D02*
X458466Y139836D01*
X458466Y146504D02*
X465134Y146504D01*
X465134Y139836D01*
X458466Y139836D01*
X458466Y141948D02*
X465134Y141948D01*
X465134Y144060D02*
X458466Y144060D01*
X458466Y146172D02*
X465134Y146172D01*
X476246Y155076D02*
X476246Y161744D01*
X482914Y161744D01*
X482914Y155076D01*
X476246Y155076D01*
X476246Y157188D02*
X482914Y157188D01*
X482914Y159300D02*
X476246Y159300D01*
X476246Y161412D02*
X482914Y161412D01*
X476246Y146504D02*
X476246Y139836D01*
X476246Y146504D02*
X482914Y146504D01*
X482914Y139836D01*
X476246Y139836D01*
X476246Y141948D02*
X482914Y141948D01*
X482914Y144060D02*
X476246Y144060D01*
X476246Y146172D02*
X482914Y146172D01*
X398776Y169046D02*
X398776Y175714D01*
X405444Y175714D01*
X405444Y169046D01*
X398776Y169046D01*
X398776Y171158D02*
X405444Y171158D01*
X405444Y173270D02*
X398776Y173270D01*
X398776Y175382D02*
X405444Y175382D01*
X398776Y160474D02*
X398776Y153806D01*
X398776Y160474D02*
X405444Y160474D01*
X405444Y153806D01*
X398776Y153806D01*
X398776Y155918D02*
X405444Y155918D01*
X405444Y158030D02*
X398776Y158030D01*
X398776Y160142D02*
X405444Y160142D01*
X405444Y181746D02*
X405444Y188414D01*
X405444Y181746D02*
X398776Y181746D01*
X398776Y188414D01*
X405444Y188414D01*
X405444Y183858D02*
X398776Y183858D01*
X398776Y185970D02*
X405444Y185970D01*
X405444Y188082D02*
X398776Y188082D01*
X405444Y196986D02*
X405444Y203654D01*
X405444Y196986D02*
X398776Y196986D01*
X398776Y203654D01*
X405444Y203654D01*
X405444Y199098D02*
X398776Y199098D01*
X398776Y201210D02*
X405444Y201210D01*
X405444Y203322D02*
X398776Y203322D01*
X640076Y165554D02*
X646744Y165554D01*
X646744Y158886D01*
X640076Y158886D01*
X640076Y165554D01*
X640076Y160998D02*
X646744Y160998D01*
X646744Y163110D02*
X640076Y163110D01*
X640076Y165222D02*
X646744Y165222D01*
X631504Y165554D02*
X624836Y165554D01*
X631504Y165554D02*
X631504Y158886D01*
X624836Y158886D01*
X624836Y165554D01*
X624836Y160998D02*
X631504Y160998D01*
X631504Y163110D02*
X624836Y163110D01*
X624836Y165222D02*
X631504Y165222D01*
X533396Y193176D02*
X533396Y199844D01*
X540064Y199844D01*
X540064Y193176D01*
X533396Y193176D01*
X533396Y195288D02*
X540064Y195288D01*
X540064Y197400D02*
X533396Y197400D01*
X533396Y199512D02*
X540064Y199512D01*
X533396Y184604D02*
X533396Y177936D01*
X533396Y184604D02*
X540064Y184604D01*
X540064Y177936D01*
X533396Y177936D01*
X533396Y180048D02*
X540064Y180048D01*
X540064Y182160D02*
X533396Y182160D01*
X533396Y184272D02*
X540064Y184272D01*
X606104Y184604D02*
X606104Y177936D01*
X599436Y177936D01*
X599436Y184604D01*
X606104Y184604D01*
X606104Y180048D02*
X599436Y180048D01*
X599436Y182160D02*
X606104Y182160D01*
X606104Y184272D02*
X599436Y184272D01*
X606104Y193176D02*
X606104Y199844D01*
X606104Y193176D02*
X599436Y193176D01*
X599436Y199844D01*
X606104Y199844D01*
X606104Y195288D02*
X599436Y195288D01*
X599436Y197400D02*
X606104Y197400D01*
X606104Y199512D02*
X599436Y199512D01*
X621344Y184604D02*
X621344Y177936D01*
X614676Y177936D01*
X614676Y184604D01*
X621344Y184604D01*
X621344Y180048D02*
X614676Y180048D01*
X614676Y182160D02*
X621344Y182160D01*
X621344Y184272D02*
X614676Y184272D01*
X621344Y193176D02*
X621344Y199844D01*
X621344Y193176D02*
X614676Y193176D01*
X614676Y199844D01*
X621344Y199844D01*
X621344Y195288D02*
X614676Y195288D01*
X614676Y197400D02*
X621344Y197400D01*
X621344Y199512D02*
X614676Y199512D01*
D18*
X546214Y199325D02*
X546214Y197455D01*
X546214Y199325D02*
X554584Y199325D01*
X554584Y197455D01*
X546214Y197455D01*
X546214Y189825D02*
X546214Y187955D01*
X546214Y189825D02*
X554584Y189825D01*
X554584Y187955D01*
X546214Y187955D01*
X546214Y180325D02*
X546214Y178455D01*
X546214Y180325D02*
X554584Y180325D01*
X554584Y178455D01*
X546214Y178455D01*
X572216Y178455D02*
X572216Y180325D01*
X580586Y180325D01*
X580586Y178455D01*
X572216Y178455D01*
X572216Y197455D02*
X572216Y199325D01*
X580586Y199325D01*
X580586Y197455D01*
X572216Y197455D01*
X580586Y189825D02*
X580586Y187955D01*
X572216Y187955D01*
X572216Y189825D01*
X580586Y189825D01*
D19*
X504345Y192700D02*
X504345Y200320D01*
X515775Y200320D01*
X515775Y192700D01*
X504345Y192700D01*
X504345Y195113D02*
X515775Y195113D01*
X515775Y197526D02*
X504345Y197526D01*
X504345Y199939D02*
X515775Y199939D01*
X504345Y182540D02*
X504345Y174920D01*
X504345Y182540D02*
X515775Y182540D01*
X515775Y174920D01*
X504345Y174920D01*
X504345Y177333D02*
X515775Y177333D01*
X515775Y179746D02*
X504345Y179746D01*
X504345Y182159D02*
X515775Y182159D01*
D11*
X193354Y172856D02*
X186686Y172856D01*
X186686Y179524D01*
X193354Y179524D01*
X193354Y172856D01*
X193354Y174968D02*
X186686Y174968D01*
X186686Y177080D02*
X193354Y177080D01*
X193354Y179192D02*
X186686Y179192D01*
X201926Y172856D02*
X208594Y172856D01*
X201926Y172856D02*
X201926Y179524D01*
X208594Y179524D01*
X208594Y172856D01*
X208594Y174968D02*
X201926Y174968D01*
X201926Y177080D02*
X208594Y177080D01*
X208594Y179192D02*
X201926Y179192D01*
X193354Y210956D02*
X186686Y210956D01*
X186686Y217624D01*
X193354Y217624D01*
X193354Y210956D01*
X193354Y213068D02*
X186686Y213068D01*
X186686Y215180D02*
X193354Y215180D01*
X193354Y217292D02*
X186686Y217292D01*
X201926Y210956D02*
X208594Y210956D01*
X201926Y210956D02*
X201926Y217624D01*
X208594Y217624D01*
X208594Y210956D01*
X208594Y213068D02*
X201926Y213068D01*
X201926Y215180D02*
X208594Y215180D01*
X208594Y217292D02*
X201926Y217292D01*
X490216Y161744D02*
X490216Y155076D01*
X490216Y161744D02*
X496884Y161744D01*
X496884Y155076D01*
X490216Y155076D01*
X490216Y157188D02*
X496884Y157188D01*
X496884Y159300D02*
X490216Y159300D01*
X490216Y161412D02*
X496884Y161412D01*
X490216Y146504D02*
X490216Y139836D01*
X490216Y146504D02*
X496884Y146504D01*
X496884Y139836D01*
X490216Y139836D01*
X490216Y141948D02*
X496884Y141948D01*
X496884Y144060D02*
X490216Y144060D01*
X490216Y146172D02*
X496884Y146172D01*
D20*
X542190Y167760D02*
X549190Y167760D01*
X549190Y161760D01*
X542190Y161760D01*
X542190Y167760D01*
X542190Y163660D02*
X549190Y163660D01*
X549190Y165560D02*
X542190Y165560D01*
X542190Y167460D02*
X549190Y167460D01*
X526190Y167760D02*
X519190Y167760D01*
X526190Y167760D02*
X526190Y161760D01*
X519190Y161760D01*
X519190Y167760D01*
X519190Y163660D02*
X526190Y163660D01*
X526190Y165560D02*
X519190Y165560D01*
X519190Y167460D02*
X526190Y167460D01*
D19*
X539270Y147615D02*
X546890Y147615D01*
X546890Y136185D01*
X539270Y136185D01*
X539270Y147615D01*
X539270Y138598D02*
X546890Y138598D01*
X546890Y141011D02*
X539270Y141011D01*
X539270Y143424D02*
X546890Y143424D01*
X546890Y145837D02*
X539270Y145837D01*
X529110Y147615D02*
X521490Y147615D01*
X529110Y147615D02*
X529110Y136185D01*
X521490Y136185D01*
X521490Y147615D01*
X521490Y138598D02*
X529110Y138598D01*
X529110Y141011D02*
X521490Y141011D01*
X521490Y143424D02*
X529110Y143424D01*
X529110Y145837D02*
X521490Y145837D01*
D11*
X586736Y172856D02*
X586736Y179524D01*
X593404Y179524D01*
X593404Y172856D01*
X586736Y172856D01*
X586736Y174968D02*
X593404Y174968D01*
X593404Y177080D02*
X586736Y177080D01*
X586736Y179192D02*
X593404Y179192D01*
X586736Y164284D02*
X586736Y157616D01*
X586736Y164284D02*
X593404Y164284D01*
X593404Y157616D01*
X586736Y157616D01*
X586736Y159728D02*
X593404Y159728D01*
X593404Y161840D02*
X586736Y161840D01*
X586736Y163952D02*
X593404Y163952D01*
D21*
X555135Y143135D02*
X555135Y136485D01*
X555135Y143135D02*
X579285Y143135D01*
X579285Y136485D01*
X555135Y136485D01*
X555135Y139192D02*
X579285Y139192D01*
X579285Y141899D02*
X555135Y141899D01*
X579285Y160985D02*
X579285Y167635D01*
X579285Y160985D02*
X555135Y160985D01*
X555135Y167635D01*
X579285Y167635D01*
X579285Y163692D02*
X555135Y163692D01*
X555135Y166399D02*
X579285Y166399D01*
D22*
X153910Y145880D02*
X153910Y135380D01*
X143410Y135380D01*
X143410Y145880D01*
X153910Y145880D01*
X153910Y138705D02*
X143410Y138705D01*
X143410Y142030D02*
X153910Y142030D01*
X153910Y145355D02*
X143410Y145355D01*
X190910Y145880D02*
X190910Y135380D01*
X180410Y135380D01*
X180410Y145880D01*
X190910Y145880D01*
X190910Y138705D02*
X180410Y138705D01*
X180410Y142030D02*
X190910Y142030D01*
X190910Y145355D02*
X180410Y145355D01*
X153910Y151890D02*
X153910Y162390D01*
X153910Y151890D02*
X143410Y151890D01*
X143410Y162390D01*
X153910Y162390D01*
X153910Y155215D02*
X143410Y155215D01*
X143410Y158540D02*
X153910Y158540D01*
X153910Y161865D02*
X143410Y161865D01*
X190910Y162390D02*
X190910Y151890D01*
X180410Y151890D01*
X180410Y162390D01*
X190910Y162390D01*
X190910Y155215D02*
X180410Y155215D01*
X180410Y158540D02*
X190910Y158540D01*
X190910Y161865D02*
X180410Y161865D01*
D23*
X156830Y169130D02*
X156830Y175630D01*
X156830Y169130D02*
X152330Y169130D01*
X152330Y175630D01*
X156830Y175630D01*
X156830Y170555D02*
X152330Y170555D01*
X152330Y171980D02*
X156830Y171980D01*
X156830Y173405D02*
X152330Y173405D01*
X152330Y174830D02*
X156830Y174830D01*
X171830Y175630D02*
X171830Y169130D01*
X167330Y169130D01*
X167330Y175630D01*
X171830Y175630D01*
X171830Y170555D02*
X167330Y170555D01*
X167330Y171980D02*
X171830Y171980D01*
X171830Y173405D02*
X167330Y173405D01*
X167330Y174830D02*
X171830Y174830D01*
X167330Y217390D02*
X167330Y223890D01*
X171830Y223890D01*
X171830Y217390D01*
X167330Y217390D01*
X167330Y218815D02*
X171830Y218815D01*
X171830Y220240D02*
X167330Y220240D01*
X167330Y221665D02*
X171830Y221665D01*
X171830Y223090D02*
X167330Y223090D01*
X152330Y223890D02*
X152330Y217390D01*
X152330Y223890D02*
X156830Y223890D01*
X156830Y217390D01*
X152330Y217390D01*
X152330Y218815D02*
X156830Y218815D01*
X156830Y220240D02*
X152330Y220240D01*
X152330Y221665D02*
X156830Y221665D01*
X156830Y223090D02*
X152330Y223090D01*
D20*
X505790Y167060D02*
X505790Y160060D01*
X505790Y167060D02*
X511790Y167060D01*
X511790Y160060D01*
X505790Y160060D01*
X505790Y161960D02*
X511790Y161960D01*
X511790Y163860D02*
X505790Y163860D01*
X505790Y165760D02*
X511790Y165760D01*
X505790Y144060D02*
X505790Y137060D01*
X505790Y144060D02*
X511790Y144060D01*
X511790Y137060D01*
X505790Y137060D01*
X505790Y138960D02*
X511790Y138960D01*
X511790Y140860D02*
X505790Y140860D01*
X505790Y142760D02*
X511790Y142760D01*
D11*
X617154Y142694D02*
X617154Y136026D01*
X610486Y136026D01*
X610486Y142694D01*
X617154Y142694D01*
X617154Y138138D02*
X610486Y138138D01*
X610486Y140250D02*
X617154Y140250D01*
X617154Y142362D02*
X610486Y142362D01*
X633154Y142694D02*
X633154Y136026D01*
X626486Y136026D01*
X626486Y142694D01*
X633154Y142694D01*
X633154Y138138D02*
X626486Y138138D01*
X626486Y140250D02*
X633154Y140250D01*
X633154Y142362D02*
X626486Y142362D01*
D18*
X179266Y184805D02*
X179266Y186675D01*
X179266Y184805D02*
X170896Y184805D01*
X170896Y186675D01*
X179266Y186675D01*
X179266Y194305D02*
X179266Y196175D01*
X179266Y194305D02*
X170896Y194305D01*
X170896Y196175D01*
X179266Y196175D01*
X179266Y203805D02*
X179266Y205675D01*
X179266Y203805D02*
X170896Y203805D01*
X170896Y205675D01*
X179266Y205675D01*
X153264Y205675D02*
X153264Y203805D01*
X144894Y203805D01*
X144894Y205675D01*
X153264Y205675D01*
X153264Y186675D02*
X153264Y184805D01*
X144894Y184805D01*
X144894Y186675D01*
X153264Y186675D01*
X144894Y194305D02*
X144894Y196175D01*
X153264Y196175D01*
X153264Y194305D01*
X144894Y194305D01*
D16*
X661746Y168576D02*
X661746Y163424D01*
X660794Y163424D01*
X660794Y168576D01*
X661746Y168576D01*
X661746Y165180D02*
X660794Y165180D01*
X660794Y166936D02*
X661746Y166936D01*
X656746Y168576D02*
X656746Y163424D01*
X655794Y163424D01*
X655794Y168576D01*
X656746Y168576D01*
X656746Y165180D02*
X655794Y165180D01*
X655794Y166936D02*
X656746Y166936D01*
X666746Y168576D02*
X666746Y163424D01*
X665794Y163424D01*
X665794Y168576D01*
X666746Y168576D01*
X666746Y165180D02*
X665794Y165180D01*
X665794Y166936D02*
X666746Y166936D01*
X671746Y168576D02*
X671746Y163424D01*
X670794Y163424D01*
X670794Y168576D01*
X671746Y168576D01*
X671746Y165180D02*
X670794Y165180D01*
X670794Y166936D02*
X671746Y166936D01*
X676746Y168576D02*
X676746Y163424D01*
X675794Y163424D01*
X675794Y168576D01*
X676746Y168576D01*
X676746Y165180D02*
X675794Y165180D01*
X675794Y166936D02*
X676746Y166936D01*
X670794Y191424D02*
X670794Y196576D01*
X671746Y196576D01*
X671746Y191424D01*
X670794Y191424D01*
X670794Y193180D02*
X671746Y193180D01*
X671746Y194936D02*
X670794Y194936D01*
X676746Y196576D02*
X676746Y191424D01*
X675794Y191424D01*
X675794Y196576D01*
X676746Y196576D01*
X676746Y193180D02*
X675794Y193180D01*
X675794Y194936D02*
X676746Y194936D01*
X665794Y196576D02*
X665794Y191424D01*
X665794Y196576D02*
X666746Y196576D01*
X666746Y191424D01*
X665794Y191424D01*
X665794Y193180D02*
X666746Y193180D01*
X666746Y194936D02*
X665794Y194936D01*
X660794Y196576D02*
X660794Y191424D01*
X660794Y196576D02*
X661746Y196576D01*
X661746Y191424D01*
X660794Y191424D01*
X660794Y193180D02*
X661746Y193180D01*
X661746Y194936D02*
X660794Y194936D01*
X656746Y196576D02*
X656746Y191424D01*
X655794Y191424D01*
X655794Y196576D01*
X656746Y196576D01*
X656746Y193180D02*
X655794Y193180D01*
X655794Y194936D02*
X656746Y194936D01*
X677694Y175476D02*
X682846Y175476D01*
X682846Y174524D01*
X677694Y174524D01*
X677694Y175476D01*
X677694Y180476D02*
X682846Y180476D01*
X682846Y179524D01*
X677694Y179524D01*
X677694Y180476D01*
X677694Y185476D02*
X682846Y185476D01*
X682846Y184524D01*
X677694Y184524D01*
X677694Y185476D01*
X654846Y184524D02*
X649694Y184524D01*
X649694Y185476D01*
X654846Y185476D01*
X654846Y184524D01*
X654846Y179524D02*
X649694Y179524D01*
X649694Y180476D01*
X654846Y180476D01*
X654846Y179524D01*
X654846Y174524D02*
X649694Y174524D01*
X649694Y175476D01*
X654846Y175476D01*
X654846Y174524D01*
D11*
X627376Y188096D02*
X627376Y194764D01*
X634044Y194764D01*
X634044Y188096D01*
X627376Y188096D01*
X627376Y190208D02*
X634044Y190208D01*
X634044Y192320D02*
X627376Y192320D01*
X627376Y194432D02*
X634044Y194432D01*
X627376Y179524D02*
X627376Y172856D01*
X627376Y179524D02*
X634044Y179524D01*
X634044Y172856D01*
X627376Y172856D01*
X627376Y174968D02*
X634044Y174968D01*
X634044Y177080D02*
X627376Y177080D01*
X627376Y179192D02*
X634044Y179192D01*
D20*
X294034Y199860D02*
X287034Y199860D01*
X287034Y205860D01*
X294034Y205860D01*
X294034Y199860D01*
X294034Y201760D02*
X287034Y201760D01*
X287034Y203660D02*
X294034Y203660D01*
X294034Y205560D02*
X287034Y205560D01*
X310034Y199860D02*
X317034Y199860D01*
X310034Y199860D02*
X310034Y205860D01*
X317034Y205860D01*
X317034Y199860D01*
X317034Y201760D02*
X310034Y201760D01*
X310034Y203660D02*
X317034Y203660D01*
X317034Y205560D02*
X310034Y205560D01*
D11*
X444876Y146504D02*
X444876Y139836D01*
X444876Y146504D02*
X451544Y146504D01*
X451544Y139836D01*
X444876Y139836D01*
X444876Y141948D02*
X451544Y141948D01*
X451544Y144060D02*
X444876Y144060D01*
X444876Y146172D02*
X451544Y146172D01*
X428876Y146504D02*
X428876Y139836D01*
X428876Y146504D02*
X435544Y146504D01*
X435544Y139836D01*
X428876Y139836D01*
X428876Y141948D02*
X435544Y141948D01*
X435544Y144060D02*
X428876Y144060D01*
X428876Y146172D02*
X435544Y146172D01*
X689606Y163650D02*
X696274Y163650D01*
X696274Y156982D01*
X689606Y156982D01*
X689606Y163650D01*
X689606Y159094D02*
X696274Y159094D01*
X696274Y161206D02*
X689606Y161206D01*
X689606Y163318D02*
X696274Y163318D01*
X696274Y179650D02*
X689606Y179650D01*
X696274Y179650D02*
X696274Y172982D01*
X689606Y172982D01*
X689606Y179650D01*
X689606Y175094D02*
X696274Y175094D01*
X696274Y177206D02*
X689606Y177206D01*
X689606Y179318D02*
X696274Y179318D01*
X419414Y151646D02*
X412746Y151646D01*
X412746Y158314D01*
X419414Y158314D01*
X419414Y151646D01*
X419414Y153758D02*
X412746Y153758D01*
X412746Y155870D02*
X419414Y155870D01*
X419414Y157982D02*
X412746Y157982D01*
X412746Y135646D02*
X419414Y135646D01*
X412746Y135646D02*
X412746Y142314D01*
X419414Y142314D01*
X419414Y135646D01*
X419414Y137758D02*
X412746Y137758D01*
X412746Y139870D02*
X419414Y139870D01*
X419414Y141982D02*
X412746Y141982D01*
X653030Y138312D02*
X659698Y138312D01*
X653030Y138312D02*
X653030Y144980D01*
X659698Y144980D01*
X659698Y138312D01*
X659698Y140424D02*
X653030Y140424D01*
X653030Y142536D02*
X659698Y142536D01*
X659698Y144648D02*
X653030Y144648D01*
X668270Y138312D02*
X674938Y138312D01*
X668270Y138312D02*
X668270Y144980D01*
X674938Y144980D01*
X674938Y138312D01*
X674938Y140424D02*
X668270Y140424D01*
X668270Y142536D02*
X674938Y142536D01*
X674938Y144648D02*
X668270Y144648D01*
X712466Y226514D02*
X719134Y226514D01*
X719134Y219846D01*
X712466Y219846D01*
X712466Y226514D01*
X712466Y221958D02*
X719134Y221958D01*
X719134Y224070D02*
X712466Y224070D01*
X712466Y226182D02*
X719134Y226182D01*
X703894Y226514D02*
X697226Y226514D01*
X703894Y226514D02*
X703894Y219846D01*
X697226Y219846D01*
X697226Y226514D01*
X697226Y221958D02*
X703894Y221958D01*
X703894Y224070D02*
X697226Y224070D01*
X697226Y226182D02*
X703894Y226182D01*
X616264Y156664D02*
X616264Y149996D01*
X609596Y149996D01*
X609596Y156664D01*
X616264Y156664D01*
X616264Y152108D02*
X609596Y152108D01*
X609596Y154220D02*
X616264Y154220D01*
X616264Y156332D02*
X609596Y156332D01*
X616264Y165236D02*
X616264Y171904D01*
X616264Y165236D02*
X609596Y165236D01*
X609596Y171904D01*
X616264Y171904D01*
X616264Y167348D02*
X609596Y167348D01*
X609596Y169460D02*
X616264Y169460D01*
X616264Y171572D02*
X609596Y171572D01*
X297748Y153806D02*
X291080Y153806D01*
X291080Y160474D01*
X297748Y160474D01*
X297748Y153806D01*
X297748Y155918D02*
X291080Y155918D01*
X291080Y158030D02*
X297748Y158030D01*
X297748Y160142D02*
X291080Y160142D01*
X306320Y153806D02*
X312988Y153806D01*
X306320Y153806D02*
X306320Y160474D01*
X312988Y160474D01*
X312988Y153806D01*
X312988Y155918D02*
X306320Y155918D01*
X306320Y158030D02*
X312988Y158030D01*
X312988Y160142D02*
X306320Y160142D01*
X150174Y636026D02*
X150174Y642694D01*
X150174Y636026D02*
X143506Y636026D01*
X143506Y642694D01*
X150174Y642694D01*
X150174Y638138D02*
X143506Y638138D01*
X143506Y640250D02*
X150174Y640250D01*
X150174Y642362D02*
X143506Y642362D01*
X150174Y651266D02*
X150174Y657934D01*
X150174Y651266D02*
X143506Y651266D01*
X143506Y657934D01*
X150174Y657934D01*
X150174Y653378D02*
X143506Y653378D01*
X143506Y655490D02*
X150174Y655490D01*
X150174Y657602D02*
X143506Y657602D01*
X304796Y634756D02*
X311464Y634756D01*
X304796Y634756D02*
X304796Y641424D01*
X311464Y641424D01*
X311464Y634756D01*
X311464Y636868D02*
X304796Y636868D01*
X304796Y638980D02*
X311464Y638980D01*
X311464Y641092D02*
X304796Y641092D01*
X320036Y634756D02*
X326704Y634756D01*
X320036Y634756D02*
X320036Y641424D01*
X326704Y641424D01*
X326704Y634756D01*
X326704Y636868D02*
X320036Y636868D01*
X320036Y638980D02*
X326704Y638980D01*
X326704Y641092D02*
X320036Y641092D01*
X298764Y641424D02*
X292096Y641424D01*
X298764Y641424D02*
X298764Y634756D01*
X292096Y634756D01*
X292096Y641424D01*
X292096Y636868D02*
X298764Y636868D01*
X298764Y638980D02*
X292096Y638980D01*
X292096Y641092D02*
X298764Y641092D01*
X283524Y641424D02*
X276856Y641424D01*
X283524Y641424D02*
X283524Y634756D01*
X276856Y634756D01*
X276856Y641424D01*
X276856Y636868D02*
X283524Y636868D01*
X283524Y638980D02*
X276856Y638980D01*
X276856Y641092D02*
X283524Y641092D01*
X258124Y714512D02*
X251456Y714512D01*
X251456Y721180D01*
X258124Y721180D01*
X258124Y714512D01*
X258124Y716624D02*
X251456Y716624D01*
X251456Y718736D02*
X258124Y718736D01*
X258124Y720848D02*
X251456Y720848D01*
X266696Y714512D02*
X273364Y714512D01*
X266696Y714512D02*
X266696Y721180D01*
X273364Y721180D01*
X273364Y714512D01*
X273364Y716624D02*
X266696Y716624D01*
X266696Y718736D02*
X273364Y718736D01*
X273364Y720848D02*
X266696Y720848D01*
X150174Y717686D02*
X143506Y717686D01*
X143506Y724354D01*
X150174Y724354D01*
X150174Y717686D01*
X150174Y719798D02*
X143506Y719798D01*
X143506Y721910D02*
X150174Y721910D01*
X150174Y724022D02*
X143506Y724022D01*
X143506Y701686D02*
X150174Y701686D01*
X143506Y701686D02*
X143506Y708354D01*
X150174Y708354D01*
X150174Y701686D01*
X150174Y703798D02*
X143506Y703798D01*
X143506Y705910D02*
X150174Y705910D01*
X150174Y708022D02*
X143506Y708022D01*
X501646Y719592D02*
X508314Y719592D01*
X501646Y719592D02*
X501646Y726260D01*
X508314Y726260D01*
X508314Y719592D01*
X508314Y721704D02*
X501646Y721704D01*
X501646Y723816D02*
X508314Y723816D01*
X508314Y725928D02*
X501646Y725928D01*
X516886Y719592D02*
X523554Y719592D01*
X516886Y719592D02*
X516886Y726260D01*
X523554Y726260D01*
X523554Y719592D01*
X523554Y721704D02*
X516886Y721704D01*
X516886Y723816D02*
X523554Y723816D01*
X523554Y725928D02*
X516886Y725928D01*
X529586Y719592D02*
X536254Y719592D01*
X529586Y719592D02*
X529586Y726260D01*
X536254Y726260D01*
X536254Y719592D01*
X536254Y721704D02*
X529586Y721704D01*
X529586Y723816D02*
X536254Y723816D01*
X536254Y725928D02*
X529586Y725928D01*
X544826Y719592D02*
X551494Y719592D01*
X544826Y719592D02*
X544826Y726260D01*
X551494Y726260D01*
X551494Y719592D01*
X551494Y721704D02*
X544826Y721704D01*
X544826Y723816D02*
X551494Y723816D01*
X551494Y725928D02*
X544826Y725928D01*
X523554Y704924D02*
X516886Y704924D01*
X523554Y704924D02*
X523554Y698256D01*
X516886Y698256D01*
X516886Y704924D01*
X516886Y700368D02*
X523554Y700368D01*
X523554Y702480D02*
X516886Y702480D01*
X516886Y704592D02*
X523554Y704592D01*
X508314Y704924D02*
X501646Y704924D01*
X508314Y704924D02*
X508314Y698256D01*
X501646Y698256D01*
X501646Y704924D01*
X501646Y700368D02*
X508314Y700368D01*
X508314Y702480D02*
X501646Y702480D01*
X501646Y704592D02*
X508314Y704592D01*
X516886Y692224D02*
X523554Y692224D01*
X523554Y685556D01*
X516886Y685556D01*
X516886Y692224D01*
X516886Y687668D02*
X523554Y687668D01*
X523554Y689780D02*
X516886Y689780D01*
X516886Y691892D02*
X523554Y691892D01*
X508314Y692224D02*
X501646Y692224D01*
X508314Y692224D02*
X508314Y685556D01*
X501646Y685556D01*
X501646Y692224D01*
X501646Y687668D02*
X508314Y687668D01*
X508314Y689780D02*
X501646Y689780D01*
X501646Y691892D02*
X508314Y691892D01*
X516886Y674444D02*
X523554Y674444D01*
X523554Y667776D01*
X516886Y667776D01*
X516886Y674444D01*
X516886Y669888D02*
X523554Y669888D01*
X523554Y672000D02*
X516886Y672000D01*
X516886Y674112D02*
X523554Y674112D01*
X508314Y674444D02*
X501646Y674444D01*
X508314Y674444D02*
X508314Y667776D01*
X501646Y667776D01*
X501646Y674444D01*
X501646Y669888D02*
X508314Y669888D01*
X508314Y672000D02*
X501646Y672000D01*
X501646Y674112D02*
X508314Y674112D01*
X387346Y666824D02*
X387346Y660156D01*
X387346Y666824D02*
X394014Y666824D01*
X394014Y660156D01*
X387346Y660156D01*
X387346Y662268D02*
X394014Y662268D01*
X394014Y664380D02*
X387346Y664380D01*
X387346Y666492D02*
X394014Y666492D01*
X387346Y651584D02*
X387346Y644916D01*
X387346Y651584D02*
X394014Y651584D01*
X394014Y644916D01*
X387346Y644916D01*
X387346Y647028D02*
X394014Y647028D01*
X394014Y649140D02*
X387346Y649140D01*
X387346Y651252D02*
X394014Y651252D01*
X374646Y660156D02*
X374646Y666824D01*
X381314Y666824D01*
X381314Y660156D01*
X374646Y660156D01*
X374646Y662268D02*
X381314Y662268D01*
X381314Y664380D02*
X374646Y664380D01*
X374646Y666492D02*
X381314Y666492D01*
X374646Y651584D02*
X374646Y644916D01*
X374646Y651584D02*
X381314Y651584D01*
X381314Y644916D01*
X374646Y644916D01*
X374646Y647028D02*
X381314Y647028D01*
X381314Y649140D02*
X374646Y649140D01*
X374646Y651252D02*
X381314Y651252D01*
D24*
X687954Y725135D02*
X687954Y725985D01*
X696304Y725985D01*
X696304Y725135D01*
X687954Y725135D01*
X687954Y720985D02*
X687954Y720135D01*
X687954Y720985D02*
X696304Y720985D01*
X696304Y720135D01*
X687954Y720135D01*
X687954Y715985D02*
X687954Y715135D01*
X687954Y715985D02*
X696304Y715985D01*
X696304Y715135D01*
X687954Y715135D01*
X687954Y710985D02*
X687954Y710135D01*
X687954Y710985D02*
X696304Y710985D01*
X696304Y710135D01*
X687954Y710135D01*
X687954Y705985D02*
X687954Y705135D01*
X687954Y705985D02*
X696304Y705985D01*
X696304Y705135D01*
X687954Y705135D01*
X738566Y705135D02*
X738566Y705985D01*
X738566Y705135D02*
X730216Y705135D01*
X730216Y705985D01*
X738566Y705985D01*
X738566Y710135D02*
X738566Y710985D01*
X738566Y710135D02*
X730216Y710135D01*
X730216Y710985D01*
X738566Y710985D01*
X738566Y715135D02*
X738566Y715985D01*
X738566Y715135D02*
X730216Y715135D01*
X730216Y715985D01*
X738566Y715985D01*
X738566Y720135D02*
X738566Y720985D01*
X738566Y720135D02*
X730216Y720135D01*
X730216Y720985D01*
X738566Y720985D01*
X738566Y725135D02*
X738566Y725985D01*
X738566Y725135D02*
X730216Y725135D01*
X730216Y725985D01*
X738566Y725985D01*
D11*
X712276Y657934D02*
X705608Y657934D01*
X712276Y657934D02*
X712276Y651266D01*
X705608Y651266D01*
X705608Y657934D01*
X705608Y653378D02*
X712276Y653378D01*
X712276Y655490D02*
X705608Y655490D01*
X705608Y657602D02*
X712276Y657602D01*
X697036Y657934D02*
X690368Y657934D01*
X697036Y657934D02*
X697036Y651266D01*
X690368Y651266D01*
X690368Y657934D01*
X690368Y653378D02*
X697036Y653378D01*
X697036Y655490D02*
X690368Y655490D01*
X690368Y657602D02*
X697036Y657602D01*
X787396Y714766D02*
X794064Y714766D01*
X787396Y714766D02*
X787396Y721434D01*
X794064Y721434D01*
X794064Y714766D01*
X794064Y716878D02*
X787396Y716878D01*
X787396Y718990D02*
X794064Y718990D01*
X794064Y721102D02*
X787396Y721102D01*
X802636Y714766D02*
X809304Y714766D01*
X802636Y714766D02*
X802636Y721434D01*
X809304Y721434D01*
X809304Y714766D01*
X809304Y716878D02*
X802636Y716878D01*
X802636Y718990D02*
X809304Y718990D01*
X809304Y721102D02*
X802636Y721102D01*
X774696Y723974D02*
X774696Y717306D01*
X774696Y723974D02*
X781364Y723974D01*
X781364Y717306D01*
X774696Y717306D01*
X774696Y719418D02*
X781364Y719418D01*
X781364Y721530D02*
X774696Y721530D01*
X774696Y723642D02*
X781364Y723642D01*
X774696Y708734D02*
X774696Y702066D01*
X774696Y708734D02*
X781364Y708734D01*
X781364Y702066D01*
X774696Y702066D01*
X774696Y704178D02*
X781364Y704178D01*
X781364Y706290D02*
X774696Y706290D01*
X774696Y708402D02*
X781364Y708402D01*
X787396Y702066D02*
X794064Y702066D01*
X787396Y702066D02*
X787396Y708734D01*
X794064Y708734D01*
X794064Y702066D01*
X794064Y704178D02*
X787396Y704178D01*
X787396Y706290D02*
X794064Y706290D01*
X794064Y708402D02*
X787396Y708402D01*
X802636Y702066D02*
X809304Y702066D01*
X802636Y702066D02*
X802636Y708734D01*
X809304Y708734D01*
X809304Y702066D01*
X809304Y704178D02*
X802636Y704178D01*
X802636Y706290D02*
X809304Y706290D01*
X809304Y708402D02*
X802636Y708402D01*
X750884Y699526D02*
X744216Y699526D01*
X744216Y706194D01*
X750884Y706194D01*
X750884Y699526D01*
X750884Y701638D02*
X744216Y701638D01*
X744216Y703750D02*
X750884Y703750D01*
X750884Y705862D02*
X744216Y705862D01*
X759456Y699526D02*
X766124Y699526D01*
X759456Y699526D02*
X759456Y706194D01*
X766124Y706194D01*
X766124Y699526D01*
X766124Y701638D02*
X759456Y701638D01*
X759456Y703750D02*
X766124Y703750D01*
X766124Y705862D02*
X759456Y705862D01*
D20*
X720004Y668000D02*
X720004Y662000D01*
X718004Y662000D01*
X718004Y668000D01*
X720004Y668000D01*
X720004Y663900D02*
X718004Y663900D01*
X718004Y665800D02*
X720004Y665800D01*
X720004Y667700D02*
X718004Y667700D01*
X726504Y668000D02*
X726504Y662000D01*
X724504Y662000D01*
X724504Y668000D01*
X726504Y668000D01*
X726504Y663900D02*
X724504Y663900D01*
X724504Y665800D02*
X726504Y665800D01*
X726504Y667700D02*
X724504Y667700D01*
X733004Y668000D02*
X733004Y662000D01*
X731004Y662000D01*
X731004Y668000D01*
X733004Y668000D01*
X733004Y663900D02*
X731004Y663900D01*
X731004Y665800D02*
X733004Y665800D01*
X733004Y667700D02*
X731004Y667700D01*
X739504Y668000D02*
X739504Y662000D01*
X737504Y662000D01*
X737504Y668000D01*
X739504Y668000D01*
X739504Y663900D02*
X737504Y663900D01*
X737504Y665800D02*
X739504Y665800D01*
X739504Y667700D02*
X737504Y667700D01*
X739504Y692000D02*
X739504Y698000D01*
X739504Y692000D02*
X737504Y692000D01*
X737504Y698000D01*
X739504Y698000D01*
X739504Y693900D02*
X737504Y693900D01*
X737504Y695800D02*
X739504Y695800D01*
X739504Y697700D02*
X737504Y697700D01*
X733004Y698000D02*
X733004Y692000D01*
X731004Y692000D01*
X731004Y698000D01*
X733004Y698000D01*
X733004Y693900D02*
X731004Y693900D01*
X731004Y695800D02*
X733004Y695800D01*
X733004Y697700D02*
X731004Y697700D01*
X726504Y698000D02*
X726504Y692000D01*
X724504Y692000D01*
X724504Y698000D01*
X726504Y698000D01*
X726504Y693900D02*
X724504Y693900D01*
X724504Y695800D02*
X726504Y695800D01*
X726504Y697700D02*
X724504Y697700D01*
X720004Y698000D02*
X720004Y692000D01*
X718004Y692000D01*
X718004Y698000D01*
X720004Y698000D01*
X720004Y693900D02*
X718004Y693900D01*
X718004Y695800D02*
X720004Y695800D01*
X720004Y697700D02*
X718004Y697700D01*
D25*
X719864Y677460D03*
X719864Y686350D03*
X728754Y677460D03*
X728754Y686350D03*
X737644Y677460D03*
X737644Y686350D03*
D26*
X713677Y680004D03*
D27*
X743632Y680009D03*
D19*
X730024Y681270D02*
X730024Y678730D01*
X727484Y678730D01*
X727484Y681270D01*
X730024Y681270D01*
X730024Y681143D02*
X727484Y681143D01*
D20*
X235016Y660800D02*
X235016Y654800D01*
X228016Y654800D01*
X228016Y660800D01*
X235016Y660800D01*
X235016Y656700D02*
X228016Y656700D01*
X228016Y658600D02*
X235016Y658600D01*
X235016Y660500D02*
X228016Y660500D01*
X235016Y673800D02*
X235016Y679800D01*
X235016Y673800D02*
X228016Y673800D01*
X228016Y679800D01*
X235016Y679800D01*
X235016Y675700D02*
X228016Y675700D01*
X228016Y677600D02*
X235016Y677600D01*
X235016Y679500D02*
X228016Y679500D01*
X214016Y670300D02*
X214016Y664300D01*
X207016Y664300D01*
X207016Y670300D01*
X214016Y670300D01*
X214016Y666200D02*
X207016Y666200D01*
X207016Y668100D02*
X214016Y668100D01*
X214016Y670000D02*
X207016Y670000D01*
D11*
X190814Y725244D02*
X184146Y725244D01*
X190814Y725244D02*
X190814Y718576D01*
X184146Y718576D01*
X184146Y725244D01*
X184146Y720688D02*
X190814Y720688D01*
X190814Y722800D02*
X184146Y722800D01*
X184146Y724912D02*
X190814Y724912D01*
X175574Y725244D02*
X168906Y725244D01*
X175574Y725244D02*
X175574Y718576D01*
X168906Y718576D01*
X168906Y725244D01*
X168906Y720688D02*
X175574Y720688D01*
X175574Y722800D02*
X168906Y722800D01*
X168906Y724912D02*
X175574Y724912D01*
X224786Y647774D02*
X231454Y647774D01*
X231454Y641106D01*
X224786Y641106D01*
X224786Y647774D01*
X224786Y643218D02*
X231454Y643218D01*
X231454Y645330D02*
X224786Y645330D01*
X224786Y647442D02*
X231454Y647442D01*
X216214Y647774D02*
X209546Y647774D01*
X216214Y647774D02*
X216214Y641106D01*
X209546Y641106D01*
X209546Y647774D01*
X209546Y643218D02*
X216214Y643218D01*
X216214Y645330D02*
X209546Y645330D01*
X209546Y647442D02*
X216214Y647442D01*
D23*
X539080Y642270D02*
X539080Y637770D01*
X528580Y637770D01*
X528580Y642270D01*
X539080Y642270D01*
X539080Y639195D02*
X528580Y639195D01*
X528580Y640620D02*
X539080Y640620D01*
X539080Y642045D02*
X528580Y642045D01*
X539080Y656770D02*
X539080Y661270D01*
X539080Y656770D02*
X528580Y656770D01*
X528580Y661270D01*
X539080Y661270D01*
X539080Y658195D02*
X528580Y658195D01*
X528580Y659620D02*
X539080Y659620D01*
X539080Y661045D02*
X528580Y661045D01*
X565200Y642270D02*
X565200Y637770D01*
X554700Y637770D01*
X554700Y642270D01*
X565200Y642270D01*
X565200Y639195D02*
X554700Y639195D01*
X554700Y640620D02*
X565200Y640620D01*
X565200Y642045D02*
X554700Y642045D01*
X565200Y647270D02*
X565200Y651770D01*
X565200Y647270D02*
X554700Y647270D01*
X554700Y651770D01*
X565200Y651770D01*
X565200Y648695D02*
X554700Y648695D01*
X554700Y650120D02*
X565200Y650120D01*
X565200Y651545D02*
X554700Y651545D01*
X565200Y656770D02*
X565200Y661270D01*
X565200Y656770D02*
X554700Y656770D01*
X554700Y661270D01*
X565200Y661270D01*
X565200Y658195D02*
X554700Y658195D01*
X554700Y659620D02*
X565200Y659620D01*
X565200Y661045D02*
X554700Y661045D01*
D11*
X642616Y695462D02*
X649284Y695462D01*
X642616Y695462D02*
X642616Y702130D01*
X649284Y702130D01*
X649284Y695462D01*
X649284Y697574D02*
X642616Y697574D01*
X642616Y699686D02*
X649284Y699686D01*
X649284Y701798D02*
X642616Y701798D01*
X657856Y695462D02*
X664524Y695462D01*
X657856Y695462D02*
X657856Y702130D01*
X664524Y702130D01*
X664524Y695462D01*
X664524Y697574D02*
X657856Y697574D01*
X657856Y699686D02*
X664524Y699686D01*
X664524Y701798D02*
X657856Y701798D01*
X629916Y708162D02*
X629916Y714830D01*
X636584Y714830D01*
X636584Y708162D01*
X629916Y708162D01*
X629916Y710274D02*
X636584Y710274D01*
X636584Y712386D02*
X629916Y712386D01*
X629916Y714498D02*
X636584Y714498D01*
X629916Y699590D02*
X629916Y692922D01*
X629916Y699590D02*
X636584Y699590D01*
X636584Y692922D01*
X629916Y692922D01*
X629916Y695034D02*
X636584Y695034D01*
X636584Y697146D02*
X629916Y697146D01*
X629916Y699258D02*
X636584Y699258D01*
X684336Y675714D02*
X684336Y669046D01*
X677668Y669046D01*
X677668Y675714D01*
X684336Y675714D01*
X684336Y671158D02*
X677668Y671158D01*
X677668Y673270D02*
X684336Y673270D01*
X684336Y675382D02*
X677668Y675382D01*
X684336Y684286D02*
X684336Y690954D01*
X684336Y684286D02*
X677668Y684286D01*
X677668Y690954D01*
X684336Y690954D01*
X684336Y686398D02*
X677668Y686398D01*
X677668Y688510D02*
X684336Y688510D01*
X684336Y690622D02*
X677668Y690622D01*
X592134Y643964D02*
X592134Y637296D01*
X585466Y637296D01*
X585466Y643964D01*
X592134Y643964D01*
X592134Y639408D02*
X585466Y639408D01*
X585466Y641520D02*
X592134Y641520D01*
X592134Y643632D02*
X585466Y643632D01*
X592134Y652536D02*
X592134Y659204D01*
X592134Y652536D02*
X585466Y652536D01*
X585466Y659204D01*
X592134Y659204D01*
X592134Y654648D02*
X585466Y654648D01*
X585466Y656760D02*
X592134Y656760D01*
X592134Y658872D02*
X585466Y658872D01*
X579434Y643964D02*
X579434Y637296D01*
X572766Y637296D01*
X572766Y643964D01*
X579434Y643964D01*
X579434Y639408D02*
X572766Y639408D01*
X572766Y641520D02*
X579434Y641520D01*
X579434Y643632D02*
X572766Y643632D01*
X579434Y652536D02*
X579434Y659204D01*
X579434Y652536D02*
X572766Y652536D01*
X572766Y659204D01*
X579434Y659204D01*
X579434Y654648D02*
X572766Y654648D01*
X572766Y656760D02*
X579434Y656760D01*
X579434Y658872D02*
X572766Y658872D01*
D20*
X777220Y660570D02*
X777220Y653570D01*
X771220Y653570D01*
X771220Y660570D01*
X777220Y660570D01*
X777220Y655470D02*
X771220Y655470D01*
X771220Y657370D02*
X777220Y657370D01*
X777220Y659270D02*
X771220Y659270D01*
X777220Y676570D02*
X777220Y683570D01*
X777220Y676570D02*
X771220Y676570D01*
X771220Y683570D01*
X777220Y683570D01*
X777220Y678470D02*
X771220Y678470D01*
X771220Y680370D02*
X777220Y680370D01*
X777220Y682270D02*
X771220Y682270D01*
D28*
X829783Y687937D02*
X829783Y697463D01*
X829783Y687937D02*
X817717Y687937D01*
X817717Y697463D01*
X829783Y697463D01*
X829783Y690953D02*
X817717Y690953D01*
X817717Y693969D02*
X829783Y693969D01*
X829783Y696985D02*
X817717Y696985D01*
X829783Y713337D02*
X829783Y722863D01*
X829783Y713337D02*
X817717Y713337D01*
X817717Y722863D01*
X829783Y722863D01*
X829783Y716353D02*
X817717Y716353D01*
X817717Y719369D02*
X829783Y719369D01*
X829783Y722385D02*
X817717Y722385D01*
D11*
X187004Y634756D02*
X180336Y634756D01*
X180336Y641424D01*
X187004Y641424D01*
X187004Y634756D01*
X187004Y636868D02*
X180336Y636868D01*
X180336Y638980D02*
X187004Y638980D01*
X187004Y641092D02*
X180336Y641092D01*
X195576Y634756D02*
X202244Y634756D01*
X195576Y634756D02*
X195576Y641424D01*
X202244Y641424D01*
X202244Y634756D01*
X202244Y636868D02*
X195576Y636868D01*
X195576Y638980D02*
X202244Y638980D01*
X202244Y641092D02*
X195576Y641092D01*
D29*
X323052Y661268D02*
X328768Y661268D01*
X328768Y647932D01*
X323052Y647932D01*
X323052Y661268D01*
X323052Y649742D02*
X328768Y649742D01*
X328768Y651552D02*
X323052Y651552D01*
X323052Y653362D02*
X328768Y653362D01*
X328768Y655172D02*
X323052Y655172D01*
X323052Y656982D02*
X328768Y656982D01*
X328768Y658792D02*
X323052Y658792D01*
X323052Y660602D02*
X328768Y660602D01*
X328768Y712068D02*
X323052Y712068D01*
X328768Y712068D02*
X328768Y698732D01*
X323052Y698732D01*
X323052Y712068D01*
X323052Y700542D02*
X328768Y700542D01*
X328768Y702352D02*
X323052Y702352D01*
X323052Y704162D02*
X328768Y704162D01*
X328768Y705972D02*
X323052Y705972D01*
X323052Y707782D02*
X328768Y707782D01*
X328768Y709592D02*
X323052Y709592D01*
X323052Y711402D02*
X328768Y711402D01*
X361152Y661268D02*
X366868Y661268D01*
X366868Y647932D01*
X361152Y647932D01*
X361152Y661268D01*
X361152Y649742D02*
X366868Y649742D01*
X366868Y651552D02*
X361152Y651552D01*
X361152Y653362D02*
X366868Y653362D01*
X366868Y655172D02*
X361152Y655172D01*
X361152Y656982D02*
X366868Y656982D01*
X366868Y658792D02*
X361152Y658792D01*
X361152Y660602D02*
X366868Y660602D01*
X366868Y712068D02*
X361152Y712068D01*
X366868Y712068D02*
X366868Y698732D01*
X361152Y698732D01*
X361152Y712068D01*
X361152Y700542D02*
X366868Y700542D01*
X366868Y702352D02*
X361152Y702352D01*
X361152Y704162D02*
X366868Y704162D01*
X366868Y705972D02*
X361152Y705972D01*
X361152Y707782D02*
X366868Y707782D01*
X366868Y709592D02*
X361152Y709592D01*
X361152Y711402D02*
X366868Y711402D01*
X201768Y698732D02*
X196052Y698732D01*
X196052Y712068D01*
X201768Y712068D01*
X201768Y698732D01*
X201768Y700542D02*
X196052Y700542D01*
X196052Y702352D02*
X201768Y702352D01*
X201768Y704162D02*
X196052Y704162D01*
X196052Y705972D02*
X201768Y705972D01*
X201768Y707782D02*
X196052Y707782D01*
X196052Y709592D02*
X201768Y709592D01*
X201768Y711402D02*
X196052Y711402D01*
X196052Y647932D02*
X201768Y647932D01*
X196052Y647932D02*
X196052Y661268D01*
X201768Y661268D01*
X201768Y647932D01*
X201768Y649742D02*
X196052Y649742D01*
X196052Y651552D02*
X201768Y651552D01*
X201768Y653362D02*
X196052Y653362D01*
X196052Y655172D02*
X201768Y655172D01*
X201768Y656982D02*
X196052Y656982D01*
X196052Y658792D02*
X201768Y658792D01*
X201768Y660602D02*
X196052Y660602D01*
X163668Y698732D02*
X157952Y698732D01*
X157952Y712068D01*
X163668Y712068D01*
X163668Y698732D01*
X163668Y700542D02*
X157952Y700542D01*
X157952Y702352D02*
X163668Y702352D01*
X163668Y704162D02*
X157952Y704162D01*
X157952Y705972D02*
X163668Y705972D01*
X163668Y707782D02*
X157952Y707782D01*
X157952Y709592D02*
X163668Y709592D01*
X163668Y711402D02*
X157952Y711402D01*
X157952Y647932D02*
X163668Y647932D01*
X157952Y647932D02*
X157952Y661268D01*
X163668Y661268D01*
X163668Y647932D01*
X163668Y649742D02*
X157952Y649742D01*
X157952Y651552D02*
X163668Y651552D01*
X163668Y653362D02*
X157952Y653362D01*
X157952Y655172D02*
X163668Y655172D01*
X163668Y656982D02*
X157952Y656982D01*
X157952Y658792D02*
X163668Y658792D01*
X163668Y660602D02*
X157952Y660602D01*
D20*
X785430Y676050D02*
X791430Y676050D01*
X785430Y676050D02*
X785430Y678050D01*
X791430Y678050D01*
X791430Y676050D01*
X791430Y677950D02*
X785430Y677950D01*
X785430Y669550D02*
X791430Y669550D01*
X785430Y669550D02*
X785430Y671550D01*
X791430Y671550D01*
X791430Y669550D01*
X791430Y671450D02*
X785430Y671450D01*
X785430Y663050D02*
X791430Y663050D01*
X785430Y663050D02*
X785430Y665050D01*
X791430Y665050D01*
X791430Y663050D01*
X791430Y664950D02*
X785430Y664950D01*
X785430Y656550D02*
X791430Y656550D01*
X785430Y656550D02*
X785430Y658550D01*
X791430Y658550D01*
X791430Y656550D01*
X791430Y658450D02*
X785430Y658450D01*
X815430Y656550D02*
X821430Y656550D01*
X815430Y656550D02*
X815430Y658550D01*
X821430Y658550D01*
X821430Y656550D01*
X821430Y658450D02*
X815430Y658450D01*
X815430Y663050D02*
X821430Y663050D01*
X815430Y663050D02*
X815430Y665050D01*
X821430Y665050D01*
X821430Y663050D01*
X821430Y664950D02*
X815430Y664950D01*
X815430Y669550D02*
X821430Y669550D01*
X815430Y669550D02*
X815430Y671550D01*
X821430Y671550D01*
X821430Y669550D01*
X821430Y671450D02*
X815430Y671450D01*
X815430Y676050D02*
X821430Y676050D01*
X815430Y676050D02*
X815430Y678050D01*
X821430Y678050D01*
X821430Y676050D01*
X821430Y677950D02*
X815430Y677950D01*
D25*
X800890Y676190D03*
X809780Y676190D03*
X800890Y667300D03*
X809780Y667300D03*
X800890Y658410D03*
X809780Y658410D03*
D30*
X803434Y682377D03*
D31*
X803439Y652422D03*
D19*
X804700Y666030D02*
X802160Y666030D01*
X802160Y668570D01*
X804700Y668570D01*
X804700Y666030D01*
X804700Y668443D02*
X802160Y668443D01*
D11*
X802636Y694764D02*
X809304Y694764D01*
X809304Y688096D01*
X802636Y688096D01*
X802636Y694764D01*
X802636Y690208D02*
X809304Y690208D01*
X809304Y692320D02*
X802636Y692320D01*
X802636Y694432D02*
X809304Y694432D01*
X794064Y694764D02*
X787396Y694764D01*
X794064Y694764D02*
X794064Y688096D01*
X787396Y688096D01*
X787396Y694764D01*
X787396Y690208D02*
X794064Y690208D01*
X794064Y692320D02*
X787396Y692320D01*
X787396Y694432D02*
X794064Y694432D01*
D20*
X627370Y668370D02*
X627370Y662370D01*
X627370Y668370D02*
X634370Y668370D01*
X634370Y662370D01*
X627370Y662370D01*
X627370Y664270D02*
X634370Y664270D01*
X634370Y666170D02*
X627370Y666170D01*
X627370Y668070D02*
X634370Y668070D01*
X627370Y649370D02*
X627370Y643370D01*
X627370Y649370D02*
X634370Y649370D01*
X634370Y643370D01*
X627370Y643370D01*
X627370Y645270D02*
X634370Y645270D01*
X634370Y647170D02*
X627370Y647170D01*
X627370Y649070D02*
X634370Y649070D01*
X648370Y652870D02*
X648370Y658870D01*
X655370Y658870D01*
X655370Y652870D01*
X648370Y652870D01*
X648370Y654770D02*
X655370Y654770D01*
X655370Y656670D02*
X648370Y656670D01*
X648370Y658570D02*
X655370Y658570D01*
D11*
X629472Y676666D02*
X622804Y676666D01*
X622804Y683334D01*
X629472Y683334D01*
X629472Y676666D01*
X629472Y678778D02*
X622804Y678778D01*
X622804Y680890D02*
X629472Y680890D01*
X629472Y683002D02*
X622804Y683002D01*
X638044Y676666D02*
X644712Y676666D01*
X638044Y676666D02*
X638044Y683334D01*
X644712Y683334D01*
X644712Y676666D01*
X644712Y678778D02*
X638044Y678778D01*
X638044Y680890D02*
X644712Y680890D01*
X644712Y683002D02*
X638044Y683002D01*
X671636Y647774D02*
X671636Y641106D01*
X664968Y641106D01*
X664968Y647774D01*
X671636Y647774D01*
X671636Y643218D02*
X664968Y643218D01*
X664968Y645330D02*
X671636Y645330D01*
X671636Y647442D02*
X664968Y647442D01*
X671636Y656346D02*
X671636Y663014D01*
X671636Y656346D02*
X664968Y656346D01*
X664968Y663014D01*
X671636Y663014D01*
X671636Y658458D02*
X664968Y658458D01*
X664968Y660570D02*
X671636Y660570D01*
X671636Y662682D02*
X664968Y662682D01*
X684336Y647774D02*
X684336Y641106D01*
X677668Y641106D01*
X677668Y647774D01*
X684336Y647774D01*
X684336Y643218D02*
X677668Y643218D01*
X677668Y645330D02*
X684336Y645330D01*
X684336Y647442D02*
X677668Y647442D01*
X684336Y656346D02*
X684336Y663014D01*
X684336Y656346D02*
X677668Y656346D01*
X677668Y663014D01*
X684336Y663014D01*
X684336Y658458D02*
X677668Y658458D01*
X677668Y660570D02*
X684336Y660570D01*
X684336Y662682D02*
X677668Y662682D01*
X621344Y703654D02*
X614676Y703654D01*
X621344Y703654D02*
X621344Y696986D01*
X614676Y696986D01*
X614676Y703654D01*
X614676Y699098D02*
X621344Y699098D01*
X621344Y701210D02*
X614676Y701210D01*
X614676Y703322D02*
X621344Y703322D01*
X606104Y703654D02*
X599436Y703654D01*
X606104Y703654D02*
X606104Y696986D01*
X599436Y696986D01*
X599436Y703654D01*
X599436Y699098D02*
X606104Y699098D01*
X606104Y701210D02*
X599436Y701210D01*
X599436Y703322D02*
X606104Y703322D01*
X655316Y708162D02*
X661984Y708162D01*
X655316Y708162D02*
X655316Y714830D01*
X661984Y714830D01*
X661984Y708162D01*
X661984Y710274D02*
X655316Y710274D01*
X655316Y712386D02*
X661984Y712386D01*
X661984Y714498D02*
X655316Y714498D01*
X670556Y708162D02*
X677224Y708162D01*
X670556Y708162D02*
X670556Y714830D01*
X677224Y714830D01*
X677224Y708162D01*
X677224Y710274D02*
X670556Y710274D01*
X670556Y712386D02*
X677224Y712386D01*
X677224Y714498D02*
X670556Y714498D01*
D13*
X928045Y708875D02*
X928045Y696125D01*
X928045Y708875D02*
X934795Y708875D01*
X934795Y696125D01*
X928045Y696125D01*
X928045Y698262D02*
X934795Y698262D01*
X934795Y700399D02*
X928045Y700399D01*
X928045Y702536D02*
X934795Y702536D01*
X934795Y704673D02*
X928045Y704673D01*
X928045Y706810D02*
X934795Y706810D01*
X893045Y708875D02*
X893045Y696125D01*
X893045Y708875D02*
X899795Y708875D01*
X899795Y696125D01*
X893045Y696125D01*
X893045Y698262D02*
X899795Y698262D01*
X899795Y700399D02*
X893045Y700399D01*
X893045Y702536D02*
X899795Y702536D01*
X899795Y704673D02*
X893045Y704673D01*
X893045Y706810D02*
X899795Y706810D01*
X893045Y663875D02*
X893045Y651125D01*
X893045Y663875D02*
X899795Y663875D01*
X899795Y651125D01*
X893045Y651125D01*
X893045Y653262D02*
X899795Y653262D01*
X899795Y655399D02*
X893045Y655399D01*
X893045Y657536D02*
X899795Y657536D01*
X899795Y659673D02*
X893045Y659673D01*
X893045Y661810D02*
X899795Y661810D01*
D11*
X508314Y655076D02*
X501646Y655076D01*
X501646Y661744D01*
X508314Y661744D01*
X508314Y655076D01*
X508314Y657188D02*
X501646Y657188D01*
X501646Y659300D02*
X508314Y659300D01*
X508314Y661412D02*
X501646Y661412D01*
X516886Y655076D02*
X523554Y655076D01*
X516886Y655076D02*
X516886Y661744D01*
X523554Y661744D01*
X523554Y655076D01*
X523554Y657188D02*
X516886Y657188D01*
X516886Y659300D02*
X523554Y659300D01*
X523554Y661412D02*
X516886Y661412D01*
X508314Y637296D02*
X501646Y637296D01*
X501646Y643964D01*
X508314Y643964D01*
X508314Y637296D01*
X508314Y639408D02*
X501646Y639408D01*
X501646Y641520D02*
X508314Y641520D01*
X508314Y643632D02*
X501646Y643632D01*
X516886Y637296D02*
X523554Y637296D01*
X516886Y637296D02*
X516886Y643964D01*
X523554Y643964D01*
X523554Y637296D01*
X523554Y639408D02*
X516886Y639408D01*
X516886Y641520D02*
X523554Y641520D01*
X523554Y643632D02*
X516886Y643632D01*
X374646Y690636D02*
X374646Y697304D01*
X381314Y697304D01*
X381314Y690636D01*
X374646Y690636D01*
X374646Y692748D02*
X381314Y692748D01*
X381314Y694860D02*
X374646Y694860D01*
X374646Y696972D02*
X381314Y696972D01*
X374646Y682064D02*
X374646Y675396D01*
X374646Y682064D02*
X381314Y682064D01*
X381314Y675396D01*
X374646Y675396D01*
X374646Y677508D02*
X381314Y677508D01*
X381314Y679620D02*
X374646Y679620D01*
X374646Y681732D02*
X381314Y681732D01*
X381314Y703336D02*
X381314Y710004D01*
X381314Y703336D02*
X374646Y703336D01*
X374646Y710004D01*
X381314Y710004D01*
X381314Y705448D02*
X374646Y705448D01*
X374646Y707560D02*
X381314Y707560D01*
X381314Y709672D02*
X374646Y709672D01*
X381314Y718576D02*
X381314Y725244D01*
X381314Y718576D02*
X374646Y718576D01*
X374646Y725244D01*
X381314Y725244D01*
X381314Y720688D02*
X374646Y720688D01*
X374646Y722800D02*
X381314Y722800D01*
X381314Y724912D02*
X374646Y724912D01*
D20*
X406070Y707470D02*
X412070Y707470D01*
X412070Y700470D01*
X406070Y700470D01*
X406070Y707470D01*
X406070Y702370D02*
X412070Y702370D01*
X412070Y704270D02*
X406070Y704270D01*
X406070Y706170D02*
X412070Y706170D01*
X393070Y707470D02*
X387070Y707470D01*
X393070Y707470D02*
X393070Y700470D01*
X387070Y700470D01*
X387070Y707470D01*
X387070Y702370D02*
X393070Y702370D01*
X393070Y704270D02*
X387070Y704270D01*
X387070Y706170D02*
X393070Y706170D01*
X396570Y686470D02*
X402570Y686470D01*
X402570Y679470D01*
X396570Y679470D01*
X396570Y686470D01*
X396570Y681370D02*
X402570Y681370D01*
X402570Y683270D02*
X396570Y683270D01*
X396570Y685170D02*
X402570Y685170D01*
D11*
X403856Y720164D02*
X410524Y720164D01*
X410524Y713496D01*
X403856Y713496D01*
X403856Y720164D01*
X403856Y715608D02*
X410524Y715608D01*
X410524Y717720D02*
X403856Y717720D01*
X403856Y719832D02*
X410524Y719832D01*
X395284Y720164D02*
X388616Y720164D01*
X395284Y720164D02*
X395284Y713496D01*
X388616Y713496D01*
X388616Y720164D01*
X388616Y715608D02*
X395284Y715608D01*
X395284Y717720D02*
X388616Y717720D01*
X388616Y719832D02*
X395284Y719832D01*
D29*
X246218Y661268D02*
X240502Y661268D01*
X246218Y661268D02*
X246218Y647932D01*
X240502Y647932D01*
X240502Y661268D01*
X240502Y649742D02*
X246218Y649742D01*
X246218Y651552D02*
X240502Y651552D01*
X240502Y653362D02*
X246218Y653362D01*
X246218Y655172D02*
X240502Y655172D01*
X240502Y656982D02*
X246218Y656982D01*
X246218Y658792D02*
X240502Y658792D01*
X240502Y660602D02*
X246218Y660602D01*
X246218Y712068D02*
X240502Y712068D01*
X246218Y712068D02*
X246218Y698732D01*
X240502Y698732D01*
X240502Y712068D01*
X240502Y700542D02*
X246218Y700542D01*
X246218Y702352D02*
X240502Y702352D01*
X240502Y704162D02*
X246218Y704162D01*
X246218Y705972D02*
X240502Y705972D01*
X240502Y707782D02*
X246218Y707782D01*
X246218Y709592D02*
X240502Y709592D01*
X240502Y711402D02*
X246218Y711402D01*
X278602Y661268D02*
X284318Y661268D01*
X284318Y647932D01*
X278602Y647932D01*
X278602Y661268D01*
X278602Y649742D02*
X284318Y649742D01*
X284318Y651552D02*
X278602Y651552D01*
X278602Y653362D02*
X284318Y653362D01*
X284318Y655172D02*
X278602Y655172D01*
X278602Y656982D02*
X284318Y656982D01*
X284318Y658792D02*
X278602Y658792D01*
X278602Y660602D02*
X284318Y660602D01*
X284318Y712068D02*
X278602Y712068D01*
X284318Y712068D02*
X284318Y698732D01*
X278602Y698732D01*
X278602Y712068D01*
X278602Y700542D02*
X284318Y700542D01*
X284318Y702352D02*
X278602Y702352D01*
X278602Y704162D02*
X284318Y704162D01*
X284318Y705972D02*
X278602Y705972D01*
X278602Y707782D02*
X284318Y707782D01*
X284318Y709592D02*
X278602Y709592D01*
X278602Y711402D02*
X284318Y711402D01*
D11*
X294636Y670316D02*
X301304Y670316D01*
X294636Y670316D02*
X294636Y676984D01*
X301304Y676984D01*
X301304Y670316D01*
X301304Y672428D02*
X294636Y672428D01*
X294636Y674540D02*
X301304Y674540D01*
X301304Y676652D02*
X294636Y676652D01*
X309876Y670316D02*
X316544Y670316D01*
X309876Y670316D02*
X309876Y676984D01*
X316544Y676984D01*
X316544Y670316D01*
X316544Y672428D02*
X309876Y672428D01*
X309876Y674540D02*
X316544Y674540D01*
X316544Y676652D02*
X309876Y676652D01*
X301304Y690636D02*
X294636Y690636D01*
X294636Y697304D01*
X301304Y697304D01*
X301304Y690636D01*
X301304Y692748D02*
X294636Y692748D01*
X294636Y694860D02*
X301304Y694860D01*
X301304Y696972D02*
X294636Y696972D01*
X309876Y690636D02*
X316544Y690636D01*
X309876Y690636D02*
X309876Y697304D01*
X316544Y697304D01*
X316544Y690636D01*
X316544Y692748D02*
X309876Y692748D01*
X309876Y694860D02*
X316544Y694860D01*
X316544Y696972D02*
X309876Y696972D01*
X150174Y675714D02*
X150174Y669046D01*
X143506Y669046D01*
X143506Y675714D01*
X150174Y675714D01*
X150174Y671158D02*
X143506Y671158D01*
X143506Y673270D02*
X150174Y673270D01*
X150174Y675382D02*
X143506Y675382D01*
X150174Y684286D02*
X150174Y690954D01*
X150174Y684286D02*
X143506Y684286D01*
X143506Y690954D01*
X150174Y690954D01*
X150174Y686398D02*
X143506Y686398D01*
X143506Y688510D02*
X150174Y688510D01*
X150174Y690622D02*
X143506Y690622D01*
X137474Y675714D02*
X137474Y669046D01*
X130806Y669046D01*
X130806Y675714D01*
X137474Y675714D01*
X137474Y671158D02*
X130806Y671158D01*
X130806Y673270D02*
X137474Y673270D01*
X137474Y675382D02*
X130806Y675382D01*
X137474Y684286D02*
X137474Y690954D01*
X137474Y684286D02*
X130806Y684286D01*
X130806Y690954D01*
X137474Y690954D01*
X137474Y686398D02*
X130806Y686398D01*
X130806Y688510D02*
X137474Y688510D01*
X137474Y690622D02*
X130806Y690622D01*
M02*
