M48
;GenerationSoftware,Autodesk,EAGLE,9.6.0*%
;CreationDate,2021-04-24T07:52:00Z*%
FMAT,2
ICI,OFF
METRIC,TZ,000.000
T3C0.300
T2C0.650
T1C1.350
%
G90
M71
T1
X5540Y68000
X22914Y18000
X27994Y18000
X32414Y18000
X37494Y18000
X87709Y18000
X92789Y18000
X75415Y68000
X70335Y68000
X65915Y68000
X60835Y68000
X10620Y68000
T2
X9683Y20890
X9683Y15110
X88646Y70890
X88646Y65110
T3
X86058Y18000
X86058Y20286
X66119Y17848
X42751Y20286
X12004Y18470
X17224Y13533
X52601Y18437
X43767Y15460
X84915Y20286
X84915Y15714
X45111Y16657
X71326Y14317
X64849Y19778
X16589Y13533
X16907Y14092
X46815Y14137
X52601Y17802
X5032Y18000
X7572Y18000
X7572Y19524
X6302Y18762
X6302Y17238
X5032Y16476
X6302Y15714
X6302Y20286
X7572Y16476
X7572Y14952
X8842Y17238
X8842Y18762
X7572Y21048
X53617Y15897
X52855Y15389
X66754Y14571
X68532Y15155
X70183Y22445
X76660Y20413
X29264Y19397
X71072Y21327
X72215Y15130
X81105Y14825
X48720Y19524
X67135Y18381
X63960Y18508
X48717Y17692
X80089Y22445
X73053Y14393
X72190Y18000
X82502Y22445
X39830Y22089
X41227Y19651
X40719Y22089
X41227Y18889
X64011Y16959
X31194Y19397
X47069Y14952
X64493Y14647
X64290Y13885
X44021Y20032
X63198Y20794
X64417Y19143
X44783Y19774
X63960Y20794
X66754Y20413
X68989Y22318
X45240Y17877
X45164Y20921
X69446Y18940
X76279Y22445
X72215Y19854
X17732Y17619
X18113Y17111
X13973Y17289
X13541Y16857
X13033Y20032
X12525Y19778
X12017Y20032
X13109Y17289
X63376Y14749
X80978Y13555
X44402Y20921
X70208Y18914
X71910Y20565
X44402Y14317
X77422Y13530
X61547Y14063
X54562Y13911
X54562Y14546
X71859Y17314
X66754Y15689
X75522Y22445
X78565Y22445
X77041Y22445
X70234Y17670
X12347Y16959
X14684Y16908
X19764Y14952
X63985Y15282
X77803Y22445
X17224Y68254
X25225Y71937
X54689Y67619
X54689Y68381
X55451Y68381
X55451Y67619
X19256Y65587
X19256Y70413
X24082Y70413
X24082Y65587
X24082Y68000
X19256Y68000
X21669Y65587
X21669Y68000
X17224Y66476
X12398Y65714
X12271Y68000
X12271Y70286
X32210Y67848
X55578Y70286
X86325Y68470
X81105Y63533
X45728Y68437
X54562Y65460
X13414Y70286
X13414Y65714
X53218Y66657
X27003Y64317
X33480Y69778
X81740Y63533
X81423Y64092
X51514Y64137
X45728Y67802
X93297Y68000
X90757Y68000
X90757Y69524
X92027Y68762
X92027Y67238
X93297Y66476
X92027Y65714
X92027Y70286
X90757Y66476
X90757Y64952
X89487Y67238
X89487Y68762
X90757Y71048
X44712Y65897
X45474Y65389
X31575Y64571
X29797Y65155
X28146Y72445
X21669Y70413
X69065Y69397
X27257Y71327
X26114Y65130
X17224Y64825
X49609Y69524
X31194Y68381
X34369Y68508
X49612Y67692
X18240Y72445
X25276Y64393
X26139Y68000
X15827Y72445
X58499Y72089
X57102Y69651
X57610Y72089
X57102Y68889
X34318Y66959
X81105Y18254
X51260Y64952
X33836Y64647
X34039Y63885
X54308Y70032
X35131Y70794
X33912Y69143
X53546Y69774
X34369Y70794
X31575Y70413
X29340Y72318
X53089Y67877
X53165Y70921
X28883Y68940
X22050Y72445
X26114Y69854
X80597Y67619
X80216Y67111
X84356Y67289
X84788Y66857
X85296Y70032
X85804Y69778
X86312Y70032
X85220Y67289
X34953Y64749
X17351Y63555
X53927Y70921
X28121Y68914
X26419Y70565
X53927Y64317
X67135Y69397
X36782Y64063
X43767Y63911
X43767Y64546
X26470Y67314
X31575Y65689
X22807Y72445
X19764Y72445
X21288Y72445
X28095Y67670
X85982Y66959
X83645Y66908
X78565Y64952
X34344Y65282
X20526Y72445
X73104Y21937
X43640Y17619
X43640Y18381
X42878Y18381
X42878Y17619
X79073Y15587
X79073Y20413
X74247Y20413
X74247Y15587
X74247Y18000
X79073Y18000
X76660Y15587
X76660Y18000
X81105Y16476
X85931Y15714
X20907Y63530
M30