G04 EAGLE Gerber RS-274X export*
G75*
%MOMM*%
%FSLAX34Y34*%
%LPD*%
%INTop Copper*%
%IPPOS*%
%AMOC8*
5,1,8,0,0,1.08239X$1,22.5*%
G01*
%ADD10C,0.222250*%
%ADD11C,0.550000*%
%ADD12C,0.225000*%
%ADD13C,0.280000*%
%ADD14C,0.290000*%
%ADD15C,0.184800*%
%ADD16C,0.369600*%
%ADD17C,1.000000*%
%ADD18C,0.363000*%
%ADD19C,0.254000*%
%ADD20C,0.200000*%
%ADD21C,0.285000*%
%ADD22C,0.350000*%
%ADD23C,0.150000*%
%ADD24C,0.399900*%
%ADD25P,2.191840X8X112.500000*%
%ADD26C,1.000000*%
%ADD27C,0.127000*%
%ADD28C,0.604800*%
%ADD29C,0.508000*%
%ADD30C,0.762000*%
%ADD31C,0.381000*%
%ADD32C,1.143000*%
%ADD33C,0.889000*%
%ADD34C,0.609600*%
%ADD35C,0.800000*%
%ADD36C,0.203200*%
%ADD37C,0.152400*%

G36*
X22799Y27950D02*
X22799Y27950D01*
X22826Y27948D01*
X22909Y27970D01*
X22994Y27985D01*
X23017Y27999D01*
X23042Y28006D01*
X23113Y28056D01*
X23187Y28100D01*
X23204Y28120D01*
X23225Y28135D01*
X23274Y28207D01*
X23328Y28274D01*
X23337Y28299D01*
X23352Y28321D01*
X23373Y28405D01*
X23400Y28486D01*
X23400Y28513D01*
X23406Y28539D01*
X23396Y28624D01*
X23394Y28711D01*
X23384Y28735D01*
X23381Y28761D01*
X23342Y28839D01*
X23309Y28918D01*
X23292Y28938D01*
X23280Y28962D01*
X23184Y29055D01*
X23158Y29084D01*
X23152Y29087D01*
X23146Y29093D01*
X22524Y29545D01*
X21402Y33000D01*
X22524Y36455D01*
X25463Y38591D01*
X35297Y38591D01*
X38236Y36455D01*
X39358Y33000D01*
X38236Y29545D01*
X37614Y29093D01*
X37596Y29074D01*
X37573Y29060D01*
X37519Y28993D01*
X37459Y28931D01*
X37448Y28907D01*
X37432Y28886D01*
X37404Y28805D01*
X37370Y28725D01*
X37368Y28699D01*
X37360Y28674D01*
X37362Y28588D01*
X37358Y28501D01*
X37365Y28476D01*
X37366Y28449D01*
X37399Y28370D01*
X37424Y28287D01*
X37441Y28266D01*
X37451Y28242D01*
X37509Y28178D01*
X37562Y28110D01*
X37584Y28096D01*
X37602Y28076D01*
X37679Y28036D01*
X37752Y27991D01*
X37778Y27986D01*
X37802Y27973D01*
X37934Y27954D01*
X37972Y27946D01*
X37979Y27947D01*
X37987Y27946D01*
X62123Y27946D01*
X62149Y27950D01*
X62176Y27948D01*
X62259Y27970D01*
X62344Y27985D01*
X62367Y27999D01*
X62392Y28006D01*
X62463Y28056D01*
X62537Y28100D01*
X62554Y28120D01*
X62575Y28135D01*
X62624Y28207D01*
X62678Y28274D01*
X62687Y28299D01*
X62702Y28321D01*
X62723Y28405D01*
X62750Y28486D01*
X62750Y28513D01*
X62756Y28539D01*
X62746Y28624D01*
X62744Y28711D01*
X62734Y28735D01*
X62731Y28762D01*
X62692Y28839D01*
X62659Y28918D01*
X62642Y28938D01*
X62630Y28962D01*
X62534Y29055D01*
X62508Y29084D01*
X62502Y29087D01*
X62496Y29093D01*
X61874Y29545D01*
X60752Y33000D01*
X61874Y36455D01*
X64813Y38591D01*
X79447Y38591D01*
X82386Y36455D01*
X83508Y33000D01*
X82386Y29545D01*
X81764Y29093D01*
X81746Y29074D01*
X81723Y29060D01*
X81669Y28993D01*
X81609Y28931D01*
X81598Y28907D01*
X81582Y28886D01*
X81554Y28805D01*
X81520Y28725D01*
X81518Y28699D01*
X81510Y28674D01*
X81512Y28588D01*
X81508Y28501D01*
X81515Y28476D01*
X81516Y28449D01*
X81549Y28370D01*
X81574Y28287D01*
X81591Y28266D01*
X81601Y28242D01*
X81659Y28178D01*
X81712Y28110D01*
X81734Y28096D01*
X81752Y28076D01*
X81829Y28036D01*
X81902Y27991D01*
X81928Y27986D01*
X81952Y27973D01*
X82084Y27954D01*
X82122Y27946D01*
X82129Y27947D01*
X82137Y27946D01*
X82503Y27946D01*
X82545Y27953D01*
X82587Y27951D01*
X82654Y27973D01*
X82724Y27985D01*
X82760Y28007D01*
X82801Y28020D01*
X82873Y28074D01*
X82917Y28100D01*
X82930Y28116D01*
X82951Y28132D01*
X84898Y30079D01*
X84923Y30114D01*
X84954Y30142D01*
X84986Y30205D01*
X85027Y30263D01*
X85037Y30304D01*
X85057Y30342D01*
X85070Y30431D01*
X85083Y30480D01*
X85080Y30501D01*
X85084Y30527D01*
X85084Y38460D01*
X86296Y40977D01*
X86309Y41024D01*
X86332Y41067D01*
X86343Y41144D01*
X86352Y41171D01*
X86352Y41177D01*
X86357Y41193D01*
X86354Y41219D01*
X86359Y41252D01*
X86359Y43389D01*
X86352Y43431D01*
X86354Y43473D01*
X86332Y43540D01*
X86320Y43610D01*
X86298Y43646D01*
X86285Y43687D01*
X86231Y43759D01*
X86205Y43803D01*
X86189Y43816D01*
X86173Y43837D01*
X83207Y46803D01*
X83176Y46825D01*
X83160Y46843D01*
X83157Y46844D01*
X83144Y46859D01*
X83081Y46891D01*
X83023Y46932D01*
X82982Y46942D01*
X82944Y46962D01*
X82855Y46975D01*
X82806Y46988D01*
X82785Y46985D01*
X82759Y46989D01*
X73255Y46989D01*
X73190Y46978D01*
X73124Y46976D01*
X73081Y46958D01*
X73034Y46950D01*
X72977Y46916D01*
X72917Y46891D01*
X72882Y46860D01*
X72841Y46835D01*
X72799Y46784D01*
X72751Y46740D01*
X72729Y46698D01*
X72700Y46661D01*
X72679Y46599D01*
X72648Y46540D01*
X72640Y46486D01*
X72628Y46449D01*
X72628Y46434D01*
X72628Y46433D01*
X72628Y46407D01*
X72621Y46355D01*
X72621Y46148D01*
X71739Y44020D01*
X70110Y42391D01*
X67982Y41509D01*
X65678Y41509D01*
X63550Y42391D01*
X61921Y44020D01*
X61039Y46148D01*
X61039Y48452D01*
X61921Y50580D01*
X63550Y52209D01*
X65678Y53091D01*
X67982Y53091D01*
X70166Y52186D01*
X70179Y52176D01*
X70201Y52168D01*
X70220Y52155D01*
X70307Y52133D01*
X70391Y52104D01*
X70415Y52105D01*
X70437Y52099D01*
X70526Y52108D01*
X70616Y52111D01*
X70637Y52119D01*
X70661Y52122D01*
X70741Y52161D01*
X70823Y52195D01*
X70841Y52211D01*
X70862Y52221D01*
X70923Y52286D01*
X70989Y52346D01*
X71000Y52367D01*
X71016Y52384D01*
X71051Y52466D01*
X71092Y52546D01*
X71095Y52572D01*
X71103Y52591D01*
X71106Y52641D01*
X71119Y52731D01*
X71119Y55991D01*
X71398Y56270D01*
X71436Y56324D01*
X71481Y56372D01*
X71499Y56415D01*
X71526Y56454D01*
X71543Y56518D01*
X71568Y56579D01*
X71570Y56626D01*
X71582Y56671D01*
X71575Y56737D01*
X71578Y56803D01*
X71564Y56848D01*
X71559Y56895D01*
X71530Y56954D01*
X71510Y57016D01*
X71477Y57060D01*
X71459Y57096D01*
X71431Y57123D01*
X71398Y57167D01*
X71355Y57210D01*
X71355Y60190D01*
X71916Y60751D01*
X71954Y60806D01*
X71999Y60853D01*
X72018Y60897D01*
X72045Y60936D01*
X72061Y60999D01*
X72087Y61060D01*
X72089Y61107D01*
X72101Y61153D01*
X72094Y61218D01*
X72097Y61284D01*
X72082Y61329D01*
X72077Y61376D01*
X72048Y61435D01*
X72028Y61498D01*
X71995Y61542D01*
X71978Y61577D01*
X71949Y61604D01*
X71916Y61648D01*
X71355Y62210D01*
X71355Y65190D01*
X71916Y65752D01*
X71954Y65806D01*
X71999Y65853D01*
X72018Y65897D01*
X72045Y65936D01*
X72061Y65999D01*
X72087Y66060D01*
X72089Y66107D01*
X72101Y66153D01*
X72094Y66218D01*
X72097Y66284D01*
X72082Y66329D01*
X72077Y66376D01*
X72048Y66435D01*
X72028Y66498D01*
X71995Y66542D01*
X71978Y66577D01*
X71949Y66604D01*
X71916Y66649D01*
X71355Y67210D01*
X71355Y70190D01*
X71877Y70712D01*
X71927Y70785D01*
X71983Y70854D01*
X71991Y70876D01*
X72005Y70896D01*
X72027Y70982D01*
X72055Y71066D01*
X72055Y71090D01*
X72061Y71113D01*
X72051Y71202D01*
X72049Y71291D01*
X72040Y71313D01*
X72037Y71336D01*
X71998Y71416D01*
X71964Y71498D01*
X71948Y71516D01*
X71938Y71537D01*
X71873Y71598D01*
X71813Y71664D01*
X71792Y71675D01*
X71775Y71691D01*
X71693Y71726D01*
X71613Y71767D01*
X71587Y71770D01*
X71568Y71779D01*
X71518Y71781D01*
X71428Y71794D01*
X70291Y71794D01*
X67944Y74141D01*
X67944Y83339D01*
X70331Y85726D01*
X70612Y85726D01*
X70677Y85737D01*
X70743Y85739D01*
X70786Y85757D01*
X70833Y85765D01*
X70890Y85799D01*
X70950Y85824D01*
X70985Y85855D01*
X71026Y85880D01*
X71068Y85931D01*
X71116Y85975D01*
X71138Y86017D01*
X71167Y86054D01*
X71188Y86116D01*
X71219Y86175D01*
X71227Y86229D01*
X71239Y86266D01*
X71238Y86306D01*
X71246Y86360D01*
X71246Y99796D01*
X71231Y99883D01*
X71221Y99972D01*
X71211Y99993D01*
X71207Y100017D01*
X71161Y100093D01*
X71122Y100173D01*
X71105Y100189D01*
X71092Y100210D01*
X71023Y100266D01*
X70959Y100327D01*
X70937Y100336D01*
X70918Y100351D01*
X70834Y100380D01*
X70752Y100414D01*
X70728Y100415D01*
X70706Y100423D01*
X70617Y100420D01*
X70528Y100424D01*
X70505Y100417D01*
X70481Y100416D01*
X70399Y100383D01*
X70314Y100356D01*
X70293Y100340D01*
X70274Y100332D01*
X70236Y100298D01*
X70163Y100244D01*
X70110Y100191D01*
X67982Y99309D01*
X65678Y99309D01*
X63550Y100191D01*
X61921Y101820D01*
X61039Y103948D01*
X61039Y106252D01*
X61921Y108380D01*
X63550Y110009D01*
X65678Y110891D01*
X67982Y110891D01*
X70110Y110009D01*
X71739Y108380D01*
X72621Y106252D01*
X72621Y106172D01*
X72632Y106107D01*
X72634Y106041D01*
X72652Y105998D01*
X72660Y105951D01*
X72694Y105894D01*
X72719Y105834D01*
X72750Y105799D01*
X72775Y105758D01*
X72826Y105716D01*
X72870Y105668D01*
X72912Y105646D01*
X72949Y105617D01*
X73011Y105596D01*
X73070Y105565D01*
X73124Y105557D01*
X73161Y105545D01*
X73201Y105546D01*
X73255Y105538D01*
X87657Y105538D01*
X90774Y102422D01*
X90808Y102397D01*
X90837Y102366D01*
X90900Y102334D01*
X90958Y102293D01*
X90999Y102283D01*
X91037Y102263D01*
X91126Y102250D01*
X91175Y102237D01*
X91196Y102240D01*
X91222Y102236D01*
X106136Y102236D01*
X106178Y102243D01*
X106220Y102241D01*
X106287Y102263D01*
X106357Y102275D01*
X106393Y102297D01*
X106434Y102310D01*
X106506Y102364D01*
X106550Y102390D01*
X106563Y102406D01*
X106584Y102422D01*
X114204Y110041D01*
X127000Y110041D01*
X127065Y110052D01*
X127131Y110054D01*
X127174Y110072D01*
X127221Y110080D01*
X127278Y110114D01*
X127338Y110139D01*
X127373Y110170D01*
X127414Y110195D01*
X127456Y110246D01*
X127504Y110290D01*
X127526Y110332D01*
X127555Y110369D01*
X127576Y110431D01*
X127607Y110490D01*
X127615Y110544D01*
X127627Y110581D01*
X127626Y110621D01*
X127634Y110675D01*
X127634Y123820D01*
X127623Y123885D01*
X127621Y123951D01*
X127603Y123994D01*
X127595Y124041D01*
X127561Y124098D01*
X127536Y124158D01*
X127505Y124193D01*
X127480Y124234D01*
X127429Y124276D01*
X127385Y124324D01*
X127343Y124346D01*
X127306Y124375D01*
X127244Y124396D01*
X127185Y124427D01*
X127131Y124435D01*
X127094Y124447D01*
X127054Y124446D01*
X127000Y124454D01*
X113077Y124454D01*
X113035Y124447D01*
X112993Y124449D01*
X112926Y124427D01*
X112856Y124415D01*
X112820Y124393D01*
X112779Y124380D01*
X112707Y124326D01*
X112663Y124300D01*
X112650Y124284D01*
X112629Y124268D01*
X110682Y122321D01*
X110657Y122287D01*
X110626Y122258D01*
X110594Y122195D01*
X110553Y122137D01*
X110543Y122096D01*
X110523Y122058D01*
X110510Y121969D01*
X110497Y121920D01*
X110500Y121899D01*
X110496Y121873D01*
X110496Y113940D01*
X107979Y108714D01*
X103445Y105098D01*
X97790Y103808D01*
X92135Y105098D01*
X87601Y108714D01*
X85084Y113940D01*
X85084Y121873D01*
X85077Y121915D01*
X85079Y121957D01*
X85057Y122024D01*
X85045Y122094D01*
X85023Y122130D01*
X85010Y122171D01*
X84956Y122243D01*
X84930Y122287D01*
X84914Y122300D01*
X84898Y122321D01*
X82951Y124268D01*
X82916Y124293D01*
X82888Y124324D01*
X82825Y124356D01*
X82767Y124397D01*
X82726Y124407D01*
X82688Y124427D01*
X82599Y124440D01*
X82550Y124453D01*
X82529Y124450D01*
X82503Y124454D01*
X82137Y124454D01*
X82111Y124450D01*
X82084Y124452D01*
X82001Y124430D01*
X81916Y124415D01*
X81893Y124401D01*
X81868Y124394D01*
X81797Y124344D01*
X81723Y124300D01*
X81706Y124280D01*
X81685Y124265D01*
X81636Y124193D01*
X81582Y124126D01*
X81573Y124101D01*
X81558Y124079D01*
X81537Y123995D01*
X81510Y123914D01*
X81510Y123887D01*
X81504Y123861D01*
X81514Y123776D01*
X81516Y123689D01*
X81526Y123665D01*
X81529Y123638D01*
X81568Y123561D01*
X81601Y123482D01*
X81618Y123462D01*
X81630Y123438D01*
X81726Y123345D01*
X81752Y123316D01*
X81758Y123313D01*
X81764Y123307D01*
X82386Y122855D01*
X83508Y119400D01*
X82386Y115945D01*
X79447Y113809D01*
X64813Y113809D01*
X61874Y115945D01*
X60752Y119400D01*
X61874Y122855D01*
X62496Y123307D01*
X62514Y123326D01*
X62537Y123340D01*
X62591Y123407D01*
X62651Y123469D01*
X62662Y123493D01*
X62678Y123514D01*
X62706Y123595D01*
X62740Y123675D01*
X62742Y123701D01*
X62750Y123726D01*
X62748Y123812D01*
X62752Y123899D01*
X62745Y123924D01*
X62744Y123951D01*
X62711Y124030D01*
X62686Y124113D01*
X62669Y124134D01*
X62659Y124158D01*
X62601Y124222D01*
X62548Y124290D01*
X62526Y124304D01*
X62508Y124324D01*
X62431Y124364D01*
X62358Y124409D01*
X62332Y124414D01*
X62308Y124427D01*
X62176Y124446D01*
X62138Y124454D01*
X62131Y124453D01*
X62123Y124454D01*
X37987Y124454D01*
X37961Y124450D01*
X37934Y124452D01*
X37851Y124430D01*
X37766Y124415D01*
X37743Y124401D01*
X37718Y124394D01*
X37647Y124344D01*
X37573Y124300D01*
X37556Y124280D01*
X37535Y124265D01*
X37486Y124193D01*
X37432Y124126D01*
X37423Y124101D01*
X37408Y124079D01*
X37387Y123995D01*
X37360Y123914D01*
X37360Y123887D01*
X37354Y123861D01*
X37364Y123776D01*
X37366Y123689D01*
X37376Y123665D01*
X37379Y123638D01*
X37418Y123561D01*
X37451Y123482D01*
X37468Y123462D01*
X37480Y123438D01*
X37576Y123345D01*
X37602Y123316D01*
X37608Y123313D01*
X37614Y123307D01*
X38236Y122855D01*
X39358Y119400D01*
X38236Y115945D01*
X35297Y113809D01*
X25463Y113809D01*
X22524Y115945D01*
X21402Y119400D01*
X22524Y122855D01*
X23146Y123307D01*
X23164Y123326D01*
X23187Y123340D01*
X23241Y123407D01*
X23301Y123469D01*
X23312Y123493D01*
X23328Y123514D01*
X23356Y123595D01*
X23390Y123675D01*
X23392Y123701D01*
X23400Y123726D01*
X23398Y123812D01*
X23402Y123899D01*
X23395Y123924D01*
X23394Y123951D01*
X23361Y124030D01*
X23336Y124113D01*
X23319Y124134D01*
X23309Y124158D01*
X23251Y124222D01*
X23198Y124290D01*
X23176Y124304D01*
X23158Y124324D01*
X23081Y124364D01*
X23008Y124409D01*
X22982Y124414D01*
X22958Y124427D01*
X22826Y124446D01*
X22788Y124454D01*
X22781Y124453D01*
X22773Y124454D01*
X19050Y124454D01*
X19015Y124448D01*
X18967Y124449D01*
X18147Y124341D01*
X18118Y124331D01*
X18087Y124330D01*
X17977Y124287D01*
X17933Y124273D01*
X17925Y124266D01*
X17912Y124261D01*
X16491Y123441D01*
X16436Y123394D01*
X16376Y123355D01*
X16347Y123319D01*
X16320Y123296D01*
X16299Y123258D01*
X16259Y123209D01*
X15439Y121788D01*
X15428Y121759D01*
X15411Y121733D01*
X15378Y121619D01*
X15363Y121576D01*
X15363Y121566D01*
X15359Y121553D01*
X15251Y120733D01*
X15253Y120698D01*
X15246Y120650D01*
X15246Y119387D01*
X15242Y119375D01*
X15245Y119354D01*
X15241Y119328D01*
X15241Y33072D01*
X15246Y33044D01*
X15246Y31750D01*
X15252Y31715D01*
X15251Y31667D01*
X15359Y30847D01*
X15369Y30818D01*
X15370Y30787D01*
X15413Y30677D01*
X15427Y30633D01*
X15434Y30625D01*
X15439Y30612D01*
X16259Y29191D01*
X16306Y29136D01*
X16345Y29076D01*
X16381Y29047D01*
X16404Y29020D01*
X16442Y28999D01*
X16491Y28959D01*
X17912Y28139D01*
X17941Y28128D01*
X17967Y28111D01*
X18081Y28078D01*
X18124Y28063D01*
X18134Y28063D01*
X18147Y28059D01*
X18967Y27951D01*
X19002Y27953D01*
X19050Y27946D01*
X22773Y27946D01*
X22799Y27950D01*
G37*
G36*
X255081Y45097D02*
X255081Y45097D01*
X255147Y45099D01*
X255190Y45117D01*
X255237Y45125D01*
X255294Y45159D01*
X255354Y45184D01*
X255389Y45215D01*
X255430Y45240D01*
X255472Y45291D01*
X255520Y45335D01*
X255542Y45377D01*
X255571Y45414D01*
X255592Y45476D01*
X255623Y45535D01*
X255631Y45589D01*
X255643Y45626D01*
X255642Y45666D01*
X255650Y45720D01*
X255650Y106680D01*
X255639Y106745D01*
X255637Y106811D01*
X255619Y106854D01*
X255611Y106901D01*
X255577Y106958D01*
X255552Y107018D01*
X255521Y107053D01*
X255496Y107094D01*
X255445Y107136D01*
X255401Y107184D01*
X255359Y107206D01*
X255322Y107235D01*
X255260Y107256D01*
X255201Y107287D01*
X255147Y107295D01*
X255110Y107307D01*
X255070Y107306D01*
X255016Y107314D01*
X194056Y107314D01*
X193991Y107303D01*
X193925Y107301D01*
X193882Y107283D01*
X193835Y107275D01*
X193778Y107241D01*
X193718Y107216D01*
X193683Y107185D01*
X193642Y107160D01*
X193601Y107109D01*
X193552Y107065D01*
X193530Y107023D01*
X193501Y106986D01*
X193480Y106924D01*
X193449Y106865D01*
X193441Y106811D01*
X193429Y106774D01*
X193430Y106734D01*
X193422Y106680D01*
X193422Y45720D01*
X193433Y45655D01*
X193435Y45589D01*
X193453Y45546D01*
X193461Y45499D01*
X193495Y45442D01*
X193520Y45382D01*
X193551Y45347D01*
X193576Y45306D01*
X193627Y45265D01*
X193671Y45216D01*
X193713Y45194D01*
X193750Y45165D01*
X193812Y45144D01*
X193871Y45113D01*
X193925Y45105D01*
X193962Y45093D01*
X194002Y45094D01*
X194056Y45086D01*
X255016Y45086D01*
X255081Y45097D01*
G37*
G36*
X903035Y45097D02*
X903035Y45097D01*
X903101Y45099D01*
X903144Y45117D01*
X903191Y45125D01*
X903248Y45159D01*
X903308Y45184D01*
X903343Y45215D01*
X903384Y45240D01*
X903426Y45291D01*
X903474Y45335D01*
X903496Y45377D01*
X903525Y45414D01*
X903546Y45476D01*
X903577Y45535D01*
X903585Y45589D01*
X903597Y45626D01*
X903596Y45666D01*
X903604Y45720D01*
X903604Y106680D01*
X903593Y106745D01*
X903591Y106811D01*
X903573Y106854D01*
X903565Y106901D01*
X903531Y106958D01*
X903506Y107018D01*
X903475Y107053D01*
X903450Y107094D01*
X903399Y107136D01*
X903355Y107184D01*
X903313Y107206D01*
X903276Y107235D01*
X903214Y107256D01*
X903155Y107287D01*
X903101Y107295D01*
X903064Y107307D01*
X903024Y107306D01*
X902970Y107314D01*
X842010Y107314D01*
X841945Y107303D01*
X841879Y107301D01*
X841836Y107283D01*
X841789Y107275D01*
X841732Y107241D01*
X841672Y107216D01*
X841637Y107185D01*
X841596Y107160D01*
X841555Y107109D01*
X841506Y107065D01*
X841484Y107023D01*
X841455Y106986D01*
X841434Y106924D01*
X841403Y106865D01*
X841395Y106811D01*
X841383Y106774D01*
X841384Y106734D01*
X841376Y106680D01*
X841376Y45720D01*
X841387Y45655D01*
X841389Y45589D01*
X841407Y45546D01*
X841415Y45499D01*
X841449Y45442D01*
X841474Y45382D01*
X841505Y45347D01*
X841530Y45306D01*
X841581Y45265D01*
X841625Y45216D01*
X841667Y45194D01*
X841704Y45165D01*
X841766Y45144D01*
X841825Y45113D01*
X841879Y45105D01*
X841916Y45093D01*
X841956Y45094D01*
X842010Y45086D01*
X902970Y45086D01*
X903035Y45097D01*
G37*
G36*
X350077Y45097D02*
X350077Y45097D01*
X350143Y45099D01*
X350186Y45117D01*
X350233Y45125D01*
X350290Y45159D01*
X350350Y45184D01*
X350385Y45215D01*
X350426Y45240D01*
X350468Y45291D01*
X350516Y45335D01*
X350538Y45377D01*
X350567Y45414D01*
X350588Y45476D01*
X350619Y45535D01*
X350627Y45589D01*
X350639Y45626D01*
X350638Y45666D01*
X350646Y45720D01*
X350646Y106680D01*
X350635Y106745D01*
X350633Y106811D01*
X350615Y106854D01*
X350607Y106901D01*
X350573Y106958D01*
X350548Y107018D01*
X350517Y107053D01*
X350492Y107094D01*
X350441Y107136D01*
X350397Y107184D01*
X350355Y107206D01*
X350318Y107235D01*
X350256Y107256D01*
X350197Y107287D01*
X350143Y107295D01*
X350106Y107307D01*
X350066Y107306D01*
X350012Y107314D01*
X289052Y107314D01*
X288987Y107303D01*
X288921Y107301D01*
X288878Y107283D01*
X288831Y107275D01*
X288774Y107241D01*
X288714Y107216D01*
X288679Y107185D01*
X288638Y107160D01*
X288597Y107109D01*
X288548Y107065D01*
X288526Y107023D01*
X288497Y106986D01*
X288476Y106924D01*
X288445Y106865D01*
X288437Y106811D01*
X288425Y106774D01*
X288426Y106734D01*
X288418Y106680D01*
X288418Y45720D01*
X288429Y45655D01*
X288431Y45589D01*
X288449Y45546D01*
X288457Y45499D01*
X288491Y45442D01*
X288516Y45382D01*
X288547Y45347D01*
X288572Y45306D01*
X288623Y45265D01*
X288667Y45216D01*
X288709Y45194D01*
X288746Y45165D01*
X288808Y45144D01*
X288867Y45113D01*
X288921Y45105D01*
X288958Y45093D01*
X288998Y45094D01*
X289052Y45086D01*
X350012Y45086D01*
X350077Y45097D01*
G37*
G36*
X812997Y39691D02*
X812997Y39691D01*
X813057Y39687D01*
X813108Y39703D01*
X813161Y39708D01*
X813215Y39735D01*
X813272Y39752D01*
X813314Y39784D01*
X813362Y39808D01*
X813403Y39851D01*
X813451Y39887D01*
X813486Y39939D01*
X813516Y39971D01*
X813530Y40003D01*
X813556Y40042D01*
X815311Y43686D01*
X819845Y47302D01*
X825500Y48592D01*
X831155Y47302D01*
X831771Y46810D01*
X831798Y46796D01*
X831820Y46775D01*
X831896Y46743D01*
X831968Y46704D01*
X831998Y46700D01*
X832026Y46688D01*
X832109Y46684D01*
X832190Y46673D01*
X832220Y46679D01*
X832250Y46678D01*
X832329Y46703D01*
X832410Y46721D01*
X832435Y46737D01*
X832464Y46746D01*
X832560Y46817D01*
X832598Y46842D01*
X832605Y46850D01*
X832615Y46858D01*
X834838Y49082D01*
X834863Y49116D01*
X834894Y49145D01*
X834926Y49208D01*
X834967Y49266D01*
X834977Y49307D01*
X834997Y49345D01*
X835010Y49434D01*
X835023Y49483D01*
X835020Y49504D01*
X835024Y49530D01*
X835024Y102870D01*
X835017Y102912D01*
X835019Y102954D01*
X834997Y103021D01*
X834985Y103091D01*
X834963Y103127D01*
X834950Y103168D01*
X834896Y103241D01*
X834870Y103284D01*
X834854Y103297D01*
X834838Y103319D01*
X832615Y105542D01*
X832590Y105560D01*
X832570Y105583D01*
X832498Y105623D01*
X832431Y105670D01*
X832401Y105678D01*
X832375Y105693D01*
X832293Y105706D01*
X832213Y105726D01*
X832183Y105723D01*
X832153Y105728D01*
X832072Y105711D01*
X831990Y105703D01*
X831963Y105690D01*
X831933Y105684D01*
X831830Y105624D01*
X831789Y105604D01*
X831782Y105596D01*
X831771Y105590D01*
X831155Y105098D01*
X825500Y103808D01*
X819845Y105098D01*
X815311Y108714D01*
X813711Y112037D01*
X813693Y112061D01*
X813682Y112090D01*
X813628Y112152D01*
X813579Y112219D01*
X813554Y112236D01*
X813534Y112258D01*
X813461Y112297D01*
X813393Y112343D01*
X813363Y112350D01*
X813337Y112365D01*
X813255Y112376D01*
X813174Y112395D01*
X813144Y112391D01*
X813114Y112396D01*
X813034Y112378D01*
X812952Y112368D01*
X812925Y112354D01*
X812895Y112347D01*
X812826Y112302D01*
X812752Y112264D01*
X812732Y112242D01*
X812707Y112226D01*
X812632Y112132D01*
X812602Y112098D01*
X812598Y112089D01*
X812590Y112079D01*
X812300Y111576D01*
X811714Y110990D01*
X810997Y110577D01*
X810198Y110362D01*
X807719Y110362D01*
X807719Y116205D01*
X807708Y116270D01*
X807706Y116335D01*
X807688Y116379D01*
X807679Y116426D01*
X807646Y116482D01*
X807621Y116543D01*
X807589Y116578D01*
X807565Y116619D01*
X807514Y116660D01*
X807470Y116709D01*
X807428Y116731D01*
X807391Y116760D01*
X807329Y116781D01*
X807270Y116811D01*
X807216Y116820D01*
X807179Y116832D01*
X807139Y116831D01*
X807085Y116839D01*
X806449Y116839D01*
X806449Y117475D01*
X806437Y117540D01*
X806436Y117605D01*
X806418Y117649D01*
X806409Y117696D01*
X806376Y117753D01*
X806351Y117813D01*
X806319Y117848D01*
X806295Y117889D01*
X806244Y117930D01*
X806200Y117979D01*
X806158Y118001D01*
X806121Y118030D01*
X806059Y118051D01*
X806000Y118081D01*
X805946Y118090D01*
X805909Y118102D01*
X805869Y118101D01*
X805815Y118109D01*
X799748Y118109D01*
X799685Y118169D01*
X799663Y118179D01*
X799644Y118194D01*
X799560Y118222D01*
X799478Y118257D01*
X799454Y118258D01*
X799432Y118265D01*
X799343Y118263D01*
X799254Y118267D01*
X799231Y118260D01*
X799207Y118259D01*
X799125Y118225D01*
X799040Y118198D01*
X799019Y118182D01*
X799000Y118175D01*
X798962Y118141D01*
X798890Y118087D01*
X797365Y116563D01*
X797341Y116528D01*
X797310Y116499D01*
X797278Y116436D01*
X797237Y116378D01*
X797227Y116337D01*
X797207Y116300D01*
X797194Y116210D01*
X797181Y116161D01*
X797184Y116140D01*
X797180Y116114D01*
X797180Y112414D01*
X795636Y110870D01*
X786784Y110870D01*
X785240Y112414D01*
X785240Y113366D01*
X785224Y113454D01*
X785215Y113542D01*
X785205Y113563D01*
X785201Y113587D01*
X785155Y113664D01*
X785116Y113743D01*
X785099Y113759D01*
X785086Y113780D01*
X785017Y113836D01*
X784953Y113897D01*
X784931Y113906D01*
X784912Y113921D01*
X784828Y113950D01*
X784746Y113985D01*
X784722Y113986D01*
X784700Y113993D01*
X784611Y113991D01*
X784522Y113995D01*
X784499Y113987D01*
X784475Y113987D01*
X784393Y113953D01*
X784308Y113926D01*
X784287Y113910D01*
X784268Y113902D01*
X784230Y113868D01*
X784158Y113814D01*
X782506Y112163D01*
X782482Y112128D01*
X782451Y112100D01*
X782419Y112037D01*
X782378Y111979D01*
X782368Y111938D01*
X782348Y111900D01*
X782335Y111811D01*
X782322Y111762D01*
X782325Y111741D01*
X782321Y111715D01*
X782321Y90388D01*
X778062Y86128D01*
X778037Y86094D01*
X778006Y86065D01*
X777974Y86002D01*
X777933Y85944D01*
X777923Y85903D01*
X777903Y85865D01*
X777890Y85776D01*
X777878Y85727D01*
X777880Y85706D01*
X777876Y85680D01*
X777876Y83530D01*
X777892Y83442D01*
X777901Y83354D01*
X777911Y83332D01*
X777915Y83309D01*
X777961Y83232D01*
X778000Y83153D01*
X778017Y83136D01*
X778030Y83116D01*
X778099Y83060D01*
X778163Y82999D01*
X778185Y82989D01*
X778204Y82974D01*
X778288Y82946D01*
X778370Y82911D01*
X778394Y82910D01*
X778416Y82903D01*
X778505Y82905D01*
X778594Y82901D01*
X778617Y82908D01*
X778641Y82909D01*
X778723Y82943D01*
X778808Y82970D01*
X778829Y82986D01*
X778848Y82993D01*
X778886Y83027D01*
X778959Y83081D01*
X779166Y83289D01*
X782934Y83289D01*
X784158Y82065D01*
X784231Y82014D01*
X784300Y81958D01*
X784322Y81951D01*
X784342Y81937D01*
X784428Y81915D01*
X784512Y81887D01*
X784536Y81887D01*
X784559Y81881D01*
X784648Y81891D01*
X784737Y81893D01*
X784759Y81902D01*
X784782Y81905D01*
X784862Y81944D01*
X784944Y81977D01*
X784962Y81993D01*
X784983Y82004D01*
X785044Y82069D01*
X785110Y82129D01*
X785121Y82150D01*
X785137Y82167D01*
X785172Y82249D01*
X785213Y82328D01*
X785216Y82355D01*
X785225Y82374D01*
X785227Y82424D01*
X785240Y82514D01*
X785240Y90786D01*
X786784Y92330D01*
X795636Y92330D01*
X796963Y91003D01*
X797036Y90952D01*
X797105Y90896D01*
X797127Y90888D01*
X797147Y90875D01*
X797233Y90853D01*
X797317Y90824D01*
X797341Y90825D01*
X797364Y90819D01*
X797453Y90828D01*
X797542Y90831D01*
X797564Y90840D01*
X797587Y90842D01*
X797667Y90881D01*
X797749Y90915D01*
X797767Y90931D01*
X797788Y90941D01*
X797849Y91006D01*
X797915Y91066D01*
X797926Y91087D01*
X797942Y91105D01*
X797977Y91187D01*
X798018Y91266D01*
X798021Y91292D01*
X798030Y91311D01*
X798032Y91362D01*
X798045Y91451D01*
X798045Y93221D01*
X800549Y95725D01*
X809591Y95725D01*
X812095Y93221D01*
X812095Y82179D01*
X809591Y79675D01*
X800549Y79675D01*
X798183Y82041D01*
X798129Y82079D01*
X798082Y82124D01*
X798038Y82142D01*
X797999Y82169D01*
X797936Y82186D01*
X797875Y82211D01*
X797828Y82213D01*
X797782Y82225D01*
X797717Y82218D01*
X797651Y82221D01*
X797606Y82207D01*
X797559Y82202D01*
X797500Y82173D01*
X797437Y82153D01*
X797393Y82120D01*
X797358Y82103D01*
X797331Y82074D01*
X797286Y82041D01*
X795636Y80390D01*
X793750Y80390D01*
X793685Y80379D01*
X793619Y80377D01*
X793576Y80359D01*
X793529Y80351D01*
X793472Y80317D01*
X793412Y80292D01*
X793377Y80261D01*
X793336Y80236D01*
X793294Y80185D01*
X793246Y80141D01*
X793224Y80099D01*
X793195Y80062D01*
X793174Y80000D01*
X793143Y79941D01*
X793135Y79887D01*
X793123Y79850D01*
X793124Y79810D01*
X793116Y79756D01*
X793116Y79221D01*
X786988Y73092D01*
X786937Y73019D01*
X786881Y72950D01*
X786873Y72928D01*
X786859Y72908D01*
X786837Y72822D01*
X786809Y72738D01*
X786809Y72714D01*
X786804Y72691D01*
X786813Y72602D01*
X786815Y72513D01*
X786824Y72491D01*
X786827Y72468D01*
X786866Y72388D01*
X786900Y72306D01*
X786916Y72288D01*
X786926Y72267D01*
X786991Y72206D01*
X787051Y72140D01*
X787072Y72129D01*
X787089Y72113D01*
X787171Y72078D01*
X787251Y72037D01*
X787277Y72034D01*
X787296Y72025D01*
X787346Y72023D01*
X787436Y72010D01*
X794222Y72010D01*
X794264Y72017D01*
X794306Y72015D01*
X794373Y72037D01*
X794443Y72049D01*
X794479Y72071D01*
X794520Y72084D01*
X794592Y72138D01*
X794636Y72164D01*
X794649Y72180D01*
X794670Y72196D01*
X800581Y78106D01*
X813629Y78106D01*
X818825Y72911D01*
X818859Y72886D01*
X818888Y72855D01*
X818951Y72823D01*
X819009Y72782D01*
X819050Y72772D01*
X819088Y72752D01*
X819177Y72739D01*
X819226Y72726D01*
X819247Y72729D01*
X819273Y72725D01*
X827591Y72725D01*
X830095Y70221D01*
X830095Y59179D01*
X827591Y56675D01*
X818549Y56675D01*
X816045Y59179D01*
X816045Y70037D01*
X816038Y70079D01*
X816040Y70121D01*
X816018Y70188D01*
X816006Y70258D01*
X815984Y70294D01*
X815971Y70335D01*
X815917Y70407D01*
X815891Y70451D01*
X815875Y70464D01*
X815859Y70485D01*
X812236Y74108D01*
X812202Y74133D01*
X812173Y74164D01*
X812110Y74196D01*
X812052Y74237D01*
X812011Y74247D01*
X811973Y74267D01*
X811884Y74280D01*
X811835Y74293D01*
X811814Y74290D01*
X811788Y74294D01*
X809306Y74294D01*
X809276Y74289D01*
X809246Y74291D01*
X809166Y74269D01*
X809085Y74255D01*
X809059Y74239D01*
X809030Y74231D01*
X808963Y74183D01*
X808891Y74140D01*
X808873Y74117D01*
X808848Y74100D01*
X808802Y74031D01*
X808750Y73966D01*
X808741Y73938D01*
X808724Y73913D01*
X808705Y73832D01*
X808678Y73754D01*
X808679Y73724D01*
X808672Y73695D01*
X808682Y73612D01*
X808685Y73529D01*
X808696Y73502D01*
X808700Y73472D01*
X808738Y73398D01*
X808769Y73322D01*
X808789Y73299D01*
X808803Y73273D01*
X808865Y73217D01*
X808921Y73156D01*
X808947Y73142D01*
X808969Y73122D01*
X809080Y73074D01*
X809120Y73053D01*
X809131Y73052D01*
X809141Y73047D01*
X809666Y72907D01*
X810757Y72277D01*
X811647Y71387D01*
X812277Y70296D01*
X812603Y69080D01*
X812603Y65969D01*
X805705Y65969D01*
X805640Y65958D01*
X805575Y65956D01*
X805531Y65938D01*
X805484Y65929D01*
X805428Y65896D01*
X805367Y65871D01*
X805332Y65839D01*
X805291Y65815D01*
X805250Y65764D01*
X805201Y65720D01*
X805179Y65678D01*
X805150Y65641D01*
X805129Y65579D01*
X805099Y65520D01*
X805090Y65466D01*
X805078Y65429D01*
X805079Y65389D01*
X805071Y65335D01*
X805071Y64699D01*
X804435Y64699D01*
X804370Y64687D01*
X804305Y64686D01*
X804261Y64668D01*
X804214Y64659D01*
X804157Y64626D01*
X804097Y64601D01*
X804062Y64569D01*
X804021Y64545D01*
X803980Y64494D01*
X803931Y64450D01*
X803909Y64408D01*
X803880Y64371D01*
X803859Y64309D01*
X803828Y64250D01*
X803820Y64196D01*
X803808Y64159D01*
X803809Y64119D01*
X803801Y64065D01*
X803801Y56167D01*
X801690Y56167D01*
X800474Y56493D01*
X799383Y57123D01*
X798493Y58013D01*
X797863Y59104D01*
X797537Y60320D01*
X797537Y60441D01*
X797522Y60528D01*
X797512Y60617D01*
X797502Y60638D01*
X797498Y60662D01*
X797452Y60738D01*
X797413Y60818D01*
X797396Y60834D01*
X797383Y60855D01*
X797314Y60911D01*
X797250Y60972D01*
X797228Y60981D01*
X797209Y60996D01*
X797125Y61025D01*
X797043Y61059D01*
X797019Y61060D01*
X796997Y61068D01*
X796908Y61065D01*
X796819Y61069D01*
X796796Y61062D01*
X796772Y61061D01*
X796690Y61028D01*
X796605Y61001D01*
X796584Y60985D01*
X796565Y60977D01*
X796527Y60943D01*
X796455Y60889D01*
X795636Y60070D01*
X786784Y60070D01*
X785240Y61614D01*
X785240Y63500D01*
X785229Y63565D01*
X785227Y63631D01*
X785209Y63674D01*
X785201Y63721D01*
X785167Y63778D01*
X785142Y63838D01*
X785111Y63873D01*
X785086Y63914D01*
X785035Y63956D01*
X784991Y64004D01*
X784949Y64026D01*
X784912Y64055D01*
X784850Y64076D01*
X784791Y64107D01*
X784737Y64115D01*
X784700Y64127D01*
X784660Y64126D01*
X784606Y64134D01*
X784071Y64134D01*
X781596Y66608D01*
X781562Y66633D01*
X781533Y66664D01*
X781470Y66696D01*
X781412Y66737D01*
X781371Y66747D01*
X781333Y66767D01*
X781244Y66780D01*
X781195Y66793D01*
X781174Y66790D01*
X781148Y66794D01*
X778510Y66794D01*
X778445Y66783D01*
X778379Y66781D01*
X778336Y66763D01*
X778289Y66755D01*
X778232Y66721D01*
X778172Y66696D01*
X778137Y66665D01*
X778096Y66640D01*
X778055Y66589D01*
X778006Y66545D01*
X777984Y66503D01*
X777955Y66466D01*
X777934Y66404D01*
X777903Y66345D01*
X777895Y66291D01*
X777883Y66254D01*
X777884Y66214D01*
X777876Y66160D01*
X777876Y49240D01*
X777892Y49152D01*
X777901Y49064D01*
X777911Y49042D01*
X777915Y49019D01*
X777961Y48942D01*
X778000Y48863D01*
X778017Y48846D01*
X778030Y48826D01*
X778099Y48770D01*
X778163Y48709D01*
X778185Y48699D01*
X778204Y48684D01*
X778288Y48656D01*
X778370Y48621D01*
X778394Y48620D01*
X778416Y48613D01*
X778505Y48615D01*
X778594Y48611D01*
X778617Y48618D01*
X778641Y48619D01*
X778723Y48653D01*
X778808Y48680D01*
X778829Y48696D01*
X778848Y48703D01*
X778886Y48737D01*
X778959Y48791D01*
X779166Y48999D01*
X782934Y48999D01*
X783650Y48283D01*
X783723Y48232D01*
X783792Y48176D01*
X783814Y48169D01*
X783834Y48155D01*
X783920Y48133D01*
X784004Y48105D01*
X784028Y48105D01*
X784051Y48099D01*
X784140Y48109D01*
X784229Y48111D01*
X784251Y48120D01*
X784274Y48123D01*
X784354Y48162D01*
X784436Y48195D01*
X784454Y48211D01*
X784475Y48222D01*
X784536Y48287D01*
X784602Y48347D01*
X784613Y48368D01*
X784629Y48385D01*
X784664Y48467D01*
X784705Y48546D01*
X784708Y48573D01*
X784717Y48592D01*
X784719Y48642D01*
X784732Y48732D01*
X784732Y49531D01*
X790575Y49531D01*
X790640Y49542D01*
X790705Y49544D01*
X790749Y49562D01*
X790796Y49570D01*
X790852Y49604D01*
X790913Y49629D01*
X790948Y49661D01*
X790989Y49685D01*
X791030Y49736D01*
X791079Y49780D01*
X791101Y49822D01*
X791130Y49859D01*
X791151Y49921D01*
X791181Y49980D01*
X791190Y50034D01*
X791202Y50071D01*
X791201Y50111D01*
X791209Y50165D01*
X791209Y50801D01*
X791211Y50801D01*
X791211Y50165D01*
X791223Y50100D01*
X791224Y50035D01*
X791242Y49991D01*
X791251Y49944D01*
X791284Y49887D01*
X791309Y49827D01*
X791341Y49792D01*
X791365Y49751D01*
X791416Y49710D01*
X791460Y49661D01*
X791502Y49639D01*
X791539Y49610D01*
X791601Y49589D01*
X791660Y49558D01*
X791714Y49550D01*
X791751Y49538D01*
X791791Y49539D01*
X791845Y49531D01*
X797688Y49531D01*
X797688Y47052D01*
X797545Y46519D01*
X797542Y46483D01*
X797530Y46449D01*
X797532Y46372D01*
X797526Y46296D01*
X797536Y46261D01*
X797537Y46224D01*
X797566Y46153D01*
X797586Y46079D01*
X797608Y46050D01*
X797621Y46017D01*
X797673Y45960D01*
X797718Y45898D01*
X797748Y45878D01*
X797773Y45851D01*
X797841Y45816D01*
X797905Y45773D01*
X797940Y45765D01*
X797972Y45748D01*
X798075Y45733D01*
X798123Y45722D01*
X798138Y45724D01*
X798158Y45721D01*
X799882Y45721D01*
X803888Y41716D01*
X803922Y41691D01*
X803951Y41660D01*
X804014Y41628D01*
X804072Y41587D01*
X804113Y41577D01*
X804151Y41557D01*
X804240Y41544D01*
X804289Y41531D01*
X804310Y41534D01*
X804336Y41530D01*
X810876Y41530D01*
X812536Y39869D01*
X812585Y39835D01*
X812628Y39793D01*
X812677Y39771D01*
X812721Y39741D01*
X812778Y39726D01*
X812833Y39702D01*
X812886Y39698D01*
X812938Y39685D01*
X812997Y39691D01*
G37*
G36*
X502327Y30488D02*
X502327Y30488D01*
X502369Y30486D01*
X502436Y30508D01*
X502506Y30520D01*
X502542Y30542D01*
X502583Y30555D01*
X502656Y30609D01*
X502699Y30635D01*
X502712Y30651D01*
X502733Y30667D01*
X504638Y32572D01*
X504663Y32606D01*
X504694Y32635D01*
X504716Y32679D01*
X504743Y32711D01*
X504750Y32732D01*
X504767Y32756D01*
X504777Y32797D01*
X504797Y32835D01*
X504806Y32897D01*
X504815Y32924D01*
X504814Y32942D01*
X504823Y32973D01*
X504820Y32994D01*
X504824Y33020D01*
X504824Y44187D01*
X512258Y51622D01*
X512283Y51656D01*
X512314Y51685D01*
X512346Y51748D01*
X512387Y51806D01*
X512397Y51847D01*
X512417Y51885D01*
X512430Y51974D01*
X512443Y52023D01*
X512440Y52044D01*
X512444Y52070D01*
X512444Y53340D01*
X512437Y53382D01*
X512439Y53424D01*
X512417Y53491D01*
X512405Y53561D01*
X512383Y53597D01*
X512370Y53638D01*
X512316Y53711D01*
X512290Y53754D01*
X512274Y53767D01*
X512258Y53788D01*
X509904Y56143D01*
X509904Y56413D01*
X509897Y56454D01*
X509899Y56497D01*
X509877Y56564D01*
X509865Y56633D01*
X509843Y56670D01*
X509830Y56710D01*
X509776Y56783D01*
X509750Y56827D01*
X509734Y56840D01*
X509718Y56861D01*
X509665Y56914D01*
X509665Y63739D01*
X509658Y63781D01*
X509660Y63823D01*
X509638Y63890D01*
X509626Y63960D01*
X509604Y63996D01*
X509591Y64037D01*
X509537Y64110D01*
X509511Y64153D01*
X509495Y64166D01*
X509479Y64187D01*
X500987Y72680D01*
X500975Y72749D01*
X500953Y72785D01*
X500940Y72826D01*
X500886Y72898D01*
X500860Y72942D01*
X500844Y72955D01*
X500828Y72976D01*
X500760Y73044D01*
X500760Y80192D01*
X500753Y80234D01*
X500755Y80276D01*
X500733Y80343D01*
X500721Y80413D01*
X500699Y80449D01*
X500686Y80490D01*
X500632Y80562D01*
X500606Y80606D01*
X500590Y80619D01*
X500574Y80640D01*
X495676Y85538D01*
X495641Y85563D01*
X495613Y85594D01*
X495550Y85626D01*
X495492Y85667D01*
X495451Y85677D01*
X495413Y85697D01*
X495324Y85710D01*
X495275Y85723D01*
X495254Y85720D01*
X495228Y85724D01*
X477520Y85724D01*
X477478Y85717D01*
X477436Y85719D01*
X477369Y85697D01*
X477299Y85685D01*
X477263Y85663D01*
X477222Y85650D01*
X477149Y85596D01*
X477106Y85570D01*
X477093Y85554D01*
X477072Y85538D01*
X473262Y81728D01*
X473237Y81694D01*
X473206Y81665D01*
X473174Y81602D01*
X473133Y81544D01*
X473123Y81503D01*
X473103Y81465D01*
X473090Y81376D01*
X473078Y81327D01*
X473080Y81306D01*
X473076Y81280D01*
X473076Y71120D01*
X473083Y71078D01*
X473081Y71036D01*
X473103Y70969D01*
X473115Y70899D01*
X473137Y70863D01*
X473150Y70822D01*
X473204Y70749D01*
X473230Y70706D01*
X473246Y70693D01*
X473262Y70672D01*
X475802Y68132D01*
X475836Y68107D01*
X475865Y68076D01*
X475928Y68044D01*
X475986Y68003D01*
X476027Y67993D01*
X476065Y67973D01*
X476154Y67960D01*
X476203Y67948D01*
X476224Y67950D01*
X476250Y67946D01*
X483607Y67946D01*
X487046Y64507D01*
X487046Y33020D01*
X487053Y32978D01*
X487051Y32936D01*
X487061Y32906D01*
X487062Y32887D01*
X487076Y32852D01*
X487085Y32799D01*
X487107Y32763D01*
X487120Y32722D01*
X487139Y32697D01*
X487146Y32679D01*
X487175Y32647D01*
X487200Y32606D01*
X487216Y32593D01*
X487232Y32572D01*
X489137Y30667D01*
X489171Y30642D01*
X489200Y30611D01*
X489263Y30579D01*
X489321Y30538D01*
X489362Y30528D01*
X489400Y30508D01*
X489489Y30495D01*
X489538Y30482D01*
X489559Y30485D01*
X489585Y30481D01*
X502285Y30481D01*
X502327Y30488D01*
G37*
G36*
X160702Y27953D02*
X160702Y27953D01*
X160744Y27951D01*
X160811Y27973D01*
X160881Y27985D01*
X160917Y28007D01*
X160958Y28020D01*
X161031Y28074D01*
X161074Y28100D01*
X161087Y28116D01*
X161108Y28132D01*
X163008Y30032D01*
X163033Y30066D01*
X163064Y30095D01*
X163089Y30145D01*
X163115Y30176D01*
X163121Y30194D01*
X163137Y30216D01*
X163147Y30257D01*
X163167Y30295D01*
X163175Y30354D01*
X163187Y30389D01*
X163187Y30410D01*
X163193Y30433D01*
X163190Y30454D01*
X163194Y30480D01*
X163194Y43470D01*
X163187Y43512D01*
X163189Y43554D01*
X163167Y43622D01*
X163155Y43691D01*
X163133Y43728D01*
X163120Y43768D01*
X163091Y43807D01*
X163091Y47638D01*
X163096Y47648D01*
X163137Y47705D01*
X163147Y47747D01*
X163167Y47784D01*
X163180Y47874D01*
X163193Y47923D01*
X163190Y47944D01*
X163194Y47970D01*
X163194Y59690D01*
X163187Y59732D01*
X163189Y59774D01*
X163167Y59841D01*
X163155Y59911D01*
X163133Y59947D01*
X163120Y59988D01*
X163066Y60061D01*
X163040Y60104D01*
X163024Y60117D01*
X163008Y60139D01*
X162373Y60774D01*
X162346Y60792D01*
X162342Y60797D01*
X162337Y60799D01*
X162310Y60829D01*
X162247Y60861D01*
X162189Y60902D01*
X162148Y60912D01*
X162110Y60932D01*
X162021Y60945D01*
X161972Y60958D01*
X161951Y60955D01*
X161925Y60959D01*
X150814Y60959D01*
X142747Y69026D01*
X142747Y72390D01*
X142736Y72455D01*
X142734Y72521D01*
X142716Y72564D01*
X142708Y72611D01*
X142674Y72668D01*
X142649Y72728D01*
X142618Y72763D01*
X142593Y72804D01*
X142542Y72846D01*
X142498Y72894D01*
X142456Y72916D01*
X142419Y72945D01*
X142357Y72966D01*
X142298Y72997D01*
X142244Y73005D01*
X142207Y73017D01*
X142167Y73016D01*
X142113Y73024D01*
X134620Y73024D01*
X134578Y73017D01*
X134536Y73019D01*
X134469Y72997D01*
X134399Y72985D01*
X134363Y72963D01*
X134322Y72950D01*
X134249Y72896D01*
X134206Y72870D01*
X134193Y72854D01*
X134172Y72838D01*
X131632Y70298D01*
X131607Y70264D01*
X131576Y70235D01*
X131544Y70172D01*
X131503Y70114D01*
X131493Y70073D01*
X131473Y70035D01*
X131460Y69946D01*
X131448Y69897D01*
X131450Y69876D01*
X131446Y69850D01*
X131446Y30480D01*
X131453Y30438D01*
X131451Y30396D01*
X131459Y30373D01*
X131459Y30352D01*
X131476Y30311D01*
X131485Y30259D01*
X131507Y30223D01*
X131520Y30182D01*
X131538Y30158D01*
X131544Y30144D01*
X131567Y30119D01*
X131574Y30109D01*
X131600Y30066D01*
X131616Y30053D01*
X131632Y30032D01*
X133532Y28132D01*
X133566Y28107D01*
X133595Y28076D01*
X133658Y28044D01*
X133716Y28003D01*
X133757Y27993D01*
X133795Y27973D01*
X133884Y27960D01*
X133933Y27947D01*
X133954Y27950D01*
X133980Y27946D01*
X160660Y27946D01*
X160702Y27953D01*
G37*
G36*
X125848Y27961D02*
X125848Y27961D01*
X125967Y27968D01*
X126005Y27981D01*
X126046Y27986D01*
X126156Y28029D01*
X126269Y28066D01*
X126304Y28088D01*
X126341Y28103D01*
X126437Y28172D01*
X126538Y28236D01*
X126566Y28266D01*
X126599Y28289D01*
X126675Y28381D01*
X126756Y28468D01*
X126776Y28503D01*
X126801Y28534D01*
X126852Y28642D01*
X126910Y28746D01*
X126920Y28786D01*
X126937Y28822D01*
X126959Y28939D01*
X126989Y29054D01*
X126993Y29114D01*
X126997Y29134D01*
X126995Y29155D01*
X126999Y29215D01*
X126999Y61786D01*
X126984Y61904D01*
X126977Y62023D01*
X126964Y62061D01*
X126959Y62102D01*
X126916Y62212D01*
X126879Y62325D01*
X126857Y62360D01*
X126842Y62397D01*
X126773Y62493D01*
X126709Y62594D01*
X126679Y62622D01*
X126656Y62655D01*
X126564Y62731D01*
X126477Y62812D01*
X126442Y62832D01*
X126411Y62857D01*
X126303Y62908D01*
X126199Y62966D01*
X126159Y62976D01*
X126123Y62993D01*
X126006Y63015D01*
X125891Y63045D01*
X125831Y63049D01*
X125811Y63053D01*
X125790Y63051D01*
X125730Y63055D01*
X121576Y63055D01*
X121478Y63043D01*
X121379Y63040D01*
X121320Y63023D01*
X121260Y63015D01*
X121168Y62979D01*
X121073Y62951D01*
X121021Y62921D01*
X120965Y62898D01*
X120885Y62840D01*
X120799Y62790D01*
X120724Y62724D01*
X120707Y62712D01*
X120700Y62702D01*
X120678Y62684D01*
X118724Y60729D01*
X114956Y60729D01*
X112291Y63394D01*
X112291Y67162D01*
X113792Y68662D01*
X113865Y68757D01*
X113943Y68846D01*
X113962Y68882D01*
X113986Y68914D01*
X114034Y69023D01*
X114088Y69129D01*
X114097Y69168D01*
X114113Y69205D01*
X114131Y69323D01*
X114158Y69439D01*
X114156Y69480D01*
X114163Y69520D01*
X114151Y69638D01*
X114148Y69757D01*
X114137Y69796D01*
X114133Y69836D01*
X114093Y69948D01*
X114059Y70063D01*
X114039Y70097D01*
X114025Y70135D01*
X113958Y70234D01*
X113898Y70337D01*
X113858Y70382D01*
X113847Y70399D01*
X113831Y70412D01*
X113792Y70457D01*
X112035Y72214D01*
X111957Y72274D01*
X111885Y72342D01*
X111832Y72371D01*
X111784Y72408D01*
X111693Y72448D01*
X111606Y72496D01*
X111548Y72511D01*
X111492Y72535D01*
X111394Y72550D01*
X111299Y72575D01*
X111199Y72581D01*
X111178Y72585D01*
X111166Y72583D01*
X111138Y72585D01*
X99936Y72585D01*
X99838Y72573D01*
X99739Y72570D01*
X99681Y72553D01*
X99621Y72545D01*
X99529Y72509D01*
X99433Y72481D01*
X99381Y72451D01*
X99325Y72428D01*
X99245Y72370D01*
X99159Y72320D01*
X99084Y72254D01*
X99068Y72242D01*
X99060Y72232D01*
X99039Y72214D01*
X97155Y70330D01*
X97082Y70236D01*
X97004Y70147D01*
X96985Y70111D01*
X96961Y70079D01*
X96913Y69970D01*
X96859Y69864D01*
X96850Y69824D01*
X96834Y69787D01*
X96816Y69669D01*
X96789Y69553D01*
X96791Y69513D01*
X96784Y69473D01*
X96796Y69355D01*
X96799Y69236D01*
X96810Y69197D01*
X96814Y69157D01*
X96854Y69044D01*
X96888Y68930D01*
X96908Y68895D01*
X96922Y68857D01*
X96989Y68759D01*
X97049Y68656D01*
X97089Y68611D01*
X97100Y68594D01*
X97116Y68581D01*
X97156Y68535D01*
X98021Y67670D01*
X98021Y63902D01*
X95356Y61237D01*
X91511Y61237D01*
X91438Y61269D01*
X91332Y61323D01*
X91293Y61332D01*
X91255Y61348D01*
X91138Y61366D01*
X91022Y61393D01*
X90981Y61391D01*
X90941Y61398D01*
X90823Y61386D01*
X90704Y61383D01*
X90665Y61372D01*
X90625Y61368D01*
X90513Y61328D01*
X90398Y61294D01*
X90364Y61274D01*
X90325Y61260D01*
X90227Y61193D01*
X90124Y61133D01*
X90079Y61093D01*
X90062Y61082D01*
X90049Y61066D01*
X90004Y61027D01*
X88556Y59579D01*
X85771Y56794D01*
X85751Y56794D01*
X85653Y56782D01*
X85554Y56779D01*
X85496Y56762D01*
X85435Y56754D01*
X85343Y56718D01*
X85248Y56690D01*
X85196Y56660D01*
X85140Y56637D01*
X85060Y56579D01*
X84974Y56529D01*
X84899Y56463D01*
X84882Y56451D01*
X84875Y56441D01*
X84854Y56423D01*
X84639Y56208D01*
X83929Y56208D01*
X83830Y56196D01*
X83731Y56193D01*
X83673Y56176D01*
X83613Y56168D01*
X83521Y56132D01*
X83426Y56104D01*
X83374Y56073D01*
X83318Y56051D01*
X83237Y55993D01*
X83152Y55943D01*
X83077Y55876D01*
X83060Y55864D01*
X83052Y55855D01*
X83031Y55836D01*
X82970Y55775D01*
X73660Y55775D01*
X73542Y55760D01*
X73423Y55753D01*
X73385Y55740D01*
X73344Y55735D01*
X73234Y55692D01*
X73121Y55655D01*
X73086Y55633D01*
X73049Y55618D01*
X72953Y55549D01*
X72852Y55485D01*
X72824Y55455D01*
X72791Y55432D01*
X72716Y55340D01*
X72634Y55253D01*
X72614Y55218D01*
X72589Y55187D01*
X72538Y55079D01*
X72480Y54975D01*
X72470Y54935D01*
X72453Y54899D01*
X72431Y54782D01*
X72401Y54667D01*
X72397Y54607D01*
X72393Y54587D01*
X72395Y54566D01*
X72391Y54506D01*
X72391Y49544D01*
X72406Y49426D01*
X72413Y49307D01*
X72426Y49269D01*
X72431Y49228D01*
X72474Y49118D01*
X72511Y49005D01*
X72533Y48970D01*
X72548Y48933D01*
X72618Y48837D01*
X72681Y48736D01*
X72711Y48708D01*
X72734Y48675D01*
X72826Y48599D01*
X72913Y48518D01*
X72948Y48498D01*
X72979Y48473D01*
X73087Y48422D01*
X73191Y48364D01*
X73231Y48354D01*
X73267Y48337D01*
X73384Y48315D01*
X73499Y48285D01*
X73560Y48281D01*
X73580Y48277D01*
X73600Y48279D01*
X73660Y48275D01*
X82794Y48275D01*
X82808Y48271D01*
X82908Y48265D01*
X82928Y48261D01*
X82941Y48263D01*
X82969Y48261D01*
X83548Y48261D01*
X87089Y44720D01*
X87128Y44690D01*
X87160Y44654D01*
X87253Y44593D01*
X87341Y44525D01*
X87385Y44505D01*
X87425Y44479D01*
X87530Y44443D01*
X87633Y44398D01*
X87680Y44391D01*
X87726Y44375D01*
X87837Y44366D01*
X87947Y44348D01*
X87995Y44353D01*
X88043Y44349D01*
X88152Y44368D01*
X88263Y44378D01*
X88309Y44395D01*
X88356Y44403D01*
X88458Y44448D01*
X88563Y44486D01*
X88602Y44513D01*
X88646Y44532D01*
X88778Y44625D01*
X92135Y47302D01*
X97790Y48592D01*
X103445Y47302D01*
X107979Y43686D01*
X110496Y38460D01*
X110496Y30790D01*
X110508Y30692D01*
X110511Y30593D01*
X110528Y30535D01*
X110536Y30475D01*
X110572Y30383D01*
X110600Y30288D01*
X110630Y30235D01*
X110653Y30179D01*
X110711Y30099D01*
X110761Y30014D01*
X110827Y29938D01*
X110839Y29922D01*
X110849Y29914D01*
X110867Y29893D01*
X112443Y28317D01*
X112521Y28257D01*
X112593Y28189D01*
X112646Y28160D01*
X112694Y28123D01*
X112785Y28083D01*
X112872Y28035D01*
X112930Y28020D01*
X112986Y27996D01*
X113084Y27981D01*
X113180Y27956D01*
X113280Y27950D01*
X113300Y27946D01*
X113312Y27948D01*
X113340Y27946D01*
X125730Y27946D01*
X125848Y27961D01*
G37*
G36*
X455520Y50051D02*
X455520Y50051D01*
X455619Y50054D01*
X455677Y50071D01*
X455738Y50079D01*
X455830Y50115D01*
X455925Y50143D01*
X455977Y50173D01*
X456033Y50196D01*
X456113Y50254D01*
X456199Y50304D01*
X456274Y50370D01*
X456291Y50382D01*
X456298Y50392D01*
X456320Y50411D01*
X457209Y51300D01*
X457269Y51378D01*
X457337Y51450D01*
X457366Y51503D01*
X457403Y51551D01*
X457443Y51642D01*
X457491Y51728D01*
X457506Y51787D01*
X457530Y51843D01*
X457545Y51941D01*
X457570Y52036D01*
X457576Y52136D01*
X457580Y52157D01*
X457578Y52169D01*
X457580Y52197D01*
X457580Y59036D01*
X459236Y60691D01*
X459263Y60700D01*
X459298Y60722D01*
X459335Y60737D01*
X459431Y60806D01*
X459532Y60870D01*
X459560Y60900D01*
X459593Y60923D01*
X459669Y61015D01*
X459750Y61102D01*
X459770Y61137D01*
X459795Y61168D01*
X459846Y61276D01*
X459904Y61380D01*
X459914Y61420D01*
X459931Y61456D01*
X459953Y61573D01*
X459983Y61688D01*
X459987Y61748D01*
X459991Y61768D01*
X459989Y61789D01*
X459993Y61849D01*
X459993Y93726D01*
X459981Y93824D01*
X459978Y93923D01*
X459961Y93981D01*
X459953Y94042D01*
X459917Y94134D01*
X459889Y94229D01*
X459859Y94281D01*
X459836Y94337D01*
X459778Y94417D01*
X459728Y94503D01*
X459662Y94578D01*
X459650Y94595D01*
X459640Y94602D01*
X459622Y94624D01*
X452256Y101990D01*
X452177Y102050D01*
X452105Y102118D01*
X452052Y102147D01*
X452004Y102184D01*
X451913Y102224D01*
X451827Y102272D01*
X451768Y102287D01*
X451712Y102311D01*
X451614Y102326D01*
X451519Y102351D01*
X451419Y102357D01*
X451398Y102361D01*
X451386Y102359D01*
X451358Y102361D01*
X445008Y102361D01*
X444890Y102346D01*
X444771Y102339D01*
X444733Y102326D01*
X444692Y102321D01*
X444582Y102278D01*
X444469Y102241D01*
X444434Y102219D01*
X444397Y102204D01*
X444301Y102135D01*
X444200Y102071D01*
X444172Y102041D01*
X444139Y102018D01*
X444064Y101926D01*
X443982Y101839D01*
X443962Y101804D01*
X443937Y101773D01*
X443886Y101665D01*
X443828Y101561D01*
X443818Y101521D01*
X443801Y101485D01*
X443779Y101368D01*
X443749Y101253D01*
X443745Y101193D01*
X443741Y101173D01*
X443743Y101152D01*
X443739Y101092D01*
X443739Y51308D01*
X443754Y51190D01*
X443761Y51071D01*
X443774Y51033D01*
X443779Y50992D01*
X443822Y50882D01*
X443859Y50769D01*
X443881Y50734D01*
X443896Y50697D01*
X443966Y50601D01*
X444029Y50500D01*
X444059Y50472D01*
X444082Y50439D01*
X444174Y50364D01*
X444261Y50282D01*
X444296Y50262D01*
X444327Y50237D01*
X444435Y50186D01*
X444539Y50128D01*
X444579Y50118D01*
X444615Y50101D01*
X444732Y50079D01*
X444847Y50049D01*
X444908Y50045D01*
X444928Y50041D01*
X444948Y50043D01*
X445008Y50039D01*
X455422Y50039D01*
X455520Y50051D01*
G37*
G36*
X574082Y31123D02*
X574082Y31123D01*
X574124Y31121D01*
X574191Y31143D01*
X574261Y31155D01*
X574297Y31177D01*
X574338Y31190D01*
X574411Y31244D01*
X574454Y31270D01*
X574467Y31286D01*
X574488Y31302D01*
X577028Y33842D01*
X577053Y33876D01*
X577084Y33905D01*
X577107Y33949D01*
X577132Y33981D01*
X577139Y34001D01*
X577157Y34026D01*
X577167Y34067D01*
X577187Y34105D01*
X577196Y34170D01*
X577204Y34193D01*
X577204Y34209D01*
X577213Y34243D01*
X577210Y34264D01*
X577214Y34290D01*
X577214Y44588D01*
X577207Y44630D01*
X577209Y44672D01*
X577187Y44739D01*
X577175Y44809D01*
X577153Y44845D01*
X577140Y44886D01*
X577086Y44958D01*
X577060Y45002D01*
X577044Y45015D01*
X577028Y45036D01*
X576960Y45104D01*
X576960Y53956D01*
X577028Y54024D01*
X577053Y54059D01*
X577084Y54087D01*
X577116Y54150D01*
X577157Y54208D01*
X577167Y54249D01*
X577187Y54287D01*
X577200Y54376D01*
X577213Y54425D01*
X577210Y54446D01*
X577214Y54472D01*
X577214Y59828D01*
X577207Y59870D01*
X577209Y59912D01*
X577187Y59979D01*
X577175Y60049D01*
X577153Y60085D01*
X577140Y60126D01*
X577086Y60198D01*
X577060Y60242D01*
X577044Y60255D01*
X577028Y60276D01*
X576960Y60344D01*
X576960Y69196D01*
X577028Y69264D01*
X577053Y69299D01*
X577084Y69327D01*
X577116Y69390D01*
X577157Y69448D01*
X577167Y69489D01*
X577187Y69527D01*
X577200Y69616D01*
X577213Y69665D01*
X577210Y69686D01*
X577214Y69712D01*
X577214Y81280D01*
X577207Y81322D01*
X577209Y81364D01*
X577187Y81431D01*
X577175Y81501D01*
X577153Y81537D01*
X577140Y81578D01*
X577086Y81651D01*
X577060Y81694D01*
X577044Y81707D01*
X577028Y81728D01*
X575123Y83633D01*
X575089Y83658D01*
X575060Y83689D01*
X574997Y83721D01*
X574939Y83762D01*
X574898Y83772D01*
X574860Y83792D01*
X574771Y83805D01*
X574722Y83818D01*
X574701Y83815D01*
X574675Y83819D01*
X568325Y83819D01*
X568260Y83808D01*
X568194Y83806D01*
X568151Y83788D01*
X568104Y83780D01*
X568047Y83746D01*
X567987Y83721D01*
X567952Y83690D01*
X567911Y83665D01*
X567870Y83614D01*
X567821Y83570D01*
X567799Y83528D01*
X567770Y83491D01*
X567749Y83429D01*
X567718Y83370D01*
X567710Y83316D01*
X567698Y83279D01*
X567699Y83239D01*
X567691Y83185D01*
X567691Y50164D01*
X552450Y50164D01*
X552408Y50157D01*
X552366Y50159D01*
X552299Y50137D01*
X552229Y50125D01*
X552193Y50103D01*
X552152Y50090D01*
X552079Y50036D01*
X552036Y50010D01*
X552023Y49994D01*
X552022Y49994D01*
X552015Y49989D01*
X552013Y49987D01*
X552002Y49978D01*
X549462Y47438D01*
X549437Y47404D01*
X549406Y47375D01*
X549374Y47312D01*
X549333Y47254D01*
X549323Y47213D01*
X549303Y47175D01*
X549291Y47089D01*
X549283Y47066D01*
X549283Y47058D01*
X549278Y47037D01*
X549280Y47016D01*
X549276Y46990D01*
X549276Y44450D01*
X549283Y44408D01*
X549281Y44366D01*
X549303Y44299D01*
X549315Y44229D01*
X549337Y44193D01*
X549350Y44152D01*
X549386Y44104D01*
X549389Y44097D01*
X549402Y44082D01*
X549404Y44079D01*
X549430Y44036D01*
X549446Y44023D01*
X549462Y44002D01*
X553086Y40377D01*
X553086Y34290D01*
X553093Y34248D01*
X553091Y34206D01*
X553102Y34173D01*
X553102Y34156D01*
X553116Y34124D01*
X553125Y34069D01*
X553147Y34033D01*
X553160Y33992D01*
X553180Y33966D01*
X553187Y33949D01*
X553215Y33917D01*
X553240Y33876D01*
X553256Y33863D01*
X553272Y33842D01*
X555812Y31302D01*
X555846Y31277D01*
X555875Y31246D01*
X555938Y31214D01*
X555996Y31173D01*
X556037Y31163D01*
X556075Y31143D01*
X556164Y31130D01*
X556213Y31118D01*
X556234Y31120D01*
X556260Y31116D01*
X574040Y31116D01*
X574082Y31123D01*
G37*
G36*
X537252Y69223D02*
X537252Y69223D01*
X537294Y69221D01*
X537361Y69243D01*
X537431Y69255D01*
X537467Y69277D01*
X537508Y69290D01*
X537581Y69344D01*
X537624Y69370D01*
X537637Y69386D01*
X537658Y69402D01*
X538674Y70418D01*
X538699Y70452D01*
X538730Y70481D01*
X538762Y70544D01*
X538803Y70602D01*
X538813Y70643D01*
X538833Y70681D01*
X538846Y70770D01*
X538859Y70819D01*
X538856Y70840D01*
X538860Y70866D01*
X538860Y78223D01*
X541918Y81281D01*
X548640Y81281D01*
X548705Y81292D01*
X548771Y81294D01*
X548814Y81312D01*
X548861Y81320D01*
X548918Y81354D01*
X548978Y81379D01*
X549013Y81410D01*
X549054Y81435D01*
X549096Y81486D01*
X549144Y81530D01*
X549166Y81572D01*
X549195Y81609D01*
X549216Y81671D01*
X549247Y81730D01*
X549255Y81784D01*
X549267Y81821D01*
X549266Y81861D01*
X549274Y81915D01*
X549274Y88265D01*
X549263Y88330D01*
X549261Y88396D01*
X549243Y88439D01*
X549235Y88486D01*
X549201Y88543D01*
X549176Y88603D01*
X549145Y88638D01*
X549120Y88679D01*
X549069Y88721D01*
X549025Y88769D01*
X548983Y88791D01*
X548946Y88820D01*
X548884Y88841D01*
X548825Y88872D01*
X548771Y88880D01*
X548734Y88892D01*
X548694Y88891D01*
X548640Y88899D01*
X541918Y88899D01*
X539114Y91703D01*
X539114Y91771D01*
X539107Y91813D01*
X539109Y91855D01*
X539087Y91922D01*
X539075Y91992D01*
X539053Y92028D01*
X539040Y92069D01*
X538986Y92141D01*
X538960Y92185D01*
X538944Y92198D01*
X538928Y92219D01*
X538876Y92272D01*
X538876Y96927D01*
X538884Y96935D01*
X538903Y96979D01*
X538930Y97018D01*
X538946Y97081D01*
X538972Y97142D01*
X538974Y97189D01*
X538985Y97235D01*
X538979Y97300D01*
X538982Y97366D01*
X538967Y97411D01*
X538962Y97458D01*
X538933Y97517D01*
X538913Y97580D01*
X538880Y97624D01*
X538863Y97659D01*
X538834Y97686D01*
X538801Y97730D01*
X537659Y98873D01*
X537631Y98892D01*
X537629Y98895D01*
X537623Y98898D01*
X537595Y98929D01*
X537532Y98961D01*
X537474Y99002D01*
X537433Y99012D01*
X537395Y99032D01*
X537306Y99045D01*
X537257Y99058D01*
X537236Y99055D01*
X537210Y99059D01*
X529590Y99059D01*
X529548Y99052D01*
X529506Y99054D01*
X529439Y99032D01*
X529369Y99020D01*
X529333Y98998D01*
X529292Y98985D01*
X529219Y98931D01*
X529176Y98905D01*
X529163Y98889D01*
X529142Y98873D01*
X528126Y97857D01*
X528101Y97823D01*
X528070Y97794D01*
X528038Y97731D01*
X527997Y97673D01*
X527987Y97632D01*
X527967Y97594D01*
X527954Y97505D01*
X527942Y97456D01*
X527944Y97435D01*
X527940Y97409D01*
X527940Y70866D01*
X527947Y70824D01*
X527945Y70782D01*
X527967Y70715D01*
X527979Y70645D01*
X528001Y70609D01*
X528014Y70568D01*
X528068Y70495D01*
X528094Y70452D01*
X528110Y70439D01*
X528126Y70418D01*
X529142Y69402D01*
X529176Y69377D01*
X529205Y69346D01*
X529268Y69314D01*
X529326Y69273D01*
X529367Y69263D01*
X529405Y69243D01*
X529494Y69230D01*
X529543Y69218D01*
X529564Y69220D01*
X529590Y69216D01*
X537210Y69216D01*
X537252Y69223D01*
G37*
G36*
X102930Y90613D02*
X102930Y90613D01*
X102972Y90611D01*
X103039Y90633D01*
X103109Y90645D01*
X103145Y90667D01*
X103186Y90680D01*
X103258Y90734D01*
X103302Y90760D01*
X103315Y90776D01*
X103336Y90792D01*
X104588Y92044D01*
X104613Y92078D01*
X104644Y92107D01*
X104676Y92170D01*
X104717Y92228D01*
X104727Y92269D01*
X104747Y92307D01*
X104759Y92390D01*
X104767Y92415D01*
X104767Y92424D01*
X104773Y92445D01*
X104770Y92466D01*
X104774Y92492D01*
X104774Y99187D01*
X104763Y99252D01*
X104761Y99318D01*
X104743Y99361D01*
X104735Y99408D01*
X104701Y99465D01*
X104676Y99525D01*
X104645Y99560D01*
X104620Y99601D01*
X104569Y99643D01*
X104525Y99691D01*
X104483Y99713D01*
X104446Y99742D01*
X104384Y99763D01*
X104325Y99794D01*
X104271Y99802D01*
X104234Y99814D01*
X104194Y99813D01*
X104140Y99821D01*
X90368Y99821D01*
X88694Y101495D01*
X86108Y104080D01*
X86074Y104105D01*
X86045Y104136D01*
X85982Y104168D01*
X85924Y104209D01*
X85883Y104219D01*
X85845Y104239D01*
X85756Y104252D01*
X85707Y104265D01*
X85686Y104262D01*
X85660Y104266D01*
X82833Y104266D01*
X82791Y104259D01*
X82748Y104261D01*
X82681Y104239D01*
X82612Y104227D01*
X82575Y104205D01*
X82535Y104192D01*
X82462Y104138D01*
X82440Y104125D01*
X73152Y104125D01*
X73087Y104114D01*
X73021Y104112D01*
X72978Y104094D01*
X72931Y104086D01*
X72874Y104052D01*
X72814Y104027D01*
X72779Y103996D01*
X72738Y103971D01*
X72697Y103920D01*
X72648Y103876D01*
X72626Y103834D01*
X72597Y103797D01*
X72576Y103735D01*
X72545Y103676D01*
X72537Y103622D01*
X72525Y103585D01*
X72526Y103545D01*
X72518Y103491D01*
X72518Y97259D01*
X72529Y97194D01*
X72531Y97128D01*
X72549Y97085D01*
X72557Y97038D01*
X72591Y96981D01*
X72616Y96921D01*
X72647Y96886D01*
X72672Y96845D01*
X72723Y96803D01*
X72767Y96755D01*
X72809Y96733D01*
X72846Y96704D01*
X72908Y96683D01*
X72967Y96652D01*
X73021Y96644D01*
X73058Y96632D01*
X73098Y96633D01*
X73152Y96625D01*
X82970Y96625D01*
X84405Y95190D01*
X84405Y92210D01*
X83883Y91688D01*
X83833Y91615D01*
X83777Y91546D01*
X83769Y91524D01*
X83755Y91504D01*
X83733Y91418D01*
X83705Y91334D01*
X83705Y91310D01*
X83699Y91287D01*
X83709Y91198D01*
X83711Y91109D01*
X83720Y91087D01*
X83723Y91064D01*
X83762Y90984D01*
X83796Y90902D01*
X83812Y90884D01*
X83822Y90863D01*
X83887Y90802D01*
X83947Y90736D01*
X83968Y90725D01*
X83985Y90709D01*
X84067Y90674D01*
X84147Y90633D01*
X84173Y90630D01*
X84192Y90621D01*
X84242Y90619D01*
X84332Y90606D01*
X102888Y90606D01*
X102930Y90613D01*
G37*
G36*
X92335Y78748D02*
X92335Y78748D01*
X92377Y78746D01*
X92444Y78768D01*
X92514Y78780D01*
X92550Y78802D01*
X92591Y78815D01*
X92663Y78869D01*
X92707Y78895D01*
X92720Y78911D01*
X92741Y78927D01*
X94175Y80360D01*
X95477Y81662D01*
X108676Y81662D01*
X108718Y81669D01*
X108760Y81667D01*
X108827Y81689D01*
X108897Y81701D01*
X108933Y81723D01*
X108974Y81736D01*
X109046Y81790D01*
X109090Y81816D01*
X109103Y81832D01*
X109124Y81848D01*
X111193Y83916D01*
X111198Y83919D01*
X111258Y83944D01*
X111293Y83975D01*
X111334Y84000D01*
X111375Y84051D01*
X111424Y84095D01*
X111446Y84137D01*
X111475Y84174D01*
X111478Y84183D01*
X113511Y86215D01*
X124423Y86215D01*
X124465Y86222D01*
X124507Y86220D01*
X124574Y86242D01*
X124644Y86254D01*
X124680Y86276D01*
X124721Y86289D01*
X124794Y86343D01*
X124837Y86369D01*
X124850Y86385D01*
X124871Y86401D01*
X127448Y88978D01*
X127473Y89012D01*
X127504Y89041D01*
X127536Y89104D01*
X127577Y89162D01*
X127587Y89203D01*
X127607Y89241D01*
X127620Y89330D01*
X127633Y89379D01*
X127630Y89400D01*
X127634Y89426D01*
X127634Y93454D01*
X127627Y93496D01*
X127629Y93538D01*
X127607Y93605D01*
X127595Y93675D01*
X127573Y93711D01*
X127560Y93752D01*
X127506Y93825D01*
X127480Y93868D01*
X127464Y93881D01*
X127448Y93902D01*
X124871Y96479D01*
X124837Y96504D01*
X124808Y96535D01*
X124745Y96567D01*
X124687Y96608D01*
X124646Y96618D01*
X124608Y96638D01*
X124519Y96651D01*
X124470Y96664D01*
X124449Y96661D01*
X124423Y96665D01*
X114355Y96665D01*
X114313Y96658D01*
X114271Y96660D01*
X114204Y96638D01*
X114134Y96626D01*
X114098Y96604D01*
X114057Y96591D01*
X113985Y96537D01*
X113941Y96511D01*
X113928Y96495D01*
X113907Y96479D01*
X111311Y93884D01*
X111287Y93850D01*
X111256Y93821D01*
X111224Y93758D01*
X111183Y93700D01*
X111173Y93659D01*
X111153Y93621D01*
X111140Y93532D01*
X111127Y93483D01*
X111130Y93462D01*
X111126Y93436D01*
X111126Y88873D01*
X106507Y84254D01*
X88482Y84254D01*
X88440Y84247D01*
X88398Y84249D01*
X88331Y84227D01*
X88261Y84215D01*
X88225Y84193D01*
X88184Y84180D01*
X88112Y84126D01*
X88068Y84100D01*
X88055Y84084D01*
X88034Y84068D01*
X85639Y81674D01*
X85631Y81670D01*
X85615Y81653D01*
X85594Y81640D01*
X85538Y81571D01*
X85477Y81507D01*
X85468Y81485D01*
X85453Y81466D01*
X85424Y81382D01*
X85389Y81300D01*
X85388Y81276D01*
X85381Y81254D01*
X85383Y81165D01*
X85379Y81076D01*
X85387Y81053D01*
X85387Y81029D01*
X85421Y80947D01*
X85448Y80862D01*
X85464Y80841D01*
X85472Y80822D01*
X85506Y80784D01*
X85560Y80712D01*
X87345Y78926D01*
X87379Y78902D01*
X87408Y78871D01*
X87471Y78839D01*
X87529Y78798D01*
X87570Y78788D01*
X87608Y78768D01*
X87697Y78755D01*
X87746Y78742D01*
X87767Y78745D01*
X87793Y78741D01*
X92293Y78741D01*
X92335Y78748D01*
G37*
G36*
X524552Y31123D02*
X524552Y31123D01*
X524594Y31121D01*
X524661Y31143D01*
X524731Y31155D01*
X524767Y31177D01*
X524808Y31190D01*
X524881Y31244D01*
X524924Y31270D01*
X524937Y31286D01*
X524958Y31302D01*
X527498Y33842D01*
X527523Y33876D01*
X527554Y33905D01*
X527577Y33949D01*
X527602Y33981D01*
X527609Y34001D01*
X527627Y34026D01*
X527637Y34067D01*
X527657Y34105D01*
X527666Y34170D01*
X527674Y34193D01*
X527674Y34209D01*
X527683Y34243D01*
X527680Y34264D01*
X527684Y34290D01*
X527684Y38100D01*
X527677Y38142D01*
X527679Y38184D01*
X527671Y38208D01*
X527671Y38223D01*
X527655Y38261D01*
X527645Y38321D01*
X527623Y38357D01*
X527610Y38398D01*
X527588Y38428D01*
X527586Y38431D01*
X527582Y38436D01*
X527556Y38471D01*
X527530Y38514D01*
X527514Y38527D01*
X527498Y38548D01*
X523053Y42993D01*
X523022Y43016D01*
X523003Y43036D01*
X523001Y43037D01*
X522990Y43049D01*
X522927Y43081D01*
X522869Y43122D01*
X522828Y43132D01*
X522790Y43152D01*
X522701Y43165D01*
X522652Y43178D01*
X522631Y43175D01*
X522605Y43179D01*
X521135Y43179D01*
X519416Y44898D01*
X519385Y44920D01*
X519368Y44939D01*
X519365Y44940D01*
X519353Y44954D01*
X519290Y44986D01*
X519232Y45027D01*
X519191Y45037D01*
X519153Y45057D01*
X519064Y45070D01*
X519015Y45083D01*
X518994Y45080D01*
X518968Y45084D01*
X514350Y45084D01*
X514308Y45077D01*
X514266Y45079D01*
X514199Y45057D01*
X514129Y45045D01*
X514093Y45023D01*
X514052Y45010D01*
X513979Y44956D01*
X513936Y44930D01*
X513926Y44919D01*
X513921Y44915D01*
X513916Y44909D01*
X513902Y44898D01*
X511362Y42358D01*
X511337Y42324D01*
X511306Y42295D01*
X511274Y42232D01*
X511233Y42174D01*
X511223Y42133D01*
X511203Y42095D01*
X511192Y42019D01*
X511183Y41992D01*
X511183Y41979D01*
X511178Y41957D01*
X511180Y41936D01*
X511176Y41910D01*
X511176Y34290D01*
X511183Y34248D01*
X511181Y34206D01*
X511192Y34173D01*
X511192Y34156D01*
X511206Y34124D01*
X511215Y34069D01*
X511237Y34033D01*
X511250Y33992D01*
X511270Y33966D01*
X511277Y33949D01*
X511305Y33917D01*
X511330Y33876D01*
X511346Y33863D01*
X511362Y33842D01*
X513902Y31302D01*
X513936Y31277D01*
X513965Y31246D01*
X514028Y31214D01*
X514086Y31173D01*
X514127Y31163D01*
X514165Y31143D01*
X514254Y31130D01*
X514303Y31118D01*
X514324Y31120D01*
X514350Y31116D01*
X524510Y31116D01*
X524552Y31123D01*
G37*
G36*
X286142Y35578D02*
X286142Y35578D01*
X286280Y35591D01*
X286299Y35598D01*
X286320Y35601D01*
X286449Y35652D01*
X286580Y35699D01*
X286596Y35710D01*
X286615Y35718D01*
X286728Y35799D01*
X286843Y35877D01*
X286856Y35893D01*
X286873Y35904D01*
X286961Y36012D01*
X287053Y36116D01*
X287062Y36134D01*
X287075Y36149D01*
X287135Y36275D01*
X287198Y36399D01*
X287202Y36419D01*
X287211Y36437D01*
X287237Y36573D01*
X287268Y36709D01*
X287267Y36730D01*
X287271Y36750D01*
X287262Y36888D01*
X287258Y37027D01*
X287252Y37047D01*
X287251Y37067D01*
X287208Y37199D01*
X287169Y37333D01*
X287159Y37350D01*
X287153Y37369D01*
X287079Y37487D01*
X287008Y37607D01*
X286989Y37628D01*
X286983Y37638D01*
X286968Y37652D01*
X286902Y37728D01*
X280552Y44078D01*
X280472Y44139D01*
X280405Y44202D01*
X280388Y44211D01*
X280368Y44229D01*
X280332Y44248D01*
X280300Y44272D01*
X280195Y44318D01*
X280126Y44356D01*
X280114Y44359D01*
X280085Y44374D01*
X280046Y44383D01*
X280008Y44399D01*
X279891Y44417D01*
X279866Y44423D01*
X279818Y44435D01*
X279808Y44436D01*
X279775Y44444D01*
X279734Y44442D01*
X279694Y44449D01*
X279660Y44445D01*
X279658Y44446D01*
X279650Y44446D01*
X279618Y44442D01*
X279576Y44437D01*
X279457Y44434D01*
X279418Y44423D01*
X279378Y44419D01*
X279345Y44407D01*
X279335Y44406D01*
X279272Y44381D01*
X279265Y44379D01*
X279151Y44345D01*
X279117Y44325D01*
X279078Y44311D01*
X279054Y44294D01*
X279039Y44289D01*
X278970Y44239D01*
X278877Y44184D01*
X278832Y44144D01*
X278815Y44133D01*
X278802Y44117D01*
X278795Y44112D01*
X278782Y44102D01*
X278775Y44094D01*
X278757Y44078D01*
X272407Y37728D01*
X272321Y37618D01*
X272233Y37511D01*
X272224Y37492D01*
X272212Y37476D01*
X272156Y37348D01*
X272097Y37223D01*
X272093Y37203D01*
X272085Y37184D01*
X272063Y37046D01*
X272037Y36911D01*
X272039Y36890D01*
X272035Y36870D01*
X272048Y36731D01*
X272057Y36593D01*
X272063Y36574D01*
X272065Y36554D01*
X272112Y36422D01*
X272155Y36291D01*
X272166Y36273D01*
X272173Y36254D01*
X272251Y36139D01*
X272325Y36022D01*
X272340Y36008D01*
X272351Y35991D01*
X272455Y35899D01*
X272557Y35804D01*
X272575Y35794D01*
X272590Y35781D01*
X272714Y35718D01*
X272835Y35650D01*
X272855Y35645D01*
X272873Y35636D01*
X273009Y35606D01*
X273143Y35571D01*
X273171Y35569D01*
X273183Y35567D01*
X273204Y35567D01*
X273304Y35561D01*
X286004Y35561D01*
X286142Y35578D01*
G37*
G36*
X784140Y34139D02*
X784140Y34139D01*
X784229Y34141D01*
X784251Y34150D01*
X784274Y34153D01*
X784354Y34192D01*
X784436Y34225D01*
X784454Y34241D01*
X784475Y34252D01*
X784512Y34291D01*
X790575Y34291D01*
X790640Y34302D01*
X790705Y34304D01*
X790749Y34322D01*
X790796Y34330D01*
X790852Y34364D01*
X790913Y34389D01*
X790948Y34421D01*
X790989Y34445D01*
X791030Y34496D01*
X791079Y34540D01*
X791101Y34582D01*
X791130Y34619D01*
X791151Y34681D01*
X791181Y34740D01*
X791190Y34794D01*
X791202Y34831D01*
X791201Y34871D01*
X791209Y34925D01*
X791209Y36195D01*
X791197Y36260D01*
X791196Y36325D01*
X791178Y36369D01*
X791169Y36416D01*
X791136Y36473D01*
X791111Y36533D01*
X791079Y36568D01*
X791055Y36609D01*
X791004Y36650D01*
X790960Y36699D01*
X790918Y36721D01*
X790881Y36750D01*
X790819Y36771D01*
X790760Y36801D01*
X790706Y36810D01*
X790669Y36822D01*
X790629Y36821D01*
X790575Y36829D01*
X784732Y36829D01*
X784732Y39308D01*
X784943Y40095D01*
X784946Y40131D01*
X784958Y40165D01*
X784956Y40242D01*
X784962Y40318D01*
X784952Y40353D01*
X784951Y40390D01*
X784922Y40461D01*
X784902Y40535D01*
X784881Y40564D01*
X784867Y40597D01*
X784815Y40654D01*
X784770Y40716D01*
X784740Y40736D01*
X784716Y40763D01*
X784647Y40798D01*
X784583Y40841D01*
X784548Y40849D01*
X784516Y40866D01*
X784413Y40881D01*
X784365Y40892D01*
X784350Y40890D01*
X784331Y40893D01*
X784189Y40893D01*
X784147Y40886D01*
X784105Y40888D01*
X784038Y40866D01*
X783968Y40854D01*
X783931Y40832D01*
X783891Y40819D01*
X783818Y40765D01*
X783775Y40739D01*
X783762Y40723D01*
X783740Y40707D01*
X782934Y39901D01*
X779166Y39901D01*
X778959Y40109D01*
X778885Y40160D01*
X778816Y40216D01*
X778794Y40223D01*
X778774Y40237D01*
X778688Y40259D01*
X778604Y40287D01*
X778580Y40287D01*
X778557Y40293D01*
X778468Y40283D01*
X778379Y40281D01*
X778358Y40272D01*
X778334Y40269D01*
X778254Y40230D01*
X778172Y40197D01*
X778154Y40181D01*
X778133Y40170D01*
X778072Y40105D01*
X778006Y40045D01*
X777995Y40024D01*
X777979Y40007D01*
X777944Y39925D01*
X777903Y39846D01*
X777900Y39819D01*
X777891Y39800D01*
X777889Y39750D01*
X777876Y39660D01*
X777876Y36933D01*
X777887Y36868D01*
X777889Y36802D01*
X777907Y36759D01*
X777915Y36712D01*
X777949Y36655D01*
X777974Y36595D01*
X778005Y36560D01*
X778030Y36519D01*
X778081Y36477D01*
X778125Y36429D01*
X778167Y36407D01*
X778204Y36378D01*
X778266Y36357D01*
X778325Y36326D01*
X778379Y36318D01*
X778416Y36306D01*
X778456Y36307D01*
X778510Y36299D01*
X781664Y36299D01*
X783650Y34313D01*
X783723Y34262D01*
X783792Y34206D01*
X783814Y34199D01*
X783834Y34185D01*
X783920Y34163D01*
X784004Y34135D01*
X784028Y34135D01*
X784051Y34129D01*
X784140Y34139D01*
G37*
%LPC*%
G36*
X824339Y88969D02*
X824339Y88969D01*
X824339Y96233D01*
X826450Y96233D01*
X827666Y95907D01*
X828757Y95277D01*
X829647Y94387D01*
X830277Y93296D01*
X830603Y92080D01*
X830603Y88969D01*
X824339Y88969D01*
G37*
%LPD*%
%LPC*%
G36*
X815537Y88969D02*
X815537Y88969D01*
X815537Y92080D01*
X815863Y93296D01*
X816493Y94387D01*
X817383Y95277D01*
X818474Y95907D01*
X819690Y96233D01*
X821801Y96233D01*
X821801Y88969D01*
X815537Y88969D01*
G37*
%LPD*%
%LPC*%
G36*
X824339Y79167D02*
X824339Y79167D01*
X824339Y86431D01*
X830603Y86431D01*
X830603Y83320D01*
X830277Y82104D01*
X829647Y81013D01*
X828757Y80123D01*
X827666Y79493D01*
X826450Y79167D01*
X824339Y79167D01*
G37*
%LPD*%
%LPC*%
G36*
X806339Y56167D02*
X806339Y56167D01*
X806339Y63431D01*
X812603Y63431D01*
X812603Y60320D01*
X812277Y59104D01*
X811647Y58013D01*
X810757Y57123D01*
X809666Y56493D01*
X808450Y56167D01*
X806339Y56167D01*
G37*
%LPD*%
%LPC*%
G36*
X819690Y79167D02*
X819690Y79167D01*
X818474Y79493D01*
X817383Y80123D01*
X816493Y81013D01*
X815863Y82104D01*
X815537Y83320D01*
X815537Y86431D01*
X821801Y86431D01*
X821801Y79167D01*
X819690Y79167D01*
G37*
%LPD*%
%LPC*%
G36*
X792479Y102869D02*
X792479Y102869D01*
X792479Y108078D01*
X794958Y108078D01*
X795757Y107863D01*
X796474Y107450D01*
X797060Y106864D01*
X797473Y106147D01*
X797688Y105348D01*
X797688Y102869D01*
X792479Y102869D01*
G37*
%LPD*%
%LPC*%
G36*
X792479Y52069D02*
X792479Y52069D01*
X792479Y57278D01*
X794958Y57278D01*
X795757Y57063D01*
X796474Y56650D01*
X797060Y56064D01*
X797473Y55347D01*
X797688Y54548D01*
X797688Y52069D01*
X792479Y52069D01*
G37*
%LPD*%
%LPC*%
G36*
X784732Y102869D02*
X784732Y102869D01*
X784732Y105348D01*
X784947Y106147D01*
X785360Y106864D01*
X785946Y107450D01*
X786663Y107863D01*
X787462Y108078D01*
X789941Y108078D01*
X789941Y102869D01*
X784732Y102869D01*
G37*
%LPD*%
%LPC*%
G36*
X784732Y52069D02*
X784732Y52069D01*
X784732Y54548D01*
X784947Y55347D01*
X785360Y56064D01*
X785946Y56650D01*
X786663Y57063D01*
X787462Y57278D01*
X789941Y57278D01*
X789941Y52069D01*
X784732Y52069D01*
G37*
%LPD*%
%LPC*%
G36*
X792479Y95122D02*
X792479Y95122D01*
X792479Y100331D01*
X797688Y100331D01*
X797688Y97852D01*
X797473Y97053D01*
X797060Y96336D01*
X796474Y95750D01*
X795757Y95337D01*
X794958Y95122D01*
X792479Y95122D01*
G37*
%LPD*%
%LPC*%
G36*
X802702Y110362D02*
X802702Y110362D01*
X801903Y110577D01*
X801186Y110990D01*
X800600Y111576D01*
X800187Y112293D01*
X799972Y113092D01*
X799972Y115571D01*
X805181Y115571D01*
X805181Y110362D01*
X802702Y110362D01*
G37*
%LPD*%
%LPC*%
G36*
X787462Y95122D02*
X787462Y95122D01*
X786663Y95337D01*
X785946Y95750D01*
X785360Y96336D01*
X784947Y97053D01*
X784732Y97852D01*
X784732Y100331D01*
X789941Y100331D01*
X789941Y95122D01*
X787462Y95122D01*
G37*
%LPD*%
%LPC*%
G36*
X791209Y101599D02*
X791209Y101599D01*
X791209Y101601D01*
X791211Y101601D01*
X791211Y101599D01*
X791209Y101599D01*
G37*
%LPD*%
%LPC*%
G36*
X823069Y87699D02*
X823069Y87699D01*
X823069Y87701D01*
X823071Y87701D01*
X823071Y87699D01*
X823069Y87699D01*
G37*
%LPD*%
D10*
X179546Y55086D02*
X179546Y61754D01*
X186214Y61754D01*
X186214Y55086D01*
X179546Y55086D01*
X179546Y57198D02*
X186214Y57198D01*
X186214Y59310D02*
X179546Y59310D01*
X179546Y61422D02*
X186214Y61422D01*
X179546Y46514D02*
X179546Y39846D01*
X179546Y46514D02*
X186214Y46514D01*
X186214Y39846D01*
X179546Y39846D01*
X179546Y41958D02*
X186214Y41958D01*
X186214Y44070D02*
X179546Y44070D01*
X179546Y46182D02*
X186214Y46182D01*
X787876Y98266D02*
X787876Y104934D01*
X794544Y104934D01*
X794544Y98266D01*
X787876Y98266D01*
X787876Y100378D02*
X794544Y100378D01*
X794544Y102490D02*
X787876Y102490D01*
X787876Y104602D02*
X794544Y104602D01*
X787876Y89694D02*
X787876Y83026D01*
X787876Y89694D02*
X794544Y89694D01*
X794544Y83026D01*
X787876Y83026D01*
X787876Y85138D02*
X794544Y85138D01*
X794544Y87250D02*
X787876Y87250D01*
X787876Y89362D02*
X794544Y89362D01*
D11*
X820320Y91450D02*
X820320Y83950D01*
X820320Y91450D02*
X825820Y91450D01*
X825820Y83950D01*
X820320Y83950D01*
X820320Y89175D02*
X825820Y89175D01*
X802320Y68450D02*
X802320Y60950D01*
X802320Y68450D02*
X807820Y68450D01*
X807820Y60950D01*
X802320Y60950D01*
X802320Y66175D02*
X807820Y66175D01*
X820320Y68450D02*
X820320Y60950D01*
X820320Y68450D02*
X825820Y68450D01*
X825820Y60950D01*
X820320Y60950D01*
X820320Y66175D02*
X825820Y66175D01*
X802320Y83950D02*
X802320Y91450D01*
X807820Y91450D01*
X807820Y83950D01*
X802320Y83950D01*
X802320Y89175D02*
X807820Y89175D01*
D10*
X794544Y54134D02*
X794544Y47466D01*
X787876Y47466D01*
X787876Y54134D01*
X794544Y54134D01*
X794544Y49578D02*
X787876Y49578D01*
X787876Y51690D02*
X794544Y51690D01*
X794544Y53802D02*
X787876Y53802D01*
X794544Y62706D02*
X794544Y69374D01*
X794544Y62706D02*
X787876Y62706D01*
X787876Y69374D01*
X794544Y69374D01*
X794544Y64818D02*
X787876Y64818D01*
X787876Y66930D02*
X794544Y66930D01*
X794544Y69042D02*
X787876Y69042D01*
X163354Y81756D02*
X156686Y81756D01*
X156686Y88424D01*
X163354Y88424D01*
X163354Y81756D01*
X163354Y83868D02*
X156686Y83868D01*
X156686Y85980D02*
X163354Y85980D01*
X163354Y88092D02*
X156686Y88092D01*
X171926Y81756D02*
X178594Y81756D01*
X171926Y81756D02*
X171926Y88424D01*
X178594Y88424D01*
X178594Y81756D01*
X178594Y83868D02*
X171926Y83868D01*
X171926Y85980D02*
X178594Y85980D01*
X178594Y88092D02*
X171926Y88092D01*
X163354Y94456D02*
X156686Y94456D01*
X156686Y101124D01*
X163354Y101124D01*
X163354Y94456D01*
X163354Y96568D02*
X156686Y96568D01*
X156686Y98680D02*
X163354Y98680D01*
X163354Y100792D02*
X156686Y100792D01*
X171926Y94456D02*
X178594Y94456D01*
X171926Y94456D02*
X171926Y101124D01*
X178594Y101124D01*
X178594Y94456D01*
X178594Y96568D02*
X171926Y96568D01*
X171926Y98680D02*
X178594Y98680D01*
X178594Y100792D02*
X171926Y100792D01*
X803116Y120174D02*
X809784Y120174D01*
X809784Y113506D01*
X803116Y113506D01*
X803116Y120174D01*
X803116Y115618D02*
X809784Y115618D01*
X809784Y117730D02*
X803116Y117730D01*
X803116Y119842D02*
X809784Y119842D01*
X794544Y120174D02*
X787876Y120174D01*
X794544Y120174D02*
X794544Y113506D01*
X787876Y113506D01*
X787876Y120174D01*
X787876Y115618D02*
X794544Y115618D01*
X794544Y117730D02*
X787876Y117730D01*
X787876Y119842D02*
X794544Y119842D01*
X658654Y40862D02*
X651986Y40862D01*
X651986Y47530D01*
X658654Y47530D01*
X658654Y40862D01*
X658654Y42974D02*
X651986Y42974D01*
X651986Y45086D02*
X658654Y45086D01*
X658654Y47198D02*
X651986Y47198D01*
X667226Y40862D02*
X673894Y40862D01*
X667226Y40862D02*
X667226Y47530D01*
X673894Y47530D01*
X673894Y40862D01*
X673894Y42974D02*
X667226Y42974D01*
X667226Y45086D02*
X673894Y45086D01*
X673894Y47198D02*
X667226Y47198D01*
X787876Y32226D02*
X794544Y32226D01*
X787876Y32226D02*
X787876Y38894D01*
X794544Y38894D01*
X794544Y32226D01*
X794544Y34338D02*
X787876Y34338D01*
X787876Y36450D02*
X794544Y36450D01*
X794544Y38562D02*
X787876Y38562D01*
X803116Y32226D02*
X809784Y32226D01*
X803116Y32226D02*
X803116Y38894D01*
X809784Y38894D01*
X809784Y32226D01*
X809784Y34338D02*
X803116Y34338D01*
X803116Y36450D02*
X809784Y36450D01*
X809784Y38562D02*
X803116Y38562D01*
D12*
X709475Y38325D02*
X709475Y44075D01*
X709475Y38325D02*
X708725Y38325D01*
X708725Y44075D01*
X709475Y44075D01*
X709475Y40462D02*
X708725Y40462D01*
X708725Y42599D02*
X709475Y42599D01*
X714475Y44075D02*
X714475Y38325D01*
X713725Y38325D01*
X713725Y44075D01*
X714475Y44075D01*
X714475Y40462D02*
X713725Y40462D01*
X713725Y42599D02*
X714475Y42599D01*
X719475Y44075D02*
X719475Y38325D01*
X718725Y38325D01*
X718725Y44075D01*
X719475Y44075D01*
X719475Y40462D02*
X718725Y40462D01*
X718725Y42599D02*
X719475Y42599D01*
X724475Y44075D02*
X724475Y38325D01*
X723725Y38325D01*
X723725Y44075D01*
X724475Y44075D01*
X724475Y40462D02*
X723725Y40462D01*
X723725Y42599D02*
X724475Y42599D01*
X729475Y44075D02*
X729475Y38325D01*
X728725Y38325D01*
X728725Y44075D01*
X729475Y44075D01*
X729475Y40462D02*
X728725Y40462D01*
X728725Y42599D02*
X729475Y42599D01*
X734475Y44075D02*
X734475Y38325D01*
X733725Y38325D01*
X733725Y44075D01*
X734475Y44075D01*
X734475Y40462D02*
X733725Y40462D01*
X733725Y42599D02*
X734475Y42599D01*
X739475Y44075D02*
X739475Y38325D01*
X738725Y38325D01*
X738725Y44075D01*
X739475Y44075D01*
X739475Y40462D02*
X738725Y40462D01*
X738725Y42599D02*
X739475Y42599D01*
X744475Y44075D02*
X744475Y38325D01*
X743725Y38325D01*
X743725Y44075D01*
X744475Y44075D01*
X744475Y40462D02*
X743725Y40462D01*
X743725Y42599D02*
X744475Y42599D01*
X749475Y44075D02*
X749475Y38325D01*
X748725Y38325D01*
X748725Y44075D01*
X749475Y44075D01*
X749475Y40462D02*
X748725Y40462D01*
X748725Y42599D02*
X749475Y42599D01*
X754475Y44075D02*
X754475Y38325D01*
X753725Y38325D01*
X753725Y44075D01*
X754475Y44075D01*
X754475Y40462D02*
X753725Y40462D01*
X753725Y42599D02*
X754475Y42599D01*
X759475Y44075D02*
X759475Y38325D01*
X758725Y38325D01*
X758725Y44075D01*
X759475Y44075D01*
X759475Y40462D02*
X758725Y40462D01*
X758725Y42599D02*
X759475Y42599D01*
X764475Y44075D02*
X764475Y38325D01*
X763725Y38325D01*
X763725Y44075D01*
X764475Y44075D01*
X764475Y40462D02*
X763725Y40462D01*
X763725Y42599D02*
X764475Y42599D01*
D13*
X763200Y102800D02*
X710000Y102800D01*
X763200Y102800D02*
X763200Y49600D01*
X710000Y49600D01*
X710000Y102800D01*
X710000Y52260D02*
X763200Y52260D01*
X763200Y54920D02*
X710000Y54920D01*
X710000Y57580D02*
X763200Y57580D01*
X763200Y60240D02*
X710000Y60240D01*
X710000Y62900D02*
X763200Y62900D01*
X763200Y65560D02*
X710000Y65560D01*
X710000Y68220D02*
X763200Y68220D01*
X763200Y70880D02*
X710000Y70880D01*
X710000Y73540D02*
X763200Y73540D01*
X763200Y76200D02*
X710000Y76200D01*
X710000Y78860D02*
X763200Y78860D01*
X763200Y81520D02*
X710000Y81520D01*
X710000Y84180D02*
X763200Y84180D01*
X763200Y86840D02*
X710000Y86840D01*
X710000Y89500D02*
X763200Y89500D01*
X763200Y92160D02*
X710000Y92160D01*
X710000Y94820D02*
X763200Y94820D01*
X763200Y97480D02*
X710000Y97480D01*
X710000Y100140D02*
X763200Y100140D01*
X763200Y102800D02*
X710000Y102800D01*
D12*
X768725Y49075D02*
X774475Y49075D01*
X774475Y48325D01*
X768725Y48325D01*
X768725Y49075D01*
X768725Y54075D02*
X774475Y54075D01*
X774475Y53325D01*
X768725Y53325D01*
X768725Y54075D01*
X768725Y59075D02*
X774475Y59075D01*
X774475Y58325D01*
X768725Y58325D01*
X768725Y59075D01*
X768725Y64075D02*
X774475Y64075D01*
X774475Y63325D01*
X768725Y63325D01*
X768725Y64075D01*
X768725Y69075D02*
X774475Y69075D01*
X774475Y68325D01*
X768725Y68325D01*
X768725Y69075D01*
X768725Y74075D02*
X774475Y74075D01*
X774475Y73325D01*
X768725Y73325D01*
X768725Y74075D01*
X768725Y79075D02*
X774475Y79075D01*
X774475Y78325D01*
X768725Y78325D01*
X768725Y79075D01*
X768725Y84075D02*
X774475Y84075D01*
X774475Y83325D01*
X768725Y83325D01*
X768725Y84075D01*
X768725Y89075D02*
X774475Y89075D01*
X774475Y88325D01*
X768725Y88325D01*
X768725Y89075D01*
X768725Y94075D02*
X774475Y94075D01*
X774475Y93325D01*
X768725Y93325D01*
X768725Y94075D01*
X768725Y99075D02*
X774475Y99075D01*
X774475Y98325D01*
X768725Y98325D01*
X768725Y99075D01*
X768725Y104075D02*
X774475Y104075D01*
X774475Y103325D01*
X768725Y103325D01*
X768725Y104075D01*
X763725Y108325D02*
X763725Y114075D01*
X764475Y114075D01*
X764475Y108325D01*
X763725Y108325D01*
X763725Y110462D02*
X764475Y110462D01*
X764475Y112599D02*
X763725Y112599D01*
X758725Y114075D02*
X758725Y108325D01*
X758725Y114075D02*
X759475Y114075D01*
X759475Y108325D01*
X758725Y108325D01*
X758725Y110462D02*
X759475Y110462D01*
X759475Y112599D02*
X758725Y112599D01*
X753725Y114075D02*
X753725Y108325D01*
X753725Y114075D02*
X754475Y114075D01*
X754475Y108325D01*
X753725Y108325D01*
X753725Y110462D02*
X754475Y110462D01*
X754475Y112599D02*
X753725Y112599D01*
X748725Y114075D02*
X748725Y108325D01*
X748725Y114075D02*
X749475Y114075D01*
X749475Y108325D01*
X748725Y108325D01*
X748725Y110462D02*
X749475Y110462D01*
X749475Y112599D02*
X748725Y112599D01*
X743725Y114075D02*
X743725Y108325D01*
X743725Y114075D02*
X744475Y114075D01*
X744475Y108325D01*
X743725Y108325D01*
X743725Y110462D02*
X744475Y110462D01*
X744475Y112599D02*
X743725Y112599D01*
X738725Y114075D02*
X738725Y108325D01*
X738725Y114075D02*
X739475Y114075D01*
X739475Y108325D01*
X738725Y108325D01*
X738725Y110462D02*
X739475Y110462D01*
X739475Y112599D02*
X738725Y112599D01*
X733725Y114075D02*
X733725Y108325D01*
X733725Y114075D02*
X734475Y114075D01*
X734475Y108325D01*
X733725Y108325D01*
X733725Y110462D02*
X734475Y110462D01*
X734475Y112599D02*
X733725Y112599D01*
X728725Y114075D02*
X728725Y108325D01*
X728725Y114075D02*
X729475Y114075D01*
X729475Y108325D01*
X728725Y108325D01*
X728725Y110462D02*
X729475Y110462D01*
X729475Y112599D02*
X728725Y112599D01*
X723725Y114075D02*
X723725Y108325D01*
X723725Y114075D02*
X724475Y114075D01*
X724475Y108325D01*
X723725Y108325D01*
X723725Y110462D02*
X724475Y110462D01*
X724475Y112599D02*
X723725Y112599D01*
X718725Y114075D02*
X718725Y108325D01*
X718725Y114075D02*
X719475Y114075D01*
X719475Y108325D01*
X718725Y108325D01*
X718725Y110462D02*
X719475Y110462D01*
X719475Y112599D02*
X718725Y112599D01*
X713725Y114075D02*
X713725Y108325D01*
X713725Y114075D02*
X714475Y114075D01*
X714475Y108325D01*
X713725Y108325D01*
X713725Y110462D02*
X714475Y110462D01*
X714475Y112599D02*
X713725Y112599D01*
X708725Y114075D02*
X708725Y108325D01*
X708725Y114075D02*
X709475Y114075D01*
X709475Y108325D01*
X708725Y108325D01*
X708725Y110462D02*
X709475Y110462D01*
X709475Y112599D02*
X708725Y112599D01*
X704475Y103325D02*
X698725Y103325D01*
X698725Y104075D01*
X704475Y104075D01*
X704475Y103325D01*
X704475Y98325D02*
X698725Y98325D01*
X698725Y99075D01*
X704475Y99075D01*
X704475Y98325D01*
X704475Y93325D02*
X698725Y93325D01*
X698725Y94075D01*
X704475Y94075D01*
X704475Y93325D01*
X704475Y88325D02*
X698725Y88325D01*
X698725Y89075D01*
X704475Y89075D01*
X704475Y88325D01*
X704475Y83325D02*
X698725Y83325D01*
X698725Y84075D01*
X704475Y84075D01*
X704475Y83325D01*
X704475Y78325D02*
X698725Y78325D01*
X698725Y79075D01*
X704475Y79075D01*
X704475Y78325D01*
X704475Y73325D02*
X698725Y73325D01*
X698725Y74075D01*
X704475Y74075D01*
X704475Y73325D01*
X704475Y68325D02*
X698725Y68325D01*
X698725Y69075D01*
X704475Y69075D01*
X704475Y68325D01*
X704475Y63325D02*
X698725Y63325D01*
X698725Y64075D01*
X704475Y64075D01*
X704475Y63325D01*
X704475Y58325D02*
X698725Y58325D01*
X698725Y59075D01*
X704475Y59075D01*
X704475Y58325D01*
X704475Y53325D02*
X698725Y53325D01*
X698725Y54075D01*
X704475Y54075D01*
X704475Y53325D01*
X704475Y48325D02*
X698725Y48325D01*
X698725Y49075D01*
X704475Y49075D01*
X704475Y48325D01*
X397965Y62275D02*
X397965Y65825D01*
X397965Y62275D02*
X397215Y62275D01*
X397215Y65825D01*
X397965Y65825D01*
X397965Y64412D02*
X397215Y64412D01*
X402965Y65825D02*
X402965Y62275D01*
X402215Y62275D01*
X402215Y65825D01*
X402965Y65825D01*
X402965Y64412D02*
X402215Y64412D01*
X407965Y65825D02*
X407965Y62275D01*
X407215Y62275D01*
X407215Y65825D01*
X407965Y65825D01*
X407965Y64412D02*
X407215Y64412D01*
X412965Y69075D02*
X416515Y69075D01*
X416515Y68325D01*
X412965Y68325D01*
X412965Y69075D01*
X412965Y74075D02*
X416515Y74075D01*
X416515Y73325D01*
X412965Y73325D01*
X412965Y74075D01*
X412965Y79075D02*
X416515Y79075D01*
X416515Y78325D01*
X412965Y78325D01*
X412965Y79075D01*
X412965Y84075D02*
X416515Y84075D01*
X416515Y83325D01*
X412965Y83325D01*
X412965Y84075D01*
X407215Y86575D02*
X407215Y90125D01*
X407965Y90125D01*
X407965Y86575D01*
X407215Y86575D01*
X407215Y88712D02*
X407965Y88712D01*
X402215Y90125D02*
X402215Y86575D01*
X402215Y90125D02*
X402965Y90125D01*
X402965Y86575D01*
X402215Y86575D01*
X402215Y88712D02*
X402965Y88712D01*
X397215Y90125D02*
X397215Y86575D01*
X397215Y90125D02*
X397965Y90125D01*
X397965Y86575D01*
X397215Y86575D01*
X397215Y88712D02*
X397965Y88712D01*
X392215Y83325D02*
X388665Y83325D01*
X388665Y84075D01*
X392215Y84075D01*
X392215Y83325D01*
X392215Y78325D02*
X388665Y78325D01*
X388665Y79075D01*
X392215Y79075D01*
X392215Y78325D01*
X392215Y73325D02*
X388665Y73325D01*
X388665Y74075D01*
X392215Y74075D01*
X392215Y73325D01*
X392215Y68325D02*
X388665Y68325D01*
X388665Y69075D01*
X392215Y69075D01*
X392215Y68325D01*
D14*
X408390Y70400D02*
X408390Y82000D01*
X408390Y70400D02*
X396790Y70400D01*
X396790Y82000D01*
X408390Y82000D01*
X408390Y73155D02*
X396790Y73155D01*
X396790Y75910D02*
X408390Y75910D01*
X408390Y78665D02*
X396790Y78665D01*
X396790Y81420D02*
X408390Y81420D01*
D15*
X73804Y69176D02*
X73804Y68224D01*
X73804Y69176D02*
X81956Y69176D01*
X81956Y68224D01*
X73804Y68224D01*
X73804Y73224D02*
X73804Y74176D01*
X81956Y74176D01*
X81956Y73224D01*
X73804Y73224D01*
D16*
X74728Y44902D02*
X74728Y42998D01*
X74728Y44902D02*
X81032Y44902D01*
X81032Y42998D01*
X74728Y42998D01*
X74728Y50748D02*
X74728Y52652D01*
X81032Y52652D01*
X81032Y50748D01*
X74728Y50748D01*
D15*
X73804Y58224D02*
X73804Y59176D01*
X81956Y59176D01*
X81956Y58224D01*
X73804Y58224D01*
X73804Y63224D02*
X73804Y64176D01*
X81956Y64176D01*
X81956Y63224D01*
X73804Y63224D01*
X81956Y83224D02*
X81956Y84176D01*
X81956Y83224D02*
X73804Y83224D01*
X73804Y84176D01*
X81956Y84176D01*
X81956Y79176D02*
X81956Y78224D01*
X73804Y78224D01*
X73804Y79176D01*
X81956Y79176D01*
D16*
X81032Y107498D02*
X81032Y109402D01*
X81032Y107498D02*
X74728Y107498D01*
X74728Y109402D01*
X81032Y109402D01*
X81032Y101652D02*
X81032Y99748D01*
X74728Y99748D01*
X74728Y101652D01*
X81032Y101652D01*
D15*
X81956Y94176D02*
X81956Y93224D01*
X73804Y93224D01*
X73804Y94176D01*
X81956Y94176D01*
X81956Y89176D02*
X81956Y88224D01*
X73804Y88224D01*
X73804Y89176D01*
X81956Y89176D01*
D17*
X77630Y119400D02*
X66630Y119400D01*
X66630Y33000D02*
X77630Y33000D01*
X33330Y119400D02*
X27330Y119400D01*
X27330Y33000D02*
X33330Y33000D01*
D10*
X444976Y101124D02*
X451644Y101124D01*
X451644Y94456D01*
X444976Y94456D01*
X444976Y101124D01*
X444976Y96568D02*
X451644Y96568D01*
X451644Y98680D02*
X444976Y98680D01*
X444976Y100792D02*
X451644Y100792D01*
X436404Y101124D02*
X429736Y101124D01*
X436404Y101124D02*
X436404Y94456D01*
X429736Y94456D01*
X429736Y101124D01*
X429736Y96568D02*
X436404Y96568D01*
X436404Y98680D02*
X429736Y98680D01*
X429736Y100792D02*
X436404Y100792D01*
X444976Y88424D02*
X451644Y88424D01*
X451644Y81756D01*
X444976Y81756D01*
X444976Y88424D01*
X444976Y83868D02*
X451644Y83868D01*
X451644Y85980D02*
X444976Y85980D01*
X444976Y88092D02*
X451644Y88092D01*
X436404Y88424D02*
X429736Y88424D01*
X436404Y88424D02*
X436404Y81756D01*
X429736Y81756D01*
X429736Y88424D01*
X429736Y83868D02*
X436404Y83868D01*
X436404Y85980D02*
X429736Y85980D01*
X429736Y88092D02*
X436404Y88092D01*
X444976Y75724D02*
X451644Y75724D01*
X451644Y69056D01*
X444976Y69056D01*
X444976Y75724D01*
X444976Y71168D02*
X451644Y71168D01*
X451644Y73280D02*
X444976Y73280D01*
X444976Y75392D02*
X451644Y75392D01*
X436404Y75724D02*
X429736Y75724D01*
X436404Y75724D02*
X436404Y69056D01*
X429736Y69056D01*
X429736Y75724D01*
X429736Y71168D02*
X436404Y71168D01*
X436404Y73280D02*
X429736Y73280D01*
X429736Y75392D02*
X436404Y75392D01*
X428466Y57944D02*
X428466Y51276D01*
X428466Y57944D02*
X435134Y57944D01*
X435134Y51276D01*
X428466Y51276D01*
X428466Y53388D02*
X435134Y53388D01*
X435134Y55500D02*
X428466Y55500D01*
X428466Y57612D02*
X435134Y57612D01*
X428466Y42704D02*
X428466Y36036D01*
X428466Y42704D02*
X435134Y42704D01*
X435134Y36036D01*
X428466Y36036D01*
X428466Y38148D02*
X435134Y38148D01*
X435134Y40260D02*
X428466Y40260D01*
X428466Y42372D02*
X435134Y42372D01*
X446246Y51276D02*
X446246Y57944D01*
X452914Y57944D01*
X452914Y51276D01*
X446246Y51276D01*
X446246Y53388D02*
X452914Y53388D01*
X452914Y55500D02*
X446246Y55500D01*
X446246Y57612D02*
X452914Y57612D01*
X446246Y42704D02*
X446246Y36036D01*
X446246Y42704D02*
X452914Y42704D01*
X452914Y36036D01*
X446246Y36036D01*
X446246Y38148D02*
X452914Y38148D01*
X452914Y40260D02*
X446246Y40260D01*
X446246Y42372D02*
X452914Y42372D01*
X368776Y65246D02*
X368776Y71914D01*
X375444Y71914D01*
X375444Y65246D01*
X368776Y65246D01*
X368776Y67358D02*
X375444Y67358D01*
X375444Y69470D02*
X368776Y69470D01*
X368776Y71582D02*
X375444Y71582D01*
X368776Y56674D02*
X368776Y50006D01*
X368776Y56674D02*
X375444Y56674D01*
X375444Y50006D01*
X368776Y50006D01*
X368776Y52118D02*
X375444Y52118D01*
X375444Y54230D02*
X368776Y54230D01*
X368776Y56342D02*
X375444Y56342D01*
X375444Y77946D02*
X375444Y84614D01*
X375444Y77946D02*
X368776Y77946D01*
X368776Y84614D01*
X375444Y84614D01*
X375444Y80058D02*
X368776Y80058D01*
X368776Y82170D02*
X375444Y82170D01*
X375444Y84282D02*
X368776Y84282D01*
X375444Y93186D02*
X375444Y99854D01*
X375444Y93186D02*
X368776Y93186D01*
X368776Y99854D01*
X375444Y99854D01*
X375444Y95298D02*
X368776Y95298D01*
X368776Y97410D02*
X375444Y97410D01*
X375444Y99522D02*
X368776Y99522D01*
X610076Y61754D02*
X616744Y61754D01*
X616744Y55086D01*
X610076Y55086D01*
X610076Y61754D01*
X610076Y57198D02*
X616744Y57198D01*
X616744Y59310D02*
X610076Y59310D01*
X610076Y61422D02*
X616744Y61422D01*
X601504Y61754D02*
X594836Y61754D01*
X601504Y61754D02*
X601504Y55086D01*
X594836Y55086D01*
X594836Y61754D01*
X594836Y57198D02*
X601504Y57198D01*
X601504Y59310D02*
X594836Y59310D01*
X594836Y61422D02*
X601504Y61422D01*
X503396Y89376D02*
X503396Y96044D01*
X510064Y96044D01*
X510064Y89376D01*
X503396Y89376D01*
X503396Y91488D02*
X510064Y91488D01*
X510064Y93600D02*
X503396Y93600D01*
X503396Y95712D02*
X510064Y95712D01*
X503396Y80804D02*
X503396Y74136D01*
X503396Y80804D02*
X510064Y80804D01*
X510064Y74136D01*
X503396Y74136D01*
X503396Y76248D02*
X510064Y76248D01*
X510064Y78360D02*
X503396Y78360D01*
X503396Y80472D02*
X510064Y80472D01*
X576104Y80804D02*
X576104Y74136D01*
X569436Y74136D01*
X569436Y80804D01*
X576104Y80804D01*
X576104Y76248D02*
X569436Y76248D01*
X569436Y78360D02*
X576104Y78360D01*
X576104Y80472D02*
X569436Y80472D01*
X576104Y89376D02*
X576104Y96044D01*
X576104Y89376D02*
X569436Y89376D01*
X569436Y96044D01*
X576104Y96044D01*
X576104Y91488D02*
X569436Y91488D01*
X569436Y93600D02*
X576104Y93600D01*
X576104Y95712D02*
X569436Y95712D01*
X591344Y80804D02*
X591344Y74136D01*
X584676Y74136D01*
X584676Y80804D01*
X591344Y80804D01*
X591344Y76248D02*
X584676Y76248D01*
X584676Y78360D02*
X591344Y78360D01*
X591344Y80472D02*
X584676Y80472D01*
X591344Y89376D02*
X591344Y96044D01*
X591344Y89376D02*
X584676Y89376D01*
X584676Y96044D01*
X591344Y96044D01*
X591344Y91488D02*
X584676Y91488D01*
X584676Y93600D02*
X591344Y93600D01*
X591344Y95712D02*
X584676Y95712D01*
D18*
X516214Y95525D02*
X516214Y93655D01*
X516214Y95525D02*
X524584Y95525D01*
X524584Y93655D01*
X516214Y93655D01*
X516214Y86025D02*
X516214Y84155D01*
X516214Y86025D02*
X524584Y86025D01*
X524584Y84155D01*
X516214Y84155D01*
X516214Y76525D02*
X516214Y74655D01*
X516214Y76525D02*
X524584Y76525D01*
X524584Y74655D01*
X516214Y74655D01*
X542216Y74655D02*
X542216Y76525D01*
X550586Y76525D01*
X550586Y74655D01*
X542216Y74655D01*
X542216Y93655D02*
X542216Y95525D01*
X550586Y95525D01*
X550586Y93655D01*
X542216Y93655D01*
X550586Y86025D02*
X550586Y84155D01*
X542216Y84155D01*
X542216Y86025D01*
X550586Y86025D01*
D19*
X474345Y88900D02*
X474345Y96520D01*
X485775Y96520D01*
X485775Y88900D01*
X474345Y88900D01*
X474345Y91313D02*
X485775Y91313D01*
X485775Y93726D02*
X474345Y93726D01*
X474345Y96139D02*
X485775Y96139D01*
X474345Y78740D02*
X474345Y71120D01*
X474345Y78740D02*
X485775Y78740D01*
X485775Y71120D01*
X474345Y71120D01*
X474345Y73533D02*
X485775Y73533D01*
X485775Y75946D02*
X474345Y75946D01*
X474345Y78359D02*
X485775Y78359D01*
D10*
X163354Y69056D02*
X156686Y69056D01*
X156686Y75724D01*
X163354Y75724D01*
X163354Y69056D01*
X163354Y71168D02*
X156686Y71168D01*
X156686Y73280D02*
X163354Y73280D01*
X163354Y75392D02*
X156686Y75392D01*
X171926Y69056D02*
X178594Y69056D01*
X171926Y69056D02*
X171926Y75724D01*
X178594Y75724D01*
X178594Y69056D01*
X178594Y71168D02*
X171926Y71168D01*
X171926Y73280D02*
X178594Y73280D01*
X178594Y75392D02*
X171926Y75392D01*
X163354Y107156D02*
X156686Y107156D01*
X156686Y113824D01*
X163354Y113824D01*
X163354Y107156D01*
X163354Y109268D02*
X156686Y109268D01*
X156686Y111380D02*
X163354Y111380D01*
X163354Y113492D02*
X156686Y113492D01*
X171926Y107156D02*
X178594Y107156D01*
X171926Y107156D02*
X171926Y113824D01*
X178594Y113824D01*
X178594Y107156D01*
X178594Y109268D02*
X171926Y109268D01*
X171926Y111380D02*
X178594Y111380D01*
X178594Y113492D02*
X171926Y113492D01*
X460216Y57944D02*
X460216Y51276D01*
X460216Y57944D02*
X466884Y57944D01*
X466884Y51276D01*
X460216Y51276D01*
X460216Y53388D02*
X466884Y53388D01*
X466884Y55500D02*
X460216Y55500D01*
X460216Y57612D02*
X466884Y57612D01*
X460216Y42704D02*
X460216Y36036D01*
X460216Y42704D02*
X466884Y42704D01*
X466884Y36036D01*
X460216Y36036D01*
X460216Y38148D02*
X466884Y38148D01*
X466884Y40260D02*
X460216Y40260D01*
X460216Y42372D02*
X466884Y42372D01*
D20*
X512190Y63960D02*
X519190Y63960D01*
X519190Y57960D01*
X512190Y57960D01*
X512190Y63960D01*
X512190Y59860D02*
X519190Y59860D01*
X519190Y61760D02*
X512190Y61760D01*
X512190Y63660D02*
X519190Y63660D01*
X496190Y63960D02*
X489190Y63960D01*
X496190Y63960D02*
X496190Y57960D01*
X489190Y57960D01*
X489190Y63960D01*
X489190Y59860D02*
X496190Y59860D01*
X496190Y61760D02*
X489190Y61760D01*
X489190Y63660D02*
X496190Y63660D01*
D19*
X509270Y43815D02*
X516890Y43815D01*
X516890Y32385D01*
X509270Y32385D01*
X509270Y43815D01*
X509270Y34798D02*
X516890Y34798D01*
X516890Y37211D02*
X509270Y37211D01*
X509270Y39624D02*
X516890Y39624D01*
X516890Y42037D02*
X509270Y42037D01*
X499110Y43815D02*
X491490Y43815D01*
X499110Y43815D02*
X499110Y32385D01*
X491490Y32385D01*
X491490Y43815D01*
X491490Y34798D02*
X499110Y34798D01*
X499110Y37211D02*
X491490Y37211D01*
X491490Y39624D02*
X499110Y39624D01*
X499110Y42037D02*
X491490Y42037D01*
D10*
X556736Y69056D02*
X556736Y75724D01*
X563404Y75724D01*
X563404Y69056D01*
X556736Y69056D01*
X556736Y71168D02*
X563404Y71168D01*
X563404Y73280D02*
X556736Y73280D01*
X556736Y75392D02*
X563404Y75392D01*
X556736Y60484D02*
X556736Y53816D01*
X556736Y60484D02*
X563404Y60484D01*
X563404Y53816D01*
X556736Y53816D01*
X556736Y55928D02*
X563404Y55928D01*
X563404Y58040D02*
X556736Y58040D01*
X556736Y60152D02*
X563404Y60152D01*
D21*
X525135Y39335D02*
X525135Y32685D01*
X525135Y39335D02*
X549285Y39335D01*
X549285Y32685D01*
X525135Y32685D01*
X525135Y35392D02*
X549285Y35392D01*
X549285Y38099D02*
X525135Y38099D01*
X549285Y57185D02*
X549285Y63835D01*
X549285Y57185D02*
X525135Y57185D01*
X525135Y63835D01*
X549285Y63835D01*
X549285Y59892D02*
X525135Y59892D01*
X525135Y62599D02*
X549285Y62599D01*
D22*
X123910Y42080D02*
X123910Y31580D01*
X113410Y31580D01*
X113410Y42080D01*
X123910Y42080D01*
X123910Y34905D02*
X113410Y34905D01*
X113410Y38230D02*
X123910Y38230D01*
X123910Y41555D02*
X113410Y41555D01*
X160910Y42080D02*
X160910Y31580D01*
X150410Y31580D01*
X150410Y42080D01*
X160910Y42080D01*
X160910Y34905D02*
X150410Y34905D01*
X150410Y38230D02*
X160910Y38230D01*
X160910Y41555D02*
X150410Y41555D01*
X123910Y48090D02*
X123910Y58590D01*
X123910Y48090D02*
X113410Y48090D01*
X113410Y58590D01*
X123910Y58590D01*
X123910Y51415D02*
X113410Y51415D01*
X113410Y54740D02*
X123910Y54740D01*
X123910Y58065D02*
X113410Y58065D01*
X160910Y58590D02*
X160910Y48090D01*
X150410Y48090D01*
X150410Y58590D01*
X160910Y58590D01*
X160910Y51415D02*
X150410Y51415D01*
X150410Y54740D02*
X160910Y54740D01*
X160910Y58065D02*
X150410Y58065D01*
D23*
X126830Y65330D02*
X126830Y71830D01*
X126830Y65330D02*
X122330Y65330D01*
X122330Y71830D01*
X126830Y71830D01*
X126830Y66755D02*
X122330Y66755D01*
X122330Y68180D02*
X126830Y68180D01*
X126830Y69605D02*
X122330Y69605D01*
X122330Y71030D02*
X126830Y71030D01*
X141830Y71830D02*
X141830Y65330D01*
X137330Y65330D01*
X137330Y71830D01*
X141830Y71830D01*
X141830Y66755D02*
X137330Y66755D01*
X137330Y68180D02*
X141830Y68180D01*
X141830Y69605D02*
X137330Y69605D01*
X137330Y71030D02*
X141830Y71030D01*
X137330Y113590D02*
X137330Y120090D01*
X141830Y120090D01*
X141830Y113590D01*
X137330Y113590D01*
X137330Y115015D02*
X141830Y115015D01*
X141830Y116440D02*
X137330Y116440D01*
X137330Y117865D02*
X141830Y117865D01*
X141830Y119290D02*
X137330Y119290D01*
X122330Y120090D02*
X122330Y113590D01*
X122330Y120090D02*
X126830Y120090D01*
X126830Y113590D01*
X122330Y113590D01*
X122330Y115015D02*
X126830Y115015D01*
X126830Y116440D02*
X122330Y116440D01*
X122330Y117865D02*
X126830Y117865D01*
X126830Y119290D02*
X122330Y119290D01*
D20*
X475790Y63260D02*
X475790Y56260D01*
X475790Y63260D02*
X481790Y63260D01*
X481790Y56260D01*
X475790Y56260D01*
X475790Y58160D02*
X481790Y58160D01*
X481790Y60060D02*
X475790Y60060D01*
X475790Y61960D02*
X481790Y61960D01*
X475790Y40260D02*
X475790Y33260D01*
X475790Y40260D02*
X481790Y40260D01*
X481790Y33260D01*
X475790Y33260D01*
X475790Y35160D02*
X481790Y35160D01*
X481790Y37060D02*
X475790Y37060D01*
X475790Y38960D02*
X481790Y38960D01*
D10*
X587154Y38894D02*
X587154Y32226D01*
X580486Y32226D01*
X580486Y38894D01*
X587154Y38894D01*
X587154Y34338D02*
X580486Y34338D01*
X580486Y36450D02*
X587154Y36450D01*
X587154Y38562D02*
X580486Y38562D01*
X603154Y38894D02*
X603154Y32226D01*
X596486Y32226D01*
X596486Y38894D01*
X603154Y38894D01*
X603154Y34338D02*
X596486Y34338D01*
X596486Y36450D02*
X603154Y36450D01*
X603154Y38562D02*
X596486Y38562D01*
D18*
X149266Y81005D02*
X149266Y82875D01*
X149266Y81005D02*
X140896Y81005D01*
X140896Y82875D01*
X149266Y82875D01*
X149266Y90505D02*
X149266Y92375D01*
X149266Y90505D02*
X140896Y90505D01*
X140896Y92375D01*
X149266Y92375D01*
X149266Y100005D02*
X149266Y101875D01*
X149266Y100005D02*
X140896Y100005D01*
X140896Y101875D01*
X149266Y101875D01*
X123264Y101875D02*
X123264Y100005D01*
X114894Y100005D01*
X114894Y101875D01*
X123264Y101875D01*
X123264Y82875D02*
X123264Y81005D01*
X114894Y81005D01*
X114894Y82875D01*
X123264Y82875D01*
X114894Y90505D02*
X114894Y92375D01*
X123264Y92375D01*
X123264Y90505D01*
X114894Y90505D01*
D15*
X631746Y64776D02*
X631746Y59624D01*
X630794Y59624D01*
X630794Y64776D01*
X631746Y64776D01*
X631746Y61380D02*
X630794Y61380D01*
X630794Y63136D02*
X631746Y63136D01*
X626746Y64776D02*
X626746Y59624D01*
X625794Y59624D01*
X625794Y64776D01*
X626746Y64776D01*
X626746Y61380D02*
X625794Y61380D01*
X625794Y63136D02*
X626746Y63136D01*
X636746Y64776D02*
X636746Y59624D01*
X635794Y59624D01*
X635794Y64776D01*
X636746Y64776D01*
X636746Y61380D02*
X635794Y61380D01*
X635794Y63136D02*
X636746Y63136D01*
X641746Y64776D02*
X641746Y59624D01*
X640794Y59624D01*
X640794Y64776D01*
X641746Y64776D01*
X641746Y61380D02*
X640794Y61380D01*
X640794Y63136D02*
X641746Y63136D01*
X646746Y64776D02*
X646746Y59624D01*
X645794Y59624D01*
X645794Y64776D01*
X646746Y64776D01*
X646746Y61380D02*
X645794Y61380D01*
X645794Y63136D02*
X646746Y63136D01*
X640794Y87624D02*
X640794Y92776D01*
X641746Y92776D01*
X641746Y87624D01*
X640794Y87624D01*
X640794Y89380D02*
X641746Y89380D01*
X641746Y91136D02*
X640794Y91136D01*
X646746Y92776D02*
X646746Y87624D01*
X645794Y87624D01*
X645794Y92776D01*
X646746Y92776D01*
X646746Y89380D02*
X645794Y89380D01*
X645794Y91136D02*
X646746Y91136D01*
X635794Y92776D02*
X635794Y87624D01*
X635794Y92776D02*
X636746Y92776D01*
X636746Y87624D01*
X635794Y87624D01*
X635794Y89380D02*
X636746Y89380D01*
X636746Y91136D02*
X635794Y91136D01*
X630794Y92776D02*
X630794Y87624D01*
X630794Y92776D02*
X631746Y92776D01*
X631746Y87624D01*
X630794Y87624D01*
X630794Y89380D02*
X631746Y89380D01*
X631746Y91136D02*
X630794Y91136D01*
X626746Y92776D02*
X626746Y87624D01*
X625794Y87624D01*
X625794Y92776D01*
X626746Y92776D01*
X626746Y89380D02*
X625794Y89380D01*
X625794Y91136D02*
X626746Y91136D01*
X647694Y71676D02*
X652846Y71676D01*
X652846Y70724D01*
X647694Y70724D01*
X647694Y71676D01*
X647694Y76676D02*
X652846Y76676D01*
X652846Y75724D01*
X647694Y75724D01*
X647694Y76676D01*
X647694Y81676D02*
X652846Y81676D01*
X652846Y80724D01*
X647694Y80724D01*
X647694Y81676D01*
X624846Y80724D02*
X619694Y80724D01*
X619694Y81676D01*
X624846Y81676D01*
X624846Y80724D01*
X624846Y75724D02*
X619694Y75724D01*
X619694Y76676D01*
X624846Y76676D01*
X624846Y75724D01*
X624846Y70724D02*
X619694Y70724D01*
X619694Y71676D01*
X624846Y71676D01*
X624846Y70724D01*
D10*
X597376Y84296D02*
X597376Y90964D01*
X604044Y90964D01*
X604044Y84296D01*
X597376Y84296D01*
X597376Y86408D02*
X604044Y86408D01*
X604044Y88520D02*
X597376Y88520D01*
X597376Y90632D02*
X604044Y90632D01*
X597376Y75724D02*
X597376Y69056D01*
X597376Y75724D02*
X604044Y75724D01*
X604044Y69056D01*
X597376Y69056D01*
X597376Y71168D02*
X604044Y71168D01*
X604044Y73280D02*
X597376Y73280D01*
X597376Y75392D02*
X604044Y75392D01*
D20*
X264034Y96060D02*
X257034Y96060D01*
X257034Y102060D01*
X264034Y102060D01*
X264034Y96060D01*
X264034Y97960D02*
X257034Y97960D01*
X257034Y99860D02*
X264034Y99860D01*
X264034Y101760D02*
X257034Y101760D01*
X280034Y96060D02*
X287034Y96060D01*
X280034Y96060D02*
X280034Y102060D01*
X287034Y102060D01*
X287034Y96060D01*
X287034Y97960D02*
X280034Y97960D01*
X280034Y99860D02*
X287034Y99860D01*
X287034Y101760D02*
X280034Y101760D01*
D24*
X210469Y90521D02*
X198471Y90521D01*
X198471Y102519D01*
X210469Y102519D01*
X210469Y90521D01*
X210469Y94320D02*
X198471Y94320D01*
X198471Y98119D02*
X210469Y98119D01*
X210469Y101918D02*
X198471Y101918D01*
X238857Y90521D02*
X250855Y90521D01*
X238857Y90521D02*
X238857Y102519D01*
X250855Y102519D01*
X250855Y90521D01*
X250855Y94320D02*
X238857Y94320D01*
X238857Y98119D02*
X250855Y98119D01*
X250855Y101918D02*
X238857Y101918D01*
X210469Y49881D02*
X198471Y49881D01*
X198471Y61879D01*
X210469Y61879D01*
X210469Y49881D01*
X210469Y53680D02*
X198471Y53680D01*
X198471Y57479D02*
X210469Y57479D01*
X210469Y61278D02*
X198471Y61278D01*
X238857Y49881D02*
X250855Y49881D01*
X238857Y49881D02*
X238857Y61879D01*
X250855Y61879D01*
X250855Y49881D01*
X250855Y53680D02*
X238857Y53680D01*
X238857Y57479D02*
X250855Y57479D01*
X250855Y61278D02*
X238857Y61278D01*
X293213Y90521D02*
X305211Y90521D01*
X293213Y90521D02*
X293213Y102519D01*
X305211Y102519D01*
X305211Y90521D01*
X305211Y94320D02*
X293213Y94320D01*
X293213Y98119D02*
X305211Y98119D01*
X305211Y101918D02*
X293213Y101918D01*
X293213Y49881D02*
X305211Y49881D01*
X293213Y49881D02*
X293213Y61879D01*
X305211Y61879D01*
X305211Y49881D01*
X305211Y53680D02*
X293213Y53680D01*
X293213Y57479D02*
X305211Y57479D01*
X305211Y61278D02*
X293213Y61278D01*
X333853Y90521D02*
X345851Y90521D01*
X333853Y90521D02*
X333853Y102519D01*
X345851Y102519D01*
X345851Y90521D01*
X345851Y94320D02*
X333853Y94320D01*
X333853Y98119D02*
X345851Y98119D01*
X345851Y101918D02*
X333853Y101918D01*
X333853Y49881D02*
X345851Y49881D01*
X333853Y49881D02*
X333853Y61879D01*
X345851Y61879D01*
X345851Y49881D01*
X345851Y53680D02*
X333853Y53680D01*
X333853Y57479D02*
X345851Y57479D01*
X345851Y61278D02*
X333853Y61278D01*
X886811Y49881D02*
X898809Y49881D01*
X886811Y49881D02*
X886811Y61879D01*
X898809Y61879D01*
X898809Y49881D01*
X898809Y53680D02*
X886811Y53680D01*
X886811Y57479D02*
X898809Y57479D01*
X898809Y61278D02*
X886811Y61278D01*
X858169Y90521D02*
X846171Y90521D01*
X846171Y102519D01*
X858169Y102519D01*
X858169Y90521D01*
X858169Y94320D02*
X846171Y94320D01*
X846171Y98119D02*
X858169Y98119D01*
X858169Y101918D02*
X846171Y101918D01*
X846171Y49881D02*
X858169Y49881D01*
X846171Y49881D02*
X846171Y61879D01*
X858169Y61879D01*
X858169Y49881D01*
X858169Y53680D02*
X846171Y53680D01*
X846171Y57479D02*
X858169Y57479D01*
X858169Y61278D02*
X846171Y61278D01*
X886811Y90521D02*
X898809Y90521D01*
X886811Y90521D02*
X886811Y102519D01*
X898809Y102519D01*
X898809Y90521D01*
X898809Y94320D02*
X886811Y94320D01*
X886811Y98119D02*
X898809Y98119D01*
X898809Y101918D02*
X886811Y101918D01*
D10*
X414876Y42704D02*
X414876Y36036D01*
X414876Y42704D02*
X421544Y42704D01*
X421544Y36036D01*
X414876Y36036D01*
X414876Y38148D02*
X421544Y38148D01*
X421544Y40260D02*
X414876Y40260D01*
X414876Y42372D02*
X421544Y42372D01*
X398876Y42704D02*
X398876Y36036D01*
X398876Y42704D02*
X405544Y42704D01*
X405544Y36036D01*
X398876Y36036D01*
X398876Y38148D02*
X405544Y38148D01*
X405544Y40260D02*
X398876Y40260D01*
X398876Y42372D02*
X405544Y42372D01*
X659606Y59850D02*
X666274Y59850D01*
X666274Y53182D01*
X659606Y53182D01*
X659606Y59850D01*
X659606Y55294D02*
X666274Y55294D01*
X666274Y57406D02*
X659606Y57406D01*
X659606Y59518D02*
X666274Y59518D01*
X666274Y75850D02*
X659606Y75850D01*
X666274Y75850D02*
X666274Y69182D01*
X659606Y69182D01*
X659606Y75850D01*
X659606Y71294D02*
X666274Y71294D01*
X666274Y73406D02*
X659606Y73406D01*
X659606Y75518D02*
X666274Y75518D01*
X389414Y47846D02*
X382746Y47846D01*
X382746Y54514D01*
X389414Y54514D01*
X389414Y47846D01*
X389414Y49958D02*
X382746Y49958D01*
X382746Y52070D02*
X389414Y52070D01*
X389414Y54182D02*
X382746Y54182D01*
X382746Y31846D02*
X389414Y31846D01*
X382746Y31846D02*
X382746Y38514D01*
X389414Y38514D01*
X389414Y31846D01*
X389414Y33958D02*
X382746Y33958D01*
X382746Y36070D02*
X389414Y36070D01*
X389414Y38182D02*
X382746Y38182D01*
X623030Y34512D02*
X629698Y34512D01*
X623030Y34512D02*
X623030Y41180D01*
X629698Y41180D01*
X629698Y34512D01*
X629698Y36624D02*
X623030Y36624D01*
X623030Y38736D02*
X629698Y38736D01*
X629698Y40848D02*
X623030Y40848D01*
X638270Y34512D02*
X644938Y34512D01*
X638270Y34512D02*
X638270Y41180D01*
X644938Y41180D01*
X644938Y34512D01*
X644938Y36624D02*
X638270Y36624D01*
X638270Y38736D02*
X644938Y38736D01*
X644938Y40848D02*
X638270Y40848D01*
D25*
X199140Y76200D03*
X249940Y76200D03*
X294140Y76200D03*
X344940Y76200D03*
X847090Y76200D03*
X897890Y76200D03*
D10*
X689134Y122714D02*
X682466Y122714D01*
X689134Y122714D02*
X689134Y116046D01*
X682466Y116046D01*
X682466Y122714D01*
X682466Y118158D02*
X689134Y118158D01*
X689134Y120270D02*
X682466Y120270D01*
X682466Y122382D02*
X689134Y122382D01*
X673894Y122714D02*
X667226Y122714D01*
X673894Y122714D02*
X673894Y116046D01*
X667226Y116046D01*
X667226Y122714D01*
X667226Y118158D02*
X673894Y118158D01*
X673894Y120270D02*
X667226Y120270D01*
X667226Y122382D02*
X673894Y122382D01*
X586264Y52864D02*
X586264Y46196D01*
X579596Y46196D01*
X579596Y52864D01*
X586264Y52864D01*
X586264Y48308D02*
X579596Y48308D01*
X579596Y50420D02*
X586264Y50420D01*
X586264Y52532D02*
X579596Y52532D01*
X586264Y61436D02*
X586264Y68104D01*
X586264Y61436D02*
X579596Y61436D01*
X579596Y68104D01*
X586264Y68104D01*
X586264Y63548D02*
X579596Y63548D01*
X579596Y65660D02*
X586264Y65660D01*
X586264Y67772D02*
X579596Y67772D01*
X267748Y50006D02*
X261080Y50006D01*
X261080Y56674D01*
X267748Y56674D01*
X267748Y50006D01*
X267748Y52118D02*
X261080Y52118D01*
X261080Y54230D02*
X267748Y54230D01*
X267748Y56342D02*
X261080Y56342D01*
X276320Y50006D02*
X282988Y50006D01*
X276320Y50006D02*
X276320Y56674D01*
X282988Y56674D01*
X282988Y50006D01*
X282988Y52118D02*
X276320Y52118D01*
X276320Y54230D02*
X282988Y54230D01*
X282988Y56342D02*
X276320Y56342D01*
D26*
X844550Y116840D03*
D27*
X781010Y78700D02*
X771600Y78700D01*
X781010Y78700D02*
X781050Y78740D01*
D28*
X781050Y78740D03*
D19*
X124580Y116840D02*
X118664Y116840D01*
X104186Y102362D01*
X85332Y108450D02*
X77880Y108450D01*
X85332Y108450D02*
X91420Y102362D01*
X104186Y102362D01*
X402590Y93980D02*
X402590Y88350D01*
X402590Y93980D02*
X397510Y99060D01*
D27*
X714100Y111200D02*
X714100Y114394D01*
D19*
X704850Y119380D02*
X701040Y115570D01*
D28*
X701040Y115570D03*
X406400Y72390D03*
X406400Y80010D03*
X398780Y80010D03*
X398780Y72390D03*
D19*
X402590Y76200D02*
X402590Y88350D01*
D28*
X760730Y52070D03*
X760730Y100330D03*
X712470Y100330D03*
X712470Y52070D03*
X712470Y76200D03*
X760730Y76200D03*
X736600Y52070D03*
X736600Y76200D03*
D19*
X759100Y41200D02*
X759100Y35920D01*
D28*
X781050Y60960D03*
X829310Y53340D03*
X830580Y76200D03*
X830580Y99060D03*
D19*
X806450Y116840D02*
X804545Y114935D01*
X821690Y89080D02*
X823070Y87700D01*
X805070Y64700D02*
X806450Y63320D01*
X788670Y38100D02*
X791210Y35560D01*
X774700Y38100D02*
X769620Y33020D01*
X762000Y33020D01*
X759100Y35920D01*
X774700Y38100D02*
X788670Y38100D01*
D28*
X631190Y74676D03*
D19*
X641270Y67390D02*
X641270Y62200D01*
X626270Y86200D02*
X626270Y90200D01*
X701600Y53700D02*
X710840Y53700D01*
X712470Y52070D01*
X714100Y101960D02*
X714100Y111200D01*
X714100Y101960D02*
X712470Y100330D01*
X760730Y83700D02*
X760730Y76200D01*
X759100Y50440D02*
X759100Y41200D01*
X759100Y50440D02*
X760730Y52070D01*
X631270Y62200D02*
X631190Y62200D01*
D29*
X155660Y53340D02*
X154820Y53340D01*
X155660Y53340D02*
X155660Y36830D01*
D19*
X631270Y62200D02*
X631270Y69850D01*
X631270Y74596D01*
X631190Y74676D02*
X631214Y74700D01*
X631190Y74676D02*
X631270Y74596D01*
X631214Y74700D02*
X631214Y81256D01*
X626270Y86200D01*
D28*
X397510Y99060D03*
D19*
X714100Y114394D02*
X714100Y115800D01*
X710520Y119380D02*
X704850Y119380D01*
X710520Y119380D02*
X714100Y115800D01*
D30*
X563880Y85090D02*
X546401Y85090D01*
X563880Y85090D02*
X568960Y80010D01*
D29*
X568960Y50800D01*
X566420Y48260D01*
X551180Y48260D01*
D19*
X546401Y85090D02*
X543560Y85090D01*
D28*
X90043Y80899D03*
D31*
X150364Y31534D02*
X155660Y36830D01*
X150364Y31534D02*
X142240Y31534D01*
D28*
X142240Y31534D03*
D31*
X77880Y108450D02*
X77880Y114800D01*
X73280Y119400D01*
X72130Y119400D01*
X49550Y119400D01*
X139580Y68580D02*
X154820Y53340D01*
D19*
X712470Y76200D02*
X736600Y76200D01*
X712470Y76200D02*
X712470Y100330D01*
X736600Y76200D02*
X736600Y52070D01*
D32*
X79502Y33782D02*
X79268Y34016D01*
X23980Y34016D01*
D29*
X82544Y33026D02*
X82544Y41636D01*
D32*
X79268Y118384D02*
X79502Y118618D01*
X79268Y118384D02*
X23980Y118384D01*
D29*
X82544Y119374D02*
X82544Y110764D01*
D19*
X760730Y76200D02*
X760730Y52070D01*
D27*
X402590Y76200D02*
X398780Y72390D01*
D28*
X496010Y80570D03*
D19*
X407590Y81200D02*
X407590Y88350D01*
X407590Y81200D02*
X406400Y80010D01*
D28*
X407670Y50800D03*
D19*
X82518Y119400D02*
X72130Y119400D01*
X82518Y119400D02*
X82544Y119374D01*
D28*
X819150Y99060D03*
X819150Y53340D03*
X421108Y62768D03*
D19*
X638810Y69850D02*
X641270Y67390D01*
X638810Y69850D02*
X631270Y69850D01*
D28*
X683260Y39370D03*
D29*
X485700Y80570D02*
X480060Y74930D01*
X485700Y80570D02*
X496010Y80570D01*
X495300Y52070D02*
X495300Y38100D01*
X495300Y52070D02*
X492334Y55036D01*
D19*
X655320Y44196D02*
X662686Y36830D01*
X678180Y39370D02*
X683260Y39370D01*
X678180Y39370D02*
X675640Y36830D01*
X662686Y36830D01*
D28*
X618490Y93980D03*
D19*
X622270Y90200D02*
X626270Y90200D01*
X622270Y90200D02*
X618490Y93980D01*
D29*
X492226Y76786D02*
X492690Y60960D01*
X492226Y76786D02*
X496010Y80570D01*
X492690Y60960D02*
X492334Y55036D01*
D30*
X520700Y50800D02*
X523240Y48260D01*
X551180Y48260D01*
D29*
X505253Y50800D02*
X495093Y60960D01*
D30*
X505253Y50800D02*
X520700Y50800D01*
D29*
X495093Y60960D02*
X492690Y60960D01*
D28*
X135890Y31534D03*
X139065Y37122D03*
D19*
X449048Y39902D02*
X449580Y39370D01*
X421108Y50062D02*
X421108Y62768D01*
X421108Y50062D02*
X431800Y39370D01*
X433602Y37568D01*
X438150Y37568D01*
D28*
X438150Y37568D03*
D19*
X431800Y39370D02*
X449580Y39370D01*
X439952Y39370D02*
X438150Y37568D01*
X439952Y39370D02*
X449580Y39370D01*
D33*
X372110Y96520D02*
X339852Y96520D01*
X342392Y53340D02*
X372110Y53340D01*
D34*
X373380Y52070D01*
D31*
X397510Y98026D02*
X397510Y99060D01*
X397510Y98026D02*
X396373Y99163D01*
X378327Y99163D01*
X374753Y99163D01*
X372110Y96520D01*
X373897Y94733D02*
X378327Y99163D01*
X373897Y94733D02*
X372110Y96520D01*
D19*
X655320Y45436D02*
X655320Y44196D01*
X655320Y47752D01*
X611178Y93980D02*
X604828Y87630D01*
X600710Y87630D01*
X611178Y93980D02*
X618490Y93980D01*
D28*
X496010Y74220D03*
D19*
X655320Y44196D02*
X656336Y44196D01*
X662940Y50800D01*
X655320Y44340D02*
X655320Y44196D01*
X655320Y44340D02*
X641270Y58390D01*
X641270Y62200D01*
X760730Y83700D02*
X771600Y83700D01*
X760730Y83700D02*
X760730Y100330D01*
X662940Y56516D02*
X662940Y50800D01*
X683308Y53700D02*
X701600Y53700D01*
X683308Y53700D02*
X664492Y72516D01*
X662940Y72516D01*
D28*
X20320Y76200D03*
X45720Y76200D03*
X45720Y91440D03*
X33020Y83820D03*
X33020Y68580D03*
X20320Y60960D03*
X33020Y53340D03*
X33020Y99060D03*
X45720Y60960D03*
X45720Y45720D03*
X58420Y68580D03*
X58420Y83820D03*
X45720Y106680D03*
D19*
X407670Y50800D02*
X420370Y50800D01*
X421108Y50062D01*
D28*
X506170Y55170D03*
X498550Y50090D03*
D35*
X296672Y99060D02*
X283534Y99060D01*
X296672Y99060D02*
X299212Y96520D01*
D28*
X637540Y41910D03*
X655320Y47752D03*
D19*
X771600Y83700D02*
X777528Y83700D01*
X781750Y87922D01*
D28*
X671830Y120650D03*
D34*
X637540Y41910D02*
X641604Y37846D01*
D19*
X670560Y119380D02*
X671830Y120650D01*
D28*
X736600Y100330D03*
D29*
X496748Y80570D02*
X496010Y80570D01*
D27*
X771600Y68700D02*
X782200Y68700D01*
X784860Y66040D02*
X791210Y66040D01*
X784860Y66040D02*
X782200Y68700D01*
X791210Y66040D02*
X801370Y76200D01*
X823070Y65970D02*
X823070Y64700D01*
X823070Y65970D02*
X812840Y76200D01*
X801370Y76200D01*
X803730Y86360D02*
X805070Y87700D01*
X779220Y72430D02*
X777950Y73700D01*
X771600Y73700D01*
X779220Y72430D02*
X783630Y72430D01*
X791210Y80010D02*
X791210Y86360D01*
X791210Y80010D02*
X783630Y72430D01*
X791210Y86360D02*
X803730Y86360D01*
D31*
X187960Y37465D02*
X182880Y42545D01*
D19*
X182880Y43180D01*
D31*
X262636Y90170D02*
X272288Y80518D01*
D28*
X262636Y90170D03*
D19*
X698432Y48700D02*
X701600Y48700D01*
X698432Y48700D02*
X697230Y47498D01*
X692150Y47498D01*
X709100Y109930D02*
X709100Y111200D01*
X709100Y109930D02*
X707576Y108406D01*
X698754Y108406D02*
X697686Y109474D01*
X680720Y109474D01*
X698754Y108406D02*
X707576Y108406D01*
D28*
X680720Y109474D03*
X692150Y47498D03*
X781050Y44450D03*
D19*
X772160Y44450D01*
X768910Y41200D01*
X764100Y41200D01*
D36*
X782320Y43180D02*
X798830Y43180D01*
D19*
X782320Y43180D02*
X781050Y44450D01*
X798830Y43180D02*
X806450Y35560D01*
X771600Y44450D02*
X771600Y48700D01*
X771600Y44450D02*
X781050Y44450D01*
X646430Y90200D02*
X646270Y90200D01*
D28*
X457200Y91440D03*
D19*
X646270Y90200D02*
X646270Y86200D01*
X641350Y81280D01*
X641350Y80010D01*
D28*
X641350Y80010D03*
D19*
X645080Y71200D02*
X650270Y71200D01*
X645080Y71200D02*
X642620Y73660D01*
X642620Y78740D02*
X641350Y80010D01*
X642620Y78740D02*
X642620Y73660D01*
X448310Y72390D02*
X448310Y69215D01*
D31*
X379730Y43180D02*
X374015Y37465D01*
D19*
X414740Y68700D02*
X424060Y68700D01*
X414740Y68700D02*
X414740Y65490D01*
X413300Y64050D01*
X407670Y64050D02*
X407590Y64050D01*
X407670Y64050D02*
X413300Y64050D01*
X455899Y71851D02*
X457169Y73121D01*
X457169Y72359D01*
D28*
X609600Y81280D03*
D19*
X673862Y47498D02*
X692150Y47498D01*
X673862Y47498D02*
X670560Y44196D01*
X657636Y64596D02*
X651032Y71200D01*
X650270Y71200D01*
D36*
X667024Y64596D02*
X670560Y61060D01*
X667024Y64596D02*
X657636Y64596D01*
D19*
X670560Y58420D02*
X670560Y44196D01*
X448310Y55880D02*
X448310Y72390D01*
X448310Y55880D02*
X449580Y54610D01*
X431800Y54610D01*
X431800Y60960D01*
X424060Y68700D01*
X407670Y64050D02*
X407670Y60070D01*
D28*
X457169Y73121D03*
D19*
X449041Y73121D01*
X448310Y72390D01*
X600710Y72390D02*
X609600Y81280D01*
D36*
X670560Y61060D02*
X670560Y58420D01*
D19*
X400050Y52450D02*
X400050Y48260D01*
X402590Y45720D01*
X402590Y39750D01*
X402210Y39370D01*
X400050Y52450D02*
X407670Y60070D01*
X391160Y43180D02*
X379730Y43180D01*
X396240Y48260D02*
X400050Y48260D01*
X396240Y48260D02*
X391160Y43180D01*
X396240Y48260D02*
X396240Y48640D01*
X400050Y52450D01*
X600710Y60960D02*
X600710Y72390D01*
X600710Y60960D02*
X598170Y58420D01*
D31*
X374015Y37465D02*
X279400Y37465D01*
X187960Y37465D01*
X272288Y72136D02*
X272288Y80518D01*
X272288Y72136D02*
X279654Y64770D01*
X279654Y53340D01*
X279654Y37719D01*
X279400Y37465D01*
D28*
X770890Y120650D03*
D19*
X770890Y104410D01*
X771600Y103700D01*
D27*
X355600Y110490D02*
X191770Y110490D01*
X189230Y107950D01*
X189230Y93980D01*
X182880Y87630D01*
X182880Y80010D01*
X175260Y72390D01*
X355600Y110490D02*
X361950Y104140D01*
X384810Y104140D02*
X396240Y115570D01*
X384810Y104140D02*
X361950Y104140D01*
X684250Y58700D02*
X701600Y58700D01*
X684250Y58700D02*
X677521Y65429D01*
X677521Y87419D01*
X645414Y115570D02*
X396240Y115570D01*
X670457Y90527D02*
X674413Y90527D01*
X677521Y87419D01*
X670457Y90527D02*
X645414Y115570D01*
D28*
X700532Y40132D03*
D27*
X708032Y40132D02*
X709100Y41200D01*
X708032Y40132D02*
X700532Y40132D01*
X182880Y118110D02*
X175260Y110490D01*
X359410Y118110D02*
X365760Y111760D01*
X381000Y111760D01*
X392430Y123190D01*
X359410Y118110D02*
X182880Y118110D01*
D28*
X691896Y76200D03*
D27*
X685141Y82955D01*
X685141Y90647D01*
X648570Y123190D02*
X392430Y123190D01*
X677641Y98147D02*
X685141Y90647D01*
X677641Y98147D02*
X673613Y98147D01*
X648570Y123190D01*
X190500Y113030D02*
X186690Y109220D01*
X186690Y95250D01*
X180340Y88900D01*
X179070Y88900D01*
X175260Y85090D01*
X356870Y113030D02*
X363220Y106680D01*
X356870Y113030D02*
X190500Y113030D01*
X383540Y106680D02*
X394970Y118110D01*
X383540Y106680D02*
X363220Y106680D01*
X692011Y61365D02*
X694346Y63700D01*
X701600Y63700D01*
X692011Y61365D02*
X685177Y61365D01*
X680061Y66481D01*
X680061Y88543D01*
X675537Y93067D01*
X646466Y118110D02*
X394970Y118110D01*
X671509Y93067D02*
X675537Y93067D01*
X671509Y93067D02*
X646466Y118110D01*
X695572Y68700D02*
X701600Y68700D01*
X695572Y68700D02*
X690880Y64008D01*
X686562Y64008D01*
X184150Y96520D02*
X181610Y93980D01*
X179070Y93980D01*
X175260Y97790D01*
X184150Y96520D02*
X184150Y110272D01*
X189448Y115570D01*
X358140Y115570D02*
X364490Y109220D01*
X382488Y109220D01*
X393918Y120650D01*
X358140Y115570D02*
X189448Y115570D01*
X682601Y67969D02*
X686562Y64008D01*
X682601Y67969D02*
X682601Y89595D01*
X676589Y95607D01*
X647518Y120650D02*
X393918Y120650D01*
X672561Y95607D02*
X676589Y95607D01*
X672561Y95607D02*
X647518Y120650D01*
D19*
X771600Y88700D02*
X777040Y88700D01*
X779780Y91440D01*
X779780Y113030D01*
X783590Y116840D02*
X791210Y116840D01*
X783590Y116840D02*
X779780Y113030D01*
D28*
X795020Y120650D03*
D34*
X791210Y116840D01*
D27*
X153670Y120650D02*
X132080Y99060D01*
X84982Y58700D02*
X77880Y58700D01*
X364744Y120650D02*
X368300Y117094D01*
D28*
X368300Y117094D03*
D27*
X364744Y120650D02*
X153670Y120650D01*
D28*
X382270Y92710D03*
D27*
X390440Y92710D01*
X390440Y83700D01*
X382270Y92710D02*
X372110Y82550D01*
X372110Y81280D01*
X88138Y61856D02*
X84982Y58700D01*
X88138Y61856D02*
X88138Y67818D01*
X97351Y77031D01*
X126913Y77031D02*
X132080Y82198D01*
X132080Y99060D01*
X390440Y92710D02*
X394500Y92710D01*
X397590Y89620D01*
X397590Y88350D01*
X124373Y77031D02*
X97351Y77031D01*
X124373Y77031D02*
X124373Y68787D01*
X124580Y68580D01*
X124373Y77031D02*
X126913Y77031D01*
X130875Y108135D02*
X139580Y116840D01*
X145930Y123190D01*
X371094Y123190D02*
X377190Y117094D01*
D28*
X377190Y117094D03*
D27*
X371094Y123190D02*
X145930Y123190D01*
D28*
X382270Y85090D03*
D27*
X372110Y68700D02*
X372110Y68580D01*
X385960Y68700D02*
X390440Y68700D01*
X106680Y91440D02*
X106680Y99822D01*
X114993Y108135D01*
X130875Y108135D01*
X106680Y91440D02*
X103940Y88700D01*
X77880Y88700D01*
X391280Y64050D02*
X397590Y64050D01*
X391280Y64050D02*
X390440Y64890D01*
X390440Y68700D01*
X385960Y68700D02*
X382270Y72390D01*
X382270Y85090D01*
X382270Y72390D02*
X378580Y68700D01*
X372110Y68700D01*
D28*
X610108Y65786D03*
D34*
X613410Y62484D01*
X613410Y58420D01*
D19*
X626364Y45466D01*
X626364Y37846D01*
D29*
X560070Y72390D02*
X556870Y75590D01*
X546401Y75590D01*
X537210Y60510D02*
X556710Y60510D01*
X560070Y57150D01*
X520399Y75590D02*
X516589Y75590D01*
X515690Y74691D01*
X515690Y60960D01*
X516440Y60960D01*
X516890Y60510D02*
X537210Y60510D01*
X516890Y60510D02*
X516440Y60960D01*
D19*
X580390Y85090D02*
X588010Y92710D01*
X580390Y85090D02*
X580390Y68580D01*
X582930Y66040D02*
X582930Y64770D01*
X582930Y66040D02*
X580390Y68580D01*
X572770Y92710D02*
X560981Y92710D01*
X559101Y94590D01*
X546401Y94590D01*
X572770Y92710D02*
X580390Y85090D01*
X520399Y94590D02*
X508969Y94590D01*
X507089Y92710D01*
X506730Y92710D01*
D28*
X281940Y90170D03*
D19*
X271780Y90170D01*
X262890Y99060D02*
X260534Y99060D01*
X262890Y99060D02*
X271780Y90170D01*
D35*
X260534Y99060D02*
X247396Y99060D01*
X244856Y96520D01*
X244856Y55880D02*
X247396Y53340D01*
X264414Y53340D01*
D19*
X455930Y46990D02*
X463550Y39370D01*
D36*
X455930Y46990D02*
X441960Y46990D01*
D19*
X440690Y45720D01*
D28*
X440690Y45720D03*
D27*
X734100Y41200D02*
X734100Y35600D01*
D28*
X614934Y42672D03*
D27*
X618490Y34290D02*
X621665Y31115D01*
X618490Y39116D02*
X614934Y42672D01*
X618490Y39116D02*
X618490Y34290D01*
X729615Y31115D02*
X734100Y35600D01*
X729615Y31115D02*
X621665Y31115D01*
X739100Y35520D02*
X739100Y41200D01*
D28*
X612902Y35052D03*
D27*
X619379Y28575D01*
X732155Y28575D02*
X739100Y35520D01*
X732155Y28575D02*
X619379Y28575D01*
X414740Y83700D02*
X414740Y88180D01*
X410210Y92710D01*
X410210Y96520D01*
X413258Y99568D02*
X421132Y99568D01*
X413258Y99568D02*
X410210Y96520D01*
X422910Y97790D02*
X433070Y97790D01*
X422910Y97790D02*
X421132Y99568D01*
X433070Y97790D02*
X443230Y107950D01*
D28*
X410210Y96520D03*
X601980Y104140D03*
D27*
X598170Y107950D01*
X443230Y107950D01*
X620602Y81200D02*
X622270Y81200D01*
X620602Y81200D02*
X614172Y87630D01*
D28*
X614172Y87630D03*
D27*
X724029Y41129D02*
X724100Y41200D01*
X724029Y41129D02*
X724029Y38235D01*
X719449Y33655D01*
X622270Y81200D02*
X619680Y81200D01*
X615950Y77470D01*
X615950Y69850D01*
X621695Y64105D02*
X621695Y55977D01*
X621695Y64105D02*
X615950Y69850D01*
X621695Y55977D02*
X630277Y47395D01*
X648462Y42926D02*
X648462Y39762D01*
X654569Y33655D01*
X719449Y33655D01*
X643993Y47395D02*
X630277Y47395D01*
X643993Y47395D02*
X648462Y42926D01*
X424220Y85090D02*
X417830Y78700D01*
X414740Y78700D01*
X433070Y85090D02*
X440690Y92710D01*
X440690Y101611D02*
X444489Y105410D01*
X440690Y101611D02*
X440690Y92710D01*
D28*
X417830Y93940D03*
X609600Y104140D03*
D27*
X600149Y98449D02*
X593188Y105410D01*
X603909Y98449D02*
X609600Y104140D01*
X593188Y105410D02*
X444489Y105410D01*
X600149Y98449D02*
X603909Y98449D01*
D28*
X637540Y100330D03*
D27*
X631270Y93980D02*
X631190Y93980D01*
X637540Y100330D01*
X631270Y93980D02*
X631270Y90200D01*
X433070Y85090D02*
X424220Y85090D01*
X424220Y93940D02*
X417830Y93940D01*
X424220Y93940D02*
X433070Y85090D01*
X695862Y83700D02*
X701600Y83700D01*
X662940Y116332D02*
X659892Y119380D01*
X662940Y116332D02*
X662940Y112522D01*
D28*
X659892Y119380D03*
D27*
X662940Y112522D02*
X674775Y100687D01*
X678875Y100687D02*
X695862Y83700D01*
X678875Y100687D02*
X674775Y100687D01*
X426680Y74970D02*
X422402Y74970D01*
X429260Y72390D02*
X433070Y72390D01*
X429260Y72390D02*
X426680Y74970D01*
X422402Y74970D02*
X421090Y74970D01*
X419820Y73700D01*
X414740Y73700D01*
D28*
X422402Y74970D03*
X421640Y105410D03*
D27*
X426720Y110490D01*
X643128Y110490D01*
D28*
X664464Y85598D03*
D27*
X660908Y92710D02*
X643128Y110490D01*
X660908Y92710D02*
X660908Y89154D01*
X664464Y85598D01*
X734100Y111200D02*
X734100Y119340D01*
X732790Y120650D01*
D28*
X732790Y120650D03*
X692150Y94742D03*
D27*
X698192Y88700D02*
X701600Y88700D01*
X698192Y88700D02*
X692150Y94742D01*
D28*
X147320Y72390D03*
D31*
X164465Y64135D02*
X174498Y54102D01*
X174498Y36322D01*
X178435Y32385D01*
X376555Y32385D01*
X379730Y35560D01*
D19*
X473819Y36369D02*
X478790Y36760D01*
X473819Y36369D02*
X469200Y31750D01*
X396875Y31750D02*
X393065Y35560D01*
X396875Y31750D02*
X469200Y31750D01*
D28*
X151130Y67310D03*
D31*
X154305Y64135D01*
X164465Y64135D01*
D34*
X151130Y67310D02*
X147320Y71120D01*
X147320Y72390D01*
D19*
X386460Y35560D02*
X393065Y35560D01*
X386460Y35560D02*
X386080Y35180D01*
D31*
X385700Y35560D02*
X379730Y35560D01*
X385700Y35560D02*
X386080Y35180D01*
D27*
X77880Y73700D02*
X71080Y73700D01*
X69850Y74930D01*
X69850Y82550D01*
X71120Y83820D01*
X77760Y83820D01*
X77880Y83700D01*
X84970Y83700D01*
X87430Y86160D01*
X105718Y86160D01*
X109220Y89662D01*
X109220Y94488D01*
X115672Y100940D01*
X119079Y100940D01*
X84836Y78740D02*
X77920Y78740D01*
X77880Y78700D01*
X77880Y68700D02*
X85210Y68700D01*
X90043Y73533D01*
X96266Y79756D01*
X109728Y79756D01*
X111912Y81940D01*
X119079Y81940D01*
X90043Y73533D02*
X84836Y78740D01*
D28*
X109728Y69088D03*
X105410Y64770D03*
X100330Y96520D03*
X95250Y93980D03*
X90170Y96520D03*
X101092Y69088D03*
D31*
X468630Y65340D02*
X468630Y83820D01*
X468630Y65340D02*
X473819Y60151D01*
X478790Y59760D01*
X480060Y92710D02*
X477520Y92710D01*
X468630Y83820D01*
X506730Y78976D02*
X506730Y77470D01*
X506730Y78976D02*
X492996Y92710D01*
X480060Y92710D01*
X512844Y85090D02*
X520399Y85090D01*
X512844Y85090D02*
X506730Y78976D01*
D28*
X603758Y43688D03*
D34*
X599820Y39750D01*
X599820Y35560D01*
D28*
X779780Y31750D03*
D27*
X754100Y35840D02*
X754100Y41200D01*
X774700Y31750D02*
X779780Y31750D01*
X774700Y31750D02*
X772160Y29210D01*
X760730Y29210D02*
X754100Y35840D01*
X760730Y29210D02*
X772160Y29210D01*
D28*
X414020Y105410D03*
D27*
X421640Y113030D01*
D28*
X672084Y85344D03*
X689102Y101854D03*
D27*
X696574Y98700D02*
X701600Y98700D01*
X696574Y98700D02*
X693420Y101854D01*
X689102Y101854D01*
X672084Y85344D02*
X671866Y85562D01*
X671830Y85562D01*
X644362Y113030D01*
X421640Y113030D01*
X168910Y65405D02*
X161925Y72390D01*
X160020Y72390D01*
X147980Y81940D02*
X145081Y81940D01*
X151130Y85090D02*
X160020Y85090D01*
X151130Y85090D02*
X147980Y81940D01*
X168910Y65405D02*
X175895Y65405D01*
X182880Y58420D01*
X160020Y72390D02*
X154940Y77470D01*
X152450Y77470D01*
X147980Y81940D01*
X147980Y100940D02*
X145081Y100940D01*
X147980Y100940D02*
X151130Y97790D01*
X160020Y97790D01*
X154940Y105410D02*
X160020Y110490D01*
X154940Y105410D02*
X152450Y105410D01*
X147980Y100940D01*
D19*
X402590Y64050D02*
X402590Y60960D01*
X392430Y50800D01*
X386460Y50800D01*
X386080Y51180D01*
D28*
X414020Y39370D03*
D19*
X418210Y39370D01*
D28*
X744220Y31496D03*
D37*
X747776Y31496D01*
X749300Y33020D01*
X744220Y31496D02*
X744100Y31616D01*
X749300Y33020D02*
X749300Y41000D01*
X749100Y41200D01*
X744100Y41200D02*
X744100Y31616D01*
D28*
X585470Y36830D03*
X515620Y35306D03*
D29*
X515170Y36010D02*
X537210Y36010D01*
X515170Y36010D02*
X513080Y38100D01*
X584200Y35560D02*
X585470Y36830D01*
X584200Y35560D02*
X583820Y35560D01*
D28*
X515620Y41656D03*
D37*
X513080Y38100D02*
X513080Y37846D01*
X515620Y35306D01*
D19*
X588010Y77470D02*
X590550Y74930D01*
X590550Y57150D01*
X582930Y49530D01*
D34*
X582930Y36450D02*
X583820Y35560D01*
X582930Y36450D02*
X582930Y49530D01*
D36*
X719100Y111200D02*
X719100Y117830D01*
X713740Y123190D01*
X698500Y123190D01*
X694690Y119380D01*
X685800Y119380D01*
D27*
X626270Y62200D02*
X626270Y55974D01*
X629158Y53086D01*
X637540Y53086D01*
X688594Y69342D02*
X692416Y69342D01*
D28*
X688594Y69342D03*
X637540Y53086D03*
D27*
X692416Y69342D02*
X696774Y73700D01*
X701600Y73700D01*
X729100Y111200D02*
X729100Y116768D01*
X725218Y120650D01*
D28*
X725218Y120650D03*
X755650Y120650D03*
D19*
X760730Y120650D01*
X764100Y117280D01*
X764100Y111200D01*
X598170Y95250D02*
X591185Y102235D01*
X473710Y102235D01*
D28*
X740410Y120650D03*
X672338Y72898D03*
D19*
X473710Y102235D02*
X463550Y92075D01*
X463550Y54610D01*
X598170Y95250D02*
X605790Y95250D01*
X608330Y97790D01*
X611632Y97790D02*
X620522Y106680D01*
X611632Y97790D02*
X608330Y97790D01*
X657098Y83566D02*
X660909Y79755D01*
X668021Y79755D01*
X672338Y75438D02*
X672338Y72898D01*
X672338Y75438D02*
X668021Y79755D01*
X657098Y83566D02*
X657098Y91196D01*
X641614Y106680D01*
X620522Y106680D01*
X739100Y119340D02*
X740410Y120650D01*
X739100Y119340D02*
X739100Y111200D01*
D28*
X93472Y65786D03*
D27*
X116840Y65278D02*
X116840Y70104D01*
D28*
X116840Y65278D03*
X167640Y45720D03*
D27*
X170434Y42926D01*
X170434Y34709D01*
X600075Y49022D02*
X609854Y49022D01*
X600075Y49022D02*
X591693Y40640D01*
X591693Y31623D01*
X588645Y28575D01*
X176568Y28575D01*
D28*
X609854Y49022D03*
D27*
X98621Y74491D02*
X93472Y69342D01*
X93472Y65786D01*
X170434Y34709D02*
X176568Y28575D01*
X116840Y70104D02*
X112453Y74491D01*
X98621Y74491D01*
D28*
X748030Y120650D03*
D27*
X744100Y116720D01*
X744100Y111200D01*
M02*
