G04 EAGLE Gerber RS-274X export*
G75*
%MOMM*%
%FSLAX34Y34*%
%LPD*%
%INSilkscreen Top*%
%IPPOS*%
%AMOC8*
5,1,8,0,0,1.08239X$1,22.5*%
G01*
%ADD10C,0.203200*%
%ADD11C,0.406400*%
%ADD12C,0.152400*%
%ADD13C,0.076200*%
%ADD14R,10.180319X0.030481*%
%ADD15R,10.302238X0.030475*%
%ADD16R,10.363200X0.030481*%
%ADD17R,10.424156X0.030481*%
%ADD18R,10.485119X0.030475*%
%ADD19R,10.546081X0.030481*%
%ADD20R,0.579119X0.030475*%
%ADD21R,2.712719X0.030475*%
%ADD22R,3.535681X0.030475*%
%ADD23R,2.804163X0.030475*%
%ADD24R,0.457200X0.030481*%
%ADD25R,0.609600X0.030481*%
%ADD26R,0.975356X0.030481*%
%ADD27R,0.152400X0.030481*%
%ADD28R,0.274319X0.030481*%
%ADD29R,0.365762X0.030481*%
%ADD30R,0.548638X0.030481*%
%ADD31R,2.651763X0.030481*%
%ADD32R,0.396238X0.030481*%
%ADD33R,0.792481X0.030481*%
%ADD34R,0.060956X0.030481*%
%ADD35R,0.243838X0.030481*%
%ADD36R,0.304800X0.030481*%
%ADD37R,0.518156X0.030481*%
%ADD38R,0.426719X0.030481*%
%ADD39R,0.762000X0.030481*%
%ADD40R,0.365756X0.030475*%
%ADD41R,0.457200X0.030475*%
%ADD42R,0.670556X0.030475*%
%ADD43R,0.274319X0.030475*%
%ADD44R,0.426719X0.030475*%
%ADD45R,0.396238X0.030475*%
%ADD46R,0.762000X0.030475*%
%ADD47R,0.335281X0.030481*%
%ADD48R,0.365756X0.030481*%
%ADD49R,0.731519X0.030481*%
%ADD50R,0.304800X0.030475*%
%ADD51R,0.487681X0.030475*%
%ADD52R,0.243838X0.030475*%
%ADD53R,0.335281X0.030475*%
%ADD54R,0.365762X0.030475*%
%ADD55R,0.731519X0.030475*%
%ADD56R,0.701037X0.030481*%
%ADD57R,0.213356X0.030481*%
%ADD58R,0.335275X0.030481*%
%ADD59R,0.213363X0.030481*%
%ADD60R,0.670556X0.030481*%
%ADD61R,0.213363X0.030475*%
%ADD62R,0.640075X0.030475*%
%ADD63R,0.640075X0.030481*%
%ADD64R,0.487681X0.030481*%
%ADD65R,0.182875X0.030481*%
%ADD66R,0.487675X0.030481*%
%ADD67R,0.518156X0.030475*%
%ADD68R,0.182875X0.030475*%
%ADD69R,0.152400X0.030475*%
%ADD70R,0.609600X0.030475*%
%ADD71R,0.182881X0.030481*%
%ADD72R,0.579119X0.030481*%
%ADD73R,0.213356X0.030475*%
%ADD74R,0.182881X0.030475*%
%ADD75R,0.091438X0.030475*%
%ADD76R,0.091438X0.030481*%
%ADD77R,0.548638X0.030475*%
%ADD78R,0.030475X0.030475*%
%ADD79R,0.518162X0.030481*%
%ADD80R,0.030475X0.030481*%
%ADD81R,0.060963X0.030481*%
%ADD82R,1.188719X0.030475*%
%ADD83R,0.518162X0.030475*%
%ADD84R,0.060963X0.030475*%
%ADD85R,1.158238X0.030481*%
%ADD86R,0.853438X0.030475*%
%ADD87R,0.792475X0.030475*%
%ADD88R,0.670563X0.030475*%
%ADD89R,1.036319X0.030481*%
%ADD90R,0.914400X0.030481*%
%ADD91R,0.640081X0.030481*%
%ADD92R,1.158238X0.030475*%
%ADD93R,2.865119X0.030475*%
%ADD94R,3.505200X0.030475*%
%ADD95R,0.792481X0.030475*%
%ADD96R,10.607038X0.030481*%
%ADD97R,10.546081X0.030475*%
%ADD98R,10.485119X0.030481*%
%ADD99R,10.424156X0.030475*%
%ADD100R,10.302238X0.030481*%
%ADD101R,10.180319X0.030475*%
%ADD102C,0.127000*%
%ADD103C,0.254000*%
%ADD104C,0.381000*%
%ADD105C,0.406400*%
%ADD106R,0.200000X1.000000*%
%ADD107R,0.200000X0.800000*%
%ADD108R,1.000000X0.200000*%
%ADD109C,0.508000*%

G36*
X274079Y96053D02*
X274079Y96053D01*
X274150Y96051D01*
X274219Y96069D01*
X274290Y96078D01*
X274356Y96105D01*
X274425Y96123D01*
X274486Y96160D01*
X274552Y96187D01*
X274608Y96232D01*
X274670Y96269D01*
X274719Y96320D01*
X274774Y96365D01*
X274815Y96424D01*
X274864Y96476D01*
X274897Y96539D01*
X274938Y96597D01*
X274961Y96665D01*
X274994Y96729D01*
X275004Y96788D01*
X275031Y96866D01*
X275037Y96985D01*
X275049Y97060D01*
X275049Y101060D01*
X275039Y101131D01*
X275039Y101203D01*
X275019Y101271D01*
X275009Y101342D01*
X274980Y101407D01*
X274960Y101476D01*
X274922Y101536D01*
X274893Y101601D01*
X274847Y101656D01*
X274809Y101716D01*
X274756Y101764D01*
X274710Y101818D01*
X274650Y101858D01*
X274596Y101905D01*
X274532Y101936D01*
X274473Y101976D01*
X274405Y101997D01*
X274340Y102028D01*
X274270Y102040D01*
X274202Y102061D01*
X274130Y102063D01*
X274060Y102075D01*
X273989Y102067D01*
X273918Y102069D01*
X273848Y102050D01*
X273777Y102042D01*
X273722Y102017D01*
X273643Y101997D01*
X273540Y101936D01*
X273471Y101905D01*
X270471Y99905D01*
X270384Y99828D01*
X270294Y99755D01*
X270279Y99733D01*
X270259Y99715D01*
X270197Y99618D01*
X270130Y99523D01*
X270122Y99497D01*
X270107Y99475D01*
X270075Y99364D01*
X270037Y99254D01*
X270036Y99227D01*
X270029Y99202D01*
X270029Y99086D01*
X270023Y98970D01*
X270029Y98944D01*
X270029Y98917D01*
X270061Y98806D01*
X270087Y98693D01*
X270100Y98670D01*
X270108Y98644D01*
X270170Y98546D01*
X270226Y98445D01*
X270244Y98429D01*
X270259Y98404D01*
X270467Y98219D01*
X270471Y98215D01*
X273471Y96215D01*
X273535Y96184D01*
X273595Y96145D01*
X273663Y96123D01*
X273727Y96092D01*
X273798Y96080D01*
X273866Y96059D01*
X273937Y96057D01*
X274008Y96045D01*
X274079Y96053D01*
G37*
G36*
X502235Y57953D02*
X502235Y57953D01*
X502306Y57951D01*
X502376Y57970D01*
X502447Y57978D01*
X502502Y58003D01*
X502581Y58023D01*
X502684Y58084D01*
X502753Y58115D01*
X505753Y60115D01*
X505840Y60192D01*
X505930Y60265D01*
X505945Y60287D01*
X505965Y60305D01*
X506027Y60402D01*
X506094Y60497D01*
X506102Y60523D01*
X506117Y60545D01*
X506149Y60656D01*
X506187Y60766D01*
X506188Y60793D01*
X506195Y60818D01*
X506195Y60934D01*
X506201Y61050D01*
X506195Y61076D01*
X506195Y61103D01*
X506163Y61214D01*
X506137Y61327D01*
X506124Y61350D01*
X506116Y61376D01*
X506054Y61474D01*
X505998Y61575D01*
X505980Y61591D01*
X505965Y61616D01*
X505757Y61801D01*
X505753Y61805D01*
X502753Y63805D01*
X502689Y63836D01*
X502629Y63876D01*
X502561Y63897D01*
X502497Y63928D01*
X502426Y63940D01*
X502358Y63961D01*
X502287Y63963D01*
X502217Y63975D01*
X502145Y63967D01*
X502074Y63969D01*
X502005Y63951D01*
X501934Y63942D01*
X501868Y63915D01*
X501799Y63897D01*
X501738Y63860D01*
X501672Y63833D01*
X501616Y63788D01*
X501554Y63752D01*
X501505Y63700D01*
X501450Y63655D01*
X501409Y63597D01*
X501360Y63544D01*
X501327Y63481D01*
X501286Y63423D01*
X501263Y63355D01*
X501230Y63291D01*
X501220Y63232D01*
X501193Y63154D01*
X501187Y63035D01*
X501175Y62960D01*
X501175Y58960D01*
X501185Y58889D01*
X501185Y58817D01*
X501205Y58749D01*
X501215Y58679D01*
X501244Y58613D01*
X501264Y58544D01*
X501302Y58484D01*
X501331Y58419D01*
X501377Y58364D01*
X501415Y58304D01*
X501469Y58256D01*
X501515Y58202D01*
X501574Y58162D01*
X501628Y58115D01*
X501692Y58084D01*
X501751Y58045D01*
X501820Y58023D01*
X501884Y57992D01*
X501954Y57980D01*
X502022Y57959D01*
X502094Y57957D01*
X502165Y57945D01*
X502235Y57953D01*
G37*
G36*
X139205Y50333D02*
X139205Y50333D01*
X139276Y50331D01*
X139345Y50349D01*
X139416Y50358D01*
X139482Y50385D01*
X139551Y50403D01*
X139612Y50440D01*
X139678Y50467D01*
X139734Y50512D01*
X139796Y50549D01*
X139845Y50600D01*
X139900Y50645D01*
X139941Y50704D01*
X139990Y50756D01*
X140023Y50819D01*
X140064Y50877D01*
X140087Y50945D01*
X140120Y51009D01*
X140130Y51068D01*
X140157Y51146D01*
X140163Y51265D01*
X140175Y51340D01*
X140175Y55340D01*
X140165Y55411D01*
X140165Y55483D01*
X140145Y55551D01*
X140135Y55622D01*
X140106Y55687D01*
X140086Y55756D01*
X140048Y55816D01*
X140019Y55881D01*
X139973Y55936D01*
X139935Y55996D01*
X139882Y56044D01*
X139836Y56098D01*
X139776Y56138D01*
X139722Y56185D01*
X139658Y56216D01*
X139599Y56256D01*
X139531Y56277D01*
X139466Y56308D01*
X139396Y56320D01*
X139328Y56341D01*
X139256Y56343D01*
X139186Y56355D01*
X139115Y56347D01*
X139044Y56349D01*
X138974Y56330D01*
X138903Y56322D01*
X138848Y56297D01*
X138769Y56277D01*
X138666Y56216D01*
X138597Y56185D01*
X135597Y54185D01*
X135510Y54108D01*
X135420Y54035D01*
X135405Y54013D01*
X135385Y53995D01*
X135323Y53898D01*
X135256Y53803D01*
X135248Y53777D01*
X135233Y53755D01*
X135201Y53644D01*
X135163Y53534D01*
X135162Y53507D01*
X135155Y53482D01*
X135155Y53366D01*
X135149Y53250D01*
X135155Y53224D01*
X135155Y53197D01*
X135187Y53086D01*
X135213Y52973D01*
X135226Y52950D01*
X135234Y52924D01*
X135296Y52826D01*
X135352Y52725D01*
X135370Y52709D01*
X135385Y52684D01*
X135593Y52499D01*
X135597Y52495D01*
X138597Y50495D01*
X138661Y50464D01*
X138721Y50425D01*
X138789Y50403D01*
X138853Y50372D01*
X138924Y50360D01*
X138992Y50339D01*
X139063Y50337D01*
X139134Y50325D01*
X139205Y50333D01*
G37*
G36*
X480861Y45255D02*
X480861Y45255D01*
X480933Y45255D01*
X481001Y45275D01*
X481072Y45285D01*
X481137Y45314D01*
X481206Y45334D01*
X481266Y45372D01*
X481331Y45401D01*
X481386Y45447D01*
X481446Y45485D01*
X481494Y45539D01*
X481548Y45585D01*
X481588Y45644D01*
X481635Y45698D01*
X481666Y45762D01*
X481706Y45821D01*
X481727Y45890D01*
X481758Y45954D01*
X481770Y46024D01*
X481791Y46092D01*
X481793Y46164D01*
X481805Y46235D01*
X481797Y46305D01*
X481799Y46376D01*
X481780Y46446D01*
X481772Y46517D01*
X481747Y46572D01*
X481727Y46651D01*
X481666Y46754D01*
X481635Y46823D01*
X479635Y49823D01*
X479558Y49910D01*
X479485Y50000D01*
X479463Y50015D01*
X479445Y50035D01*
X479348Y50097D01*
X479253Y50164D01*
X479227Y50172D01*
X479205Y50187D01*
X479094Y50219D01*
X478984Y50257D01*
X478957Y50258D01*
X478932Y50265D01*
X478816Y50265D01*
X478700Y50271D01*
X478674Y50265D01*
X478647Y50265D01*
X478536Y50233D01*
X478423Y50207D01*
X478400Y50194D01*
X478374Y50186D01*
X478276Y50124D01*
X478175Y50068D01*
X478159Y50050D01*
X478134Y50035D01*
X477949Y49827D01*
X477945Y49823D01*
X475945Y46823D01*
X475914Y46759D01*
X475875Y46699D01*
X475853Y46631D01*
X475822Y46567D01*
X475810Y46496D01*
X475789Y46428D01*
X475787Y46357D01*
X475775Y46287D01*
X475783Y46215D01*
X475781Y46144D01*
X475799Y46075D01*
X475808Y46004D01*
X475835Y45938D01*
X475853Y45869D01*
X475890Y45808D01*
X475917Y45742D01*
X475962Y45686D01*
X475999Y45624D01*
X476050Y45575D01*
X476095Y45520D01*
X476154Y45479D01*
X476206Y45430D01*
X476269Y45397D01*
X476327Y45356D01*
X476395Y45333D01*
X476459Y45300D01*
X476518Y45290D01*
X476596Y45263D01*
X476715Y45257D01*
X476790Y45245D01*
X480790Y45245D01*
X480861Y45255D01*
G37*
G36*
X139205Y33823D02*
X139205Y33823D01*
X139276Y33821D01*
X139345Y33839D01*
X139416Y33848D01*
X139482Y33875D01*
X139551Y33893D01*
X139612Y33930D01*
X139678Y33957D01*
X139734Y34002D01*
X139796Y34039D01*
X139845Y34090D01*
X139900Y34135D01*
X139941Y34194D01*
X139990Y34246D01*
X140023Y34309D01*
X140064Y34367D01*
X140087Y34435D01*
X140120Y34499D01*
X140130Y34558D01*
X140157Y34636D01*
X140163Y34755D01*
X140175Y34830D01*
X140175Y38830D01*
X140165Y38901D01*
X140165Y38973D01*
X140145Y39041D01*
X140135Y39112D01*
X140106Y39177D01*
X140086Y39246D01*
X140048Y39306D01*
X140019Y39371D01*
X139973Y39426D01*
X139935Y39486D01*
X139882Y39534D01*
X139836Y39588D01*
X139776Y39628D01*
X139722Y39675D01*
X139658Y39706D01*
X139599Y39746D01*
X139531Y39767D01*
X139466Y39798D01*
X139396Y39810D01*
X139328Y39831D01*
X139256Y39833D01*
X139186Y39845D01*
X139115Y39837D01*
X139044Y39839D01*
X138974Y39820D01*
X138903Y39812D01*
X138848Y39787D01*
X138769Y39767D01*
X138666Y39706D01*
X138597Y39675D01*
X135597Y37675D01*
X135510Y37598D01*
X135420Y37525D01*
X135405Y37503D01*
X135385Y37485D01*
X135323Y37388D01*
X135256Y37293D01*
X135248Y37267D01*
X135233Y37245D01*
X135201Y37134D01*
X135163Y37024D01*
X135162Y36997D01*
X135155Y36972D01*
X135155Y36856D01*
X135149Y36740D01*
X135155Y36714D01*
X135155Y36687D01*
X135187Y36576D01*
X135213Y36463D01*
X135226Y36440D01*
X135234Y36414D01*
X135296Y36316D01*
X135352Y36215D01*
X135370Y36199D01*
X135385Y36174D01*
X135593Y35989D01*
X135597Y35985D01*
X138597Y33985D01*
X138661Y33954D01*
X138721Y33915D01*
X138789Y33893D01*
X138853Y33862D01*
X138924Y33850D01*
X138992Y33829D01*
X139063Y33827D01*
X139134Y33815D01*
X139205Y33823D01*
G37*
G36*
X130082Y114093D02*
X130082Y114093D01*
X130111Y114089D01*
X130151Y114106D01*
X130193Y114113D01*
X130228Y114139D01*
X130240Y114144D01*
X130245Y114151D01*
X130259Y114161D01*
X132759Y116661D01*
X132767Y116675D01*
X132779Y116684D01*
X132800Y116736D01*
X132827Y116784D01*
X132826Y116800D01*
X132832Y116815D01*
X132822Y116869D01*
X132819Y116925D01*
X132809Y116938D01*
X132807Y116953D01*
X132759Y117019D01*
X130259Y119519D01*
X130221Y119540D01*
X130189Y119569D01*
X130160Y119573D01*
X130136Y119587D01*
X130092Y119584D01*
X130049Y119591D01*
X130023Y119580D01*
X129995Y119579D01*
X129960Y119553D01*
X129920Y119536D01*
X129904Y119513D01*
X129881Y119496D01*
X129864Y119456D01*
X129840Y119420D01*
X129833Y119377D01*
X129828Y119365D01*
X129830Y119357D01*
X129827Y119340D01*
X129827Y114340D01*
X129839Y114298D01*
X129841Y114255D01*
X129858Y114232D01*
X129866Y114205D01*
X129898Y114176D01*
X129924Y114141D01*
X129950Y114130D01*
X129971Y114111D01*
X130014Y114104D01*
X130055Y114088D01*
X130082Y114093D01*
G37*
G36*
X134137Y65840D02*
X134137Y65840D01*
X134165Y65841D01*
X134200Y65867D01*
X134240Y65884D01*
X134256Y65907D01*
X134279Y65924D01*
X134296Y65964D01*
X134320Y66000D01*
X134327Y66043D01*
X134332Y66055D01*
X134330Y66063D01*
X134333Y66080D01*
X134333Y71080D01*
X134321Y71122D01*
X134319Y71165D01*
X134302Y71188D01*
X134294Y71215D01*
X134262Y71244D01*
X134236Y71279D01*
X134210Y71290D01*
X134189Y71309D01*
X134146Y71316D01*
X134105Y71332D01*
X134078Y71327D01*
X134049Y71331D01*
X134009Y71314D01*
X133967Y71307D01*
X133932Y71281D01*
X133920Y71276D01*
X133915Y71269D01*
X133901Y71259D01*
X131401Y68759D01*
X131393Y68745D01*
X131381Y68736D01*
X131360Y68684D01*
X131333Y68636D01*
X131334Y68620D01*
X131328Y68605D01*
X131338Y68551D01*
X131341Y68495D01*
X131351Y68482D01*
X131353Y68467D01*
X131401Y68401D01*
X133901Y65901D01*
X133939Y65880D01*
X133971Y65851D01*
X134000Y65847D01*
X134024Y65833D01*
X134068Y65836D01*
X134111Y65829D01*
X134137Y65840D01*
G37*
G36*
X121380Y105770D02*
X121380Y105770D01*
X121381Y105771D01*
X121383Y105771D01*
X121766Y105929D01*
X121767Y105931D01*
X121769Y105931D01*
X122097Y106183D01*
X122098Y106185D01*
X122100Y106185D01*
X122352Y106514D01*
X122352Y106516D01*
X122353Y106517D01*
X122512Y106900D01*
X122511Y106902D01*
X122513Y106903D01*
X122567Y107313D01*
X122567Y107314D01*
X122566Y107314D01*
X122566Y107315D01*
X122567Y107317D01*
X122513Y107727D01*
X122511Y107729D01*
X122512Y107730D01*
X122353Y108113D01*
X122351Y108114D01*
X122352Y108116D01*
X122100Y108445D01*
X122097Y108445D01*
X122097Y108447D01*
X121769Y108699D01*
X121766Y108699D01*
X121766Y108701D01*
X121383Y108859D01*
X121381Y108859D01*
X121380Y108860D01*
X120969Y108914D01*
X120967Y108913D01*
X120966Y108914D01*
X120555Y108860D01*
X120554Y108859D01*
X120552Y108859D01*
X120169Y108701D01*
X120168Y108699D01*
X120166Y108699D01*
X119838Y108447D01*
X119837Y108445D01*
X119836Y108445D01*
X119583Y108116D01*
X119583Y108114D01*
X119582Y108113D01*
X119423Y107730D01*
X119424Y107728D01*
X119422Y107727D01*
X119368Y107317D01*
X119369Y107315D01*
X119368Y107313D01*
X119422Y106903D01*
X119424Y106901D01*
X119423Y106900D01*
X119582Y106517D01*
X119584Y106516D01*
X119583Y106514D01*
X119836Y106185D01*
X119838Y106185D01*
X119838Y106183D01*
X120166Y105931D01*
X120169Y105931D01*
X120169Y105929D01*
X120552Y105771D01*
X120554Y105771D01*
X120555Y105770D01*
X120966Y105716D01*
X120968Y105717D01*
X120969Y105716D01*
X121380Y105770D01*
G37*
G36*
X544925Y67670D02*
X544925Y67670D01*
X544926Y67671D01*
X544928Y67671D01*
X545311Y67829D01*
X545312Y67831D01*
X545314Y67831D01*
X545642Y68083D01*
X545643Y68085D01*
X545645Y68085D01*
X545897Y68414D01*
X545897Y68416D01*
X545898Y68417D01*
X546057Y68800D01*
X546056Y68802D01*
X546058Y68803D01*
X546112Y69213D01*
X546112Y69214D01*
X546111Y69214D01*
X546111Y69215D01*
X546112Y69217D01*
X546058Y69627D01*
X546056Y69629D01*
X546057Y69630D01*
X545898Y70013D01*
X545896Y70014D01*
X545897Y70016D01*
X545645Y70345D01*
X545642Y70345D01*
X545642Y70347D01*
X545314Y70599D01*
X545311Y70599D01*
X545311Y70601D01*
X544928Y70759D01*
X544926Y70759D01*
X544925Y70760D01*
X544514Y70814D01*
X544512Y70813D01*
X544511Y70814D01*
X544100Y70760D01*
X544099Y70759D01*
X544097Y70759D01*
X543714Y70601D01*
X543713Y70599D01*
X543711Y70599D01*
X543383Y70347D01*
X543382Y70345D01*
X543381Y70345D01*
X543128Y70016D01*
X543128Y70014D01*
X543127Y70013D01*
X542968Y69630D01*
X542969Y69628D01*
X542967Y69627D01*
X542913Y69217D01*
X542914Y69215D01*
X542913Y69213D01*
X542967Y68803D01*
X542969Y68801D01*
X542968Y68800D01*
X543127Y68417D01*
X543129Y68416D01*
X543128Y68414D01*
X543381Y68085D01*
X543383Y68085D01*
X543383Y68083D01*
X543711Y67831D01*
X543714Y67831D01*
X543714Y67829D01*
X544097Y67671D01*
X544099Y67671D01*
X544100Y67670D01*
X544511Y67616D01*
X544513Y67617D01*
X544514Y67616D01*
X544925Y67670D01*
G37*
D10*
X351028Y29210D02*
X357378Y62230D01*
X363220Y41910D01*
X354838Y41148D01*
X363982Y32004D01*
X353822Y31242D01*
X362712Y40386D01*
X367538Y29210D01*
D11*
X234188Y76031D02*
X214884Y76031D01*
X224536Y66379D02*
X224536Y85683D01*
X309880Y76031D02*
X329184Y76031D01*
D10*
X866521Y53318D02*
X878459Y53318D01*
X866521Y53318D02*
X866521Y56634D01*
X866523Y56748D01*
X866529Y56863D01*
X866539Y56977D01*
X866553Y57090D01*
X866570Y57204D01*
X866592Y57316D01*
X866617Y57428D01*
X866647Y57538D01*
X866680Y57648D01*
X866717Y57756D01*
X866757Y57863D01*
X866802Y57969D01*
X866849Y58073D01*
X866901Y58175D01*
X866956Y58275D01*
X867014Y58374D01*
X867076Y58470D01*
X867141Y58565D01*
X867209Y58656D01*
X867281Y58746D01*
X867355Y58833D01*
X867432Y58917D01*
X867513Y58999D01*
X867596Y59078D01*
X867681Y59154D01*
X867770Y59227D01*
X867860Y59296D01*
X867953Y59363D01*
X868049Y59426D01*
X868146Y59486D01*
X868246Y59543D01*
X868347Y59596D01*
X868450Y59646D01*
X868555Y59692D01*
X868661Y59735D01*
X868769Y59773D01*
X868878Y59808D01*
X868988Y59839D01*
X869099Y59867D01*
X869211Y59890D01*
X869324Y59910D01*
X869437Y59926D01*
X869551Y59938D01*
X869665Y59946D01*
X869780Y59950D01*
X869894Y59950D01*
X870009Y59946D01*
X870123Y59938D01*
X870237Y59926D01*
X870350Y59910D01*
X870463Y59890D01*
X870575Y59867D01*
X870686Y59839D01*
X870796Y59808D01*
X870905Y59773D01*
X871013Y59735D01*
X871119Y59692D01*
X871224Y59646D01*
X871327Y59596D01*
X871428Y59543D01*
X871528Y59486D01*
X871625Y59426D01*
X871721Y59363D01*
X871814Y59296D01*
X871904Y59227D01*
X871993Y59154D01*
X872078Y59078D01*
X872161Y58999D01*
X872242Y58917D01*
X872319Y58833D01*
X872393Y58746D01*
X872465Y58656D01*
X872533Y58565D01*
X872598Y58470D01*
X872660Y58374D01*
X872718Y58275D01*
X872773Y58175D01*
X872825Y58073D01*
X872872Y57969D01*
X872917Y57863D01*
X872957Y57756D01*
X872994Y57648D01*
X873027Y57538D01*
X873057Y57428D01*
X873082Y57316D01*
X873104Y57204D01*
X873121Y57090D01*
X873135Y56977D01*
X873145Y56863D01*
X873151Y56748D01*
X873153Y56634D01*
X873153Y53318D01*
X871827Y70271D02*
X871827Y72260D01*
X878459Y72260D01*
X878459Y68281D01*
X878457Y68179D01*
X878451Y68078D01*
X878441Y67977D01*
X878428Y67876D01*
X878410Y67776D01*
X878389Y67677D01*
X878364Y67578D01*
X878335Y67481D01*
X878303Y67384D01*
X878267Y67289D01*
X878227Y67196D01*
X878184Y67104D01*
X878137Y67014D01*
X878086Y66925D01*
X878033Y66839D01*
X877976Y66755D01*
X877916Y66673D01*
X877853Y66593D01*
X877787Y66516D01*
X877718Y66441D01*
X877646Y66369D01*
X877571Y66300D01*
X877494Y66234D01*
X877414Y66171D01*
X877332Y66111D01*
X877248Y66054D01*
X877162Y66001D01*
X877073Y65950D01*
X876983Y65903D01*
X876891Y65860D01*
X876798Y65820D01*
X876703Y65784D01*
X876606Y65752D01*
X876509Y65723D01*
X876410Y65698D01*
X876311Y65677D01*
X876211Y65659D01*
X876110Y65646D01*
X876009Y65636D01*
X875908Y65630D01*
X875806Y65628D01*
X869174Y65628D01*
X869072Y65630D01*
X868971Y65636D01*
X868870Y65646D01*
X868769Y65659D01*
X868669Y65677D01*
X868570Y65698D01*
X868471Y65723D01*
X868374Y65752D01*
X868277Y65784D01*
X868182Y65820D01*
X868089Y65860D01*
X867997Y65903D01*
X867907Y65950D01*
X867818Y66001D01*
X867732Y66054D01*
X867648Y66111D01*
X867566Y66171D01*
X867486Y66234D01*
X867409Y66300D01*
X867334Y66369D01*
X867262Y66441D01*
X867193Y66516D01*
X867127Y66593D01*
X867064Y66673D01*
X867004Y66755D01*
X866947Y66839D01*
X866894Y66925D01*
X866843Y67014D01*
X866796Y67104D01*
X866753Y67196D01*
X866713Y67289D01*
X866677Y67384D01*
X866645Y67480D01*
X866616Y67578D01*
X866591Y67676D01*
X866570Y67776D01*
X866552Y67876D01*
X866539Y67977D01*
X866529Y68078D01*
X866523Y68179D01*
X866521Y68281D01*
X866521Y72260D01*
X866521Y79039D02*
X878459Y79039D01*
X878459Y85671D02*
X866521Y79039D01*
X866521Y85671D02*
X878459Y85671D01*
X878459Y92450D02*
X866521Y92450D01*
X866521Y95766D01*
X866523Y95879D01*
X866529Y95992D01*
X866538Y96105D01*
X866552Y96218D01*
X866569Y96329D01*
X866590Y96441D01*
X866615Y96551D01*
X866644Y96661D01*
X866676Y96769D01*
X866712Y96876D01*
X866752Y96982D01*
X866796Y97087D01*
X866842Y97190D01*
X866893Y97292D01*
X866947Y97391D01*
X867004Y97489D01*
X867064Y97585D01*
X867128Y97678D01*
X867195Y97770D01*
X867265Y97859D01*
X867338Y97945D01*
X867414Y98029D01*
X867492Y98111D01*
X867574Y98189D01*
X867658Y98265D01*
X867744Y98338D01*
X867833Y98408D01*
X867925Y98475D01*
X868018Y98539D01*
X868114Y98599D01*
X868212Y98656D01*
X868311Y98710D01*
X868413Y98761D01*
X868516Y98807D01*
X868621Y98851D01*
X868727Y98891D01*
X868834Y98927D01*
X868942Y98959D01*
X869052Y98988D01*
X869162Y99013D01*
X869274Y99034D01*
X869385Y99051D01*
X869498Y99065D01*
X869611Y99074D01*
X869724Y99080D01*
X869837Y99082D01*
X869837Y99083D02*
X875143Y99083D01*
X875143Y99082D02*
X875256Y99080D01*
X875369Y99074D01*
X875482Y99065D01*
X875595Y99051D01*
X875706Y99034D01*
X875818Y99013D01*
X875928Y98988D01*
X876038Y98959D01*
X876146Y98927D01*
X876253Y98891D01*
X876359Y98851D01*
X876464Y98807D01*
X876567Y98761D01*
X876669Y98710D01*
X876768Y98656D01*
X876866Y98599D01*
X876962Y98539D01*
X877055Y98475D01*
X877147Y98408D01*
X877236Y98338D01*
X877322Y98265D01*
X877406Y98189D01*
X877488Y98111D01*
X877566Y98029D01*
X877642Y97945D01*
X877715Y97859D01*
X877785Y97770D01*
X877852Y97678D01*
X877916Y97585D01*
X877976Y97489D01*
X878033Y97391D01*
X878087Y97292D01*
X878138Y97190D01*
X878184Y97087D01*
X878228Y96982D01*
X878268Y96876D01*
X878304Y96769D01*
X878336Y96661D01*
X878365Y96551D01*
X878390Y96441D01*
X878411Y96329D01*
X878428Y96218D01*
X878442Y96105D01*
X878451Y95992D01*
X878457Y95879D01*
X878459Y95766D01*
X878459Y92450D01*
D12*
X320715Y31242D02*
X318795Y36999D01*
X322634Y36999D02*
X320715Y31242D01*
X326545Y37959D02*
X328944Y39878D01*
X328944Y31242D01*
X326545Y31242D02*
X331343Y31242D01*
X335105Y31242D02*
X335105Y31722D01*
X335585Y31722D01*
X335585Y31242D01*
X335105Y31242D01*
X339346Y35560D02*
X339348Y35730D01*
X339354Y35900D01*
X339364Y36069D01*
X339378Y36239D01*
X339397Y36408D01*
X339419Y36576D01*
X339445Y36744D01*
X339475Y36911D01*
X339510Y37077D01*
X339548Y37243D01*
X339590Y37408D01*
X339636Y37571D01*
X339686Y37734D01*
X339740Y37895D01*
X339797Y38055D01*
X339859Y38213D01*
X339924Y38370D01*
X339993Y38525D01*
X340066Y38679D01*
X340067Y38679D02*
X340095Y38755D01*
X340127Y38830D01*
X340162Y38904D01*
X340200Y38976D01*
X340242Y39046D01*
X340287Y39114D01*
X340335Y39180D01*
X340386Y39244D01*
X340440Y39305D01*
X340496Y39364D01*
X340556Y39420D01*
X340617Y39473D01*
X340681Y39523D01*
X340748Y39571D01*
X340816Y39615D01*
X340887Y39656D01*
X340959Y39694D01*
X341033Y39728D01*
X341108Y39759D01*
X341185Y39787D01*
X341263Y39811D01*
X341342Y39831D01*
X341422Y39848D01*
X341502Y39861D01*
X341583Y39871D01*
X341664Y39876D01*
X341746Y39878D01*
X341828Y39876D01*
X341909Y39871D01*
X341990Y39861D01*
X342070Y39848D01*
X342150Y39831D01*
X342229Y39811D01*
X342307Y39787D01*
X342384Y39759D01*
X342459Y39728D01*
X342533Y39694D01*
X342605Y39656D01*
X342676Y39615D01*
X342744Y39571D01*
X342811Y39523D01*
X342875Y39473D01*
X342936Y39420D01*
X342996Y39364D01*
X343052Y39305D01*
X343106Y39244D01*
X343157Y39180D01*
X343205Y39114D01*
X343250Y39046D01*
X343292Y38976D01*
X343330Y38904D01*
X343365Y38830D01*
X343397Y38755D01*
X343425Y38679D01*
X343498Y38525D01*
X343567Y38370D01*
X343632Y38213D01*
X343694Y38055D01*
X343751Y37895D01*
X343805Y37734D01*
X343855Y37571D01*
X343901Y37408D01*
X343943Y37243D01*
X343981Y37077D01*
X344016Y36911D01*
X344046Y36744D01*
X344072Y36576D01*
X344094Y36408D01*
X344113Y36239D01*
X344127Y36069D01*
X344137Y35900D01*
X344143Y35730D01*
X344145Y35560D01*
X339347Y35560D02*
X339349Y35390D01*
X339355Y35220D01*
X339365Y35051D01*
X339379Y34881D01*
X339398Y34712D01*
X339420Y34544D01*
X339446Y34376D01*
X339476Y34209D01*
X339511Y34043D01*
X339549Y33877D01*
X339591Y33712D01*
X339637Y33549D01*
X339687Y33387D01*
X339741Y33225D01*
X339798Y33066D01*
X339860Y32907D01*
X339925Y32750D01*
X339994Y32595D01*
X340067Y32441D01*
X340095Y32365D01*
X340127Y32290D01*
X340162Y32216D01*
X340200Y32144D01*
X340242Y32074D01*
X340287Y32006D01*
X340335Y31940D01*
X340386Y31876D01*
X340440Y31815D01*
X340496Y31756D01*
X340556Y31700D01*
X340617Y31647D01*
X340681Y31597D01*
X340748Y31549D01*
X340816Y31505D01*
X340887Y31464D01*
X340959Y31426D01*
X341033Y31392D01*
X341108Y31361D01*
X341185Y31333D01*
X341263Y31309D01*
X341342Y31289D01*
X341422Y31272D01*
X341502Y31259D01*
X341583Y31249D01*
X341664Y31244D01*
X341746Y31242D01*
X343425Y32441D02*
X343498Y32595D01*
X343567Y32750D01*
X343632Y32907D01*
X343694Y33066D01*
X343751Y33225D01*
X343805Y33387D01*
X343855Y33549D01*
X343901Y33712D01*
X343943Y33877D01*
X343981Y34043D01*
X344016Y34209D01*
X344046Y34376D01*
X344072Y34544D01*
X344094Y34712D01*
X344113Y34881D01*
X344127Y35051D01*
X344137Y35220D01*
X344143Y35390D01*
X344145Y35560D01*
X343425Y32441D02*
X343397Y32365D01*
X343365Y32290D01*
X343330Y32216D01*
X343292Y32144D01*
X343250Y32074D01*
X343205Y32006D01*
X343157Y31940D01*
X343106Y31876D01*
X343052Y31815D01*
X342996Y31756D01*
X342936Y31700D01*
X342875Y31647D01*
X342811Y31597D01*
X342744Y31549D01*
X342676Y31505D01*
X342605Y31464D01*
X342533Y31426D01*
X342459Y31392D01*
X342384Y31361D01*
X342307Y31333D01*
X342229Y31309D01*
X342150Y31289D01*
X342070Y31272D01*
X341990Y31259D01*
X341909Y31249D01*
X341828Y31244D01*
X341746Y31242D01*
X339827Y33161D02*
X343665Y37959D01*
D13*
X41416Y44581D02*
X35687Y44581D01*
X41416Y44581D02*
X41494Y44579D01*
X41572Y44574D01*
X41649Y44564D01*
X41726Y44551D01*
X41802Y44535D01*
X41877Y44515D01*
X41951Y44491D01*
X42024Y44464D01*
X42096Y44433D01*
X42166Y44399D01*
X42235Y44362D01*
X42301Y44321D01*
X42366Y44277D01*
X42428Y44231D01*
X42488Y44181D01*
X42546Y44129D01*
X42601Y44074D01*
X42653Y44016D01*
X42703Y43956D01*
X42749Y43894D01*
X42793Y43829D01*
X42834Y43763D01*
X42871Y43694D01*
X42905Y43624D01*
X42936Y43552D01*
X42963Y43479D01*
X42987Y43405D01*
X43007Y43330D01*
X43023Y43254D01*
X43036Y43177D01*
X43046Y43100D01*
X43051Y43022D01*
X43053Y42944D01*
X43053Y42125D01*
X43053Y48275D02*
X35687Y48275D01*
X43053Y48275D02*
X43053Y51548D01*
X43053Y55969D02*
X43053Y57606D01*
X43053Y55969D02*
X43051Y55891D01*
X43046Y55813D01*
X43036Y55736D01*
X43023Y55659D01*
X43007Y55583D01*
X42987Y55508D01*
X42963Y55434D01*
X42936Y55361D01*
X42905Y55289D01*
X42871Y55219D01*
X42834Y55151D01*
X42793Y55084D01*
X42749Y55019D01*
X42703Y54957D01*
X42653Y54897D01*
X42601Y54839D01*
X42546Y54784D01*
X42488Y54732D01*
X42428Y54682D01*
X42366Y54636D01*
X42301Y54592D01*
X42235Y54551D01*
X42166Y54514D01*
X42096Y54480D01*
X42024Y54449D01*
X41951Y54422D01*
X41877Y54398D01*
X41802Y54378D01*
X41726Y54362D01*
X41649Y54349D01*
X41572Y54339D01*
X41494Y54334D01*
X41416Y54332D01*
X37324Y54332D01*
X37244Y54334D01*
X37164Y54340D01*
X37084Y54350D01*
X37005Y54363D01*
X36926Y54381D01*
X36849Y54402D01*
X36773Y54428D01*
X36698Y54457D01*
X36624Y54489D01*
X36552Y54525D01*
X36482Y54565D01*
X36415Y54608D01*
X36349Y54654D01*
X36286Y54704D01*
X36225Y54756D01*
X36166Y54811D01*
X36111Y54870D01*
X36059Y54930D01*
X36009Y54994D01*
X35963Y55059D01*
X35920Y55127D01*
X35880Y55197D01*
X35844Y55269D01*
X35812Y55343D01*
X35783Y55417D01*
X35758Y55494D01*
X35736Y55571D01*
X35718Y55650D01*
X35705Y55729D01*
X35695Y55808D01*
X35689Y55889D01*
X35687Y55969D01*
X35687Y57606D01*
X35687Y62137D02*
X41416Y62137D01*
X41494Y62135D01*
X41572Y62130D01*
X41649Y62120D01*
X41726Y62107D01*
X41802Y62091D01*
X41877Y62071D01*
X41951Y62047D01*
X42024Y62020D01*
X42096Y61989D01*
X42166Y61955D01*
X42235Y61918D01*
X42301Y61877D01*
X42366Y61833D01*
X42428Y61787D01*
X42488Y61737D01*
X42546Y61685D01*
X42601Y61630D01*
X42653Y61572D01*
X42703Y61512D01*
X42749Y61450D01*
X42793Y61385D01*
X42834Y61319D01*
X42871Y61250D01*
X42905Y61180D01*
X42936Y61108D01*
X42963Y61035D01*
X42987Y60961D01*
X43007Y60886D01*
X43023Y60810D01*
X43036Y60733D01*
X43046Y60656D01*
X43051Y60578D01*
X43053Y60500D01*
X43053Y59682D01*
X43053Y65831D02*
X35687Y65831D01*
X43053Y65831D02*
X43053Y69105D01*
X43053Y73525D02*
X43053Y75162D01*
X43053Y73525D02*
X43051Y73447D01*
X43046Y73369D01*
X43036Y73292D01*
X43023Y73215D01*
X43007Y73139D01*
X42987Y73064D01*
X42963Y72990D01*
X42936Y72917D01*
X42905Y72845D01*
X42871Y72775D01*
X42834Y72707D01*
X42793Y72640D01*
X42749Y72575D01*
X42703Y72513D01*
X42653Y72453D01*
X42601Y72395D01*
X42546Y72340D01*
X42488Y72288D01*
X42428Y72238D01*
X42366Y72192D01*
X42301Y72148D01*
X42235Y72107D01*
X42166Y72070D01*
X42096Y72036D01*
X42024Y72005D01*
X41951Y71978D01*
X41877Y71954D01*
X41802Y71934D01*
X41726Y71918D01*
X41649Y71905D01*
X41572Y71895D01*
X41494Y71890D01*
X41416Y71888D01*
X37324Y71888D01*
X37244Y71890D01*
X37164Y71896D01*
X37084Y71906D01*
X37005Y71919D01*
X36926Y71937D01*
X36849Y71958D01*
X36773Y71984D01*
X36698Y72013D01*
X36624Y72045D01*
X36552Y72081D01*
X36482Y72121D01*
X36415Y72164D01*
X36349Y72210D01*
X36286Y72260D01*
X36225Y72312D01*
X36166Y72367D01*
X36111Y72426D01*
X36059Y72486D01*
X36009Y72550D01*
X35963Y72615D01*
X35920Y72683D01*
X35880Y72753D01*
X35844Y72825D01*
X35812Y72899D01*
X35783Y72973D01*
X35758Y73050D01*
X35736Y73127D01*
X35718Y73206D01*
X35705Y73285D01*
X35695Y73364D01*
X35689Y73445D01*
X35687Y73525D01*
X35687Y75162D01*
X35687Y79693D02*
X41416Y79693D01*
X41416Y79694D02*
X41494Y79692D01*
X41572Y79687D01*
X41649Y79677D01*
X41726Y79664D01*
X41802Y79648D01*
X41877Y79628D01*
X41951Y79604D01*
X42024Y79577D01*
X42096Y79546D01*
X42166Y79512D01*
X42235Y79475D01*
X42301Y79434D01*
X42366Y79390D01*
X42428Y79344D01*
X42488Y79294D01*
X42546Y79242D01*
X42601Y79187D01*
X42653Y79129D01*
X42703Y79069D01*
X42749Y79007D01*
X42793Y78942D01*
X42834Y78876D01*
X42871Y78807D01*
X42905Y78737D01*
X42936Y78665D01*
X42963Y78592D01*
X42987Y78518D01*
X43007Y78443D01*
X43023Y78367D01*
X43036Y78290D01*
X43046Y78213D01*
X43051Y78135D01*
X43053Y78057D01*
X43053Y77238D01*
X43053Y83387D02*
X35687Y83387D01*
X43053Y83387D02*
X43053Y86661D01*
X43053Y91081D02*
X43053Y92718D01*
X43053Y91081D02*
X43051Y91003D01*
X43046Y90925D01*
X43036Y90848D01*
X43023Y90771D01*
X43007Y90695D01*
X42987Y90620D01*
X42963Y90546D01*
X42936Y90473D01*
X42905Y90401D01*
X42871Y90331D01*
X42834Y90263D01*
X42793Y90196D01*
X42749Y90131D01*
X42703Y90069D01*
X42653Y90009D01*
X42601Y89951D01*
X42546Y89896D01*
X42488Y89844D01*
X42428Y89794D01*
X42366Y89748D01*
X42301Y89704D01*
X42235Y89663D01*
X42166Y89626D01*
X42096Y89592D01*
X42024Y89561D01*
X41951Y89534D01*
X41877Y89510D01*
X41802Y89490D01*
X41726Y89474D01*
X41649Y89461D01*
X41572Y89451D01*
X41494Y89446D01*
X41416Y89444D01*
X41416Y89445D02*
X37324Y89445D01*
X37244Y89447D01*
X37164Y89453D01*
X37084Y89463D01*
X37005Y89476D01*
X36926Y89494D01*
X36849Y89515D01*
X36773Y89541D01*
X36698Y89570D01*
X36624Y89602D01*
X36552Y89638D01*
X36482Y89678D01*
X36415Y89721D01*
X36349Y89767D01*
X36286Y89817D01*
X36225Y89869D01*
X36166Y89924D01*
X36111Y89983D01*
X36059Y90043D01*
X36009Y90107D01*
X35963Y90172D01*
X35920Y90240D01*
X35880Y90310D01*
X35844Y90382D01*
X35812Y90456D01*
X35783Y90530D01*
X35758Y90607D01*
X35736Y90684D01*
X35718Y90763D01*
X35705Y90842D01*
X35695Y90921D01*
X35689Y91002D01*
X35687Y91082D01*
X35687Y91081D02*
X35687Y92718D01*
X35687Y97250D02*
X41416Y97250D01*
X41494Y97248D01*
X41572Y97243D01*
X41649Y97233D01*
X41726Y97220D01*
X41802Y97204D01*
X41877Y97184D01*
X41951Y97160D01*
X42024Y97133D01*
X42096Y97102D01*
X42166Y97068D01*
X42235Y97031D01*
X42301Y96990D01*
X42366Y96946D01*
X42428Y96900D01*
X42488Y96850D01*
X42546Y96798D01*
X42601Y96743D01*
X42653Y96685D01*
X42703Y96625D01*
X42749Y96563D01*
X42793Y96498D01*
X42834Y96432D01*
X42871Y96363D01*
X42905Y96293D01*
X42936Y96221D01*
X42963Y96148D01*
X42987Y96074D01*
X43007Y95999D01*
X43023Y95923D01*
X43036Y95846D01*
X43046Y95769D01*
X43051Y95691D01*
X43053Y95613D01*
X43053Y94794D01*
X43053Y100944D02*
X35687Y100944D01*
X43053Y100944D02*
X43053Y104218D01*
X43053Y108638D02*
X43053Y110275D01*
X43053Y108638D02*
X43051Y108560D01*
X43046Y108482D01*
X43036Y108405D01*
X43023Y108328D01*
X43007Y108252D01*
X42987Y108177D01*
X42963Y108103D01*
X42936Y108030D01*
X42905Y107958D01*
X42871Y107888D01*
X42834Y107820D01*
X42793Y107753D01*
X42749Y107688D01*
X42703Y107626D01*
X42653Y107566D01*
X42601Y107508D01*
X42546Y107453D01*
X42488Y107401D01*
X42428Y107351D01*
X42366Y107305D01*
X42301Y107261D01*
X42235Y107220D01*
X42166Y107183D01*
X42096Y107149D01*
X42024Y107118D01*
X41951Y107091D01*
X41877Y107067D01*
X41802Y107047D01*
X41726Y107031D01*
X41649Y107018D01*
X41572Y107008D01*
X41494Y107003D01*
X41416Y107001D01*
X37324Y107001D01*
X37244Y107003D01*
X37164Y107009D01*
X37084Y107019D01*
X37005Y107032D01*
X36926Y107050D01*
X36849Y107071D01*
X36773Y107097D01*
X36698Y107126D01*
X36624Y107158D01*
X36552Y107194D01*
X36482Y107234D01*
X36415Y107277D01*
X36349Y107323D01*
X36286Y107373D01*
X36225Y107425D01*
X36166Y107480D01*
X36111Y107539D01*
X36059Y107599D01*
X36009Y107663D01*
X35963Y107728D01*
X35920Y107796D01*
X35880Y107866D01*
X35844Y107938D01*
X35812Y108012D01*
X35783Y108086D01*
X35758Y108163D01*
X35736Y108240D01*
X35718Y108319D01*
X35705Y108398D01*
X35695Y108477D01*
X35689Y108558D01*
X35687Y108638D01*
X35687Y110275D01*
D14*
X247345Y28042D03*
D15*
X247345Y28346D03*
D16*
X247345Y28651D03*
D17*
X247345Y28956D03*
D18*
X247345Y29261D03*
D19*
X247345Y29566D03*
D20*
X197206Y29870D03*
D21*
X217018Y29870D03*
D22*
X251308Y29870D03*
D23*
X286360Y29870D03*
D24*
X196596Y30175D03*
D25*
X208026Y30175D03*
D26*
X224485Y30175D03*
D27*
X235915Y30175D03*
D28*
X240792Y30175D03*
X248107Y30175D03*
D29*
X255880Y30175D03*
D30*
X265024Y30175D03*
D31*
X287122Y30175D03*
D32*
X195986Y30480D03*
D30*
X208636Y30480D03*
D33*
X224790Y30480D03*
D34*
X236372Y30480D03*
D35*
X240944Y30480D03*
D36*
X248260Y30480D03*
D32*
X256032Y30480D03*
D24*
X264566Y30480D03*
D37*
X277368Y30480D03*
D38*
X286360Y30480D03*
D39*
X296875Y30480D03*
D40*
X195834Y30785D03*
D41*
X209093Y30785D03*
D42*
X225095Y30785D03*
D43*
X241097Y30785D03*
X248412Y30785D03*
D40*
X256184Y30785D03*
D44*
X264414Y30785D03*
D41*
X277978Y30785D03*
D45*
X286512Y30785D03*
D46*
X296875Y30785D03*
D47*
X195682Y31090D03*
D38*
X209550Y31090D03*
D30*
X225400Y31090D03*
D35*
X241249Y31090D03*
D36*
X248564Y31090D03*
D48*
X256184Y31090D03*
X264414Y31090D03*
D32*
X278282Y31090D03*
X286512Y31090D03*
D49*
X297028Y31090D03*
D50*
X195529Y31394D03*
D40*
X209855Y31394D03*
D51*
X225400Y31394D03*
D52*
X241249Y31394D03*
D43*
X248717Y31394D03*
D40*
X256489Y31394D03*
D53*
X264262Y31394D03*
D54*
X278740Y31394D03*
D53*
X286512Y31394D03*
D55*
X297028Y31394D03*
D28*
X195377Y31699D03*
D29*
X210160Y31699D03*
D38*
X225704Y31699D03*
D35*
X241554Y31699D03*
D36*
X248869Y31699D03*
D48*
X256489Y31699D03*
D36*
X264109Y31699D03*
D47*
X278892Y31699D03*
X286512Y31699D03*
D56*
X297180Y31699D03*
D28*
X195377Y32004D03*
D36*
X210464Y32004D03*
D48*
X225704Y32004D03*
D35*
X241554Y32004D03*
D28*
X249022Y32004D03*
D48*
X256794Y32004D03*
D28*
X264262Y32004D03*
D36*
X279349Y32004D03*
X286664Y32004D03*
D56*
X297180Y32004D03*
D52*
X195224Y32309D03*
D50*
X210769Y32309D03*
X226009Y32309D03*
D52*
X241859Y32309D03*
D50*
X249174Y32309D03*
D40*
X256794Y32309D03*
D52*
X264109Y32309D03*
D43*
X279502Y32309D03*
X286512Y32309D03*
D42*
X297332Y32309D03*
D35*
X195224Y32614D03*
D57*
X202997Y32614D03*
D28*
X210922Y32614D03*
X226162Y32614D03*
X234086Y32614D03*
D35*
X241859Y32614D03*
D36*
X249174Y32614D03*
D58*
X256946Y32614D03*
D59*
X264262Y32614D03*
X271882Y32614D03*
D28*
X279806Y32614D03*
D35*
X286664Y32614D03*
D60*
X297332Y32614D03*
D52*
X195224Y32918D03*
D40*
X203149Y32918D03*
D43*
X211226Y32918D03*
D50*
X218389Y32918D03*
D52*
X226314Y32918D03*
D45*
X234391Y32918D03*
D52*
X242164Y32918D03*
D50*
X249479Y32918D03*
D40*
X257099Y32918D03*
D61*
X264262Y32918D03*
D40*
X272034Y32918D03*
D52*
X279959Y32918D03*
X286664Y32918D03*
D62*
X297485Y32918D03*
D35*
X195224Y33223D03*
D38*
X203454Y33223D03*
D35*
X211379Y33223D03*
D58*
X218846Y33223D03*
D57*
X226466Y33223D03*
D24*
X234391Y33223D03*
D35*
X242164Y33223D03*
D36*
X249479Y33223D03*
X257099Y33223D03*
D59*
X264262Y33223D03*
D38*
X272339Y33223D03*
D35*
X280264Y33223D03*
D57*
X286817Y33223D03*
D63*
X297485Y33223D03*
D35*
X195224Y33528D03*
D64*
X203454Y33528D03*
D35*
X211684Y33528D03*
D48*
X218999Y33528D03*
D65*
X226619Y33528D03*
D36*
X233629Y33528D03*
D35*
X242468Y33528D03*
D36*
X249784Y33528D03*
D59*
X264262Y33528D03*
D66*
X272339Y33528D03*
D57*
X280416Y33528D03*
D65*
X286664Y33528D03*
D25*
X297637Y33528D03*
D43*
X195377Y33833D03*
D67*
X203606Y33833D03*
D52*
X211684Y33833D03*
D54*
X219304Y33833D03*
D68*
X226619Y33833D03*
D50*
X233629Y33833D03*
D52*
X242468Y33833D03*
D50*
X249784Y33833D03*
D52*
X264414Y33833D03*
D67*
X272491Y33833D03*
D52*
X280568Y33833D03*
D69*
X286817Y33833D03*
D70*
X297637Y33833D03*
D28*
X195377Y34138D03*
D66*
X203759Y34138D03*
D57*
X211836Y34138D03*
D32*
X219456Y34138D03*
D71*
X226924Y34138D03*
D28*
X233782Y34138D03*
D35*
X242773Y34138D03*
D28*
X249936Y34138D03*
D35*
X264414Y34138D03*
D64*
X272644Y34138D03*
D57*
X280721Y34138D03*
D27*
X286817Y34138D03*
D72*
X297790Y34138D03*
D43*
X195377Y34442D03*
D67*
X203911Y34442D03*
D73*
X212141Y34442D03*
D45*
X219761Y34442D03*
D69*
X227076Y34442D03*
D50*
X233934Y34442D03*
D52*
X242773Y34442D03*
D50*
X250088Y34442D03*
D43*
X264262Y34442D03*
D67*
X272796Y34442D03*
D74*
X280873Y34442D03*
D75*
X286817Y34442D03*
D20*
X297790Y34442D03*
D36*
X195529Y34747D03*
D30*
X204064Y34747D03*
D57*
X212141Y34747D03*
D32*
X219761Y34747D03*
D27*
X227076Y34747D03*
D36*
X233934Y34747D03*
D35*
X243078Y34747D03*
D28*
X250241Y34747D03*
D48*
X264109Y34747D03*
D30*
X272948Y34747D03*
D59*
X281026Y34747D03*
D76*
X286817Y34747D03*
D30*
X297942Y34747D03*
D36*
X195529Y35052D03*
D37*
X204216Y35052D03*
D59*
X212446Y35052D03*
D32*
X220066Y35052D03*
D27*
X227381Y35052D03*
D36*
X234239Y35052D03*
D35*
X243078Y35052D03*
D36*
X250393Y35052D03*
D47*
X264262Y35052D03*
D37*
X273101Y35052D03*
D71*
X281178Y35052D03*
D34*
X286969Y35052D03*
D30*
X297942Y35052D03*
D50*
X195529Y35357D03*
D77*
X204368Y35357D03*
D61*
X212446Y35357D03*
D45*
X220066Y35357D03*
D69*
X227381Y35357D03*
D50*
X234239Y35357D03*
D43*
X243230Y35357D03*
X250546Y35357D03*
D52*
X264719Y35357D03*
D77*
X273253Y35357D03*
D73*
X281330Y35357D03*
D78*
X286817Y35357D03*
D77*
X297942Y35357D03*
D47*
X195682Y35662D03*
D37*
X204521Y35662D03*
D57*
X212750Y35662D03*
D32*
X220370Y35662D03*
D27*
X227686Y35662D03*
D36*
X234544Y35662D03*
D35*
X243383Y35662D03*
D36*
X250698Y35662D03*
D35*
X265024Y35662D03*
D79*
X273406Y35662D03*
D65*
X281483Y35662D03*
D80*
X286817Y35662D03*
D81*
X290932Y35662D03*
D37*
X298094Y35662D03*
D40*
X195834Y35966D03*
D67*
X204521Y35966D03*
D73*
X212750Y35966D03*
D45*
X220370Y35966D03*
D74*
X227838Y35966D03*
D82*
X238963Y35966D03*
D43*
X250850Y35966D03*
D52*
X258013Y35966D03*
D73*
X265481Y35966D03*
D83*
X273406Y35966D03*
D73*
X281635Y35966D03*
D84*
X290932Y35966D03*
D67*
X298094Y35966D03*
D48*
X195834Y36271D03*
D79*
X204826Y36271D03*
D57*
X213055Y36271D03*
D48*
X220523Y36271D03*
D71*
X227838Y36271D03*
D85*
X239116Y36271D03*
D36*
X251003Y36271D03*
D48*
X258623Y36271D03*
D71*
X265633Y36271D03*
D37*
X273710Y36271D03*
D71*
X281788Y36271D03*
D76*
X291084Y36271D03*
D66*
X298247Y36271D03*
D32*
X195986Y36576D03*
D64*
X204978Y36576D03*
D57*
X213055Y36576D03*
D32*
X220675Y36576D03*
D65*
X228143Y36576D03*
D85*
X239420Y36576D03*
D28*
X251155Y36576D03*
D29*
X258928Y36576D03*
D59*
X265786Y36576D03*
D66*
X273863Y36576D03*
D57*
X281940Y36576D03*
D76*
X291084Y36576D03*
D66*
X298247Y36576D03*
D44*
X196139Y36881D03*
D41*
X205130Y36881D03*
D52*
X213208Y36881D03*
D53*
X220675Y36881D03*
D73*
X228295Y36881D03*
D44*
X236068Y36881D03*
D43*
X243840Y36881D03*
D50*
X251308Y36881D03*
D54*
X258928Y36881D03*
D73*
X266090Y36881D03*
D41*
X274015Y36881D03*
D73*
X281940Y36881D03*
D69*
X291084Y36881D03*
D41*
X298399Y36881D03*
D38*
X196139Y37186D03*
X205283Y37186D03*
D35*
X213208Y37186D03*
D47*
X220675Y37186D03*
D57*
X228295Y37186D03*
D32*
X236220Y37186D03*
D28*
X244145Y37186D03*
X251460Y37186D03*
D48*
X259232Y37186D03*
D65*
X266243Y37186D03*
D38*
X274168Y37186D03*
D35*
X282092Y37186D03*
D27*
X291084Y37186D03*
D24*
X298399Y37186D03*
D41*
X196291Y37490D03*
D53*
X205435Y37490D03*
D43*
X213360Y37490D03*
X220675Y37490D03*
D52*
X228448Y37490D03*
D50*
X236372Y37490D03*
D43*
X244145Y37490D03*
D50*
X251612Y37490D03*
D40*
X259232Y37490D03*
D73*
X266395Y37490D03*
D53*
X274320Y37490D03*
D52*
X282092Y37490D03*
D68*
X291236Y37490D03*
D44*
X298552Y37490D03*
D64*
X196444Y37795D03*
D57*
X205435Y37795D03*
D28*
X213360Y37795D03*
X228600Y37795D03*
D57*
X236525Y37795D03*
D28*
X244145Y37795D03*
X251765Y37795D03*
D57*
X266700Y37795D03*
X274320Y37795D03*
D28*
X282245Y37795D03*
D57*
X291084Y37795D03*
D38*
X298552Y37795D03*
D30*
X196748Y38100D03*
D36*
X213512Y38100D03*
X228752Y38100D03*
X244297Y38100D03*
X251917Y38100D03*
D28*
X267005Y38100D03*
X282245Y38100D03*
D35*
X291236Y38100D03*
D32*
X298704Y38100D03*
D20*
X196901Y38405D03*
D50*
X213512Y38405D03*
D40*
X229057Y38405D03*
D50*
X244297Y38405D03*
D43*
X252070Y38405D03*
D50*
X267157Y38405D03*
X282397Y38405D03*
D52*
X291236Y38405D03*
D45*
X298704Y38405D03*
D25*
X197053Y38710D03*
D48*
X213512Y38710D03*
D38*
X229057Y38710D03*
D48*
X244297Y38710D03*
D36*
X252222Y38710D03*
D47*
X267310Y38710D03*
D58*
X282245Y38710D03*
D36*
X291236Y38710D03*
D48*
X298856Y38710D03*
D42*
X197358Y39014D03*
D45*
X213360Y39014D03*
D51*
X229362Y39014D03*
D40*
X244297Y39014D03*
D50*
X252222Y39014D03*
D45*
X267614Y39014D03*
X282245Y39014D03*
D50*
X291236Y39014D03*
D40*
X298856Y39014D03*
D49*
X197663Y39319D03*
D38*
X213512Y39319D03*
D30*
X229362Y39319D03*
D38*
X244297Y39319D03*
D36*
X252527Y39319D03*
D66*
X267767Y39319D03*
D32*
X282245Y39319D03*
D58*
X291389Y39319D03*
X299009Y39319D03*
D33*
X197968Y39624D03*
D64*
X213208Y39624D03*
D56*
X229514Y39624D03*
D24*
X244145Y39624D03*
D36*
X252527Y39624D03*
D72*
X267919Y39624D03*
D66*
X282092Y39624D03*
D48*
X291236Y39624D03*
D58*
X299009Y39624D03*
D86*
X198272Y39929D03*
D77*
X213208Y39929D03*
D87*
X229667Y39929D03*
D67*
X244145Y39929D03*
D50*
X252832Y39929D03*
D88*
X268072Y39929D03*
D67*
X281940Y39929D03*
D45*
X291389Y39929D03*
D50*
X299161Y39929D03*
D26*
X198882Y40234D03*
D63*
X212750Y40234D03*
D89*
X229667Y40234D03*
D25*
X243688Y40234D03*
D36*
X252832Y40234D03*
D90*
X268072Y40234D03*
D91*
X281635Y40234D03*
D32*
X291389Y40234D03*
D36*
X299161Y40234D03*
D92*
X199796Y40538D03*
D93*
X222352Y40538D03*
D94*
X256946Y40538D03*
D95*
X280873Y40538D03*
D41*
X291389Y40538D03*
D43*
X299314Y40538D03*
D96*
X247345Y40843D03*
X247345Y41148D03*
D97*
X247345Y41453D03*
D98*
X247345Y41758D03*
D99*
X247345Y42062D03*
D16*
X247345Y42367D03*
D100*
X247345Y42672D03*
D101*
X247345Y42977D03*
D102*
X839374Y42799D02*
X839374Y35941D01*
X839374Y42799D02*
X842422Y42799D01*
X842422Y39751D02*
X839374Y39751D01*
X845449Y37465D02*
X846973Y42799D01*
X845449Y37465D02*
X849259Y37465D01*
X848116Y38989D02*
X848116Y35941D01*
X852413Y35941D02*
X855461Y40513D01*
X852413Y40513D02*
X855461Y35941D01*
X858616Y41275D02*
X860521Y42799D01*
X860521Y35941D01*
X858616Y35941D02*
X862426Y35941D01*
X189230Y36830D02*
X189230Y64770D01*
X189230Y36830D02*
X176530Y36830D01*
X176530Y64770D01*
X189230Y64770D01*
X797560Y82550D02*
X797560Y105410D01*
X797560Y82550D02*
X797558Y82450D01*
X797552Y82351D01*
X797542Y82251D01*
X797529Y82153D01*
X797511Y82054D01*
X797490Y81957D01*
X797465Y81861D01*
X797436Y81765D01*
X797403Y81671D01*
X797367Y81578D01*
X797327Y81487D01*
X797283Y81397D01*
X797236Y81309D01*
X797186Y81223D01*
X797132Y81139D01*
X797075Y81057D01*
X797015Y80978D01*
X796951Y80900D01*
X796885Y80826D01*
X796816Y80754D01*
X796744Y80685D01*
X796670Y80619D01*
X796592Y80555D01*
X796513Y80495D01*
X796431Y80438D01*
X796347Y80384D01*
X796261Y80334D01*
X796173Y80287D01*
X796083Y80243D01*
X795992Y80203D01*
X795899Y80167D01*
X795805Y80134D01*
X795709Y80105D01*
X795613Y80080D01*
X795516Y80059D01*
X795417Y80041D01*
X795319Y80028D01*
X795219Y80018D01*
X795120Y80012D01*
X795020Y80010D01*
X787400Y80010D01*
X787300Y80012D01*
X787201Y80018D01*
X787101Y80028D01*
X787003Y80041D01*
X786904Y80059D01*
X786807Y80080D01*
X786711Y80105D01*
X786615Y80134D01*
X786521Y80167D01*
X786428Y80203D01*
X786337Y80243D01*
X786247Y80287D01*
X786159Y80334D01*
X786073Y80384D01*
X785989Y80438D01*
X785907Y80495D01*
X785828Y80555D01*
X785750Y80619D01*
X785676Y80685D01*
X785604Y80754D01*
X785535Y80826D01*
X785469Y80900D01*
X785405Y80978D01*
X785345Y81057D01*
X785288Y81139D01*
X785234Y81223D01*
X785184Y81309D01*
X785137Y81397D01*
X785093Y81487D01*
X785053Y81578D01*
X785017Y81671D01*
X784984Y81765D01*
X784955Y81861D01*
X784930Y81957D01*
X784909Y82054D01*
X784891Y82153D01*
X784878Y82251D01*
X784868Y82351D01*
X784862Y82450D01*
X784860Y82550D01*
X784860Y105410D01*
X784862Y105510D01*
X784868Y105609D01*
X784878Y105709D01*
X784891Y105807D01*
X784909Y105906D01*
X784930Y106003D01*
X784955Y106099D01*
X784984Y106195D01*
X785017Y106289D01*
X785053Y106382D01*
X785093Y106473D01*
X785137Y106563D01*
X785184Y106651D01*
X785234Y106737D01*
X785288Y106821D01*
X785345Y106903D01*
X785405Y106982D01*
X785469Y107060D01*
X785535Y107134D01*
X785604Y107206D01*
X785676Y107275D01*
X785750Y107341D01*
X785828Y107405D01*
X785907Y107465D01*
X785989Y107522D01*
X786073Y107576D01*
X786159Y107626D01*
X786247Y107673D01*
X786337Y107717D01*
X786428Y107757D01*
X786521Y107793D01*
X786615Y107826D01*
X786711Y107855D01*
X786807Y107880D01*
X786904Y107901D01*
X787003Y107919D01*
X787101Y107932D01*
X787201Y107942D01*
X787300Y107948D01*
X787400Y107950D01*
X795020Y107950D01*
X795120Y107948D01*
X795219Y107942D01*
X795319Y107932D01*
X795417Y107919D01*
X795516Y107901D01*
X795613Y107880D01*
X795709Y107855D01*
X795805Y107826D01*
X795899Y107793D01*
X795992Y107757D01*
X796083Y107717D01*
X796173Y107673D01*
X796261Y107626D01*
X796347Y107576D01*
X796431Y107522D01*
X796513Y107465D01*
X796592Y107405D01*
X796670Y107341D01*
X796744Y107275D01*
X796816Y107206D01*
X796885Y107134D01*
X796951Y107060D01*
X797015Y106982D01*
X797075Y106903D01*
X797132Y106821D01*
X797186Y106737D01*
X797236Y106651D01*
X797283Y106563D01*
X797327Y106473D01*
X797367Y106382D01*
X797403Y106289D01*
X797436Y106195D01*
X797465Y106099D01*
X797490Y106003D01*
X797511Y105906D01*
X797529Y105807D01*
X797542Y105709D01*
X797552Y105609D01*
X797558Y105510D01*
X797560Y105410D01*
D10*
X812586Y92200D02*
X815554Y92200D01*
X826570Y79438D02*
X826570Y72962D01*
X815554Y60200D02*
X812586Y60200D01*
X801570Y73216D02*
X801570Y79184D01*
D102*
X784860Y69850D02*
X784860Y46990D01*
X784860Y69850D02*
X784862Y69950D01*
X784868Y70049D01*
X784878Y70149D01*
X784891Y70247D01*
X784909Y70346D01*
X784930Y70443D01*
X784955Y70539D01*
X784984Y70635D01*
X785017Y70729D01*
X785053Y70822D01*
X785093Y70913D01*
X785137Y71003D01*
X785184Y71091D01*
X785234Y71177D01*
X785288Y71261D01*
X785345Y71343D01*
X785405Y71422D01*
X785469Y71500D01*
X785535Y71574D01*
X785604Y71646D01*
X785676Y71715D01*
X785750Y71781D01*
X785828Y71845D01*
X785907Y71905D01*
X785989Y71962D01*
X786073Y72016D01*
X786159Y72066D01*
X786247Y72113D01*
X786337Y72157D01*
X786428Y72197D01*
X786521Y72233D01*
X786615Y72266D01*
X786711Y72295D01*
X786807Y72320D01*
X786904Y72341D01*
X787003Y72359D01*
X787101Y72372D01*
X787201Y72382D01*
X787300Y72388D01*
X787400Y72390D01*
X795020Y72390D01*
X795120Y72388D01*
X795219Y72382D01*
X795319Y72372D01*
X795417Y72359D01*
X795516Y72341D01*
X795613Y72320D01*
X795709Y72295D01*
X795805Y72266D01*
X795899Y72233D01*
X795992Y72197D01*
X796083Y72157D01*
X796173Y72113D01*
X796261Y72066D01*
X796347Y72016D01*
X796431Y71962D01*
X796513Y71905D01*
X796592Y71845D01*
X796670Y71781D01*
X796744Y71715D01*
X796816Y71646D01*
X796885Y71574D01*
X796951Y71500D01*
X797015Y71422D01*
X797075Y71343D01*
X797132Y71261D01*
X797186Y71177D01*
X797236Y71091D01*
X797283Y71003D01*
X797327Y70913D01*
X797367Y70822D01*
X797403Y70729D01*
X797436Y70635D01*
X797465Y70539D01*
X797490Y70443D01*
X797511Y70346D01*
X797529Y70247D01*
X797542Y70149D01*
X797552Y70049D01*
X797558Y69950D01*
X797560Y69850D01*
X797560Y46990D01*
X797558Y46890D01*
X797552Y46791D01*
X797542Y46691D01*
X797529Y46593D01*
X797511Y46494D01*
X797490Y46397D01*
X797465Y46301D01*
X797436Y46205D01*
X797403Y46111D01*
X797367Y46018D01*
X797327Y45927D01*
X797283Y45837D01*
X797236Y45749D01*
X797186Y45663D01*
X797132Y45579D01*
X797075Y45497D01*
X797015Y45418D01*
X796951Y45340D01*
X796885Y45266D01*
X796816Y45194D01*
X796744Y45125D01*
X796670Y45059D01*
X796592Y44995D01*
X796513Y44935D01*
X796431Y44878D01*
X796347Y44824D01*
X796261Y44774D01*
X796173Y44727D01*
X796083Y44683D01*
X795992Y44643D01*
X795899Y44607D01*
X795805Y44574D01*
X795709Y44545D01*
X795613Y44520D01*
X795516Y44499D01*
X795417Y44481D01*
X795319Y44468D01*
X795219Y44458D01*
X795120Y44452D01*
X795020Y44450D01*
X787400Y44450D01*
X787300Y44452D01*
X787201Y44458D01*
X787101Y44468D01*
X787003Y44481D01*
X786904Y44499D01*
X786807Y44520D01*
X786711Y44545D01*
X786615Y44574D01*
X786521Y44607D01*
X786428Y44643D01*
X786337Y44683D01*
X786247Y44727D01*
X786159Y44774D01*
X786073Y44824D01*
X785989Y44878D01*
X785907Y44935D01*
X785828Y44995D01*
X785750Y45059D01*
X785676Y45125D01*
X785604Y45194D01*
X785535Y45266D01*
X785469Y45340D01*
X785405Y45418D01*
X785345Y45497D01*
X785288Y45579D01*
X785234Y45663D01*
X785184Y45749D01*
X785137Y45837D01*
X785093Y45927D01*
X785053Y46018D01*
X785017Y46111D01*
X784984Y46205D01*
X784955Y46301D01*
X784930Y46397D01*
X784909Y46494D01*
X784891Y46593D01*
X784878Y46691D01*
X784868Y46791D01*
X784862Y46890D01*
X784860Y46990D01*
X181610Y91440D02*
X153670Y91440D01*
X181610Y91440D02*
X181610Y78740D01*
X153670Y78740D01*
X153670Y91440D01*
X153670Y104140D02*
X181610Y104140D01*
X181610Y91440D01*
X153670Y91440D01*
X153670Y104140D01*
X787400Y110490D02*
X810260Y110490D01*
X787400Y110490D02*
X787300Y110492D01*
X787201Y110498D01*
X787101Y110508D01*
X787003Y110521D01*
X786904Y110539D01*
X786807Y110560D01*
X786711Y110585D01*
X786615Y110614D01*
X786521Y110647D01*
X786428Y110683D01*
X786337Y110723D01*
X786247Y110767D01*
X786159Y110814D01*
X786073Y110864D01*
X785989Y110918D01*
X785907Y110975D01*
X785828Y111035D01*
X785750Y111099D01*
X785676Y111165D01*
X785604Y111234D01*
X785535Y111306D01*
X785469Y111380D01*
X785405Y111458D01*
X785345Y111537D01*
X785288Y111619D01*
X785234Y111703D01*
X785184Y111789D01*
X785137Y111877D01*
X785093Y111967D01*
X785053Y112058D01*
X785017Y112151D01*
X784984Y112245D01*
X784955Y112341D01*
X784930Y112437D01*
X784909Y112534D01*
X784891Y112633D01*
X784878Y112731D01*
X784868Y112831D01*
X784862Y112930D01*
X784860Y113030D01*
X784860Y120650D01*
X784862Y120750D01*
X784868Y120849D01*
X784878Y120949D01*
X784891Y121047D01*
X784909Y121146D01*
X784930Y121243D01*
X784955Y121339D01*
X784984Y121435D01*
X785017Y121529D01*
X785053Y121622D01*
X785093Y121713D01*
X785137Y121803D01*
X785184Y121891D01*
X785234Y121977D01*
X785288Y122061D01*
X785345Y122143D01*
X785405Y122222D01*
X785469Y122300D01*
X785535Y122374D01*
X785604Y122446D01*
X785676Y122515D01*
X785750Y122581D01*
X785828Y122645D01*
X785907Y122705D01*
X785989Y122762D01*
X786073Y122816D01*
X786159Y122866D01*
X786247Y122913D01*
X786337Y122957D01*
X786428Y122997D01*
X786521Y123033D01*
X786615Y123066D01*
X786711Y123095D01*
X786807Y123120D01*
X786904Y123141D01*
X787003Y123159D01*
X787101Y123172D01*
X787201Y123182D01*
X787300Y123188D01*
X787400Y123190D01*
X810260Y123190D01*
X810360Y123188D01*
X810459Y123182D01*
X810559Y123172D01*
X810657Y123159D01*
X810756Y123141D01*
X810853Y123120D01*
X810949Y123095D01*
X811045Y123066D01*
X811139Y123033D01*
X811232Y122997D01*
X811323Y122957D01*
X811413Y122913D01*
X811501Y122866D01*
X811587Y122816D01*
X811671Y122762D01*
X811753Y122705D01*
X811832Y122645D01*
X811910Y122581D01*
X811984Y122515D01*
X812056Y122446D01*
X812125Y122374D01*
X812191Y122300D01*
X812255Y122222D01*
X812315Y122143D01*
X812372Y122061D01*
X812426Y121977D01*
X812476Y121891D01*
X812523Y121803D01*
X812567Y121713D01*
X812607Y121622D01*
X812643Y121529D01*
X812676Y121435D01*
X812705Y121339D01*
X812730Y121243D01*
X812751Y121146D01*
X812769Y121047D01*
X812782Y120949D01*
X812792Y120849D01*
X812798Y120750D01*
X812800Y120650D01*
X812800Y113030D01*
X812798Y112930D01*
X812792Y112831D01*
X812782Y112731D01*
X812769Y112633D01*
X812751Y112534D01*
X812730Y112437D01*
X812705Y112341D01*
X812676Y112245D01*
X812643Y112151D01*
X812607Y112058D01*
X812567Y111967D01*
X812523Y111877D01*
X812476Y111789D01*
X812426Y111703D01*
X812372Y111619D01*
X812315Y111537D01*
X812255Y111458D01*
X812191Y111380D01*
X812125Y111306D01*
X812056Y111234D01*
X811984Y111165D01*
X811910Y111099D01*
X811832Y111035D01*
X811753Y110975D01*
X811671Y110918D01*
X811587Y110864D01*
X811501Y110814D01*
X811413Y110767D01*
X811323Y110723D01*
X811232Y110683D01*
X811139Y110647D01*
X811045Y110614D01*
X810949Y110585D01*
X810853Y110560D01*
X810756Y110539D01*
X810657Y110521D01*
X810559Y110508D01*
X810459Y110498D01*
X810360Y110492D01*
X810260Y110490D01*
X674370Y50546D02*
X651510Y50546D01*
X674370Y50546D02*
X674470Y50544D01*
X674569Y50538D01*
X674669Y50528D01*
X674767Y50515D01*
X674866Y50497D01*
X674963Y50476D01*
X675059Y50451D01*
X675155Y50422D01*
X675249Y50389D01*
X675342Y50353D01*
X675433Y50313D01*
X675523Y50269D01*
X675611Y50222D01*
X675697Y50172D01*
X675781Y50118D01*
X675863Y50061D01*
X675942Y50001D01*
X676020Y49937D01*
X676094Y49871D01*
X676166Y49802D01*
X676235Y49730D01*
X676301Y49656D01*
X676365Y49578D01*
X676425Y49499D01*
X676482Y49417D01*
X676536Y49333D01*
X676586Y49247D01*
X676633Y49159D01*
X676677Y49069D01*
X676717Y48978D01*
X676753Y48885D01*
X676786Y48791D01*
X676815Y48695D01*
X676840Y48599D01*
X676861Y48502D01*
X676879Y48403D01*
X676892Y48305D01*
X676902Y48205D01*
X676908Y48106D01*
X676910Y48006D01*
X676910Y40386D01*
X676908Y40286D01*
X676902Y40187D01*
X676892Y40087D01*
X676879Y39989D01*
X676861Y39890D01*
X676840Y39793D01*
X676815Y39697D01*
X676786Y39601D01*
X676753Y39507D01*
X676717Y39414D01*
X676677Y39323D01*
X676633Y39233D01*
X676586Y39145D01*
X676536Y39059D01*
X676482Y38975D01*
X676425Y38893D01*
X676365Y38814D01*
X676301Y38736D01*
X676235Y38662D01*
X676166Y38590D01*
X676094Y38521D01*
X676020Y38455D01*
X675942Y38391D01*
X675863Y38331D01*
X675781Y38274D01*
X675697Y38220D01*
X675611Y38170D01*
X675523Y38123D01*
X675433Y38079D01*
X675342Y38039D01*
X675249Y38003D01*
X675155Y37970D01*
X675059Y37941D01*
X674963Y37916D01*
X674866Y37895D01*
X674767Y37877D01*
X674669Y37864D01*
X674569Y37854D01*
X674470Y37848D01*
X674370Y37846D01*
X651510Y37846D01*
X651410Y37848D01*
X651311Y37854D01*
X651211Y37864D01*
X651113Y37877D01*
X651014Y37895D01*
X650917Y37916D01*
X650821Y37941D01*
X650725Y37970D01*
X650631Y38003D01*
X650538Y38039D01*
X650447Y38079D01*
X650357Y38123D01*
X650269Y38170D01*
X650183Y38220D01*
X650099Y38274D01*
X650017Y38331D01*
X649938Y38391D01*
X649860Y38455D01*
X649786Y38521D01*
X649714Y38590D01*
X649645Y38662D01*
X649579Y38736D01*
X649515Y38814D01*
X649455Y38893D01*
X649398Y38975D01*
X649344Y39059D01*
X649294Y39145D01*
X649247Y39233D01*
X649203Y39323D01*
X649163Y39414D01*
X649127Y39507D01*
X649094Y39601D01*
X649065Y39697D01*
X649040Y39793D01*
X649019Y39890D01*
X649001Y39989D01*
X648988Y40087D01*
X648978Y40187D01*
X648972Y40286D01*
X648970Y40386D01*
X648970Y48006D01*
X648972Y48106D01*
X648978Y48205D01*
X648988Y48305D01*
X649001Y48403D01*
X649019Y48502D01*
X649040Y48599D01*
X649065Y48695D01*
X649094Y48791D01*
X649127Y48885D01*
X649163Y48978D01*
X649203Y49069D01*
X649247Y49159D01*
X649294Y49247D01*
X649344Y49333D01*
X649398Y49417D01*
X649455Y49499D01*
X649515Y49578D01*
X649579Y49656D01*
X649645Y49730D01*
X649714Y49802D01*
X649786Y49871D01*
X649860Y49937D01*
X649938Y50001D01*
X650017Y50061D01*
X650099Y50118D01*
X650183Y50172D01*
X650269Y50222D01*
X650357Y50269D01*
X650447Y50313D01*
X650538Y50353D01*
X650631Y50389D01*
X650725Y50422D01*
X650821Y50451D01*
X650917Y50476D01*
X651014Y50497D01*
X651113Y50515D01*
X651211Y50528D01*
X651311Y50538D01*
X651410Y50544D01*
X651510Y50546D01*
X787400Y41910D02*
X810260Y41910D01*
X810360Y41908D01*
X810459Y41902D01*
X810559Y41892D01*
X810657Y41879D01*
X810756Y41861D01*
X810853Y41840D01*
X810949Y41815D01*
X811045Y41786D01*
X811139Y41753D01*
X811232Y41717D01*
X811323Y41677D01*
X811413Y41633D01*
X811501Y41586D01*
X811587Y41536D01*
X811671Y41482D01*
X811753Y41425D01*
X811832Y41365D01*
X811910Y41301D01*
X811984Y41235D01*
X812056Y41166D01*
X812125Y41094D01*
X812191Y41020D01*
X812255Y40942D01*
X812315Y40863D01*
X812372Y40781D01*
X812426Y40697D01*
X812476Y40611D01*
X812523Y40523D01*
X812567Y40433D01*
X812607Y40342D01*
X812643Y40249D01*
X812676Y40155D01*
X812705Y40059D01*
X812730Y39963D01*
X812751Y39866D01*
X812769Y39767D01*
X812782Y39669D01*
X812792Y39569D01*
X812798Y39470D01*
X812800Y39370D01*
X812800Y31750D01*
X812798Y31650D01*
X812792Y31551D01*
X812782Y31451D01*
X812769Y31353D01*
X812751Y31254D01*
X812730Y31157D01*
X812705Y31061D01*
X812676Y30965D01*
X812643Y30871D01*
X812607Y30778D01*
X812567Y30687D01*
X812523Y30597D01*
X812476Y30509D01*
X812426Y30423D01*
X812372Y30339D01*
X812315Y30257D01*
X812255Y30178D01*
X812191Y30100D01*
X812125Y30026D01*
X812056Y29954D01*
X811984Y29885D01*
X811910Y29819D01*
X811832Y29755D01*
X811753Y29695D01*
X811671Y29638D01*
X811587Y29584D01*
X811501Y29534D01*
X811413Y29487D01*
X811323Y29443D01*
X811232Y29403D01*
X811139Y29367D01*
X811045Y29334D01*
X810949Y29305D01*
X810853Y29280D01*
X810756Y29259D01*
X810657Y29241D01*
X810559Y29228D01*
X810459Y29218D01*
X810360Y29212D01*
X810260Y29210D01*
X787400Y29210D01*
X787300Y29212D01*
X787201Y29218D01*
X787101Y29228D01*
X787003Y29241D01*
X786904Y29259D01*
X786807Y29280D01*
X786711Y29305D01*
X786615Y29334D01*
X786521Y29367D01*
X786428Y29403D01*
X786337Y29443D01*
X786247Y29487D01*
X786159Y29534D01*
X786073Y29584D01*
X785989Y29638D01*
X785907Y29695D01*
X785828Y29755D01*
X785750Y29819D01*
X785676Y29885D01*
X785604Y29954D01*
X785535Y30026D01*
X785469Y30100D01*
X785405Y30178D01*
X785345Y30257D01*
X785288Y30339D01*
X785234Y30423D01*
X785184Y30509D01*
X785137Y30597D01*
X785093Y30687D01*
X785053Y30778D01*
X785017Y30871D01*
X784984Y30965D01*
X784955Y31061D01*
X784930Y31157D01*
X784909Y31254D01*
X784891Y31353D01*
X784878Y31451D01*
X784868Y31551D01*
X784862Y31650D01*
X784860Y31750D01*
X784860Y39370D01*
X784862Y39470D01*
X784868Y39569D01*
X784878Y39669D01*
X784891Y39767D01*
X784909Y39866D01*
X784930Y39963D01*
X784955Y40059D01*
X784984Y40155D01*
X785017Y40249D01*
X785053Y40342D01*
X785093Y40433D01*
X785137Y40523D01*
X785184Y40611D01*
X785234Y40697D01*
X785288Y40781D01*
X785345Y40863D01*
X785405Y40942D01*
X785469Y41020D01*
X785535Y41094D01*
X785604Y41166D01*
X785676Y41235D01*
X785750Y41301D01*
X785828Y41365D01*
X785907Y41425D01*
X785989Y41482D01*
X786073Y41536D01*
X786159Y41586D01*
X786247Y41633D01*
X786337Y41677D01*
X786428Y41717D01*
X786521Y41753D01*
X786615Y41786D01*
X786711Y41815D01*
X786807Y41840D01*
X786904Y41861D01*
X787003Y41879D01*
X787101Y41892D01*
X787201Y41902D01*
X787300Y41908D01*
X787400Y41910D01*
D103*
X704600Y40200D02*
X700600Y40200D01*
X768600Y40200D02*
X772600Y40200D01*
X772600Y44200D01*
X772600Y108200D02*
X772600Y112200D01*
X768600Y112200D01*
X704600Y112200D02*
X700600Y112200D01*
X700600Y108200D01*
X700600Y44200D02*
X700600Y40200D01*
D104*
X775186Y36200D02*
X775188Y36275D01*
X775194Y36349D01*
X775204Y36423D01*
X775217Y36496D01*
X775235Y36569D01*
X775256Y36640D01*
X775281Y36711D01*
X775310Y36780D01*
X775343Y36847D01*
X775379Y36912D01*
X775418Y36976D01*
X775460Y37037D01*
X775506Y37096D01*
X775555Y37153D01*
X775607Y37206D01*
X775661Y37257D01*
X775718Y37306D01*
X775778Y37350D01*
X775840Y37392D01*
X775904Y37431D01*
X775970Y37466D01*
X776037Y37497D01*
X776107Y37525D01*
X776177Y37549D01*
X776249Y37570D01*
X776322Y37586D01*
X776395Y37599D01*
X776470Y37608D01*
X776544Y37613D01*
X776619Y37614D01*
X776693Y37611D01*
X776768Y37604D01*
X776841Y37593D01*
X776915Y37579D01*
X776987Y37560D01*
X777058Y37538D01*
X777128Y37512D01*
X777197Y37482D01*
X777263Y37449D01*
X777328Y37412D01*
X777391Y37372D01*
X777452Y37328D01*
X777510Y37282D01*
X777566Y37232D01*
X777619Y37180D01*
X777670Y37125D01*
X777717Y37067D01*
X777761Y37007D01*
X777802Y36944D01*
X777840Y36880D01*
X777874Y36814D01*
X777905Y36745D01*
X777932Y36676D01*
X777955Y36605D01*
X777974Y36533D01*
X777990Y36460D01*
X778002Y36386D01*
X778010Y36312D01*
X778014Y36237D01*
X778014Y36163D01*
X778010Y36088D01*
X778002Y36014D01*
X777990Y35940D01*
X777974Y35867D01*
X777955Y35795D01*
X777932Y35724D01*
X777905Y35655D01*
X777874Y35586D01*
X777840Y35520D01*
X777802Y35456D01*
X777761Y35393D01*
X777717Y35333D01*
X777670Y35275D01*
X777619Y35220D01*
X777566Y35168D01*
X777510Y35118D01*
X777452Y35072D01*
X777391Y35028D01*
X777328Y34988D01*
X777263Y34951D01*
X777197Y34918D01*
X777128Y34888D01*
X777058Y34862D01*
X776987Y34840D01*
X776915Y34821D01*
X776841Y34807D01*
X776768Y34796D01*
X776693Y34789D01*
X776619Y34786D01*
X776544Y34787D01*
X776470Y34792D01*
X776395Y34801D01*
X776322Y34814D01*
X776249Y34830D01*
X776177Y34851D01*
X776107Y34875D01*
X776037Y34903D01*
X775970Y34934D01*
X775904Y34969D01*
X775840Y35008D01*
X775778Y35050D01*
X775718Y35094D01*
X775661Y35143D01*
X775607Y35194D01*
X775555Y35247D01*
X775506Y35304D01*
X775460Y35363D01*
X775418Y35424D01*
X775379Y35488D01*
X775343Y35553D01*
X775310Y35620D01*
X775281Y35689D01*
X775256Y35760D01*
X775235Y35831D01*
X775217Y35904D01*
X775204Y35977D01*
X775194Y36051D01*
X775188Y36125D01*
X775186Y36200D01*
D10*
X416860Y90470D02*
X413590Y90470D01*
X416860Y90470D02*
X416860Y87200D01*
X416860Y65200D02*
X416860Y61930D01*
X413590Y61930D01*
D105*
X385090Y58700D03*
D10*
X388320Y61930D02*
X391590Y61930D01*
X388320Y61930D02*
X388320Y65200D01*
X388320Y87200D02*
X388320Y90470D01*
X391590Y90470D01*
X59280Y119400D02*
X41280Y119400D01*
X41280Y33000D02*
X59280Y33000D01*
D102*
X426720Y91440D02*
X454660Y91440D01*
X426720Y91440D02*
X426720Y104140D01*
X454660Y104140D01*
X454660Y91440D01*
X454660Y78740D02*
X426720Y78740D01*
X426720Y91440D01*
X454660Y91440D01*
X454660Y78740D01*
X454660Y66040D02*
X426720Y66040D01*
X426720Y78740D01*
X454660Y78740D01*
X454660Y66040D01*
X438150Y58420D02*
X438150Y35560D01*
X438148Y35460D01*
X438142Y35361D01*
X438132Y35261D01*
X438119Y35163D01*
X438101Y35064D01*
X438080Y34967D01*
X438055Y34871D01*
X438026Y34775D01*
X437993Y34681D01*
X437957Y34588D01*
X437917Y34497D01*
X437873Y34407D01*
X437826Y34319D01*
X437776Y34233D01*
X437722Y34149D01*
X437665Y34067D01*
X437605Y33988D01*
X437541Y33910D01*
X437475Y33836D01*
X437406Y33764D01*
X437334Y33695D01*
X437260Y33629D01*
X437182Y33565D01*
X437103Y33505D01*
X437021Y33448D01*
X436937Y33394D01*
X436851Y33344D01*
X436763Y33297D01*
X436673Y33253D01*
X436582Y33213D01*
X436489Y33177D01*
X436395Y33144D01*
X436299Y33115D01*
X436203Y33090D01*
X436106Y33069D01*
X436007Y33051D01*
X435909Y33038D01*
X435809Y33028D01*
X435710Y33022D01*
X435610Y33020D01*
X427990Y33020D01*
X427890Y33022D01*
X427791Y33028D01*
X427691Y33038D01*
X427593Y33051D01*
X427494Y33069D01*
X427397Y33090D01*
X427301Y33115D01*
X427205Y33144D01*
X427111Y33177D01*
X427018Y33213D01*
X426927Y33253D01*
X426837Y33297D01*
X426749Y33344D01*
X426663Y33394D01*
X426579Y33448D01*
X426497Y33505D01*
X426418Y33565D01*
X426340Y33629D01*
X426266Y33695D01*
X426194Y33764D01*
X426125Y33836D01*
X426059Y33910D01*
X425995Y33988D01*
X425935Y34067D01*
X425878Y34149D01*
X425824Y34233D01*
X425774Y34319D01*
X425727Y34407D01*
X425683Y34497D01*
X425643Y34588D01*
X425607Y34681D01*
X425574Y34775D01*
X425545Y34871D01*
X425520Y34967D01*
X425499Y35064D01*
X425481Y35163D01*
X425468Y35261D01*
X425458Y35361D01*
X425452Y35460D01*
X425450Y35560D01*
X425450Y58420D01*
X425452Y58520D01*
X425458Y58619D01*
X425468Y58719D01*
X425481Y58817D01*
X425499Y58916D01*
X425520Y59013D01*
X425545Y59109D01*
X425574Y59205D01*
X425607Y59299D01*
X425643Y59392D01*
X425683Y59483D01*
X425727Y59573D01*
X425774Y59661D01*
X425824Y59747D01*
X425878Y59831D01*
X425935Y59913D01*
X425995Y59992D01*
X426059Y60070D01*
X426125Y60144D01*
X426194Y60216D01*
X426266Y60285D01*
X426340Y60351D01*
X426418Y60415D01*
X426497Y60475D01*
X426579Y60532D01*
X426663Y60586D01*
X426749Y60636D01*
X426837Y60683D01*
X426927Y60727D01*
X427018Y60767D01*
X427111Y60803D01*
X427205Y60836D01*
X427301Y60865D01*
X427397Y60890D01*
X427494Y60911D01*
X427593Y60929D01*
X427691Y60942D01*
X427791Y60952D01*
X427890Y60958D01*
X427990Y60960D01*
X435610Y60960D01*
X435710Y60958D01*
X435809Y60952D01*
X435909Y60942D01*
X436007Y60929D01*
X436106Y60911D01*
X436203Y60890D01*
X436299Y60865D01*
X436395Y60836D01*
X436489Y60803D01*
X436582Y60767D01*
X436673Y60727D01*
X436763Y60683D01*
X436851Y60636D01*
X436937Y60586D01*
X437021Y60532D01*
X437103Y60475D01*
X437182Y60415D01*
X437260Y60351D01*
X437334Y60285D01*
X437406Y60216D01*
X437475Y60144D01*
X437541Y60070D01*
X437605Y59992D01*
X437665Y59913D01*
X437722Y59831D01*
X437776Y59747D01*
X437826Y59661D01*
X437873Y59573D01*
X437917Y59483D01*
X437957Y59392D01*
X437993Y59299D01*
X438026Y59205D01*
X438055Y59109D01*
X438080Y59013D01*
X438101Y58916D01*
X438119Y58817D01*
X438132Y58719D01*
X438142Y58619D01*
X438148Y58520D01*
X438150Y58420D01*
X455930Y58420D02*
X455930Y35560D01*
X455928Y35460D01*
X455922Y35361D01*
X455912Y35261D01*
X455899Y35163D01*
X455881Y35064D01*
X455860Y34967D01*
X455835Y34871D01*
X455806Y34775D01*
X455773Y34681D01*
X455737Y34588D01*
X455697Y34497D01*
X455653Y34407D01*
X455606Y34319D01*
X455556Y34233D01*
X455502Y34149D01*
X455445Y34067D01*
X455385Y33988D01*
X455321Y33910D01*
X455255Y33836D01*
X455186Y33764D01*
X455114Y33695D01*
X455040Y33629D01*
X454962Y33565D01*
X454883Y33505D01*
X454801Y33448D01*
X454717Y33394D01*
X454631Y33344D01*
X454543Y33297D01*
X454453Y33253D01*
X454362Y33213D01*
X454269Y33177D01*
X454175Y33144D01*
X454079Y33115D01*
X453983Y33090D01*
X453886Y33069D01*
X453787Y33051D01*
X453689Y33038D01*
X453589Y33028D01*
X453490Y33022D01*
X453390Y33020D01*
X445770Y33020D01*
X445670Y33022D01*
X445571Y33028D01*
X445471Y33038D01*
X445373Y33051D01*
X445274Y33069D01*
X445177Y33090D01*
X445081Y33115D01*
X444985Y33144D01*
X444891Y33177D01*
X444798Y33213D01*
X444707Y33253D01*
X444617Y33297D01*
X444529Y33344D01*
X444443Y33394D01*
X444359Y33448D01*
X444277Y33505D01*
X444198Y33565D01*
X444120Y33629D01*
X444046Y33695D01*
X443974Y33764D01*
X443905Y33836D01*
X443839Y33910D01*
X443775Y33988D01*
X443715Y34067D01*
X443658Y34149D01*
X443604Y34233D01*
X443554Y34319D01*
X443507Y34407D01*
X443463Y34497D01*
X443423Y34588D01*
X443387Y34681D01*
X443354Y34775D01*
X443325Y34871D01*
X443300Y34967D01*
X443279Y35064D01*
X443261Y35163D01*
X443248Y35261D01*
X443238Y35361D01*
X443232Y35460D01*
X443230Y35560D01*
X443230Y58420D01*
X443232Y58520D01*
X443238Y58619D01*
X443248Y58719D01*
X443261Y58817D01*
X443279Y58916D01*
X443300Y59013D01*
X443325Y59109D01*
X443354Y59205D01*
X443387Y59299D01*
X443423Y59392D01*
X443463Y59483D01*
X443507Y59573D01*
X443554Y59661D01*
X443604Y59747D01*
X443658Y59831D01*
X443715Y59913D01*
X443775Y59992D01*
X443839Y60070D01*
X443905Y60144D01*
X443974Y60216D01*
X444046Y60285D01*
X444120Y60351D01*
X444198Y60415D01*
X444277Y60475D01*
X444359Y60532D01*
X444443Y60586D01*
X444529Y60636D01*
X444617Y60683D01*
X444707Y60727D01*
X444798Y60767D01*
X444891Y60803D01*
X444985Y60836D01*
X445081Y60865D01*
X445177Y60890D01*
X445274Y60911D01*
X445373Y60929D01*
X445471Y60942D01*
X445571Y60952D01*
X445670Y60958D01*
X445770Y60960D01*
X453390Y60960D01*
X453490Y60958D01*
X453589Y60952D01*
X453689Y60942D01*
X453787Y60929D01*
X453886Y60911D01*
X453983Y60890D01*
X454079Y60865D01*
X454175Y60836D01*
X454269Y60803D01*
X454362Y60767D01*
X454453Y60727D01*
X454543Y60683D01*
X454631Y60636D01*
X454717Y60586D01*
X454801Y60532D01*
X454883Y60475D01*
X454962Y60415D01*
X455040Y60351D01*
X455114Y60285D01*
X455186Y60216D01*
X455255Y60144D01*
X455321Y60070D01*
X455385Y59992D01*
X455445Y59913D01*
X455502Y59831D01*
X455556Y59747D01*
X455606Y59661D01*
X455653Y59573D01*
X455697Y59483D01*
X455737Y59392D01*
X455773Y59299D01*
X455806Y59205D01*
X455835Y59109D01*
X455860Y59013D01*
X455881Y58916D01*
X455899Y58817D01*
X455912Y58719D01*
X455922Y58619D01*
X455928Y58520D01*
X455930Y58420D01*
X378460Y49530D02*
X378460Y72390D01*
X378460Y49530D02*
X378458Y49430D01*
X378452Y49331D01*
X378442Y49231D01*
X378429Y49133D01*
X378411Y49034D01*
X378390Y48937D01*
X378365Y48841D01*
X378336Y48745D01*
X378303Y48651D01*
X378267Y48558D01*
X378227Y48467D01*
X378183Y48377D01*
X378136Y48289D01*
X378086Y48203D01*
X378032Y48119D01*
X377975Y48037D01*
X377915Y47958D01*
X377851Y47880D01*
X377785Y47806D01*
X377716Y47734D01*
X377644Y47665D01*
X377570Y47599D01*
X377492Y47535D01*
X377413Y47475D01*
X377331Y47418D01*
X377247Y47364D01*
X377161Y47314D01*
X377073Y47267D01*
X376983Y47223D01*
X376892Y47183D01*
X376799Y47147D01*
X376705Y47114D01*
X376609Y47085D01*
X376513Y47060D01*
X376416Y47039D01*
X376317Y47021D01*
X376219Y47008D01*
X376119Y46998D01*
X376020Y46992D01*
X375920Y46990D01*
X368300Y46990D01*
X368200Y46992D01*
X368101Y46998D01*
X368001Y47008D01*
X367903Y47021D01*
X367804Y47039D01*
X367707Y47060D01*
X367611Y47085D01*
X367515Y47114D01*
X367421Y47147D01*
X367328Y47183D01*
X367237Y47223D01*
X367147Y47267D01*
X367059Y47314D01*
X366973Y47364D01*
X366889Y47418D01*
X366807Y47475D01*
X366728Y47535D01*
X366650Y47599D01*
X366576Y47665D01*
X366504Y47734D01*
X366435Y47806D01*
X366369Y47880D01*
X366305Y47958D01*
X366245Y48037D01*
X366188Y48119D01*
X366134Y48203D01*
X366084Y48289D01*
X366037Y48377D01*
X365993Y48467D01*
X365953Y48558D01*
X365917Y48651D01*
X365884Y48745D01*
X365855Y48841D01*
X365830Y48937D01*
X365809Y49034D01*
X365791Y49133D01*
X365778Y49231D01*
X365768Y49331D01*
X365762Y49430D01*
X365760Y49530D01*
X365760Y72390D01*
X365762Y72490D01*
X365768Y72589D01*
X365778Y72689D01*
X365791Y72787D01*
X365809Y72886D01*
X365830Y72983D01*
X365855Y73079D01*
X365884Y73175D01*
X365917Y73269D01*
X365953Y73362D01*
X365993Y73453D01*
X366037Y73543D01*
X366084Y73631D01*
X366134Y73717D01*
X366188Y73801D01*
X366245Y73883D01*
X366305Y73962D01*
X366369Y74040D01*
X366435Y74114D01*
X366504Y74186D01*
X366576Y74255D01*
X366650Y74321D01*
X366728Y74385D01*
X366807Y74445D01*
X366889Y74502D01*
X366973Y74556D01*
X367059Y74606D01*
X367147Y74653D01*
X367237Y74697D01*
X367328Y74737D01*
X367421Y74773D01*
X367515Y74806D01*
X367611Y74835D01*
X367707Y74860D01*
X367804Y74881D01*
X367903Y74899D01*
X368001Y74912D01*
X368101Y74922D01*
X368200Y74928D01*
X368300Y74930D01*
X375920Y74930D01*
X376020Y74928D01*
X376119Y74922D01*
X376219Y74912D01*
X376317Y74899D01*
X376416Y74881D01*
X376513Y74860D01*
X376609Y74835D01*
X376705Y74806D01*
X376799Y74773D01*
X376892Y74737D01*
X376983Y74697D01*
X377073Y74653D01*
X377161Y74606D01*
X377247Y74556D01*
X377331Y74502D01*
X377413Y74445D01*
X377492Y74385D01*
X377570Y74321D01*
X377644Y74255D01*
X377716Y74186D01*
X377785Y74114D01*
X377851Y74040D01*
X377915Y73962D01*
X377975Y73883D01*
X378032Y73801D01*
X378086Y73717D01*
X378136Y73631D01*
X378183Y73543D01*
X378227Y73453D01*
X378267Y73362D01*
X378303Y73269D01*
X378336Y73175D01*
X378365Y73079D01*
X378390Y72983D01*
X378411Y72886D01*
X378429Y72787D01*
X378442Y72689D01*
X378452Y72589D01*
X378458Y72490D01*
X378460Y72390D01*
X365760Y77470D02*
X365760Y100330D01*
X365762Y100430D01*
X365768Y100529D01*
X365778Y100629D01*
X365791Y100727D01*
X365809Y100826D01*
X365830Y100923D01*
X365855Y101019D01*
X365884Y101115D01*
X365917Y101209D01*
X365953Y101302D01*
X365993Y101393D01*
X366037Y101483D01*
X366084Y101571D01*
X366134Y101657D01*
X366188Y101741D01*
X366245Y101823D01*
X366305Y101902D01*
X366369Y101980D01*
X366435Y102054D01*
X366504Y102126D01*
X366576Y102195D01*
X366650Y102261D01*
X366728Y102325D01*
X366807Y102385D01*
X366889Y102442D01*
X366973Y102496D01*
X367059Y102546D01*
X367147Y102593D01*
X367237Y102637D01*
X367328Y102677D01*
X367421Y102713D01*
X367515Y102746D01*
X367611Y102775D01*
X367707Y102800D01*
X367804Y102821D01*
X367903Y102839D01*
X368001Y102852D01*
X368101Y102862D01*
X368200Y102868D01*
X368300Y102870D01*
X375920Y102870D01*
X376020Y102868D01*
X376119Y102862D01*
X376219Y102852D01*
X376317Y102839D01*
X376416Y102821D01*
X376513Y102800D01*
X376609Y102775D01*
X376705Y102746D01*
X376799Y102713D01*
X376892Y102677D01*
X376983Y102637D01*
X377073Y102593D01*
X377161Y102546D01*
X377247Y102496D01*
X377331Y102442D01*
X377413Y102385D01*
X377492Y102325D01*
X377570Y102261D01*
X377644Y102195D01*
X377716Y102126D01*
X377785Y102054D01*
X377851Y101980D01*
X377915Y101902D01*
X377975Y101823D01*
X378032Y101741D01*
X378086Y101657D01*
X378136Y101571D01*
X378183Y101483D01*
X378227Y101393D01*
X378267Y101302D01*
X378303Y101209D01*
X378336Y101115D01*
X378365Y101019D01*
X378390Y100923D01*
X378411Y100826D01*
X378429Y100727D01*
X378442Y100629D01*
X378452Y100529D01*
X378458Y100430D01*
X378460Y100330D01*
X378460Y77470D01*
X378458Y77370D01*
X378452Y77271D01*
X378442Y77171D01*
X378429Y77073D01*
X378411Y76974D01*
X378390Y76877D01*
X378365Y76781D01*
X378336Y76685D01*
X378303Y76591D01*
X378267Y76498D01*
X378227Y76407D01*
X378183Y76317D01*
X378136Y76229D01*
X378086Y76143D01*
X378032Y76059D01*
X377975Y75977D01*
X377915Y75898D01*
X377851Y75820D01*
X377785Y75746D01*
X377716Y75674D01*
X377644Y75605D01*
X377570Y75539D01*
X377492Y75475D01*
X377413Y75415D01*
X377331Y75358D01*
X377247Y75304D01*
X377161Y75254D01*
X377073Y75207D01*
X376983Y75163D01*
X376892Y75123D01*
X376799Y75087D01*
X376705Y75054D01*
X376609Y75025D01*
X376513Y75000D01*
X376416Y74979D01*
X376317Y74961D01*
X376219Y74948D01*
X376119Y74938D01*
X376020Y74932D01*
X375920Y74930D01*
X368300Y74930D01*
X368200Y74932D01*
X368101Y74938D01*
X368001Y74948D01*
X367903Y74961D01*
X367804Y74979D01*
X367707Y75000D01*
X367611Y75025D01*
X367515Y75054D01*
X367421Y75087D01*
X367328Y75123D01*
X367237Y75163D01*
X367147Y75207D01*
X367059Y75254D01*
X366973Y75304D01*
X366889Y75358D01*
X366807Y75415D01*
X366728Y75475D01*
X366650Y75539D01*
X366576Y75605D01*
X366504Y75674D01*
X366435Y75746D01*
X366369Y75820D01*
X366305Y75898D01*
X366245Y75977D01*
X366188Y76059D01*
X366134Y76143D01*
X366084Y76229D01*
X366037Y76317D01*
X365993Y76407D01*
X365953Y76498D01*
X365917Y76591D01*
X365884Y76685D01*
X365855Y76781D01*
X365830Y76877D01*
X365809Y76974D01*
X365791Y77073D01*
X365778Y77171D01*
X365768Y77271D01*
X365762Y77370D01*
X365760Y77470D01*
X591820Y52070D02*
X619760Y52070D01*
X591820Y52070D02*
X591820Y64770D01*
X619760Y64770D01*
X619760Y52070D01*
X513080Y71120D02*
X513080Y99060D01*
X513080Y71120D02*
X500380Y71120D01*
X500380Y99060D01*
X513080Y99060D01*
X566420Y99060D02*
X566420Y71120D01*
X566420Y99060D02*
X579120Y99060D01*
X579120Y71120D01*
X566420Y71120D01*
X581660Y71120D02*
X581660Y99060D01*
X594360Y99060D01*
X594360Y71120D01*
X581660Y71120D01*
D10*
X537694Y97790D02*
X529106Y97790D01*
X529106Y72390D02*
X537694Y72390D01*
D102*
X488950Y69850D02*
X488950Y97790D01*
X488950Y69850D02*
X488948Y69750D01*
X488942Y69651D01*
X488932Y69551D01*
X488919Y69453D01*
X488901Y69354D01*
X488880Y69257D01*
X488855Y69161D01*
X488826Y69065D01*
X488793Y68971D01*
X488757Y68878D01*
X488717Y68787D01*
X488673Y68697D01*
X488626Y68609D01*
X488576Y68523D01*
X488522Y68439D01*
X488465Y68357D01*
X488405Y68278D01*
X488341Y68200D01*
X488275Y68126D01*
X488206Y68054D01*
X488134Y67985D01*
X488060Y67919D01*
X487982Y67855D01*
X487903Y67795D01*
X487821Y67738D01*
X487737Y67684D01*
X487651Y67634D01*
X487563Y67587D01*
X487473Y67543D01*
X487382Y67503D01*
X487289Y67467D01*
X487195Y67434D01*
X487099Y67405D01*
X487003Y67380D01*
X486906Y67359D01*
X486807Y67341D01*
X486709Y67328D01*
X486609Y67318D01*
X486510Y67312D01*
X486410Y67310D01*
X473710Y67310D01*
X473610Y67312D01*
X473511Y67318D01*
X473411Y67328D01*
X473313Y67341D01*
X473214Y67359D01*
X473117Y67380D01*
X473021Y67405D01*
X472925Y67434D01*
X472831Y67467D01*
X472738Y67503D01*
X472647Y67543D01*
X472557Y67587D01*
X472469Y67634D01*
X472383Y67684D01*
X472299Y67738D01*
X472217Y67795D01*
X472138Y67855D01*
X472060Y67919D01*
X471986Y67985D01*
X471914Y68054D01*
X471845Y68126D01*
X471779Y68200D01*
X471715Y68278D01*
X471655Y68357D01*
X471598Y68439D01*
X471544Y68523D01*
X471494Y68609D01*
X471447Y68697D01*
X471403Y68787D01*
X471363Y68878D01*
X471327Y68971D01*
X471294Y69065D01*
X471265Y69161D01*
X471240Y69257D01*
X471219Y69354D01*
X471201Y69453D01*
X471188Y69551D01*
X471178Y69651D01*
X471172Y69750D01*
X471170Y69850D01*
X471170Y97790D01*
X471172Y97890D01*
X471178Y97989D01*
X471188Y98089D01*
X471201Y98187D01*
X471219Y98286D01*
X471240Y98383D01*
X471265Y98479D01*
X471294Y98575D01*
X471327Y98669D01*
X471363Y98762D01*
X471403Y98853D01*
X471447Y98943D01*
X471494Y99031D01*
X471544Y99117D01*
X471598Y99201D01*
X471655Y99283D01*
X471715Y99362D01*
X471779Y99440D01*
X471845Y99514D01*
X471914Y99586D01*
X471986Y99655D01*
X472060Y99721D01*
X472138Y99785D01*
X472217Y99845D01*
X472299Y99902D01*
X472383Y99956D01*
X472469Y100006D01*
X472557Y100053D01*
X472647Y100097D01*
X472738Y100137D01*
X472831Y100173D01*
X472925Y100206D01*
X473021Y100235D01*
X473117Y100260D01*
X473214Y100281D01*
X473313Y100299D01*
X473411Y100312D01*
X473511Y100322D01*
X473610Y100328D01*
X473710Y100330D01*
X486410Y100330D01*
X486510Y100328D01*
X486609Y100322D01*
X486709Y100312D01*
X486807Y100299D01*
X486906Y100281D01*
X487003Y100260D01*
X487099Y100235D01*
X487195Y100206D01*
X487289Y100173D01*
X487382Y100137D01*
X487473Y100097D01*
X487563Y100053D01*
X487651Y100006D01*
X487737Y99956D01*
X487821Y99902D01*
X487903Y99845D01*
X487982Y99785D01*
X488060Y99721D01*
X488134Y99655D01*
X488206Y99586D01*
X488275Y99514D01*
X488341Y99440D01*
X488405Y99362D01*
X488465Y99283D01*
X488522Y99201D01*
X488576Y99117D01*
X488626Y99031D01*
X488673Y98943D01*
X488717Y98853D01*
X488757Y98762D01*
X488793Y98669D01*
X488826Y98575D01*
X488855Y98479D01*
X488880Y98383D01*
X488901Y98286D01*
X488919Y98187D01*
X488932Y98089D01*
X488942Y97989D01*
X488948Y97890D01*
X488950Y97790D01*
X181610Y78740D02*
X153670Y78740D01*
X181610Y78740D02*
X181610Y66040D01*
X153670Y66040D01*
X153670Y78740D01*
X153670Y116840D02*
X181610Y116840D01*
X181610Y104140D01*
X153670Y104140D01*
X153670Y116840D01*
X469900Y60960D02*
X469900Y33020D01*
X457200Y33020D01*
X457200Y60960D01*
X469900Y60960D01*
D10*
X494190Y53960D02*
X514190Y53960D01*
X514190Y67960D02*
X494190Y67960D01*
X500690Y56960D02*
X506690Y60960D01*
X500690Y56960D02*
X500690Y64960D01*
X506690Y60960D01*
D106*
X507690Y60960D03*
D102*
X518160Y29210D02*
X490220Y29210D01*
X490120Y29212D01*
X490021Y29218D01*
X489921Y29228D01*
X489823Y29241D01*
X489724Y29259D01*
X489627Y29280D01*
X489531Y29305D01*
X489435Y29334D01*
X489341Y29367D01*
X489248Y29403D01*
X489157Y29443D01*
X489067Y29487D01*
X488979Y29534D01*
X488893Y29584D01*
X488809Y29638D01*
X488727Y29695D01*
X488648Y29755D01*
X488570Y29819D01*
X488496Y29885D01*
X488424Y29954D01*
X488355Y30026D01*
X488289Y30100D01*
X488225Y30178D01*
X488165Y30257D01*
X488108Y30339D01*
X488054Y30423D01*
X488004Y30509D01*
X487957Y30597D01*
X487913Y30687D01*
X487873Y30778D01*
X487837Y30871D01*
X487804Y30965D01*
X487775Y31061D01*
X487750Y31157D01*
X487729Y31254D01*
X487711Y31353D01*
X487698Y31451D01*
X487688Y31551D01*
X487682Y31650D01*
X487680Y31750D01*
X487680Y44450D01*
X487682Y44550D01*
X487688Y44649D01*
X487698Y44749D01*
X487711Y44847D01*
X487729Y44946D01*
X487750Y45043D01*
X487775Y45139D01*
X487804Y45235D01*
X487837Y45329D01*
X487873Y45422D01*
X487913Y45513D01*
X487957Y45603D01*
X488004Y45691D01*
X488054Y45777D01*
X488108Y45861D01*
X488165Y45943D01*
X488225Y46022D01*
X488289Y46100D01*
X488355Y46174D01*
X488424Y46246D01*
X488496Y46315D01*
X488570Y46381D01*
X488648Y46445D01*
X488727Y46505D01*
X488809Y46562D01*
X488893Y46616D01*
X488979Y46666D01*
X489067Y46713D01*
X489157Y46757D01*
X489248Y46797D01*
X489341Y46833D01*
X489435Y46866D01*
X489531Y46895D01*
X489627Y46920D01*
X489724Y46941D01*
X489823Y46959D01*
X489921Y46972D01*
X490021Y46982D01*
X490120Y46988D01*
X490220Y46990D01*
X518160Y46990D01*
X518260Y46988D01*
X518359Y46982D01*
X518459Y46972D01*
X518557Y46959D01*
X518656Y46941D01*
X518753Y46920D01*
X518849Y46895D01*
X518945Y46866D01*
X519039Y46833D01*
X519132Y46797D01*
X519223Y46757D01*
X519313Y46713D01*
X519401Y46666D01*
X519487Y46616D01*
X519571Y46562D01*
X519653Y46505D01*
X519732Y46445D01*
X519810Y46381D01*
X519884Y46315D01*
X519956Y46246D01*
X520025Y46174D01*
X520091Y46100D01*
X520155Y46022D01*
X520215Y45943D01*
X520272Y45861D01*
X520326Y45777D01*
X520376Y45691D01*
X520423Y45603D01*
X520467Y45513D01*
X520507Y45422D01*
X520543Y45329D01*
X520576Y45235D01*
X520605Y45139D01*
X520630Y45043D01*
X520651Y44946D01*
X520669Y44847D01*
X520682Y44749D01*
X520692Y44649D01*
X520698Y44550D01*
X520700Y44450D01*
X520700Y31750D01*
X520698Y31650D01*
X520692Y31551D01*
X520682Y31451D01*
X520669Y31353D01*
X520651Y31254D01*
X520630Y31157D01*
X520605Y31061D01*
X520576Y30965D01*
X520543Y30871D01*
X520507Y30778D01*
X520467Y30687D01*
X520423Y30597D01*
X520376Y30509D01*
X520326Y30423D01*
X520272Y30339D01*
X520215Y30257D01*
X520155Y30178D01*
X520091Y30100D01*
X520025Y30026D01*
X519956Y29954D01*
X519884Y29885D01*
X519810Y29819D01*
X519732Y29755D01*
X519653Y29695D01*
X519571Y29638D01*
X519487Y29584D01*
X519401Y29534D01*
X519313Y29487D01*
X519223Y29443D01*
X519132Y29403D01*
X519039Y29367D01*
X518945Y29334D01*
X518849Y29305D01*
X518753Y29280D01*
X518656Y29259D01*
X518557Y29241D01*
X518459Y29228D01*
X518359Y29218D01*
X518260Y29212D01*
X518160Y29210D01*
X566420Y53340D02*
X566420Y76200D01*
X566420Y53340D02*
X566418Y53240D01*
X566412Y53141D01*
X566402Y53041D01*
X566389Y52943D01*
X566371Y52844D01*
X566350Y52747D01*
X566325Y52651D01*
X566296Y52555D01*
X566263Y52461D01*
X566227Y52368D01*
X566187Y52277D01*
X566143Y52187D01*
X566096Y52099D01*
X566046Y52013D01*
X565992Y51929D01*
X565935Y51847D01*
X565875Y51768D01*
X565811Y51690D01*
X565745Y51616D01*
X565676Y51544D01*
X565604Y51475D01*
X565530Y51409D01*
X565452Y51345D01*
X565373Y51285D01*
X565291Y51228D01*
X565207Y51174D01*
X565121Y51124D01*
X565033Y51077D01*
X564943Y51033D01*
X564852Y50993D01*
X564759Y50957D01*
X564665Y50924D01*
X564569Y50895D01*
X564473Y50870D01*
X564376Y50849D01*
X564277Y50831D01*
X564179Y50818D01*
X564079Y50808D01*
X563980Y50802D01*
X563880Y50800D01*
X556260Y50800D01*
X556160Y50802D01*
X556061Y50808D01*
X555961Y50818D01*
X555863Y50831D01*
X555764Y50849D01*
X555667Y50870D01*
X555571Y50895D01*
X555475Y50924D01*
X555381Y50957D01*
X555288Y50993D01*
X555197Y51033D01*
X555107Y51077D01*
X555019Y51124D01*
X554933Y51174D01*
X554849Y51228D01*
X554767Y51285D01*
X554688Y51345D01*
X554610Y51409D01*
X554536Y51475D01*
X554464Y51544D01*
X554395Y51616D01*
X554329Y51690D01*
X554265Y51768D01*
X554205Y51847D01*
X554148Y51929D01*
X554094Y52013D01*
X554044Y52099D01*
X553997Y52187D01*
X553953Y52277D01*
X553913Y52368D01*
X553877Y52461D01*
X553844Y52555D01*
X553815Y52651D01*
X553790Y52747D01*
X553769Y52844D01*
X553751Y52943D01*
X553738Y53041D01*
X553728Y53141D01*
X553722Y53240D01*
X553720Y53340D01*
X553720Y76200D01*
X553722Y76300D01*
X553728Y76399D01*
X553738Y76499D01*
X553751Y76597D01*
X553769Y76696D01*
X553790Y76793D01*
X553815Y76889D01*
X553844Y76985D01*
X553877Y77079D01*
X553913Y77172D01*
X553953Y77263D01*
X553997Y77353D01*
X554044Y77441D01*
X554094Y77527D01*
X554148Y77611D01*
X554205Y77693D01*
X554265Y77772D01*
X554329Y77850D01*
X554395Y77924D01*
X554464Y77996D01*
X554536Y78065D01*
X554610Y78131D01*
X554688Y78195D01*
X554767Y78255D01*
X554849Y78312D01*
X554933Y78366D01*
X555019Y78416D01*
X555107Y78463D01*
X555197Y78507D01*
X555288Y78547D01*
X555381Y78583D01*
X555475Y78616D01*
X555571Y78645D01*
X555667Y78670D01*
X555764Y78691D01*
X555863Y78709D01*
X555961Y78722D01*
X556061Y78732D01*
X556160Y78738D01*
X556260Y78740D01*
X563880Y78740D01*
X563980Y78738D01*
X564079Y78732D01*
X564179Y78722D01*
X564277Y78709D01*
X564376Y78691D01*
X564473Y78670D01*
X564569Y78645D01*
X564665Y78616D01*
X564759Y78583D01*
X564852Y78547D01*
X564943Y78507D01*
X565033Y78463D01*
X565121Y78416D01*
X565207Y78366D01*
X565291Y78312D01*
X565373Y78255D01*
X565452Y78195D01*
X565530Y78131D01*
X565604Y78065D01*
X565676Y77996D01*
X565745Y77924D01*
X565811Y77850D01*
X565875Y77772D01*
X565935Y77693D01*
X565992Y77611D01*
X566046Y77527D01*
X566096Y77441D01*
X566143Y77353D01*
X566187Y77263D01*
X566227Y77172D01*
X566263Y77079D01*
X566296Y76985D01*
X566325Y76889D01*
X566350Y76793D01*
X566371Y76696D01*
X566389Y76597D01*
X566402Y76499D01*
X566412Y76399D01*
X566418Y76300D01*
X566420Y76200D01*
X522210Y66760D02*
X522210Y29760D01*
X522210Y66760D02*
X552210Y66760D01*
X552210Y29760D01*
X522210Y29760D01*
D10*
X145890Y43830D02*
X128430Y43830D01*
X128430Y29830D02*
X145890Y29830D01*
X140160Y40830D02*
X134160Y36830D01*
X140160Y40830D02*
X140160Y32830D01*
X134160Y36830D01*
D106*
X133160Y36830D03*
D10*
X128430Y60340D02*
X145890Y60340D01*
X145890Y46340D02*
X128430Y46340D01*
X134160Y53340D02*
X140160Y57340D01*
X140160Y49340D01*
X134160Y53340D01*
D106*
X133160Y53340D03*
D102*
X138080Y72834D02*
X126080Y72834D01*
X126080Y64326D02*
X138080Y64326D01*
X131580Y68580D02*
X134080Y71080D01*
X134080Y66080D01*
X131580Y68580D01*
D107*
X130334Y68580D03*
D102*
X126080Y112586D02*
X138080Y112586D01*
X138080Y121094D02*
X126080Y121094D01*
X132580Y116840D02*
X130080Y114340D01*
X130080Y119340D01*
X132580Y116840D01*
D107*
X133826Y116840D03*
D10*
X485790Y58260D02*
X485790Y38260D01*
X471790Y38260D02*
X471790Y58260D01*
X478790Y50760D02*
X482790Y44760D01*
X474790Y44760D01*
X478790Y50760D01*
D108*
X478790Y51760D03*
D102*
X588920Y30310D02*
X594720Y30310D01*
X594720Y40810D02*
X588920Y40810D01*
D10*
X136374Y78740D02*
X127786Y78740D01*
X127786Y104140D02*
X136374Y104140D01*
X649964Y93478D02*
X653520Y89922D01*
X652766Y65038D02*
X652766Y59958D01*
X649964Y59958D01*
X622548Y59958D02*
X619746Y59958D01*
X619746Y65038D01*
X619746Y87390D02*
X619746Y92470D01*
X622548Y92470D01*
D109*
X654050Y93980D03*
D102*
X607060Y91440D02*
X607060Y68580D01*
X607058Y68480D01*
X607052Y68381D01*
X607042Y68281D01*
X607029Y68183D01*
X607011Y68084D01*
X606990Y67987D01*
X606965Y67891D01*
X606936Y67795D01*
X606903Y67701D01*
X606867Y67608D01*
X606827Y67517D01*
X606783Y67427D01*
X606736Y67339D01*
X606686Y67253D01*
X606632Y67169D01*
X606575Y67087D01*
X606515Y67008D01*
X606451Y66930D01*
X606385Y66856D01*
X606316Y66784D01*
X606244Y66715D01*
X606170Y66649D01*
X606092Y66585D01*
X606013Y66525D01*
X605931Y66468D01*
X605847Y66414D01*
X605761Y66364D01*
X605673Y66317D01*
X605583Y66273D01*
X605492Y66233D01*
X605399Y66197D01*
X605305Y66164D01*
X605209Y66135D01*
X605113Y66110D01*
X605016Y66089D01*
X604917Y66071D01*
X604819Y66058D01*
X604719Y66048D01*
X604620Y66042D01*
X604520Y66040D01*
X596900Y66040D01*
X596800Y66042D01*
X596701Y66048D01*
X596601Y66058D01*
X596503Y66071D01*
X596404Y66089D01*
X596307Y66110D01*
X596211Y66135D01*
X596115Y66164D01*
X596021Y66197D01*
X595928Y66233D01*
X595837Y66273D01*
X595747Y66317D01*
X595659Y66364D01*
X595573Y66414D01*
X595489Y66468D01*
X595407Y66525D01*
X595328Y66585D01*
X595250Y66649D01*
X595176Y66715D01*
X595104Y66784D01*
X595035Y66856D01*
X594969Y66930D01*
X594905Y67008D01*
X594845Y67087D01*
X594788Y67169D01*
X594734Y67253D01*
X594684Y67339D01*
X594637Y67427D01*
X594593Y67517D01*
X594553Y67608D01*
X594517Y67701D01*
X594484Y67795D01*
X594455Y67891D01*
X594430Y67987D01*
X594409Y68084D01*
X594391Y68183D01*
X594378Y68281D01*
X594368Y68381D01*
X594362Y68480D01*
X594360Y68580D01*
X594360Y91440D01*
X594362Y91540D01*
X594368Y91639D01*
X594378Y91739D01*
X594391Y91837D01*
X594409Y91936D01*
X594430Y92033D01*
X594455Y92129D01*
X594484Y92225D01*
X594517Y92319D01*
X594553Y92412D01*
X594593Y92503D01*
X594637Y92593D01*
X594684Y92681D01*
X594734Y92767D01*
X594788Y92851D01*
X594845Y92933D01*
X594905Y93012D01*
X594969Y93090D01*
X595035Y93164D01*
X595104Y93236D01*
X595176Y93305D01*
X595250Y93371D01*
X595328Y93435D01*
X595407Y93495D01*
X595489Y93552D01*
X595573Y93606D01*
X595659Y93656D01*
X595747Y93703D01*
X595837Y93747D01*
X595928Y93787D01*
X596021Y93823D01*
X596115Y93856D01*
X596211Y93885D01*
X596307Y93910D01*
X596404Y93931D01*
X596503Y93949D01*
X596601Y93962D01*
X596701Y93972D01*
X596800Y93978D01*
X596900Y93980D01*
X604520Y93980D01*
X604620Y93978D01*
X604719Y93972D01*
X604819Y93962D01*
X604917Y93949D01*
X605016Y93931D01*
X605113Y93910D01*
X605209Y93885D01*
X605305Y93856D01*
X605399Y93823D01*
X605492Y93787D01*
X605583Y93747D01*
X605673Y93703D01*
X605761Y93656D01*
X605847Y93606D01*
X605931Y93552D01*
X606013Y93495D01*
X606092Y93435D01*
X606170Y93371D01*
X606244Y93305D01*
X606316Y93236D01*
X606385Y93164D01*
X606451Y93090D01*
X606515Y93012D01*
X606575Y92933D01*
X606632Y92851D01*
X606686Y92767D01*
X606736Y92681D01*
X606783Y92593D01*
X606827Y92503D01*
X606867Y92412D01*
X606903Y92319D01*
X606936Y92225D01*
X606965Y92129D01*
X606990Y92033D01*
X607011Y91936D01*
X607029Y91837D01*
X607042Y91739D01*
X607052Y91639D01*
X607058Y91540D01*
X607060Y91440D01*
D10*
X282034Y106060D02*
X262034Y106060D01*
X262034Y92060D02*
X282034Y92060D01*
X275534Y103060D02*
X269534Y99060D01*
X275534Y103060D02*
X275534Y95060D01*
X269534Y99060D01*
D106*
X268534Y99060D03*
D102*
X407310Y44620D02*
X413110Y44620D01*
X413110Y34120D02*
X407310Y34120D01*
X668190Y61616D02*
X668190Y67416D01*
X657690Y67416D02*
X657690Y61616D01*
X380830Y46080D02*
X380830Y40280D01*
X391330Y40280D02*
X391330Y46080D01*
X622554Y44196D02*
X645414Y44196D01*
X645514Y44194D01*
X645613Y44188D01*
X645713Y44178D01*
X645811Y44165D01*
X645910Y44147D01*
X646007Y44126D01*
X646103Y44101D01*
X646199Y44072D01*
X646293Y44039D01*
X646386Y44003D01*
X646477Y43963D01*
X646567Y43919D01*
X646655Y43872D01*
X646741Y43822D01*
X646825Y43768D01*
X646907Y43711D01*
X646986Y43651D01*
X647064Y43587D01*
X647138Y43521D01*
X647210Y43452D01*
X647279Y43380D01*
X647345Y43306D01*
X647409Y43228D01*
X647469Y43149D01*
X647526Y43067D01*
X647580Y42983D01*
X647630Y42897D01*
X647677Y42809D01*
X647721Y42719D01*
X647761Y42628D01*
X647797Y42535D01*
X647830Y42441D01*
X647859Y42345D01*
X647884Y42249D01*
X647905Y42152D01*
X647923Y42053D01*
X647936Y41955D01*
X647946Y41855D01*
X647952Y41756D01*
X647954Y41656D01*
X647954Y34036D01*
X647952Y33936D01*
X647946Y33837D01*
X647936Y33737D01*
X647923Y33639D01*
X647905Y33540D01*
X647884Y33443D01*
X647859Y33347D01*
X647830Y33251D01*
X647797Y33157D01*
X647761Y33064D01*
X647721Y32973D01*
X647677Y32883D01*
X647630Y32795D01*
X647580Y32709D01*
X647526Y32625D01*
X647469Y32543D01*
X647409Y32464D01*
X647345Y32386D01*
X647279Y32312D01*
X647210Y32240D01*
X647138Y32171D01*
X647064Y32105D01*
X646986Y32041D01*
X646907Y31981D01*
X646825Y31924D01*
X646741Y31870D01*
X646655Y31820D01*
X646567Y31773D01*
X646477Y31729D01*
X646386Y31689D01*
X646293Y31653D01*
X646199Y31620D01*
X646103Y31591D01*
X646007Y31566D01*
X645910Y31545D01*
X645811Y31527D01*
X645713Y31514D01*
X645613Y31504D01*
X645514Y31498D01*
X645414Y31496D01*
X622554Y31496D01*
X622454Y31498D01*
X622355Y31504D01*
X622255Y31514D01*
X622157Y31527D01*
X622058Y31545D01*
X621961Y31566D01*
X621865Y31591D01*
X621769Y31620D01*
X621675Y31653D01*
X621582Y31689D01*
X621491Y31729D01*
X621401Y31773D01*
X621313Y31820D01*
X621227Y31870D01*
X621143Y31924D01*
X621061Y31981D01*
X620982Y32041D01*
X620904Y32105D01*
X620830Y32171D01*
X620758Y32240D01*
X620689Y32312D01*
X620623Y32386D01*
X620559Y32464D01*
X620499Y32543D01*
X620442Y32625D01*
X620388Y32709D01*
X620338Y32795D01*
X620291Y32883D01*
X620247Y32973D01*
X620207Y33064D01*
X620171Y33157D01*
X620138Y33251D01*
X620109Y33347D01*
X620084Y33443D01*
X620063Y33540D01*
X620045Y33639D01*
X620032Y33737D01*
X620022Y33837D01*
X620016Y33936D01*
X620014Y34036D01*
X620014Y41656D01*
X620016Y41756D01*
X620022Y41855D01*
X620032Y41955D01*
X620045Y42053D01*
X620063Y42152D01*
X620084Y42249D01*
X620109Y42345D01*
X620138Y42441D01*
X620171Y42535D01*
X620207Y42628D01*
X620247Y42719D01*
X620291Y42809D01*
X620338Y42897D01*
X620388Y42983D01*
X620442Y43067D01*
X620499Y43149D01*
X620559Y43228D01*
X620623Y43306D01*
X620689Y43380D01*
X620758Y43452D01*
X620830Y43521D01*
X620904Y43587D01*
X620982Y43651D01*
X621061Y43711D01*
X621143Y43768D01*
X621227Y43822D01*
X621313Y43872D01*
X621401Y43919D01*
X621491Y43963D01*
X621582Y44003D01*
X621675Y44039D01*
X621769Y44072D01*
X621865Y44101D01*
X621961Y44126D01*
X622058Y44147D01*
X622157Y44165D01*
X622255Y44178D01*
X622355Y44188D01*
X622454Y44194D01*
X622554Y44196D01*
X254540Y106200D02*
X194540Y106200D01*
X254540Y106200D02*
X254540Y46200D01*
X194540Y46200D01*
X194540Y106200D01*
X289540Y106200D02*
X349540Y106200D01*
X349540Y46200D01*
X289540Y46200D01*
X289540Y106200D01*
X842490Y106200D02*
X842490Y46200D01*
X902490Y46200D01*
X902490Y106200D01*
X842490Y106200D01*
X689610Y113030D02*
X666750Y113030D01*
X666650Y113032D01*
X666551Y113038D01*
X666451Y113048D01*
X666353Y113061D01*
X666254Y113079D01*
X666157Y113100D01*
X666061Y113125D01*
X665965Y113154D01*
X665871Y113187D01*
X665778Y113223D01*
X665687Y113263D01*
X665597Y113307D01*
X665509Y113354D01*
X665423Y113404D01*
X665339Y113458D01*
X665257Y113515D01*
X665178Y113575D01*
X665100Y113639D01*
X665026Y113705D01*
X664954Y113774D01*
X664885Y113846D01*
X664819Y113920D01*
X664755Y113998D01*
X664695Y114077D01*
X664638Y114159D01*
X664584Y114243D01*
X664534Y114329D01*
X664487Y114417D01*
X664443Y114507D01*
X664403Y114598D01*
X664367Y114691D01*
X664334Y114785D01*
X664305Y114881D01*
X664280Y114977D01*
X664259Y115074D01*
X664241Y115173D01*
X664228Y115271D01*
X664218Y115371D01*
X664212Y115470D01*
X664210Y115570D01*
X664210Y123190D01*
X664212Y123290D01*
X664218Y123389D01*
X664228Y123489D01*
X664241Y123587D01*
X664259Y123686D01*
X664280Y123783D01*
X664305Y123879D01*
X664334Y123975D01*
X664367Y124069D01*
X664403Y124162D01*
X664443Y124253D01*
X664487Y124343D01*
X664534Y124431D01*
X664584Y124517D01*
X664638Y124601D01*
X664695Y124683D01*
X664755Y124762D01*
X664819Y124840D01*
X664885Y124914D01*
X664954Y124986D01*
X665026Y125055D01*
X665100Y125121D01*
X665178Y125185D01*
X665257Y125245D01*
X665339Y125302D01*
X665423Y125356D01*
X665509Y125406D01*
X665597Y125453D01*
X665687Y125497D01*
X665778Y125537D01*
X665871Y125573D01*
X665965Y125606D01*
X666061Y125635D01*
X666157Y125660D01*
X666254Y125681D01*
X666353Y125699D01*
X666451Y125712D01*
X666551Y125722D01*
X666650Y125728D01*
X666750Y125730D01*
X689610Y125730D01*
X689710Y125728D01*
X689809Y125722D01*
X689909Y125712D01*
X690007Y125699D01*
X690106Y125681D01*
X690203Y125660D01*
X690299Y125635D01*
X690395Y125606D01*
X690489Y125573D01*
X690582Y125537D01*
X690673Y125497D01*
X690763Y125453D01*
X690851Y125406D01*
X690937Y125356D01*
X691021Y125302D01*
X691103Y125245D01*
X691182Y125185D01*
X691260Y125121D01*
X691334Y125055D01*
X691406Y124986D01*
X691475Y124914D01*
X691541Y124840D01*
X691605Y124762D01*
X691665Y124683D01*
X691722Y124601D01*
X691776Y124517D01*
X691826Y124431D01*
X691873Y124343D01*
X691917Y124253D01*
X691957Y124162D01*
X691993Y124069D01*
X692026Y123975D01*
X692055Y123879D01*
X692080Y123783D01*
X692101Y123686D01*
X692119Y123587D01*
X692132Y123489D01*
X692142Y123389D01*
X692148Y123290D01*
X692150Y123190D01*
X692150Y115570D01*
X692148Y115470D01*
X692142Y115371D01*
X692132Y115271D01*
X692119Y115173D01*
X692101Y115074D01*
X692080Y114977D01*
X692055Y114881D01*
X692026Y114785D01*
X691993Y114691D01*
X691957Y114598D01*
X691917Y114507D01*
X691873Y114417D01*
X691826Y114329D01*
X691776Y114243D01*
X691722Y114159D01*
X691665Y114077D01*
X691605Y113998D01*
X691541Y113920D01*
X691475Y113846D01*
X691406Y113774D01*
X691334Y113705D01*
X691260Y113639D01*
X691182Y113575D01*
X691103Y113515D01*
X691021Y113458D01*
X690937Y113404D01*
X690851Y113354D01*
X690763Y113307D01*
X690673Y113263D01*
X690582Y113223D01*
X690489Y113187D01*
X690395Y113154D01*
X690299Y113125D01*
X690203Y113100D01*
X690106Y113079D01*
X690007Y113061D01*
X689909Y113048D01*
X689809Y113038D01*
X689710Y113032D01*
X689610Y113030D01*
X576580Y68580D02*
X576580Y45720D01*
X576580Y68580D02*
X576582Y68680D01*
X576588Y68779D01*
X576598Y68879D01*
X576611Y68977D01*
X576629Y69076D01*
X576650Y69173D01*
X576675Y69269D01*
X576704Y69365D01*
X576737Y69459D01*
X576773Y69552D01*
X576813Y69643D01*
X576857Y69733D01*
X576904Y69821D01*
X576954Y69907D01*
X577008Y69991D01*
X577065Y70073D01*
X577125Y70152D01*
X577189Y70230D01*
X577255Y70304D01*
X577324Y70376D01*
X577396Y70445D01*
X577470Y70511D01*
X577548Y70575D01*
X577627Y70635D01*
X577709Y70692D01*
X577793Y70746D01*
X577879Y70796D01*
X577967Y70843D01*
X578057Y70887D01*
X578148Y70927D01*
X578241Y70963D01*
X578335Y70996D01*
X578431Y71025D01*
X578527Y71050D01*
X578624Y71071D01*
X578723Y71089D01*
X578821Y71102D01*
X578921Y71112D01*
X579020Y71118D01*
X579120Y71120D01*
X586740Y71120D01*
X586840Y71118D01*
X586939Y71112D01*
X587039Y71102D01*
X587137Y71089D01*
X587236Y71071D01*
X587333Y71050D01*
X587429Y71025D01*
X587525Y70996D01*
X587619Y70963D01*
X587712Y70927D01*
X587803Y70887D01*
X587893Y70843D01*
X587981Y70796D01*
X588067Y70746D01*
X588151Y70692D01*
X588233Y70635D01*
X588312Y70575D01*
X588390Y70511D01*
X588464Y70445D01*
X588536Y70376D01*
X588605Y70304D01*
X588671Y70230D01*
X588735Y70152D01*
X588795Y70073D01*
X588852Y69991D01*
X588906Y69907D01*
X588956Y69821D01*
X589003Y69733D01*
X589047Y69643D01*
X589087Y69552D01*
X589123Y69459D01*
X589156Y69365D01*
X589185Y69269D01*
X589210Y69173D01*
X589231Y69076D01*
X589249Y68977D01*
X589262Y68879D01*
X589272Y68779D01*
X589278Y68680D01*
X589280Y68580D01*
X589280Y45720D01*
X589278Y45620D01*
X589272Y45521D01*
X589262Y45421D01*
X589249Y45323D01*
X589231Y45224D01*
X589210Y45127D01*
X589185Y45031D01*
X589156Y44935D01*
X589123Y44841D01*
X589087Y44748D01*
X589047Y44657D01*
X589003Y44567D01*
X588956Y44479D01*
X588906Y44393D01*
X588852Y44309D01*
X588795Y44227D01*
X588735Y44148D01*
X588671Y44070D01*
X588605Y43996D01*
X588536Y43924D01*
X588464Y43855D01*
X588390Y43789D01*
X588312Y43725D01*
X588233Y43665D01*
X588151Y43608D01*
X588067Y43554D01*
X587981Y43504D01*
X587893Y43457D01*
X587803Y43413D01*
X587712Y43373D01*
X587619Y43337D01*
X587525Y43304D01*
X587429Y43275D01*
X587333Y43250D01*
X587236Y43229D01*
X587137Y43211D01*
X587039Y43198D01*
X586939Y43188D01*
X586840Y43182D01*
X586740Y43180D01*
X579120Y43180D01*
X579020Y43182D01*
X578921Y43188D01*
X578821Y43198D01*
X578723Y43211D01*
X578624Y43229D01*
X578527Y43250D01*
X578431Y43275D01*
X578335Y43304D01*
X578241Y43337D01*
X578148Y43373D01*
X578057Y43413D01*
X577967Y43457D01*
X577879Y43504D01*
X577793Y43554D01*
X577709Y43608D01*
X577627Y43665D01*
X577548Y43725D01*
X577470Y43789D01*
X577396Y43855D01*
X577324Y43924D01*
X577255Y43996D01*
X577189Y44070D01*
X577125Y44148D01*
X577065Y44227D01*
X577008Y44309D01*
X576954Y44393D01*
X576904Y44479D01*
X576857Y44567D01*
X576813Y44657D01*
X576773Y44748D01*
X576737Y44841D01*
X576704Y44935D01*
X576675Y45031D01*
X576650Y45127D01*
X576629Y45224D01*
X576611Y45323D01*
X576598Y45421D01*
X576588Y45521D01*
X576582Y45620D01*
X576580Y45720D01*
X286004Y59690D02*
X258064Y59690D01*
X286004Y59690D02*
X286004Y46990D01*
X258064Y46990D01*
X258064Y59690D01*
M02*
