G04 EAGLE Gerber RS-274X export*
G75*
%MOMM*%
%FSLAX34Y34*%
%LPD*%
%INSoldermask Bottom*%
%IPPOS*%
%AMOC8*
5,1,8,0,0,1.08239X$1,22.5*%
G01*
%ADD10C,1.524000*%
%ADD11C,0.914400*%
%ADD12C,0.635000*%
%ADD13C,0.660400*%
%ADD14C,0.558800*%
%ADD15C,0.508000*%
%ADD16C,0.711200*%
%ADD17C,0.406400*%
%ADD18C,0.272541*%
%ADD19C,0.700800*%
%ADD20C,0.216575*%
%ADD21C,0.252447*%
%ADD22C,0.307338*%
%ADD23C,0.246731*%
%ADD24C,0.201747*%
%ADD25C,0.369822*%
%ADD26C,0.243838*%
%ADD27C,0.275731*%
%ADD28C,2.050800*%
%ADD29C,0.280559*%
%ADD30C,0.425194*%
%ADD31P,2.246825X8X112.500000*%
%ADD32C,0.182878*%
%ADD33C,1.050800*%

G36*
X150878Y46519D02*
X150878Y46519D01*
X150880Y46518D01*
X150923Y46538D01*
X150967Y46556D01*
X150967Y46558D01*
X150969Y46559D01*
X151002Y46644D01*
X151002Y51624D01*
X155610Y51624D01*
X155612Y51625D01*
X155614Y51624D01*
X155657Y51644D01*
X155701Y51662D01*
X155701Y51664D01*
X155703Y51665D01*
X155736Y51750D01*
X155736Y75250D01*
X155735Y75252D01*
X155736Y75254D01*
X155716Y75297D01*
X155698Y75341D01*
X155696Y75341D01*
X155695Y75343D01*
X155610Y75376D01*
X151002Y75376D01*
X151002Y80518D01*
X151001Y80520D01*
X151002Y80522D01*
X150982Y80565D01*
X150964Y80609D01*
X150962Y80609D01*
X150961Y80611D01*
X150876Y80644D01*
X148844Y80644D01*
X148842Y80643D01*
X148840Y80644D01*
X148797Y80624D01*
X148753Y80606D01*
X148753Y80604D01*
X148751Y80603D01*
X148718Y80518D01*
X148718Y75376D01*
X138110Y75376D01*
X138108Y75375D01*
X138106Y75376D01*
X138063Y75356D01*
X138019Y75338D01*
X138019Y75336D01*
X138017Y75335D01*
X137984Y75250D01*
X137984Y51750D01*
X137985Y51748D01*
X137984Y51746D01*
X138004Y51703D01*
X138022Y51659D01*
X138024Y51659D01*
X138025Y51657D01*
X138110Y51624D01*
X148718Y51624D01*
X148718Y46644D01*
X148719Y46642D01*
X148718Y46640D01*
X148738Y46597D01*
X148756Y46553D01*
X148758Y46553D01*
X148759Y46551D01*
X148844Y46518D01*
X150876Y46518D01*
X150878Y46519D01*
G37*
G36*
X236288Y70325D02*
X236288Y70325D01*
X236290Y70324D01*
X236333Y70344D01*
X236377Y70362D01*
X236377Y70364D01*
X236379Y70365D01*
X236412Y70450D01*
X236412Y75058D01*
X241554Y75058D01*
X241556Y75059D01*
X241558Y75058D01*
X241601Y75078D01*
X241645Y75096D01*
X241645Y75098D01*
X241647Y75099D01*
X241680Y75184D01*
X241680Y77216D01*
X241679Y77218D01*
X241680Y77220D01*
X241660Y77263D01*
X241642Y77307D01*
X241640Y77307D01*
X241639Y77309D01*
X241554Y77342D01*
X236412Y77342D01*
X236412Y87950D01*
X236411Y87952D01*
X236412Y87954D01*
X236392Y87997D01*
X236374Y88041D01*
X236372Y88041D01*
X236371Y88043D01*
X236286Y88076D01*
X212786Y88076D01*
X212784Y88075D01*
X212782Y88076D01*
X212739Y88056D01*
X212695Y88038D01*
X212695Y88036D01*
X212693Y88035D01*
X212660Y87950D01*
X212660Y77342D01*
X207680Y77342D01*
X207678Y77341D01*
X207676Y77342D01*
X207633Y77322D01*
X207589Y77304D01*
X207589Y77302D01*
X207587Y77301D01*
X207554Y77216D01*
X207554Y75184D01*
X207555Y75182D01*
X207554Y75180D01*
X207574Y75137D01*
X207592Y75093D01*
X207594Y75093D01*
X207595Y75091D01*
X207680Y75058D01*
X212660Y75058D01*
X212660Y70450D01*
X212661Y70448D01*
X212660Y70446D01*
X212680Y70403D01*
X212698Y70359D01*
X212700Y70359D01*
X212701Y70357D01*
X212786Y70324D01*
X236286Y70324D01*
X236288Y70325D01*
G37*
G36*
X78084Y113354D02*
X78084Y113354D01*
X78087Y113351D01*
X79209Y113506D01*
X79214Y113511D01*
X79218Y113508D01*
X80289Y113879D01*
X80293Y113885D01*
X80298Y113883D01*
X81275Y114456D01*
X81278Y114462D01*
X81283Y114461D01*
X82130Y115214D01*
X82132Y115221D01*
X82137Y115221D01*
X82821Y116124D01*
X82821Y116131D01*
X82826Y116132D01*
X83321Y117151D01*
X83319Y117158D01*
X83324Y117160D01*
X83611Y118257D01*
X83609Y118261D01*
X83611Y118262D01*
X83609Y118264D01*
X83612Y118266D01*
X83679Y119397D01*
X83677Y119401D01*
X83679Y119403D01*
X83612Y120534D01*
X83607Y120539D01*
X83611Y120543D01*
X83324Y121640D01*
X83318Y121644D01*
X83321Y121649D01*
X82826Y122668D01*
X82820Y122671D01*
X82821Y122676D01*
X82137Y123579D01*
X82130Y123581D01*
X82130Y123586D01*
X81283Y124339D01*
X81276Y124339D01*
X81275Y124344D01*
X80298Y124917D01*
X80291Y124916D01*
X80289Y124921D01*
X79218Y125292D01*
X79212Y125289D01*
X79209Y125294D01*
X78087Y125449D01*
X78082Y125446D01*
X78080Y125449D01*
X66080Y125449D01*
X66075Y125446D01*
X66072Y125449D01*
X64805Y125244D01*
X64799Y125238D01*
X64795Y125241D01*
X63605Y124759D01*
X63601Y124752D01*
X63595Y124754D01*
X62542Y124020D01*
X62540Y124012D01*
X62534Y124013D01*
X61671Y123063D01*
X61670Y123054D01*
X61665Y123054D01*
X61035Y121935D01*
X61036Y121927D01*
X61030Y121925D01*
X60665Y120695D01*
X60668Y120687D01*
X60663Y120684D01*
X60581Y119403D01*
X60584Y119399D01*
X60581Y119397D01*
X60663Y118116D01*
X60669Y118110D01*
X60665Y118105D01*
X61030Y116875D01*
X61037Y116870D01*
X61035Y116865D01*
X61665Y115746D01*
X61672Y115743D01*
X61671Y115737D01*
X62534Y114787D01*
X62542Y114786D01*
X62542Y114780D01*
X63595Y114046D01*
X63603Y114046D01*
X63605Y114041D01*
X64795Y113559D01*
X64802Y113561D01*
X64805Y113556D01*
X66072Y113351D01*
X66077Y113354D01*
X66080Y113351D01*
X78080Y113351D01*
X78084Y113354D01*
G37*
G36*
X78084Y26954D02*
X78084Y26954D01*
X78087Y26951D01*
X79209Y27106D01*
X79214Y27111D01*
X79218Y27108D01*
X80289Y27479D01*
X80293Y27485D01*
X80298Y27483D01*
X81275Y28056D01*
X81278Y28062D01*
X81283Y28061D01*
X82130Y28814D01*
X82132Y28821D01*
X82137Y28821D01*
X82821Y29724D01*
X82821Y29731D01*
X82826Y29732D01*
X83321Y30751D01*
X83319Y30758D01*
X83324Y30760D01*
X83611Y31857D01*
X83609Y31861D01*
X83611Y31862D01*
X83609Y31864D01*
X83612Y31866D01*
X83679Y32997D01*
X83677Y33001D01*
X83679Y33003D01*
X83612Y34134D01*
X83607Y34139D01*
X83611Y34143D01*
X83324Y35240D01*
X83318Y35244D01*
X83321Y35249D01*
X82826Y36268D01*
X82820Y36271D01*
X82821Y36276D01*
X82137Y37179D01*
X82130Y37181D01*
X82130Y37186D01*
X81283Y37939D01*
X81276Y37939D01*
X81275Y37944D01*
X80298Y38517D01*
X80291Y38516D01*
X80289Y38521D01*
X79218Y38892D01*
X79212Y38889D01*
X79209Y38894D01*
X78087Y39049D01*
X78082Y39046D01*
X78080Y39049D01*
X66080Y39049D01*
X66075Y39046D01*
X66072Y39049D01*
X64805Y38844D01*
X64799Y38838D01*
X64795Y38841D01*
X63605Y38359D01*
X63601Y38352D01*
X63595Y38354D01*
X62542Y37620D01*
X62540Y37612D01*
X62534Y37613D01*
X61671Y36663D01*
X61670Y36654D01*
X61665Y36654D01*
X61035Y35535D01*
X61036Y35527D01*
X61030Y35525D01*
X60665Y34295D01*
X60668Y34287D01*
X60663Y34284D01*
X60581Y33003D01*
X60584Y32999D01*
X60581Y32997D01*
X60663Y31716D01*
X60669Y31710D01*
X60665Y31705D01*
X61030Y30475D01*
X61037Y30470D01*
X61035Y30465D01*
X61665Y29346D01*
X61672Y29343D01*
X61671Y29337D01*
X62534Y28387D01*
X62542Y28386D01*
X62542Y28380D01*
X63595Y27646D01*
X63603Y27646D01*
X63605Y27641D01*
X64795Y27159D01*
X64802Y27161D01*
X64805Y27156D01*
X66072Y26951D01*
X66077Y26954D01*
X66080Y26951D01*
X78080Y26951D01*
X78084Y26954D01*
G37*
G36*
X33283Y113353D02*
X33283Y113353D01*
X33285Y113351D01*
X34461Y113462D01*
X34466Y113467D01*
X34470Y113464D01*
X35602Y113802D01*
X35606Y113808D01*
X35611Y113806D01*
X36655Y114358D01*
X36658Y114365D01*
X36663Y114363D01*
X37579Y115109D01*
X37580Y115116D01*
X37586Y115116D01*
X38339Y116026D01*
X38339Y116033D01*
X38344Y116034D01*
X38905Y117073D01*
X38904Y117078D01*
X38908Y117080D01*
X38907Y117081D01*
X38909Y117082D01*
X39256Y118211D01*
X39256Y118212D01*
X39257Y118213D01*
X39254Y118217D01*
X39258Y118220D01*
X39379Y119395D01*
X39375Y119402D01*
X39379Y119406D01*
X39222Y120746D01*
X39217Y120752D01*
X39220Y120757D01*
X38769Y122028D01*
X38762Y122033D01*
X38764Y122038D01*
X38042Y123177D01*
X38034Y123180D01*
X38035Y123186D01*
X37077Y124136D01*
X37069Y124137D01*
X37068Y124143D01*
X35923Y124856D01*
X35915Y124855D01*
X35913Y124861D01*
X34637Y125301D01*
X34630Y125299D01*
X34627Y125303D01*
X33285Y125449D01*
X33282Y125447D01*
X33280Y125449D01*
X27280Y125449D01*
X27277Y125447D01*
X27274Y125449D01*
X25945Y125294D01*
X25939Y125288D01*
X25935Y125291D01*
X24674Y124844D01*
X24669Y124837D01*
X24664Y124839D01*
X23534Y124122D01*
X23531Y124115D01*
X23525Y124116D01*
X22583Y123166D01*
X22582Y123157D01*
X22576Y123157D01*
X21869Y122021D01*
X21870Y122013D01*
X21864Y122011D01*
X21428Y120746D01*
X21430Y120738D01*
X21425Y120736D01*
X21281Y119405D01*
X21285Y119399D01*
X21281Y119395D01*
X21391Y118229D01*
X21396Y118224D01*
X21393Y118220D01*
X21728Y117097D01*
X21734Y117093D01*
X21732Y117089D01*
X22280Y116053D01*
X22286Y116050D01*
X22285Y116045D01*
X23024Y115137D01*
X23031Y115135D01*
X23031Y115130D01*
X23933Y114383D01*
X23941Y114383D01*
X23941Y114378D01*
X24972Y113821D01*
X24979Y113822D01*
X24981Y113817D01*
X26100Y113473D01*
X26107Y113475D01*
X26110Y113471D01*
X27275Y113351D01*
X27278Y113353D01*
X27280Y113351D01*
X33280Y113351D01*
X33283Y113353D01*
G37*
G36*
X33283Y26953D02*
X33283Y26953D01*
X33285Y26951D01*
X34461Y27062D01*
X34466Y27067D01*
X34470Y27064D01*
X35602Y27402D01*
X35606Y27408D01*
X35611Y27406D01*
X36655Y27958D01*
X36658Y27965D01*
X36663Y27963D01*
X37579Y28709D01*
X37580Y28716D01*
X37586Y28716D01*
X38339Y29626D01*
X38339Y29633D01*
X38344Y29634D01*
X38905Y30673D01*
X38904Y30678D01*
X38908Y30680D01*
X38907Y30681D01*
X38909Y30682D01*
X39256Y31811D01*
X39256Y31812D01*
X39257Y31813D01*
X39254Y31817D01*
X39258Y31820D01*
X39379Y32995D01*
X39375Y33002D01*
X39379Y33006D01*
X39222Y34346D01*
X39217Y34352D01*
X39220Y34357D01*
X38769Y35628D01*
X38762Y35633D01*
X38764Y35638D01*
X38042Y36777D01*
X38034Y36780D01*
X38035Y36786D01*
X37077Y37736D01*
X37069Y37737D01*
X37068Y37743D01*
X35923Y38456D01*
X35915Y38455D01*
X35913Y38461D01*
X34637Y38901D01*
X34630Y38899D01*
X34627Y38903D01*
X33285Y39049D01*
X33282Y39047D01*
X33280Y39049D01*
X27280Y39049D01*
X27277Y39047D01*
X27274Y39049D01*
X25945Y38894D01*
X25939Y38888D01*
X25935Y38891D01*
X24674Y38444D01*
X24669Y38437D01*
X24664Y38439D01*
X23534Y37722D01*
X23531Y37715D01*
X23525Y37716D01*
X22583Y36766D01*
X22582Y36757D01*
X22576Y36757D01*
X21869Y35621D01*
X21870Y35613D01*
X21864Y35611D01*
X21428Y34346D01*
X21430Y34338D01*
X21425Y34336D01*
X21281Y33005D01*
X21285Y32999D01*
X21281Y32995D01*
X21391Y31829D01*
X21396Y31824D01*
X21393Y31820D01*
X21728Y30697D01*
X21734Y30693D01*
X21732Y30689D01*
X22280Y29653D01*
X22286Y29650D01*
X22285Y29645D01*
X23024Y28737D01*
X23031Y28735D01*
X23031Y28730D01*
X23933Y27983D01*
X23941Y27983D01*
X23941Y27978D01*
X24972Y27421D01*
X24979Y27422D01*
X24981Y27417D01*
X26100Y27073D01*
X26107Y27075D01*
X26110Y27071D01*
X27275Y26951D01*
X27278Y26953D01*
X27280Y26951D01*
X33280Y26951D01*
X33283Y26953D01*
G37*
D10*
X340360Y55880D02*
X340360Y38100D01*
D11*
X259080Y34290D02*
X128270Y34290D01*
X109220Y53340D01*
D12*
X86360Y58420D02*
X72390Y58420D01*
X78740Y44450D02*
X88900Y55880D01*
X78740Y53340D02*
X78740Y44450D01*
X78740Y53340D02*
X77470Y53340D01*
X72390Y58420D01*
X86360Y58420D02*
X88900Y55880D01*
D13*
X78740Y54610D02*
X105410Y54610D01*
X109220Y54610D01*
D14*
X109220Y50800D02*
X105410Y54610D01*
X330200Y33020D02*
X340360Y33020D01*
X336550Y39370D02*
X330200Y33020D01*
D15*
X114554Y109220D02*
X114554Y120396D01*
X114554Y109220D02*
X114554Y101600D01*
X106934Y101600D01*
X114554Y109220D01*
D16*
X210312Y49784D02*
X227076Y49784D01*
X210312Y49784D02*
X205232Y54864D01*
X192024Y54864D01*
X192024Y49784D01*
X210312Y49784D01*
D17*
X224536Y51308D02*
X231140Y51308D01*
X228092Y48260D01*
X227076Y48260D01*
D18*
X809787Y38897D02*
X809787Y32223D01*
X803113Y32223D01*
X803113Y38897D01*
X809787Y38897D01*
X809787Y34812D02*
X803113Y34812D01*
X803113Y37401D02*
X809787Y37401D01*
X809787Y47463D02*
X809787Y54137D01*
X809787Y47463D02*
X803113Y47463D01*
X803113Y54137D01*
X809787Y54137D01*
X809787Y50052D02*
X803113Y50052D01*
X803113Y52641D02*
X809787Y52641D01*
X648497Y37627D02*
X641823Y37627D01*
X648497Y37627D02*
X648497Y30953D01*
X641823Y30953D01*
X641823Y37627D01*
X641823Y33542D02*
X648497Y33542D01*
X648497Y36131D02*
X641823Y36131D01*
X633257Y37627D02*
X626583Y37627D01*
X633257Y37627D02*
X633257Y30953D01*
X626583Y30953D01*
X626583Y37627D01*
X626583Y33542D02*
X633257Y33542D01*
X633257Y36131D02*
X626583Y36131D01*
X654523Y30953D02*
X661197Y30953D01*
X654523Y30953D02*
X654523Y37627D01*
X661197Y37627D01*
X661197Y30953D01*
X661197Y33542D02*
X654523Y33542D01*
X654523Y36131D02*
X661197Y36131D01*
X669763Y30953D02*
X676437Y30953D01*
X669763Y30953D02*
X669763Y37627D01*
X676437Y37627D01*
X676437Y30953D01*
X676437Y33542D02*
X669763Y33542D01*
X669763Y36131D02*
X676437Y36131D01*
X695163Y117383D02*
X701837Y117383D01*
X701837Y110709D01*
X695163Y110709D01*
X695163Y117383D01*
X695163Y113298D02*
X701837Y113298D01*
X701837Y115887D02*
X695163Y115887D01*
X686597Y117383D02*
X679923Y117383D01*
X686597Y117383D02*
X686597Y110709D01*
X679923Y110709D01*
X679923Y117383D01*
X679923Y113298D02*
X686597Y113298D01*
X686597Y115887D02*
X679923Y115887D01*
X803113Y120557D02*
X809787Y120557D01*
X809787Y113883D01*
X803113Y113883D01*
X803113Y120557D01*
X803113Y116472D02*
X809787Y116472D01*
X809787Y119061D02*
X803113Y119061D01*
X803113Y104557D02*
X809787Y104557D01*
X809787Y97883D01*
X803113Y97883D01*
X803113Y104557D01*
X803113Y100472D02*
X809787Y100472D01*
X809787Y103061D02*
X803113Y103061D01*
D19*
X66830Y105100D03*
X66830Y47300D03*
D18*
X444973Y122463D02*
X451647Y122463D01*
X451647Y115789D01*
X444973Y115789D01*
X444973Y122463D01*
X444973Y118378D02*
X451647Y118378D01*
X451647Y120967D02*
X444973Y120967D01*
X436407Y122463D02*
X429733Y122463D01*
X436407Y122463D02*
X436407Y115789D01*
X429733Y115789D01*
X429733Y122463D01*
X429733Y118378D02*
X436407Y118378D01*
X436407Y120967D02*
X429733Y120967D01*
X423707Y122463D02*
X417033Y122463D01*
X423707Y122463D02*
X423707Y115789D01*
X417033Y115789D01*
X417033Y122463D01*
X417033Y118378D02*
X423707Y118378D01*
X423707Y120967D02*
X417033Y120967D01*
X408467Y122463D02*
X401793Y122463D01*
X408467Y122463D02*
X408467Y115789D01*
X401793Y115789D01*
X401793Y122463D01*
X401793Y118378D02*
X408467Y118378D01*
X408467Y120967D02*
X401793Y120967D01*
X429733Y94453D02*
X436407Y94453D01*
X429733Y94453D02*
X429733Y101127D01*
X436407Y101127D01*
X436407Y94453D01*
X436407Y97042D02*
X429733Y97042D01*
X429733Y99631D02*
X436407Y99631D01*
X444973Y94453D02*
X451647Y94453D01*
X444973Y94453D02*
X444973Y101127D01*
X451647Y101127D01*
X451647Y94453D01*
X451647Y97042D02*
X444973Y97042D01*
X444973Y99631D02*
X451647Y99631D01*
X436407Y81753D02*
X429733Y81753D01*
X429733Y88427D01*
X436407Y88427D01*
X436407Y81753D01*
X436407Y84342D02*
X429733Y84342D01*
X429733Y86931D02*
X436407Y86931D01*
X444973Y81753D02*
X451647Y81753D01*
X444973Y81753D02*
X444973Y88427D01*
X451647Y88427D01*
X451647Y81753D01*
X451647Y84342D02*
X444973Y84342D01*
X444973Y86931D02*
X451647Y86931D01*
X436407Y63973D02*
X429733Y63973D01*
X429733Y70647D01*
X436407Y70647D01*
X436407Y63973D01*
X436407Y66562D02*
X429733Y66562D01*
X429733Y69151D02*
X436407Y69151D01*
X444973Y63973D02*
X451647Y63973D01*
X444973Y63973D02*
X444973Y70647D01*
X451647Y70647D01*
X451647Y63973D01*
X451647Y66562D02*
X444973Y66562D01*
X444973Y69151D02*
X451647Y69151D01*
X559273Y63027D02*
X559273Y56353D01*
X559273Y63027D02*
X565947Y63027D01*
X565947Y56353D01*
X559273Y56353D01*
X559273Y58942D02*
X565947Y58942D01*
X565947Y61531D02*
X559273Y61531D01*
X559273Y47787D02*
X559273Y41113D01*
X559273Y47787D02*
X565947Y47787D01*
X565947Y41113D01*
X559273Y41113D01*
X559273Y43702D02*
X565947Y43702D01*
X565947Y46291D02*
X559273Y46291D01*
X571973Y56353D02*
X571973Y63027D01*
X578647Y63027D01*
X578647Y56353D01*
X571973Y56353D01*
X571973Y58942D02*
X578647Y58942D01*
X578647Y61531D02*
X571973Y61531D01*
X571973Y47787D02*
X571973Y41113D01*
X571973Y47787D02*
X578647Y47787D01*
X578647Y41113D01*
X571973Y41113D01*
X571973Y43702D02*
X578647Y43702D01*
X578647Y46291D02*
X571973Y46291D01*
D20*
X256990Y121339D02*
X256990Y122181D01*
X265332Y122181D01*
X265332Y121339D01*
X256990Y121339D01*
X256990Y117181D02*
X256990Y116339D01*
X256990Y117181D02*
X265332Y117181D01*
X265332Y116339D01*
X256990Y116339D01*
X256990Y112181D02*
X256990Y111339D01*
X256990Y112181D02*
X265332Y112181D01*
X265332Y111339D01*
X256990Y111339D01*
X256990Y107181D02*
X256990Y106339D01*
X256990Y107181D02*
X265332Y107181D01*
X265332Y106339D01*
X256990Y106339D01*
X256990Y102181D02*
X256990Y101339D01*
X256990Y102181D02*
X265332Y102181D01*
X265332Y101339D01*
X256990Y101339D01*
X223070Y101339D02*
X223070Y102181D01*
X223070Y101339D02*
X214728Y101339D01*
X214728Y102181D01*
X223070Y102181D01*
X223070Y106339D02*
X223070Y107181D01*
X223070Y106339D02*
X214728Y106339D01*
X214728Y107181D01*
X223070Y107181D01*
X223070Y111339D02*
X223070Y112181D01*
X223070Y111339D02*
X214728Y111339D01*
X214728Y112181D01*
X223070Y112181D01*
X223070Y116339D02*
X223070Y117181D01*
X223070Y116339D02*
X214728Y116339D01*
X214728Y117181D01*
X223070Y117181D01*
X223070Y121339D02*
X223070Y122181D01*
X223070Y121339D02*
X214728Y121339D01*
X214728Y122181D01*
X223070Y122181D01*
D18*
X241011Y47463D02*
X247685Y47463D01*
X241011Y47463D02*
X241011Y54137D01*
X247685Y54137D01*
X247685Y47463D01*
X247685Y50052D02*
X241011Y50052D01*
X241011Y52641D02*
X247685Y52641D01*
X256251Y47463D02*
X262925Y47463D01*
X256251Y47463D02*
X256251Y54137D01*
X262925Y54137D01*
X262925Y47463D01*
X262925Y50052D02*
X256251Y50052D01*
X256251Y52641D02*
X262925Y52641D01*
X165897Y117637D02*
X159223Y117637D01*
X165897Y117637D02*
X165897Y110963D01*
X159223Y110963D01*
X159223Y117637D01*
X159223Y113552D02*
X165897Y113552D01*
X165897Y116141D02*
X159223Y116141D01*
X150657Y117637D02*
X143983Y117637D01*
X150657Y117637D02*
X150657Y110963D01*
X143983Y110963D01*
X143983Y117637D01*
X143983Y113552D02*
X150657Y113552D01*
X150657Y116141D02*
X143983Y116141D01*
X171923Y113503D02*
X171923Y120177D01*
X178597Y120177D01*
X178597Y113503D01*
X171923Y113503D01*
X171923Y116092D02*
X178597Y116092D01*
X178597Y118681D02*
X171923Y118681D01*
X171923Y104937D02*
X171923Y98263D01*
X171923Y104937D02*
X178597Y104937D01*
X178597Y98263D01*
X171923Y98263D01*
X171923Y100852D02*
X178597Y100852D01*
X178597Y103441D02*
X171923Y103441D01*
X165897Y104937D02*
X159223Y104937D01*
X165897Y104937D02*
X165897Y98263D01*
X159223Y98263D01*
X159223Y104937D01*
X159223Y100852D02*
X165897Y100852D01*
X165897Y103441D02*
X159223Y103441D01*
X150657Y104937D02*
X143983Y104937D01*
X150657Y104937D02*
X150657Y98263D01*
X143983Y98263D01*
X143983Y104937D01*
X143983Y100852D02*
X150657Y100852D01*
X150657Y103441D02*
X143983Y103441D01*
X202403Y102397D02*
X209077Y102397D01*
X209077Y95723D01*
X202403Y95723D01*
X202403Y102397D01*
X202403Y98312D02*
X209077Y98312D01*
X209077Y100901D02*
X202403Y100901D01*
X193837Y102397D02*
X187163Y102397D01*
X193837Y102397D02*
X193837Y95723D01*
X187163Y95723D01*
X187163Y102397D01*
X187163Y98312D02*
X193837Y98312D01*
X193837Y100901D02*
X187163Y100901D01*
D21*
X235278Y64192D02*
X235278Y58208D01*
X233294Y58208D01*
X233294Y64192D01*
X235278Y64192D01*
X235278Y60606D02*
X233294Y60606D01*
X233294Y63004D02*
X235278Y63004D01*
X228778Y64192D02*
X228778Y58208D01*
X226794Y58208D01*
X226794Y64192D01*
X228778Y64192D01*
X228778Y60606D02*
X226794Y60606D01*
X226794Y63004D02*
X228778Y63004D01*
X222278Y64192D02*
X222278Y58208D01*
X220294Y58208D01*
X220294Y64192D01*
X222278Y64192D01*
X222278Y60606D02*
X220294Y60606D01*
X220294Y63004D02*
X222278Y63004D01*
X215778Y64192D02*
X215778Y58208D01*
X213794Y58208D01*
X213794Y64192D01*
X215778Y64192D01*
X215778Y60606D02*
X213794Y60606D01*
X213794Y63004D02*
X215778Y63004D01*
X215778Y88208D02*
X215778Y94192D01*
X215778Y88208D02*
X213794Y88208D01*
X213794Y94192D01*
X215778Y94192D01*
X215778Y90606D02*
X213794Y90606D01*
X213794Y93004D02*
X215778Y93004D01*
X222278Y94192D02*
X222278Y88208D01*
X220294Y88208D01*
X220294Y94192D01*
X222278Y94192D01*
X222278Y90606D02*
X220294Y90606D01*
X220294Y93004D02*
X222278Y93004D01*
X228778Y94192D02*
X228778Y88208D01*
X226794Y88208D01*
X226794Y94192D01*
X228778Y94192D01*
X228778Y90606D02*
X226794Y90606D01*
X226794Y93004D02*
X228778Y93004D01*
X235278Y94192D02*
X235278Y88208D01*
X233294Y88208D01*
X233294Y94192D01*
X235278Y94192D01*
X235278Y90606D02*
X233294Y90606D01*
X233294Y93004D02*
X235278Y93004D01*
D22*
X225794Y77458D02*
X225794Y74942D01*
X223278Y74942D01*
X223278Y77458D01*
X225794Y77458D01*
D23*
X725295Y57021D02*
X725295Y50979D01*
X718253Y50979D01*
X718253Y57021D01*
X725295Y57021D01*
X725295Y53323D02*
X718253Y53323D01*
X718253Y55667D02*
X725295Y55667D01*
X725295Y69979D02*
X725295Y76021D01*
X725295Y69979D02*
X718253Y69979D01*
X718253Y76021D01*
X725295Y76021D01*
X725295Y72323D02*
X718253Y72323D01*
X718253Y74667D02*
X725295Y74667D01*
X746295Y66521D02*
X746295Y60479D01*
X739253Y60479D01*
X739253Y66521D01*
X746295Y66521D01*
X746295Y62823D02*
X739253Y62823D01*
X739253Y65167D02*
X746295Y65167D01*
D18*
X762473Y114773D02*
X769147Y114773D01*
X762473Y114773D02*
X762473Y121447D01*
X769147Y121447D01*
X769147Y114773D01*
X769147Y117362D02*
X762473Y117362D01*
X762473Y119951D02*
X769147Y119951D01*
X777713Y114773D02*
X784387Y114773D01*
X777713Y114773D02*
X777713Y121447D01*
X784387Y121447D01*
X784387Y114773D01*
X784387Y117362D02*
X777713Y117362D01*
X777713Y119951D02*
X784387Y119951D01*
X728507Y37303D02*
X721833Y37303D01*
X721833Y43977D01*
X728507Y43977D01*
X728507Y37303D01*
X728507Y39892D02*
X721833Y39892D01*
X721833Y42481D02*
X728507Y42481D01*
X737073Y37303D02*
X743747Y37303D01*
X737073Y37303D02*
X737073Y43977D01*
X743747Y43977D01*
X743747Y37303D01*
X743747Y39892D02*
X737073Y39892D01*
X737073Y42481D02*
X743747Y42481D01*
D24*
X424706Y38466D02*
X424706Y33974D01*
X414214Y33974D01*
X414214Y38466D01*
X424706Y38466D01*
X424706Y35890D02*
X414214Y35890D01*
X414214Y37806D02*
X424706Y37806D01*
X424706Y52974D02*
X424706Y57466D01*
X424706Y52974D02*
X414214Y52974D01*
X414214Y57466D01*
X424706Y57466D01*
X424706Y54890D02*
X414214Y54890D01*
X414214Y56806D02*
X424706Y56806D01*
X398586Y38466D02*
X398586Y33974D01*
X388094Y33974D01*
X388094Y38466D01*
X398586Y38466D01*
X398586Y35890D02*
X388094Y35890D01*
X388094Y37806D02*
X398586Y37806D01*
X398586Y43474D02*
X398586Y47966D01*
X398586Y43474D02*
X388094Y43474D01*
X388094Y47966D01*
X398586Y47966D01*
X398586Y45390D02*
X388094Y45390D01*
X388094Y47306D02*
X398586Y47306D01*
X398586Y52974D02*
X398586Y57466D01*
X398586Y52974D02*
X388094Y52974D01*
X388094Y57466D01*
X398586Y57466D01*
X398586Y54890D02*
X388094Y54890D01*
X388094Y56806D02*
X398586Y56806D01*
D18*
X310677Y98333D02*
X304003Y98333D01*
X310677Y98333D02*
X310677Y91659D01*
X304003Y91659D01*
X304003Y98333D01*
X304003Y94248D02*
X310677Y94248D01*
X310677Y96837D02*
X304003Y96837D01*
X295437Y98333D02*
X288763Y98333D01*
X295437Y98333D02*
X295437Y91659D01*
X288763Y91659D01*
X288763Y98333D01*
X288763Y94248D02*
X295437Y94248D01*
X295437Y96837D02*
X288763Y96837D01*
X316703Y104359D02*
X316703Y111033D01*
X323377Y111033D01*
X323377Y104359D01*
X316703Y104359D01*
X316703Y106948D02*
X323377Y106948D01*
X323377Y109537D02*
X316703Y109537D01*
X316703Y95793D02*
X316703Y89119D01*
X316703Y95793D02*
X323377Y95793D01*
X323377Y89119D01*
X316703Y89119D01*
X316703Y91708D02*
X323377Y91708D01*
X323377Y94297D02*
X316703Y94297D01*
X275625Y71917D02*
X275625Y65243D01*
X268951Y65243D01*
X268951Y71917D01*
X275625Y71917D01*
X275625Y67832D02*
X268951Y67832D01*
X268951Y70421D02*
X275625Y70421D01*
X275625Y80483D02*
X275625Y87157D01*
X275625Y80483D02*
X268951Y80483D01*
X268951Y87157D01*
X275625Y87157D01*
X275625Y83072D02*
X268951Y83072D01*
X268951Y85661D02*
X275625Y85661D01*
X367827Y40167D02*
X367827Y33493D01*
X361153Y33493D01*
X361153Y40167D01*
X367827Y40167D01*
X367827Y36082D02*
X361153Y36082D01*
X361153Y38671D02*
X367827Y38671D01*
X367827Y48733D02*
X367827Y55407D01*
X367827Y48733D02*
X361153Y48733D01*
X361153Y55407D01*
X367827Y55407D01*
X367827Y51322D02*
X361153Y51322D01*
X361153Y53911D02*
X367827Y53911D01*
X380527Y40167D02*
X380527Y33493D01*
X373853Y33493D01*
X373853Y40167D01*
X380527Y40167D01*
X380527Y36082D02*
X373853Y36082D01*
X373853Y38671D02*
X380527Y38671D01*
X380527Y48733D02*
X380527Y55407D01*
X380527Y48733D02*
X373853Y48733D01*
X373853Y55407D01*
X380527Y55407D01*
X380527Y51322D02*
X373853Y51322D01*
X373853Y53911D02*
X380527Y53911D01*
D23*
X182091Y56791D02*
X182091Y49749D01*
X176049Y49749D01*
X176049Y56791D01*
X182091Y56791D01*
X182091Y52093D02*
X176049Y52093D01*
X176049Y54437D02*
X182091Y54437D01*
X182091Y56781D02*
X176049Y56781D01*
X182091Y72749D02*
X182091Y79791D01*
X182091Y72749D02*
X176049Y72749D01*
X176049Y79791D01*
X182091Y79791D01*
X182091Y75093D02*
X176049Y75093D01*
X176049Y77437D02*
X182091Y77437D01*
X182091Y79781D02*
X176049Y79781D01*
D25*
X135565Y84145D02*
X135565Y93655D01*
X135565Y84145D02*
X123515Y84145D01*
X123515Y93655D01*
X135565Y93655D01*
X135565Y87658D02*
X123515Y87658D01*
X123515Y91171D02*
X135565Y91171D01*
X135565Y109545D02*
X135565Y119055D01*
X135565Y109545D02*
X123515Y109545D01*
X123515Y119055D01*
X135565Y119055D01*
X135565Y113058D02*
X123515Y113058D01*
X123515Y116571D02*
X135565Y116571D01*
D18*
X766283Y37627D02*
X772957Y37627D01*
X772957Y30953D01*
X766283Y30953D01*
X766283Y37627D01*
X766283Y33542D02*
X772957Y33542D01*
X772957Y36131D02*
X766283Y36131D01*
X757717Y37627D02*
X751043Y37627D01*
X757717Y37627D02*
X757717Y30953D01*
X751043Y30953D01*
X751043Y37627D01*
X751043Y33542D02*
X757717Y33542D01*
X757717Y36131D02*
X751043Y36131D01*
D26*
X630225Y44145D02*
X624535Y44145D01*
X624535Y57455D01*
X630225Y57455D01*
X630225Y44145D01*
X630225Y46461D02*
X624535Y46461D01*
X624535Y48777D02*
X630225Y48777D01*
X630225Y51093D02*
X624535Y51093D01*
X624535Y53409D02*
X630225Y53409D01*
X630225Y55725D02*
X624535Y55725D01*
X624535Y94945D02*
X630225Y94945D01*
X624535Y94945D02*
X624535Y108255D01*
X630225Y108255D01*
X630225Y94945D01*
X630225Y97261D02*
X624535Y97261D01*
X624535Y99577D02*
X630225Y99577D01*
X630225Y101893D02*
X624535Y101893D01*
X624535Y104209D02*
X630225Y104209D01*
X630225Y106525D02*
X624535Y106525D01*
X592125Y44145D02*
X586435Y44145D01*
X586435Y57455D01*
X592125Y57455D01*
X592125Y44145D01*
X592125Y46461D02*
X586435Y46461D01*
X586435Y48777D02*
X592125Y48777D01*
X592125Y51093D02*
X586435Y51093D01*
X586435Y53409D02*
X592125Y53409D01*
X592125Y55725D02*
X586435Y55725D01*
X586435Y94945D02*
X592125Y94945D01*
X586435Y94945D02*
X586435Y108255D01*
X592125Y108255D01*
X592125Y94945D01*
X592125Y97261D02*
X586435Y97261D01*
X586435Y99577D02*
X592125Y99577D01*
X592125Y101893D02*
X586435Y101893D01*
X586435Y104209D02*
X592125Y104209D01*
X592125Y106525D02*
X586435Y106525D01*
X751535Y108255D02*
X757225Y108255D01*
X757225Y94945D01*
X751535Y94945D01*
X751535Y108255D01*
X751535Y97261D02*
X757225Y97261D01*
X757225Y99577D02*
X751535Y99577D01*
X751535Y101893D02*
X757225Y101893D01*
X757225Y104209D02*
X751535Y104209D01*
X751535Y106525D02*
X757225Y106525D01*
X757225Y57455D02*
X751535Y57455D01*
X757225Y57455D02*
X757225Y44145D01*
X751535Y44145D01*
X751535Y57455D01*
X751535Y46461D02*
X757225Y46461D01*
X757225Y48777D02*
X751535Y48777D01*
X751535Y51093D02*
X757225Y51093D01*
X757225Y53409D02*
X751535Y53409D01*
X751535Y55725D02*
X757225Y55725D01*
X789635Y108255D02*
X795325Y108255D01*
X795325Y94945D01*
X789635Y94945D01*
X789635Y108255D01*
X789635Y97261D02*
X795325Y97261D01*
X795325Y99577D02*
X789635Y99577D01*
X789635Y101893D02*
X795325Y101893D01*
X795325Y104209D02*
X789635Y104209D01*
X789635Y106525D02*
X795325Y106525D01*
X795325Y57455D02*
X789635Y57455D01*
X795325Y57455D02*
X795325Y44145D01*
X789635Y44145D01*
X789635Y57455D01*
X789635Y46461D02*
X795325Y46461D01*
X795325Y48777D02*
X789635Y48777D01*
X789635Y51093D02*
X795325Y51093D01*
X795325Y53409D02*
X789635Y53409D01*
X789635Y55725D02*
X795325Y55725D01*
D21*
X167852Y74242D02*
X161868Y74242D01*
X167852Y74242D02*
X167852Y72258D01*
X161868Y72258D01*
X161868Y74242D01*
X161868Y67742D02*
X167852Y67742D01*
X167852Y65758D01*
X161868Y65758D01*
X161868Y67742D01*
X161868Y61242D02*
X167852Y61242D01*
X167852Y59258D01*
X161868Y59258D01*
X161868Y61242D01*
X161868Y54742D02*
X167852Y54742D01*
X167852Y52758D01*
X161868Y52758D01*
X161868Y54742D01*
X137852Y54742D02*
X131868Y54742D01*
X137852Y54742D02*
X137852Y52758D01*
X131868Y52758D01*
X131868Y54742D01*
X131868Y61242D02*
X137852Y61242D01*
X137852Y59258D01*
X131868Y59258D01*
X131868Y61242D01*
X131868Y67742D02*
X137852Y67742D01*
X137852Y65758D01*
X131868Y65758D01*
X131868Y67742D01*
X131868Y74242D02*
X137852Y74242D01*
X137852Y72258D01*
X131868Y72258D01*
X131868Y74242D01*
D22*
X148602Y64758D02*
X151118Y64758D01*
X151118Y62242D01*
X148602Y62242D01*
X148602Y64758D01*
D18*
X150657Y84293D02*
X143983Y84293D01*
X143983Y90967D01*
X150657Y90967D01*
X150657Y84293D01*
X150657Y86882D02*
X143983Y86882D01*
X143983Y89471D02*
X150657Y89471D01*
X159223Y84293D02*
X165897Y84293D01*
X159223Y84293D02*
X159223Y90967D01*
X165897Y90967D01*
X165897Y84293D01*
X165897Y86882D02*
X159223Y86882D01*
X159223Y89471D02*
X165897Y89471D01*
D23*
X318899Y64591D02*
X318899Y58549D01*
X318899Y64591D02*
X325941Y64591D01*
X325941Y58549D01*
X318899Y58549D01*
X318899Y60893D02*
X325941Y60893D01*
X325941Y63237D02*
X318899Y63237D01*
X318899Y45591D02*
X318899Y39549D01*
X318899Y45591D02*
X325941Y45591D01*
X325941Y39549D01*
X318899Y39549D01*
X318899Y41893D02*
X325941Y41893D01*
X325941Y44237D02*
X318899Y44237D01*
X297899Y49049D02*
X297899Y55091D01*
X304941Y55091D01*
X304941Y49049D01*
X297899Y49049D01*
X297899Y51393D02*
X304941Y51393D01*
X304941Y53737D02*
X297899Y53737D01*
D18*
X323815Y79537D02*
X330489Y79537D01*
X330489Y72863D01*
X323815Y72863D01*
X323815Y79537D01*
X323815Y75452D02*
X330489Y75452D01*
X330489Y78041D02*
X323815Y78041D01*
X315249Y79537D02*
X308575Y79537D01*
X315249Y79537D02*
X315249Y72863D01*
X308575Y72863D01*
X308575Y79537D01*
X308575Y75452D02*
X315249Y75452D01*
X315249Y78041D02*
X308575Y78041D01*
X288325Y43977D02*
X288325Y37303D01*
X281651Y37303D01*
X281651Y43977D01*
X288325Y43977D01*
X288325Y39892D02*
X281651Y39892D01*
X281651Y42481D02*
X288325Y42481D01*
X288325Y52543D02*
X288325Y59217D01*
X288325Y52543D02*
X281651Y52543D01*
X281651Y59217D01*
X288325Y59217D01*
X288325Y55132D02*
X281651Y55132D01*
X281651Y57721D02*
X288325Y57721D01*
X275625Y43977D02*
X275625Y37303D01*
X268951Y37303D01*
X268951Y43977D01*
X275625Y43977D01*
X275625Y39892D02*
X268951Y39892D01*
X268951Y42481D02*
X275625Y42481D01*
X275625Y52543D02*
X275625Y59217D01*
X275625Y52543D02*
X268951Y52543D01*
X268951Y59217D01*
X275625Y59217D01*
X275625Y55132D02*
X268951Y55132D01*
X268951Y57721D02*
X275625Y57721D01*
X331943Y93183D02*
X338617Y93183D01*
X331943Y93183D02*
X331943Y99857D01*
X338617Y99857D01*
X338617Y93183D01*
X338617Y95772D02*
X331943Y95772D01*
X331943Y98361D02*
X338617Y98361D01*
X347183Y93183D02*
X353857Y93183D01*
X347183Y93183D02*
X347183Y99857D01*
X353857Y99857D01*
X353857Y93183D01*
X353857Y95772D02*
X347183Y95772D01*
X347183Y98361D02*
X353857Y98361D01*
X297977Y111033D02*
X291303Y111033D01*
X297977Y111033D02*
X297977Y104359D01*
X291303Y104359D01*
X291303Y111033D01*
X291303Y106948D02*
X297977Y106948D01*
X297977Y109537D02*
X291303Y109537D01*
X282737Y111033D02*
X276063Y111033D01*
X282737Y111033D02*
X282737Y104359D01*
X276063Y104359D01*
X276063Y111033D01*
X276063Y106948D02*
X282737Y106948D01*
X282737Y109537D02*
X276063Y109537D01*
D27*
X18494Y105076D02*
X18494Y92324D01*
X18494Y105076D02*
X25246Y105076D01*
X25246Y92324D01*
X18494Y92324D01*
X18494Y94943D02*
X25246Y94943D01*
X25246Y97562D02*
X18494Y97562D01*
X18494Y100181D02*
X25246Y100181D01*
X25246Y102800D02*
X18494Y102800D01*
X53494Y105076D02*
X53494Y92324D01*
X53494Y105076D02*
X60246Y105076D01*
X60246Y92324D01*
X53494Y92324D01*
X53494Y94943D02*
X60246Y94943D01*
X60246Y97562D02*
X53494Y97562D01*
X53494Y100181D02*
X60246Y100181D01*
X60246Y102800D02*
X53494Y102800D01*
X53494Y60076D02*
X53494Y47324D01*
X53494Y60076D02*
X60246Y60076D01*
X60246Y47324D01*
X53494Y47324D01*
X53494Y49943D02*
X60246Y49943D01*
X60246Y52562D02*
X53494Y52562D01*
X53494Y55181D02*
X60246Y55181D01*
X60246Y57800D02*
X53494Y57800D01*
D18*
X444973Y57947D02*
X451647Y57947D01*
X451647Y51273D01*
X444973Y51273D01*
X444973Y57947D01*
X444973Y53862D02*
X451647Y53862D01*
X451647Y56451D02*
X444973Y56451D01*
X436407Y57947D02*
X429733Y57947D01*
X436407Y57947D02*
X436407Y51273D01*
X429733Y51273D01*
X429733Y57947D01*
X429733Y53862D02*
X436407Y53862D01*
X436407Y56451D02*
X429733Y56451D01*
X444973Y40167D02*
X451647Y40167D01*
X451647Y33493D01*
X444973Y33493D01*
X444973Y40167D01*
X444973Y36082D02*
X451647Y36082D01*
X451647Y38671D02*
X444973Y38671D01*
X436407Y40167D02*
X429733Y40167D01*
X436407Y40167D02*
X436407Y33493D01*
X429733Y33493D01*
X429733Y40167D01*
X429733Y36082D02*
X436407Y36082D01*
X436407Y38671D02*
X429733Y38671D01*
X571973Y86833D02*
X571973Y93507D01*
X578647Y93507D01*
X578647Y86833D01*
X571973Y86833D01*
X571973Y89422D02*
X578647Y89422D01*
X578647Y92011D02*
X571973Y92011D01*
X571973Y78267D02*
X571973Y71593D01*
X571973Y78267D02*
X578647Y78267D01*
X578647Y71593D01*
X571973Y71593D01*
X571973Y74182D02*
X578647Y74182D01*
X578647Y76771D02*
X571973Y76771D01*
X578647Y99533D02*
X578647Y106207D01*
X578647Y99533D02*
X571973Y99533D01*
X571973Y106207D01*
X578647Y106207D01*
X578647Y102122D02*
X571973Y102122D01*
X571973Y104711D02*
X578647Y104711D01*
X578647Y114773D02*
X578647Y121447D01*
X578647Y114773D02*
X571973Y114773D01*
X571973Y121447D01*
X578647Y121447D01*
X578647Y117362D02*
X571973Y117362D01*
X571973Y119951D02*
X578647Y119951D01*
D23*
X547241Y96649D02*
X541199Y96649D01*
X541199Y103691D01*
X547241Y103691D01*
X547241Y96649D01*
X547241Y98993D02*
X541199Y98993D01*
X541199Y101337D02*
X547241Y101337D01*
X547241Y103681D02*
X541199Y103681D01*
X560199Y96649D02*
X566241Y96649D01*
X560199Y96649D02*
X560199Y103691D01*
X566241Y103691D01*
X566241Y96649D01*
X566241Y98993D02*
X560199Y98993D01*
X560199Y101337D02*
X566241Y101337D01*
X566241Y103681D02*
X560199Y103681D01*
X556741Y75649D02*
X550699Y75649D01*
X550699Y82691D01*
X556741Y82691D01*
X556741Y75649D01*
X556741Y77993D02*
X550699Y77993D01*
X550699Y80337D02*
X556741Y80337D01*
X556741Y82681D02*
X550699Y82681D01*
D18*
X549437Y109693D02*
X542763Y109693D01*
X542763Y116367D01*
X549437Y116367D01*
X549437Y109693D01*
X549437Y112282D02*
X542763Y112282D01*
X542763Y114871D02*
X549437Y114871D01*
X558003Y109693D02*
X564677Y109693D01*
X558003Y109693D02*
X558003Y116367D01*
X564677Y116367D01*
X564677Y109693D01*
X564677Y112282D02*
X558003Y112282D01*
X558003Y114871D02*
X564677Y114871D01*
D26*
X707085Y44145D02*
X712775Y44145D01*
X707085Y44145D02*
X707085Y57455D01*
X712775Y57455D01*
X712775Y44145D01*
X712775Y46461D02*
X707085Y46461D01*
X707085Y48777D02*
X712775Y48777D01*
X712775Y51093D02*
X707085Y51093D01*
X707085Y53409D02*
X712775Y53409D01*
X712775Y55725D02*
X707085Y55725D01*
X707085Y94945D02*
X712775Y94945D01*
X707085Y94945D02*
X707085Y108255D01*
X712775Y108255D01*
X712775Y94945D01*
X712775Y97261D02*
X707085Y97261D01*
X707085Y99577D02*
X712775Y99577D01*
X712775Y101893D02*
X707085Y101893D01*
X707085Y104209D02*
X712775Y104209D01*
X712775Y106525D02*
X707085Y106525D01*
X674675Y44145D02*
X668985Y44145D01*
X668985Y57455D01*
X674675Y57455D01*
X674675Y44145D01*
X674675Y46461D02*
X668985Y46461D01*
X668985Y48777D02*
X674675Y48777D01*
X674675Y51093D02*
X668985Y51093D01*
X668985Y53409D02*
X674675Y53409D01*
X674675Y55725D02*
X668985Y55725D01*
X668985Y94945D02*
X674675Y94945D01*
X668985Y94945D02*
X668985Y108255D01*
X674675Y108255D01*
X674675Y94945D01*
X674675Y97261D02*
X668985Y97261D01*
X668985Y99577D02*
X674675Y99577D01*
X674675Y101893D02*
X668985Y101893D01*
X668985Y104209D02*
X674675Y104209D01*
X674675Y106525D02*
X668985Y106525D01*
D18*
X658657Y73187D02*
X651983Y73187D01*
X658657Y73187D02*
X658657Y66513D01*
X651983Y66513D01*
X651983Y73187D01*
X651983Y69102D02*
X658657Y69102D01*
X658657Y71691D02*
X651983Y71691D01*
X643417Y73187D02*
X636743Y73187D01*
X643417Y73187D02*
X643417Y66513D01*
X636743Y66513D01*
X636743Y73187D01*
X636743Y69102D02*
X643417Y69102D01*
X643417Y71691D02*
X636743Y71691D01*
X651983Y93507D02*
X658657Y93507D01*
X658657Y86833D01*
X651983Y86833D01*
X651983Y93507D01*
X651983Y89422D02*
X658657Y89422D01*
X658657Y92011D02*
X651983Y92011D01*
X643417Y93507D02*
X636743Y93507D01*
X643417Y93507D02*
X643417Y86833D01*
X636743Y86833D01*
X636743Y93507D01*
X636743Y89422D02*
X643417Y89422D01*
X643417Y92011D02*
X636743Y92011D01*
D28*
X872490Y76200D03*
D29*
X490161Y115899D02*
X460459Y115899D01*
X460459Y117101D01*
X490161Y117101D01*
X490161Y115899D01*
X490161Y109699D02*
X460459Y109699D01*
X460459Y110901D01*
X490161Y110901D01*
X490161Y109699D01*
X490161Y103499D02*
X460459Y103499D01*
X460459Y104701D01*
X490161Y104701D01*
X490161Y103499D01*
X490161Y97299D02*
X460459Y97299D01*
X460459Y98501D01*
X490161Y98501D01*
X490161Y97299D01*
X490161Y91099D02*
X460459Y91099D01*
X460459Y92301D01*
X490161Y92301D01*
X490161Y91099D01*
X490161Y84899D02*
X460459Y84899D01*
X460459Y86101D01*
X490161Y86101D01*
X490161Y84899D01*
X490161Y78699D02*
X460459Y78699D01*
X460459Y79901D01*
X490161Y79901D01*
X490161Y78699D01*
X490161Y72499D02*
X460459Y72499D01*
X460459Y73701D01*
X490161Y73701D01*
X490161Y72499D01*
X490161Y66299D02*
X460459Y66299D01*
X460459Y67501D01*
X490161Y67501D01*
X490161Y66299D01*
X490161Y60099D02*
X460459Y60099D01*
X460459Y61301D01*
X490161Y61301D01*
X490161Y60099D01*
X490161Y53899D02*
X460459Y53899D01*
X460459Y55101D01*
X490161Y55101D01*
X490161Y53899D01*
X490161Y47699D02*
X460459Y47699D01*
X460459Y48901D01*
X490161Y48901D01*
X490161Y47699D01*
X490161Y41499D02*
X460459Y41499D01*
X460459Y42701D01*
X490161Y42701D01*
X490161Y41499D01*
X490161Y35299D02*
X460459Y35299D01*
X460459Y36501D01*
X490161Y36501D01*
X490161Y35299D01*
D18*
X809787Y65243D02*
X809787Y71917D01*
X809787Y65243D02*
X803113Y65243D01*
X803113Y71917D01*
X809787Y71917D01*
X809787Y67832D02*
X803113Y67832D01*
X803113Y70421D02*
X809787Y70421D01*
X809787Y80483D02*
X809787Y87157D01*
X809787Y80483D02*
X803113Y80483D01*
X803113Y87157D01*
X809787Y87157D01*
X809787Y83072D02*
X803113Y83072D01*
X803113Y85661D02*
X809787Y85661D01*
X822487Y71917D02*
X822487Y65243D01*
X815813Y65243D01*
X815813Y71917D01*
X822487Y71917D01*
X822487Y67832D02*
X815813Y67832D01*
X815813Y70421D02*
X822487Y70421D01*
X822487Y80483D02*
X822487Y87157D01*
X822487Y80483D02*
X815813Y80483D01*
X815813Y87157D01*
X822487Y87157D01*
X822487Y83072D02*
X815813Y83072D01*
X815813Y85661D02*
X822487Y85661D01*
D30*
X903638Y93312D02*
X903638Y104808D01*
X903638Y93312D02*
X892142Y93312D01*
X892142Y104808D01*
X903638Y104808D01*
X903638Y97351D02*
X892142Y97351D01*
X892142Y101390D02*
X903638Y101390D01*
X852838Y104808D02*
X852838Y93312D01*
X841342Y93312D01*
X841342Y104808D01*
X852838Y104808D01*
X852838Y97351D02*
X841342Y97351D01*
X841342Y101390D02*
X852838Y101390D01*
X903638Y59088D02*
X903638Y47592D01*
X892142Y47592D01*
X892142Y59088D01*
X903638Y59088D01*
X903638Y51631D02*
X892142Y51631D01*
X892142Y55670D02*
X903638Y55670D01*
X852838Y59088D02*
X852838Y47592D01*
X841342Y47592D01*
X841342Y59088D01*
X852838Y59088D01*
X852838Y51631D02*
X841342Y51631D01*
X841342Y55670D02*
X852838Y55670D01*
D31*
X199140Y76200D03*
X249940Y76200D03*
X294140Y76200D03*
X344940Y76200D03*
X847090Y76200D03*
X897890Y76200D03*
D32*
X713080Y114325D02*
X710336Y114325D01*
X710336Y121895D01*
X713080Y121895D01*
X713080Y114325D01*
X713080Y116063D02*
X710336Y116063D01*
X710336Y117801D02*
X713080Y117801D01*
X713080Y119539D02*
X710336Y119539D01*
X710336Y121277D02*
X713080Y121277D01*
X716940Y114325D02*
X719684Y114325D01*
X716940Y114325D02*
X716940Y121895D01*
X719684Y121895D01*
X719684Y114325D01*
X719684Y116063D02*
X716940Y116063D01*
X716940Y117801D02*
X719684Y117801D01*
X719684Y119539D02*
X716940Y119539D01*
X716940Y121277D02*
X719684Y121277D01*
D33*
X844550Y116840D03*
M02*
