G04 EAGLE Gerber RS-274X export*
G75*
%MOMM*%
%FSLAX34Y34*%
%LPD*%
%INSoldermask Bottom*%
%IPPOS*%
%AMOC8*
5,1,8,0,0,1.08239X$1,22.5*%
G01*
%ADD10C,1.524000*%
%ADD11C,0.914400*%
%ADD12C,0.635000*%
%ADD13C,0.660400*%
%ADD14C,0.558800*%
%ADD15C,0.508000*%
%ADD16C,0.711200*%
%ADD17C,0.406400*%
%ADD18C,0.272541*%
%ADD19C,0.700800*%
%ADD20C,0.216575*%
%ADD21C,0.252447*%
%ADD22C,0.307338*%
%ADD23C,0.246731*%
%ADD24C,0.201747*%
%ADD25C,0.369822*%
%ADD26C,0.243838*%
%ADD27C,0.275731*%
%ADD28C,2.050800*%
%ADD29C,0.280559*%
%ADD30C,0.425194*%
%ADD31P,2.246825X8X112.500000*%
%ADD32C,0.182878*%
%ADD33C,1.050800*%
%ADD34C,0.598416*%
%ADD35C,0.277131*%
%ADD36C,0.339047*%
%ADD37C,0.345181*%
%ADD38C,0.234866*%
%ADD39C,0.421450*%
%ADD40C,0.414550*%
%ADD41C,0.309372*%
%ADD42C,0.340272*%
%ADD43C,0.406222*%
%ADD44C,0.445606*%

G36*
X180878Y150319D02*
X180878Y150319D01*
X180880Y150318D01*
X180923Y150338D01*
X180967Y150356D01*
X180967Y150358D01*
X180969Y150359D01*
X181002Y150444D01*
X181002Y155424D01*
X185610Y155424D01*
X185612Y155425D01*
X185614Y155424D01*
X185657Y155444D01*
X185701Y155462D01*
X185701Y155464D01*
X185703Y155465D01*
X185736Y155550D01*
X185736Y179050D01*
X185735Y179052D01*
X185736Y179054D01*
X185716Y179097D01*
X185698Y179141D01*
X185696Y179141D01*
X185695Y179143D01*
X185610Y179176D01*
X181002Y179176D01*
X181002Y184318D01*
X181001Y184320D01*
X181002Y184322D01*
X180982Y184365D01*
X180964Y184409D01*
X180962Y184409D01*
X180961Y184411D01*
X180876Y184444D01*
X178844Y184444D01*
X178842Y184443D01*
X178840Y184444D01*
X178797Y184424D01*
X178753Y184406D01*
X178753Y184404D01*
X178751Y184403D01*
X178718Y184318D01*
X178718Y179176D01*
X168110Y179176D01*
X168108Y179175D01*
X168106Y179176D01*
X168063Y179156D01*
X168019Y179138D01*
X168019Y179136D01*
X168017Y179135D01*
X167984Y179050D01*
X167984Y155550D01*
X167985Y155548D01*
X167984Y155546D01*
X168004Y155503D01*
X168022Y155459D01*
X168024Y155459D01*
X168025Y155457D01*
X168110Y155424D01*
X178718Y155424D01*
X178718Y150444D01*
X178719Y150442D01*
X178718Y150440D01*
X178738Y150397D01*
X178756Y150353D01*
X178758Y150353D01*
X178759Y150351D01*
X178844Y150318D01*
X180876Y150318D01*
X180878Y150319D01*
G37*
G36*
X266288Y174125D02*
X266288Y174125D01*
X266290Y174124D01*
X266333Y174144D01*
X266377Y174162D01*
X266377Y174164D01*
X266379Y174165D01*
X266412Y174250D01*
X266412Y178858D01*
X271554Y178858D01*
X271556Y178859D01*
X271558Y178858D01*
X271601Y178878D01*
X271645Y178896D01*
X271645Y178898D01*
X271647Y178899D01*
X271680Y178984D01*
X271680Y181016D01*
X271679Y181018D01*
X271680Y181020D01*
X271660Y181063D01*
X271642Y181107D01*
X271640Y181107D01*
X271639Y181109D01*
X271554Y181142D01*
X266412Y181142D01*
X266412Y191750D01*
X266411Y191752D01*
X266412Y191754D01*
X266392Y191797D01*
X266374Y191841D01*
X266372Y191841D01*
X266371Y191843D01*
X266286Y191876D01*
X242786Y191876D01*
X242784Y191875D01*
X242782Y191876D01*
X242739Y191856D01*
X242695Y191838D01*
X242695Y191836D01*
X242693Y191835D01*
X242660Y191750D01*
X242660Y181142D01*
X237680Y181142D01*
X237678Y181141D01*
X237676Y181142D01*
X237633Y181122D01*
X237589Y181104D01*
X237589Y181102D01*
X237587Y181101D01*
X237554Y181016D01*
X237554Y178984D01*
X237555Y178982D01*
X237554Y178980D01*
X237574Y178937D01*
X237592Y178893D01*
X237594Y178893D01*
X237595Y178891D01*
X237680Y178858D01*
X242660Y178858D01*
X242660Y174250D01*
X242661Y174248D01*
X242660Y174246D01*
X242680Y174203D01*
X242698Y174159D01*
X242700Y174159D01*
X242701Y174157D01*
X242786Y174124D01*
X266286Y174124D01*
X266288Y174125D01*
G37*
G36*
X108084Y217154D02*
X108084Y217154D01*
X108087Y217151D01*
X109209Y217306D01*
X109214Y217311D01*
X109218Y217308D01*
X110289Y217679D01*
X110293Y217685D01*
X110298Y217683D01*
X111275Y218256D01*
X111278Y218262D01*
X111283Y218261D01*
X112130Y219014D01*
X112132Y219021D01*
X112137Y219021D01*
X112821Y219924D01*
X112821Y219931D01*
X112826Y219932D01*
X113321Y220951D01*
X113319Y220958D01*
X113324Y220960D01*
X113611Y222057D01*
X113609Y222061D01*
X113611Y222062D01*
X113609Y222064D01*
X113612Y222066D01*
X113679Y223197D01*
X113677Y223201D01*
X113679Y223203D01*
X113612Y224334D01*
X113607Y224339D01*
X113611Y224343D01*
X113324Y225440D01*
X113318Y225444D01*
X113321Y225449D01*
X112826Y226468D01*
X112820Y226471D01*
X112821Y226476D01*
X112137Y227379D01*
X112130Y227381D01*
X112130Y227386D01*
X111283Y228139D01*
X111276Y228139D01*
X111275Y228144D01*
X110298Y228717D01*
X110291Y228716D01*
X110289Y228721D01*
X109218Y229092D01*
X109212Y229089D01*
X109209Y229094D01*
X108087Y229249D01*
X108082Y229246D01*
X108080Y229249D01*
X96080Y229249D01*
X96075Y229246D01*
X96072Y229249D01*
X94805Y229044D01*
X94799Y229038D01*
X94795Y229041D01*
X93605Y228559D01*
X93601Y228552D01*
X93595Y228554D01*
X92542Y227820D01*
X92540Y227812D01*
X92534Y227813D01*
X91671Y226863D01*
X91670Y226854D01*
X91665Y226854D01*
X91035Y225735D01*
X91036Y225727D01*
X91030Y225725D01*
X90665Y224495D01*
X90668Y224487D01*
X90663Y224484D01*
X90581Y223203D01*
X90584Y223199D01*
X90581Y223197D01*
X90663Y221916D01*
X90669Y221910D01*
X90665Y221905D01*
X91030Y220675D01*
X91037Y220670D01*
X91035Y220665D01*
X91665Y219546D01*
X91672Y219543D01*
X91671Y219537D01*
X92534Y218587D01*
X92542Y218586D01*
X92542Y218580D01*
X93595Y217846D01*
X93603Y217846D01*
X93605Y217841D01*
X94795Y217359D01*
X94802Y217361D01*
X94805Y217356D01*
X96072Y217151D01*
X96077Y217154D01*
X96080Y217151D01*
X108080Y217151D01*
X108084Y217154D01*
G37*
G36*
X108084Y130754D02*
X108084Y130754D01*
X108087Y130751D01*
X109209Y130906D01*
X109214Y130911D01*
X109218Y130908D01*
X110289Y131279D01*
X110293Y131285D01*
X110298Y131283D01*
X111275Y131856D01*
X111278Y131862D01*
X111283Y131861D01*
X112130Y132614D01*
X112132Y132621D01*
X112137Y132621D01*
X112821Y133524D01*
X112821Y133531D01*
X112826Y133532D01*
X113321Y134551D01*
X113319Y134558D01*
X113324Y134560D01*
X113611Y135657D01*
X113609Y135661D01*
X113611Y135662D01*
X113609Y135664D01*
X113612Y135666D01*
X113679Y136797D01*
X113677Y136801D01*
X113679Y136803D01*
X113612Y137934D01*
X113607Y137939D01*
X113611Y137943D01*
X113324Y139040D01*
X113318Y139044D01*
X113321Y139049D01*
X112826Y140068D01*
X112820Y140071D01*
X112821Y140076D01*
X112137Y140979D01*
X112130Y140981D01*
X112130Y140986D01*
X111283Y141739D01*
X111276Y141739D01*
X111275Y141744D01*
X110298Y142317D01*
X110291Y142316D01*
X110289Y142321D01*
X109218Y142692D01*
X109212Y142689D01*
X109209Y142694D01*
X108087Y142849D01*
X108082Y142846D01*
X108080Y142849D01*
X96080Y142849D01*
X96075Y142846D01*
X96072Y142849D01*
X94805Y142644D01*
X94799Y142638D01*
X94795Y142641D01*
X93605Y142159D01*
X93601Y142152D01*
X93595Y142154D01*
X92542Y141420D01*
X92540Y141412D01*
X92534Y141413D01*
X91671Y140463D01*
X91670Y140454D01*
X91665Y140454D01*
X91035Y139335D01*
X91036Y139327D01*
X91030Y139325D01*
X90665Y138095D01*
X90668Y138087D01*
X90663Y138084D01*
X90581Y136803D01*
X90584Y136799D01*
X90581Y136797D01*
X90663Y135516D01*
X90669Y135510D01*
X90665Y135505D01*
X91030Y134275D01*
X91037Y134270D01*
X91035Y134265D01*
X91665Y133146D01*
X91672Y133143D01*
X91671Y133137D01*
X92534Y132187D01*
X92542Y132186D01*
X92542Y132180D01*
X93595Y131446D01*
X93603Y131446D01*
X93605Y131441D01*
X94795Y130959D01*
X94802Y130961D01*
X94805Y130956D01*
X96072Y130751D01*
X96077Y130754D01*
X96080Y130751D01*
X108080Y130751D01*
X108084Y130754D01*
G37*
G36*
X887215Y717154D02*
X887215Y717154D01*
X887218Y717151D01*
X888485Y717356D01*
X888491Y717362D01*
X888496Y717359D01*
X889685Y717841D01*
X889689Y717848D01*
X889695Y717846D01*
X890748Y718580D01*
X890750Y718588D01*
X890756Y718587D01*
X891619Y719537D01*
X891620Y719546D01*
X891625Y719546D01*
X892255Y720665D01*
X892254Y720673D01*
X892260Y720675D01*
X892625Y721905D01*
X892622Y721912D01*
X892626Y721915D01*
X892625Y721915D01*
X892627Y721916D01*
X892709Y723197D01*
X892707Y723201D01*
X892709Y723203D01*
X892627Y724484D01*
X892621Y724490D01*
X892625Y724495D01*
X892260Y725725D01*
X892253Y725730D01*
X892255Y725735D01*
X891625Y726854D01*
X891618Y726857D01*
X891619Y726863D01*
X890756Y727813D01*
X890748Y727814D01*
X890748Y727820D01*
X889695Y728554D01*
X889687Y728554D01*
X889685Y728559D01*
X888496Y729041D01*
X888488Y729039D01*
X888485Y729044D01*
X887218Y729249D01*
X887213Y729246D01*
X887210Y729249D01*
X875210Y729249D01*
X875206Y729246D01*
X875203Y729249D01*
X874081Y729094D01*
X874076Y729089D01*
X874072Y729092D01*
X873001Y728721D01*
X872997Y728715D01*
X872992Y728717D01*
X872015Y728144D01*
X872012Y728138D01*
X872007Y728139D01*
X871160Y727386D01*
X871158Y727379D01*
X871153Y727379D01*
X870469Y726476D01*
X870469Y726469D01*
X870464Y726468D01*
X869969Y725449D01*
X869971Y725442D01*
X869969Y725441D01*
X869966Y725440D01*
X869679Y724343D01*
X869682Y724337D01*
X869678Y724334D01*
X869611Y723203D01*
X869613Y723199D01*
X869611Y723197D01*
X869678Y722066D01*
X869683Y722061D01*
X869679Y722057D01*
X869966Y720960D01*
X869972Y720956D01*
X869969Y720951D01*
X870464Y719932D01*
X870470Y719929D01*
X870469Y719924D01*
X871153Y719021D01*
X871160Y719019D01*
X871160Y719014D01*
X872007Y718261D01*
X872014Y718261D01*
X872015Y718256D01*
X872992Y717683D01*
X872999Y717684D01*
X873001Y717679D01*
X874072Y717308D01*
X874078Y717311D01*
X874081Y717306D01*
X875203Y717151D01*
X875208Y717154D01*
X875210Y717151D01*
X887210Y717151D01*
X887215Y717154D01*
G37*
G36*
X887215Y630754D02*
X887215Y630754D01*
X887218Y630751D01*
X888485Y630956D01*
X888491Y630962D01*
X888496Y630959D01*
X889685Y631441D01*
X889689Y631448D01*
X889695Y631446D01*
X890748Y632180D01*
X890750Y632188D01*
X890756Y632187D01*
X891619Y633137D01*
X891620Y633146D01*
X891625Y633146D01*
X892255Y634265D01*
X892254Y634273D01*
X892260Y634275D01*
X892625Y635505D01*
X892622Y635512D01*
X892626Y635515D01*
X892625Y635515D01*
X892627Y635516D01*
X892709Y636797D01*
X892707Y636801D01*
X892709Y636803D01*
X892627Y638084D01*
X892621Y638090D01*
X892625Y638095D01*
X892260Y639325D01*
X892253Y639330D01*
X892255Y639335D01*
X891625Y640454D01*
X891618Y640457D01*
X891619Y640463D01*
X890756Y641413D01*
X890748Y641414D01*
X890748Y641420D01*
X889695Y642154D01*
X889687Y642154D01*
X889685Y642159D01*
X888496Y642641D01*
X888488Y642639D01*
X888485Y642644D01*
X887218Y642849D01*
X887213Y642846D01*
X887210Y642849D01*
X875210Y642849D01*
X875206Y642846D01*
X875203Y642849D01*
X874081Y642694D01*
X874076Y642689D01*
X874072Y642692D01*
X873001Y642321D01*
X872997Y642315D01*
X872992Y642317D01*
X872015Y641744D01*
X872012Y641738D01*
X872007Y641739D01*
X871160Y640986D01*
X871158Y640979D01*
X871153Y640979D01*
X870469Y640076D01*
X870469Y640069D01*
X870464Y640068D01*
X869969Y639049D01*
X869971Y639042D01*
X869969Y639041D01*
X869966Y639040D01*
X869679Y637943D01*
X869682Y637937D01*
X869678Y637934D01*
X869611Y636803D01*
X869613Y636799D01*
X869611Y636797D01*
X869678Y635666D01*
X869683Y635661D01*
X869679Y635657D01*
X869966Y634560D01*
X869972Y634556D01*
X869969Y634551D01*
X870464Y633532D01*
X870470Y633529D01*
X870469Y633524D01*
X871153Y632621D01*
X871160Y632619D01*
X871160Y632614D01*
X872007Y631861D01*
X872014Y631861D01*
X872015Y631856D01*
X872992Y631283D01*
X872999Y631284D01*
X873001Y631279D01*
X874072Y630908D01*
X874078Y630911D01*
X874081Y630906D01*
X875203Y630751D01*
X875208Y630754D01*
X875210Y630751D01*
X887210Y630751D01*
X887215Y630754D01*
G37*
G36*
X926013Y717153D02*
X926013Y717153D01*
X926015Y717151D01*
X927180Y717271D01*
X927186Y717276D01*
X927190Y717273D01*
X928309Y717617D01*
X928313Y717623D01*
X928318Y717621D01*
X929349Y718178D01*
X929352Y718184D01*
X929357Y718183D01*
X930259Y718930D01*
X930261Y718937D01*
X930266Y718937D01*
X931005Y719845D01*
X931005Y719852D01*
X931010Y719853D01*
X931558Y720889D01*
X931557Y720896D01*
X931562Y720897D01*
X931897Y722020D01*
X931895Y722027D01*
X931899Y722029D01*
X932009Y723195D01*
X932005Y723202D01*
X932009Y723205D01*
X931865Y724536D01*
X931859Y724541D01*
X931862Y724546D01*
X931426Y725811D01*
X931419Y725816D01*
X931421Y725821D01*
X930714Y726957D01*
X930706Y726960D01*
X930707Y726966D01*
X929765Y727916D01*
X929757Y727917D01*
X929756Y727922D01*
X928626Y728639D01*
X928618Y728638D01*
X928616Y728644D01*
X927355Y729091D01*
X927348Y729089D01*
X927345Y729094D01*
X926016Y729249D01*
X926012Y729247D01*
X926010Y729249D01*
X920010Y729249D01*
X920007Y729247D01*
X920005Y729249D01*
X918663Y729103D01*
X918657Y729098D01*
X918653Y729101D01*
X917377Y728661D01*
X917373Y728654D01*
X917367Y728656D01*
X916222Y727943D01*
X916219Y727935D01*
X916213Y727936D01*
X915255Y726986D01*
X915254Y726978D01*
X915248Y726977D01*
X914526Y725838D01*
X914526Y725833D01*
X914525Y725832D01*
X914526Y725830D01*
X914521Y725828D01*
X914070Y724557D01*
X914071Y724553D01*
X914069Y724552D01*
X914072Y724548D01*
X914068Y724546D01*
X913911Y723206D01*
X913915Y723199D01*
X913911Y723195D01*
X914032Y722020D01*
X914037Y722015D01*
X914034Y722011D01*
X914381Y720882D01*
X914387Y720878D01*
X914385Y720873D01*
X914946Y719834D01*
X914953Y719831D01*
X914951Y719826D01*
X915704Y718916D01*
X915711Y718914D01*
X915711Y718909D01*
X916627Y718163D01*
X916635Y718163D01*
X916635Y718158D01*
X917679Y717606D01*
X917687Y717607D01*
X917688Y717602D01*
X918820Y717264D01*
X918827Y717266D01*
X918829Y717262D01*
X920005Y717151D01*
X920008Y717153D01*
X920010Y717151D01*
X926010Y717151D01*
X926013Y717153D01*
G37*
G36*
X926013Y630753D02*
X926013Y630753D01*
X926015Y630751D01*
X927180Y630871D01*
X927186Y630876D01*
X927190Y630873D01*
X928309Y631217D01*
X928313Y631223D01*
X928318Y631221D01*
X929349Y631778D01*
X929352Y631784D01*
X929357Y631783D01*
X930259Y632530D01*
X930261Y632537D01*
X930266Y632537D01*
X931005Y633445D01*
X931005Y633452D01*
X931010Y633453D01*
X931558Y634489D01*
X931557Y634496D01*
X931562Y634497D01*
X931897Y635620D01*
X931895Y635627D01*
X931899Y635629D01*
X932009Y636795D01*
X932005Y636802D01*
X932009Y636805D01*
X931865Y638136D01*
X931859Y638141D01*
X931862Y638146D01*
X931426Y639411D01*
X931419Y639416D01*
X931421Y639421D01*
X930714Y640557D01*
X930706Y640560D01*
X930707Y640566D01*
X929765Y641516D01*
X929757Y641517D01*
X929756Y641522D01*
X928626Y642239D01*
X928618Y642238D01*
X928616Y642244D01*
X927355Y642691D01*
X927348Y642689D01*
X927345Y642694D01*
X926016Y642849D01*
X926012Y642847D01*
X926010Y642849D01*
X920010Y642849D01*
X920007Y642847D01*
X920005Y642849D01*
X918663Y642703D01*
X918657Y642698D01*
X918653Y642701D01*
X917377Y642261D01*
X917373Y642254D01*
X917367Y642256D01*
X916222Y641543D01*
X916219Y641535D01*
X916213Y641536D01*
X915255Y640586D01*
X915254Y640578D01*
X915248Y640577D01*
X914526Y639438D01*
X914526Y639433D01*
X914525Y639432D01*
X914526Y639430D01*
X914521Y639428D01*
X914070Y638157D01*
X914071Y638153D01*
X914069Y638152D01*
X914072Y638148D01*
X914068Y638146D01*
X913911Y636806D01*
X913915Y636799D01*
X913911Y636795D01*
X914032Y635620D01*
X914037Y635615D01*
X914034Y635611D01*
X914381Y634482D01*
X914387Y634478D01*
X914385Y634473D01*
X914946Y633434D01*
X914953Y633431D01*
X914951Y633426D01*
X915704Y632516D01*
X915711Y632514D01*
X915711Y632509D01*
X916627Y631763D01*
X916635Y631763D01*
X916635Y631758D01*
X917679Y631206D01*
X917687Y631207D01*
X917688Y631202D01*
X918820Y630864D01*
X918827Y630866D01*
X918829Y630862D01*
X920005Y630751D01*
X920008Y630753D01*
X920010Y630751D01*
X926010Y630751D01*
X926013Y630753D01*
G37*
G36*
X63283Y217153D02*
X63283Y217153D01*
X63285Y217151D01*
X64461Y217262D01*
X64466Y217267D01*
X64470Y217264D01*
X65602Y217602D01*
X65606Y217608D01*
X65611Y217606D01*
X66655Y218158D01*
X66658Y218165D01*
X66663Y218163D01*
X67579Y218909D01*
X67580Y218916D01*
X67586Y218916D01*
X68339Y219826D01*
X68339Y219833D01*
X68344Y219834D01*
X68905Y220873D01*
X68904Y220878D01*
X68908Y220880D01*
X68907Y220881D01*
X68909Y220882D01*
X69256Y222011D01*
X69256Y222012D01*
X69257Y222013D01*
X69254Y222017D01*
X69258Y222020D01*
X69379Y223195D01*
X69375Y223202D01*
X69379Y223206D01*
X69222Y224546D01*
X69217Y224552D01*
X69220Y224557D01*
X68769Y225828D01*
X68762Y225833D01*
X68764Y225838D01*
X68042Y226977D01*
X68034Y226980D01*
X68035Y226986D01*
X67077Y227936D01*
X67069Y227937D01*
X67068Y227943D01*
X65923Y228656D01*
X65915Y228655D01*
X65913Y228661D01*
X64637Y229101D01*
X64630Y229099D01*
X64627Y229103D01*
X63285Y229249D01*
X63282Y229247D01*
X63280Y229249D01*
X57280Y229249D01*
X57277Y229247D01*
X57274Y229249D01*
X55945Y229094D01*
X55939Y229088D01*
X55935Y229091D01*
X54674Y228644D01*
X54669Y228637D01*
X54664Y228639D01*
X53534Y227922D01*
X53531Y227915D01*
X53525Y227916D01*
X52583Y226966D01*
X52582Y226957D01*
X52576Y226957D01*
X51869Y225821D01*
X51870Y225813D01*
X51864Y225811D01*
X51428Y224546D01*
X51430Y224538D01*
X51425Y224536D01*
X51281Y223205D01*
X51285Y223199D01*
X51281Y223195D01*
X51391Y222029D01*
X51396Y222024D01*
X51393Y222020D01*
X51728Y220897D01*
X51734Y220893D01*
X51732Y220889D01*
X52280Y219853D01*
X52286Y219850D01*
X52285Y219845D01*
X53024Y218937D01*
X53031Y218935D01*
X53031Y218930D01*
X53933Y218183D01*
X53941Y218183D01*
X53941Y218178D01*
X54972Y217621D01*
X54979Y217622D01*
X54981Y217617D01*
X56100Y217273D01*
X56107Y217275D01*
X56110Y217271D01*
X57275Y217151D01*
X57278Y217153D01*
X57280Y217151D01*
X63280Y217151D01*
X63283Y217153D01*
G37*
G36*
X63283Y130753D02*
X63283Y130753D01*
X63285Y130751D01*
X64461Y130862D01*
X64466Y130867D01*
X64470Y130864D01*
X65602Y131202D01*
X65606Y131208D01*
X65611Y131206D01*
X66655Y131758D01*
X66658Y131765D01*
X66663Y131763D01*
X67579Y132509D01*
X67580Y132516D01*
X67586Y132516D01*
X68339Y133426D01*
X68339Y133433D01*
X68344Y133434D01*
X68905Y134473D01*
X68904Y134478D01*
X68908Y134480D01*
X68907Y134481D01*
X68909Y134482D01*
X69256Y135611D01*
X69256Y135612D01*
X69257Y135613D01*
X69254Y135617D01*
X69258Y135620D01*
X69379Y136795D01*
X69375Y136802D01*
X69379Y136806D01*
X69222Y138146D01*
X69217Y138152D01*
X69220Y138157D01*
X68769Y139428D01*
X68762Y139433D01*
X68764Y139438D01*
X68042Y140577D01*
X68034Y140580D01*
X68035Y140586D01*
X67077Y141536D01*
X67069Y141537D01*
X67068Y141543D01*
X65923Y142256D01*
X65915Y142255D01*
X65913Y142261D01*
X64637Y142701D01*
X64630Y142699D01*
X64627Y142703D01*
X63285Y142849D01*
X63282Y142847D01*
X63280Y142849D01*
X57280Y142849D01*
X57277Y142847D01*
X57274Y142849D01*
X55945Y142694D01*
X55939Y142688D01*
X55935Y142691D01*
X54674Y142244D01*
X54669Y142237D01*
X54664Y142239D01*
X53534Y141522D01*
X53531Y141515D01*
X53525Y141516D01*
X52583Y140566D01*
X52582Y140557D01*
X52576Y140557D01*
X51869Y139421D01*
X51870Y139413D01*
X51864Y139411D01*
X51428Y138146D01*
X51430Y138138D01*
X51425Y138136D01*
X51281Y136805D01*
X51285Y136799D01*
X51281Y136795D01*
X51391Y135629D01*
X51396Y135624D01*
X51393Y135620D01*
X51728Y134497D01*
X51734Y134493D01*
X51732Y134489D01*
X52280Y133453D01*
X52286Y133450D01*
X52285Y133445D01*
X53024Y132537D01*
X53031Y132535D01*
X53031Y132530D01*
X53933Y131783D01*
X53941Y131783D01*
X53941Y131778D01*
X54972Y131221D01*
X54979Y131222D01*
X54981Y131217D01*
X56100Y130873D01*
X56107Y130875D01*
X56110Y130871D01*
X57275Y130751D01*
X57278Y130753D01*
X57280Y130751D01*
X63280Y130751D01*
X63283Y130753D01*
G37*
D10*
X370360Y159680D02*
X370360Y141900D01*
D11*
X289080Y138090D02*
X158270Y138090D01*
X139220Y157140D01*
D12*
X116360Y162220D02*
X102390Y162220D01*
X108740Y148250D02*
X118900Y159680D01*
X108740Y157140D02*
X108740Y148250D01*
X108740Y157140D02*
X107470Y157140D01*
X102390Y162220D01*
X116360Y162220D02*
X118900Y159680D01*
D13*
X108740Y158410D02*
X135410Y158410D01*
X139220Y158410D01*
D14*
X139220Y154600D02*
X135410Y158410D01*
X360200Y136820D02*
X370360Y136820D01*
X366550Y143170D02*
X360200Y136820D01*
D15*
X144554Y213020D02*
X144554Y224196D01*
X144554Y213020D02*
X144554Y205400D01*
X136934Y205400D01*
X144554Y213020D01*
D16*
X240312Y153584D02*
X257076Y153584D01*
X240312Y153584D02*
X235232Y158664D01*
X222024Y158664D01*
X222024Y153584D01*
X240312Y153584D01*
D17*
X254536Y155108D02*
X261140Y155108D01*
X258092Y152060D01*
X257076Y152060D01*
D18*
X839787Y142697D02*
X839787Y136023D01*
X833113Y136023D01*
X833113Y142697D01*
X839787Y142697D01*
X839787Y138612D02*
X833113Y138612D01*
X833113Y141201D02*
X839787Y141201D01*
X839787Y151263D02*
X839787Y157937D01*
X839787Y151263D02*
X833113Y151263D01*
X833113Y157937D01*
X839787Y157937D01*
X839787Y153852D02*
X833113Y153852D01*
X833113Y156441D02*
X839787Y156441D01*
X678497Y141427D02*
X671823Y141427D01*
X678497Y141427D02*
X678497Y134753D01*
X671823Y134753D01*
X671823Y141427D01*
X671823Y137342D02*
X678497Y137342D01*
X678497Y139931D02*
X671823Y139931D01*
X663257Y141427D02*
X656583Y141427D01*
X663257Y141427D02*
X663257Y134753D01*
X656583Y134753D01*
X656583Y141427D01*
X656583Y137342D02*
X663257Y137342D01*
X663257Y139931D02*
X656583Y139931D01*
X684523Y134753D02*
X691197Y134753D01*
X684523Y134753D02*
X684523Y141427D01*
X691197Y141427D01*
X691197Y134753D01*
X691197Y137342D02*
X684523Y137342D01*
X684523Y139931D02*
X691197Y139931D01*
X699763Y134753D02*
X706437Y134753D01*
X699763Y134753D02*
X699763Y141427D01*
X706437Y141427D01*
X706437Y134753D01*
X706437Y137342D02*
X699763Y137342D01*
X699763Y139931D02*
X706437Y139931D01*
X725163Y221183D02*
X731837Y221183D01*
X731837Y214509D01*
X725163Y214509D01*
X725163Y221183D01*
X725163Y217098D02*
X731837Y217098D01*
X731837Y219687D02*
X725163Y219687D01*
X716597Y221183D02*
X709923Y221183D01*
X716597Y221183D02*
X716597Y214509D01*
X709923Y214509D01*
X709923Y221183D01*
X709923Y217098D02*
X716597Y217098D01*
X716597Y219687D02*
X709923Y219687D01*
X833113Y224357D02*
X839787Y224357D01*
X839787Y217683D01*
X833113Y217683D01*
X833113Y224357D01*
X833113Y220272D02*
X839787Y220272D01*
X839787Y222861D02*
X833113Y222861D01*
X833113Y208357D02*
X839787Y208357D01*
X839787Y201683D01*
X833113Y201683D01*
X833113Y208357D01*
X833113Y204272D02*
X839787Y204272D01*
X839787Y206861D02*
X833113Y206861D01*
D19*
X96830Y208900D03*
X96830Y151100D03*
D18*
X474973Y226263D02*
X481647Y226263D01*
X481647Y219589D01*
X474973Y219589D01*
X474973Y226263D01*
X474973Y222178D02*
X481647Y222178D01*
X481647Y224767D02*
X474973Y224767D01*
X466407Y226263D02*
X459733Y226263D01*
X466407Y226263D02*
X466407Y219589D01*
X459733Y219589D01*
X459733Y226263D01*
X459733Y222178D02*
X466407Y222178D01*
X466407Y224767D02*
X459733Y224767D01*
X453707Y226263D02*
X447033Y226263D01*
X453707Y226263D02*
X453707Y219589D01*
X447033Y219589D01*
X447033Y226263D01*
X447033Y222178D02*
X453707Y222178D01*
X453707Y224767D02*
X447033Y224767D01*
X438467Y226263D02*
X431793Y226263D01*
X438467Y226263D02*
X438467Y219589D01*
X431793Y219589D01*
X431793Y226263D01*
X431793Y222178D02*
X438467Y222178D01*
X438467Y224767D02*
X431793Y224767D01*
X459733Y198253D02*
X466407Y198253D01*
X459733Y198253D02*
X459733Y204927D01*
X466407Y204927D01*
X466407Y198253D01*
X466407Y200842D02*
X459733Y200842D01*
X459733Y203431D02*
X466407Y203431D01*
X474973Y198253D02*
X481647Y198253D01*
X474973Y198253D02*
X474973Y204927D01*
X481647Y204927D01*
X481647Y198253D01*
X481647Y200842D02*
X474973Y200842D01*
X474973Y203431D02*
X481647Y203431D01*
X466407Y185553D02*
X459733Y185553D01*
X459733Y192227D01*
X466407Y192227D01*
X466407Y185553D01*
X466407Y188142D02*
X459733Y188142D01*
X459733Y190731D02*
X466407Y190731D01*
X474973Y185553D02*
X481647Y185553D01*
X474973Y185553D02*
X474973Y192227D01*
X481647Y192227D01*
X481647Y185553D01*
X481647Y188142D02*
X474973Y188142D01*
X474973Y190731D02*
X481647Y190731D01*
X466407Y167773D02*
X459733Y167773D01*
X459733Y174447D01*
X466407Y174447D01*
X466407Y167773D01*
X466407Y170362D02*
X459733Y170362D01*
X459733Y172951D02*
X466407Y172951D01*
X474973Y167773D02*
X481647Y167773D01*
X474973Y167773D02*
X474973Y174447D01*
X481647Y174447D01*
X481647Y167773D01*
X481647Y170362D02*
X474973Y170362D01*
X474973Y172951D02*
X481647Y172951D01*
X589273Y166827D02*
X589273Y160153D01*
X589273Y166827D02*
X595947Y166827D01*
X595947Y160153D01*
X589273Y160153D01*
X589273Y162742D02*
X595947Y162742D01*
X595947Y165331D02*
X589273Y165331D01*
X589273Y151587D02*
X589273Y144913D01*
X589273Y151587D02*
X595947Y151587D01*
X595947Y144913D01*
X589273Y144913D01*
X589273Y147502D02*
X595947Y147502D01*
X595947Y150091D02*
X589273Y150091D01*
X601973Y160153D02*
X601973Y166827D01*
X608647Y166827D01*
X608647Y160153D01*
X601973Y160153D01*
X601973Y162742D02*
X608647Y162742D01*
X608647Y165331D02*
X601973Y165331D01*
X601973Y151587D02*
X601973Y144913D01*
X601973Y151587D02*
X608647Y151587D01*
X608647Y144913D01*
X601973Y144913D01*
X601973Y147502D02*
X608647Y147502D01*
X608647Y150091D02*
X601973Y150091D01*
D20*
X286990Y225139D02*
X286990Y225981D01*
X295332Y225981D01*
X295332Y225139D01*
X286990Y225139D01*
X286990Y220981D02*
X286990Y220139D01*
X286990Y220981D02*
X295332Y220981D01*
X295332Y220139D01*
X286990Y220139D01*
X286990Y215981D02*
X286990Y215139D01*
X286990Y215981D02*
X295332Y215981D01*
X295332Y215139D01*
X286990Y215139D01*
X286990Y210981D02*
X286990Y210139D01*
X286990Y210981D02*
X295332Y210981D01*
X295332Y210139D01*
X286990Y210139D01*
X286990Y205981D02*
X286990Y205139D01*
X286990Y205981D02*
X295332Y205981D01*
X295332Y205139D01*
X286990Y205139D01*
X253070Y205139D02*
X253070Y205981D01*
X253070Y205139D02*
X244728Y205139D01*
X244728Y205981D01*
X253070Y205981D01*
X253070Y210139D02*
X253070Y210981D01*
X253070Y210139D02*
X244728Y210139D01*
X244728Y210981D01*
X253070Y210981D01*
X253070Y215139D02*
X253070Y215981D01*
X253070Y215139D02*
X244728Y215139D01*
X244728Y215981D01*
X253070Y215981D01*
X253070Y220139D02*
X253070Y220981D01*
X253070Y220139D02*
X244728Y220139D01*
X244728Y220981D01*
X253070Y220981D01*
X253070Y225139D02*
X253070Y225981D01*
X253070Y225139D02*
X244728Y225139D01*
X244728Y225981D01*
X253070Y225981D01*
D18*
X271011Y151263D02*
X277685Y151263D01*
X271011Y151263D02*
X271011Y157937D01*
X277685Y157937D01*
X277685Y151263D01*
X277685Y153852D02*
X271011Y153852D01*
X271011Y156441D02*
X277685Y156441D01*
X286251Y151263D02*
X292925Y151263D01*
X286251Y151263D02*
X286251Y157937D01*
X292925Y157937D01*
X292925Y151263D01*
X292925Y153852D02*
X286251Y153852D01*
X286251Y156441D02*
X292925Y156441D01*
X195897Y221437D02*
X189223Y221437D01*
X195897Y221437D02*
X195897Y214763D01*
X189223Y214763D01*
X189223Y221437D01*
X189223Y217352D02*
X195897Y217352D01*
X195897Y219941D02*
X189223Y219941D01*
X180657Y221437D02*
X173983Y221437D01*
X180657Y221437D02*
X180657Y214763D01*
X173983Y214763D01*
X173983Y221437D01*
X173983Y217352D02*
X180657Y217352D01*
X180657Y219941D02*
X173983Y219941D01*
X201923Y217303D02*
X201923Y223977D01*
X208597Y223977D01*
X208597Y217303D01*
X201923Y217303D01*
X201923Y219892D02*
X208597Y219892D01*
X208597Y222481D02*
X201923Y222481D01*
X201923Y208737D02*
X201923Y202063D01*
X201923Y208737D02*
X208597Y208737D01*
X208597Y202063D01*
X201923Y202063D01*
X201923Y204652D02*
X208597Y204652D01*
X208597Y207241D02*
X201923Y207241D01*
X195897Y208737D02*
X189223Y208737D01*
X195897Y208737D02*
X195897Y202063D01*
X189223Y202063D01*
X189223Y208737D01*
X189223Y204652D02*
X195897Y204652D01*
X195897Y207241D02*
X189223Y207241D01*
X180657Y208737D02*
X173983Y208737D01*
X180657Y208737D02*
X180657Y202063D01*
X173983Y202063D01*
X173983Y208737D01*
X173983Y204652D02*
X180657Y204652D01*
X180657Y207241D02*
X173983Y207241D01*
X232403Y206197D02*
X239077Y206197D01*
X239077Y199523D01*
X232403Y199523D01*
X232403Y206197D01*
X232403Y202112D02*
X239077Y202112D01*
X239077Y204701D02*
X232403Y204701D01*
X223837Y206197D02*
X217163Y206197D01*
X223837Y206197D02*
X223837Y199523D01*
X217163Y199523D01*
X217163Y206197D01*
X217163Y202112D02*
X223837Y202112D01*
X223837Y204701D02*
X217163Y204701D01*
D21*
X265278Y167992D02*
X265278Y162008D01*
X263294Y162008D01*
X263294Y167992D01*
X265278Y167992D01*
X265278Y164406D02*
X263294Y164406D01*
X263294Y166804D02*
X265278Y166804D01*
X258778Y167992D02*
X258778Y162008D01*
X256794Y162008D01*
X256794Y167992D01*
X258778Y167992D01*
X258778Y164406D02*
X256794Y164406D01*
X256794Y166804D02*
X258778Y166804D01*
X252278Y167992D02*
X252278Y162008D01*
X250294Y162008D01*
X250294Y167992D01*
X252278Y167992D01*
X252278Y164406D02*
X250294Y164406D01*
X250294Y166804D02*
X252278Y166804D01*
X245778Y167992D02*
X245778Y162008D01*
X243794Y162008D01*
X243794Y167992D01*
X245778Y167992D01*
X245778Y164406D02*
X243794Y164406D01*
X243794Y166804D02*
X245778Y166804D01*
X245778Y192008D02*
X245778Y197992D01*
X245778Y192008D02*
X243794Y192008D01*
X243794Y197992D01*
X245778Y197992D01*
X245778Y194406D02*
X243794Y194406D01*
X243794Y196804D02*
X245778Y196804D01*
X252278Y197992D02*
X252278Y192008D01*
X250294Y192008D01*
X250294Y197992D01*
X252278Y197992D01*
X252278Y194406D02*
X250294Y194406D01*
X250294Y196804D02*
X252278Y196804D01*
X258778Y197992D02*
X258778Y192008D01*
X256794Y192008D01*
X256794Y197992D01*
X258778Y197992D01*
X258778Y194406D02*
X256794Y194406D01*
X256794Y196804D02*
X258778Y196804D01*
X265278Y197992D02*
X265278Y192008D01*
X263294Y192008D01*
X263294Y197992D01*
X265278Y197992D01*
X265278Y194406D02*
X263294Y194406D01*
X263294Y196804D02*
X265278Y196804D01*
D22*
X255794Y181258D02*
X255794Y178742D01*
X253278Y178742D01*
X253278Y181258D01*
X255794Y181258D01*
D23*
X755295Y160821D02*
X755295Y154779D01*
X748253Y154779D01*
X748253Y160821D01*
X755295Y160821D01*
X755295Y157123D02*
X748253Y157123D01*
X748253Y159467D02*
X755295Y159467D01*
X755295Y173779D02*
X755295Y179821D01*
X755295Y173779D02*
X748253Y173779D01*
X748253Y179821D01*
X755295Y179821D01*
X755295Y176123D02*
X748253Y176123D01*
X748253Y178467D02*
X755295Y178467D01*
X776295Y170321D02*
X776295Y164279D01*
X769253Y164279D01*
X769253Y170321D01*
X776295Y170321D01*
X776295Y166623D02*
X769253Y166623D01*
X769253Y168967D02*
X776295Y168967D01*
D18*
X792473Y218573D02*
X799147Y218573D01*
X792473Y218573D02*
X792473Y225247D01*
X799147Y225247D01*
X799147Y218573D01*
X799147Y221162D02*
X792473Y221162D01*
X792473Y223751D02*
X799147Y223751D01*
X807713Y218573D02*
X814387Y218573D01*
X807713Y218573D02*
X807713Y225247D01*
X814387Y225247D01*
X814387Y218573D01*
X814387Y221162D02*
X807713Y221162D01*
X807713Y223751D02*
X814387Y223751D01*
X758507Y141103D02*
X751833Y141103D01*
X751833Y147777D01*
X758507Y147777D01*
X758507Y141103D01*
X758507Y143692D02*
X751833Y143692D01*
X751833Y146281D02*
X758507Y146281D01*
X767073Y141103D02*
X773747Y141103D01*
X767073Y141103D02*
X767073Y147777D01*
X773747Y147777D01*
X773747Y141103D01*
X773747Y143692D02*
X767073Y143692D01*
X767073Y146281D02*
X773747Y146281D01*
D24*
X454706Y142266D02*
X454706Y137774D01*
X444214Y137774D01*
X444214Y142266D01*
X454706Y142266D01*
X454706Y139690D02*
X444214Y139690D01*
X444214Y141606D02*
X454706Y141606D01*
X454706Y156774D02*
X454706Y161266D01*
X454706Y156774D02*
X444214Y156774D01*
X444214Y161266D01*
X454706Y161266D01*
X454706Y158690D02*
X444214Y158690D01*
X444214Y160606D02*
X454706Y160606D01*
X428586Y142266D02*
X428586Y137774D01*
X418094Y137774D01*
X418094Y142266D01*
X428586Y142266D01*
X428586Y139690D02*
X418094Y139690D01*
X418094Y141606D02*
X428586Y141606D01*
X428586Y147274D02*
X428586Y151766D01*
X428586Y147274D02*
X418094Y147274D01*
X418094Y151766D01*
X428586Y151766D01*
X428586Y149190D02*
X418094Y149190D01*
X418094Y151106D02*
X428586Y151106D01*
X428586Y156774D02*
X428586Y161266D01*
X428586Y156774D02*
X418094Y156774D01*
X418094Y161266D01*
X428586Y161266D01*
X428586Y158690D02*
X418094Y158690D01*
X418094Y160606D02*
X428586Y160606D01*
D18*
X340677Y202133D02*
X334003Y202133D01*
X340677Y202133D02*
X340677Y195459D01*
X334003Y195459D01*
X334003Y202133D01*
X334003Y198048D02*
X340677Y198048D01*
X340677Y200637D02*
X334003Y200637D01*
X325437Y202133D02*
X318763Y202133D01*
X325437Y202133D02*
X325437Y195459D01*
X318763Y195459D01*
X318763Y202133D01*
X318763Y198048D02*
X325437Y198048D01*
X325437Y200637D02*
X318763Y200637D01*
X346703Y208159D02*
X346703Y214833D01*
X353377Y214833D01*
X353377Y208159D01*
X346703Y208159D01*
X346703Y210748D02*
X353377Y210748D01*
X353377Y213337D02*
X346703Y213337D01*
X346703Y199593D02*
X346703Y192919D01*
X346703Y199593D02*
X353377Y199593D01*
X353377Y192919D01*
X346703Y192919D01*
X346703Y195508D02*
X353377Y195508D01*
X353377Y198097D02*
X346703Y198097D01*
X305625Y175717D02*
X305625Y169043D01*
X298951Y169043D01*
X298951Y175717D01*
X305625Y175717D01*
X305625Y171632D02*
X298951Y171632D01*
X298951Y174221D02*
X305625Y174221D01*
X305625Y184283D02*
X305625Y190957D01*
X305625Y184283D02*
X298951Y184283D01*
X298951Y190957D01*
X305625Y190957D01*
X305625Y186872D02*
X298951Y186872D01*
X298951Y189461D02*
X305625Y189461D01*
X397827Y143967D02*
X397827Y137293D01*
X391153Y137293D01*
X391153Y143967D01*
X397827Y143967D01*
X397827Y139882D02*
X391153Y139882D01*
X391153Y142471D02*
X397827Y142471D01*
X397827Y152533D02*
X397827Y159207D01*
X397827Y152533D02*
X391153Y152533D01*
X391153Y159207D01*
X397827Y159207D01*
X397827Y155122D02*
X391153Y155122D01*
X391153Y157711D02*
X397827Y157711D01*
X410527Y143967D02*
X410527Y137293D01*
X403853Y137293D01*
X403853Y143967D01*
X410527Y143967D01*
X410527Y139882D02*
X403853Y139882D01*
X403853Y142471D02*
X410527Y142471D01*
X410527Y152533D02*
X410527Y159207D01*
X410527Y152533D02*
X403853Y152533D01*
X403853Y159207D01*
X410527Y159207D01*
X410527Y155122D02*
X403853Y155122D01*
X403853Y157711D02*
X410527Y157711D01*
D23*
X212091Y160591D02*
X212091Y153549D01*
X206049Y153549D01*
X206049Y160591D01*
X212091Y160591D01*
X212091Y155893D02*
X206049Y155893D01*
X206049Y158237D02*
X212091Y158237D01*
X212091Y160581D02*
X206049Y160581D01*
X212091Y176549D02*
X212091Y183591D01*
X212091Y176549D02*
X206049Y176549D01*
X206049Y183591D01*
X212091Y183591D01*
X212091Y178893D02*
X206049Y178893D01*
X206049Y181237D02*
X212091Y181237D01*
X212091Y183581D02*
X206049Y183581D01*
D25*
X165565Y187945D02*
X165565Y197455D01*
X165565Y187945D02*
X153515Y187945D01*
X153515Y197455D01*
X165565Y197455D01*
X165565Y191458D02*
X153515Y191458D01*
X153515Y194971D02*
X165565Y194971D01*
X165565Y213345D02*
X165565Y222855D01*
X165565Y213345D02*
X153515Y213345D01*
X153515Y222855D01*
X165565Y222855D01*
X165565Y216858D02*
X153515Y216858D01*
X153515Y220371D02*
X165565Y220371D01*
D18*
X796283Y141427D02*
X802957Y141427D01*
X802957Y134753D01*
X796283Y134753D01*
X796283Y141427D01*
X796283Y137342D02*
X802957Y137342D01*
X802957Y139931D02*
X796283Y139931D01*
X787717Y141427D02*
X781043Y141427D01*
X787717Y141427D02*
X787717Y134753D01*
X781043Y134753D01*
X781043Y141427D01*
X781043Y137342D02*
X787717Y137342D01*
X787717Y139931D02*
X781043Y139931D01*
D26*
X660225Y147945D02*
X654535Y147945D01*
X654535Y161255D01*
X660225Y161255D01*
X660225Y147945D01*
X660225Y150261D02*
X654535Y150261D01*
X654535Y152577D02*
X660225Y152577D01*
X660225Y154893D02*
X654535Y154893D01*
X654535Y157209D02*
X660225Y157209D01*
X660225Y159525D02*
X654535Y159525D01*
X654535Y198745D02*
X660225Y198745D01*
X654535Y198745D02*
X654535Y212055D01*
X660225Y212055D01*
X660225Y198745D01*
X660225Y201061D02*
X654535Y201061D01*
X654535Y203377D02*
X660225Y203377D01*
X660225Y205693D02*
X654535Y205693D01*
X654535Y208009D02*
X660225Y208009D01*
X660225Y210325D02*
X654535Y210325D01*
X622125Y147945D02*
X616435Y147945D01*
X616435Y161255D01*
X622125Y161255D01*
X622125Y147945D01*
X622125Y150261D02*
X616435Y150261D01*
X616435Y152577D02*
X622125Y152577D01*
X622125Y154893D02*
X616435Y154893D01*
X616435Y157209D02*
X622125Y157209D01*
X622125Y159525D02*
X616435Y159525D01*
X616435Y198745D02*
X622125Y198745D01*
X616435Y198745D02*
X616435Y212055D01*
X622125Y212055D01*
X622125Y198745D01*
X622125Y201061D02*
X616435Y201061D01*
X616435Y203377D02*
X622125Y203377D01*
X622125Y205693D02*
X616435Y205693D01*
X616435Y208009D02*
X622125Y208009D01*
X622125Y210325D02*
X616435Y210325D01*
X781535Y212055D02*
X787225Y212055D01*
X787225Y198745D01*
X781535Y198745D01*
X781535Y212055D01*
X781535Y201061D02*
X787225Y201061D01*
X787225Y203377D02*
X781535Y203377D01*
X781535Y205693D02*
X787225Y205693D01*
X787225Y208009D02*
X781535Y208009D01*
X781535Y210325D02*
X787225Y210325D01*
X787225Y161255D02*
X781535Y161255D01*
X787225Y161255D02*
X787225Y147945D01*
X781535Y147945D01*
X781535Y161255D01*
X781535Y150261D02*
X787225Y150261D01*
X787225Y152577D02*
X781535Y152577D01*
X781535Y154893D02*
X787225Y154893D01*
X787225Y157209D02*
X781535Y157209D01*
X781535Y159525D02*
X787225Y159525D01*
X819635Y212055D02*
X825325Y212055D01*
X825325Y198745D01*
X819635Y198745D01*
X819635Y212055D01*
X819635Y201061D02*
X825325Y201061D01*
X825325Y203377D02*
X819635Y203377D01*
X819635Y205693D02*
X825325Y205693D01*
X825325Y208009D02*
X819635Y208009D01*
X819635Y210325D02*
X825325Y210325D01*
X825325Y161255D02*
X819635Y161255D01*
X825325Y161255D02*
X825325Y147945D01*
X819635Y147945D01*
X819635Y161255D01*
X819635Y150261D02*
X825325Y150261D01*
X825325Y152577D02*
X819635Y152577D01*
X819635Y154893D02*
X825325Y154893D01*
X825325Y157209D02*
X819635Y157209D01*
X819635Y159525D02*
X825325Y159525D01*
D21*
X197852Y178042D02*
X191868Y178042D01*
X197852Y178042D02*
X197852Y176058D01*
X191868Y176058D01*
X191868Y178042D01*
X191868Y171542D02*
X197852Y171542D01*
X197852Y169558D01*
X191868Y169558D01*
X191868Y171542D01*
X191868Y165042D02*
X197852Y165042D01*
X197852Y163058D01*
X191868Y163058D01*
X191868Y165042D01*
X191868Y158542D02*
X197852Y158542D01*
X197852Y156558D01*
X191868Y156558D01*
X191868Y158542D01*
X167852Y158542D02*
X161868Y158542D01*
X167852Y158542D02*
X167852Y156558D01*
X161868Y156558D01*
X161868Y158542D01*
X161868Y165042D02*
X167852Y165042D01*
X167852Y163058D01*
X161868Y163058D01*
X161868Y165042D01*
X161868Y171542D02*
X167852Y171542D01*
X167852Y169558D01*
X161868Y169558D01*
X161868Y171542D01*
X161868Y178042D02*
X167852Y178042D01*
X167852Y176058D01*
X161868Y176058D01*
X161868Y178042D01*
D22*
X178602Y168558D02*
X181118Y168558D01*
X181118Y166042D01*
X178602Y166042D01*
X178602Y168558D01*
D18*
X180657Y188093D02*
X173983Y188093D01*
X173983Y194767D01*
X180657Y194767D01*
X180657Y188093D01*
X180657Y190682D02*
X173983Y190682D01*
X173983Y193271D02*
X180657Y193271D01*
X189223Y188093D02*
X195897Y188093D01*
X189223Y188093D02*
X189223Y194767D01*
X195897Y194767D01*
X195897Y188093D01*
X195897Y190682D02*
X189223Y190682D01*
X189223Y193271D02*
X195897Y193271D01*
D23*
X348899Y168391D02*
X348899Y162349D01*
X348899Y168391D02*
X355941Y168391D01*
X355941Y162349D01*
X348899Y162349D01*
X348899Y164693D02*
X355941Y164693D01*
X355941Y167037D02*
X348899Y167037D01*
X348899Y149391D02*
X348899Y143349D01*
X348899Y149391D02*
X355941Y149391D01*
X355941Y143349D01*
X348899Y143349D01*
X348899Y145693D02*
X355941Y145693D01*
X355941Y148037D02*
X348899Y148037D01*
X327899Y152849D02*
X327899Y158891D01*
X334941Y158891D01*
X334941Y152849D01*
X327899Y152849D01*
X327899Y155193D02*
X334941Y155193D01*
X334941Y157537D02*
X327899Y157537D01*
D18*
X353815Y183337D02*
X360489Y183337D01*
X360489Y176663D01*
X353815Y176663D01*
X353815Y183337D01*
X353815Y179252D02*
X360489Y179252D01*
X360489Y181841D02*
X353815Y181841D01*
X345249Y183337D02*
X338575Y183337D01*
X345249Y183337D02*
X345249Y176663D01*
X338575Y176663D01*
X338575Y183337D01*
X338575Y179252D02*
X345249Y179252D01*
X345249Y181841D02*
X338575Y181841D01*
X318325Y147777D02*
X318325Y141103D01*
X311651Y141103D01*
X311651Y147777D01*
X318325Y147777D01*
X318325Y143692D02*
X311651Y143692D01*
X311651Y146281D02*
X318325Y146281D01*
X318325Y156343D02*
X318325Y163017D01*
X318325Y156343D02*
X311651Y156343D01*
X311651Y163017D01*
X318325Y163017D01*
X318325Y158932D02*
X311651Y158932D01*
X311651Y161521D02*
X318325Y161521D01*
X305625Y147777D02*
X305625Y141103D01*
X298951Y141103D01*
X298951Y147777D01*
X305625Y147777D01*
X305625Y143692D02*
X298951Y143692D01*
X298951Y146281D02*
X305625Y146281D01*
X305625Y156343D02*
X305625Y163017D01*
X305625Y156343D02*
X298951Y156343D01*
X298951Y163017D01*
X305625Y163017D01*
X305625Y158932D02*
X298951Y158932D01*
X298951Y161521D02*
X305625Y161521D01*
X361943Y196983D02*
X368617Y196983D01*
X361943Y196983D02*
X361943Y203657D01*
X368617Y203657D01*
X368617Y196983D01*
X368617Y199572D02*
X361943Y199572D01*
X361943Y202161D02*
X368617Y202161D01*
X377183Y196983D02*
X383857Y196983D01*
X377183Y196983D02*
X377183Y203657D01*
X383857Y203657D01*
X383857Y196983D01*
X383857Y199572D02*
X377183Y199572D01*
X377183Y202161D02*
X383857Y202161D01*
X327977Y214833D02*
X321303Y214833D01*
X327977Y214833D02*
X327977Y208159D01*
X321303Y208159D01*
X321303Y214833D01*
X321303Y210748D02*
X327977Y210748D01*
X327977Y213337D02*
X321303Y213337D01*
X312737Y214833D02*
X306063Y214833D01*
X312737Y214833D02*
X312737Y208159D01*
X306063Y208159D01*
X306063Y214833D01*
X306063Y210748D02*
X312737Y210748D01*
X312737Y213337D02*
X306063Y213337D01*
D27*
X48494Y208876D02*
X48494Y196124D01*
X48494Y208876D02*
X55246Y208876D01*
X55246Y196124D01*
X48494Y196124D01*
X48494Y198743D02*
X55246Y198743D01*
X55246Y201362D02*
X48494Y201362D01*
X48494Y203981D02*
X55246Y203981D01*
X55246Y206600D02*
X48494Y206600D01*
X83494Y208876D02*
X83494Y196124D01*
X83494Y208876D02*
X90246Y208876D01*
X90246Y196124D01*
X83494Y196124D01*
X83494Y198743D02*
X90246Y198743D01*
X90246Y201362D02*
X83494Y201362D01*
X83494Y203981D02*
X90246Y203981D01*
X90246Y206600D02*
X83494Y206600D01*
X83494Y163876D02*
X83494Y151124D01*
X83494Y163876D02*
X90246Y163876D01*
X90246Y151124D01*
X83494Y151124D01*
X83494Y153743D02*
X90246Y153743D01*
X90246Y156362D02*
X83494Y156362D01*
X83494Y158981D02*
X90246Y158981D01*
X90246Y161600D02*
X83494Y161600D01*
D18*
X474973Y161747D02*
X481647Y161747D01*
X481647Y155073D01*
X474973Y155073D01*
X474973Y161747D01*
X474973Y157662D02*
X481647Y157662D01*
X481647Y160251D02*
X474973Y160251D01*
X466407Y161747D02*
X459733Y161747D01*
X466407Y161747D02*
X466407Y155073D01*
X459733Y155073D01*
X459733Y161747D01*
X459733Y157662D02*
X466407Y157662D01*
X466407Y160251D02*
X459733Y160251D01*
X474973Y143967D02*
X481647Y143967D01*
X481647Y137293D01*
X474973Y137293D01*
X474973Y143967D01*
X474973Y139882D02*
X481647Y139882D01*
X481647Y142471D02*
X474973Y142471D01*
X466407Y143967D02*
X459733Y143967D01*
X466407Y143967D02*
X466407Y137293D01*
X459733Y137293D01*
X459733Y143967D01*
X459733Y139882D02*
X466407Y139882D01*
X466407Y142471D02*
X459733Y142471D01*
X601973Y190633D02*
X601973Y197307D01*
X608647Y197307D01*
X608647Y190633D01*
X601973Y190633D01*
X601973Y193222D02*
X608647Y193222D01*
X608647Y195811D02*
X601973Y195811D01*
X601973Y182067D02*
X601973Y175393D01*
X601973Y182067D02*
X608647Y182067D01*
X608647Y175393D01*
X601973Y175393D01*
X601973Y177982D02*
X608647Y177982D01*
X608647Y180571D02*
X601973Y180571D01*
X608647Y203333D02*
X608647Y210007D01*
X608647Y203333D02*
X601973Y203333D01*
X601973Y210007D01*
X608647Y210007D01*
X608647Y205922D02*
X601973Y205922D01*
X601973Y208511D02*
X608647Y208511D01*
X608647Y218573D02*
X608647Y225247D01*
X608647Y218573D02*
X601973Y218573D01*
X601973Y225247D01*
X608647Y225247D01*
X608647Y221162D02*
X601973Y221162D01*
X601973Y223751D02*
X608647Y223751D01*
D23*
X577241Y200449D02*
X571199Y200449D01*
X571199Y207491D01*
X577241Y207491D01*
X577241Y200449D01*
X577241Y202793D02*
X571199Y202793D01*
X571199Y205137D02*
X577241Y205137D01*
X577241Y207481D02*
X571199Y207481D01*
X590199Y200449D02*
X596241Y200449D01*
X590199Y200449D02*
X590199Y207491D01*
X596241Y207491D01*
X596241Y200449D01*
X596241Y202793D02*
X590199Y202793D01*
X590199Y205137D02*
X596241Y205137D01*
X596241Y207481D02*
X590199Y207481D01*
X586741Y179449D02*
X580699Y179449D01*
X580699Y186491D01*
X586741Y186491D01*
X586741Y179449D01*
X586741Y181793D02*
X580699Y181793D01*
X580699Y184137D02*
X586741Y184137D01*
X586741Y186481D02*
X580699Y186481D01*
D18*
X579437Y213493D02*
X572763Y213493D01*
X572763Y220167D01*
X579437Y220167D01*
X579437Y213493D01*
X579437Y216082D02*
X572763Y216082D01*
X572763Y218671D02*
X579437Y218671D01*
X588003Y213493D02*
X594677Y213493D01*
X588003Y213493D02*
X588003Y220167D01*
X594677Y220167D01*
X594677Y213493D01*
X594677Y216082D02*
X588003Y216082D01*
X588003Y218671D02*
X594677Y218671D01*
D26*
X737085Y147945D02*
X742775Y147945D01*
X737085Y147945D02*
X737085Y161255D01*
X742775Y161255D01*
X742775Y147945D01*
X742775Y150261D02*
X737085Y150261D01*
X737085Y152577D02*
X742775Y152577D01*
X742775Y154893D02*
X737085Y154893D01*
X737085Y157209D02*
X742775Y157209D01*
X742775Y159525D02*
X737085Y159525D01*
X737085Y198745D02*
X742775Y198745D01*
X737085Y198745D02*
X737085Y212055D01*
X742775Y212055D01*
X742775Y198745D01*
X742775Y201061D02*
X737085Y201061D01*
X737085Y203377D02*
X742775Y203377D01*
X742775Y205693D02*
X737085Y205693D01*
X737085Y208009D02*
X742775Y208009D01*
X742775Y210325D02*
X737085Y210325D01*
X704675Y147945D02*
X698985Y147945D01*
X698985Y161255D01*
X704675Y161255D01*
X704675Y147945D01*
X704675Y150261D02*
X698985Y150261D01*
X698985Y152577D02*
X704675Y152577D01*
X704675Y154893D02*
X698985Y154893D01*
X698985Y157209D02*
X704675Y157209D01*
X704675Y159525D02*
X698985Y159525D01*
X698985Y198745D02*
X704675Y198745D01*
X698985Y198745D02*
X698985Y212055D01*
X704675Y212055D01*
X704675Y198745D01*
X704675Y201061D02*
X698985Y201061D01*
X698985Y203377D02*
X704675Y203377D01*
X704675Y205693D02*
X698985Y205693D01*
X698985Y208009D02*
X704675Y208009D01*
X704675Y210325D02*
X698985Y210325D01*
D18*
X688657Y176987D02*
X681983Y176987D01*
X688657Y176987D02*
X688657Y170313D01*
X681983Y170313D01*
X681983Y176987D01*
X681983Y172902D02*
X688657Y172902D01*
X688657Y175491D02*
X681983Y175491D01*
X673417Y176987D02*
X666743Y176987D01*
X673417Y176987D02*
X673417Y170313D01*
X666743Y170313D01*
X666743Y176987D01*
X666743Y172902D02*
X673417Y172902D01*
X673417Y175491D02*
X666743Y175491D01*
X681983Y197307D02*
X688657Y197307D01*
X688657Y190633D01*
X681983Y190633D01*
X681983Y197307D01*
X681983Y193222D02*
X688657Y193222D01*
X688657Y195811D02*
X681983Y195811D01*
X673417Y197307D02*
X666743Y197307D01*
X673417Y197307D02*
X673417Y190633D01*
X666743Y190633D01*
X666743Y197307D01*
X666743Y193222D02*
X673417Y193222D01*
X673417Y195811D02*
X666743Y195811D01*
D28*
X902490Y180000D03*
D29*
X520161Y219699D02*
X490459Y219699D01*
X490459Y220901D01*
X520161Y220901D01*
X520161Y219699D01*
X520161Y213499D02*
X490459Y213499D01*
X490459Y214701D01*
X520161Y214701D01*
X520161Y213499D01*
X520161Y207299D02*
X490459Y207299D01*
X490459Y208501D01*
X520161Y208501D01*
X520161Y207299D01*
X520161Y201099D02*
X490459Y201099D01*
X490459Y202301D01*
X520161Y202301D01*
X520161Y201099D01*
X520161Y194899D02*
X490459Y194899D01*
X490459Y196101D01*
X520161Y196101D01*
X520161Y194899D01*
X520161Y188699D02*
X490459Y188699D01*
X490459Y189901D01*
X520161Y189901D01*
X520161Y188699D01*
X520161Y182499D02*
X490459Y182499D01*
X490459Y183701D01*
X520161Y183701D01*
X520161Y182499D01*
X520161Y176299D02*
X490459Y176299D01*
X490459Y177501D01*
X520161Y177501D01*
X520161Y176299D01*
X520161Y170099D02*
X490459Y170099D01*
X490459Y171301D01*
X520161Y171301D01*
X520161Y170099D01*
X520161Y163899D02*
X490459Y163899D01*
X490459Y165101D01*
X520161Y165101D01*
X520161Y163899D01*
X520161Y157699D02*
X490459Y157699D01*
X490459Y158901D01*
X520161Y158901D01*
X520161Y157699D01*
X520161Y151499D02*
X490459Y151499D01*
X490459Y152701D01*
X520161Y152701D01*
X520161Y151499D01*
X520161Y145299D02*
X490459Y145299D01*
X490459Y146501D01*
X520161Y146501D01*
X520161Y145299D01*
X520161Y139099D02*
X490459Y139099D01*
X490459Y140301D01*
X520161Y140301D01*
X520161Y139099D01*
D18*
X839787Y169043D02*
X839787Y175717D01*
X839787Y169043D02*
X833113Y169043D01*
X833113Y175717D01*
X839787Y175717D01*
X839787Y171632D02*
X833113Y171632D01*
X833113Y174221D02*
X839787Y174221D01*
X839787Y184283D02*
X839787Y190957D01*
X839787Y184283D02*
X833113Y184283D01*
X833113Y190957D01*
X839787Y190957D01*
X839787Y186872D02*
X833113Y186872D01*
X833113Y189461D02*
X839787Y189461D01*
X852487Y175717D02*
X852487Y169043D01*
X845813Y169043D01*
X845813Y175717D01*
X852487Y175717D01*
X852487Y171632D02*
X845813Y171632D01*
X845813Y174221D02*
X852487Y174221D01*
X852487Y184283D02*
X852487Y190957D01*
X852487Y184283D02*
X845813Y184283D01*
X845813Y190957D01*
X852487Y190957D01*
X852487Y186872D02*
X845813Y186872D01*
X845813Y189461D02*
X852487Y189461D01*
D30*
X933638Y197112D02*
X933638Y208608D01*
X933638Y197112D02*
X922142Y197112D01*
X922142Y208608D01*
X933638Y208608D01*
X933638Y201151D02*
X922142Y201151D01*
X922142Y205190D02*
X933638Y205190D01*
X882838Y208608D02*
X882838Y197112D01*
X871342Y197112D01*
X871342Y208608D01*
X882838Y208608D01*
X882838Y201151D02*
X871342Y201151D01*
X871342Y205190D02*
X882838Y205190D01*
X933638Y162888D02*
X933638Y151392D01*
X922142Y151392D01*
X922142Y162888D01*
X933638Y162888D01*
X933638Y155431D02*
X922142Y155431D01*
X922142Y159470D02*
X933638Y159470D01*
X882838Y162888D02*
X882838Y151392D01*
X871342Y151392D01*
X871342Y162888D01*
X882838Y162888D01*
X882838Y155431D02*
X871342Y155431D01*
X871342Y159470D02*
X882838Y159470D01*
D31*
X229140Y180000D03*
X279940Y180000D03*
X324140Y180000D03*
X374940Y180000D03*
X877090Y180000D03*
X927890Y180000D03*
D32*
X743080Y218125D02*
X740336Y218125D01*
X740336Y225695D01*
X743080Y225695D01*
X743080Y218125D01*
X743080Y219863D02*
X740336Y219863D01*
X740336Y221601D02*
X743080Y221601D01*
X743080Y223339D02*
X740336Y223339D01*
X740336Y225077D02*
X743080Y225077D01*
X746940Y218125D02*
X749684Y218125D01*
X746940Y218125D02*
X746940Y225695D01*
X749684Y225695D01*
X749684Y218125D01*
X749684Y219863D02*
X746940Y219863D01*
X746940Y221601D02*
X749684Y221601D01*
X749684Y223339D02*
X746940Y223339D01*
X746940Y225077D02*
X749684Y225077D01*
D33*
X874550Y220640D03*
D18*
X767073Y658883D02*
X767073Y665557D01*
X773747Y665557D01*
X773747Y658883D01*
X767073Y658883D01*
X767073Y661472D02*
X773747Y661472D01*
X773747Y664061D02*
X767073Y664061D01*
X767073Y650317D02*
X767073Y643643D01*
X767073Y650317D02*
X773747Y650317D01*
X773747Y643643D01*
X767073Y643643D01*
X767073Y646232D02*
X773747Y646232D01*
X773747Y648821D02*
X767073Y648821D01*
X158743Y702063D02*
X158743Y708737D01*
X165417Y708737D01*
X165417Y702063D01*
X158743Y702063D01*
X158743Y704652D02*
X165417Y704652D01*
X165417Y707241D02*
X158743Y707241D01*
X158743Y693497D02*
X158743Y686823D01*
X158743Y693497D02*
X165417Y693497D01*
X165417Y686823D01*
X158743Y686823D01*
X158743Y689412D02*
X165417Y689412D01*
X165417Y692001D02*
X158743Y692001D01*
D34*
X127458Y695262D02*
X127458Y687738D01*
X127458Y695262D02*
X132982Y695262D01*
X132982Y687738D01*
X127458Y687738D01*
X127458Y693423D02*
X132982Y693423D01*
X145458Y672262D02*
X145458Y664738D01*
X145458Y672262D02*
X150982Y672262D01*
X150982Y664738D01*
X145458Y664738D01*
X145458Y670423D02*
X150982Y670423D01*
X127458Y672262D02*
X127458Y664738D01*
X127458Y672262D02*
X132982Y672262D01*
X132982Y664738D01*
X127458Y664738D01*
X127458Y670423D02*
X132982Y670423D01*
X145458Y687738D02*
X145458Y695262D01*
X150982Y695262D01*
X150982Y687738D01*
X145458Y687738D01*
X145458Y693423D02*
X150982Y693423D01*
D18*
X165417Y657937D02*
X165417Y651263D01*
X158743Y651263D01*
X158743Y657937D01*
X165417Y657937D01*
X165417Y653852D02*
X158743Y653852D01*
X158743Y656441D02*
X165417Y656441D01*
X165417Y666503D02*
X165417Y673177D01*
X165417Y666503D02*
X158743Y666503D01*
X158743Y673177D01*
X165417Y673177D01*
X165417Y669092D02*
X158743Y669092D01*
X158743Y671681D02*
X165417Y671681D01*
X789933Y692227D02*
X796607Y692227D01*
X796607Y685553D01*
X789933Y685553D01*
X789933Y692227D01*
X789933Y688142D02*
X796607Y688142D01*
X796607Y690731D02*
X789933Y690731D01*
X781367Y692227D02*
X774693Y692227D01*
X781367Y692227D02*
X781367Y685553D01*
X774693Y685553D01*
X774693Y692227D01*
X774693Y688142D02*
X781367Y688142D01*
X781367Y690731D02*
X774693Y690731D01*
X789933Y704927D02*
X796607Y704927D01*
X796607Y698253D01*
X789933Y698253D01*
X789933Y704927D01*
X789933Y700842D02*
X796607Y700842D01*
X796607Y703431D02*
X789933Y703431D01*
X781367Y704927D02*
X774693Y704927D01*
X781367Y704927D02*
X781367Y698253D01*
X774693Y698253D01*
X774693Y704927D01*
X774693Y700842D02*
X781367Y700842D01*
X781367Y703431D02*
X774693Y703431D01*
X150177Y717303D02*
X143503Y717303D01*
X143503Y723977D01*
X150177Y723977D01*
X150177Y717303D01*
X150177Y719892D02*
X143503Y719892D01*
X143503Y722481D02*
X150177Y722481D01*
X158743Y717303D02*
X165417Y717303D01*
X158743Y717303D02*
X158743Y723977D01*
X165417Y723977D01*
X165417Y717303D01*
X165417Y719892D02*
X158743Y719892D01*
X158743Y722481D02*
X165417Y722481D01*
X294633Y651333D02*
X301307Y651333D01*
X301307Y644659D01*
X294633Y644659D01*
X294633Y651333D01*
X294633Y647248D02*
X301307Y647248D01*
X301307Y649837D02*
X294633Y649837D01*
X286067Y651333D02*
X279393Y651333D01*
X286067Y651333D02*
X286067Y644659D01*
X279393Y644659D01*
X279393Y651333D01*
X279393Y647248D02*
X286067Y647248D01*
X286067Y649837D02*
X279393Y649837D01*
X165417Y642697D02*
X158743Y642697D01*
X165417Y642697D02*
X165417Y636023D01*
X158743Y636023D01*
X158743Y642697D01*
X158743Y638612D02*
X165417Y638612D01*
X165417Y641201D02*
X158743Y641201D01*
X150177Y642697D02*
X143503Y642697D01*
X150177Y642697D02*
X150177Y636023D01*
X143503Y636023D01*
X143503Y642697D01*
X143503Y638612D02*
X150177Y638612D01*
X150177Y641201D02*
X143503Y641201D01*
D35*
X244559Y642131D02*
X244559Y647869D01*
X244559Y642131D02*
X243821Y642131D01*
X243821Y647869D01*
X244559Y647869D01*
X244559Y644763D02*
X243821Y644763D01*
X243821Y647395D02*
X244559Y647395D01*
X239559Y647869D02*
X239559Y642131D01*
X238821Y642131D01*
X238821Y647869D01*
X239559Y647869D01*
X239559Y644763D02*
X238821Y644763D01*
X238821Y647395D02*
X239559Y647395D01*
X234559Y647869D02*
X234559Y642131D01*
X233821Y642131D01*
X233821Y647869D01*
X234559Y647869D01*
X234559Y644763D02*
X233821Y644763D01*
X233821Y647395D02*
X234559Y647395D01*
X229559Y647869D02*
X229559Y642131D01*
X228821Y642131D01*
X228821Y647869D01*
X229559Y647869D01*
X229559Y644763D02*
X228821Y644763D01*
X228821Y647395D02*
X229559Y647395D01*
X224559Y647869D02*
X224559Y642131D01*
X223821Y642131D01*
X223821Y647869D01*
X224559Y647869D01*
X224559Y644763D02*
X223821Y644763D01*
X223821Y647395D02*
X224559Y647395D01*
X219559Y647869D02*
X219559Y642131D01*
X218821Y642131D01*
X218821Y647869D01*
X219559Y647869D01*
X219559Y644763D02*
X218821Y644763D01*
X218821Y647395D02*
X219559Y647395D01*
X214559Y647869D02*
X214559Y642131D01*
X213821Y642131D01*
X213821Y647869D01*
X214559Y647869D01*
X214559Y644763D02*
X213821Y644763D01*
X213821Y647395D02*
X214559Y647395D01*
X209559Y647869D02*
X209559Y642131D01*
X208821Y642131D01*
X208821Y647869D01*
X209559Y647869D01*
X209559Y644763D02*
X208821Y644763D01*
X208821Y647395D02*
X209559Y647395D01*
X204559Y647869D02*
X204559Y642131D01*
X203821Y642131D01*
X203821Y647869D01*
X204559Y647869D01*
X204559Y644763D02*
X203821Y644763D01*
X203821Y647395D02*
X204559Y647395D01*
X199559Y647869D02*
X199559Y642131D01*
X198821Y642131D01*
X198821Y647869D01*
X199559Y647869D01*
X199559Y644763D02*
X198821Y644763D01*
X198821Y647395D02*
X199559Y647395D01*
X194559Y647869D02*
X194559Y642131D01*
X193821Y642131D01*
X193821Y647869D01*
X194559Y647869D01*
X194559Y644763D02*
X193821Y644763D01*
X193821Y647395D02*
X194559Y647395D01*
X189559Y647869D02*
X189559Y642131D01*
X188821Y642131D01*
X188821Y647869D01*
X189559Y647869D01*
X189559Y644763D02*
X188821Y644763D01*
X188821Y647395D02*
X189559Y647395D01*
D36*
X190131Y653441D02*
X243249Y653441D01*
X190131Y653441D02*
X190131Y706559D01*
X243249Y706559D01*
X243249Y653441D01*
X243249Y656661D02*
X190131Y656661D01*
X190131Y659881D02*
X243249Y659881D01*
X243249Y663101D02*
X190131Y663101D01*
X190131Y666321D02*
X243249Y666321D01*
X243249Y669541D02*
X190131Y669541D01*
X190131Y672761D02*
X243249Y672761D01*
X243249Y675981D02*
X190131Y675981D01*
X190131Y679201D02*
X243249Y679201D01*
X243249Y682421D02*
X190131Y682421D01*
X190131Y685641D02*
X243249Y685641D01*
X243249Y688861D02*
X190131Y688861D01*
X190131Y692081D02*
X243249Y692081D01*
X243249Y695301D02*
X190131Y695301D01*
X190131Y698521D02*
X243249Y698521D01*
X243249Y701741D02*
X190131Y701741D01*
X190131Y704961D02*
X243249Y704961D01*
D35*
X184559Y652131D02*
X178821Y652131D01*
X178821Y652869D01*
X184559Y652869D01*
X184559Y652131D01*
X184559Y657131D02*
X178821Y657131D01*
X178821Y657869D01*
X184559Y657869D01*
X184559Y657131D01*
X184559Y662131D02*
X178821Y662131D01*
X178821Y662869D01*
X184559Y662869D01*
X184559Y662131D01*
X184559Y667131D02*
X178821Y667131D01*
X178821Y667869D01*
X184559Y667869D01*
X184559Y667131D01*
X184559Y672131D02*
X178821Y672131D01*
X178821Y672869D01*
X184559Y672869D01*
X184559Y672131D01*
X184559Y677131D02*
X178821Y677131D01*
X178821Y677869D01*
X184559Y677869D01*
X184559Y677131D01*
X184559Y682131D02*
X178821Y682131D01*
X178821Y682869D01*
X184559Y682869D01*
X184559Y682131D01*
X184559Y687131D02*
X178821Y687131D01*
X178821Y687869D01*
X184559Y687869D01*
X184559Y687131D01*
X184559Y692131D02*
X178821Y692131D01*
X178821Y692869D01*
X184559Y692869D01*
X184559Y692131D01*
X184559Y697131D02*
X178821Y697131D01*
X178821Y697869D01*
X184559Y697869D01*
X184559Y697131D01*
X184559Y702131D02*
X178821Y702131D01*
X178821Y702869D01*
X184559Y702869D01*
X184559Y702131D01*
X184559Y707131D02*
X178821Y707131D01*
X178821Y707869D01*
X184559Y707869D01*
X184559Y707131D01*
X188821Y712131D02*
X188821Y717869D01*
X189559Y717869D01*
X189559Y712131D01*
X188821Y712131D01*
X188821Y714763D02*
X189559Y714763D01*
X189559Y717395D02*
X188821Y717395D01*
X193821Y717869D02*
X193821Y712131D01*
X193821Y717869D02*
X194559Y717869D01*
X194559Y712131D01*
X193821Y712131D01*
X193821Y714763D02*
X194559Y714763D01*
X194559Y717395D02*
X193821Y717395D01*
X198821Y717869D02*
X198821Y712131D01*
X198821Y717869D02*
X199559Y717869D01*
X199559Y712131D01*
X198821Y712131D01*
X198821Y714763D02*
X199559Y714763D01*
X199559Y717395D02*
X198821Y717395D01*
X203821Y717869D02*
X203821Y712131D01*
X203821Y717869D02*
X204559Y717869D01*
X204559Y712131D01*
X203821Y712131D01*
X203821Y714763D02*
X204559Y714763D01*
X204559Y717395D02*
X203821Y717395D01*
X208821Y717869D02*
X208821Y712131D01*
X208821Y717869D02*
X209559Y717869D01*
X209559Y712131D01*
X208821Y712131D01*
X208821Y714763D02*
X209559Y714763D01*
X209559Y717395D02*
X208821Y717395D01*
X213821Y717869D02*
X213821Y712131D01*
X213821Y717869D02*
X214559Y717869D01*
X214559Y712131D01*
X213821Y712131D01*
X213821Y714763D02*
X214559Y714763D01*
X214559Y717395D02*
X213821Y717395D01*
X218821Y717869D02*
X218821Y712131D01*
X218821Y717869D02*
X219559Y717869D01*
X219559Y712131D01*
X218821Y712131D01*
X218821Y714763D02*
X219559Y714763D01*
X219559Y717395D02*
X218821Y717395D01*
X223821Y717869D02*
X223821Y712131D01*
X223821Y717869D02*
X224559Y717869D01*
X224559Y712131D01*
X223821Y712131D01*
X223821Y714763D02*
X224559Y714763D01*
X224559Y717395D02*
X223821Y717395D01*
X228821Y717869D02*
X228821Y712131D01*
X228821Y717869D02*
X229559Y717869D01*
X229559Y712131D01*
X228821Y712131D01*
X228821Y714763D02*
X229559Y714763D01*
X229559Y717395D02*
X228821Y717395D01*
X233821Y717869D02*
X233821Y712131D01*
X233821Y717869D02*
X234559Y717869D01*
X234559Y712131D01*
X233821Y712131D01*
X233821Y714763D02*
X234559Y714763D01*
X234559Y717395D02*
X233821Y717395D01*
X238821Y717869D02*
X238821Y712131D01*
X238821Y717869D02*
X239559Y717869D01*
X239559Y712131D01*
X238821Y712131D01*
X238821Y714763D02*
X239559Y714763D01*
X239559Y717395D02*
X238821Y717395D01*
X243821Y717869D02*
X243821Y712131D01*
X243821Y717869D02*
X244559Y717869D01*
X244559Y712131D01*
X243821Y712131D01*
X243821Y714763D02*
X244559Y714763D01*
X244559Y717395D02*
X243821Y717395D01*
X248821Y707869D02*
X254559Y707869D01*
X254559Y707131D01*
X248821Y707131D01*
X248821Y707869D01*
X248821Y702869D02*
X254559Y702869D01*
X254559Y702131D01*
X248821Y702131D01*
X248821Y702869D01*
X248821Y697869D02*
X254559Y697869D01*
X254559Y697131D01*
X248821Y697131D01*
X248821Y697869D01*
X248821Y692869D02*
X254559Y692869D01*
X254559Y692131D01*
X248821Y692131D01*
X248821Y692869D01*
X248821Y687869D02*
X254559Y687869D01*
X254559Y687131D01*
X248821Y687131D01*
X248821Y687869D01*
X248821Y682869D02*
X254559Y682869D01*
X254559Y682131D01*
X248821Y682131D01*
X248821Y682869D01*
X248821Y677869D02*
X254559Y677869D01*
X254559Y677131D01*
X248821Y677131D01*
X248821Y677869D01*
X248821Y672869D02*
X254559Y672869D01*
X254559Y672131D01*
X248821Y672131D01*
X248821Y672869D01*
X248821Y667869D02*
X254559Y667869D01*
X254559Y667131D01*
X248821Y667131D01*
X248821Y667869D01*
X248821Y662869D02*
X254559Y662869D01*
X254559Y662131D01*
X248821Y662131D01*
X248821Y662869D01*
X248821Y657869D02*
X254559Y657869D01*
X254559Y657131D01*
X248821Y657131D01*
X248821Y657869D01*
X248821Y652869D02*
X254559Y652869D01*
X254559Y652131D01*
X248821Y652131D01*
X248821Y652869D01*
X556069Y666081D02*
X556069Y669619D01*
X556069Y666081D02*
X555331Y666081D01*
X555331Y669619D01*
X556069Y669619D01*
X556069Y668713D02*
X555331Y668713D01*
X551069Y669619D02*
X551069Y666081D01*
X550331Y666081D01*
X550331Y669619D01*
X551069Y669619D01*
X551069Y668713D02*
X550331Y668713D01*
X546069Y669619D02*
X546069Y666081D01*
X545331Y666081D01*
X545331Y669619D01*
X546069Y669619D01*
X546069Y668713D02*
X545331Y668713D01*
X540319Y672131D02*
X536781Y672131D01*
X536781Y672869D01*
X540319Y672869D01*
X540319Y672131D01*
X540319Y677131D02*
X536781Y677131D01*
X536781Y677869D01*
X540319Y677869D01*
X540319Y677131D01*
X540319Y682131D02*
X536781Y682131D01*
X536781Y682869D01*
X540319Y682869D01*
X540319Y682131D01*
X540319Y687131D02*
X536781Y687131D01*
X536781Y687869D01*
X540319Y687869D01*
X540319Y687131D01*
X545331Y690381D02*
X545331Y693919D01*
X546069Y693919D01*
X546069Y690381D01*
X545331Y690381D01*
X545331Y693013D02*
X546069Y693013D01*
X550331Y693919D02*
X550331Y690381D01*
X550331Y693919D02*
X551069Y693919D01*
X551069Y690381D01*
X550331Y690381D01*
X550331Y693013D02*
X551069Y693013D01*
X555331Y693919D02*
X555331Y690381D01*
X555331Y693919D02*
X556069Y693919D01*
X556069Y690381D01*
X555331Y690381D01*
X555331Y693013D02*
X556069Y693013D01*
X561081Y687869D02*
X564619Y687869D01*
X564619Y687131D01*
X561081Y687131D01*
X561081Y687869D01*
X561081Y682869D02*
X564619Y682869D01*
X564619Y682131D01*
X561081Y682131D01*
X561081Y682869D01*
X561081Y677869D02*
X564619Y677869D01*
X564619Y677131D01*
X561081Y677131D01*
X561081Y677869D01*
X561081Y672869D02*
X564619Y672869D01*
X564619Y672131D01*
X561081Y672131D01*
X561081Y672869D01*
D37*
X556478Y674222D02*
X556478Y685778D01*
X556478Y674222D02*
X544922Y674222D01*
X544922Y685778D01*
X556478Y685778D01*
X556478Y677501D02*
X544922Y677501D01*
X544922Y680780D02*
X556478Y680780D01*
X556478Y684059D02*
X544922Y684059D01*
D38*
X871330Y672980D02*
X871330Y672020D01*
X871330Y672980D02*
X879490Y672980D01*
X879490Y672020D01*
X871330Y672020D01*
X871330Y677020D02*
X871330Y677980D01*
X879490Y677980D01*
X879490Y677020D01*
X871330Y677020D01*
D39*
X872263Y648697D02*
X872263Y646803D01*
X872263Y648697D02*
X878557Y648697D01*
X878557Y646803D01*
X872263Y646803D01*
X872263Y654553D02*
X872263Y656447D01*
X878557Y656447D01*
X878557Y654553D01*
X872263Y654553D01*
D38*
X871330Y662020D02*
X871330Y662980D01*
X879490Y662980D01*
X879490Y662020D01*
X871330Y662020D01*
X871330Y667020D02*
X871330Y667980D01*
X879490Y667980D01*
X879490Y667020D01*
X871330Y667020D01*
X879490Y687020D02*
X879490Y687980D01*
X879490Y687020D02*
X871330Y687020D01*
X871330Y687980D01*
X879490Y687980D01*
X879490Y682980D02*
X879490Y682020D01*
X871330Y682020D01*
X871330Y682980D01*
X879490Y682980D01*
D39*
X878557Y711303D02*
X878557Y713197D01*
X878557Y711303D02*
X872263Y711303D01*
X872263Y713197D01*
X878557Y713197D01*
X878557Y705447D02*
X878557Y703553D01*
X872263Y703553D01*
X872263Y705447D01*
X878557Y705447D01*
D38*
X879490Y697980D02*
X879490Y697020D01*
X871330Y697020D01*
X871330Y697980D01*
X879490Y697980D01*
X879490Y692980D02*
X879490Y692020D01*
X871330Y692020D01*
X871330Y692980D01*
X879490Y692980D01*
D19*
X886460Y708900D03*
X886460Y651100D03*
D18*
X508317Y698253D02*
X501643Y698253D01*
X501643Y704927D01*
X508317Y704927D01*
X508317Y698253D01*
X508317Y700842D02*
X501643Y700842D01*
X501643Y703431D02*
X508317Y703431D01*
X516883Y698253D02*
X523557Y698253D01*
X516883Y698253D02*
X516883Y704927D01*
X523557Y704927D01*
X523557Y698253D01*
X523557Y700842D02*
X516883Y700842D01*
X516883Y703431D02*
X523557Y703431D01*
X508317Y685553D02*
X501643Y685553D01*
X501643Y692227D01*
X508317Y692227D01*
X508317Y685553D01*
X508317Y688142D02*
X501643Y688142D01*
X501643Y690731D02*
X508317Y690731D01*
X516883Y685553D02*
X523557Y685553D01*
X516883Y685553D02*
X516883Y692227D01*
X523557Y692227D01*
X523557Y685553D01*
X523557Y688142D02*
X516883Y688142D01*
X516883Y690731D02*
X523557Y690731D01*
X508317Y672853D02*
X501643Y672853D01*
X501643Y679527D01*
X508317Y679527D01*
X508317Y672853D01*
X508317Y675442D02*
X501643Y675442D01*
X501643Y678031D02*
X508317Y678031D01*
X516883Y672853D02*
X523557Y672853D01*
X516883Y672853D02*
X516883Y679527D01*
X523557Y679527D01*
X523557Y672853D01*
X523557Y675442D02*
X516883Y675442D01*
X516883Y678031D02*
X523557Y678031D01*
X518153Y661747D02*
X518153Y655073D01*
X518153Y661747D02*
X524827Y661747D01*
X524827Y655073D01*
X518153Y655073D01*
X518153Y657662D02*
X524827Y657662D01*
X524827Y660251D02*
X518153Y660251D01*
X518153Y646507D02*
X518153Y639833D01*
X518153Y646507D02*
X524827Y646507D01*
X524827Y639833D01*
X518153Y639833D01*
X518153Y642422D02*
X524827Y642422D01*
X524827Y645011D02*
X518153Y645011D01*
X500373Y655073D02*
X500373Y661747D01*
X507047Y661747D01*
X507047Y655073D01*
X500373Y655073D01*
X500373Y657662D02*
X507047Y657662D01*
X507047Y660251D02*
X500373Y660251D01*
X500373Y646507D02*
X500373Y639833D01*
X500373Y646507D02*
X507047Y646507D01*
X507047Y639833D01*
X500373Y639833D01*
X500373Y642422D02*
X507047Y642422D01*
X507047Y645011D02*
X500373Y645011D01*
X577843Y669043D02*
X577843Y675717D01*
X584517Y675717D01*
X584517Y669043D01*
X577843Y669043D01*
X577843Y671632D02*
X584517Y671632D01*
X584517Y674221D02*
X577843Y674221D01*
X577843Y660477D02*
X577843Y653803D01*
X577843Y660477D02*
X584517Y660477D01*
X584517Y653803D01*
X577843Y653803D01*
X577843Y656392D02*
X584517Y656392D01*
X584517Y658981D02*
X577843Y658981D01*
X584517Y681743D02*
X584517Y688417D01*
X584517Y681743D02*
X577843Y681743D01*
X577843Y688417D01*
X584517Y688417D01*
X584517Y684332D02*
X577843Y684332D01*
X577843Y686921D02*
X584517Y686921D01*
X584517Y696983D02*
X584517Y703657D01*
X584517Y696983D02*
X577843Y696983D01*
X577843Y703657D01*
X584517Y703657D01*
X584517Y699572D02*
X577843Y699572D01*
X577843Y702161D02*
X584517Y702161D01*
X343217Y658883D02*
X336543Y658883D01*
X336543Y665557D01*
X343217Y665557D01*
X343217Y658883D01*
X343217Y661472D02*
X336543Y661472D01*
X336543Y664061D02*
X343217Y664061D01*
X351783Y658883D02*
X358457Y658883D01*
X351783Y658883D02*
X351783Y665557D01*
X358457Y665557D01*
X358457Y658883D01*
X358457Y661472D02*
X351783Y661472D01*
X351783Y664061D02*
X358457Y664061D01*
X443223Y693173D02*
X443223Y699847D01*
X449897Y699847D01*
X449897Y693173D01*
X443223Y693173D01*
X443223Y695762D02*
X449897Y695762D01*
X449897Y698351D02*
X443223Y698351D01*
X443223Y684607D02*
X443223Y677933D01*
X443223Y684607D02*
X449897Y684607D01*
X449897Y677933D01*
X443223Y677933D01*
X443223Y680522D02*
X449897Y680522D01*
X449897Y683111D02*
X443223Y683111D01*
X383857Y684607D02*
X383857Y677933D01*
X377183Y677933D01*
X377183Y684607D01*
X383857Y684607D01*
X383857Y680522D02*
X377183Y680522D01*
X377183Y683111D02*
X383857Y683111D01*
X383857Y693173D02*
X383857Y699847D01*
X383857Y693173D02*
X377183Y693173D01*
X377183Y699847D01*
X383857Y699847D01*
X383857Y695762D02*
X377183Y695762D01*
X377183Y698351D02*
X383857Y698351D01*
X368617Y684607D02*
X368617Y677933D01*
X361943Y677933D01*
X361943Y684607D01*
X368617Y684607D01*
X368617Y680522D02*
X361943Y680522D01*
X361943Y683111D02*
X368617Y683111D01*
X368617Y693173D02*
X368617Y699847D01*
X368617Y693173D02*
X361943Y693173D01*
X361943Y699847D01*
X368617Y699847D01*
X368617Y695762D02*
X361943Y695762D01*
X361943Y698351D02*
X368617Y698351D01*
D40*
X428710Y697459D02*
X428710Y699321D01*
X437072Y699321D01*
X437072Y697459D01*
X428710Y697459D01*
X428710Y689821D02*
X428710Y687959D01*
X428710Y689821D02*
X437072Y689821D01*
X437072Y687959D01*
X428710Y687959D01*
X428710Y680321D02*
X428710Y678459D01*
X428710Y680321D02*
X437072Y680321D01*
X437072Y678459D01*
X428710Y678459D01*
X402708Y678459D02*
X402708Y680321D01*
X411070Y680321D01*
X411070Y678459D01*
X402708Y678459D01*
X402708Y697459D02*
X402708Y699321D01*
X411070Y699321D01*
X411070Y697459D01*
X402708Y697459D01*
X411070Y689821D02*
X411070Y687959D01*
X402708Y687959D01*
X402708Y689821D01*
X411070Y689821D01*
D41*
X467538Y692723D02*
X467538Y700297D01*
X478922Y700297D01*
X478922Y692723D01*
X467538Y692723D01*
X467538Y695662D02*
X478922Y695662D01*
X478922Y698601D02*
X467538Y698601D01*
X467538Y682517D02*
X467538Y674943D01*
X467538Y682517D02*
X478922Y682517D01*
X478922Y674943D01*
X467538Y674943D01*
X467538Y677882D02*
X478922Y677882D01*
X478922Y680821D02*
X467538Y680821D01*
D18*
X789933Y679527D02*
X796607Y679527D01*
X796607Y672853D01*
X789933Y672853D01*
X789933Y679527D01*
X789933Y675442D02*
X796607Y675442D01*
X796607Y678031D02*
X789933Y678031D01*
X781367Y679527D02*
X774693Y679527D01*
X781367Y679527D02*
X781367Y672853D01*
X774693Y672853D01*
X774693Y679527D01*
X774693Y675442D02*
X781367Y675442D01*
X781367Y678031D02*
X774693Y678031D01*
X789933Y717627D02*
X796607Y717627D01*
X796607Y710953D01*
X789933Y710953D01*
X789933Y717627D01*
X789933Y713542D02*
X796607Y713542D01*
X796607Y716131D02*
X789933Y716131D01*
X781367Y717627D02*
X774693Y717627D01*
X781367Y717627D02*
X781367Y710953D01*
X774693Y710953D01*
X774693Y717627D01*
X774693Y713542D02*
X781367Y713542D01*
X781367Y716131D02*
X774693Y716131D01*
X486403Y661747D02*
X486403Y655073D01*
X486403Y661747D02*
X493077Y661747D01*
X493077Y655073D01*
X486403Y655073D01*
X486403Y657662D02*
X493077Y657662D01*
X493077Y660251D02*
X486403Y660251D01*
X486403Y646507D02*
X486403Y639833D01*
X486403Y646507D02*
X493077Y646507D01*
X493077Y639833D01*
X486403Y639833D01*
X486403Y642422D02*
X493077Y642422D01*
X493077Y645011D02*
X486403Y645011D01*
D23*
X441121Y661739D02*
X434079Y661739D01*
X434079Y667781D01*
X441121Y667781D01*
X441121Y661739D01*
X441121Y664083D02*
X434079Y664083D01*
X434079Y666427D02*
X441121Y666427D01*
X457079Y661739D02*
X464121Y661739D01*
X457079Y661739D02*
X457079Y667781D01*
X464121Y667781D01*
X464121Y661739D01*
X464121Y664083D02*
X457079Y664083D01*
X457079Y666427D02*
X464121Y666427D01*
D41*
X443997Y636208D02*
X436423Y636208D01*
X436423Y647592D01*
X443997Y647592D01*
X443997Y636208D01*
X443997Y639147D02*
X436423Y639147D01*
X436423Y642086D02*
X443997Y642086D01*
X443997Y645025D02*
X436423Y645025D01*
X454203Y636208D02*
X461777Y636208D01*
X454203Y636208D02*
X454203Y647592D01*
X461777Y647592D01*
X461777Y636208D01*
X461777Y639147D02*
X454203Y639147D01*
X454203Y642086D02*
X461777Y642086D01*
X461777Y645025D02*
X454203Y645025D01*
D18*
X389883Y672853D02*
X389883Y679527D01*
X396557Y679527D01*
X396557Y672853D01*
X389883Y672853D01*
X389883Y675442D02*
X396557Y675442D01*
X396557Y678031D02*
X389883Y678031D01*
X389883Y664287D02*
X389883Y657613D01*
X389883Y664287D02*
X396557Y664287D01*
X396557Y657613D01*
X389883Y657613D01*
X389883Y660202D02*
X396557Y660202D01*
X396557Y662791D02*
X389883Y662791D01*
D42*
X404027Y643113D02*
X404027Y636507D01*
X404027Y643113D02*
X428133Y643113D01*
X428133Y636507D01*
X404027Y636507D01*
X404027Y639740D02*
X428133Y639740D01*
X428133Y642973D02*
X404027Y642973D01*
X428133Y661007D02*
X428133Y667613D01*
X428133Y661007D02*
X404027Y661007D01*
X404027Y667613D01*
X428133Y667613D01*
X428133Y664240D02*
X404027Y664240D01*
X404027Y667473D02*
X428133Y667473D01*
D43*
X839853Y645853D02*
X839853Y635407D01*
X829407Y635407D01*
X829407Y645853D01*
X839853Y645853D01*
X839853Y639266D02*
X829407Y639266D01*
X829407Y643125D02*
X839853Y643125D01*
X802853Y645853D02*
X802853Y635407D01*
X792407Y635407D01*
X792407Y645853D01*
X802853Y645853D01*
X802853Y639266D02*
X792407Y639266D01*
X792407Y643125D02*
X802853Y643125D01*
X839853Y651917D02*
X839853Y662363D01*
X839853Y651917D02*
X829407Y651917D01*
X829407Y662363D01*
X839853Y662363D01*
X839853Y655776D02*
X829407Y655776D01*
X829407Y659635D02*
X839853Y659635D01*
X802853Y662363D02*
X802853Y651917D01*
X792407Y651917D01*
X792407Y662363D01*
X802853Y662363D01*
X802853Y655776D02*
X792407Y655776D01*
X792407Y659635D02*
X802853Y659635D01*
D24*
X830956Y669134D02*
X830956Y675626D01*
X830956Y669134D02*
X826464Y669134D01*
X826464Y675626D01*
X830956Y675626D01*
X830956Y671050D02*
X826464Y671050D01*
X826464Y672966D02*
X830956Y672966D01*
X830956Y674882D02*
X826464Y674882D01*
X815956Y675626D02*
X815956Y669134D01*
X811464Y669134D01*
X811464Y675626D01*
X815956Y675626D01*
X815956Y671050D02*
X811464Y671050D01*
X811464Y672966D02*
X815956Y672966D01*
X815956Y674882D02*
X811464Y674882D01*
X811464Y717394D02*
X811464Y723886D01*
X815956Y723886D01*
X815956Y717394D01*
X811464Y717394D01*
X811464Y719310D02*
X815956Y719310D01*
X815956Y721226D02*
X811464Y721226D01*
X811464Y723142D02*
X815956Y723142D01*
X826464Y723886D02*
X826464Y717394D01*
X826464Y723886D02*
X830956Y723886D01*
X830956Y717394D01*
X826464Y717394D01*
X826464Y719310D02*
X830956Y719310D01*
X830956Y721226D02*
X826464Y721226D01*
X826464Y723142D02*
X830956Y723142D01*
D23*
X471479Y667081D02*
X471479Y660039D01*
X471479Y667081D02*
X477521Y667081D01*
X477521Y660039D01*
X471479Y660039D01*
X471479Y662383D02*
X477521Y662383D01*
X477521Y664727D02*
X471479Y664727D01*
X471479Y667071D02*
X477521Y667071D01*
X471479Y644081D02*
X471479Y637039D01*
X471479Y644081D02*
X477521Y644081D01*
X477521Y637039D01*
X471479Y637039D01*
X471479Y639383D02*
X477521Y639383D01*
X477521Y641727D02*
X471479Y641727D01*
X471479Y644071D02*
X477521Y644071D01*
D18*
X372807Y642697D02*
X372807Y636023D01*
X366133Y636023D01*
X366133Y642697D01*
X372807Y642697D01*
X372807Y638612D02*
X366133Y638612D01*
X366133Y641201D02*
X372807Y641201D01*
X356807Y642697D02*
X356807Y636023D01*
X350133Y636023D01*
X350133Y642697D01*
X356807Y642697D01*
X356807Y638612D02*
X350133Y638612D01*
X350133Y641201D02*
X356807Y641201D01*
D40*
X812390Y684809D02*
X812390Y686671D01*
X812390Y684809D02*
X804028Y684809D01*
X804028Y686671D01*
X812390Y686671D01*
X812390Y694309D02*
X812390Y696171D01*
X812390Y694309D02*
X804028Y694309D01*
X804028Y696171D01*
X812390Y696171D01*
X812390Y703809D02*
X812390Y705671D01*
X812390Y703809D02*
X804028Y703809D01*
X804028Y705671D01*
X812390Y705671D01*
X838392Y705671D02*
X838392Y703809D01*
X830030Y703809D01*
X830030Y705671D01*
X838392Y705671D01*
X838392Y686671D02*
X838392Y684809D01*
X830030Y684809D01*
X830030Y686671D01*
X838392Y686671D01*
X830030Y694309D02*
X830030Y696171D01*
X838392Y696171D01*
X838392Y694309D01*
X830030Y694309D01*
D38*
X322500Y668580D02*
X322500Y663420D01*
X321540Y663420D01*
X321540Y668580D01*
X322500Y668580D01*
X322500Y665652D02*
X321540Y665652D01*
X321540Y667884D02*
X322500Y667884D01*
X327500Y668580D02*
X327500Y663420D01*
X326540Y663420D01*
X326540Y668580D01*
X327500Y668580D01*
X327500Y665652D02*
X326540Y665652D01*
X326540Y667884D02*
X327500Y667884D01*
X317500Y668580D02*
X317500Y663420D01*
X316540Y663420D01*
X316540Y668580D01*
X317500Y668580D01*
X317500Y665652D02*
X316540Y665652D01*
X316540Y667884D02*
X317500Y667884D01*
X312500Y668580D02*
X312500Y663420D01*
X311540Y663420D01*
X311540Y668580D01*
X312500Y668580D01*
X312500Y665652D02*
X311540Y665652D01*
X311540Y667884D02*
X312500Y667884D01*
X307500Y668580D02*
X307500Y663420D01*
X306540Y663420D01*
X306540Y668580D01*
X307500Y668580D01*
X307500Y665652D02*
X306540Y665652D01*
X306540Y667884D02*
X307500Y667884D01*
X311540Y691420D02*
X311540Y696580D01*
X312500Y696580D01*
X312500Y691420D01*
X311540Y691420D01*
X311540Y693652D02*
X312500Y693652D01*
X312500Y695884D02*
X311540Y695884D01*
X307500Y696580D02*
X307500Y691420D01*
X306540Y691420D01*
X306540Y696580D01*
X307500Y696580D01*
X307500Y693652D02*
X306540Y693652D01*
X306540Y695884D02*
X307500Y695884D01*
X316540Y696580D02*
X316540Y691420D01*
X316540Y696580D02*
X317500Y696580D01*
X317500Y691420D01*
X316540Y691420D01*
X316540Y693652D02*
X317500Y693652D01*
X317500Y695884D02*
X316540Y695884D01*
X321540Y696580D02*
X321540Y691420D01*
X321540Y696580D02*
X322500Y696580D01*
X322500Y691420D01*
X321540Y691420D01*
X321540Y693652D02*
X322500Y693652D01*
X322500Y695884D02*
X321540Y695884D01*
X327500Y696580D02*
X327500Y691420D01*
X326540Y691420D01*
X326540Y696580D01*
X327500Y696580D01*
X327500Y693652D02*
X326540Y693652D01*
X326540Y695884D02*
X327500Y695884D01*
X305600Y674520D02*
X300440Y674520D01*
X300440Y675480D01*
X305600Y675480D01*
X305600Y674520D01*
X305600Y679520D02*
X300440Y679520D01*
X300440Y680480D01*
X305600Y680480D01*
X305600Y679520D01*
X305600Y684520D02*
X300440Y684520D01*
X300440Y685480D01*
X305600Y685480D01*
X305600Y684520D01*
X328440Y685480D02*
X333600Y685480D01*
X333600Y684520D01*
X328440Y684520D01*
X328440Y685480D01*
X328440Y680480D02*
X333600Y680480D01*
X333600Y679520D01*
X328440Y679520D01*
X328440Y680480D01*
X328440Y675480D02*
X333600Y675480D01*
X333600Y674520D01*
X328440Y674520D01*
X328440Y675480D01*
D18*
X349243Y688093D02*
X349243Y694767D01*
X355917Y694767D01*
X355917Y688093D01*
X349243Y688093D01*
X349243Y690682D02*
X355917Y690682D01*
X355917Y693271D02*
X349243Y693271D01*
X349243Y679527D02*
X349243Y672853D01*
X349243Y679527D02*
X355917Y679527D01*
X355917Y672853D01*
X349243Y672853D01*
X349243Y675442D02*
X355917Y675442D01*
X355917Y678031D02*
X349243Y678031D01*
D23*
X689235Y705881D02*
X696277Y705881D01*
X696277Y699839D01*
X689235Y699839D01*
X689235Y705881D01*
X689235Y702183D02*
X696277Y702183D01*
X696277Y704527D02*
X689235Y704527D01*
X673277Y705881D02*
X666235Y705881D01*
X673277Y705881D02*
X673277Y699839D01*
X666235Y699839D01*
X666235Y705881D01*
X666235Y702183D02*
X673277Y702183D01*
X673277Y704527D02*
X666235Y704527D01*
D44*
X742796Y706344D02*
X754844Y706344D01*
X754844Y694296D01*
X742796Y694296D01*
X742796Y706344D01*
X742796Y698529D02*
X754844Y698529D01*
X754844Y702762D02*
X742796Y702762D01*
X714458Y706344D02*
X702410Y706344D01*
X714458Y706344D02*
X714458Y694296D01*
X702410Y694296D01*
X702410Y706344D01*
X702410Y698529D02*
X714458Y698529D01*
X714458Y702762D02*
X702410Y702762D01*
X742796Y665704D02*
X754844Y665704D01*
X754844Y653656D01*
X742796Y653656D01*
X742796Y665704D01*
X742796Y657889D02*
X754844Y657889D01*
X754844Y662122D02*
X742796Y662122D01*
X714458Y665704D02*
X702410Y665704D01*
X714458Y665704D02*
X714458Y653656D01*
X702410Y653656D01*
X702410Y665704D01*
X702410Y657889D02*
X714458Y657889D01*
X714458Y662122D02*
X702410Y662122D01*
X660102Y706344D02*
X648054Y706344D01*
X660102Y706344D02*
X660102Y694296D01*
X648054Y694296D01*
X648054Y706344D01*
X648054Y698529D02*
X660102Y698529D01*
X660102Y702762D02*
X648054Y702762D01*
X648054Y665704D02*
X660102Y665704D01*
X660102Y653656D01*
X648054Y653656D01*
X648054Y665704D01*
X648054Y657889D02*
X660102Y657889D01*
X660102Y662122D02*
X648054Y662122D01*
X619462Y706344D02*
X607414Y706344D01*
X619462Y706344D02*
X619462Y694296D01*
X607414Y694296D01*
X607414Y706344D01*
X607414Y698529D02*
X619462Y698529D01*
X619462Y702762D02*
X607414Y702762D01*
X607414Y665704D02*
X619462Y665704D01*
X619462Y653656D01*
X607414Y653656D01*
X607414Y665704D01*
X607414Y657889D02*
X619462Y657889D01*
X619462Y662122D02*
X607414Y662122D01*
X66504Y665704D02*
X54456Y665704D01*
X66504Y665704D02*
X66504Y653656D01*
X54456Y653656D01*
X54456Y665704D01*
X54456Y657889D02*
X66504Y657889D01*
X66504Y662122D02*
X54456Y662122D01*
X95096Y706344D02*
X107144Y706344D01*
X107144Y694296D01*
X95096Y694296D01*
X95096Y706344D01*
X95096Y698529D02*
X107144Y698529D01*
X107144Y702762D02*
X95096Y702762D01*
X95096Y665704D02*
X107144Y665704D01*
X107144Y653656D01*
X95096Y653656D01*
X95096Y665704D01*
X95096Y657889D02*
X107144Y657889D01*
X107144Y662122D02*
X95096Y662122D01*
X66504Y706344D02*
X54456Y706344D01*
X66504Y706344D02*
X66504Y694296D01*
X54456Y694296D01*
X54456Y706344D01*
X54456Y698529D02*
X66504Y698529D01*
X66504Y702762D02*
X54456Y702762D01*
D18*
X531743Y646507D02*
X531743Y639833D01*
X531743Y646507D02*
X538417Y646507D01*
X538417Y639833D01*
X531743Y639833D01*
X531743Y642422D02*
X538417Y642422D01*
X538417Y645011D02*
X531743Y645011D01*
X547743Y646507D02*
X547743Y639833D01*
X547743Y646507D02*
X554417Y646507D01*
X554417Y639833D01*
X547743Y639833D01*
X547743Y642422D02*
X554417Y642422D01*
X554417Y645011D02*
X547743Y645011D01*
X293687Y656979D02*
X287013Y656979D01*
X287013Y663653D01*
X293687Y663653D01*
X293687Y656979D01*
X293687Y659568D02*
X287013Y659568D01*
X287013Y662157D02*
X293687Y662157D01*
X293687Y672979D02*
X287013Y672979D01*
X287013Y679653D01*
X293687Y679653D01*
X293687Y672979D01*
X293687Y675568D02*
X287013Y675568D01*
X287013Y678157D02*
X293687Y678157D01*
X563873Y658317D02*
X570547Y658317D01*
X570547Y651643D01*
X563873Y651643D01*
X563873Y658317D01*
X563873Y654232D02*
X570547Y654232D01*
X570547Y656821D02*
X563873Y656821D01*
X563873Y642317D02*
X570547Y642317D01*
X570547Y635643D01*
X563873Y635643D01*
X563873Y642317D01*
X563873Y638232D02*
X570547Y638232D01*
X570547Y640821D02*
X563873Y640821D01*
X330263Y644983D02*
X323589Y644983D01*
X330263Y644983D02*
X330263Y638309D01*
X323589Y638309D01*
X323589Y644983D01*
X323589Y640898D02*
X330263Y640898D01*
X330263Y643487D02*
X323589Y643487D01*
X315023Y644983D02*
X308349Y644983D01*
X315023Y644983D02*
X315023Y638309D01*
X308349Y638309D01*
X308349Y644983D01*
X308349Y640898D02*
X315023Y640898D01*
X315023Y643487D02*
X308349Y643487D01*
D31*
X754150Y680000D03*
X703350Y680000D03*
X659150Y680000D03*
X608350Y680000D03*
X106200Y680000D03*
X55400Y680000D03*
D18*
X264153Y719843D02*
X270827Y719843D01*
X264153Y719843D02*
X264153Y726517D01*
X270827Y726517D01*
X270827Y719843D01*
X270827Y722432D02*
X264153Y722432D01*
X264153Y725021D02*
X270827Y725021D01*
X279393Y719843D02*
X286067Y719843D01*
X279393Y719843D02*
X279393Y726517D01*
X286067Y726517D01*
X286067Y719843D01*
X286067Y722432D02*
X279393Y722432D01*
X279393Y725021D02*
X286067Y725021D01*
X373697Y656667D02*
X373697Y649993D01*
X367023Y649993D01*
X367023Y656667D01*
X373697Y656667D01*
X373697Y652582D02*
X367023Y652582D01*
X367023Y655171D02*
X373697Y655171D01*
X373697Y665233D02*
X373697Y671907D01*
X373697Y665233D02*
X367023Y665233D01*
X367023Y671907D01*
X373697Y671907D01*
X373697Y667822D02*
X367023Y667822D01*
X367023Y670411D02*
X373697Y670411D01*
X685539Y660477D02*
X692213Y660477D01*
X692213Y653803D01*
X685539Y653803D01*
X685539Y660477D01*
X685539Y656392D02*
X692213Y656392D01*
X692213Y658981D02*
X685539Y658981D01*
X676973Y660477D02*
X670299Y660477D01*
X676973Y660477D02*
X676973Y653803D01*
X670299Y653803D01*
X670299Y660477D01*
X670299Y656392D02*
X676973Y656392D01*
X676973Y658981D02*
X670299Y658981D01*
D33*
X108740Y720640D03*
M02*
