G04 EAGLE Gerber RS-274X export*
G75*
%MOMM*%
%FSLAX34Y34*%
%LPD*%
%INSolderpaste Bottom*%
%IPPOS*%
%AMOC8*
5,1,8,0,0,1.08239X$1,22.5*%
G01*
%ADD10C,0.222250*%
%ADD11C,0.165000*%
%ADD12C,0.200000*%
%ADD13R,0.508000X0.508000*%
%ADD14R,0.394284X0.220853*%
%ADD15R,0.394281X0.220850*%
%ADD16C,0.254000*%
%ADD17C,0.150000*%
%ADD18C,0.317500*%
%ADD19C,0.190500*%
%ADD20R,0.220853X0.394284*%
%ADD21R,0.220850X0.394281*%
%ADD22C,0.225000*%
%ADD23C,0.550000*%
%ADD24R,1.050000X1.050000*%
%ADD25R,0.500000X0.500000*%
%ADD26C,0.184800*%
%ADD27C,0.369600*%
%ADD28C,0.363000*%
%ADD29C,0.285000*%
%ADD30C,0.350000*%

G36*
X887216Y631755D02*
X887216Y631755D01*
X887220Y631752D01*
X888266Y631971D01*
X888271Y631977D01*
X888276Y631974D01*
X889247Y632421D01*
X889251Y632428D01*
X889256Y632427D01*
X890103Y633078D01*
X890106Y633086D01*
X890111Y633086D01*
X890792Y633909D01*
X890793Y633917D01*
X890798Y633918D01*
X891279Y634872D01*
X891277Y634880D01*
X891283Y634883D01*
X891539Y635920D01*
X891538Y635923D01*
X891539Y635924D01*
X891536Y635927D01*
X891540Y635931D01*
X891559Y636999D01*
X891559Y637000D01*
X891563Y637969D01*
X891558Y637976D01*
X891562Y637980D01*
X891349Y638926D01*
X891343Y638931D01*
X891346Y638936D01*
X890928Y639811D01*
X890921Y639815D01*
X890922Y639821D01*
X890321Y640581D01*
X890313Y640583D01*
X890313Y640589D01*
X889557Y641196D01*
X889549Y641196D01*
X889548Y641202D01*
X888676Y641625D01*
X888668Y641624D01*
X888665Y641629D01*
X887721Y641848D01*
X887719Y641847D01*
X887712Y641847D01*
X887710Y641849D01*
X875710Y641849D01*
X875708Y641848D01*
X875706Y641849D01*
X874589Y641768D01*
X874583Y641763D01*
X874578Y641766D01*
X873506Y641439D01*
X873502Y641432D01*
X873496Y641434D01*
X872524Y640877D01*
X872521Y640869D01*
X872516Y640870D01*
X871692Y640110D01*
X871691Y640102D01*
X871685Y640102D01*
X871051Y639177D01*
X871052Y639169D01*
X871046Y639168D01*
X870634Y638126D01*
X870636Y638120D01*
X870632Y638117D01*
X870633Y638116D01*
X870631Y638115D01*
X870461Y637007D01*
X870465Y637001D01*
X870461Y636997D01*
X870529Y635889D01*
X870535Y635883D01*
X870531Y635878D01*
X870844Y634814D01*
X870851Y634809D01*
X870849Y634803D01*
X871391Y633835D01*
X871399Y633832D01*
X871398Y633826D01*
X872142Y633003D01*
X872150Y633001D01*
X872150Y632996D01*
X873059Y632358D01*
X873067Y632359D01*
X873068Y632353D01*
X874096Y631934D01*
X874104Y631936D01*
X874107Y631931D01*
X875202Y631751D01*
X875207Y631754D01*
X875210Y631751D01*
X887210Y631751D01*
X887216Y631755D01*
G37*
G36*
X887216Y718156D02*
X887216Y718156D01*
X887221Y718152D01*
X888276Y718384D01*
X888281Y718390D01*
X888287Y718387D01*
X889264Y718848D01*
X889268Y718855D01*
X889274Y718854D01*
X890124Y719520D01*
X890126Y719528D01*
X890132Y719528D01*
X890813Y720367D01*
X890813Y720375D01*
X890819Y720376D01*
X891296Y721346D01*
X891294Y721354D01*
X891300Y721356D01*
X891549Y722408D01*
X891546Y722416D01*
X891550Y722419D01*
X891559Y723500D01*
X891558Y723502D01*
X891559Y723503D01*
X891491Y724510D01*
X891485Y724516D01*
X891489Y724521D01*
X891198Y725486D01*
X891192Y725491D01*
X891194Y725497D01*
X890696Y726374D01*
X890688Y726377D01*
X890689Y726383D01*
X890008Y727127D01*
X890000Y727128D01*
X890000Y727134D01*
X889171Y727708D01*
X889163Y727708D01*
X889161Y727713D01*
X888225Y728088D01*
X888217Y728086D01*
X888214Y728091D01*
X887218Y728249D01*
X887215Y728247D01*
X887212Y728247D01*
X887210Y728249D01*
X875210Y728249D01*
X875207Y728247D01*
X875206Y728247D01*
X875205Y728249D01*
X874159Y728131D01*
X874153Y728125D01*
X874148Y728129D01*
X873154Y727781D01*
X873150Y727774D01*
X873145Y727776D01*
X872253Y727216D01*
X872251Y727209D01*
X872245Y727209D01*
X871501Y726465D01*
X871499Y726457D01*
X871494Y726457D01*
X870934Y725565D01*
X870934Y725557D01*
X870929Y725556D01*
X870581Y724562D01*
X870584Y724554D01*
X870579Y724551D01*
X870461Y723506D01*
X870464Y723500D01*
X870461Y723497D01*
X870519Y722377D01*
X870525Y722371D01*
X870521Y722366D01*
X870828Y721287D01*
X870834Y721282D01*
X870832Y721277D01*
X871371Y720293D01*
X871378Y720290D01*
X871377Y720284D01*
X872121Y719445D01*
X872129Y719444D01*
X872129Y719438D01*
X873042Y718785D01*
X873050Y718785D01*
X873051Y718780D01*
X874086Y718347D01*
X874093Y718348D01*
X874094Y718348D01*
X874096Y718344D01*
X875202Y718151D01*
X875207Y718154D01*
X875210Y718151D01*
X887210Y718151D01*
X887216Y718156D01*
G37*
G36*
X926012Y631753D02*
X926012Y631753D01*
X926014Y631751D01*
X927097Y631839D01*
X927103Y631845D01*
X927108Y631841D01*
X928144Y632168D01*
X928149Y632175D01*
X928154Y632173D01*
X929092Y632722D01*
X929095Y632730D01*
X929100Y632729D01*
X929892Y633473D01*
X929893Y633481D01*
X929899Y633481D01*
X930506Y634383D01*
X930505Y634391D01*
X930511Y634393D01*
X930901Y635407D01*
X930899Y635415D01*
X930904Y635418D01*
X931059Y636493D01*
X931056Y636499D01*
X931059Y636502D01*
X931025Y637602D01*
X931020Y637608D01*
X931024Y637613D01*
X930746Y638678D01*
X930740Y638683D01*
X930742Y638688D01*
X930234Y639665D01*
X930227Y639669D01*
X930228Y639674D01*
X929515Y640513D01*
X929507Y640515D01*
X929507Y640521D01*
X928626Y641181D01*
X928618Y641181D01*
X928616Y641186D01*
X927610Y641633D01*
X927602Y641631D01*
X927600Y641636D01*
X926519Y641848D01*
X926517Y641847D01*
X926512Y641847D01*
X926510Y641849D01*
X920510Y641849D01*
X920509Y641848D01*
X920508Y641849D01*
X919353Y641798D01*
X919347Y641793D01*
X919342Y641796D01*
X918228Y641489D01*
X918223Y641483D01*
X918218Y641485D01*
X917199Y640938D01*
X917196Y640931D01*
X917190Y640932D01*
X916319Y640172D01*
X916318Y640164D01*
X916312Y640164D01*
X915632Y639229D01*
X915632Y639221D01*
X915627Y639219D01*
X915172Y638157D01*
X915174Y638149D01*
X915169Y638146D01*
X914962Y637009D01*
X914966Y637000D01*
X914961Y636995D01*
X915067Y635858D01*
X915072Y635852D01*
X915069Y635847D01*
X915425Y634762D01*
X915432Y634757D01*
X915429Y634752D01*
X916018Y633773D01*
X916026Y633770D01*
X916025Y633764D01*
X916817Y632941D01*
X916825Y632940D01*
X916825Y632934D01*
X917780Y632307D01*
X917788Y632308D01*
X917790Y632302D01*
X918860Y631904D01*
X918868Y631906D01*
X918871Y631901D01*
X920004Y631751D01*
X920008Y631754D01*
X920010Y631751D01*
X926010Y631751D01*
X926012Y631753D01*
G37*
G36*
X926013Y718153D02*
X926013Y718153D01*
X926015Y718151D01*
X927107Y718252D01*
X927113Y718257D01*
X927118Y718254D01*
X928161Y718595D01*
X928166Y718602D01*
X928171Y718600D01*
X929112Y719164D01*
X929115Y719172D01*
X929121Y719171D01*
X929913Y719931D01*
X929914Y719939D01*
X929920Y719940D01*
X930523Y720857D01*
X930522Y720865D01*
X930528Y720867D01*
X930911Y721895D01*
X930909Y721903D01*
X930914Y721906D01*
X931059Y722994D01*
X931055Y723001D01*
X931059Y723005D01*
X930953Y724142D01*
X930948Y724148D01*
X930951Y724153D01*
X930595Y725238D01*
X930588Y725243D01*
X930591Y725248D01*
X930002Y726227D01*
X929994Y726230D01*
X929995Y726236D01*
X929203Y727059D01*
X929195Y727060D01*
X929195Y727066D01*
X928240Y727693D01*
X928232Y727692D01*
X928230Y727698D01*
X927160Y728096D01*
X927152Y728094D01*
X927149Y728099D01*
X926016Y728249D01*
X926013Y728247D01*
X926012Y728247D01*
X926010Y728249D01*
X920010Y728249D01*
X920007Y728247D01*
X920005Y728247D01*
X920004Y728249D01*
X918871Y728099D01*
X918865Y728093D01*
X918860Y728096D01*
X917790Y727698D01*
X917786Y727691D01*
X917780Y727693D01*
X916825Y727066D01*
X916822Y727058D01*
X916817Y727059D01*
X916025Y726236D01*
X916024Y726228D01*
X916018Y726227D01*
X915429Y725248D01*
X915430Y725240D01*
X915425Y725238D01*
X915069Y724153D01*
X915072Y724145D01*
X915067Y724142D01*
X914961Y723005D01*
X914965Y722998D01*
X914961Y722994D01*
X915106Y721906D01*
X915112Y721900D01*
X915109Y721895D01*
X915493Y720867D01*
X915499Y720862D01*
X915498Y720857D01*
X916100Y719940D01*
X916108Y719937D01*
X916107Y719931D01*
X916899Y719171D01*
X916907Y719170D01*
X916908Y719164D01*
X917849Y718600D01*
X917857Y718601D01*
X917859Y718595D01*
X918902Y718254D01*
X918910Y718256D01*
X918913Y718252D01*
X920006Y718151D01*
X920008Y718153D01*
X920010Y718151D01*
X926010Y718151D01*
X926013Y718153D01*
G37*
D10*
X839784Y142694D02*
X839784Y136026D01*
X833116Y136026D01*
X833116Y142694D01*
X839784Y142694D01*
X839784Y138138D02*
X833116Y138138D01*
X833116Y140250D02*
X839784Y140250D01*
X839784Y142362D02*
X833116Y142362D01*
X839784Y151266D02*
X839784Y157934D01*
X839784Y151266D02*
X833116Y151266D01*
X833116Y157934D01*
X839784Y157934D01*
X839784Y153378D02*
X833116Y153378D01*
X833116Y155490D02*
X839784Y155490D01*
X839784Y157602D02*
X833116Y157602D01*
X678494Y141424D02*
X671826Y141424D01*
X678494Y141424D02*
X678494Y134756D01*
X671826Y134756D01*
X671826Y141424D01*
X671826Y136868D02*
X678494Y136868D01*
X678494Y138980D02*
X671826Y138980D01*
X671826Y141092D02*
X678494Y141092D01*
X663254Y141424D02*
X656586Y141424D01*
X663254Y141424D02*
X663254Y134756D01*
X656586Y134756D01*
X656586Y141424D01*
X656586Y136868D02*
X663254Y136868D01*
X663254Y138980D02*
X656586Y138980D01*
X656586Y141092D02*
X663254Y141092D01*
X684526Y134756D02*
X691194Y134756D01*
X684526Y134756D02*
X684526Y141424D01*
X691194Y141424D01*
X691194Y134756D01*
X691194Y136868D02*
X684526Y136868D01*
X684526Y138980D02*
X691194Y138980D01*
X691194Y141092D02*
X684526Y141092D01*
X699766Y134756D02*
X706434Y134756D01*
X699766Y134756D02*
X699766Y141424D01*
X706434Y141424D01*
X706434Y134756D01*
X706434Y136868D02*
X699766Y136868D01*
X699766Y138980D02*
X706434Y138980D01*
X706434Y141092D02*
X699766Y141092D01*
X725166Y221180D02*
X731834Y221180D01*
X731834Y214512D01*
X725166Y214512D01*
X725166Y221180D01*
X725166Y216624D02*
X731834Y216624D01*
X731834Y218736D02*
X725166Y218736D01*
X725166Y220848D02*
X731834Y220848D01*
X716594Y221180D02*
X709926Y221180D01*
X716594Y221180D02*
X716594Y214512D01*
X709926Y214512D01*
X709926Y221180D01*
X709926Y216624D02*
X716594Y216624D01*
X716594Y218736D02*
X709926Y218736D01*
X709926Y220848D02*
X716594Y220848D01*
X833116Y224354D02*
X839784Y224354D01*
X839784Y217686D01*
X833116Y217686D01*
X833116Y224354D01*
X833116Y219798D02*
X839784Y219798D01*
X839784Y221910D02*
X833116Y221910D01*
X833116Y224022D02*
X839784Y224022D01*
X839784Y208354D02*
X833116Y208354D01*
X839784Y208354D02*
X839784Y201686D01*
X833116Y201686D01*
X833116Y208354D01*
X833116Y203798D02*
X839784Y203798D01*
X839784Y205910D02*
X833116Y205910D01*
X833116Y208022D02*
X839784Y208022D01*
X481644Y226260D02*
X474976Y226260D01*
X481644Y226260D02*
X481644Y219592D01*
X474976Y219592D01*
X474976Y226260D01*
X474976Y221704D02*
X481644Y221704D01*
X481644Y223816D02*
X474976Y223816D01*
X474976Y225928D02*
X481644Y225928D01*
X466404Y226260D02*
X459736Y226260D01*
X466404Y226260D02*
X466404Y219592D01*
X459736Y219592D01*
X459736Y226260D01*
X459736Y221704D02*
X466404Y221704D01*
X466404Y223816D02*
X459736Y223816D01*
X459736Y225928D02*
X466404Y225928D01*
X453704Y226260D02*
X447036Y226260D01*
X453704Y226260D02*
X453704Y219592D01*
X447036Y219592D01*
X447036Y226260D01*
X447036Y221704D02*
X453704Y221704D01*
X453704Y223816D02*
X447036Y223816D01*
X447036Y225928D02*
X453704Y225928D01*
X438464Y226260D02*
X431796Y226260D01*
X438464Y226260D02*
X438464Y219592D01*
X431796Y219592D01*
X431796Y226260D01*
X431796Y221704D02*
X438464Y221704D01*
X438464Y223816D02*
X431796Y223816D01*
X431796Y225928D02*
X438464Y225928D01*
X459736Y198256D02*
X466404Y198256D01*
X459736Y198256D02*
X459736Y204924D01*
X466404Y204924D01*
X466404Y198256D01*
X466404Y200368D02*
X459736Y200368D01*
X459736Y202480D02*
X466404Y202480D01*
X466404Y204592D02*
X459736Y204592D01*
X474976Y198256D02*
X481644Y198256D01*
X474976Y198256D02*
X474976Y204924D01*
X481644Y204924D01*
X481644Y198256D01*
X481644Y200368D02*
X474976Y200368D01*
X474976Y202480D02*
X481644Y202480D01*
X481644Y204592D02*
X474976Y204592D01*
X466404Y185556D02*
X459736Y185556D01*
X459736Y192224D01*
X466404Y192224D01*
X466404Y185556D01*
X466404Y187668D02*
X459736Y187668D01*
X459736Y189780D02*
X466404Y189780D01*
X466404Y191892D02*
X459736Y191892D01*
X474976Y185556D02*
X481644Y185556D01*
X474976Y185556D02*
X474976Y192224D01*
X481644Y192224D01*
X481644Y185556D01*
X481644Y187668D02*
X474976Y187668D01*
X474976Y189780D02*
X481644Y189780D01*
X481644Y191892D02*
X474976Y191892D01*
X466404Y167776D02*
X459736Y167776D01*
X459736Y174444D01*
X466404Y174444D01*
X466404Y167776D01*
X466404Y169888D02*
X459736Y169888D01*
X459736Y172000D02*
X466404Y172000D01*
X466404Y174112D02*
X459736Y174112D01*
X474976Y167776D02*
X481644Y167776D01*
X474976Y167776D02*
X474976Y174444D01*
X481644Y174444D01*
X481644Y167776D01*
X481644Y169888D02*
X474976Y169888D01*
X474976Y172000D02*
X481644Y172000D01*
X481644Y174112D02*
X474976Y174112D01*
X589276Y166824D02*
X589276Y160156D01*
X589276Y166824D02*
X595944Y166824D01*
X595944Y160156D01*
X589276Y160156D01*
X589276Y162268D02*
X595944Y162268D01*
X595944Y164380D02*
X589276Y164380D01*
X589276Y166492D02*
X595944Y166492D01*
X589276Y151584D02*
X589276Y144916D01*
X589276Y151584D02*
X595944Y151584D01*
X595944Y144916D01*
X589276Y144916D01*
X589276Y147028D02*
X595944Y147028D01*
X595944Y149140D02*
X589276Y149140D01*
X589276Y151252D02*
X595944Y151252D01*
X601976Y160156D02*
X601976Y166824D01*
X608644Y166824D01*
X608644Y160156D01*
X601976Y160156D01*
X601976Y162268D02*
X608644Y162268D01*
X608644Y164380D02*
X601976Y164380D01*
X601976Y166492D02*
X608644Y166492D01*
X601976Y151584D02*
X601976Y144916D01*
X601976Y151584D02*
X608644Y151584D01*
X608644Y144916D01*
X601976Y144916D01*
X601976Y147028D02*
X608644Y147028D01*
X608644Y149140D02*
X601976Y149140D01*
X601976Y151252D02*
X608644Y151252D01*
D11*
X286986Y225135D02*
X286986Y225985D01*
X295336Y225985D01*
X295336Y225135D01*
X286986Y225135D01*
X286986Y220985D02*
X286986Y220135D01*
X286986Y220985D02*
X295336Y220985D01*
X295336Y220135D01*
X286986Y220135D01*
X286986Y215985D02*
X286986Y215135D01*
X286986Y215985D02*
X295336Y215985D01*
X295336Y215135D01*
X286986Y215135D01*
X286986Y210985D02*
X286986Y210135D01*
X286986Y210985D02*
X295336Y210985D01*
X295336Y210135D01*
X286986Y210135D01*
X286986Y205985D02*
X286986Y205135D01*
X286986Y205985D02*
X295336Y205985D01*
X295336Y205135D01*
X286986Y205135D01*
X253074Y205135D02*
X253074Y205985D01*
X253074Y205135D02*
X244724Y205135D01*
X244724Y205985D01*
X253074Y205985D01*
X253074Y210135D02*
X253074Y210985D01*
X253074Y210135D02*
X244724Y210135D01*
X244724Y210985D01*
X253074Y210985D01*
X253074Y215135D02*
X253074Y215985D01*
X253074Y215135D02*
X244724Y215135D01*
X244724Y215985D01*
X253074Y215985D01*
X253074Y220135D02*
X253074Y220985D01*
X253074Y220135D02*
X244724Y220135D01*
X244724Y220985D01*
X253074Y220985D01*
X253074Y225135D02*
X253074Y225985D01*
X253074Y225135D02*
X244724Y225135D01*
X244724Y225985D01*
X253074Y225985D01*
D10*
X271014Y151266D02*
X277682Y151266D01*
X271014Y151266D02*
X271014Y157934D01*
X277682Y157934D01*
X277682Y151266D01*
X277682Y153378D02*
X271014Y153378D01*
X271014Y155490D02*
X277682Y155490D01*
X277682Y157602D02*
X271014Y157602D01*
X286254Y151266D02*
X292922Y151266D01*
X286254Y151266D02*
X286254Y157934D01*
X292922Y157934D01*
X292922Y151266D01*
X292922Y153378D02*
X286254Y153378D01*
X286254Y155490D02*
X292922Y155490D01*
X292922Y157602D02*
X286254Y157602D01*
X195894Y221434D02*
X189226Y221434D01*
X195894Y221434D02*
X195894Y214766D01*
X189226Y214766D01*
X189226Y221434D01*
X189226Y216878D02*
X195894Y216878D01*
X195894Y218990D02*
X189226Y218990D01*
X189226Y221102D02*
X195894Y221102D01*
X180654Y221434D02*
X173986Y221434D01*
X180654Y221434D02*
X180654Y214766D01*
X173986Y214766D01*
X173986Y221434D01*
X173986Y216878D02*
X180654Y216878D01*
X180654Y218990D02*
X173986Y218990D01*
X173986Y221102D02*
X180654Y221102D01*
X201926Y223974D02*
X201926Y217306D01*
X201926Y223974D02*
X208594Y223974D01*
X208594Y217306D01*
X201926Y217306D01*
X201926Y219418D02*
X208594Y219418D01*
X208594Y221530D02*
X201926Y221530D01*
X201926Y223642D02*
X208594Y223642D01*
X201926Y208734D02*
X201926Y202066D01*
X201926Y208734D02*
X208594Y208734D01*
X208594Y202066D01*
X201926Y202066D01*
X201926Y204178D02*
X208594Y204178D01*
X208594Y206290D02*
X201926Y206290D01*
X201926Y208402D02*
X208594Y208402D01*
X195894Y208734D02*
X189226Y208734D01*
X195894Y208734D02*
X195894Y202066D01*
X189226Y202066D01*
X189226Y208734D01*
X189226Y204178D02*
X195894Y204178D01*
X195894Y206290D02*
X189226Y206290D01*
X189226Y208402D02*
X195894Y208402D01*
X180654Y208734D02*
X173986Y208734D01*
X180654Y208734D02*
X180654Y202066D01*
X173986Y202066D01*
X173986Y208734D01*
X173986Y204178D02*
X180654Y204178D01*
X180654Y206290D02*
X173986Y206290D01*
X173986Y208402D02*
X180654Y208402D01*
X232406Y206194D02*
X239074Y206194D01*
X239074Y199526D01*
X232406Y199526D01*
X232406Y206194D01*
X232406Y201638D02*
X239074Y201638D01*
X239074Y203750D02*
X232406Y203750D01*
X232406Y205862D02*
X239074Y205862D01*
X223834Y206194D02*
X217166Y206194D01*
X223834Y206194D02*
X223834Y199526D01*
X217166Y199526D01*
X217166Y206194D01*
X217166Y201638D02*
X223834Y201638D01*
X223834Y203750D02*
X217166Y203750D01*
X217166Y205862D02*
X223834Y205862D01*
D12*
X265286Y168000D02*
X265286Y162000D01*
X263286Y162000D01*
X263286Y168000D01*
X265286Y168000D01*
X265286Y163900D02*
X263286Y163900D01*
X263286Y165800D02*
X265286Y165800D01*
X265286Y167700D02*
X263286Y167700D01*
X258786Y168000D02*
X258786Y162000D01*
X256786Y162000D01*
X256786Y168000D01*
X258786Y168000D01*
X258786Y163900D02*
X256786Y163900D01*
X256786Y165800D02*
X258786Y165800D01*
X258786Y167700D02*
X256786Y167700D01*
X252286Y168000D02*
X252286Y162000D01*
X250286Y162000D01*
X250286Y168000D01*
X252286Y168000D01*
X252286Y163900D02*
X250286Y163900D01*
X250286Y165800D02*
X252286Y165800D01*
X252286Y167700D02*
X250286Y167700D01*
X245786Y168000D02*
X245786Y162000D01*
X243786Y162000D01*
X243786Y168000D01*
X245786Y168000D01*
X245786Y163900D02*
X243786Y163900D01*
X243786Y165800D02*
X245786Y165800D01*
X245786Y167700D02*
X243786Y167700D01*
X245786Y192000D02*
X245786Y198000D01*
X245786Y192000D02*
X243786Y192000D01*
X243786Y198000D01*
X245786Y198000D01*
X245786Y193900D02*
X243786Y193900D01*
X243786Y195800D02*
X245786Y195800D01*
X245786Y197700D02*
X243786Y197700D01*
X252286Y198000D02*
X252286Y192000D01*
X250286Y192000D01*
X250286Y198000D01*
X252286Y198000D01*
X252286Y193900D02*
X250286Y193900D01*
X250286Y195800D02*
X252286Y195800D01*
X252286Y197700D02*
X250286Y197700D01*
X258786Y198000D02*
X258786Y192000D01*
X256786Y192000D01*
X256786Y198000D01*
X258786Y198000D01*
X258786Y193900D02*
X256786Y193900D01*
X256786Y195800D02*
X258786Y195800D01*
X258786Y197700D02*
X256786Y197700D01*
X265286Y198000D02*
X265286Y192000D01*
X263286Y192000D01*
X263286Y198000D01*
X265286Y198000D01*
X265286Y193900D02*
X263286Y193900D01*
X263286Y195800D02*
X265286Y195800D01*
X265286Y197700D02*
X263286Y197700D01*
D13*
X263426Y177460D03*
X263426Y186350D03*
X254536Y177460D03*
X254536Y186350D03*
X245646Y177460D03*
X245646Y186350D03*
D14*
X269613Y180004D03*
D15*
X239658Y180009D03*
D16*
X255806Y181270D02*
X255806Y178730D01*
X253266Y178730D01*
X253266Y181270D01*
X255806Y181270D01*
X255806Y181143D02*
X253266Y181143D01*
D12*
X755274Y160800D02*
X755274Y154800D01*
X748274Y154800D01*
X748274Y160800D01*
X755274Y160800D01*
X755274Y156700D02*
X748274Y156700D01*
X748274Y158600D02*
X755274Y158600D01*
X755274Y160500D02*
X748274Y160500D01*
X755274Y173800D02*
X755274Y179800D01*
X755274Y173800D02*
X748274Y173800D01*
X748274Y179800D01*
X755274Y179800D01*
X755274Y175700D02*
X748274Y175700D01*
X748274Y177600D02*
X755274Y177600D01*
X755274Y179500D02*
X748274Y179500D01*
X776274Y170300D02*
X776274Y164300D01*
X769274Y164300D01*
X769274Y170300D01*
X776274Y170300D01*
X776274Y166200D02*
X769274Y166200D01*
X769274Y168100D02*
X776274Y168100D01*
X776274Y170000D02*
X769274Y170000D01*
D10*
X792476Y218576D02*
X799144Y218576D01*
X792476Y218576D02*
X792476Y225244D01*
X799144Y225244D01*
X799144Y218576D01*
X799144Y220688D02*
X792476Y220688D01*
X792476Y222800D02*
X799144Y222800D01*
X799144Y224912D02*
X792476Y224912D01*
X807716Y218576D02*
X814384Y218576D01*
X807716Y218576D02*
X807716Y225244D01*
X814384Y225244D01*
X814384Y218576D01*
X814384Y220688D02*
X807716Y220688D01*
X807716Y222800D02*
X814384Y222800D01*
X814384Y224912D02*
X807716Y224912D01*
X758504Y141106D02*
X751836Y141106D01*
X751836Y147774D01*
X758504Y147774D01*
X758504Y141106D01*
X758504Y143218D02*
X751836Y143218D01*
X751836Y145330D02*
X758504Y145330D01*
X758504Y147442D02*
X751836Y147442D01*
X767076Y141106D02*
X773744Y141106D01*
X767076Y141106D02*
X767076Y147774D01*
X773744Y147774D01*
X773744Y141106D01*
X773744Y143218D02*
X767076Y143218D01*
X767076Y145330D02*
X773744Y145330D01*
X773744Y147442D02*
X767076Y147442D01*
D17*
X454710Y142270D02*
X454710Y137770D01*
X444210Y137770D01*
X444210Y142270D01*
X454710Y142270D01*
X454710Y139195D02*
X444210Y139195D01*
X444210Y140620D02*
X454710Y140620D01*
X454710Y142045D02*
X444210Y142045D01*
X454710Y156770D02*
X454710Y161270D01*
X454710Y156770D02*
X444210Y156770D01*
X444210Y161270D01*
X454710Y161270D01*
X454710Y158195D02*
X444210Y158195D01*
X444210Y159620D02*
X454710Y159620D01*
X454710Y161045D02*
X444210Y161045D01*
X428590Y142270D02*
X428590Y137770D01*
X418090Y137770D01*
X418090Y142270D01*
X428590Y142270D01*
X428590Y139195D02*
X418090Y139195D01*
X418090Y140620D02*
X428590Y140620D01*
X428590Y142045D02*
X418090Y142045D01*
X428590Y147270D02*
X428590Y151770D01*
X428590Y147270D02*
X418090Y147270D01*
X418090Y151770D01*
X428590Y151770D01*
X428590Y148695D02*
X418090Y148695D01*
X418090Y150120D02*
X428590Y150120D01*
X428590Y151545D02*
X418090Y151545D01*
X428590Y156770D02*
X428590Y161270D01*
X428590Y156770D02*
X418090Y156770D01*
X418090Y161270D01*
X428590Y161270D01*
X428590Y158195D02*
X418090Y158195D01*
X418090Y159620D02*
X428590Y159620D01*
X428590Y161045D02*
X418090Y161045D01*
D10*
X340674Y202130D02*
X334006Y202130D01*
X340674Y202130D02*
X340674Y195462D01*
X334006Y195462D01*
X334006Y202130D01*
X334006Y197574D02*
X340674Y197574D01*
X340674Y199686D02*
X334006Y199686D01*
X334006Y201798D02*
X340674Y201798D01*
X325434Y202130D02*
X318766Y202130D01*
X325434Y202130D02*
X325434Y195462D01*
X318766Y195462D01*
X318766Y202130D01*
X318766Y197574D02*
X325434Y197574D01*
X325434Y199686D02*
X318766Y199686D01*
X318766Y201798D02*
X325434Y201798D01*
X346706Y208162D02*
X346706Y214830D01*
X353374Y214830D01*
X353374Y208162D01*
X346706Y208162D01*
X346706Y210274D02*
X353374Y210274D01*
X353374Y212386D02*
X346706Y212386D01*
X346706Y214498D02*
X353374Y214498D01*
X346706Y199590D02*
X346706Y192922D01*
X346706Y199590D02*
X353374Y199590D01*
X353374Y192922D01*
X346706Y192922D01*
X346706Y195034D02*
X353374Y195034D01*
X353374Y197146D02*
X346706Y197146D01*
X346706Y199258D02*
X353374Y199258D01*
X305622Y175714D02*
X305622Y169046D01*
X298954Y169046D01*
X298954Y175714D01*
X305622Y175714D01*
X305622Y171158D02*
X298954Y171158D01*
X298954Y173270D02*
X305622Y173270D01*
X305622Y175382D02*
X298954Y175382D01*
X305622Y184286D02*
X305622Y190954D01*
X305622Y184286D02*
X298954Y184286D01*
X298954Y190954D01*
X305622Y190954D01*
X305622Y186398D02*
X298954Y186398D01*
X298954Y188510D02*
X305622Y188510D01*
X305622Y190622D02*
X298954Y190622D01*
X397824Y143964D02*
X397824Y137296D01*
X391156Y137296D01*
X391156Y143964D01*
X397824Y143964D01*
X397824Y139408D02*
X391156Y139408D01*
X391156Y141520D02*
X397824Y141520D01*
X397824Y143632D02*
X391156Y143632D01*
X397824Y152536D02*
X397824Y159204D01*
X397824Y152536D02*
X391156Y152536D01*
X391156Y159204D01*
X397824Y159204D01*
X397824Y154648D02*
X391156Y154648D01*
X391156Y156760D02*
X397824Y156760D01*
X397824Y158872D02*
X391156Y158872D01*
X410524Y143964D02*
X410524Y137296D01*
X403856Y137296D01*
X403856Y143964D01*
X410524Y143964D01*
X410524Y139408D02*
X403856Y139408D01*
X403856Y141520D02*
X410524Y141520D01*
X410524Y143632D02*
X403856Y143632D01*
X410524Y152536D02*
X410524Y159204D01*
X410524Y152536D02*
X403856Y152536D01*
X403856Y159204D01*
X410524Y159204D01*
X410524Y154648D02*
X403856Y154648D01*
X403856Y156760D02*
X410524Y156760D01*
X410524Y158872D02*
X403856Y158872D01*
D12*
X212070Y160570D02*
X212070Y153570D01*
X206070Y153570D01*
X206070Y160570D01*
X212070Y160570D01*
X212070Y155470D02*
X206070Y155470D01*
X206070Y157370D02*
X212070Y157370D01*
X212070Y159270D02*
X206070Y159270D01*
X212070Y176570D02*
X212070Y183570D01*
X212070Y176570D02*
X206070Y176570D01*
X206070Y183570D01*
X212070Y183570D01*
X212070Y178470D02*
X206070Y178470D01*
X206070Y180370D02*
X212070Y180370D01*
X212070Y182270D02*
X206070Y182270D01*
D18*
X165573Y187937D02*
X165573Y197463D01*
X165573Y187937D02*
X153507Y187937D01*
X153507Y197463D01*
X165573Y197463D01*
X165573Y190953D02*
X153507Y190953D01*
X153507Y193969D02*
X165573Y193969D01*
X165573Y196985D02*
X153507Y196985D01*
X165573Y213337D02*
X165573Y222863D01*
X165573Y213337D02*
X153507Y213337D01*
X153507Y222863D01*
X165573Y222863D01*
X165573Y216353D02*
X153507Y216353D01*
X153507Y219369D02*
X165573Y219369D01*
X165573Y222385D02*
X153507Y222385D01*
D10*
X796286Y141424D02*
X802954Y141424D01*
X802954Y134756D01*
X796286Y134756D01*
X796286Y141424D01*
X796286Y136868D02*
X802954Y136868D01*
X802954Y138980D02*
X796286Y138980D01*
X796286Y141092D02*
X802954Y141092D01*
X787714Y141424D02*
X781046Y141424D01*
X787714Y141424D02*
X787714Y134756D01*
X781046Y134756D01*
X781046Y141424D01*
X781046Y136868D02*
X787714Y136868D01*
X787714Y138980D02*
X781046Y138980D01*
X781046Y141092D02*
X787714Y141092D01*
D19*
X660238Y147932D02*
X654522Y147932D01*
X654522Y161268D01*
X660238Y161268D01*
X660238Y147932D01*
X660238Y149742D02*
X654522Y149742D01*
X654522Y151552D02*
X660238Y151552D01*
X660238Y153362D02*
X654522Y153362D01*
X654522Y155172D02*
X660238Y155172D01*
X660238Y156982D02*
X654522Y156982D01*
X654522Y158792D02*
X660238Y158792D01*
X660238Y160602D02*
X654522Y160602D01*
X654522Y198732D02*
X660238Y198732D01*
X654522Y198732D02*
X654522Y212068D01*
X660238Y212068D01*
X660238Y198732D01*
X660238Y200542D02*
X654522Y200542D01*
X654522Y202352D02*
X660238Y202352D01*
X660238Y204162D02*
X654522Y204162D01*
X654522Y205972D02*
X660238Y205972D01*
X660238Y207782D02*
X654522Y207782D01*
X654522Y209592D02*
X660238Y209592D01*
X660238Y211402D02*
X654522Y211402D01*
X622138Y147932D02*
X616422Y147932D01*
X616422Y161268D01*
X622138Y161268D01*
X622138Y147932D01*
X622138Y149742D02*
X616422Y149742D01*
X616422Y151552D02*
X622138Y151552D01*
X622138Y153362D02*
X616422Y153362D01*
X616422Y155172D02*
X622138Y155172D01*
X622138Y156982D02*
X616422Y156982D01*
X616422Y158792D02*
X622138Y158792D01*
X622138Y160602D02*
X616422Y160602D01*
X616422Y198732D02*
X622138Y198732D01*
X616422Y198732D02*
X616422Y212068D01*
X622138Y212068D01*
X622138Y198732D01*
X622138Y200542D02*
X616422Y200542D01*
X616422Y202352D02*
X622138Y202352D01*
X622138Y204162D02*
X616422Y204162D01*
X616422Y205972D02*
X622138Y205972D01*
X622138Y207782D02*
X616422Y207782D01*
X616422Y209592D02*
X622138Y209592D01*
X622138Y211402D02*
X616422Y211402D01*
X781522Y212068D02*
X787238Y212068D01*
X787238Y198732D01*
X781522Y198732D01*
X781522Y212068D01*
X781522Y200542D02*
X787238Y200542D01*
X787238Y202352D02*
X781522Y202352D01*
X781522Y204162D02*
X787238Y204162D01*
X787238Y205972D02*
X781522Y205972D01*
X781522Y207782D02*
X787238Y207782D01*
X787238Y209592D02*
X781522Y209592D01*
X781522Y211402D02*
X787238Y211402D01*
X787238Y161268D02*
X781522Y161268D01*
X787238Y161268D02*
X787238Y147932D01*
X781522Y147932D01*
X781522Y161268D01*
X781522Y149742D02*
X787238Y149742D01*
X787238Y151552D02*
X781522Y151552D01*
X781522Y153362D02*
X787238Y153362D01*
X787238Y155172D02*
X781522Y155172D01*
X781522Y156982D02*
X787238Y156982D01*
X787238Y158792D02*
X781522Y158792D01*
X781522Y160602D02*
X787238Y160602D01*
X819622Y212068D02*
X825338Y212068D01*
X825338Y198732D01*
X819622Y198732D01*
X819622Y212068D01*
X819622Y200542D02*
X825338Y200542D01*
X825338Y202352D02*
X819622Y202352D01*
X819622Y204162D02*
X825338Y204162D01*
X825338Y205972D02*
X819622Y205972D01*
X819622Y207782D02*
X825338Y207782D01*
X825338Y209592D02*
X819622Y209592D01*
X819622Y211402D02*
X825338Y211402D01*
X825338Y161268D02*
X819622Y161268D01*
X825338Y161268D02*
X825338Y147932D01*
X819622Y147932D01*
X819622Y161268D01*
X819622Y149742D02*
X825338Y149742D01*
X825338Y151552D02*
X819622Y151552D01*
X819622Y153362D02*
X825338Y153362D01*
X825338Y155172D02*
X819622Y155172D01*
X819622Y156982D02*
X825338Y156982D01*
X825338Y158792D02*
X819622Y158792D01*
X819622Y160602D02*
X825338Y160602D01*
D12*
X197860Y178050D02*
X191860Y178050D01*
X197860Y178050D02*
X197860Y176050D01*
X191860Y176050D01*
X191860Y178050D01*
X191860Y177950D02*
X197860Y177950D01*
X197860Y171550D02*
X191860Y171550D01*
X197860Y171550D02*
X197860Y169550D01*
X191860Y169550D01*
X191860Y171550D01*
X191860Y171450D02*
X197860Y171450D01*
X197860Y165050D02*
X191860Y165050D01*
X197860Y165050D02*
X197860Y163050D01*
X191860Y163050D01*
X191860Y165050D01*
X191860Y164950D02*
X197860Y164950D01*
X197860Y158550D02*
X191860Y158550D01*
X197860Y158550D02*
X197860Y156550D01*
X191860Y156550D01*
X191860Y158550D01*
X191860Y158450D02*
X197860Y158450D01*
X167860Y158550D02*
X161860Y158550D01*
X167860Y158550D02*
X167860Y156550D01*
X161860Y156550D01*
X161860Y158550D01*
X161860Y158450D02*
X167860Y158450D01*
X167860Y165050D02*
X161860Y165050D01*
X167860Y165050D02*
X167860Y163050D01*
X161860Y163050D01*
X161860Y165050D01*
X161860Y164950D02*
X167860Y164950D01*
X167860Y171550D02*
X161860Y171550D01*
X167860Y171550D02*
X167860Y169550D01*
X161860Y169550D01*
X161860Y171550D01*
X161860Y171450D02*
X167860Y171450D01*
X167860Y178050D02*
X161860Y178050D01*
X167860Y178050D02*
X167860Y176050D01*
X161860Y176050D01*
X161860Y178050D01*
X161860Y177950D02*
X167860Y177950D01*
D13*
X182400Y176190D03*
X173510Y176190D03*
X182400Y167300D03*
X173510Y167300D03*
X182400Y158410D03*
X173510Y158410D03*
D20*
X179856Y182377D03*
D21*
X179851Y152422D03*
D16*
X178590Y168570D02*
X181130Y168570D01*
X181130Y166030D01*
X178590Y166030D01*
X178590Y168570D01*
X178590Y168443D02*
X181130Y168443D01*
D10*
X180654Y188096D02*
X173986Y188096D01*
X173986Y194764D01*
X180654Y194764D01*
X180654Y188096D01*
X180654Y190208D02*
X173986Y190208D01*
X173986Y192320D02*
X180654Y192320D01*
X180654Y194432D02*
X173986Y194432D01*
X189226Y188096D02*
X195894Y188096D01*
X189226Y188096D02*
X189226Y194764D01*
X195894Y194764D01*
X195894Y188096D01*
X195894Y190208D02*
X189226Y190208D01*
X189226Y192320D02*
X195894Y192320D01*
X195894Y194432D02*
X189226Y194432D01*
D12*
X348920Y168370D02*
X348920Y162370D01*
X348920Y168370D02*
X355920Y168370D01*
X355920Y162370D01*
X348920Y162370D01*
X348920Y164270D02*
X355920Y164270D01*
X355920Y166170D02*
X348920Y166170D01*
X348920Y168070D02*
X355920Y168070D01*
X348920Y149370D02*
X348920Y143370D01*
X348920Y149370D02*
X355920Y149370D01*
X355920Y143370D01*
X348920Y143370D01*
X348920Y145270D02*
X355920Y145270D01*
X355920Y147170D02*
X348920Y147170D01*
X348920Y149070D02*
X355920Y149070D01*
X327920Y152870D02*
X327920Y158870D01*
X334920Y158870D01*
X334920Y152870D01*
X327920Y152870D01*
X327920Y154770D02*
X334920Y154770D01*
X334920Y156670D02*
X327920Y156670D01*
X327920Y158570D02*
X334920Y158570D01*
D10*
X353818Y183334D02*
X360486Y183334D01*
X360486Y176666D01*
X353818Y176666D01*
X353818Y183334D01*
X353818Y178778D02*
X360486Y178778D01*
X360486Y180890D02*
X353818Y180890D01*
X353818Y183002D02*
X360486Y183002D01*
X345246Y183334D02*
X338578Y183334D01*
X345246Y183334D02*
X345246Y176666D01*
X338578Y176666D01*
X338578Y183334D01*
X338578Y178778D02*
X345246Y178778D01*
X345246Y180890D02*
X338578Y180890D01*
X338578Y183002D02*
X345246Y183002D01*
X318322Y147774D02*
X318322Y141106D01*
X311654Y141106D01*
X311654Y147774D01*
X318322Y147774D01*
X318322Y143218D02*
X311654Y143218D01*
X311654Y145330D02*
X318322Y145330D01*
X318322Y147442D02*
X311654Y147442D01*
X318322Y156346D02*
X318322Y163014D01*
X318322Y156346D02*
X311654Y156346D01*
X311654Y163014D01*
X318322Y163014D01*
X318322Y158458D02*
X311654Y158458D01*
X311654Y160570D02*
X318322Y160570D01*
X318322Y162682D02*
X311654Y162682D01*
X305622Y147774D02*
X305622Y141106D01*
X298954Y141106D01*
X298954Y147774D01*
X305622Y147774D01*
X305622Y143218D02*
X298954Y143218D01*
X298954Y145330D02*
X305622Y145330D01*
X305622Y147442D02*
X298954Y147442D01*
X305622Y156346D02*
X305622Y163014D01*
X305622Y156346D02*
X298954Y156346D01*
X298954Y163014D01*
X305622Y163014D01*
X305622Y158458D02*
X298954Y158458D01*
X298954Y160570D02*
X305622Y160570D01*
X305622Y162682D02*
X298954Y162682D01*
X361946Y196986D02*
X368614Y196986D01*
X361946Y196986D02*
X361946Y203654D01*
X368614Y203654D01*
X368614Y196986D01*
X368614Y199098D02*
X361946Y199098D01*
X361946Y201210D02*
X368614Y201210D01*
X368614Y203322D02*
X361946Y203322D01*
X377186Y196986D02*
X383854Y196986D01*
X377186Y196986D02*
X377186Y203654D01*
X383854Y203654D01*
X383854Y196986D01*
X383854Y199098D02*
X377186Y199098D01*
X377186Y201210D02*
X383854Y201210D01*
X383854Y203322D02*
X377186Y203322D01*
X327974Y214830D02*
X321306Y214830D01*
X327974Y214830D02*
X327974Y208162D01*
X321306Y208162D01*
X321306Y214830D01*
X321306Y210274D02*
X327974Y210274D01*
X327974Y212386D02*
X321306Y212386D01*
X321306Y214498D02*
X327974Y214498D01*
X312734Y214830D02*
X306066Y214830D01*
X312734Y214830D02*
X312734Y208162D01*
X306066Y208162D01*
X306066Y214830D01*
X306066Y210274D02*
X312734Y210274D01*
X312734Y212386D02*
X306066Y212386D01*
X306066Y214498D02*
X312734Y214498D01*
D22*
X48495Y208875D02*
X48495Y196125D01*
X48495Y208875D02*
X55245Y208875D01*
X55245Y196125D01*
X48495Y196125D01*
X48495Y198262D02*
X55245Y198262D01*
X55245Y200399D02*
X48495Y200399D01*
X48495Y202536D02*
X55245Y202536D01*
X55245Y204673D02*
X48495Y204673D01*
X48495Y206810D02*
X55245Y206810D01*
X83495Y208875D02*
X83495Y196125D01*
X83495Y208875D02*
X90245Y208875D01*
X90245Y196125D01*
X83495Y196125D01*
X83495Y198262D02*
X90245Y198262D01*
X90245Y200399D02*
X83495Y200399D01*
X83495Y202536D02*
X90245Y202536D01*
X90245Y204673D02*
X83495Y204673D01*
X83495Y206810D02*
X90245Y206810D01*
X83495Y163875D02*
X83495Y151125D01*
X83495Y163875D02*
X90245Y163875D01*
X90245Y151125D01*
X83495Y151125D01*
X83495Y153262D02*
X90245Y153262D01*
X90245Y155399D02*
X83495Y155399D01*
X83495Y157536D02*
X90245Y157536D01*
X90245Y159673D02*
X83495Y159673D01*
X83495Y161810D02*
X90245Y161810D01*
D10*
X474976Y161744D02*
X481644Y161744D01*
X481644Y155076D01*
X474976Y155076D01*
X474976Y161744D01*
X474976Y157188D02*
X481644Y157188D01*
X481644Y159300D02*
X474976Y159300D01*
X474976Y161412D02*
X481644Y161412D01*
X466404Y161744D02*
X459736Y161744D01*
X466404Y161744D02*
X466404Y155076D01*
X459736Y155076D01*
X459736Y161744D01*
X459736Y157188D02*
X466404Y157188D01*
X466404Y159300D02*
X459736Y159300D01*
X459736Y161412D02*
X466404Y161412D01*
X474976Y143964D02*
X481644Y143964D01*
X481644Y137296D01*
X474976Y137296D01*
X474976Y143964D01*
X474976Y139408D02*
X481644Y139408D01*
X481644Y141520D02*
X474976Y141520D01*
X474976Y143632D02*
X481644Y143632D01*
X466404Y143964D02*
X459736Y143964D01*
X466404Y143964D02*
X466404Y137296D01*
X459736Y137296D01*
X459736Y143964D01*
X459736Y139408D02*
X466404Y139408D01*
X466404Y141520D02*
X459736Y141520D01*
X459736Y143632D02*
X466404Y143632D01*
X601976Y190636D02*
X601976Y197304D01*
X608644Y197304D01*
X608644Y190636D01*
X601976Y190636D01*
X601976Y192748D02*
X608644Y192748D01*
X608644Y194860D02*
X601976Y194860D01*
X601976Y196972D02*
X608644Y196972D01*
X601976Y182064D02*
X601976Y175396D01*
X601976Y182064D02*
X608644Y182064D01*
X608644Y175396D01*
X601976Y175396D01*
X601976Y177508D02*
X608644Y177508D01*
X608644Y179620D02*
X601976Y179620D01*
X601976Y181732D02*
X608644Y181732D01*
X608644Y203336D02*
X608644Y210004D01*
X608644Y203336D02*
X601976Y203336D01*
X601976Y210004D01*
X608644Y210004D01*
X608644Y205448D02*
X601976Y205448D01*
X601976Y207560D02*
X608644Y207560D01*
X608644Y209672D02*
X601976Y209672D01*
X608644Y218576D02*
X608644Y225244D01*
X608644Y218576D02*
X601976Y218576D01*
X601976Y225244D01*
X608644Y225244D01*
X608644Y220688D02*
X601976Y220688D01*
X601976Y222800D02*
X608644Y222800D01*
X608644Y224912D02*
X601976Y224912D01*
D12*
X577220Y200470D02*
X571220Y200470D01*
X571220Y207470D01*
X577220Y207470D01*
X577220Y200470D01*
X577220Y202370D02*
X571220Y202370D01*
X571220Y204270D02*
X577220Y204270D01*
X577220Y206170D02*
X571220Y206170D01*
X590220Y200470D02*
X596220Y200470D01*
X590220Y200470D02*
X590220Y207470D01*
X596220Y207470D01*
X596220Y200470D01*
X596220Y202370D02*
X590220Y202370D01*
X590220Y204270D02*
X596220Y204270D01*
X596220Y206170D02*
X590220Y206170D01*
X586720Y179470D02*
X580720Y179470D01*
X580720Y186470D01*
X586720Y186470D01*
X586720Y179470D01*
X586720Y181370D02*
X580720Y181370D01*
X580720Y183270D02*
X586720Y183270D01*
X586720Y185170D02*
X580720Y185170D01*
D10*
X579434Y213496D02*
X572766Y213496D01*
X572766Y220164D01*
X579434Y220164D01*
X579434Y213496D01*
X579434Y215608D02*
X572766Y215608D01*
X572766Y217720D02*
X579434Y217720D01*
X579434Y219832D02*
X572766Y219832D01*
X588006Y213496D02*
X594674Y213496D01*
X588006Y213496D02*
X588006Y220164D01*
X594674Y220164D01*
X594674Y213496D01*
X594674Y215608D02*
X588006Y215608D01*
X588006Y217720D02*
X594674Y217720D01*
X594674Y219832D02*
X588006Y219832D01*
D19*
X737072Y147932D02*
X742788Y147932D01*
X737072Y147932D02*
X737072Y161268D01*
X742788Y161268D01*
X742788Y147932D01*
X742788Y149742D02*
X737072Y149742D01*
X737072Y151552D02*
X742788Y151552D01*
X742788Y153362D02*
X737072Y153362D01*
X737072Y155172D02*
X742788Y155172D01*
X742788Y156982D02*
X737072Y156982D01*
X737072Y158792D02*
X742788Y158792D01*
X742788Y160602D02*
X737072Y160602D01*
X737072Y198732D02*
X742788Y198732D01*
X737072Y198732D02*
X737072Y212068D01*
X742788Y212068D01*
X742788Y198732D01*
X742788Y200542D02*
X737072Y200542D01*
X737072Y202352D02*
X742788Y202352D01*
X742788Y204162D02*
X737072Y204162D01*
X737072Y205972D02*
X742788Y205972D01*
X742788Y207782D02*
X737072Y207782D01*
X737072Y209592D02*
X742788Y209592D01*
X742788Y211402D02*
X737072Y211402D01*
X704688Y147932D02*
X698972Y147932D01*
X698972Y161268D01*
X704688Y161268D01*
X704688Y147932D01*
X704688Y149742D02*
X698972Y149742D01*
X698972Y151552D02*
X704688Y151552D01*
X704688Y153362D02*
X698972Y153362D01*
X698972Y155172D02*
X704688Y155172D01*
X704688Y156982D02*
X698972Y156982D01*
X698972Y158792D02*
X704688Y158792D01*
X704688Y160602D02*
X698972Y160602D01*
X698972Y198732D02*
X704688Y198732D01*
X698972Y198732D02*
X698972Y212068D01*
X704688Y212068D01*
X704688Y198732D01*
X704688Y200542D02*
X698972Y200542D01*
X698972Y202352D02*
X704688Y202352D01*
X704688Y204162D02*
X698972Y204162D01*
X698972Y205972D02*
X704688Y205972D01*
X704688Y207782D02*
X698972Y207782D01*
X698972Y209592D02*
X704688Y209592D01*
X704688Y211402D02*
X698972Y211402D01*
D10*
X688654Y176984D02*
X681986Y176984D01*
X688654Y176984D02*
X688654Y170316D01*
X681986Y170316D01*
X681986Y176984D01*
X681986Y172428D02*
X688654Y172428D01*
X688654Y174540D02*
X681986Y174540D01*
X681986Y176652D02*
X688654Y176652D01*
X673414Y176984D02*
X666746Y176984D01*
X673414Y176984D02*
X673414Y170316D01*
X666746Y170316D01*
X666746Y176984D01*
X666746Y172428D02*
X673414Y172428D01*
X673414Y174540D02*
X666746Y174540D01*
X666746Y176652D02*
X673414Y176652D01*
X681986Y197304D02*
X688654Y197304D01*
X688654Y190636D01*
X681986Y190636D01*
X681986Y197304D01*
X681986Y192748D02*
X688654Y192748D01*
X688654Y194860D02*
X681986Y194860D01*
X681986Y196972D02*
X688654Y196972D01*
X673414Y197304D02*
X666746Y197304D01*
X673414Y197304D02*
X673414Y190636D01*
X666746Y190636D01*
X666746Y197304D01*
X666746Y192748D02*
X673414Y192748D01*
X673414Y194860D02*
X666746Y194860D01*
X666746Y196972D02*
X673414Y196972D01*
X839784Y175714D02*
X839784Y169046D01*
X833116Y169046D01*
X833116Y175714D01*
X839784Y175714D01*
X839784Y171158D02*
X833116Y171158D01*
X833116Y173270D02*
X839784Y173270D01*
X839784Y175382D02*
X833116Y175382D01*
X839784Y184286D02*
X839784Y190954D01*
X839784Y184286D02*
X833116Y184286D01*
X833116Y190954D01*
X839784Y190954D01*
X839784Y186398D02*
X833116Y186398D01*
X833116Y188510D02*
X839784Y188510D01*
X839784Y190622D02*
X833116Y190622D01*
X852484Y175714D02*
X852484Y169046D01*
X845816Y169046D01*
X845816Y175714D01*
X852484Y175714D01*
X852484Y171158D02*
X845816Y171158D01*
X845816Y173270D02*
X852484Y173270D01*
X852484Y175382D02*
X845816Y175382D01*
X852484Y184286D02*
X852484Y190954D01*
X852484Y184286D02*
X845816Y184286D01*
X845816Y190954D01*
X852484Y190954D01*
X852484Y186398D02*
X845816Y186398D01*
X845816Y188510D02*
X852484Y188510D01*
X852484Y190622D02*
X845816Y190622D01*
X767076Y658886D02*
X767076Y665554D01*
X773744Y665554D01*
X773744Y658886D01*
X767076Y658886D01*
X767076Y660998D02*
X773744Y660998D01*
X773744Y663110D02*
X767076Y663110D01*
X767076Y665222D02*
X773744Y665222D01*
X767076Y650314D02*
X767076Y643646D01*
X767076Y650314D02*
X773744Y650314D01*
X773744Y643646D01*
X767076Y643646D01*
X767076Y645758D02*
X773744Y645758D01*
X773744Y647870D02*
X767076Y647870D01*
X767076Y649982D02*
X773744Y649982D01*
X158746Y702066D02*
X158746Y708734D01*
X165414Y708734D01*
X165414Y702066D01*
X158746Y702066D01*
X158746Y704178D02*
X165414Y704178D01*
X165414Y706290D02*
X158746Y706290D01*
X158746Y708402D02*
X165414Y708402D01*
X158746Y693494D02*
X158746Y686826D01*
X158746Y693494D02*
X165414Y693494D01*
X165414Y686826D01*
X158746Y686826D01*
X158746Y688938D02*
X165414Y688938D01*
X165414Y691050D02*
X158746Y691050D01*
X158746Y693162D02*
X165414Y693162D01*
D23*
X127470Y695250D02*
X127470Y687750D01*
X127470Y695250D02*
X132970Y695250D01*
X132970Y687750D01*
X127470Y687750D01*
X127470Y692975D02*
X132970Y692975D01*
X145470Y672250D02*
X145470Y664750D01*
X145470Y672250D02*
X150970Y672250D01*
X150970Y664750D01*
X145470Y664750D01*
X145470Y669975D02*
X150970Y669975D01*
X127470Y672250D02*
X127470Y664750D01*
X127470Y672250D02*
X132970Y672250D01*
X132970Y664750D01*
X127470Y664750D01*
X127470Y669975D02*
X132970Y669975D01*
X145470Y687750D02*
X145470Y695250D01*
X150970Y695250D01*
X150970Y687750D01*
X145470Y687750D01*
X145470Y692975D02*
X150970Y692975D01*
D10*
X165414Y657934D02*
X165414Y651266D01*
X158746Y651266D01*
X158746Y657934D01*
X165414Y657934D01*
X165414Y653378D02*
X158746Y653378D01*
X158746Y655490D02*
X165414Y655490D01*
X165414Y657602D02*
X158746Y657602D01*
X165414Y666506D02*
X165414Y673174D01*
X165414Y666506D02*
X158746Y666506D01*
X158746Y673174D01*
X165414Y673174D01*
X165414Y668618D02*
X158746Y668618D01*
X158746Y670730D02*
X165414Y670730D01*
X165414Y672842D02*
X158746Y672842D01*
X789936Y692224D02*
X796604Y692224D01*
X796604Y685556D01*
X789936Y685556D01*
X789936Y692224D01*
X789936Y687668D02*
X796604Y687668D01*
X796604Y689780D02*
X789936Y689780D01*
X789936Y691892D02*
X796604Y691892D01*
X781364Y692224D02*
X774696Y692224D01*
X781364Y692224D02*
X781364Y685556D01*
X774696Y685556D01*
X774696Y692224D01*
X774696Y687668D02*
X781364Y687668D01*
X781364Y689780D02*
X774696Y689780D01*
X774696Y691892D02*
X781364Y691892D01*
X789936Y704924D02*
X796604Y704924D01*
X796604Y698256D01*
X789936Y698256D01*
X789936Y704924D01*
X789936Y700368D02*
X796604Y700368D01*
X796604Y702480D02*
X789936Y702480D01*
X789936Y704592D02*
X796604Y704592D01*
X781364Y704924D02*
X774696Y704924D01*
X781364Y704924D02*
X781364Y698256D01*
X774696Y698256D01*
X774696Y704924D01*
X774696Y700368D02*
X781364Y700368D01*
X781364Y702480D02*
X774696Y702480D01*
X774696Y704592D02*
X781364Y704592D01*
X150174Y717306D02*
X143506Y717306D01*
X143506Y723974D01*
X150174Y723974D01*
X150174Y717306D01*
X150174Y719418D02*
X143506Y719418D01*
X143506Y721530D02*
X150174Y721530D01*
X150174Y723642D02*
X143506Y723642D01*
X158746Y717306D02*
X165414Y717306D01*
X158746Y717306D02*
X158746Y723974D01*
X165414Y723974D01*
X165414Y717306D01*
X165414Y719418D02*
X158746Y719418D01*
X158746Y721530D02*
X165414Y721530D01*
X165414Y723642D02*
X158746Y723642D01*
X294636Y651330D02*
X301304Y651330D01*
X301304Y644662D01*
X294636Y644662D01*
X294636Y651330D01*
X294636Y646774D02*
X301304Y646774D01*
X301304Y648886D02*
X294636Y648886D01*
X294636Y650998D02*
X301304Y650998D01*
X286064Y651330D02*
X279396Y651330D01*
X286064Y651330D02*
X286064Y644662D01*
X279396Y644662D01*
X279396Y651330D01*
X279396Y646774D02*
X286064Y646774D01*
X286064Y648886D02*
X279396Y648886D01*
X279396Y650998D02*
X286064Y650998D01*
X165414Y642694D02*
X158746Y642694D01*
X165414Y642694D02*
X165414Y636026D01*
X158746Y636026D01*
X158746Y642694D01*
X158746Y638138D02*
X165414Y638138D01*
X165414Y640250D02*
X158746Y640250D01*
X158746Y642362D02*
X165414Y642362D01*
X150174Y642694D02*
X143506Y642694D01*
X150174Y642694D02*
X150174Y636026D01*
X143506Y636026D01*
X143506Y642694D01*
X143506Y638138D02*
X150174Y638138D01*
X150174Y640250D02*
X143506Y640250D01*
X143506Y642362D02*
X150174Y642362D01*
D22*
X244565Y642125D02*
X244565Y647875D01*
X244565Y642125D02*
X243815Y642125D01*
X243815Y647875D01*
X244565Y647875D01*
X244565Y644262D02*
X243815Y644262D01*
X243815Y646399D02*
X244565Y646399D01*
X239565Y647875D02*
X239565Y642125D01*
X238815Y642125D01*
X238815Y647875D01*
X239565Y647875D01*
X239565Y644262D02*
X238815Y644262D01*
X238815Y646399D02*
X239565Y646399D01*
X234565Y647875D02*
X234565Y642125D01*
X233815Y642125D01*
X233815Y647875D01*
X234565Y647875D01*
X234565Y644262D02*
X233815Y644262D01*
X233815Y646399D02*
X234565Y646399D01*
X229565Y647875D02*
X229565Y642125D01*
X228815Y642125D01*
X228815Y647875D01*
X229565Y647875D01*
X229565Y644262D02*
X228815Y644262D01*
X228815Y646399D02*
X229565Y646399D01*
X224565Y647875D02*
X224565Y642125D01*
X223815Y642125D01*
X223815Y647875D01*
X224565Y647875D01*
X224565Y644262D02*
X223815Y644262D01*
X223815Y646399D02*
X224565Y646399D01*
X219565Y647875D02*
X219565Y642125D01*
X218815Y642125D01*
X218815Y647875D01*
X219565Y647875D01*
X219565Y644262D02*
X218815Y644262D01*
X218815Y646399D02*
X219565Y646399D01*
X214565Y647875D02*
X214565Y642125D01*
X213815Y642125D01*
X213815Y647875D01*
X214565Y647875D01*
X214565Y644262D02*
X213815Y644262D01*
X213815Y646399D02*
X214565Y646399D01*
X209565Y647875D02*
X209565Y642125D01*
X208815Y642125D01*
X208815Y647875D01*
X209565Y647875D01*
X209565Y644262D02*
X208815Y644262D01*
X208815Y646399D02*
X209565Y646399D01*
X204565Y647875D02*
X204565Y642125D01*
X203815Y642125D01*
X203815Y647875D01*
X204565Y647875D01*
X204565Y644262D02*
X203815Y644262D01*
X203815Y646399D02*
X204565Y646399D01*
X199565Y647875D02*
X199565Y642125D01*
X198815Y642125D01*
X198815Y647875D01*
X199565Y647875D01*
X199565Y644262D02*
X198815Y644262D01*
X198815Y646399D02*
X199565Y646399D01*
X194565Y647875D02*
X194565Y642125D01*
X193815Y642125D01*
X193815Y647875D01*
X194565Y647875D01*
X194565Y644262D02*
X193815Y644262D01*
X193815Y646399D02*
X194565Y646399D01*
X189565Y647875D02*
X189565Y642125D01*
X188815Y642125D01*
X188815Y647875D01*
X189565Y647875D01*
X189565Y644262D02*
X188815Y644262D01*
X188815Y646399D02*
X189565Y646399D01*
X184565Y652125D02*
X178815Y652125D01*
X178815Y652875D01*
X184565Y652875D01*
X184565Y652125D01*
X184565Y657125D02*
X178815Y657125D01*
X178815Y657875D01*
X184565Y657875D01*
X184565Y657125D01*
X184565Y662125D02*
X178815Y662125D01*
X178815Y662875D01*
X184565Y662875D01*
X184565Y662125D01*
X184565Y667125D02*
X178815Y667125D01*
X178815Y667875D01*
X184565Y667875D01*
X184565Y667125D01*
X184565Y672125D02*
X178815Y672125D01*
X178815Y672875D01*
X184565Y672875D01*
X184565Y672125D01*
X184565Y677125D02*
X178815Y677125D01*
X178815Y677875D01*
X184565Y677875D01*
X184565Y677125D01*
X184565Y682125D02*
X178815Y682125D01*
X178815Y682875D01*
X184565Y682875D01*
X184565Y682125D01*
X184565Y687125D02*
X178815Y687125D01*
X178815Y687875D01*
X184565Y687875D01*
X184565Y687125D01*
X184565Y692125D02*
X178815Y692125D01*
X178815Y692875D01*
X184565Y692875D01*
X184565Y692125D01*
X184565Y697125D02*
X178815Y697125D01*
X178815Y697875D01*
X184565Y697875D01*
X184565Y697125D01*
X184565Y702125D02*
X178815Y702125D01*
X178815Y702875D01*
X184565Y702875D01*
X184565Y702125D01*
X184565Y707125D02*
X178815Y707125D01*
X178815Y707875D01*
X184565Y707875D01*
X184565Y707125D01*
X188815Y712125D02*
X188815Y717875D01*
X189565Y717875D01*
X189565Y712125D01*
X188815Y712125D01*
X188815Y714262D02*
X189565Y714262D01*
X189565Y716399D02*
X188815Y716399D01*
X193815Y717875D02*
X193815Y712125D01*
X193815Y717875D02*
X194565Y717875D01*
X194565Y712125D01*
X193815Y712125D01*
X193815Y714262D02*
X194565Y714262D01*
X194565Y716399D02*
X193815Y716399D01*
X198815Y717875D02*
X198815Y712125D01*
X198815Y717875D02*
X199565Y717875D01*
X199565Y712125D01*
X198815Y712125D01*
X198815Y714262D02*
X199565Y714262D01*
X199565Y716399D02*
X198815Y716399D01*
X203815Y717875D02*
X203815Y712125D01*
X203815Y717875D02*
X204565Y717875D01*
X204565Y712125D01*
X203815Y712125D01*
X203815Y714262D02*
X204565Y714262D01*
X204565Y716399D02*
X203815Y716399D01*
X208815Y717875D02*
X208815Y712125D01*
X208815Y717875D02*
X209565Y717875D01*
X209565Y712125D01*
X208815Y712125D01*
X208815Y714262D02*
X209565Y714262D01*
X209565Y716399D02*
X208815Y716399D01*
X213815Y717875D02*
X213815Y712125D01*
X213815Y717875D02*
X214565Y717875D01*
X214565Y712125D01*
X213815Y712125D01*
X213815Y714262D02*
X214565Y714262D01*
X214565Y716399D02*
X213815Y716399D01*
X218815Y717875D02*
X218815Y712125D01*
X218815Y717875D02*
X219565Y717875D01*
X219565Y712125D01*
X218815Y712125D01*
X218815Y714262D02*
X219565Y714262D01*
X219565Y716399D02*
X218815Y716399D01*
X223815Y717875D02*
X223815Y712125D01*
X223815Y717875D02*
X224565Y717875D01*
X224565Y712125D01*
X223815Y712125D01*
X223815Y714262D02*
X224565Y714262D01*
X224565Y716399D02*
X223815Y716399D01*
X228815Y717875D02*
X228815Y712125D01*
X228815Y717875D02*
X229565Y717875D01*
X229565Y712125D01*
X228815Y712125D01*
X228815Y714262D02*
X229565Y714262D01*
X229565Y716399D02*
X228815Y716399D01*
X233815Y717875D02*
X233815Y712125D01*
X233815Y717875D02*
X234565Y717875D01*
X234565Y712125D01*
X233815Y712125D01*
X233815Y714262D02*
X234565Y714262D01*
X234565Y716399D02*
X233815Y716399D01*
X238815Y717875D02*
X238815Y712125D01*
X238815Y717875D02*
X239565Y717875D01*
X239565Y712125D01*
X238815Y712125D01*
X238815Y714262D02*
X239565Y714262D01*
X239565Y716399D02*
X238815Y716399D01*
X243815Y717875D02*
X243815Y712125D01*
X243815Y717875D02*
X244565Y717875D01*
X244565Y712125D01*
X243815Y712125D01*
X243815Y714262D02*
X244565Y714262D01*
X244565Y716399D02*
X243815Y716399D01*
X248815Y707875D02*
X254565Y707875D01*
X254565Y707125D01*
X248815Y707125D01*
X248815Y707875D01*
X248815Y702875D02*
X254565Y702875D01*
X254565Y702125D01*
X248815Y702125D01*
X248815Y702875D01*
X248815Y697875D02*
X254565Y697875D01*
X254565Y697125D01*
X248815Y697125D01*
X248815Y697875D01*
X248815Y692875D02*
X254565Y692875D01*
X254565Y692125D01*
X248815Y692125D01*
X248815Y692875D01*
X248815Y687875D02*
X254565Y687875D01*
X254565Y687125D01*
X248815Y687125D01*
X248815Y687875D01*
X248815Y682875D02*
X254565Y682875D01*
X254565Y682125D01*
X248815Y682125D01*
X248815Y682875D01*
X248815Y677875D02*
X254565Y677875D01*
X254565Y677125D01*
X248815Y677125D01*
X248815Y677875D01*
X248815Y672875D02*
X254565Y672875D01*
X254565Y672125D01*
X248815Y672125D01*
X248815Y672875D01*
X248815Y667875D02*
X254565Y667875D01*
X254565Y667125D01*
X248815Y667125D01*
X248815Y667875D01*
X248815Y662875D02*
X254565Y662875D01*
X254565Y662125D01*
X248815Y662125D01*
X248815Y662875D01*
X248815Y657875D02*
X254565Y657875D01*
X254565Y657125D01*
X248815Y657125D01*
X248815Y657875D01*
X248815Y652875D02*
X254565Y652875D01*
X254565Y652125D01*
X248815Y652125D01*
X248815Y652875D01*
D24*
X196440Y659750D03*
X209940Y659750D03*
X196440Y673250D03*
X209940Y673250D03*
X223440Y659750D03*
X236940Y659750D03*
X223440Y673250D03*
X236940Y673250D03*
X196440Y686750D03*
X209940Y686750D03*
X196440Y700250D03*
X209940Y700250D03*
X223440Y686750D03*
X236940Y686750D03*
X223440Y700250D03*
X236940Y700250D03*
D22*
X556075Y669625D02*
X556075Y666075D01*
X555325Y666075D01*
X555325Y669625D01*
X556075Y669625D01*
X556075Y668212D02*
X555325Y668212D01*
X551075Y669625D02*
X551075Y666075D01*
X550325Y666075D01*
X550325Y669625D01*
X551075Y669625D01*
X551075Y668212D02*
X550325Y668212D01*
X546075Y669625D02*
X546075Y666075D01*
X545325Y666075D01*
X545325Y669625D01*
X546075Y669625D01*
X546075Y668212D02*
X545325Y668212D01*
X540325Y672125D02*
X536775Y672125D01*
X536775Y672875D01*
X540325Y672875D01*
X540325Y672125D01*
X540325Y677125D02*
X536775Y677125D01*
X536775Y677875D01*
X540325Y677875D01*
X540325Y677125D01*
X540325Y682125D02*
X536775Y682125D01*
X536775Y682875D01*
X540325Y682875D01*
X540325Y682125D01*
X540325Y687125D02*
X536775Y687125D01*
X536775Y687875D01*
X540325Y687875D01*
X540325Y687125D01*
X545325Y690375D02*
X545325Y693925D01*
X546075Y693925D01*
X546075Y690375D01*
X545325Y690375D01*
X545325Y692512D02*
X546075Y692512D01*
X550325Y693925D02*
X550325Y690375D01*
X550325Y693925D02*
X551075Y693925D01*
X551075Y690375D01*
X550325Y690375D01*
X550325Y692512D02*
X551075Y692512D01*
X555325Y693925D02*
X555325Y690375D01*
X555325Y693925D02*
X556075Y693925D01*
X556075Y690375D01*
X555325Y690375D01*
X555325Y692512D02*
X556075Y692512D01*
X561075Y687875D02*
X564625Y687875D01*
X564625Y687125D01*
X561075Y687125D01*
X561075Y687875D01*
X561075Y682875D02*
X564625Y682875D01*
X564625Y682125D01*
X561075Y682125D01*
X561075Y682875D01*
X561075Y677875D02*
X564625Y677875D01*
X564625Y677125D01*
X561075Y677125D01*
X561075Y677875D01*
X561075Y672875D02*
X564625Y672875D01*
X564625Y672125D01*
X561075Y672125D01*
X561075Y672875D01*
D25*
X554200Y683500D03*
X554200Y676500D03*
X547200Y676500D03*
X547200Y683500D03*
D26*
X871334Y672976D02*
X871334Y672024D01*
X871334Y672976D02*
X879486Y672976D01*
X879486Y672024D01*
X871334Y672024D01*
X871334Y677024D02*
X871334Y677976D01*
X879486Y677976D01*
X879486Y677024D01*
X871334Y677024D01*
D27*
X872258Y648702D02*
X872258Y646798D01*
X872258Y648702D02*
X878562Y648702D01*
X878562Y646798D01*
X872258Y646798D01*
X872258Y654548D02*
X872258Y656452D01*
X878562Y656452D01*
X878562Y654548D01*
X872258Y654548D01*
D26*
X871334Y662024D02*
X871334Y662976D01*
X879486Y662976D01*
X879486Y662024D01*
X871334Y662024D01*
X871334Y667024D02*
X871334Y667976D01*
X879486Y667976D01*
X879486Y667024D01*
X871334Y667024D01*
X879486Y687024D02*
X879486Y687976D01*
X879486Y687024D02*
X871334Y687024D01*
X871334Y687976D01*
X879486Y687976D01*
X879486Y682976D02*
X879486Y682024D01*
X871334Y682024D01*
X871334Y682976D01*
X879486Y682976D01*
D27*
X878562Y711298D02*
X878562Y713202D01*
X878562Y711298D02*
X872258Y711298D01*
X872258Y713202D01*
X878562Y713202D01*
X878562Y705452D02*
X878562Y703548D01*
X872258Y703548D01*
X872258Y705452D01*
X878562Y705452D01*
D26*
X879486Y697976D02*
X879486Y697024D01*
X871334Y697024D01*
X871334Y697976D01*
X879486Y697976D01*
X879486Y692976D02*
X879486Y692024D01*
X871334Y692024D01*
X871334Y692976D01*
X879486Y692976D01*
D10*
X508314Y698256D02*
X501646Y698256D01*
X501646Y704924D01*
X508314Y704924D01*
X508314Y698256D01*
X508314Y700368D02*
X501646Y700368D01*
X501646Y702480D02*
X508314Y702480D01*
X508314Y704592D02*
X501646Y704592D01*
X516886Y698256D02*
X523554Y698256D01*
X516886Y698256D02*
X516886Y704924D01*
X523554Y704924D01*
X523554Y698256D01*
X523554Y700368D02*
X516886Y700368D01*
X516886Y702480D02*
X523554Y702480D01*
X523554Y704592D02*
X516886Y704592D01*
X508314Y685556D02*
X501646Y685556D01*
X501646Y692224D01*
X508314Y692224D01*
X508314Y685556D01*
X508314Y687668D02*
X501646Y687668D01*
X501646Y689780D02*
X508314Y689780D01*
X508314Y691892D02*
X501646Y691892D01*
X516886Y685556D02*
X523554Y685556D01*
X516886Y685556D02*
X516886Y692224D01*
X523554Y692224D01*
X523554Y685556D01*
X523554Y687668D02*
X516886Y687668D01*
X516886Y689780D02*
X523554Y689780D01*
X523554Y691892D02*
X516886Y691892D01*
X508314Y672856D02*
X501646Y672856D01*
X501646Y679524D01*
X508314Y679524D01*
X508314Y672856D01*
X508314Y674968D02*
X501646Y674968D01*
X501646Y677080D02*
X508314Y677080D01*
X508314Y679192D02*
X501646Y679192D01*
X516886Y672856D02*
X523554Y672856D01*
X516886Y672856D02*
X516886Y679524D01*
X523554Y679524D01*
X523554Y672856D01*
X523554Y674968D02*
X516886Y674968D01*
X516886Y677080D02*
X523554Y677080D01*
X523554Y679192D02*
X516886Y679192D01*
X518156Y661744D02*
X518156Y655076D01*
X518156Y661744D02*
X524824Y661744D01*
X524824Y655076D01*
X518156Y655076D01*
X518156Y657188D02*
X524824Y657188D01*
X524824Y659300D02*
X518156Y659300D01*
X518156Y661412D02*
X524824Y661412D01*
X518156Y646504D02*
X518156Y639836D01*
X518156Y646504D02*
X524824Y646504D01*
X524824Y639836D01*
X518156Y639836D01*
X518156Y641948D02*
X524824Y641948D01*
X524824Y644060D02*
X518156Y644060D01*
X518156Y646172D02*
X524824Y646172D01*
X500376Y655076D02*
X500376Y661744D01*
X507044Y661744D01*
X507044Y655076D01*
X500376Y655076D01*
X500376Y657188D02*
X507044Y657188D01*
X507044Y659300D02*
X500376Y659300D01*
X500376Y661412D02*
X507044Y661412D01*
X500376Y646504D02*
X500376Y639836D01*
X500376Y646504D02*
X507044Y646504D01*
X507044Y639836D01*
X500376Y639836D01*
X500376Y641948D02*
X507044Y641948D01*
X507044Y644060D02*
X500376Y644060D01*
X500376Y646172D02*
X507044Y646172D01*
X577846Y669046D02*
X577846Y675714D01*
X584514Y675714D01*
X584514Y669046D01*
X577846Y669046D01*
X577846Y671158D02*
X584514Y671158D01*
X584514Y673270D02*
X577846Y673270D01*
X577846Y675382D02*
X584514Y675382D01*
X577846Y660474D02*
X577846Y653806D01*
X577846Y660474D02*
X584514Y660474D01*
X584514Y653806D01*
X577846Y653806D01*
X577846Y655918D02*
X584514Y655918D01*
X584514Y658030D02*
X577846Y658030D01*
X577846Y660142D02*
X584514Y660142D01*
X584514Y681746D02*
X584514Y688414D01*
X584514Y681746D02*
X577846Y681746D01*
X577846Y688414D01*
X584514Y688414D01*
X584514Y683858D02*
X577846Y683858D01*
X577846Y685970D02*
X584514Y685970D01*
X584514Y688082D02*
X577846Y688082D01*
X584514Y696986D02*
X584514Y703654D01*
X584514Y696986D02*
X577846Y696986D01*
X577846Y703654D01*
X584514Y703654D01*
X584514Y699098D02*
X577846Y699098D01*
X577846Y701210D02*
X584514Y701210D01*
X584514Y703322D02*
X577846Y703322D01*
X343214Y658886D02*
X336546Y658886D01*
X336546Y665554D01*
X343214Y665554D01*
X343214Y658886D01*
X343214Y660998D02*
X336546Y660998D01*
X336546Y663110D02*
X343214Y663110D01*
X343214Y665222D02*
X336546Y665222D01*
X351786Y658886D02*
X358454Y658886D01*
X351786Y658886D02*
X351786Y665554D01*
X358454Y665554D01*
X358454Y658886D01*
X358454Y660998D02*
X351786Y660998D01*
X351786Y663110D02*
X358454Y663110D01*
X358454Y665222D02*
X351786Y665222D01*
X443226Y693176D02*
X443226Y699844D01*
X449894Y699844D01*
X449894Y693176D01*
X443226Y693176D01*
X443226Y695288D02*
X449894Y695288D01*
X449894Y697400D02*
X443226Y697400D01*
X443226Y699512D02*
X449894Y699512D01*
X443226Y684604D02*
X443226Y677936D01*
X443226Y684604D02*
X449894Y684604D01*
X449894Y677936D01*
X443226Y677936D01*
X443226Y680048D02*
X449894Y680048D01*
X449894Y682160D02*
X443226Y682160D01*
X443226Y684272D02*
X449894Y684272D01*
X383854Y684604D02*
X383854Y677936D01*
X377186Y677936D01*
X377186Y684604D01*
X383854Y684604D01*
X383854Y680048D02*
X377186Y680048D01*
X377186Y682160D02*
X383854Y682160D01*
X383854Y684272D02*
X377186Y684272D01*
X383854Y693176D02*
X383854Y699844D01*
X383854Y693176D02*
X377186Y693176D01*
X377186Y699844D01*
X383854Y699844D01*
X383854Y695288D02*
X377186Y695288D01*
X377186Y697400D02*
X383854Y697400D01*
X383854Y699512D02*
X377186Y699512D01*
X368614Y684604D02*
X368614Y677936D01*
X361946Y677936D01*
X361946Y684604D01*
X368614Y684604D01*
X368614Y680048D02*
X361946Y680048D01*
X361946Y682160D02*
X368614Y682160D01*
X368614Y684272D02*
X361946Y684272D01*
X368614Y693176D02*
X368614Y699844D01*
X368614Y693176D02*
X361946Y693176D01*
X361946Y699844D01*
X368614Y699844D01*
X368614Y695288D02*
X361946Y695288D01*
X361946Y697400D02*
X368614Y697400D01*
X368614Y699512D02*
X361946Y699512D01*
D28*
X428706Y699325D02*
X428706Y697455D01*
X428706Y699325D02*
X437076Y699325D01*
X437076Y697455D01*
X428706Y697455D01*
X428706Y689825D02*
X428706Y687955D01*
X428706Y689825D02*
X437076Y689825D01*
X437076Y687955D01*
X428706Y687955D01*
X428706Y680325D02*
X428706Y678455D01*
X428706Y680325D02*
X437076Y680325D01*
X437076Y678455D01*
X428706Y678455D01*
X402704Y678455D02*
X402704Y680325D01*
X411074Y680325D01*
X411074Y678455D01*
X402704Y678455D01*
X402704Y697455D02*
X402704Y699325D01*
X411074Y699325D01*
X411074Y697455D01*
X402704Y697455D01*
X411074Y689825D02*
X411074Y687955D01*
X402704Y687955D01*
X402704Y689825D01*
X411074Y689825D01*
D16*
X467515Y692700D02*
X467515Y700320D01*
X478945Y700320D01*
X478945Y692700D01*
X467515Y692700D01*
X467515Y695113D02*
X478945Y695113D01*
X478945Y697526D02*
X467515Y697526D01*
X467515Y699939D02*
X478945Y699939D01*
X467515Y682540D02*
X467515Y674920D01*
X467515Y682540D02*
X478945Y682540D01*
X478945Y674920D01*
X467515Y674920D01*
X467515Y677333D02*
X478945Y677333D01*
X478945Y679746D02*
X467515Y679746D01*
X467515Y682159D02*
X478945Y682159D01*
D10*
X789936Y679524D02*
X796604Y679524D01*
X796604Y672856D01*
X789936Y672856D01*
X789936Y679524D01*
X789936Y674968D02*
X796604Y674968D01*
X796604Y677080D02*
X789936Y677080D01*
X789936Y679192D02*
X796604Y679192D01*
X781364Y679524D02*
X774696Y679524D01*
X781364Y679524D02*
X781364Y672856D01*
X774696Y672856D01*
X774696Y679524D01*
X774696Y674968D02*
X781364Y674968D01*
X781364Y677080D02*
X774696Y677080D01*
X774696Y679192D02*
X781364Y679192D01*
X789936Y717624D02*
X796604Y717624D01*
X796604Y710956D01*
X789936Y710956D01*
X789936Y717624D01*
X789936Y713068D02*
X796604Y713068D01*
X796604Y715180D02*
X789936Y715180D01*
X789936Y717292D02*
X796604Y717292D01*
X781364Y717624D02*
X774696Y717624D01*
X781364Y717624D02*
X781364Y710956D01*
X774696Y710956D01*
X774696Y717624D01*
X774696Y713068D02*
X781364Y713068D01*
X781364Y715180D02*
X774696Y715180D01*
X774696Y717292D02*
X781364Y717292D01*
X486406Y661744D02*
X486406Y655076D01*
X486406Y661744D02*
X493074Y661744D01*
X493074Y655076D01*
X486406Y655076D01*
X486406Y657188D02*
X493074Y657188D01*
X493074Y659300D02*
X486406Y659300D01*
X486406Y661412D02*
X493074Y661412D01*
X486406Y646504D02*
X486406Y639836D01*
X486406Y646504D02*
X493074Y646504D01*
X493074Y639836D01*
X486406Y639836D01*
X486406Y641948D02*
X493074Y641948D01*
X493074Y644060D02*
X486406Y644060D01*
X486406Y646172D02*
X493074Y646172D01*
D12*
X441100Y661760D02*
X434100Y661760D01*
X434100Y667760D01*
X441100Y667760D01*
X441100Y661760D01*
X441100Y663660D02*
X434100Y663660D01*
X434100Y665560D02*
X441100Y665560D01*
X441100Y667460D02*
X434100Y667460D01*
X457100Y661760D02*
X464100Y661760D01*
X457100Y661760D02*
X457100Y667760D01*
X464100Y667760D01*
X464100Y661760D01*
X464100Y663660D02*
X457100Y663660D01*
X457100Y665560D02*
X464100Y665560D01*
X464100Y667460D02*
X457100Y667460D01*
D16*
X444020Y636185D02*
X436400Y636185D01*
X436400Y647615D01*
X444020Y647615D01*
X444020Y636185D01*
X444020Y638598D02*
X436400Y638598D01*
X436400Y641011D02*
X444020Y641011D01*
X444020Y643424D02*
X436400Y643424D01*
X436400Y645837D02*
X444020Y645837D01*
X454180Y636185D02*
X461800Y636185D01*
X454180Y636185D02*
X454180Y647615D01*
X461800Y647615D01*
X461800Y636185D01*
X461800Y638598D02*
X454180Y638598D01*
X454180Y641011D02*
X461800Y641011D01*
X461800Y643424D02*
X454180Y643424D01*
X454180Y645837D02*
X461800Y645837D01*
D10*
X389886Y672856D02*
X389886Y679524D01*
X396554Y679524D01*
X396554Y672856D01*
X389886Y672856D01*
X389886Y674968D02*
X396554Y674968D01*
X396554Y677080D02*
X389886Y677080D01*
X389886Y679192D02*
X396554Y679192D01*
X389886Y664284D02*
X389886Y657616D01*
X389886Y664284D02*
X396554Y664284D01*
X396554Y657616D01*
X389886Y657616D01*
X389886Y659728D02*
X396554Y659728D01*
X396554Y661840D02*
X389886Y661840D01*
X389886Y663952D02*
X396554Y663952D01*
D29*
X404005Y643135D02*
X404005Y636485D01*
X404005Y643135D02*
X428155Y643135D01*
X428155Y636485D01*
X404005Y636485D01*
X404005Y639192D02*
X428155Y639192D01*
X428155Y641899D02*
X404005Y641899D01*
X428155Y660985D02*
X428155Y667635D01*
X428155Y660985D02*
X404005Y660985D01*
X404005Y667635D01*
X428155Y667635D01*
X428155Y663692D02*
X404005Y663692D01*
X404005Y666399D02*
X428155Y666399D01*
D30*
X839880Y645880D02*
X839880Y635380D01*
X829380Y635380D01*
X829380Y645880D01*
X839880Y645880D01*
X839880Y638705D02*
X829380Y638705D01*
X829380Y642030D02*
X839880Y642030D01*
X839880Y645355D02*
X829380Y645355D01*
X802880Y645880D02*
X802880Y635380D01*
X792380Y635380D01*
X792380Y645880D01*
X802880Y645880D01*
X802880Y638705D02*
X792380Y638705D01*
X792380Y642030D02*
X802880Y642030D01*
X802880Y645355D02*
X792380Y645355D01*
X839880Y651890D02*
X839880Y662390D01*
X839880Y651890D02*
X829380Y651890D01*
X829380Y662390D01*
X839880Y662390D01*
X839880Y655215D02*
X829380Y655215D01*
X829380Y658540D02*
X839880Y658540D01*
X839880Y661865D02*
X829380Y661865D01*
X802880Y662390D02*
X802880Y651890D01*
X792380Y651890D01*
X792380Y662390D01*
X802880Y662390D01*
X802880Y655215D02*
X792380Y655215D01*
X792380Y658540D02*
X802880Y658540D01*
X802880Y661865D02*
X792380Y661865D01*
D17*
X830960Y669130D02*
X830960Y675630D01*
X830960Y669130D02*
X826460Y669130D01*
X826460Y675630D01*
X830960Y675630D01*
X830960Y670555D02*
X826460Y670555D01*
X826460Y671980D02*
X830960Y671980D01*
X830960Y673405D02*
X826460Y673405D01*
X826460Y674830D02*
X830960Y674830D01*
X815960Y675630D02*
X815960Y669130D01*
X811460Y669130D01*
X811460Y675630D01*
X815960Y675630D01*
X815960Y670555D02*
X811460Y670555D01*
X811460Y671980D02*
X815960Y671980D01*
X815960Y673405D02*
X811460Y673405D01*
X811460Y674830D02*
X815960Y674830D01*
X811460Y717390D02*
X811460Y723890D01*
X815960Y723890D01*
X815960Y717390D01*
X811460Y717390D01*
X811460Y718815D02*
X815960Y718815D01*
X815960Y720240D02*
X811460Y720240D01*
X811460Y721665D02*
X815960Y721665D01*
X815960Y723090D02*
X811460Y723090D01*
X826460Y723890D02*
X826460Y717390D01*
X826460Y723890D02*
X830960Y723890D01*
X830960Y717390D01*
X826460Y717390D01*
X826460Y718815D02*
X830960Y718815D01*
X830960Y720240D02*
X826460Y720240D01*
X826460Y721665D02*
X830960Y721665D01*
X830960Y723090D02*
X826460Y723090D01*
D12*
X471500Y667060D02*
X471500Y660060D01*
X471500Y667060D02*
X477500Y667060D01*
X477500Y660060D01*
X471500Y660060D01*
X471500Y661960D02*
X477500Y661960D01*
X477500Y663860D02*
X471500Y663860D01*
X471500Y665760D02*
X477500Y665760D01*
X471500Y644060D02*
X471500Y637060D01*
X471500Y644060D02*
X477500Y644060D01*
X477500Y637060D01*
X471500Y637060D01*
X471500Y638960D02*
X477500Y638960D01*
X477500Y640860D02*
X471500Y640860D01*
X471500Y642760D02*
X477500Y642760D01*
D10*
X372804Y642694D02*
X372804Y636026D01*
X366136Y636026D01*
X366136Y642694D01*
X372804Y642694D01*
X372804Y638138D02*
X366136Y638138D01*
X366136Y640250D02*
X372804Y640250D01*
X372804Y642362D02*
X366136Y642362D01*
X356804Y642694D02*
X356804Y636026D01*
X350136Y636026D01*
X350136Y642694D01*
X356804Y642694D01*
X356804Y638138D02*
X350136Y638138D01*
X350136Y640250D02*
X356804Y640250D01*
X356804Y642362D02*
X350136Y642362D01*
D28*
X812394Y684805D02*
X812394Y686675D01*
X812394Y684805D02*
X804024Y684805D01*
X804024Y686675D01*
X812394Y686675D01*
X812394Y694305D02*
X812394Y696175D01*
X812394Y694305D02*
X804024Y694305D01*
X804024Y696175D01*
X812394Y696175D01*
X812394Y703805D02*
X812394Y705675D01*
X812394Y703805D02*
X804024Y703805D01*
X804024Y705675D01*
X812394Y705675D01*
X838396Y705675D02*
X838396Y703805D01*
X830026Y703805D01*
X830026Y705675D01*
X838396Y705675D01*
X838396Y686675D02*
X838396Y684805D01*
X830026Y684805D01*
X830026Y686675D01*
X838396Y686675D01*
X830026Y694305D02*
X830026Y696175D01*
X838396Y696175D01*
X838396Y694305D01*
X830026Y694305D01*
D26*
X322496Y668576D02*
X322496Y663424D01*
X321544Y663424D01*
X321544Y668576D01*
X322496Y668576D01*
X322496Y665180D02*
X321544Y665180D01*
X321544Y666936D02*
X322496Y666936D01*
X327496Y668576D02*
X327496Y663424D01*
X326544Y663424D01*
X326544Y668576D01*
X327496Y668576D01*
X327496Y665180D02*
X326544Y665180D01*
X326544Y666936D02*
X327496Y666936D01*
X317496Y668576D02*
X317496Y663424D01*
X316544Y663424D01*
X316544Y668576D01*
X317496Y668576D01*
X317496Y665180D02*
X316544Y665180D01*
X316544Y666936D02*
X317496Y666936D01*
X312496Y668576D02*
X312496Y663424D01*
X311544Y663424D01*
X311544Y668576D01*
X312496Y668576D01*
X312496Y665180D02*
X311544Y665180D01*
X311544Y666936D02*
X312496Y666936D01*
X307496Y668576D02*
X307496Y663424D01*
X306544Y663424D01*
X306544Y668576D01*
X307496Y668576D01*
X307496Y665180D02*
X306544Y665180D01*
X306544Y666936D02*
X307496Y666936D01*
X311544Y691424D02*
X311544Y696576D01*
X312496Y696576D01*
X312496Y691424D01*
X311544Y691424D01*
X311544Y693180D02*
X312496Y693180D01*
X312496Y694936D02*
X311544Y694936D01*
X307496Y696576D02*
X307496Y691424D01*
X306544Y691424D01*
X306544Y696576D01*
X307496Y696576D01*
X307496Y693180D02*
X306544Y693180D01*
X306544Y694936D02*
X307496Y694936D01*
X316544Y696576D02*
X316544Y691424D01*
X316544Y696576D02*
X317496Y696576D01*
X317496Y691424D01*
X316544Y691424D01*
X316544Y693180D02*
X317496Y693180D01*
X317496Y694936D02*
X316544Y694936D01*
X321544Y696576D02*
X321544Y691424D01*
X321544Y696576D02*
X322496Y696576D01*
X322496Y691424D01*
X321544Y691424D01*
X321544Y693180D02*
X322496Y693180D01*
X322496Y694936D02*
X321544Y694936D01*
X327496Y696576D02*
X327496Y691424D01*
X326544Y691424D01*
X326544Y696576D01*
X327496Y696576D01*
X327496Y693180D02*
X326544Y693180D01*
X326544Y694936D02*
X327496Y694936D01*
X305596Y674524D02*
X300444Y674524D01*
X300444Y675476D01*
X305596Y675476D01*
X305596Y674524D01*
X305596Y679524D02*
X300444Y679524D01*
X300444Y680476D01*
X305596Y680476D01*
X305596Y679524D01*
X305596Y684524D02*
X300444Y684524D01*
X300444Y685476D01*
X305596Y685476D01*
X305596Y684524D01*
X328444Y685476D02*
X333596Y685476D01*
X333596Y684524D01*
X328444Y684524D01*
X328444Y685476D01*
X328444Y680476D02*
X333596Y680476D01*
X333596Y679524D01*
X328444Y679524D01*
X328444Y680476D01*
X328444Y675476D02*
X333596Y675476D01*
X333596Y674524D01*
X328444Y674524D01*
X328444Y675476D01*
D10*
X349246Y688096D02*
X349246Y694764D01*
X355914Y694764D01*
X355914Y688096D01*
X349246Y688096D01*
X349246Y690208D02*
X355914Y690208D01*
X355914Y692320D02*
X349246Y692320D01*
X349246Y694432D02*
X355914Y694432D01*
X349246Y679524D02*
X349246Y672856D01*
X349246Y679524D02*
X355914Y679524D01*
X355914Y672856D01*
X349246Y672856D01*
X349246Y674968D02*
X355914Y674968D01*
X355914Y677080D02*
X349246Y677080D01*
X349246Y679192D02*
X355914Y679192D01*
D12*
X689256Y705860D02*
X696256Y705860D01*
X696256Y699860D01*
X689256Y699860D01*
X689256Y705860D01*
X689256Y701760D02*
X696256Y701760D01*
X696256Y703660D02*
X689256Y703660D01*
X689256Y705560D02*
X696256Y705560D01*
X673256Y705860D02*
X666256Y705860D01*
X673256Y705860D02*
X673256Y699860D01*
X666256Y699860D01*
X666256Y705860D01*
X666256Y701760D02*
X673256Y701760D01*
X673256Y703660D02*
X666256Y703660D01*
X666256Y705560D02*
X673256Y705560D01*
D10*
X531746Y646504D02*
X531746Y639836D01*
X531746Y646504D02*
X538414Y646504D01*
X538414Y639836D01*
X531746Y639836D01*
X531746Y641948D02*
X538414Y641948D01*
X538414Y644060D02*
X531746Y644060D01*
X531746Y646172D02*
X538414Y646172D01*
X547746Y646504D02*
X547746Y639836D01*
X547746Y646504D02*
X554414Y646504D01*
X554414Y639836D01*
X547746Y639836D01*
X547746Y641948D02*
X554414Y641948D01*
X554414Y644060D02*
X547746Y644060D01*
X547746Y646172D02*
X554414Y646172D01*
X293684Y656982D02*
X287016Y656982D01*
X287016Y663650D01*
X293684Y663650D01*
X293684Y656982D01*
X293684Y659094D02*
X287016Y659094D01*
X287016Y661206D02*
X293684Y661206D01*
X293684Y663318D02*
X287016Y663318D01*
X287016Y672982D02*
X293684Y672982D01*
X287016Y672982D02*
X287016Y679650D01*
X293684Y679650D01*
X293684Y672982D01*
X293684Y675094D02*
X287016Y675094D01*
X287016Y677206D02*
X293684Y677206D01*
X293684Y679318D02*
X287016Y679318D01*
X563876Y658314D02*
X570544Y658314D01*
X570544Y651646D01*
X563876Y651646D01*
X563876Y658314D01*
X563876Y653758D02*
X570544Y653758D01*
X570544Y655870D02*
X563876Y655870D01*
X563876Y657982D02*
X570544Y657982D01*
X570544Y642314D02*
X563876Y642314D01*
X570544Y642314D02*
X570544Y635646D01*
X563876Y635646D01*
X563876Y642314D01*
X563876Y637758D02*
X570544Y637758D01*
X570544Y639870D02*
X563876Y639870D01*
X563876Y641982D02*
X570544Y641982D01*
X330260Y644980D02*
X323592Y644980D01*
X330260Y644980D02*
X330260Y638312D01*
X323592Y638312D01*
X323592Y644980D01*
X323592Y640424D02*
X330260Y640424D01*
X330260Y642536D02*
X323592Y642536D01*
X323592Y644648D02*
X330260Y644648D01*
X315020Y644980D02*
X308352Y644980D01*
X315020Y644980D02*
X315020Y638312D01*
X308352Y638312D01*
X308352Y644980D01*
X308352Y640424D02*
X315020Y640424D01*
X315020Y642536D02*
X308352Y642536D01*
X308352Y644648D02*
X315020Y644648D01*
X270824Y719846D02*
X264156Y719846D01*
X264156Y726514D01*
X270824Y726514D01*
X270824Y719846D01*
X270824Y721958D02*
X264156Y721958D01*
X264156Y724070D02*
X270824Y724070D01*
X270824Y726182D02*
X264156Y726182D01*
X279396Y719846D02*
X286064Y719846D01*
X279396Y719846D02*
X279396Y726514D01*
X286064Y726514D01*
X286064Y719846D01*
X286064Y721958D02*
X279396Y721958D01*
X279396Y724070D02*
X286064Y724070D01*
X286064Y726182D02*
X279396Y726182D01*
X373694Y656664D02*
X373694Y649996D01*
X367026Y649996D01*
X367026Y656664D01*
X373694Y656664D01*
X373694Y652108D02*
X367026Y652108D01*
X367026Y654220D02*
X373694Y654220D01*
X373694Y656332D02*
X367026Y656332D01*
X373694Y665236D02*
X373694Y671904D01*
X373694Y665236D02*
X367026Y665236D01*
X367026Y671904D01*
X373694Y671904D01*
X373694Y667348D02*
X367026Y667348D01*
X367026Y669460D02*
X373694Y669460D01*
X373694Y671572D02*
X367026Y671572D01*
X685542Y660474D02*
X692210Y660474D01*
X692210Y653806D01*
X685542Y653806D01*
X685542Y660474D01*
X685542Y655918D02*
X692210Y655918D01*
X692210Y658030D02*
X685542Y658030D01*
X685542Y660142D02*
X692210Y660142D01*
X676970Y660474D02*
X670302Y660474D01*
X676970Y660474D02*
X676970Y653806D01*
X670302Y653806D01*
X670302Y660474D01*
X670302Y655918D02*
X676970Y655918D01*
X676970Y658030D02*
X670302Y658030D01*
X670302Y660142D02*
X676970Y660142D01*
M02*
