M48
;GenerationSoftware,Autodesk,EAGLE,9.6.0*%
;CreationDate,2021-05-06T09:47:57Z*%
FMAT,2
ICI,OFF
METRIC,TZ,000.000
T3C0.300
T2C3.050
T1C3.300
%
G90
M71
T1
X-2550Y-8000
X-2550Y0
T2
X-45901Y0
X-45901Y-8000
T3
X-42601Y2000
X-42601Y0
X-42601Y-2000
X-40601Y2000
X-40601Y0
X-40601Y-2000
X-5701Y2000
X-5701Y0
X-5701Y-2000
X-7301Y1000
X-7301Y-1000
X-9101Y0
X-38601Y2000
X-38601Y0
X-38601Y-2000
X-12601Y2000
X-12601Y0
X-12601Y-2000
X-42601Y-6000
X-42601Y-8000
X-42601Y-10000
X-40601Y-6000
X-40601Y-8000
X-40601Y-10000
X-5701Y-6000
X-5701Y-8000
X-5701Y-10000
X-7301Y-7000
X-7301Y-9000
X-9101Y-8000
X-38601Y-6000
X-38601Y-8000
X-38601Y-10000
X-12601Y-6000
X-12601Y-8000
X-12601Y-10000
M30