G04 EAGLE Gerber RS-274X export*
G75*
%MOMM*%
%FSLAX34Y34*%
%LPD*%
%INSilkscreen Top*%
%IPPOS*%
%AMOC8*
5,1,8,0,0,1.08239X$1,22.5*%
G01*
%ADD10C,0.254000*%
%ADD11C,0.203200*%


D10*
X-362201Y-8382D02*
X-362201Y8382D01*
X-357544Y8382D01*
X-357409Y8380D01*
X-357273Y8374D01*
X-357138Y8364D01*
X-357003Y8351D01*
X-356869Y8333D01*
X-356735Y8311D01*
X-356602Y8286D01*
X-356470Y8256D01*
X-356339Y8223D01*
X-356208Y8186D01*
X-356079Y8146D01*
X-355951Y8101D01*
X-355825Y8053D01*
X-355699Y8001D01*
X-355576Y7946D01*
X-355454Y7887D01*
X-355334Y7824D01*
X-355215Y7758D01*
X-355099Y7689D01*
X-354985Y7616D01*
X-354873Y7540D01*
X-354763Y7460D01*
X-354656Y7378D01*
X-354551Y7292D01*
X-354448Y7204D01*
X-354348Y7112D01*
X-354251Y7018D01*
X-354157Y6921D01*
X-354065Y6821D01*
X-353977Y6718D01*
X-353891Y6613D01*
X-353809Y6506D01*
X-353729Y6396D01*
X-353653Y6284D01*
X-353580Y6170D01*
X-353511Y6053D01*
X-353445Y5935D01*
X-353382Y5815D01*
X-353323Y5693D01*
X-353268Y5570D01*
X-353216Y5444D01*
X-353168Y5318D01*
X-353123Y5190D01*
X-353083Y5061D01*
X-353046Y4930D01*
X-353013Y4799D01*
X-352983Y4667D01*
X-352958Y4534D01*
X-352936Y4400D01*
X-352918Y4266D01*
X-352905Y4131D01*
X-352895Y3996D01*
X-352889Y3860D01*
X-352887Y3725D01*
X-352889Y3590D01*
X-352895Y3454D01*
X-352905Y3319D01*
X-352918Y3184D01*
X-352936Y3050D01*
X-352958Y2916D01*
X-352983Y2783D01*
X-353013Y2651D01*
X-353046Y2520D01*
X-353083Y2389D01*
X-353123Y2260D01*
X-353168Y2132D01*
X-353216Y2006D01*
X-353268Y1880D01*
X-353323Y1757D01*
X-353382Y1635D01*
X-353445Y1515D01*
X-353511Y1396D01*
X-353580Y1280D01*
X-353653Y1166D01*
X-353729Y1054D01*
X-353809Y944D01*
X-353891Y837D01*
X-353977Y732D01*
X-354065Y629D01*
X-354157Y529D01*
X-354251Y432D01*
X-354348Y338D01*
X-354448Y246D01*
X-354551Y158D01*
X-354656Y72D01*
X-354763Y-10D01*
X-354873Y-90D01*
X-354985Y-166D01*
X-355099Y-239D01*
X-355216Y-308D01*
X-355334Y-374D01*
X-355454Y-437D01*
X-355576Y-496D01*
X-355699Y-551D01*
X-355825Y-603D01*
X-355951Y-651D01*
X-356079Y-696D01*
X-356208Y-736D01*
X-356339Y-773D01*
X-356470Y-806D01*
X-356602Y-836D01*
X-356735Y-861D01*
X-356869Y-883D01*
X-357003Y-901D01*
X-357138Y-914D01*
X-357273Y-924D01*
X-357409Y-930D01*
X-357544Y-932D01*
X-357544Y-931D02*
X-362201Y-931D01*
X-339215Y931D02*
X-336421Y931D01*
X-336421Y-8382D01*
X-342009Y-8382D01*
X-342128Y-8380D01*
X-342248Y-8374D01*
X-342367Y-8365D01*
X-342485Y-8351D01*
X-342604Y-8334D01*
X-342721Y-8313D01*
X-342838Y-8289D01*
X-342954Y-8260D01*
X-343069Y-8228D01*
X-343183Y-8192D01*
X-343295Y-8153D01*
X-343407Y-8110D01*
X-343517Y-8063D01*
X-343625Y-8013D01*
X-343732Y-7960D01*
X-343837Y-7903D01*
X-343940Y-7842D01*
X-344041Y-7779D01*
X-344140Y-7712D01*
X-344237Y-7642D01*
X-344331Y-7569D01*
X-344424Y-7493D01*
X-344513Y-7415D01*
X-344600Y-7333D01*
X-344685Y-7248D01*
X-344767Y-7161D01*
X-344845Y-7072D01*
X-344921Y-6979D01*
X-344994Y-6885D01*
X-345064Y-6788D01*
X-345131Y-6689D01*
X-345194Y-6588D01*
X-345255Y-6485D01*
X-345312Y-6380D01*
X-345365Y-6273D01*
X-345415Y-6165D01*
X-345462Y-6055D01*
X-345505Y-5943D01*
X-345544Y-5831D01*
X-345580Y-5717D01*
X-345612Y-5602D01*
X-345641Y-5486D01*
X-345665Y-5369D01*
X-345686Y-5252D01*
X-345703Y-5133D01*
X-345717Y-5015D01*
X-345726Y-4896D01*
X-345732Y-4776D01*
X-345734Y-4657D01*
X-345734Y4657D01*
X-345732Y4776D01*
X-345726Y4896D01*
X-345717Y5015D01*
X-345703Y5133D01*
X-345686Y5252D01*
X-345665Y5369D01*
X-345641Y5486D01*
X-345612Y5602D01*
X-345580Y5717D01*
X-345544Y5831D01*
X-345505Y5943D01*
X-345462Y6055D01*
X-345415Y6165D01*
X-345365Y6273D01*
X-345312Y6380D01*
X-345255Y6485D01*
X-345194Y6588D01*
X-345131Y6689D01*
X-345064Y6788D01*
X-344994Y6885D01*
X-344921Y6979D01*
X-344845Y7072D01*
X-344767Y7161D01*
X-344685Y7248D01*
X-344600Y7333D01*
X-344513Y7415D01*
X-344424Y7493D01*
X-344331Y7569D01*
X-344237Y7642D01*
X-344140Y7712D01*
X-344041Y7779D01*
X-343940Y7842D01*
X-343837Y7903D01*
X-343732Y7960D01*
X-343625Y8013D01*
X-343517Y8063D01*
X-343407Y8110D01*
X-343295Y8153D01*
X-343183Y8192D01*
X-343069Y8228D01*
X-342954Y8260D01*
X-342838Y8289D01*
X-342721Y8313D01*
X-342604Y8334D01*
X-342485Y8351D01*
X-342367Y8365D01*
X-342248Y8374D01*
X-342128Y8380D01*
X-342009Y8382D01*
X-336421Y8382D01*
X-327867Y8382D02*
X-327867Y-8382D01*
X-318553Y-8382D02*
X-327867Y8382D01*
X-318553Y8382D02*
X-318553Y-8382D01*
X-310000Y-8382D02*
X-310000Y8382D01*
X-305343Y8382D01*
X-305208Y8380D01*
X-305072Y8374D01*
X-304937Y8364D01*
X-304802Y8351D01*
X-304668Y8333D01*
X-304534Y8311D01*
X-304401Y8286D01*
X-304269Y8256D01*
X-304138Y8223D01*
X-304007Y8186D01*
X-303878Y8146D01*
X-303750Y8101D01*
X-303624Y8053D01*
X-303498Y8001D01*
X-303375Y7946D01*
X-303253Y7887D01*
X-303133Y7824D01*
X-303015Y7758D01*
X-302898Y7689D01*
X-302784Y7616D01*
X-302672Y7540D01*
X-302562Y7460D01*
X-302455Y7378D01*
X-302350Y7292D01*
X-302247Y7204D01*
X-302147Y7112D01*
X-302050Y7018D01*
X-301956Y6921D01*
X-301864Y6821D01*
X-301776Y6718D01*
X-301690Y6613D01*
X-301608Y6506D01*
X-301528Y6396D01*
X-301452Y6284D01*
X-301379Y6170D01*
X-301310Y6054D01*
X-301244Y5935D01*
X-301181Y5815D01*
X-301122Y5693D01*
X-301067Y5570D01*
X-301015Y5444D01*
X-300967Y5318D01*
X-300922Y5190D01*
X-300882Y5061D01*
X-300845Y4930D01*
X-300812Y4799D01*
X-300782Y4667D01*
X-300757Y4534D01*
X-300735Y4400D01*
X-300717Y4266D01*
X-300704Y4131D01*
X-300694Y3996D01*
X-300688Y3860D01*
X-300686Y3725D01*
X-300686Y-3725D01*
X-300688Y-3860D01*
X-300694Y-3996D01*
X-300704Y-4131D01*
X-300717Y-4266D01*
X-300735Y-4400D01*
X-300757Y-4534D01*
X-300782Y-4667D01*
X-300812Y-4799D01*
X-300845Y-4930D01*
X-300882Y-5061D01*
X-300922Y-5190D01*
X-300967Y-5318D01*
X-301015Y-5444D01*
X-301067Y-5570D01*
X-301122Y-5693D01*
X-301181Y-5815D01*
X-301244Y-5935D01*
X-301310Y-6054D01*
X-301379Y-6170D01*
X-301452Y-6284D01*
X-301528Y-6396D01*
X-301608Y-6506D01*
X-301690Y-6613D01*
X-301776Y-6718D01*
X-301864Y-6821D01*
X-301956Y-6921D01*
X-302050Y-7018D01*
X-302147Y-7112D01*
X-302247Y-7204D01*
X-302350Y-7292D01*
X-302455Y-7378D01*
X-302562Y-7460D01*
X-302672Y-7540D01*
X-302784Y-7616D01*
X-302898Y-7689D01*
X-303015Y-7758D01*
X-303133Y-7824D01*
X-303253Y-7887D01*
X-303375Y-7946D01*
X-303498Y-8001D01*
X-303624Y-8053D01*
X-303750Y-8101D01*
X-303878Y-8146D01*
X-304007Y-8186D01*
X-304138Y-8223D01*
X-304269Y-8256D01*
X-304401Y-8286D01*
X-304534Y-8311D01*
X-304668Y-8333D01*
X-304802Y-8351D01*
X-304937Y-8364D01*
X-305072Y-8374D01*
X-305208Y-8380D01*
X-305343Y-8382D01*
X-310000Y-8382D01*
X-280084Y-8382D02*
X-276358Y-8382D01*
X-280084Y-8382D02*
X-280203Y-8380D01*
X-280323Y-8374D01*
X-280442Y-8365D01*
X-280560Y-8351D01*
X-280679Y-8334D01*
X-280796Y-8313D01*
X-280913Y-8289D01*
X-281029Y-8260D01*
X-281144Y-8228D01*
X-281258Y-8192D01*
X-281370Y-8153D01*
X-281482Y-8110D01*
X-281592Y-8063D01*
X-281700Y-8013D01*
X-281807Y-7960D01*
X-281912Y-7903D01*
X-282015Y-7842D01*
X-282116Y-7779D01*
X-282215Y-7712D01*
X-282312Y-7642D01*
X-282406Y-7569D01*
X-282499Y-7493D01*
X-282588Y-7415D01*
X-282675Y-7333D01*
X-282760Y-7248D01*
X-282842Y-7161D01*
X-282920Y-7072D01*
X-282996Y-6979D01*
X-283069Y-6885D01*
X-283139Y-6788D01*
X-283206Y-6689D01*
X-283269Y-6588D01*
X-283330Y-6485D01*
X-283387Y-6380D01*
X-283440Y-6273D01*
X-283490Y-6165D01*
X-283537Y-6055D01*
X-283580Y-5943D01*
X-283619Y-5831D01*
X-283655Y-5717D01*
X-283687Y-5602D01*
X-283716Y-5486D01*
X-283740Y-5369D01*
X-283761Y-5252D01*
X-283778Y-5133D01*
X-283792Y-5015D01*
X-283801Y-4896D01*
X-283807Y-4776D01*
X-283809Y-4657D01*
X-283809Y4657D01*
X-283807Y4776D01*
X-283801Y4896D01*
X-283792Y5015D01*
X-283778Y5133D01*
X-283761Y5252D01*
X-283740Y5369D01*
X-283716Y5486D01*
X-283687Y5602D01*
X-283655Y5717D01*
X-283619Y5831D01*
X-283580Y5943D01*
X-283537Y6055D01*
X-283490Y6165D01*
X-283440Y6273D01*
X-283387Y6380D01*
X-283330Y6485D01*
X-283269Y6588D01*
X-283206Y6689D01*
X-283139Y6788D01*
X-283069Y6885D01*
X-282996Y6979D01*
X-282920Y7072D01*
X-282842Y7161D01*
X-282760Y7248D01*
X-282675Y7333D01*
X-282588Y7415D01*
X-282499Y7493D01*
X-282406Y7569D01*
X-282312Y7642D01*
X-282215Y7712D01*
X-282116Y7779D01*
X-282015Y7842D01*
X-281912Y7903D01*
X-281807Y7960D01*
X-281700Y8013D01*
X-281592Y8063D01*
X-281482Y8110D01*
X-281370Y8153D01*
X-281258Y8192D01*
X-281144Y8228D01*
X-281029Y8260D01*
X-280913Y8289D01*
X-280796Y8313D01*
X-280679Y8334D01*
X-280560Y8351D01*
X-280442Y8365D01*
X-280323Y8374D01*
X-280203Y8380D01*
X-280084Y8382D01*
X-276358Y8382D01*
X-269984Y-931D02*
X-269984Y-4657D01*
X-269984Y-931D02*
X-269982Y-810D01*
X-269976Y-690D01*
X-269966Y-570D01*
X-269953Y-450D01*
X-269935Y-330D01*
X-269914Y-212D01*
X-269889Y-94D01*
X-269860Y23D01*
X-269827Y139D01*
X-269790Y254D01*
X-269750Y368D01*
X-269706Y481D01*
X-269659Y591D01*
X-269608Y701D01*
X-269553Y808D01*
X-269495Y914D01*
X-269434Y1018D01*
X-269369Y1120D01*
X-269301Y1219D01*
X-269229Y1317D01*
X-269155Y1412D01*
X-269078Y1504D01*
X-268997Y1594D01*
X-268914Y1682D01*
X-268828Y1766D01*
X-268740Y1848D01*
X-268648Y1927D01*
X-268554Y2003D01*
X-268458Y2075D01*
X-268360Y2145D01*
X-268259Y2212D01*
X-268156Y2275D01*
X-268051Y2334D01*
X-267945Y2391D01*
X-267836Y2444D01*
X-267726Y2493D01*
X-267615Y2539D01*
X-267501Y2581D01*
X-267387Y2619D01*
X-267272Y2654D01*
X-267155Y2685D01*
X-267037Y2712D01*
X-266919Y2735D01*
X-266800Y2755D01*
X-266680Y2770D01*
X-266560Y2782D01*
X-266440Y2790D01*
X-266319Y2794D01*
X-266199Y2794D01*
X-266078Y2790D01*
X-265958Y2782D01*
X-265838Y2770D01*
X-265718Y2755D01*
X-265599Y2735D01*
X-265481Y2712D01*
X-265363Y2685D01*
X-265246Y2654D01*
X-265131Y2619D01*
X-265017Y2581D01*
X-264903Y2539D01*
X-264792Y2493D01*
X-264682Y2444D01*
X-264573Y2391D01*
X-264467Y2334D01*
X-264362Y2275D01*
X-264259Y2212D01*
X-264158Y2145D01*
X-264060Y2075D01*
X-263964Y2003D01*
X-263870Y1927D01*
X-263778Y1848D01*
X-263690Y1766D01*
X-263604Y1682D01*
X-263521Y1594D01*
X-263440Y1504D01*
X-263363Y1412D01*
X-263289Y1317D01*
X-263217Y1219D01*
X-263149Y1120D01*
X-263084Y1018D01*
X-263023Y914D01*
X-262965Y808D01*
X-262910Y701D01*
X-262859Y591D01*
X-262812Y481D01*
X-262768Y368D01*
X-262728Y254D01*
X-262691Y139D01*
X-262658Y23D01*
X-262629Y-94D01*
X-262604Y-212D01*
X-262583Y-330D01*
X-262565Y-450D01*
X-262552Y-570D01*
X-262542Y-690D01*
X-262536Y-810D01*
X-262534Y-931D01*
X-262533Y-931D02*
X-262533Y-4657D01*
X-262534Y-4657D02*
X-262536Y-4778D01*
X-262542Y-4898D01*
X-262552Y-5018D01*
X-262565Y-5138D01*
X-262583Y-5258D01*
X-262604Y-5376D01*
X-262629Y-5494D01*
X-262658Y-5611D01*
X-262691Y-5727D01*
X-262728Y-5842D01*
X-262768Y-5956D01*
X-262812Y-6069D01*
X-262859Y-6179D01*
X-262910Y-6289D01*
X-262965Y-6396D01*
X-263023Y-6502D01*
X-263084Y-6606D01*
X-263149Y-6708D01*
X-263217Y-6807D01*
X-263289Y-6905D01*
X-263363Y-7000D01*
X-263440Y-7092D01*
X-263521Y-7182D01*
X-263604Y-7270D01*
X-263690Y-7354D01*
X-263778Y-7436D01*
X-263870Y-7515D01*
X-263964Y-7591D01*
X-264060Y-7663D01*
X-264158Y-7733D01*
X-264259Y-7800D01*
X-264362Y-7863D01*
X-264467Y-7922D01*
X-264573Y-7979D01*
X-264682Y-8032D01*
X-264792Y-8081D01*
X-264903Y-8127D01*
X-265017Y-8169D01*
X-265131Y-8207D01*
X-265246Y-8242D01*
X-265363Y-8273D01*
X-265481Y-8300D01*
X-265599Y-8323D01*
X-265718Y-8343D01*
X-265838Y-8358D01*
X-265958Y-8370D01*
X-266078Y-8378D01*
X-266199Y-8382D01*
X-266319Y-8382D01*
X-266440Y-8378D01*
X-266560Y-8370D01*
X-266680Y-8358D01*
X-266800Y-8343D01*
X-266919Y-8323D01*
X-267037Y-8300D01*
X-267155Y-8273D01*
X-267272Y-8242D01*
X-267387Y-8207D01*
X-267501Y-8169D01*
X-267615Y-8127D01*
X-267726Y-8081D01*
X-267836Y-8032D01*
X-267945Y-7979D01*
X-268051Y-7922D01*
X-268156Y-7863D01*
X-268259Y-7800D01*
X-268360Y-7733D01*
X-268458Y-7663D01*
X-268554Y-7591D01*
X-268648Y-7515D01*
X-268740Y-7436D01*
X-268828Y-7354D01*
X-268914Y-7270D01*
X-268997Y-7182D01*
X-269078Y-7092D01*
X-269155Y-7000D01*
X-269229Y-6905D01*
X-269301Y-6807D01*
X-269369Y-6708D01*
X-269434Y-6606D01*
X-269495Y-6502D01*
X-269553Y-6396D01*
X-269608Y-6289D01*
X-269659Y-6179D01*
X-269706Y-6069D01*
X-269750Y-5956D01*
X-269790Y-5842D01*
X-269827Y-5727D01*
X-269860Y-5611D01*
X-269889Y-5494D01*
X-269914Y-5376D01*
X-269935Y-5258D01*
X-269953Y-5138D01*
X-269966Y-5018D01*
X-269976Y-4898D01*
X-269982Y-4778D01*
X-269984Y-4657D01*
X-254909Y-8382D02*
X-254909Y2794D01*
X-250252Y2794D01*
X-250148Y2792D01*
X-250043Y2786D01*
X-249939Y2776D01*
X-249836Y2763D01*
X-249733Y2745D01*
X-249630Y2724D01*
X-249529Y2699D01*
X-249428Y2670D01*
X-249329Y2637D01*
X-249231Y2601D01*
X-249135Y2561D01*
X-249040Y2517D01*
X-248946Y2470D01*
X-248855Y2420D01*
X-248766Y2366D01*
X-248678Y2309D01*
X-248593Y2248D01*
X-248510Y2184D01*
X-248430Y2118D01*
X-248352Y2048D01*
X-248276Y1976D01*
X-248204Y1900D01*
X-248134Y1822D01*
X-248068Y1742D01*
X-248004Y1659D01*
X-247943Y1574D01*
X-247886Y1486D01*
X-247832Y1397D01*
X-247782Y1306D01*
X-247735Y1212D01*
X-247691Y1117D01*
X-247651Y1021D01*
X-247615Y923D01*
X-247582Y824D01*
X-247553Y723D01*
X-247528Y622D01*
X-247507Y519D01*
X-247489Y416D01*
X-247476Y313D01*
X-247466Y209D01*
X-247460Y104D01*
X-247458Y0D01*
X-247458Y-8382D01*
X-239275Y-8382D02*
X-239275Y2794D01*
X-234618Y2794D01*
X-234514Y2792D01*
X-234409Y2786D01*
X-234305Y2776D01*
X-234202Y2763D01*
X-234099Y2745D01*
X-233996Y2724D01*
X-233895Y2699D01*
X-233794Y2670D01*
X-233695Y2637D01*
X-233597Y2601D01*
X-233501Y2561D01*
X-233406Y2517D01*
X-233312Y2470D01*
X-233221Y2420D01*
X-233132Y2366D01*
X-233044Y2309D01*
X-232959Y2248D01*
X-232876Y2184D01*
X-232796Y2118D01*
X-232718Y2048D01*
X-232642Y1976D01*
X-232570Y1900D01*
X-232500Y1822D01*
X-232434Y1742D01*
X-232370Y1659D01*
X-232309Y1574D01*
X-232252Y1486D01*
X-232198Y1397D01*
X-232148Y1306D01*
X-232101Y1212D01*
X-232057Y1117D01*
X-232017Y1021D01*
X-231981Y923D01*
X-231948Y824D01*
X-231919Y723D01*
X-231894Y622D01*
X-231873Y519D01*
X-231855Y416D01*
X-231842Y313D01*
X-231832Y209D01*
X-231826Y104D01*
X-231824Y0D01*
X-231824Y-8382D01*
X-223641Y-8382D02*
X-223641Y2794D01*
X-218984Y2794D01*
X-218880Y2792D01*
X-218775Y2786D01*
X-218671Y2776D01*
X-218568Y2763D01*
X-218465Y2745D01*
X-218362Y2724D01*
X-218261Y2699D01*
X-218160Y2670D01*
X-218061Y2637D01*
X-217963Y2601D01*
X-217867Y2561D01*
X-217772Y2517D01*
X-217678Y2470D01*
X-217587Y2420D01*
X-217498Y2366D01*
X-217410Y2309D01*
X-217325Y2248D01*
X-217242Y2184D01*
X-217162Y2118D01*
X-217084Y2048D01*
X-217008Y1976D01*
X-216936Y1900D01*
X-216866Y1822D01*
X-216800Y1742D01*
X-216736Y1659D01*
X-216675Y1574D01*
X-216618Y1486D01*
X-216564Y1397D01*
X-216514Y1306D01*
X-216467Y1212D01*
X-216423Y1117D01*
X-216383Y1021D01*
X-216347Y923D01*
X-216314Y824D01*
X-216285Y723D01*
X-216260Y622D01*
X-216239Y519D01*
X-216221Y416D01*
X-216208Y313D01*
X-216198Y209D01*
X-216192Y104D01*
X-216190Y0D01*
X-216190Y-8382D01*
X-205772Y-8382D02*
X-201115Y-8382D01*
X-205772Y-8382D02*
X-205876Y-8380D01*
X-205981Y-8374D01*
X-206085Y-8364D01*
X-206188Y-8351D01*
X-206291Y-8333D01*
X-206394Y-8312D01*
X-206495Y-8287D01*
X-206596Y-8258D01*
X-206695Y-8225D01*
X-206793Y-8189D01*
X-206889Y-8149D01*
X-206984Y-8105D01*
X-207078Y-8058D01*
X-207169Y-8008D01*
X-207258Y-7954D01*
X-207346Y-7897D01*
X-207431Y-7836D01*
X-207514Y-7772D01*
X-207594Y-7706D01*
X-207672Y-7636D01*
X-207748Y-7564D01*
X-207820Y-7488D01*
X-207890Y-7410D01*
X-207956Y-7330D01*
X-208020Y-7247D01*
X-208081Y-7162D01*
X-208138Y-7074D01*
X-208192Y-6985D01*
X-208242Y-6894D01*
X-208289Y-6800D01*
X-208333Y-6705D01*
X-208373Y-6609D01*
X-208409Y-6511D01*
X-208442Y-6412D01*
X-208471Y-6311D01*
X-208496Y-6210D01*
X-208517Y-6107D01*
X-208535Y-6004D01*
X-208548Y-5901D01*
X-208558Y-5797D01*
X-208564Y-5692D01*
X-208566Y-5588D01*
X-208566Y-931D01*
X-208565Y-931D02*
X-208563Y-810D01*
X-208557Y-690D01*
X-208547Y-570D01*
X-208534Y-450D01*
X-208516Y-330D01*
X-208495Y-212D01*
X-208470Y-94D01*
X-208441Y23D01*
X-208408Y139D01*
X-208371Y254D01*
X-208331Y368D01*
X-208287Y481D01*
X-208240Y591D01*
X-208189Y701D01*
X-208134Y808D01*
X-208076Y914D01*
X-208015Y1018D01*
X-207950Y1120D01*
X-207882Y1219D01*
X-207810Y1317D01*
X-207736Y1412D01*
X-207659Y1504D01*
X-207578Y1594D01*
X-207495Y1682D01*
X-207409Y1766D01*
X-207321Y1848D01*
X-207229Y1927D01*
X-207135Y2003D01*
X-207039Y2075D01*
X-206941Y2145D01*
X-206840Y2212D01*
X-206737Y2275D01*
X-206632Y2334D01*
X-206526Y2391D01*
X-206417Y2444D01*
X-206307Y2493D01*
X-206196Y2539D01*
X-206082Y2581D01*
X-205968Y2619D01*
X-205853Y2654D01*
X-205736Y2685D01*
X-205618Y2712D01*
X-205500Y2735D01*
X-205381Y2755D01*
X-205261Y2770D01*
X-205141Y2782D01*
X-205021Y2790D01*
X-204900Y2794D01*
X-204780Y2794D01*
X-204659Y2790D01*
X-204539Y2782D01*
X-204419Y2770D01*
X-204299Y2755D01*
X-204180Y2735D01*
X-204062Y2712D01*
X-203944Y2685D01*
X-203827Y2654D01*
X-203712Y2619D01*
X-203598Y2581D01*
X-203484Y2539D01*
X-203373Y2493D01*
X-203263Y2444D01*
X-203154Y2391D01*
X-203048Y2334D01*
X-202943Y2275D01*
X-202840Y2212D01*
X-202739Y2145D01*
X-202641Y2075D01*
X-202545Y2003D01*
X-202451Y1927D01*
X-202359Y1848D01*
X-202271Y1766D01*
X-202185Y1682D01*
X-202102Y1594D01*
X-202021Y1504D01*
X-201944Y1412D01*
X-201870Y1317D01*
X-201798Y1219D01*
X-201730Y1120D01*
X-201665Y1018D01*
X-201604Y914D01*
X-201546Y808D01*
X-201491Y701D01*
X-201440Y591D01*
X-201393Y481D01*
X-201349Y368D01*
X-201309Y254D01*
X-201272Y139D01*
X-201239Y23D01*
X-201210Y-94D01*
X-201185Y-212D01*
X-201164Y-330D01*
X-201146Y-450D01*
X-201133Y-570D01*
X-201123Y-690D01*
X-201117Y-810D01*
X-201115Y-931D01*
X-201115Y-2794D01*
X-208566Y-2794D01*
X-191230Y-8382D02*
X-187505Y-8382D01*
X-191230Y-8382D02*
X-191334Y-8380D01*
X-191439Y-8374D01*
X-191543Y-8364D01*
X-191646Y-8351D01*
X-191749Y-8333D01*
X-191852Y-8312D01*
X-191953Y-8287D01*
X-192054Y-8258D01*
X-192153Y-8225D01*
X-192251Y-8189D01*
X-192347Y-8149D01*
X-192442Y-8105D01*
X-192536Y-8058D01*
X-192627Y-8008D01*
X-192716Y-7954D01*
X-192804Y-7897D01*
X-192889Y-7836D01*
X-192972Y-7772D01*
X-193052Y-7706D01*
X-193130Y-7636D01*
X-193206Y-7564D01*
X-193278Y-7488D01*
X-193348Y-7410D01*
X-193414Y-7330D01*
X-193478Y-7247D01*
X-193539Y-7162D01*
X-193596Y-7074D01*
X-193650Y-6985D01*
X-193700Y-6894D01*
X-193747Y-6800D01*
X-193791Y-6705D01*
X-193831Y-6609D01*
X-193867Y-6511D01*
X-193900Y-6412D01*
X-193929Y-6311D01*
X-193954Y-6210D01*
X-193975Y-6107D01*
X-193993Y-6004D01*
X-194006Y-5901D01*
X-194016Y-5797D01*
X-194022Y-5692D01*
X-194024Y-5588D01*
X-194024Y0D01*
X-194022Y104D01*
X-194016Y209D01*
X-194006Y313D01*
X-193993Y416D01*
X-193975Y519D01*
X-193954Y622D01*
X-193929Y723D01*
X-193900Y824D01*
X-193867Y923D01*
X-193831Y1021D01*
X-193791Y1117D01*
X-193747Y1212D01*
X-193700Y1306D01*
X-193650Y1397D01*
X-193596Y1486D01*
X-193539Y1574D01*
X-193478Y1659D01*
X-193414Y1742D01*
X-193348Y1822D01*
X-193278Y1900D01*
X-193206Y1976D01*
X-193130Y2048D01*
X-193052Y2118D01*
X-192972Y2184D01*
X-192889Y2248D01*
X-192804Y2309D01*
X-192716Y2366D01*
X-192627Y2420D01*
X-192536Y2470D01*
X-192442Y2517D01*
X-192347Y2561D01*
X-192251Y2601D01*
X-192153Y2637D01*
X-192054Y2670D01*
X-191953Y2699D01*
X-191852Y2724D01*
X-191749Y2745D01*
X-191646Y2763D01*
X-191543Y2776D01*
X-191439Y2786D01*
X-191334Y2792D01*
X-191230Y2794D01*
X-187505Y2794D01*
X-182666Y2794D02*
X-177078Y2794D01*
X-180803Y8382D02*
X-180803Y-5588D01*
X-180801Y-5692D01*
X-180795Y-5797D01*
X-180785Y-5901D01*
X-180772Y-6004D01*
X-180754Y-6107D01*
X-180733Y-6210D01*
X-180708Y-6311D01*
X-180679Y-6412D01*
X-180646Y-6511D01*
X-180610Y-6609D01*
X-180570Y-6705D01*
X-180526Y-6800D01*
X-180479Y-6894D01*
X-180429Y-6985D01*
X-180375Y-7074D01*
X-180318Y-7162D01*
X-180257Y-7247D01*
X-180193Y-7330D01*
X-180127Y-7410D01*
X-180057Y-7488D01*
X-179985Y-7564D01*
X-179909Y-7636D01*
X-179831Y-7706D01*
X-179751Y-7772D01*
X-179668Y-7836D01*
X-179583Y-7897D01*
X-179495Y-7954D01*
X-179406Y-8008D01*
X-179315Y-8058D01*
X-179221Y-8105D01*
X-179126Y-8149D01*
X-179030Y-8189D01*
X-178932Y-8225D01*
X-178833Y-8258D01*
X-178732Y-8287D01*
X-178631Y-8312D01*
X-178528Y-8333D01*
X-178425Y-8351D01*
X-178322Y-8364D01*
X-178218Y-8374D01*
X-178113Y-8380D01*
X-178009Y-8382D01*
X-177078Y-8382D01*
X-170598Y-4657D02*
X-170598Y-931D01*
X-170596Y-810D01*
X-170590Y-690D01*
X-170580Y-570D01*
X-170567Y-450D01*
X-170549Y-330D01*
X-170528Y-212D01*
X-170503Y-94D01*
X-170474Y23D01*
X-170441Y139D01*
X-170404Y254D01*
X-170364Y368D01*
X-170320Y481D01*
X-170273Y591D01*
X-170222Y701D01*
X-170167Y808D01*
X-170109Y914D01*
X-170048Y1018D01*
X-169983Y1120D01*
X-169915Y1219D01*
X-169843Y1317D01*
X-169769Y1412D01*
X-169692Y1504D01*
X-169611Y1594D01*
X-169528Y1682D01*
X-169442Y1766D01*
X-169354Y1848D01*
X-169262Y1927D01*
X-169168Y2003D01*
X-169072Y2075D01*
X-168974Y2145D01*
X-168873Y2212D01*
X-168770Y2275D01*
X-168665Y2334D01*
X-168559Y2391D01*
X-168450Y2444D01*
X-168340Y2493D01*
X-168229Y2539D01*
X-168115Y2581D01*
X-168001Y2619D01*
X-167886Y2654D01*
X-167769Y2685D01*
X-167651Y2712D01*
X-167533Y2735D01*
X-167414Y2755D01*
X-167294Y2770D01*
X-167174Y2782D01*
X-167054Y2790D01*
X-166933Y2794D01*
X-166813Y2794D01*
X-166692Y2790D01*
X-166572Y2782D01*
X-166452Y2770D01*
X-166332Y2755D01*
X-166213Y2735D01*
X-166095Y2712D01*
X-165977Y2685D01*
X-165860Y2654D01*
X-165745Y2619D01*
X-165631Y2581D01*
X-165517Y2539D01*
X-165406Y2493D01*
X-165296Y2444D01*
X-165187Y2391D01*
X-165081Y2334D01*
X-164976Y2275D01*
X-164873Y2212D01*
X-164772Y2145D01*
X-164674Y2075D01*
X-164578Y2003D01*
X-164484Y1927D01*
X-164392Y1848D01*
X-164304Y1766D01*
X-164218Y1682D01*
X-164135Y1594D01*
X-164054Y1504D01*
X-163977Y1412D01*
X-163903Y1317D01*
X-163831Y1219D01*
X-163763Y1120D01*
X-163698Y1018D01*
X-163637Y914D01*
X-163579Y808D01*
X-163524Y701D01*
X-163473Y591D01*
X-163426Y481D01*
X-163382Y368D01*
X-163342Y254D01*
X-163305Y139D01*
X-163272Y23D01*
X-163243Y-94D01*
X-163218Y-212D01*
X-163197Y-330D01*
X-163179Y-450D01*
X-163166Y-570D01*
X-163156Y-690D01*
X-163150Y-810D01*
X-163148Y-931D01*
X-163147Y-931D02*
X-163147Y-4657D01*
X-163148Y-4657D02*
X-163150Y-4778D01*
X-163156Y-4898D01*
X-163166Y-5018D01*
X-163179Y-5138D01*
X-163197Y-5258D01*
X-163218Y-5376D01*
X-163243Y-5494D01*
X-163272Y-5611D01*
X-163305Y-5727D01*
X-163342Y-5842D01*
X-163382Y-5956D01*
X-163426Y-6069D01*
X-163473Y-6179D01*
X-163524Y-6289D01*
X-163579Y-6396D01*
X-163637Y-6502D01*
X-163698Y-6606D01*
X-163763Y-6708D01*
X-163831Y-6807D01*
X-163903Y-6905D01*
X-163977Y-7000D01*
X-164054Y-7092D01*
X-164135Y-7182D01*
X-164218Y-7270D01*
X-164304Y-7354D01*
X-164392Y-7436D01*
X-164484Y-7515D01*
X-164578Y-7591D01*
X-164674Y-7663D01*
X-164772Y-7733D01*
X-164873Y-7800D01*
X-164976Y-7863D01*
X-165081Y-7922D01*
X-165187Y-7979D01*
X-165296Y-8032D01*
X-165406Y-8081D01*
X-165517Y-8127D01*
X-165631Y-8169D01*
X-165745Y-8207D01*
X-165860Y-8242D01*
X-165977Y-8273D01*
X-166095Y-8300D01*
X-166213Y-8323D01*
X-166332Y-8343D01*
X-166452Y-8358D01*
X-166572Y-8370D01*
X-166692Y-8378D01*
X-166813Y-8382D01*
X-166933Y-8382D01*
X-167054Y-8378D01*
X-167174Y-8370D01*
X-167294Y-8358D01*
X-167414Y-8343D01*
X-167533Y-8323D01*
X-167651Y-8300D01*
X-167769Y-8273D01*
X-167886Y-8242D01*
X-168001Y-8207D01*
X-168115Y-8169D01*
X-168229Y-8127D01*
X-168340Y-8081D01*
X-168450Y-8032D01*
X-168559Y-7979D01*
X-168665Y-7922D01*
X-168770Y-7863D01*
X-168873Y-7800D01*
X-168974Y-7733D01*
X-169072Y-7663D01*
X-169168Y-7591D01*
X-169262Y-7515D01*
X-169354Y-7436D01*
X-169442Y-7354D01*
X-169528Y-7270D01*
X-169611Y-7182D01*
X-169692Y-7092D01*
X-169769Y-7000D01*
X-169843Y-6905D01*
X-169915Y-6807D01*
X-169983Y-6708D01*
X-170048Y-6606D01*
X-170109Y-6502D01*
X-170167Y-6396D01*
X-170222Y-6289D01*
X-170273Y-6179D01*
X-170320Y-6069D01*
X-170364Y-5956D01*
X-170404Y-5842D01*
X-170441Y-5727D01*
X-170474Y-5611D01*
X-170503Y-5494D01*
X-170528Y-5376D01*
X-170549Y-5258D01*
X-170567Y-5138D01*
X-170580Y-5018D01*
X-170590Y-4898D01*
X-170596Y-4778D01*
X-170598Y-4657D01*
X-155407Y-8382D02*
X-155407Y2794D01*
X-149819Y2794D01*
X-149819Y931D01*
D11*
X-407632Y16230D02*
X-413982Y-16790D01*
X-401790Y-4090D02*
X-407632Y16230D01*
X-401790Y-4090D02*
X-410172Y-4852D01*
X-401028Y-13996D01*
X-411188Y-14758D01*
X-402298Y-5614D01*
X-397472Y-16790D01*
D10*
X-362201Y-71618D02*
X-362201Y-88382D01*
X-362201Y-71618D02*
X-357544Y-71618D01*
X-357409Y-71620D01*
X-357273Y-71626D01*
X-357138Y-71636D01*
X-357003Y-71649D01*
X-356869Y-71667D01*
X-356735Y-71689D01*
X-356602Y-71714D01*
X-356470Y-71744D01*
X-356339Y-71777D01*
X-356208Y-71814D01*
X-356079Y-71854D01*
X-355951Y-71899D01*
X-355825Y-71947D01*
X-355699Y-71999D01*
X-355576Y-72054D01*
X-355454Y-72113D01*
X-355334Y-72176D01*
X-355215Y-72242D01*
X-355099Y-72311D01*
X-354985Y-72384D01*
X-354873Y-72460D01*
X-354763Y-72540D01*
X-354656Y-72622D01*
X-354551Y-72708D01*
X-354448Y-72796D01*
X-354348Y-72888D01*
X-354251Y-72982D01*
X-354157Y-73079D01*
X-354065Y-73179D01*
X-353977Y-73282D01*
X-353891Y-73387D01*
X-353809Y-73494D01*
X-353729Y-73604D01*
X-353653Y-73716D01*
X-353580Y-73830D01*
X-353511Y-73947D01*
X-353445Y-74065D01*
X-353382Y-74185D01*
X-353323Y-74307D01*
X-353268Y-74430D01*
X-353216Y-74556D01*
X-353168Y-74682D01*
X-353123Y-74810D01*
X-353083Y-74939D01*
X-353046Y-75070D01*
X-353013Y-75201D01*
X-352983Y-75333D01*
X-352958Y-75466D01*
X-352936Y-75600D01*
X-352918Y-75734D01*
X-352905Y-75869D01*
X-352895Y-76004D01*
X-352889Y-76140D01*
X-352887Y-76275D01*
X-352889Y-76410D01*
X-352895Y-76546D01*
X-352905Y-76681D01*
X-352918Y-76816D01*
X-352936Y-76950D01*
X-352958Y-77084D01*
X-352983Y-77217D01*
X-353013Y-77349D01*
X-353046Y-77480D01*
X-353083Y-77611D01*
X-353123Y-77740D01*
X-353168Y-77868D01*
X-353216Y-77994D01*
X-353268Y-78120D01*
X-353323Y-78243D01*
X-353382Y-78365D01*
X-353445Y-78485D01*
X-353511Y-78604D01*
X-353580Y-78720D01*
X-353653Y-78834D01*
X-353729Y-78946D01*
X-353809Y-79056D01*
X-353891Y-79163D01*
X-353977Y-79268D01*
X-354065Y-79371D01*
X-354157Y-79471D01*
X-354251Y-79568D01*
X-354348Y-79662D01*
X-354448Y-79754D01*
X-354551Y-79842D01*
X-354656Y-79928D01*
X-354763Y-80010D01*
X-354873Y-80090D01*
X-354985Y-80166D01*
X-355099Y-80239D01*
X-355216Y-80308D01*
X-355334Y-80374D01*
X-355454Y-80437D01*
X-355576Y-80496D01*
X-355699Y-80551D01*
X-355825Y-80603D01*
X-355951Y-80651D01*
X-356079Y-80696D01*
X-356208Y-80736D01*
X-356339Y-80773D01*
X-356470Y-80806D01*
X-356602Y-80836D01*
X-356735Y-80861D01*
X-356869Y-80883D01*
X-357003Y-80901D01*
X-357138Y-80914D01*
X-357273Y-80924D01*
X-357409Y-80930D01*
X-357544Y-80932D01*
X-357544Y-80931D02*
X-362201Y-80931D01*
X-339215Y-79069D02*
X-336421Y-79069D01*
X-336421Y-88382D01*
X-342009Y-88382D01*
X-342128Y-88380D01*
X-342248Y-88374D01*
X-342367Y-88365D01*
X-342485Y-88351D01*
X-342604Y-88334D01*
X-342721Y-88313D01*
X-342838Y-88289D01*
X-342954Y-88260D01*
X-343069Y-88228D01*
X-343183Y-88192D01*
X-343295Y-88153D01*
X-343407Y-88110D01*
X-343517Y-88063D01*
X-343625Y-88013D01*
X-343732Y-87960D01*
X-343837Y-87903D01*
X-343940Y-87842D01*
X-344041Y-87779D01*
X-344140Y-87712D01*
X-344237Y-87642D01*
X-344331Y-87569D01*
X-344424Y-87493D01*
X-344513Y-87415D01*
X-344600Y-87333D01*
X-344685Y-87248D01*
X-344767Y-87161D01*
X-344845Y-87072D01*
X-344921Y-86979D01*
X-344994Y-86885D01*
X-345064Y-86788D01*
X-345131Y-86689D01*
X-345194Y-86588D01*
X-345255Y-86485D01*
X-345312Y-86380D01*
X-345365Y-86273D01*
X-345415Y-86165D01*
X-345462Y-86055D01*
X-345505Y-85943D01*
X-345544Y-85831D01*
X-345580Y-85717D01*
X-345612Y-85602D01*
X-345641Y-85486D01*
X-345665Y-85369D01*
X-345686Y-85252D01*
X-345703Y-85133D01*
X-345717Y-85015D01*
X-345726Y-84896D01*
X-345732Y-84776D01*
X-345734Y-84657D01*
X-345734Y-75343D01*
X-345732Y-75221D01*
X-345726Y-75099D01*
X-345716Y-74978D01*
X-345702Y-74857D01*
X-345684Y-74736D01*
X-345662Y-74616D01*
X-345637Y-74497D01*
X-345607Y-74379D01*
X-345574Y-74262D01*
X-345536Y-74146D01*
X-345495Y-74031D01*
X-345450Y-73918D01*
X-345402Y-73806D01*
X-345350Y-73695D01*
X-345294Y-73587D01*
X-345235Y-73481D01*
X-345172Y-73376D01*
X-345106Y-73274D01*
X-345037Y-73173D01*
X-344964Y-73075D01*
X-344888Y-72980D01*
X-344810Y-72887D01*
X-344728Y-72797D01*
X-344643Y-72709D01*
X-344555Y-72624D01*
X-344465Y-72542D01*
X-344372Y-72464D01*
X-344277Y-72388D01*
X-344179Y-72315D01*
X-344079Y-72246D01*
X-343976Y-72180D01*
X-343872Y-72117D01*
X-343765Y-72058D01*
X-343657Y-72002D01*
X-343546Y-71950D01*
X-343435Y-71902D01*
X-343321Y-71857D01*
X-343206Y-71816D01*
X-343090Y-71778D01*
X-342973Y-71745D01*
X-342855Y-71715D01*
X-342736Y-71690D01*
X-342616Y-71668D01*
X-342495Y-71650D01*
X-342374Y-71636D01*
X-342253Y-71626D01*
X-342131Y-71620D01*
X-342009Y-71618D01*
X-336421Y-71618D01*
X-327867Y-71618D02*
X-327867Y-88382D01*
X-318553Y-88382D02*
X-327867Y-71618D01*
X-318553Y-71618D02*
X-318553Y-88382D01*
X-310000Y-88382D02*
X-310000Y-71618D01*
X-305343Y-71618D01*
X-305208Y-71620D01*
X-305072Y-71626D01*
X-304937Y-71636D01*
X-304802Y-71649D01*
X-304668Y-71667D01*
X-304534Y-71689D01*
X-304401Y-71714D01*
X-304269Y-71744D01*
X-304138Y-71777D01*
X-304007Y-71814D01*
X-303878Y-71854D01*
X-303750Y-71899D01*
X-303624Y-71947D01*
X-303498Y-71999D01*
X-303375Y-72054D01*
X-303253Y-72113D01*
X-303133Y-72176D01*
X-303015Y-72242D01*
X-302898Y-72311D01*
X-302784Y-72384D01*
X-302672Y-72460D01*
X-302562Y-72540D01*
X-302455Y-72622D01*
X-302350Y-72708D01*
X-302247Y-72796D01*
X-302147Y-72888D01*
X-302050Y-72982D01*
X-301956Y-73079D01*
X-301864Y-73179D01*
X-301776Y-73282D01*
X-301690Y-73387D01*
X-301608Y-73494D01*
X-301528Y-73604D01*
X-301452Y-73716D01*
X-301379Y-73830D01*
X-301310Y-73947D01*
X-301244Y-74065D01*
X-301181Y-74185D01*
X-301122Y-74307D01*
X-301067Y-74430D01*
X-301015Y-74556D01*
X-300967Y-74682D01*
X-300922Y-74810D01*
X-300882Y-74939D01*
X-300845Y-75070D01*
X-300812Y-75201D01*
X-300782Y-75333D01*
X-300757Y-75466D01*
X-300735Y-75600D01*
X-300717Y-75734D01*
X-300704Y-75869D01*
X-300694Y-76004D01*
X-300688Y-76140D01*
X-300686Y-76275D01*
X-300686Y-83725D01*
X-300688Y-83860D01*
X-300694Y-83996D01*
X-300704Y-84131D01*
X-300717Y-84266D01*
X-300735Y-84400D01*
X-300757Y-84534D01*
X-300782Y-84667D01*
X-300812Y-84799D01*
X-300845Y-84930D01*
X-300882Y-85061D01*
X-300922Y-85190D01*
X-300967Y-85318D01*
X-301015Y-85444D01*
X-301067Y-85570D01*
X-301122Y-85693D01*
X-301181Y-85815D01*
X-301244Y-85935D01*
X-301310Y-86054D01*
X-301379Y-86170D01*
X-301452Y-86284D01*
X-301528Y-86396D01*
X-301608Y-86506D01*
X-301690Y-86613D01*
X-301776Y-86718D01*
X-301864Y-86821D01*
X-301956Y-86921D01*
X-302050Y-87018D01*
X-302147Y-87112D01*
X-302247Y-87204D01*
X-302350Y-87292D01*
X-302455Y-87378D01*
X-302562Y-87460D01*
X-302672Y-87540D01*
X-302784Y-87616D01*
X-302898Y-87689D01*
X-303015Y-87758D01*
X-303133Y-87824D01*
X-303253Y-87887D01*
X-303375Y-87946D01*
X-303498Y-88001D01*
X-303624Y-88053D01*
X-303750Y-88101D01*
X-303878Y-88146D01*
X-304007Y-88186D01*
X-304138Y-88223D01*
X-304269Y-88256D01*
X-304401Y-88286D01*
X-304534Y-88311D01*
X-304668Y-88333D01*
X-304802Y-88351D01*
X-304937Y-88364D01*
X-305072Y-88374D01*
X-305208Y-88380D01*
X-305343Y-88382D01*
X-310000Y-88382D01*
X-280084Y-88382D02*
X-276358Y-88382D01*
X-280084Y-88382D02*
X-280203Y-88380D01*
X-280323Y-88374D01*
X-280442Y-88365D01*
X-280560Y-88351D01*
X-280679Y-88334D01*
X-280796Y-88313D01*
X-280913Y-88289D01*
X-281029Y-88260D01*
X-281144Y-88228D01*
X-281258Y-88192D01*
X-281370Y-88153D01*
X-281482Y-88110D01*
X-281592Y-88063D01*
X-281700Y-88013D01*
X-281807Y-87960D01*
X-281912Y-87903D01*
X-282015Y-87842D01*
X-282116Y-87779D01*
X-282215Y-87712D01*
X-282312Y-87642D01*
X-282406Y-87569D01*
X-282499Y-87493D01*
X-282588Y-87415D01*
X-282675Y-87333D01*
X-282760Y-87248D01*
X-282842Y-87161D01*
X-282920Y-87072D01*
X-282996Y-86979D01*
X-283069Y-86885D01*
X-283139Y-86788D01*
X-283206Y-86689D01*
X-283269Y-86588D01*
X-283330Y-86485D01*
X-283387Y-86380D01*
X-283440Y-86273D01*
X-283490Y-86165D01*
X-283537Y-86055D01*
X-283580Y-85943D01*
X-283619Y-85831D01*
X-283655Y-85717D01*
X-283687Y-85602D01*
X-283716Y-85486D01*
X-283740Y-85369D01*
X-283761Y-85252D01*
X-283778Y-85133D01*
X-283792Y-85015D01*
X-283801Y-84896D01*
X-283807Y-84776D01*
X-283809Y-84657D01*
X-283809Y-75343D01*
X-283807Y-75221D01*
X-283801Y-75099D01*
X-283791Y-74978D01*
X-283777Y-74857D01*
X-283759Y-74736D01*
X-283737Y-74616D01*
X-283712Y-74497D01*
X-283682Y-74379D01*
X-283649Y-74262D01*
X-283611Y-74146D01*
X-283570Y-74031D01*
X-283525Y-73918D01*
X-283477Y-73806D01*
X-283425Y-73695D01*
X-283369Y-73587D01*
X-283310Y-73481D01*
X-283247Y-73376D01*
X-283181Y-73274D01*
X-283112Y-73173D01*
X-283039Y-73075D01*
X-282963Y-72980D01*
X-282885Y-72887D01*
X-282803Y-72797D01*
X-282718Y-72709D01*
X-282630Y-72624D01*
X-282540Y-72542D01*
X-282447Y-72464D01*
X-282352Y-72388D01*
X-282254Y-72315D01*
X-282154Y-72246D01*
X-282051Y-72180D01*
X-281947Y-72117D01*
X-281840Y-72058D01*
X-281732Y-72002D01*
X-281621Y-71950D01*
X-281510Y-71902D01*
X-281396Y-71857D01*
X-281281Y-71816D01*
X-281165Y-71778D01*
X-281048Y-71745D01*
X-280930Y-71715D01*
X-280811Y-71690D01*
X-280691Y-71668D01*
X-280570Y-71650D01*
X-280449Y-71636D01*
X-280328Y-71626D01*
X-280206Y-71620D01*
X-280084Y-71618D01*
X-276358Y-71618D01*
X-269984Y-80931D02*
X-269984Y-84657D01*
X-269984Y-80931D02*
X-269982Y-80810D01*
X-269976Y-80690D01*
X-269966Y-80570D01*
X-269953Y-80450D01*
X-269935Y-80330D01*
X-269914Y-80212D01*
X-269889Y-80094D01*
X-269860Y-79977D01*
X-269827Y-79861D01*
X-269790Y-79746D01*
X-269750Y-79632D01*
X-269706Y-79519D01*
X-269659Y-79409D01*
X-269608Y-79299D01*
X-269553Y-79192D01*
X-269495Y-79086D01*
X-269434Y-78982D01*
X-269369Y-78880D01*
X-269301Y-78781D01*
X-269229Y-78683D01*
X-269155Y-78588D01*
X-269078Y-78496D01*
X-268997Y-78406D01*
X-268914Y-78318D01*
X-268828Y-78234D01*
X-268740Y-78152D01*
X-268648Y-78073D01*
X-268554Y-77997D01*
X-268458Y-77925D01*
X-268360Y-77855D01*
X-268259Y-77788D01*
X-268156Y-77725D01*
X-268051Y-77666D01*
X-267945Y-77609D01*
X-267836Y-77556D01*
X-267726Y-77507D01*
X-267615Y-77461D01*
X-267501Y-77419D01*
X-267387Y-77381D01*
X-267272Y-77346D01*
X-267155Y-77315D01*
X-267037Y-77288D01*
X-266919Y-77265D01*
X-266800Y-77245D01*
X-266680Y-77230D01*
X-266560Y-77218D01*
X-266440Y-77210D01*
X-266319Y-77206D01*
X-266199Y-77206D01*
X-266078Y-77210D01*
X-265958Y-77218D01*
X-265838Y-77230D01*
X-265718Y-77245D01*
X-265599Y-77265D01*
X-265481Y-77288D01*
X-265363Y-77315D01*
X-265246Y-77346D01*
X-265131Y-77381D01*
X-265017Y-77419D01*
X-264903Y-77461D01*
X-264792Y-77507D01*
X-264682Y-77556D01*
X-264573Y-77609D01*
X-264467Y-77666D01*
X-264362Y-77725D01*
X-264259Y-77788D01*
X-264158Y-77855D01*
X-264060Y-77925D01*
X-263964Y-77997D01*
X-263870Y-78073D01*
X-263778Y-78152D01*
X-263690Y-78234D01*
X-263604Y-78318D01*
X-263521Y-78406D01*
X-263440Y-78496D01*
X-263363Y-78588D01*
X-263289Y-78683D01*
X-263217Y-78781D01*
X-263149Y-78880D01*
X-263084Y-78982D01*
X-263023Y-79086D01*
X-262965Y-79192D01*
X-262910Y-79299D01*
X-262859Y-79409D01*
X-262812Y-79519D01*
X-262768Y-79632D01*
X-262728Y-79746D01*
X-262691Y-79861D01*
X-262658Y-79977D01*
X-262629Y-80094D01*
X-262604Y-80212D01*
X-262583Y-80330D01*
X-262565Y-80450D01*
X-262552Y-80570D01*
X-262542Y-80690D01*
X-262536Y-80810D01*
X-262534Y-80931D01*
X-262533Y-80931D02*
X-262533Y-84657D01*
X-262534Y-84657D02*
X-262536Y-84778D01*
X-262542Y-84898D01*
X-262552Y-85018D01*
X-262565Y-85138D01*
X-262583Y-85258D01*
X-262604Y-85376D01*
X-262629Y-85494D01*
X-262658Y-85611D01*
X-262691Y-85727D01*
X-262728Y-85842D01*
X-262768Y-85956D01*
X-262812Y-86069D01*
X-262859Y-86179D01*
X-262910Y-86289D01*
X-262965Y-86396D01*
X-263023Y-86502D01*
X-263084Y-86606D01*
X-263149Y-86708D01*
X-263217Y-86807D01*
X-263289Y-86905D01*
X-263363Y-87000D01*
X-263440Y-87092D01*
X-263521Y-87182D01*
X-263604Y-87270D01*
X-263690Y-87354D01*
X-263778Y-87436D01*
X-263870Y-87515D01*
X-263964Y-87591D01*
X-264060Y-87663D01*
X-264158Y-87733D01*
X-264259Y-87800D01*
X-264362Y-87863D01*
X-264467Y-87922D01*
X-264573Y-87979D01*
X-264682Y-88032D01*
X-264792Y-88081D01*
X-264903Y-88127D01*
X-265017Y-88169D01*
X-265131Y-88207D01*
X-265246Y-88242D01*
X-265363Y-88273D01*
X-265481Y-88300D01*
X-265599Y-88323D01*
X-265718Y-88343D01*
X-265838Y-88358D01*
X-265958Y-88370D01*
X-266078Y-88378D01*
X-266199Y-88382D01*
X-266319Y-88382D01*
X-266440Y-88378D01*
X-266560Y-88370D01*
X-266680Y-88358D01*
X-266800Y-88343D01*
X-266919Y-88323D01*
X-267037Y-88300D01*
X-267155Y-88273D01*
X-267272Y-88242D01*
X-267387Y-88207D01*
X-267501Y-88169D01*
X-267615Y-88127D01*
X-267726Y-88081D01*
X-267836Y-88032D01*
X-267945Y-87979D01*
X-268051Y-87922D01*
X-268156Y-87863D01*
X-268259Y-87800D01*
X-268360Y-87733D01*
X-268458Y-87663D01*
X-268554Y-87591D01*
X-268648Y-87515D01*
X-268740Y-87436D01*
X-268828Y-87354D01*
X-268914Y-87270D01*
X-268997Y-87182D01*
X-269078Y-87092D01*
X-269155Y-87000D01*
X-269229Y-86905D01*
X-269301Y-86807D01*
X-269369Y-86708D01*
X-269434Y-86606D01*
X-269495Y-86502D01*
X-269553Y-86396D01*
X-269608Y-86289D01*
X-269659Y-86179D01*
X-269706Y-86069D01*
X-269750Y-85956D01*
X-269790Y-85842D01*
X-269827Y-85727D01*
X-269860Y-85611D01*
X-269889Y-85494D01*
X-269914Y-85376D01*
X-269935Y-85258D01*
X-269953Y-85138D01*
X-269966Y-85018D01*
X-269976Y-84898D01*
X-269982Y-84778D01*
X-269984Y-84657D01*
X-254909Y-88382D02*
X-254909Y-77206D01*
X-250252Y-77206D01*
X-250148Y-77208D01*
X-250043Y-77214D01*
X-249939Y-77224D01*
X-249836Y-77237D01*
X-249733Y-77255D01*
X-249630Y-77276D01*
X-249529Y-77301D01*
X-249428Y-77330D01*
X-249329Y-77363D01*
X-249231Y-77399D01*
X-249135Y-77439D01*
X-249040Y-77483D01*
X-248946Y-77530D01*
X-248855Y-77580D01*
X-248766Y-77634D01*
X-248678Y-77691D01*
X-248593Y-77752D01*
X-248510Y-77816D01*
X-248430Y-77882D01*
X-248352Y-77952D01*
X-248276Y-78024D01*
X-248204Y-78100D01*
X-248134Y-78178D01*
X-248068Y-78258D01*
X-248004Y-78341D01*
X-247943Y-78426D01*
X-247886Y-78514D01*
X-247832Y-78603D01*
X-247782Y-78694D01*
X-247735Y-78788D01*
X-247691Y-78883D01*
X-247651Y-78979D01*
X-247615Y-79077D01*
X-247582Y-79176D01*
X-247553Y-79277D01*
X-247528Y-79378D01*
X-247507Y-79481D01*
X-247489Y-79584D01*
X-247476Y-79687D01*
X-247466Y-79791D01*
X-247460Y-79896D01*
X-247458Y-80000D01*
X-247458Y-88382D01*
X-239275Y-88382D02*
X-239275Y-77206D01*
X-234618Y-77206D01*
X-234514Y-77208D01*
X-234409Y-77214D01*
X-234305Y-77224D01*
X-234202Y-77237D01*
X-234099Y-77255D01*
X-233996Y-77276D01*
X-233895Y-77301D01*
X-233794Y-77330D01*
X-233695Y-77363D01*
X-233597Y-77399D01*
X-233501Y-77439D01*
X-233406Y-77483D01*
X-233312Y-77530D01*
X-233221Y-77580D01*
X-233132Y-77634D01*
X-233044Y-77691D01*
X-232959Y-77752D01*
X-232876Y-77816D01*
X-232796Y-77882D01*
X-232718Y-77952D01*
X-232642Y-78024D01*
X-232570Y-78100D01*
X-232500Y-78178D01*
X-232434Y-78258D01*
X-232370Y-78341D01*
X-232309Y-78426D01*
X-232252Y-78514D01*
X-232198Y-78603D01*
X-232148Y-78694D01*
X-232101Y-78788D01*
X-232057Y-78883D01*
X-232017Y-78979D01*
X-231981Y-79077D01*
X-231948Y-79176D01*
X-231919Y-79277D01*
X-231894Y-79378D01*
X-231873Y-79481D01*
X-231855Y-79584D01*
X-231842Y-79687D01*
X-231832Y-79791D01*
X-231826Y-79896D01*
X-231824Y-80000D01*
X-231824Y-88382D01*
X-223641Y-88382D02*
X-223641Y-77206D01*
X-218984Y-77206D01*
X-218880Y-77208D01*
X-218775Y-77214D01*
X-218671Y-77224D01*
X-218568Y-77237D01*
X-218465Y-77255D01*
X-218362Y-77276D01*
X-218261Y-77301D01*
X-218160Y-77330D01*
X-218061Y-77363D01*
X-217963Y-77399D01*
X-217867Y-77439D01*
X-217772Y-77483D01*
X-217678Y-77530D01*
X-217587Y-77580D01*
X-217498Y-77634D01*
X-217410Y-77691D01*
X-217325Y-77752D01*
X-217242Y-77816D01*
X-217162Y-77882D01*
X-217084Y-77952D01*
X-217008Y-78024D01*
X-216936Y-78100D01*
X-216866Y-78178D01*
X-216800Y-78258D01*
X-216736Y-78341D01*
X-216675Y-78426D01*
X-216618Y-78514D01*
X-216564Y-78603D01*
X-216514Y-78694D01*
X-216467Y-78788D01*
X-216423Y-78883D01*
X-216383Y-78979D01*
X-216347Y-79077D01*
X-216314Y-79176D01*
X-216285Y-79277D01*
X-216260Y-79378D01*
X-216239Y-79481D01*
X-216221Y-79584D01*
X-216208Y-79687D01*
X-216198Y-79791D01*
X-216192Y-79896D01*
X-216190Y-80000D01*
X-216190Y-88382D01*
X-205772Y-88382D02*
X-201115Y-88382D01*
X-205772Y-88382D02*
X-205876Y-88380D01*
X-205981Y-88374D01*
X-206085Y-88364D01*
X-206188Y-88351D01*
X-206291Y-88333D01*
X-206394Y-88312D01*
X-206495Y-88287D01*
X-206596Y-88258D01*
X-206695Y-88225D01*
X-206793Y-88189D01*
X-206889Y-88149D01*
X-206984Y-88105D01*
X-207078Y-88058D01*
X-207169Y-88008D01*
X-207258Y-87954D01*
X-207346Y-87897D01*
X-207431Y-87836D01*
X-207514Y-87772D01*
X-207594Y-87706D01*
X-207672Y-87636D01*
X-207748Y-87564D01*
X-207820Y-87488D01*
X-207890Y-87410D01*
X-207956Y-87330D01*
X-208020Y-87247D01*
X-208081Y-87162D01*
X-208138Y-87074D01*
X-208192Y-86985D01*
X-208242Y-86894D01*
X-208289Y-86800D01*
X-208333Y-86705D01*
X-208373Y-86609D01*
X-208409Y-86511D01*
X-208442Y-86412D01*
X-208471Y-86311D01*
X-208496Y-86210D01*
X-208517Y-86107D01*
X-208535Y-86004D01*
X-208548Y-85901D01*
X-208558Y-85797D01*
X-208564Y-85692D01*
X-208566Y-85588D01*
X-208566Y-80931D01*
X-208565Y-80931D02*
X-208563Y-80810D01*
X-208557Y-80690D01*
X-208547Y-80570D01*
X-208534Y-80450D01*
X-208516Y-80330D01*
X-208495Y-80212D01*
X-208470Y-80094D01*
X-208441Y-79977D01*
X-208408Y-79861D01*
X-208371Y-79746D01*
X-208331Y-79632D01*
X-208287Y-79519D01*
X-208240Y-79409D01*
X-208189Y-79299D01*
X-208134Y-79192D01*
X-208076Y-79086D01*
X-208015Y-78982D01*
X-207950Y-78880D01*
X-207882Y-78781D01*
X-207810Y-78683D01*
X-207736Y-78588D01*
X-207659Y-78496D01*
X-207578Y-78406D01*
X-207495Y-78318D01*
X-207409Y-78234D01*
X-207321Y-78152D01*
X-207229Y-78073D01*
X-207135Y-77997D01*
X-207039Y-77925D01*
X-206941Y-77855D01*
X-206840Y-77788D01*
X-206737Y-77725D01*
X-206632Y-77666D01*
X-206526Y-77609D01*
X-206417Y-77556D01*
X-206307Y-77507D01*
X-206196Y-77461D01*
X-206082Y-77419D01*
X-205968Y-77381D01*
X-205853Y-77346D01*
X-205736Y-77315D01*
X-205618Y-77288D01*
X-205500Y-77265D01*
X-205381Y-77245D01*
X-205261Y-77230D01*
X-205141Y-77218D01*
X-205021Y-77210D01*
X-204900Y-77206D01*
X-204780Y-77206D01*
X-204659Y-77210D01*
X-204539Y-77218D01*
X-204419Y-77230D01*
X-204299Y-77245D01*
X-204180Y-77265D01*
X-204062Y-77288D01*
X-203944Y-77315D01*
X-203827Y-77346D01*
X-203712Y-77381D01*
X-203598Y-77419D01*
X-203484Y-77461D01*
X-203373Y-77507D01*
X-203263Y-77556D01*
X-203154Y-77609D01*
X-203048Y-77666D01*
X-202943Y-77725D01*
X-202840Y-77788D01*
X-202739Y-77855D01*
X-202641Y-77925D01*
X-202545Y-77997D01*
X-202451Y-78073D01*
X-202359Y-78152D01*
X-202271Y-78234D01*
X-202185Y-78318D01*
X-202102Y-78406D01*
X-202021Y-78496D01*
X-201944Y-78588D01*
X-201870Y-78683D01*
X-201798Y-78781D01*
X-201730Y-78880D01*
X-201665Y-78982D01*
X-201604Y-79086D01*
X-201546Y-79192D01*
X-201491Y-79299D01*
X-201440Y-79409D01*
X-201393Y-79519D01*
X-201349Y-79632D01*
X-201309Y-79746D01*
X-201272Y-79861D01*
X-201239Y-79977D01*
X-201210Y-80094D01*
X-201185Y-80212D01*
X-201164Y-80330D01*
X-201146Y-80450D01*
X-201133Y-80570D01*
X-201123Y-80690D01*
X-201117Y-80810D01*
X-201115Y-80931D01*
X-201115Y-82794D01*
X-208566Y-82794D01*
X-191230Y-88382D02*
X-187505Y-88382D01*
X-191230Y-88382D02*
X-191334Y-88380D01*
X-191439Y-88374D01*
X-191543Y-88364D01*
X-191646Y-88351D01*
X-191749Y-88333D01*
X-191852Y-88312D01*
X-191953Y-88287D01*
X-192054Y-88258D01*
X-192153Y-88225D01*
X-192251Y-88189D01*
X-192347Y-88149D01*
X-192442Y-88105D01*
X-192536Y-88058D01*
X-192627Y-88008D01*
X-192716Y-87954D01*
X-192804Y-87897D01*
X-192889Y-87836D01*
X-192972Y-87772D01*
X-193052Y-87706D01*
X-193130Y-87636D01*
X-193206Y-87564D01*
X-193278Y-87488D01*
X-193348Y-87410D01*
X-193414Y-87330D01*
X-193478Y-87247D01*
X-193539Y-87162D01*
X-193596Y-87074D01*
X-193650Y-86985D01*
X-193700Y-86894D01*
X-193747Y-86800D01*
X-193791Y-86705D01*
X-193831Y-86609D01*
X-193867Y-86511D01*
X-193900Y-86412D01*
X-193929Y-86311D01*
X-193954Y-86210D01*
X-193975Y-86107D01*
X-193993Y-86004D01*
X-194006Y-85901D01*
X-194016Y-85797D01*
X-194022Y-85692D01*
X-194024Y-85588D01*
X-194024Y-80000D01*
X-194022Y-79896D01*
X-194016Y-79791D01*
X-194006Y-79687D01*
X-193993Y-79584D01*
X-193975Y-79481D01*
X-193954Y-79378D01*
X-193929Y-79277D01*
X-193900Y-79176D01*
X-193867Y-79077D01*
X-193831Y-78979D01*
X-193791Y-78883D01*
X-193747Y-78788D01*
X-193700Y-78694D01*
X-193650Y-78603D01*
X-193596Y-78514D01*
X-193539Y-78426D01*
X-193478Y-78341D01*
X-193414Y-78258D01*
X-193348Y-78178D01*
X-193278Y-78100D01*
X-193206Y-78024D01*
X-193130Y-77952D01*
X-193052Y-77882D01*
X-192972Y-77816D01*
X-192889Y-77752D01*
X-192804Y-77691D01*
X-192716Y-77634D01*
X-192627Y-77580D01*
X-192536Y-77530D01*
X-192442Y-77483D01*
X-192347Y-77439D01*
X-192251Y-77399D01*
X-192153Y-77363D01*
X-192054Y-77330D01*
X-191953Y-77301D01*
X-191852Y-77276D01*
X-191749Y-77255D01*
X-191646Y-77237D01*
X-191543Y-77224D01*
X-191439Y-77214D01*
X-191334Y-77208D01*
X-191230Y-77206D01*
X-187505Y-77206D01*
X-182666Y-77206D02*
X-177078Y-77206D01*
X-180803Y-71618D02*
X-180803Y-85588D01*
X-180801Y-85692D01*
X-180795Y-85797D01*
X-180785Y-85901D01*
X-180772Y-86004D01*
X-180754Y-86107D01*
X-180733Y-86210D01*
X-180708Y-86311D01*
X-180679Y-86412D01*
X-180646Y-86511D01*
X-180610Y-86609D01*
X-180570Y-86705D01*
X-180526Y-86800D01*
X-180479Y-86894D01*
X-180429Y-86985D01*
X-180375Y-87074D01*
X-180318Y-87162D01*
X-180257Y-87247D01*
X-180193Y-87330D01*
X-180127Y-87410D01*
X-180057Y-87488D01*
X-179985Y-87564D01*
X-179909Y-87636D01*
X-179831Y-87706D01*
X-179751Y-87772D01*
X-179668Y-87836D01*
X-179583Y-87897D01*
X-179495Y-87954D01*
X-179406Y-88008D01*
X-179315Y-88058D01*
X-179221Y-88105D01*
X-179126Y-88149D01*
X-179030Y-88189D01*
X-178932Y-88225D01*
X-178833Y-88258D01*
X-178732Y-88287D01*
X-178631Y-88312D01*
X-178528Y-88333D01*
X-178425Y-88351D01*
X-178322Y-88364D01*
X-178218Y-88374D01*
X-178113Y-88380D01*
X-178009Y-88382D01*
X-177078Y-88382D01*
X-170598Y-84657D02*
X-170598Y-80931D01*
X-170596Y-80810D01*
X-170590Y-80690D01*
X-170580Y-80570D01*
X-170567Y-80450D01*
X-170549Y-80330D01*
X-170528Y-80212D01*
X-170503Y-80094D01*
X-170474Y-79977D01*
X-170441Y-79861D01*
X-170404Y-79746D01*
X-170364Y-79632D01*
X-170320Y-79519D01*
X-170273Y-79409D01*
X-170222Y-79299D01*
X-170167Y-79192D01*
X-170109Y-79086D01*
X-170048Y-78982D01*
X-169983Y-78880D01*
X-169915Y-78781D01*
X-169843Y-78683D01*
X-169769Y-78588D01*
X-169692Y-78496D01*
X-169611Y-78406D01*
X-169528Y-78318D01*
X-169442Y-78234D01*
X-169354Y-78152D01*
X-169262Y-78073D01*
X-169168Y-77997D01*
X-169072Y-77925D01*
X-168974Y-77855D01*
X-168873Y-77788D01*
X-168770Y-77725D01*
X-168665Y-77666D01*
X-168559Y-77609D01*
X-168450Y-77556D01*
X-168340Y-77507D01*
X-168229Y-77461D01*
X-168115Y-77419D01*
X-168001Y-77381D01*
X-167886Y-77346D01*
X-167769Y-77315D01*
X-167651Y-77288D01*
X-167533Y-77265D01*
X-167414Y-77245D01*
X-167294Y-77230D01*
X-167174Y-77218D01*
X-167054Y-77210D01*
X-166933Y-77206D01*
X-166813Y-77206D01*
X-166692Y-77210D01*
X-166572Y-77218D01*
X-166452Y-77230D01*
X-166332Y-77245D01*
X-166213Y-77265D01*
X-166095Y-77288D01*
X-165977Y-77315D01*
X-165860Y-77346D01*
X-165745Y-77381D01*
X-165631Y-77419D01*
X-165517Y-77461D01*
X-165406Y-77507D01*
X-165296Y-77556D01*
X-165187Y-77609D01*
X-165081Y-77666D01*
X-164976Y-77725D01*
X-164873Y-77788D01*
X-164772Y-77855D01*
X-164674Y-77925D01*
X-164578Y-77997D01*
X-164484Y-78073D01*
X-164392Y-78152D01*
X-164304Y-78234D01*
X-164218Y-78318D01*
X-164135Y-78406D01*
X-164054Y-78496D01*
X-163977Y-78588D01*
X-163903Y-78683D01*
X-163831Y-78781D01*
X-163763Y-78880D01*
X-163698Y-78982D01*
X-163637Y-79086D01*
X-163579Y-79192D01*
X-163524Y-79299D01*
X-163473Y-79409D01*
X-163426Y-79519D01*
X-163382Y-79632D01*
X-163342Y-79746D01*
X-163305Y-79861D01*
X-163272Y-79977D01*
X-163243Y-80094D01*
X-163218Y-80212D01*
X-163197Y-80330D01*
X-163179Y-80450D01*
X-163166Y-80570D01*
X-163156Y-80690D01*
X-163150Y-80810D01*
X-163148Y-80931D01*
X-163147Y-80931D02*
X-163147Y-84657D01*
X-163148Y-84657D02*
X-163150Y-84778D01*
X-163156Y-84898D01*
X-163166Y-85018D01*
X-163179Y-85138D01*
X-163197Y-85258D01*
X-163218Y-85376D01*
X-163243Y-85494D01*
X-163272Y-85611D01*
X-163305Y-85727D01*
X-163342Y-85842D01*
X-163382Y-85956D01*
X-163426Y-86069D01*
X-163473Y-86179D01*
X-163524Y-86289D01*
X-163579Y-86396D01*
X-163637Y-86502D01*
X-163698Y-86606D01*
X-163763Y-86708D01*
X-163831Y-86807D01*
X-163903Y-86905D01*
X-163977Y-87000D01*
X-164054Y-87092D01*
X-164135Y-87182D01*
X-164218Y-87270D01*
X-164304Y-87354D01*
X-164392Y-87436D01*
X-164484Y-87515D01*
X-164578Y-87591D01*
X-164674Y-87663D01*
X-164772Y-87733D01*
X-164873Y-87800D01*
X-164976Y-87863D01*
X-165081Y-87922D01*
X-165187Y-87979D01*
X-165296Y-88032D01*
X-165406Y-88081D01*
X-165517Y-88127D01*
X-165631Y-88169D01*
X-165745Y-88207D01*
X-165860Y-88242D01*
X-165977Y-88273D01*
X-166095Y-88300D01*
X-166213Y-88323D01*
X-166332Y-88343D01*
X-166452Y-88358D01*
X-166572Y-88370D01*
X-166692Y-88378D01*
X-166813Y-88382D01*
X-166933Y-88382D01*
X-167054Y-88378D01*
X-167174Y-88370D01*
X-167294Y-88358D01*
X-167414Y-88343D01*
X-167533Y-88323D01*
X-167651Y-88300D01*
X-167769Y-88273D01*
X-167886Y-88242D01*
X-168001Y-88207D01*
X-168115Y-88169D01*
X-168229Y-88127D01*
X-168340Y-88081D01*
X-168450Y-88032D01*
X-168559Y-87979D01*
X-168665Y-87922D01*
X-168770Y-87863D01*
X-168873Y-87800D01*
X-168974Y-87733D01*
X-169072Y-87663D01*
X-169168Y-87591D01*
X-169262Y-87515D01*
X-169354Y-87436D01*
X-169442Y-87354D01*
X-169528Y-87270D01*
X-169611Y-87182D01*
X-169692Y-87092D01*
X-169769Y-87000D01*
X-169843Y-86905D01*
X-169915Y-86807D01*
X-169983Y-86708D01*
X-170048Y-86606D01*
X-170109Y-86502D01*
X-170167Y-86396D01*
X-170222Y-86289D01*
X-170273Y-86179D01*
X-170320Y-86069D01*
X-170364Y-85956D01*
X-170404Y-85842D01*
X-170441Y-85727D01*
X-170474Y-85611D01*
X-170503Y-85494D01*
X-170528Y-85376D01*
X-170549Y-85258D01*
X-170567Y-85138D01*
X-170580Y-85018D01*
X-170590Y-84898D01*
X-170596Y-84778D01*
X-170598Y-84657D01*
X-155407Y-88382D02*
X-155407Y-77206D01*
X-149819Y-77206D01*
X-149819Y-79069D01*
D11*
X-407632Y-63770D02*
X-413982Y-96790D01*
X-401790Y-84090D02*
X-407632Y-63770D01*
X-401790Y-84090D02*
X-410172Y-84852D01*
X-401028Y-93996D01*
X-411188Y-94758D01*
X-402298Y-85614D01*
X-397472Y-96790D01*
M02*
